<?xml version="1.0" encoding="UTF-8"?>
<svg width="271px" height="207px" viewBox="0 0 271 207" version="1.1" xmlns="http://www.w3.org/2000/svg" xmlns:xlink="http://www.w3.org/1999/xlink">
    <!-- Generator: Sketch 52.2 (67145) - http://www.bohemiancoding.com/sketch -->
    <title>Artboard</title>
    <desc>Created with Sketch.</desc>
    <defs>
        <polygon id="path-1" points="0 206 270.973 206 270.973 0.182 0 0.182"></polygon>
        <path d="M23.908,2.511 C22.024,3.939 21.773,5.426 22.354,6.607 C20.834,7.98 19.832,9.855 19.826,11.24 C19.798,16.248 22.472,21.314 25.753,22.757 C26.466,23.579 27.284,24.27 28.196,24.752 C28.134,25.921 28.166,27.144 28.361,28.368 L22.543,28.368 C21.438,28.368 20.545,29.141 20.308,30.142 L20.304,30.142 C20.304,30.142 18.144,40.431 16.755,47.021 C16.424,46.632 16.055,46.192 15.644,45.691 C15.395,45.382 15.125,45.051 14.835,44.691 L14.461,44.99 C14.415,44.934 14.371,44.879 14.325,44.821 C14.195,44.661 14.066,44.492 13.934,44.331 C12.775,42.872 11.595,41.301 10.525,39.831 C10.495,39.792 10.465,39.761 10.434,39.722 C10.375,39.651 10.305,39.571 10.245,39.511 C10.185,39.442 10.116,39.381 10.045,39.332 C9.974,39.272 9.905,39.211 9.825,39.161 C9.755,39.111 9.684,39.071 9.604,39.031 C9.525,38.982 9.445,38.941 9.354,38.912 C9.276,38.872 9.205,38.841 9.116,38.822 C9.036,38.792 8.945,38.771 8.845,38.751 C8.765,38.732 8.684,38.721 8.604,38.712 C8.514,38.701 8.415,38.691 8.325,38.691 C8.245,38.691 8.155,38.691 8.075,38.701 C7.985,38.701 7.894,38.721 7.795,38.732 C7.715,38.751 7.625,38.771 7.535,38.792 C7.455,38.822 7.365,38.841 7.285,38.881 C7.195,38.912 7.104,38.951 7.026,38.991 C6.985,39.021 6.935,39.031 6.894,39.051 C6.335,39.381 4.925,39.761 4.155,39.992 C2.705,40.411 1.224,41.411 0.585,42.901 C-0.015,44.312 1.865,44.462 3.394,44.462 C4.526,44.462 7.385,42.911 8.335,42.571 C9.295,43.952 10.165,45.201 10.934,46.321 C11.055,46.491 11.175,46.661 11.286,46.832 C11.39,46.988 11.487,47.134 11.589,47.286 L9.755,48.751 C10.035,49.101 10.305,49.442 10.566,49.761 C14.445,54.512 16.445,56.192 18.434,56.201 L18.455,56.201 C18.755,56.201 19.065,56.161 19.375,56.092 C19.745,56.001 20.085,55.861 20.394,55.671 C21.245,55.161 21.865,54.302 22.085,53.251 C22.123,53.072 22.171,52.849 22.226,52.588 C22.388,51.828 22.618,50.749 22.893,49.47 C23.954,58.416 25.584,60.248 24.367,73.026 L47.65,73.026 C47.65,73.026 46.764,49.281 45.121,36.564 C47.415,36.915 50.71,37.026 53.648,36.745 C56.475,36.474 58.526,35.971 60.495,34.981 C61.434,34.512 62.597,33.951 67.398,24.752 C67.577,24.411 67.758,24.072 67.938,23.712 L66.654,22.785 C66.781,22.429 66.904,22.083 67.014,21.761 C67.025,21.722 67.045,21.681 67.055,21.642 C67.335,20.771 67.585,20.062 67.755,19.581 C68.104,18.611 68.316,18.212 68.634,17.482 C68.945,16.752 71.955,16.741 73.185,15.911 C74.465,15.062 74.315,12.882 73.795,11.462 C73.758,11.361 73.7,11.289 73.649,11.206 C73.881,11.058 74.116,10.905 74.358,10.743 C76.123,9.566 77.58,6.633 74.957,8.658 C73.971,9.419 72.881,10.048 71.963,10.565 C71.342,10.655 70.678,10.932 70.125,11.301 C69.435,11.761 66.095,14.111 65.195,17.102 C64.755,18.042 64.305,18.981 63.835,19.902 C63.736,20.102 63.635,20.301 63.535,20.501 C63.531,20.51 63.527,20.517 63.522,20.525 L63.116,20.231 C62.925,20.602 62.745,20.951 62.576,21.282 C59.236,27.681 57.735,29.021 57.505,29.202 C55.017,30.384 49.084,29.883 44.352,28.924 C43.179,28.592 42.216,28.368 41.816,28.368 L35.055,28.368 C34.824,27.779 34.689,27.023 34.71,25.808 C41.335,27.062 43.179,19.731 43.179,14.558 C43.179,12.469 42.607,10.535 41.612,8.915 C44.135,6.987 43.563,2.573 43.563,2.573 C43.563,2.573 43.387,4.165 39.721,2.511 C36.852,1.216 33.958,0.748 31.421,0.748 C27.878,0.747 25.029,1.661 23.908,2.511 M24.367,73.026 C24.237,73.737 24.137,74.428 24.051,75.11 L23.585,75.11 L23.585,75.609 L23.997,75.609 C23.363,81.292 24.166,85.825 24.791,88.238 C24.988,92.436 25.729,111.07 25.057,119.445 C24.346,128.334 23.709,152.976 23.691,153.245 L24.678,153.245 L24.605,154.362 L24.441,154.337 C23.872,154.257 23.776,154.649 23.491,155.12 C22.556,156.67 21.759,159.865 23.46,159.865 C26.917,159.865 26.294,159.712 27.679,159.746 C28.615,159.767 29.557,159.865 32.663,159.865 C32.826,159.865 32.972,159.861 33.112,159.854 C33.159,159.855 33.197,159.865 33.248,159.865 C36.653,159.865 37.181,159.658 38.566,159.623 C39.951,159.588 42.228,159.865 45.334,159.865 C48.439,159.865 48.327,158.773 46.12,158.454 C44.061,158.156 40.048,156.197 38.728,155.102 C38.562,154.964 38.357,154.884 38.14,154.841 L38.524,153.627 L39.096,153.666 C40.232,150.618 49.199,126.746 48.987,115.811 C48.825,107.385 47.94,89.803 47.783,86.941 C48.235,79.627 47.65,73.026 47.65,73.026 M28.478,155.102 C28.292,154.949 28.061,154.858 27.817,154.822 L28.08,153.245 L28.866,153.245 C28.884,152.977 33.629,129.013 34.335,120.189 C34.943,112.594 35.458,97.465 35.661,90.791 C36.945,96.714 39.555,109.38 39.682,115.991 C39.832,123.762 39.23,130.249 34.022,153.321 L35.126,153.396 L34.916,154.37 L34.69,154.337 C34.122,154.257 33.561,154.511 33.276,154.983 C32.865,155.663 32.306,156.688 32.03,157.624 C30.929,157.055 29.592,156.027 28.478,155.102" id="path-3"></path>
        <path d="M38.532,2.146 C38.058,1.869 37.948,0.904 37.948,0.904 C37.948,0.904 37.047,1.547 37.047,2.908 C37.047,4.469 37.826,5.54 39.03,6.233 C37.902,7.677 37.068,9.351 36.637,11.022 C36.341,11.024 36.042,11.112 35.783,11.332 C35.01,11.985 34.521,12.96 34.521,14.05 C34.521,15.14 35.01,16.115 35.783,16.768 C36.119,17.053 36.523,17.135 36.898,17.066 C37.835,19.853 40.772,24.277 45.164,24.596 C45.185,25.808 45.04,26.687 44.787,27.372 L38.045,27.372 C38.023,27.372 38.003,27.376 37.981,27.376 C37.589,27.371 37.201,27.423 36.833,27.54 C35.649,27.913 34.676,28.895 34.387,30.203 C34.36,30.326 33.694,33.302 32.925,37.156 L32.389,39.824 L32.212,40.707 L32.687,40.801 C32.632,41.061 32.579,41.319 32.525,41.582 C31.245,47.641 29.875,54.342 29.474,57.062 C28.645,62.732 19.775,67.291 16.424,68.571 C16.373,68.591 16.329,68.621 16.279,68.644 C16.172,68.692 16.066,68.738 15.964,68.8 C15.871,68.857 15.789,68.926 15.704,68.992 C15.654,69.031 15.601,69.061 15.552,69.104 C15.54,69.115 15.521,69.133 15.505,69.146 C15.5,69.152 15.493,69.158 15.488,69.164 C14.776,69.821 11.992,72.628 12.335,76.044 C12.456,77.254 12.503,77.705 13.332,78.057 C5.753,78.277 2.693,79.183 0.983,82.278 C0.138,83.812 -0.421,86.341 1.725,89.692 C4.984,94.783 13.052,101.602 19.413,106.591 C19.928,109.908 20.826,113.491 21.949,117.175 C21.716,117.377 21.494,117.555 21.287,117.697 C19.492,118.921 19.826,119.915 22.425,118.7 C24.269,124.503 26.569,130.464 28.654,135.895 C28.528,137.691 27.636,141.324 25.669,142.581 C23.79,143.783 24.386,144.699 27.243,143.484 C29.793,142.402 31.179,139.606 32.132,138.603 C33.086,137.597 33.594,137.343 35.874,134.815 C37.624,132.874 34.006,131.909 32.229,131.566 C32.224,131.566 32.218,131.566 32.213,131.566 C32.208,131.566 32.202,131.566 32.198,131.565 C30.859,126.605 29.772,120.701 29.059,115.217 C30.038,114.809 30.816,114.599 33.467,113.301 C35.813,112.152 32.814,109.909 31.293,108.929 C31.277,108.918 31.258,108.915 31.241,108.906 L31.378,108.734 C30.496,108.021 29.405,107.005 28.188,105.8 C28.05,102.766 28.12,100.323 28.442,98.928 C29.852,92.822 39.146,89.011 45.863,87.183 L54.484,87.183 C54.484,87.183 56.717,83.062 55.933,75.152 L56.107,75.152 L56.107,74.651 L55.876,74.651 C55.781,73.813 55.664,72.948 55.495,72.026 C55.421,71.023 55.393,69.853 55.402,68.565 C56.147,69.146 57.038,69.719 58.013,70.058 C58.313,70.162 58.619,70.211 58.92,70.211 C60.065,70.211 60.626,68.472 61.022,67.328 C61.523,65.884 59.515,64.576 58.07,64.076 C58.036,64.064 57.996,64.042 57.96,64.026 C65.897,57.911 71.746,53.284 71.745,50.092 C71.744,47.951 69.495,43.631 66.665,39.131 C66.52,38.902 66.37,38.672 66.223,38.443 L66.805,38.082 L66.325,37.311 L64.895,35.011 C62.825,31.671 61.155,29.111 61.085,29.012 C60.434,28.012 59.365,27.441 58.264,27.382 C58.047,27.365 57.824,27.375 57.604,27.403 C57.508,27.392 57.414,27.372 57.315,27.372 L51.489,27.372 C51.706,26.053 51.742,24.736 51.678,23.526 C53.99,22.303 55.646,19.517 56.514,17.014 C56.674,16.962 56.831,16.889 56.974,16.768 C57.746,16.115 58.236,15.14 58.236,14.05 C58.236,13.28 57.981,12.573 57.564,11.991 C57.59,11.334 57.562,10.776 57.496,10.407 C57.131,8.396 55.996,4.207 53.212,2.971 C53.942,0.139 48.284,0.595 44.21,1.137 C42.559,1.356 42.986,0.383 42.986,0.383 C40.759,0.863 38.532,2.146 38.532,2.146 M58.32,38.162 C58.458,38.384 58.593,38.601 58.735,38.831 L60.165,41.142 L60.644,41.911 L61.491,41.385 C61.718,41.738 61.96,42.107 62.175,42.451 C64.285,45.781 65.844,48.571 66.165,49.791 C65.25,51.551 60.495,56.476 55.748,60.896 C56.281,53.605 57.338,44.991 58.32,38.162 M18.21,76.485 C18.171,76.099 17.452,72.466 18.085,71.777 C23.855,69.335 29.471,67.883 32.608,63.733 C32.352,68.614 32.217,71.99 32.215,72.026 L32.212,72.026 C32.212,72.026 32.104,74.522 32.112,78.073 C29.865,78.062 27.75,78.047 25.801,78.031 C22.757,78.007 20.095,77.989 17.754,77.995 C18.115,77.693 18.284,77.216 18.21,76.485 M11.655,87.432 C14.938,87.263 19.894,87.293 25.09,87.334 C22.461,89.797 20.41,92.804 19.477,96.459 C16.601,93.221 13.804,89.969 11.655,87.432" id="path-5"></path>
    </defs>
    <g id="Artboard" stroke="none" stroke-width="1" fill="none" fill-rule="evenodd">
        <g id="Group-164">
            <g id="Group-83" transform="translate(0.000000, 0.818000)">
                <path d="M28.8413,146.4297 C28.8413,175.0527 49.8703,189.1487 77.2153,189.1487 C104.5593,189.1487 129.3453,169.0117 129.3453,140.3877 C129.3453,111.7647 98.6483,85.3847 72.3753,92.9647 C43.4003,101.3247 28.8413,117.8057 28.8413,146.4297" id="Fill-1" fill="#FFF3E1"></path>
                <path d="M113.0322,17.4195 C109.1172,17.4195 107.1832,13.0975 105.3122,8.9185 C103.4342,4.7215 101.6602,0.7575 98.1172,0.7575 C94.5752,0.7575 92.8012,4.7215 90.9232,8.9185 C89.0522,13.0975 87.1172,17.4195 83.2022,17.4195 C79.2882,17.4195 77.3542,13.0975 75.4832,8.9185 C73.6052,4.7215 71.8312,0.7575 68.2892,0.7575 C64.7472,0.7575 62.9732,4.7215 61.0952,8.9185 C59.2242,13.0975 57.2912,17.4195 53.3762,17.4195 C49.4612,17.4195 47.5272,13.0975 45.6562,8.9185 C43.7782,4.7215 42.0052,0.7575 38.4632,0.7575 C38.3032,0.7575 38.1762,0.6285 38.1762,0.4695 C38.1762,0.3115 38.3032,0.1825 38.4632,0.1825 C42.3772,0.1825 44.3102,4.5035 46.1812,8.6835 C48.0592,12.8795 49.8342,16.8445 53.3762,16.8445 C56.9182,16.8445 58.6922,12.8795 60.5702,8.6835 C62.4412,4.5035 64.3752,0.1825 68.2892,0.1825 C72.2042,0.1825 74.1372,4.5045 76.0092,8.6835 C77.8862,12.8805 79.6602,16.8445 83.2022,16.8445 C86.7452,16.8445 88.5192,12.8795 90.3972,8.6835 C92.2682,4.5035 94.2022,0.1825 98.1172,0.1825 C102.0322,0.1825 103.9672,4.5045 105.8382,8.6835 C107.7162,12.8805 109.4902,16.8445 113.0322,16.8445 C113.1912,16.8445 113.3192,16.9735 113.3192,17.1315 C113.3192,17.2905 113.1912,17.4195 113.0322,17.4195" id="Fill-3" fill="#FCA286"></path>
                <path d="M10.6049,118.9951 C6.3749,108.3751 8.5549,95.8151 17.1449,87.2251 C21.2949,83.0751 26.3649,80.4251 31.7049,79.2751 L34.8449,93.6151 C28.1849,95.0651 23.2049,100.9951 23.2049,108.0751 C23.2049,110.0161 23.5749,111.8651 24.2549,113.5561 L10.6049,118.9951 Z" id="Fill-5" fill="#FFC550"></path>
                <path d="M58.4785,128.9034 C54.5085,132.8734 49.6985,135.4734 44.6275,136.7034 C42.3285,137.2634 39.9785,137.5434 37.6285,137.5434 C36.2885,137.5434 34.9585,137.4534 33.6285,137.2734 C27.4685,136.4334 21.5085,133.6434 16.7685,128.9034 C16.5385,128.6744 16.3185,128.4334 16.0985,128.1934 L26.8185,118.1634 C29.5185,121.0434 33.3585,122.8434 37.6285,122.8434 C45.7975,122.8434 52.4175,116.2234 52.4175,108.0534 C52.4175,102.2334 49.0585,97.1934 44.1675,94.7834 L50.6675,81.6134 C53.4885,82.9934 56.1385,84.8634 58.4785,87.2034 C69.9885,98.7144 69.9885,117.3934 58.4785,128.9034" id="Fill-7" fill="#F25F46"></path>
                <path d="M50.6679,81.6133 L44.1679,94.7833 C42.1979,93.8033 39.9789,93.2533 37.6279,93.2533 C36.5389,93.2533 35.4789,93.3733 34.4679,93.5933 L31.3279,79.2533 C32.0879,79.0833 32.8579,78.9433 33.6279,78.8433 C34.9679,78.6533 36.3089,78.5633 37.6479,78.5633 C40.4389,78.5633 43.2379,78.9633 45.9479,79.7633 C47.5589,80.2333 49.1389,80.8533 50.6679,81.6133" id="Fill-9" fill="#F7882D"></path>
                <path d="M16.1001,127.9346 C13.5101,125.1846 11.5501,122.0446 10.2301,118.7146 L23.8801,113.2746 C24.5601,115.0046 25.5701,116.5646 26.8201,117.9046 L16.1001,127.9346 Z" id="Fill-11" fill="#A62C17"></path>
                <path d="M201.1689,80.6133 C159.8709,71.3733 117.0399,71.3733 75.7409,80.6133 C73.3499,81.1473 70.9519,79.7053 70.3789,77.3473 C66.0449,59.2943 61.7109,41.2413 57.3769,23.1893 C56.8039,20.8323 58.7179,18.3433 61.6619,17.6853 C112.2319,6.3713 164.6789,6.3713 215.2489,17.6853 C218.1919,18.3433 220.1069,20.8323 219.5339,23.1893 C215.1999,41.2413 210.8659,59.2943 206.5309,77.3473 C205.9579,79.7053 203.5609,81.1473 201.1689,80.6133" id="Fill-13" fill="#FFDEA9"></path>
                <path d="M74.209,73.9961 C70.501,57.4401 66.794,40.8831 63.086,24.3271 C62.788,23.0081 63.859,21.6421 65.48,21.2951 C113.581,10.9591 163.33,10.9591 211.43,21.2951 C213.051,21.6431 214.122,23.0081 213.824,24.3271 C210.117,40.8831 206.409,57.4401 202.702,73.9961 C202.404,75.3151 201.065,76.1381 199.708,75.8461 C159.334,67.1701 117.576,67.1701 77.202,75.8461 C75.846,76.1381 74.507,75.3151 74.209,73.9961" id="Fill-15" fill="#FFFFFF"></path>
                <path d="M151.9316,25.5757 C151.3936,38.9567 150.8566,52.3387 150.3186,65.7197 C149.9746,65.7057 149.6306,65.6927 149.2876,65.6797 C149.7786,52.2967 150.2696,38.9137 150.7606,25.5307 C151.1516,25.5447 151.5406,25.5597 151.9316,25.5757" id="Fill-17" fill="#F25F46"></path>
                <path d="M79.1435,53.5533 C80.2545,59.3133 81.3665,65.0733 82.4785,70.8333 C82.1385,70.8983 81.7995,70.9643 81.4615,71.0313 C80.3305,65.2753 79.1985,59.5193 78.0665,53.7633 C78.4245,53.6923 78.7845,53.6223 79.1435,53.5533" id="Fill-19" fill="#E2EBF4"></path>
                <path d="M103.4424,53.9449 C103.9544,58.4249 104.4644,62.9049 104.9754,67.3839 C104.6334,67.4239 104.2924,67.4629 103.9504,67.5039 C103.4224,63.0259 102.8964,58.5479 102.3704,54.0699 C102.7274,54.0279 103.0854,53.9859 103.4424,53.9449" id="Fill-21" fill="#E2EBF4"></path>
                <path d="M126.584,37.378 C126.931,46.812 127.276,56.246 127.623,65.68 C127.279,65.692 126.936,65.706 126.593,65.72 C126.213,56.287 125.834,46.854 125.455,37.421 C125.831,37.406 126.208,37.392 126.584,37.378" id="Fill-23" fill="#E2EBF4"></path>
                <path d="M176.7441,35.3321 C175.4831,46.0561 174.2221,56.7791 172.9611,67.5031 C172.6191,67.4631 172.2761,67.4231 171.9341,67.3841 L175.6051,35.2001 C175.9851,35.2431 176.3651,35.2871 176.7441,35.3321" id="Fill-25" fill="#E2EBF4"></path>
                <path d="M199.665,49.5889 L195.449,71.0309 C195.11,70.9639 194.771,70.8989 194.433,70.8329 C195.812,63.6809 197.193,56.5289 198.573,49.3769 C198.937,49.4469 199.301,49.5179 199.665,49.5889" id="Fill-27" fill="#E2EBF4"></path>
                <path d="M125.876,30.5108 C125.749,30.5108 125.62,30.5128 125.49,30.5178 C118.669,30.8018 115.735,37.4998 113.147,43.9458 C110.704,49.9838 108.59,55.6898 103.782,56.9208 L103.897,57.9238 C109.364,56.6318 111.705,50.3688 114.191,44.2728 C116.796,37.8518 119.485,31.7668 125.529,31.5168 C125.643,31.5128 125.754,31.5108 125.865,31.5108 C131.691,31.5108 134.786,37.2638 137.826,43.3458 C140.866,49.3978 143.766,55.6378 149.635,56.2078 C149.647,55.8738 149.66,55.5398 149.672,55.2058 C144.469,54.6508 141.844,48.9568 138.843,42.9378 C135.817,36.8328 132.443,30.5108 125.876,30.5108 M175.646,32.4278 C169.548,32.4278 165.86,38.2258 162.509,43.8488 C159.048,49.6288 155.987,55.1118 150.739,55.2488 C150.726,55.5828 150.712,55.9168 150.699,56.2508 C156.609,56.1498 159.989,50.1418 163.491,44.3338 C166.857,38.7278 170.253,33.4288 175.682,33.4298 C176.006,33.4298 176.338,33.4488 176.678,33.4878 C182.694,34.2018 184.914,40.4768 187.022,47.0808 C189.036,53.3398 190.892,59.7538 196.237,61.4798 C196.302,61.1498 196.365,60.8188 196.429,60.4878 C191.737,58.8738 190.066,53.0318 188.093,46.8348 C186.001,40.2078 183.583,33.3028 176.794,32.4938 C176.401,32.4488 176.02,32.4278 175.646,32.4278 M76.313,36.3358 C75.704,36.3358 75.075,36.3958 74.426,36.5228 C74.49,36.8498 74.555,37.1768 74.619,37.5038 C75.182,37.3938 75.728,37.3418 76.257,37.3418 C81.344,37.3418 84.997,42.1668 88.647,47.2768 C92.481,52.6228 96.212,58.1658 101.822,58.1658 C102.156,58.1658 102.497,58.1458 102.845,58.1058 L102.728,57.1128 C102.426,57.1468 102.13,57.1638 101.84,57.1638 C96.81,57.1638 93.4,52.0648 89.59,46.7148 C85.958,41.5938 82.004,36.3358 76.313,36.3358 M197.468,60.7648 C197.448,60.8638 197.429,60.9618 197.41,61.0598 C197.429,60.9618 197.448,60.8638 197.468,60.7648" id="Fill-29" fill="#E7EAFE"></path>
                <path d="M149.6718,55.2061 C149.6598,55.5401 149.6478,55.8741 149.6348,56.2081 C149.8138,56.2251 149.9948,56.2371 150.1788,56.2441 C150.3038,56.2491 150.4258,56.2511 150.5478,56.2511 C150.5988,56.2511 150.6488,56.2511 150.6988,56.2501 C150.7118,55.9161 150.7258,55.5821 150.7388,55.2481 C150.6728,55.2501 150.6058,55.2511 150.5378,55.2511 C150.4318,55.2511 150.3238,55.2491 150.2168,55.2451 C150.0318,55.2381 149.8508,55.2251 149.6718,55.2061" id="Fill-31" fill="#DD7A7D"></path>
                <path d="M103.7822,56.9204 C103.4532,57.0044 103.1122,57.0674 102.7572,57.1084 C102.7472,57.1094 102.7372,57.1104 102.7272,57.1124 L102.8452,58.1054 C102.8542,58.1044 102.8642,58.1034 102.8742,58.1024 C103.2262,58.0614 103.5672,58.0014 103.8962,57.9234 L103.7822,56.9204" id="Fill-33" fill="#D2DCF7"></path>
                <path d="M196.4287,60.4878 C196.3657,60.8188 196.3017,61.1498 196.2377,61.4798 C196.5697,61.5878 196.9147,61.6758 197.2747,61.7458 C197.3197,61.5168 197.3647,61.2888 197.4097,61.0598 C197.4287,60.9618 197.4487,60.8628 197.4677,60.7648 C197.1057,60.6948 196.7597,60.6018 196.4287,60.4878" id="Fill-35" fill="#D2DCF7"></path>
                <path d="M75.4795,25.0059 C75.6255,25.7919 75.0865,26.5519 74.2745,26.7079 C73.4615,26.8639 72.6785,26.3579 72.5235,25.5729 C72.3695,24.7889 72.9085,24.0219 73.7285,23.8639 C74.5475,23.7069 75.3335,24.2199 75.4795,25.0059" id="Fill-37" fill="#FFC550"></path>
                <path d="M81.0312,24.0122 C81.1652,24.8012 80.6132,25.5522 79.7992,25.6942 C78.9852,25.8362 78.2112,25.3172 78.0682,24.5302 C77.9272,23.7432 78.4772,22.9862 79.3002,22.8422 C80.1222,22.6982 80.8972,23.2232 81.0312,24.0122" id="Fill-39" fill="#FFC550"></path>
                <path d="M86.5947,23.1109 C86.7147,23.9019 86.1517,24.6439 85.3357,24.7729 C84.5207,24.9019 83.7547,24.3699 83.6257,23.5799 C83.4967,22.7909 84.0597,22.0429 84.8837,21.9119 C85.7077,21.7819 86.4737,22.3209 86.5947,23.1109" id="Fill-41" fill="#FFC550"></path>
                <polygon id="Fill-43" fill="#D6DDEA" points="74.4805 199.2442 75.0355 190.8692 78.9105 191.2862 77.4805 199.8282"></polygon>
                <path d="M77.8037,197.8184 C78.0527,197.8534 78.2887,197.9454 78.4787,198.1024 C79.7977,199.1974 81.4317,200.4434 82.6137,200.8924 C84.6087,201.6524 85.7687,202.8654 82.6627,202.8654 C79.5577,202.8654 78.6157,202.7674 77.6787,202.7454 C76.2937,202.7124 76.9167,202.8654 73.4597,202.8654 C71.7587,202.8654 72.5567,199.6704 73.4917,198.1204 C73.7757,197.6484 73.8717,197.2564 74.4407,197.3384 L77.8037,197.8184 Z" id="Fill-45" fill="#D84835"></path>
                <polygon id="Fill-47" fill="#D6DDEA" points="84.5117 199.2442 86.2727 191.0782 90.1477 191.4942 87.5117 199.8282"></polygon>
                <path d="M88.0537,197.8184 C88.3027,197.8534 88.5387,197.9454 88.7287,198.1024 C90.0477,199.1974 94.0607,201.1564 96.1197,201.4544 C98.3267,201.7724 98.4397,202.8654 95.3337,202.8654 C92.2287,202.8654 89.9507,202.5884 88.5667,202.6234 C87.1817,202.6584 86.6537,202.8654 83.2477,202.8654 C80.6347,202.8654 82.3407,199.5324 83.2767,197.9824 C83.5607,197.5104 84.1217,197.2564 84.6907,197.3384 L88.0537,197.8184 Z" id="Fill-49" fill="#F25F46"></path>
                <path d="M124.957,51.6577 C123.971,52.4187 122.881,53.0477 121.963,53.5647 C121.343,53.6547 120.679,53.9307 120.125,54.3017 C119.435,54.7617 116.095,57.1117 115.195,60.1017 C114.755,61.0417 114.305,61.9817 113.835,62.9017 C113.735,63.1017 113.635,63.3017 113.535,63.5017 C113.435,63.6917 113.345,63.8717 113.255,64.0517 C112.785,64.9417 112.325,65.8017 111.865,66.6117 C110.115,69.7517 108.525,72.1317 107.785,72.6017 C105.085,73.9617 96.945,73.0517 92.035,71.9617 C90.545,71.6417 89.065,72.5817 88.735,74.0717 C88.405,75.5617 89.345,77.0417 90.845,77.3717 C92.335,77.7007 97.805,78.8317 102.945,78.8317 C105.705,78.8317 108.375,78.5017 110.275,77.5417 C112.255,76.5417 114.165,72.4617 115.585,68.7317 C115.905,67.9107 116.195,67.1017 116.455,66.3517 C116.655,65.7817 116.845,65.2517 117.015,64.7617 C117.025,64.7207 117.045,64.6807 117.055,64.6417 C117.335,63.7717 117.585,63.0617 117.755,62.5817 C118.104,61.6117 118.315,61.2117 118.635,60.4817 C118.945,59.7517 121.955,59.7407 123.185,58.9107 C124.465,58.0617 124.315,55.8817 123.795,54.4617 C123.758,54.3607 123.699,54.2887 123.649,54.2057 C123.881,54.0587 124.116,53.9047 124.358,53.7427 C126.123,52.5667 127.58,49.6337 124.957,51.6577" id="Fill-51" fill="#FFAF84"></path>
                <path d="M93.1787,57.5576 C93.1787,51.8156 88.9077,47.2166 83.1657,47.2166 C77.4237,47.2166 72.7687,51.8716 72.7687,57.6146 C72.7687,61.6056 74.8957,66.0086 78.1957,67.7516 C78.0637,70.3066 78.3287,73.1146 79.9187,75.6356 C81.6077,78.3146 81.9357,78.8546 81.9637,78.9016 C82.5757,79.9266 83.6587,80.4946 84.7727,80.4946 C85.3417,80.4946 85.9197,80.3456 86.4457,80.0326 C87.9947,79.1076 88.5027,77.0996 87.5787,75.5486 C87.5787,75.5486 87.3117,75.0996 85.4507,72.1476 C84.9887,71.4136 84.6787,70.6156 84.7097,68.8076 C91.3347,70.0616 93.1787,62.7306 93.1787,57.5576" id="Fill-53" fill="#FFAF84"></path>
                <path d="M75.3789,133.1563 C75.3789,133.1563 72.5439,125.9833 74.3669,116.0263 L97.6499,116.0263 C97.6499,116.0263 98.2749,123.0353 97.7409,130.6133 L75.3789,133.1563 Z" id="Fill-55" fill="#293549"></path>
                <path d="M79.4785,124.8037 L79.3965,124.8037 C76.8645,124.8037 73.8515,124.8037 74.7455,130.3767 C74.7805,130.5947 75.8125,153.0227 75.0575,162.4457 C74.3465,171.3337 73.7085,195.9757 73.6915,196.2447 L78.8665,196.2447 C78.8835,195.9767 83.6285,172.0137 84.3345,163.1887 C85.1135,153.4757 85.7385,131.4387 85.7535,130.5267 C85.7975,127.9567 82.0475,124.8487 79.4785,124.8037" id="Fill-57" fill="#293549"></path>
                <path d="M97.7617,129.5684 C97.5847,127.0044 95.0587,125.6194 92.5047,125.8144 C89.9417,125.9904 84.7827,128.0244 84.9597,130.5894 C84.9727,130.7824 89.5127,150.2194 89.6827,158.9914 C89.8317,166.7614 89.2307,173.2494 84.0227,196.3214 L89.0967,196.6664 C90.2327,193.6184 99.1987,169.7464 98.9877,158.8114 C98.8137,149.8124 97.8167,130.3684 97.7617,129.5684" id="Fill-59" fill="#293549"></path>
                <path d="M76.1152,74.7315 C76.1152,74.7315 72.3252,92.8115 71.6152,96.1515 C71.3442,97.4205 70.4152,98.3815 69.1842,98.6315 C68.9342,98.6915 68.6752,98.7415 68.3652,98.7415 C67.2642,98.7415 66.1652,97.0615 62.8442,92.1415 C62.7452,91.9915 62.6352,91.8315 62.5252,91.6715 C62.1352,91.1015 61.7242,90.4915 61.2852,89.8315 C61.1752,89.6615 61.0542,89.4915 60.9342,89.3215 C60.1652,88.2015 59.2952,86.9515 58.3352,85.5715 C57.3852,85.9115 54.5252,87.4615 53.3942,87.4615 C51.8652,87.4615 49.9852,87.3115 50.5852,85.9015 C51.2242,84.4115 52.7052,83.4115 54.1552,82.9915 C54.9252,82.7615 56.3352,82.3815 56.8942,82.0515 C56.9342,82.0315 56.9852,82.0215 57.0252,81.9915 C57.1042,81.9515 57.1952,81.9115 57.2852,81.8815 C57.3652,81.8415 57.4552,81.8215 57.5352,81.7915 C57.6252,81.7715 57.7152,81.7515 57.7952,81.7315 C57.8942,81.7215 57.9852,81.7015 58.0752,81.7015 C58.1552,81.6915 58.2452,81.6915 58.3252,81.6915 C58.4152,81.6915 58.5142,81.7015 58.6042,81.7115 C58.6842,81.7215 58.7642,81.7315 58.8442,81.7515 C58.9452,81.7715 59.0352,81.7915 59.1152,81.8215 C59.2052,81.8415 59.2752,81.8715 59.3542,81.9115 C59.4452,81.9415 59.5252,81.9815 59.6042,82.0315 C59.6842,82.0715 59.7552,82.1115 59.8252,82.1615 C59.9052,82.2115 59.9742,82.2715 60.0452,82.3315 C60.1152,82.3815 60.1842,82.4415 60.2452,82.5115 C60.3042,82.5715 60.3752,82.6515 60.4342,82.7215 C60.4652,82.7615 60.4952,82.7915 60.5252,82.8315 C61.5942,84.3015 62.7752,85.8715 63.9342,87.3315 C64.0652,87.4915 64.1952,87.6615 64.3252,87.8215 C64.8042,88.4215 65.2752,89.0015 65.7242,89.5415 C65.8542,89.6915 65.9742,89.8415 66.0942,89.9915 C66.4252,90.3815 66.7352,90.7415 67.0352,91.0715 C67.2152,90.2115 67.4152,89.2715 67.6152,88.2915 C67.6442,88.1615 67.6752,88.0215 67.7052,87.8815 C69.0252,81.5615 70.7052,73.6015 70.7052,73.6015 L76.1152,74.7315 Z" id="Fill-61" fill="#FFAF84"></path>
                <path d="M66.0947,89.9912 L62.8447,92.1412 C62.7447,91.9912 62.6347,91.8312 62.5257,91.6712 C62.1347,91.1012 61.7247,90.4912 61.2847,89.8312 C61.1747,89.6612 61.0547,89.4912 60.9347,89.3212 L63.9347,87.3312 C64.0657,87.4912 64.1957,87.6612 64.3247,87.8212 C64.8047,88.4212 65.2757,89.0012 65.7247,89.5412 C65.8547,89.6912 65.9747,89.8412 66.0947,89.9912" id="Fill-63" fill="#ED8C62"></path>
                <path d="M112.5752,64.2813 C109.2352,70.6813 107.7352,72.0213 107.5052,72.2013 C105.0162,73.3843 99.0842,72.8833 94.3512,71.9243 C93.1792,71.5923 92.2162,71.3683 91.8162,71.3683 L72.5432,71.3683 C71.4372,71.3683 70.5452,72.1413 70.3072,73.1423 L70.3042,73.1413 C70.3042,73.1413 68.1442,83.4313 66.7552,90.0213 C66.4252,89.6313 66.0542,89.1913 65.6442,88.6913 L60.5652,92.7613 C64.4452,97.5113 66.4452,99.1913 68.4342,99.2013 L68.4552,99.2013 C68.7552,99.2013 69.0652,99.1613 69.3752,99.0923 C69.7452,99.0013 70.0852,98.8613 70.3942,98.6713 C71.2452,98.1613 71.8652,97.3023 72.0852,96.2513 C72.2352,95.5473 72.5242,94.1733 72.8892,92.4423 C73.9502,101.4133 75.5852,103.2343 74.3672,116.0263 L97.6502,116.0263 C97.6502,116.0263 96.7642,92.2813 95.1212,79.5643 C97.4152,79.9153 100.7102,80.0263 103.6472,79.7453 C106.4742,79.4743 108.5252,78.9713 110.4952,77.9813 C111.4342,77.5113 112.5972,76.9513 117.3972,67.7513 L112.5752,64.2813 Z" id="Fill-65" fill="#457BF4"></path>
                <path d="M65.6445,88.6914 L60.5655,92.7614 C60.3045,92.4414 60.0355,92.1014 59.7545,91.7514 L64.8345,87.6914 C65.1245,88.0514 65.3945,88.3814 65.6445,88.6914" id="Fill-67" fill="#B6D0FF"></path>
                <path d="M117.0547,64.6416 C117.0447,64.6816 117.0257,64.7216 117.0147,64.7616 C116.8447,65.2516 116.6557,65.7816 116.4547,66.3516 L113.2547,64.0516 C113.3447,63.8716 113.4347,63.6916 113.5347,63.5016 C113.6347,63.3016 113.7357,63.1016 113.8347,62.9016 L117.0547,64.6416 Z" id="Fill-69" fill="#ED8C62"></path>
                <path d="M117.9375,66.7115 C117.7575,67.0715 117.5775,67.4115 117.3975,67.7515 L112.5755,64.2815 C112.7455,63.9515 112.9245,63.6015 113.1155,63.2315 L117.9375,66.7115 Z" id="Fill-71" fill="#B6D0FF"></path>
                <path d="M72.8945,92.4615 C72.5255,94.1815 72.2355,95.5415 72.0845,96.2515 C71.8655,97.3015 71.2455,98.1615 70.3945,98.6705 L71.5655,82.3315 C72.0145,85.4415 72.4745,88.9115 72.8945,92.4615" id="Fill-73" fill="#3972D8"></path>
                <path d="M93.5635,45.5733 C93.5635,45.5733 93.3865,47.1653 89.7205,45.5113 C82.8435,42.4063 75.8325,44.0523 73.9085,45.5113 C72.0245,46.9393 71.7735,48.4263 72.3535,49.6073 C70.8345,50.9793 69.8325,52.8553 69.8255,54.2403 C69.7925,60.1563 73.5285,66.1753 77.5845,66.1753 C84.0615,66.1753 86.9145,58.2873 86.5495,53.7403 C86.5175,53.3363 86.4835,52.9273 86.4445,52.5193 C86.6525,52.5583 86.8585,52.5963 87.0685,52.6353 C94.6665,54.0733 93.5635,45.5733 93.5635,45.5733" id="Fill-75" fill="#F78834"></path>
                <path d="M82.9922,58.0498 C82.9922,59.1398 83.4822,60.1148 84.2552,60.7678 C85.1592,61.5318 86.5502,60.8428 86.5502,59.6588 L86.5502,56.4418 C86.5502,55.2578 85.1592,54.5678 84.2552,55.3318 C83.4822,55.9848 82.9922,56.9598 82.9922,58.0498" id="Fill-77" fill="#FFAF84"></path>
                <path d="M88.1269,195.8594 L87.6499,195.7074 C87.7309,195.4534 94.9159,172.3544 95.7789,168.6574 C96.3759,166.0974 97.3559,161.2444 97.2099,157.4944 C97.0869,154.3264 95.3539,128.8324 95.3359,128.5744 C95.6639,125.4944 95.8329,115.4984 95.8349,115.3974 L96.3349,115.4054 C96.3329,115.5064 96.1639,125.5254 95.8339,128.5844 C95.8519,128.7974 97.5859,154.2994 97.7099,157.4744 C97.8579,161.2834 96.8689,166.1864 96.2659,168.7704 C95.3979,172.4874 88.2079,195.6044 88.1269,195.8594" id="Fill-79" fill="#687C99"></path>
                <mask id="mask-2" fill="white">
                    <use xlink:href="#path-1"></use>
                </mask>
                <g id="Clip-82"></g>
                <polygon id="Fill-81" fill="#687C99" mask="url(#mask-2)" points="73.585 118.609 81.377 118.609 81.377 118.109 73.585 118.109"></polygon>
            </g>
            <g id="Group-86" transform="translate(50.000000, 43.818000)">
                <mask id="mask-4" fill="white">
                    <use xlink:href="#path-3"></use>
                </mask>
                <g id="Clip-85"></g>
            </g>
            <g id="Group-134" transform="translate(150.000000, 44.818000)">
                <path d="M10.0254,77.1885 L37.7774,77.1885 C38.6754,77.1885 39.1984,76.4605 38.9454,75.5625 L34.2994,59.0935 C34.0464,58.1955 33.1134,57.4675 32.2144,57.4675 L4.4634,57.4675 C3.5644,57.4675 3.0414,58.1955 3.2954,59.0935 L7.9394,75.5625 C8.1934,76.4605 9.1274,77.1885 10.0254,77.1885" id="Fill-87" fill="#CC5605"></path>
                <path d="M10.6318,77.1885 L38.3848,77.1885 C39.2818,77.1885 39.8058,76.4605 39.5518,75.5625 L34.9068,59.0935 C34.6528,58.1955 33.7198,57.4675 32.8208,57.4675 L5.0698,57.4675 C4.1708,57.4675 3.6488,58.1955 3.9018,59.0935 L8.5468,75.5625 C8.7998,76.4605 9.7338,77.1885 10.6318,77.1885" id="Fill-89" fill="#F78834"></path>
                <path d="M10.5537,73.2285 L7.5057,62.4215 C7.1767,61.2535 8.0547,60.0935 9.2687,60.0935 L31.1377,60.0935 C31.9567,60.0935 32.6767,60.6385 32.8997,61.4275 L35.9487,72.2345 C36.2777,73.4035 35.3997,74.5625 34.1857,74.5625 L12.3157,74.5625 C11.4957,74.5625 10.7767,74.0175 10.5537,73.2285" id="Fill-91" fill="#F7F7F7"></path>
                <path d="M8.832,77.4942 C8.955,77.8132 9.266,78.0422 9.629,78.0422 L38.928,78.0422 C39.292,78.0422 39.603,77.8132 39.726,77.4942 C39.782,77.3472 39.672,77.1882 39.515,77.1882 L9.044,77.1882 C8.886,77.1882 8.776,77.3472 8.832,77.4942" id="Fill-93" fill="#CC5605"></path>
                <path d="M16.4463,77.4942 C16.5693,77.8132 16.8793,78.0422 17.2433,78.0422 L46.5413,78.0422 C46.9053,78.0422 47.2163,77.8132 47.3393,77.4942 C47.3953,77.3472 47.2853,77.1882 47.1283,77.1882 L16.6573,77.1882 C16.5003,77.1882 16.3893,77.3472 16.4463,77.4942" id="Fill-95" fill="#FCD592"></path>
                <path d="M29.1133,77.1885 L29.1133,77.3275 C29.1133,77.4855 29.2433,77.6165 29.4023,77.6165 L34.3833,77.6165 C34.5423,77.6165 34.6713,77.4855 34.6713,77.3275 L34.6713,77.1885 L29.1133,77.1885 Z" id="Fill-97" fill="#FFF3E1"></path>
                <path d="M55.0693,80.75 C54.6963,78.208 52.3393,76.451 49.7893,76.821 C47.0563,77.223 22.9843,81.189 19.3743,96.834 C17.1733,106.37 23.6683,122.899 28.7523,136.151 L33.1683,134.844 C29.4843,123.548 27.2493,104.1 28.4423,98.928 C30.2983,90.884 45.8453,86.819 51.1453,86.029 C53.6853,85.654 55.4423,83.292 55.0693,80.75" id="Fill-99" fill="#F4B038"></path>
                <path d="M56.9736,11.3321 C56.9216,11.2881 56.8636,11.2651 56.8086,11.2301 C55.7296,6.6391 51.6176,2.0261 46.6966,2.0261 C41.8506,2.0261 37.7906,6.5361 36.6376,11.0221 C36.3416,11.0241 36.0416,11.1121 35.7826,11.3321 C35.0106,11.9851 34.5206,12.9601 34.5206,14.0501 C34.5206,15.1401 35.0106,16.1151 35.7826,16.7681 C36.1196,17.0531 36.5236,17.1351 36.8986,17.0651 C37.8346,19.8531 40.7726,24.2761 45.1636,24.5961 C45.1926,26.3221 44.8946,27.3801 44.4106,28.1481 C42.5476,31.1031 42.2816,31.5531 42.2816,31.5531 C41.3626,33.1031 41.8706,35.1041 43.4186,36.0281 C43.9436,36.3411 44.5206,36.4911 45.0906,36.4911 C46.2016,36.4911 47.2846,35.9251 47.8976,34.9051 C47.9316,34.8481 48.2626,34.3031 49.9446,31.6361 C51.5346,29.1131 51.8116,26.0811 51.6786,23.5261 C53.9896,22.3031 55.6466,19.5171 56.5136,17.0141 C56.6736,16.9621 56.8306,16.8891 56.9736,16.7681 C57.7456,16.1151 58.2356,15.1401 58.2356,14.0501 C58.2356,12.9601 57.7456,11.9851 56.9736,11.3321" id="Fill-101" fill="#FFAF84"></path>
                <path d="M54.4834,87.1826 C54.4834,87.1826 57.3194,81.9836 55.4954,72.0266 L32.2124,72.0266 C32.2124,72.0266 31.8814,79.6046 32.4164,87.1826 L54.4834,87.1826 Z" id="Fill-103" fill="#FFC550"></path>
                <path d="M37.039,78.0869 C32.854,78.0869 29.115,78.0579 25.801,78.0309 C8.607,77.9009 3.426,77.8579 0.983,82.2779 C0.138,83.8119 -0.421,86.3419 1.725,89.6919 C7.149,98.1629 25.892,111.4279 27.918,113.0679 L31.378,108.7339 C26.893,105.1019 17.154,93.9239 11.655,87.4329 C15.072,87.2559 20.301,87.2959 25.728,87.3389 C29.064,87.3639 32.827,87.3939 37.039,87.3939 C39.609,87.3939 41.692,85.3109 41.692,82.7399 C41.692,80.1699 39.609,78.0869 37.039,78.0869" id="Fill-105" fill="#FFC550"></path>
                <path d="M71.7451,50.0918 C71.7441,47.9508 69.4951,43.6318 66.6651,39.1318 C64.3651,35.4908 61.7151,31.7408 59.6841,28.9508 C58.7751,27.7208 57.0451,27.4508 55.8151,28.3518 C54.5851,29.2518 54.3051,30.9818 55.2151,32.2118 C57.6351,35.5218 60.1651,39.2408 62.1751,42.4508 C64.2851,45.7808 65.8451,48.5708 66.1651,49.7908 C65.1151,51.8118 59.0051,58.0008 53.6551,62.8118 C53.5711,62.8868 53.5051,62.9728 53.4331,63.0558 C53.3931,63.0998 53.3481,63.1408 53.3121,63.1868 C53.2271,63.2958 53.1591,63.4128 53.0941,63.5318 C53.0721,63.5708 53.0461,63.6048 53.0261,63.6438 C52.9641,63.7698 52.9181,63.9018 52.8761,64.0338 C52.8641,64.0708 52.8481,64.1058 52.8381,64.1428 C52.8021,64.2728 52.7831,64.4058 52.7671,64.5398 C52.7621,64.5828 52.7511,64.6248 52.7481,64.6678 C52.7391,64.7928 52.7461,64.9168 52.7541,65.0418 C52.7571,65.0958 52.7541,65.1498 52.7611,65.2028 C52.7741,65.3188 52.8041,65.4318 52.8331,65.5448 C52.8481,65.6068 52.8561,65.6678 52.8761,65.7278 C52.9111,65.8358 52.9621,65.9388 53.0111,66.0428 C53.0401,66.1038 53.0611,66.1668 53.0951,66.2258 C53.1531,66.3288 53.2271,66.4258 53.3001,66.5228 C53.3351,66.5698 53.3601,66.6198 53.3981,66.6648 C53.4051,66.6728 53.4221,66.6918 53.4301,66.7008 C53.4351,66.7068 53.4391,66.7148 53.4451,66.7218 C53.4491,66.7268 53.4551,66.7298 53.4601,66.7348 C53.9191,67.2638 55.7681,69.2788 58.0141,70.0578 C58.3131,70.1618 58.6191,70.2108 58.9201,70.2108 C60.0651,70.2108 60.6261,68.4718 61.0221,67.3278 C61.5231,65.8848 59.5151,64.5758 58.0701,64.0748 C58.0361,64.0638 57.9961,64.0418 57.9601,64.0268 C65.8971,57.9108 71.7461,53.2828 71.7451,50.0918" id="Fill-107" fill="#FFAF84"></path>
                <path d="M66.665,39.1314 L63.615,41.3814 L62.175,42.4514 C60.165,39.2414 57.635,35.5214 55.215,32.2114 C54.305,30.9814 54.585,29.2514 55.815,28.3514 C57.045,27.4514 58.775,27.7214 59.685,28.9514 C61.715,31.7414 64.365,35.4914 66.665,39.1314" id="Fill-109" fill="#ED8C62"></path>
                <path d="M66.8047,38.0816 L63.4857,40.1416 L60.6447,41.9116 L60.1647,41.1416 L58.7357,38.8316 C57.7247,37.1916 56.8047,35.7416 56.1247,34.6916 C55.4547,33.6416 55.0257,32.9816 55.0147,32.9716 C54.7357,32.5416 54.5657,32.0716 54.4857,31.5916 C54.2547,30.2216 54.8257,28.7716 56.0757,27.9516 C56.5047,27.6716 56.9747,27.5016 57.4457,27.4216 C57.7147,27.3716 57.9947,27.3616 58.2647,27.3816 C59.3657,27.4416 60.4347,28.0116 61.0847,29.0116 C61.1557,29.1116 62.8257,31.6716 64.8947,35.0116 L66.3257,37.3116 L66.8047,38.0816 Z" id="Fill-111" fill="#F25F46"></path>
                <path d="M63.4853,40.1416 L60.6443,41.9116 L60.1653,41.1416 L58.7353,38.8316 C57.7243,37.1916 56.8043,35.7416 56.1253,34.6916 C55.4553,33.6416 55.0253,32.9816 55.0143,32.9716 C54.7353,32.5416 54.5653,32.0716 54.4853,31.5916 C54.2553,30.2216 54.8253,28.7716 56.0753,27.9516 C56.5053,27.6716 56.9743,27.5016 57.4453,27.4216 C57.7143,27.3716 57.9953,27.3616 58.2643,27.3816 C58.8443,27.9116 59.3043,28.5816 59.5943,29.3516 C59.6653,29.5216 61.1743,33.5416 62.9953,38.7516 L63.4853,40.1416 Z" id="Fill-113" fill="#E24530"></path>
                <path d="M59.5849,30.0616 C57.9749,39.3416 54.8049,62.6516 55.4949,72.0316 L32.2149,72.0316 C32.2149,72.0316 32.4649,65.7616 32.9349,57.9116 C33.5449,47.4716 34.5349,34.2616 35.7749,29.2716 C35.7949,29.2016 35.8049,29.1316 35.8249,29.0716 C36.0849,28.0616 37.0049,27.3716 38.0449,27.3716 L57.3149,27.3716 C58.7449,27.3716 59.8349,28.6516 59.5849,30.0616" id="Fill-115" fill="#F25F46"></path>
                <path d="M52.2597,4.7041 C50.0597,7.5491 37.0467,9.3021 37.0467,2.9081 C37.0467,1.5471 37.9477,0.9031 37.9477,0.9031 C37.9477,0.9031 38.0577,1.8691 38.5317,2.1461 C38.5317,2.1461 40.7597,0.8631 42.9867,0.3831 C42.9867,0.3831 42.5587,1.3561 44.2097,1.1371 C48.9737,0.5031 55.9097,-0.0169 52.2597,4.7041" id="Fill-117" fill="#5252FF"></path>
                <path d="M41.625,33.9615 C41.625,33.9915 41.485,34.8615 41.285,36.2615 C41.085,37.6715 40.805,39.6215 40.525,41.7815 L40.115,44.8515 L32.935,57.9115 C33.545,47.4715 34.535,34.2615 35.775,29.2715 C36.055,29.0515 36.375,28.8915 36.705,28.7915 C37.295,28.6015 37.945,28.5815 38.615,28.7915 C39.955,29.1915 41.005,30.3715 41.445,31.7715 C41.665,32.4715 41.745,33.2215 41.625,33.9615" id="Fill-119" fill="#E24530"></path>
                <path d="M43.2031,2.7613 C40.8221,3.3913 38.7731,7.5563 38.5581,10.0103 C38.1611,14.5573 41.5871,21.6713 48.6581,21.6713 C57.0941,21.6713 57.9051,12.6723 57.4961,10.4073 C57.0861,8.1413 55.7001,3.0993 52.0751,2.6463 C49.9031,2.3753 45.7481,2.0873 43.2031,2.7613" id="Fill-121" fill="#5252FF"></path>
                <path d="M39.5547,28.5215 C39.5447,28.5015 39.5447,28.5015 39.5347,28.5115 C39.2757,28.3715 39.0047,28.2715 38.7147,28.2115 C38.0757,28.0615 37.4247,28.1015 36.8347,28.2915 C36.2357,28.4815 35.6957,28.8115 35.2757,29.2715 C35.2647,29.2815 35.2447,29.2915 35.2447,29.3115 C35.1447,29.5215 35.0547,29.7515 35.0047,29.9915 C34.9057,30.4315 33.7447,35.7015 32.5257,41.5815 C31.2447,47.6415 29.8747,54.3415 29.4747,57.0615 C28.6447,62.7315 19.7757,67.2915 16.4247,68.5715 C16.3727,68.5905 16.3287,68.6215 16.2797,68.6435 C16.1727,68.6915 16.0667,68.7385 15.9647,68.8005 C15.8707,68.8575 15.7887,68.9255 15.7037,68.9925 C15.6547,69.0315 15.6007,69.0605 15.5527,69.1035 C15.5397,69.1155 15.5207,69.1335 15.5057,69.1465 C15.4997,69.1525 15.4927,69.1585 15.4877,69.1645 C14.7757,69.8215 11.9927,72.6275 12.3347,76.0435 C12.4777,77.4705 12.5047,77.8435 13.8527,78.2415 C14.5537,78.4485 15.2097,78.4495 15.9617,78.4465 C17.4907,78.4415 18.3637,78.0055 18.2097,76.4845 C18.1707,76.0985 17.4517,72.4655 18.0847,71.7765 C25.9787,68.4355 33.6087,66.9725 34.9547,57.8715 C35.3157,55.4205 36.5447,49.3615 37.7357,43.6315 C39.0757,37.2515 40.3747,31.2915 40.4057,31.1715 C40.6247,30.1615 40.2647,29.1615 39.5547,28.5215" id="Fill-123" fill="#FFAF84"></path>
                <path d="M40.4052,31.1714 C40.3752,31.2914 39.0752,37.2514 37.7352,43.6314 L32.5252,41.5814 C33.7452,35.7014 34.9052,30.4314 35.0052,29.9914 C35.0542,29.7514 35.1442,29.5214 35.2452,29.3114 C35.2452,29.2914 35.2642,29.2814 35.2752,29.2714 C35.6952,28.8114 36.2352,28.4814 36.8352,28.2914 C37.4252,28.1014 38.0752,28.0614 38.7152,28.2114 C39.0052,28.2714 39.2752,28.3714 39.5352,28.5114 C39.5452,28.5014 39.5452,28.5014 39.5542,28.5214 C40.2642,29.1614 40.6252,30.1614 40.4052,31.1714" id="Fill-125" fill="#ED8C62"></path>
                <path d="M32.2119,40.7066 L39.3229,42.1286 L39.4999,41.2456 L40.0349,38.5776 C40.4109,36.7006 40.7709,35.0096 41.0299,33.7876 C41.2899,32.5646 41.4599,31.8086 41.4629,31.7886 C41.6109,31.1426 41.5689,30.4996 41.3809,29.9036 C41.0069,28.7196 40.0249,27.7476 38.7179,27.4566 C38.0719,27.3096 37.4299,27.3516 36.8329,27.5396 C35.6499,27.9136 34.6769,28.8956 34.3869,30.2036 C34.3589,30.3266 33.6929,33.3016 32.9249,37.1556 L32.3899,39.8236 L32.2119,40.7066 Z" id="Fill-127" fill="#F25F46"></path>
                <polygon id="Fill-129" fill="#EFA21B" points="48.315 75.151 56.107 75.151 56.107 74.651 48.315 74.651"></polygon>
                <path d="M27.4072,111.1651 C19.0602,105.0231 9.1522,95.4621 4.8502,89.3971 C3.3862,87.3331 3.0192,85.5591 3.7612,84.1251 C4.8762,81.9661 8.4312,80.7761 13.7722,80.7761 C15.5832,80.7761 18.6752,80.7911 21.8732,80.8061 C25.3022,80.8221 28.8532,80.8391 31.0852,80.8391 C35.3352,80.8391 35.3352,78.8381 35.3352,78.0851 L35.3352,71.7761 L35.8352,71.7761 L35.8352,78.0851 C35.8352,80.2441 34.2372,81.3391 31.0852,81.3391 C28.8532,81.3391 25.3012,81.3221 21.8712,81.3061 C18.6732,81.2911 15.5832,81.2761 13.7722,81.2761 C8.7032,81.2761 5.2152,82.3981 4.2042,84.3541 C3.5562,85.6081 3.9112,87.2081 5.2592,89.1081 C9.5342,95.1361 19.3932,104.6471 27.7042,110.7631 L27.4072,111.1651 Z" id="Fill-131" fill="#EFA21B"></path>
                <path d="M26.9297,110.8828 C26.7227,111.0248 26.5507,111.2108 26.4497,111.4348 C25.7457,112.9988 23.0047,116.5248 21.2867,117.6958 C19.4447,118.9538 19.8247,119.9848 22.6137,118.6178 C25.4027,117.2518 27.3257,116.0008 28.5837,115.4238 C29.8427,114.8468 30.4087,114.7988 33.4667,113.3008 C35.8137,112.1518 32.8147,109.9088 31.2927,108.9288 C30.8297,108.6298 30.2137,108.6498 29.7397,108.9728 L26.9297,110.8828 Z" id="Fill-132" fill="#293549"></path>
                <path d="M28.9072,135.0039 C28.7662,135.2119 28.6772,135.4489 28.6672,135.6939 C28.5952,137.4079 27.7102,141.2759 25.6692,142.5809 C23.7902,143.7829 24.3862,144.6989 27.2432,143.4839 C29.7932,142.4009 31.1782,139.6069 32.1322,138.6029 C33.0862,137.5979 33.5942,137.3429 35.8742,134.8149 C37.6242,132.8739 34.0062,131.9089 32.2292,131.5659 C31.6882,131.4609 31.1242,131.7079 30.8032,132.1849 L28.9072,135.0039 Z" id="Fill-133" fill="#293549"></path>
            </g>
            <g id="Group-137" transform="translate(150.000000, 44.818000)">
                <mask id="mask-6" fill="white">
                    <use xlink:href="#path-5"></use>
                </mask>
                <g id="Clip-136"></g>
            </g>
            <polygon id="Fill-138" fill="#457BF4" points="181.378 203.683 206.107 203.683 206.107 131.752 181.378 131.752"></polygon>
            <polygon id="Fill-140" fill="#FFDEA9" points="215.639 203.683 240.368 203.683 240.368 186.641 215.639 186.641"></polygon>
            <polygon id="Fill-141" fill="#FFDEA9" points="147.118 203.683 171.847 203.683 171.847 173.975 147.118 173.975"></polygon>
            <polygon id="Fill-142" fill="#FFDEA9" points="113.008 203.683 137.737 203.683 137.737 155.641 113.008 155.641"></polygon>
            <path d="M61.5332,206.818 L245.2162,206.818 C246.0822,206.818 246.7832,206.116 246.7832,205.251 C246.7832,204.384 246.0822,203.683 245.2162,203.683 L61.5332,203.683 C60.6682,203.683 59.9662,204.384 59.9662,205.251 C59.9662,206.116 60.6682,206.818 61.5332,206.818" id="Fill-143" fill="#E2E2E2"></path>
            <polygon id="Fill-144" fill="#FFDEA9" points="117.861 102.428 131.337 102.428 131.337 98.261 117.861 98.261"></polygon>
            <polygon id="Fill-145" fill="#E2EBF4" points="115.028 128.428 116.479 128.428 116.479 92.095 115.028 92.095"></polygon>
            <polygon id="Fill-146" fill="#FFDEA9" points="117.862 108.428 126.092 108.428 126.092 104.261 117.862 104.261"></polygon>
            <polygon id="Fill-147" fill="#FFDEA9" points="128.036 108.428 139.337 108.428 139.337 104.261 128.036 104.261"></polygon>
            <polygon id="Fill-148" fill="#FFDEA9" points="117.861 114.428 123.212 114.428 123.212 110.261 117.861 110.261"></polygon>
            <polygon id="Fill-149" fill="#FFDEA9" points="117.861 126.428 123.61 126.428 123.61 122.261 117.861 122.261"></polygon>
            <polygon id="Fill-150" fill="#FFDEA9" points="127.195 126.428 140.962 126.428 140.962 122.261 127.195 122.261"></polygon>
            <polygon id="Fill-151" fill="#FFDEA9" points="20.414 40.975 45.158 40.975 45.158 36.808 20.414 36.808"></polygon>
            <polygon id="Fill-152" fill="#E2EBF4" points="17.581 73.141 19.033 73.141 19.033 36.808 17.581 36.808"></polygon>
            <polygon id="Fill-153" fill="#FFDEA9" points="20.414 46.975 48.741 46.975 48.741 42.808 20.414 42.808"></polygon>
            <polygon id="Fill-154" fill="#FFDEA9" points="20.414 52.975 39.075 52.975 39.075 48.808 20.414 48.808"></polygon>
            <polygon id="Fill-155" fill="#FFDEA9" points="20.415 64.975 23.971 64.975 23.971 60.808 20.415 60.808"></polygon>
            <polygon id="Fill-156" fill="#FFDEA9" points="26.189 64.975 34.705 64.975 34.705 60.808 26.189 60.808"></polygon>
            <polygon id="Fill-157" fill="#F78879" points="213.3154 35.0133 211.1654 37.1633 207.2454 33.2423 209.3944 31.0923"></polygon>
            <path d="M225.0293,48.8766 C223.9493,49.9566 222.1883,49.9186 221.1553,48.7936 L209.8823,36.5166 L212.6693,33.7306 L224.9463,45.0036 C226.0713,46.0366 226.1083,47.7976 225.0293,48.8766" id="Fill-158" fill="#EFA46C"></path>
            <path d="M212.2851,22.5954 C212.2851,30.0744 206.2241,36.1354 198.7461,36.1354 C195.5281,36.1354 192.5681,35.0084 190.2471,33.1344 C189.4261,32.4784 188.6801,31.7244 188.0331,30.8874 C187.6431,30.3814 187.2781,29.8424 186.9551,29.2704 C186.0021,27.5954 185.3961,25.6884 185.2391,23.6574 C185.2141,23.3084 185.1971,22.9524 185.1971,22.5954 C185.1971,15.1164 191.2661,9.0474 198.7461,9.0474 C199.1021,9.0474 199.4671,9.0644 199.8151,9.0894 C201.8471,9.2464 203.7451,9.8514 205.4201,10.8054 C205.9921,11.1284 206.5311,11.4934 207.0371,11.8834 C207.8751,12.5304 208.6291,13.2764 209.2841,14.0964 C211.1581,16.4184 212.2851,19.3784 212.2851,22.5954" id="Fill-159" fill="#BFE2EF"></path>
            <path d="M205.4199,10.8053 L186.9549,29.2703 C186.0019,27.5953 185.3969,25.6883 185.2389,23.6573 L199.8159,9.0893 C201.8469,9.2463 203.7449,9.8513 205.4199,10.8053" id="Fill-160" fill="#FFFFFF"></path>
            <path d="M209.2841,14.0968 L190.2471,33.1338 C189.4261,32.4788 188.6801,31.7238 188.0331,30.8868 L207.0371,11.8828 C207.8751,12.5298 208.6291,13.2758 209.2841,14.0968" id="Fill-161" fill="#FFFFFF"></path>
            <path d="M198.7441,10.549 C195.5271,10.549 192.5031,11.801 190.2281,14.076 C187.9541,16.35 186.7011,19.375 186.7011,22.591 C186.7011,25.808 187.9541,28.832 190.2281,31.107 C192.5031,33.382 195.5271,34.634 198.7441,34.634 C201.9601,34.634 204.9841,33.382 207.2591,31.107 C209.5331,28.832 210.7861,25.808 210.7861,22.591 C210.7861,19.375 209.5331,16.35 207.2591,14.076 C204.9841,11.801 201.9601,10.549 198.7441,10.549 M198.7441,37.634 C194.7251,37.634 190.9481,36.07 188.1071,33.228 C185.2651,30.387 183.7011,26.61 183.7011,22.591 C183.7011,18.573 185.2651,14.796 188.1071,11.955 C190.9481,9.113 194.7251,7.549 198.7441,7.549 C202.7621,7.549 206.5391,9.113 209.3801,11.955 C212.2221,14.796 213.7861,18.573 213.7861,22.591 C213.7861,26.61 212.2221,30.387 209.3801,33.228 C206.5391,36.07 202.7621,37.634 198.7441,37.634" id="Fill-162" fill="#FCD592"></path>
        </g>
    </g>
</svg>