<?xml version="1.0" encoding="utf-8"?>
<!-- Generator: Adobe Illustrator 19.0.1, SVG Export Plug-In . SVG Version: 6.00 Build 0)  -->
<svg version="1.1" id="Layer_1" xmlns="http://www.w3.org/2000/svg" xmlns:xlink="http://www.w3.org/1999/xlink" x="0px" y="0px"
	 width="190.65503px" height="242.91925px" viewBox="0 0 190.65503 242.91925"
	 style="enable-background:new 0 0 190.65503 242.91925;" xml:space="preserve">
<style type="text/css">
	.st0{fill:#919396;}
	.st1{fill:#C4C6C8;}
	.st2{fill:#FFFFFF;}
	.st3{fill:#E0E1E2;}
	.st4{fill:#77C480;}
	.st5{fill:#047740;}
	.st6{fill:#38A56D;}
	.st7{fill:#D22426;}
	.st8{fill:#23AE60;}
	.st9{fill:#DCE23B;}
	.st10{clip-path:url(#SVGID_2_);fill:#047740;}
	.st11{fill:#3FA3D8;}
	.st12{clip-path:url(#SVGID_4_);}
	.st13{fill:#CFD1D2;}
	.st14{fill:#97999C;}
	.st15{fill:#86898B;}
	.st16{fill:#007076;}
	.st17{fill:#D88252;}
	.st18{fill:#545758;}
	.st19{fill:#A1A3A4;}
	.st20{fill:#7DC689;}
	.st21{fill:#464547;}
	.st22{fill:#D8B888;}
	.st23{fill:#C990AB;}
	.st24{fill:#AD7C94;}
	.st25{fill:#F5CB50;}
	.st26{fill:#DEB949;}
	.st27{fill:#B3B5B8;}
	.st28{fill:#999B9E;}
</style>
<g>
	<polygon class="st0" points="-423.54523,242.49924 -503.79974,242.49924 -494.30493,203.25647 -433.04004,203.25647 	"/>
	<path class="st1" d="M-323.2905,219.71312h-280.76395c-3.65527,0-6.646-2.99069-6.646-6.64597V30.1452
		c0-3.65528,2.99072-6.64595,6.646-6.64595h280.76395c3.65527,0,6.64594,2.99068,6.64594,6.64595v182.92197
		C-316.64456,216.72243-319.63522,219.71312-323.2905,219.71312z"/>
	<path d="M-316.64456,186.48334h-294.05588V30.1452c0-3.65528,2.99072-6.64595,6.646-6.64595h280.76395
		c3.65527,0,6.64594,2.99068,6.64594,6.64595V186.48334z"/>
	<rect x="-600.21008" y="31.8413" class="st2" width="273.07523" height="146.29999"/>
	<rect x="-600.21008" y="31.8413" class="st3" width="273.07523" height="21.24397"/>
	<rect x="-587.05792" y="61.93171" class="st0" width="129.3831" height="45.99762"/>
	<rect x="-587.05792" y="111.89207" class="st4" width="77.75246" height="45.99762"/>
	<rect x="-587.05792" y="163.6378" class="st5" width="77.75246" height="14.61283"/>
	<rect x="-503.92844" y="111.89207" class="st6" width="46.25366" height="66.24921"/>
	<rect x="-520.63782" y="238.70155" class="st1" width="113.93063" height="3.79769"/>
	<g>
		<path d="M-460.93991,203.09557c0,1.49857-1.18997,2.68854-2.68854,2.68854c-1.49847,0-2.68845-1.18997-2.68845-2.68854
			c0-1.49847,1.18997-2.68845,2.68845-2.68845C-462.17392,200.40712-460.93991,201.59709-460.93991,203.09557z"/>
		<path d="M-463.67249,194.14857c-4.93625,0-8.99112,4.01074-8.99112,8.94699c0,4.93634,4.01074,8.94708,8.99112,8.94708
			c1.9393,0,3.74628-0.61702,5.24484-1.67485l-2.82077-2.82066c-0.7052,0.39659-1.5426,0.61697-2.38004,0.61697
			c-2.77661,0-5.06848-2.24777-5.06848-5.0244c0-2.77673,2.24783-5.02443,5.06848-5.02443c2.77673,0,5.06857,2.2477,5.06857,5.02443
			c0,0.88145-0.2204,1.67474-0.617,2.37993l2.82068,2.82077c1.05783-1.45442,1.67484-3.26151,1.67484-5.2007
			C-454.68137,198.15932-458.69211,194.14857-463.67249,194.14857z"/>
	</g>
	<path class="st2" d="M-342.02203,48.03897h-243.3009c-1.53333,0-2.78784-1.25453-2.78784-2.78784v0
		c0-1.53331,1.25452-2.78784,2.78784-2.78784h243.3009c1.53329,0,2.78781,1.25453,2.78781,2.78784v0
		C-339.23422,46.78444-340.48874,48.03897-342.02203,48.03897z"/>
	<circle class="st7" cx="-594.86749" cy="36.43401" r="2.75372"/>
	<circle class="st8" cx="-587.05792" cy="36.43401" r="2.75372"/>
	<circle class="st9" cx="-579.19" cy="36.43401" r="2.75372"/>
	<g id="AYKkku.tif_1_">
		<g>
			<path class="st0" d="M-341.34991,109.94901c0,4.07948,0,8.15894,0,12.23842c-3.44305,1.22188-6.8938,2.42297-10.32001,3.69046
				c-0.45709,0.1691-0.96225,0.59968-1.1521,1.03652c-1.29172,2.97196-2.52457,5.97024-3.72055,8.98222
				c-0.16461,0.41458-0.17639,1.02312,0.00555,1.42085c1.40332,3.06747,2.85156,6.11505,4.33487,9.14482
				c0.35812,0.73155,0.30991,1.19023-0.30368,1.78271c-2.40396,2.32137-4.76822,4.68561-7.08957,7.08957
				c-0.5925,0.61357-1.05115,0.66183-1.78271,0.30368c-3.02975-1.48331-6.07538-2.936-9.14651-4.33093
				c-0.42288-0.19206-1.07864-0.13867-1.52985,0.0423c-2.89603,1.16158-5.74445,2.44446-8.6579,3.55818
				c-0.70438,0.26926-1.05331,0.5972-1.2821,1.25101c-1.2067,3.44838-2.43665,6.88863-3.65851,10.33168
				c-4.0795,0-8.15897,0-12.23843,0c-1.22186-3.44305-2.42297-6.8938-3.69046-10.31998
				c-0.1691-0.45709-0.59967-0.96227-1.0365-1.15213c-2.97198-1.29173-5.97028-2.52455-8.98224-3.72052
				c-0.41458-0.16461-1.0231-0.17641-1.42084,0.00554c-3.0675,1.40332-6.11508,2.85156-9.14484,4.33485
				c-0.73157,0.35817-1.19025,0.30986-1.78271-0.3037c-2.32138-2.40396-4.68561-4.7682-7.08957-7.08957
				c-0.61359-0.5925-0.6618-1.05118-0.30365-1.78271c1.48322-3.02959,2.93585-6.07501,4.33072-9.14597
				c0.19211-0.42293,0.13907-1.0787-0.0419-1.52986c-1.16159-2.89621-2.44458-5.74477-3.55838-8.65841
				c-0.26926-0.70436-0.5972-1.05331-1.25101-1.2821c-3.44836-1.20672-6.88861-2.43664-10.3317-3.65852
				c0-4.07948,0-8.15894,0-12.23842c3.44241-1.22174,6.89252-2.42276,10.31812-3.68996
				c0.45734-0.16917,0.96378-0.59831,1.1535-1.03483c1.29153-2.97159,2.52383-5.96963,3.71967-8.98122
				c0.1647-0.41477,0.17868-1.02313-0.00302-1.42046c-1.40265-3.0669-2.85092-6.11356-4.33286-9.14309
				c-0.35577-0.72727-0.32202-1.18784,0.29556-1.78377c2.40436-2.32005,4.76691-4.68513,7.08917-7.08743
				c0.58746-0.6077,1.04376-0.67677,1.78052-0.31437c2.9899,1.47069,6.01645,2.86676,9.00858,4.33305
				c0.65808,0.3225,1.14627,0.23673,1.80417-0.0549c2.81509-1.24783,5.65298-2.45197,8.53119-3.54391
				c0.70645-0.26802,1.05179-0.59937,1.28033-1.25244c1.20663-3.44772,2.4364-6.88733,3.65814-10.32976
				c4.07947,0,8.15894,0,12.23843,0c1.22174,3.4424,2.45148,6.88199,3.65811,10.32968
				c0.22855,0.65305,0.57376,0.98447,1.28027,1.2525c2.87817,1.0919,5.71606,2.29606,8.53113,3.54382
				c0.65784,0.29157,1.14597,0.37764,1.80417,0.05508c2.99207-1.46632,6.01862-2.86237,9.00851-4.333
				c0.73654-0.36229,1.19296-0.29385,1.78055,0.31403c2.32224,2.40232,4.68478,4.76733,7.08911,7.08741
				c0.61734,0.59573,0.6528,1.0565,0.29587,1.78364c-1.46832,2.99126-2.86102,6.01969-4.33368,9.00876
				c-0.32809,0.66592-0.22421,1.14099,0.06357,1.79133c1.246,2.8159,2.45135,5.65325,3.54327,8.53144
				c0.26804,0.7065,0.59946,1.05171,1.2525,1.28027C-348.2319,107.49751-344.79233,108.72727-341.34991,109.94901z
				 M-371.68463,116.17783c0.00214-11.13258-8.91501-20.18953-19.88544-20.1972
				c-11.22827-0.00786-20.28329,8.88053-20.28973,19.91634c-0.0065,11.2145,8.89429,20.25485,19.94608,20.25883
				C-380.71237,136.15984-371.68674,127.24622-371.68463,116.17783z"/>
		</g>
	</g>
</g>
<g>
	<path class="st6" d="M-57.65583,649.83875c-14.13314,0-25.59032-11.45721-25.59032-25.59033
		c0-14.13318,11.45718-25.59033,25.59032-25.59033C-48.10456,598.65808-46.39993,649.83875-57.65583,649.83875z"/>
	<g>
		<defs>
			<path id="SVGID_1_" d="M-57.65583,649.83875c-14.13314,0-25.59032-11.45721-25.59032-25.59033
				c0-14.13318,11.45718-25.59033,25.59032-25.59033C-48.10456,598.65808-46.39993,649.83875-57.65583,649.83875z"/>
		</defs>
		<clipPath id="SVGID_2_">
			<use xlink:href="#SVGID_1_"  style="overflow:visible;"/>
		</clipPath>
		<path class="st10" d="M-57.65583,670.87012c-14.13314,0-25.59032-11.45721-25.59032-25.59033
			c0-14.13318,11.78727-25.67676,25.92041-25.67676l8.75355,0.08643C-43.27759,632.23358-48.47194,670.87012-57.65583,670.87012z"/>
	</g>
	<g>
		<polygon class="st0" points="130.57478,724.65509 50.00066,724.65509 59.53328,685.25604 121.04216,685.25604 		"/>
		<path class="st1" d="M231.22876,701.7782H-50.65332c-3.66983,0-6.67242-3.00256-6.67242-6.67242V511.45538
			c0-3.66983,3.00259-6.67242,6.67242-6.67242h281.88208c3.66983,0,6.67242,3.00259,6.67242,6.67242v183.65039
			C237.90118,698.77563,234.89859,701.7782,231.22876,701.7782z"/>
		<path d="M237.90118,668.41614H-57.32574V511.45538c0-3.66983,3.00259-6.67242,6.67242-6.67242h281.88208
			c3.66983,0,6.67242,3.00259,6.67242,6.67242V668.41614z"/>
		<rect x="-46.79364" y="513.1582" class="st2" width="274.16272" height="146.88261"/>
		<rect x="-46.79364" y="513.1582" class="st3" width="274.16272" height="21.32858"/>
		<path class="st2" d="M212.42261,529.42035H-31.84718c-1.53942,0-2.79894-1.25952-2.79894-2.79889l0,0
			c0-1.53943,1.25953-2.79895,2.79894-2.79895h244.26979c1.53943,0,2.79895,1.25952,2.79895,2.79895l0,0
			C215.22156,528.16083,213.96204,529.42035,212.42261,529.42035z"/>
		<circle class="st7" cx="-41.42974" cy="517.76923" r="2.76469"/>
		<circle class="st8" cx="-33.58906" cy="517.76923" r="2.76469"/>
		<circle class="st9" cx="-25.68981" cy="517.76923" r="2.76469"/>
		<rect x="33.09555" y="720.84229" class="st1" width="114.38435" height="3.81281"/>
		<g>
			<g>
				<path class="st2" d="M90.28772,574.27264c-36.39645,0-66.00652-29.61005-66.00652-66.0065s29.61008-66.00653,66.00652-66.00653
					s66.00652,29.61008,66.00652,66.00653S126.68417,574.27264,90.28772,574.27264z M90.28772,455.29315
					c-29.20972,0-52.973,23.76328-52.973,52.97299c0,29.20975,23.76328,52.97299,52.973,52.97299
					s52.97299-23.76324,52.97299-52.97299C143.26071,479.05643,119.49744,455.29315,90.28772,455.29315z"/>
			</g>
			<circle class="st11" cx="90.28793" cy="508.26596" r="59.48954"/>
			<g>
				<defs>
					<circle id="SVGID_3_" cx="90.28793" cy="508.26596" r="59.48954"/>
				</defs>
				<clipPath id="SVGID_4_">
					<use xlink:href="#SVGID_3_"  style="overflow:visible;"/>
				</clipPath>
				<g id="z7oEM3.tif_2_" class="st12">
					<g>
						<path class="st2" d="M21.15143,512.72473c0-2.97357,0-5.94711,0-8.92065c0.09465-0.4939,0.21098-0.98474,0.28027-1.48218
							c0.33899-2.43332,0.53755-4.89389,1.01703-7.29874c3.19316-16.0155,11.07794-29.30756,23.5578-39.80923
							c9.34828-7.86646,20.0811-12.9007,32.15384-14.97873c2.45803-0.42307,4.93436-0.7399,7.40226-1.10571
							c3.0672,0,6.1344,0,9.2016,0c0.45183,0.0914,0.89991,0.23184,1.35607,0.26682c6.09708,0.46759,12.01543,1.76782,17.754,3.8605
							c31.66634,11.54767,50.32974,43.92245,44.48402,77.13919c-5.325,30.25781-30.49004,53.66449-61.02515,56.64264
							c-15.82526,1.54346-30.60818-1.80481-43.99048-10.41547c-16.94743-10.90454-27.3361-26.37036-31.08211-46.21283
							C21.78086,517.8692,21.51589,515.2876,21.15143,512.72473z M150.42735,510.5329c-9.01227,0-17.81412,0-26.74924,0
							c-0.34555,10.98047-2.47654,21.54407-6.57269,31.4245c5.3458,2.93097,10.5655,5.79285,15.92021,8.72876
							C143.74365,539.66882,149.62453,526.30054,150.42735,510.5329z M63.50306,541.96265
							c-4.12207-9.9281-6.23746-20.45599-6.57771-31.40204c-8.94722,0-17.78528,0-26.61997,0
							c-0.46788,12.98206,8.56293,33.55249,17.3768,40.06006C52.98171,547.72046,58.16707,544.88281,63.50306,541.96265z
							 M150.27274,506.01022c0.70271-11.15717-7.881-32.33459-15.21881-37.61118c-4.72455,3.60205-9.75431,6.73862-15.24033,9.07776
							c-1.09987,0.46896-1.19281,0.93338-0.8368,1.96161c2.25425,6.51062,3.67476,13.20605,4.25938,20.0737
							c0.18329,2.15317,0.33383,4.30914,0.502,6.49811C132.6412,506.01022,141.40666,506.01022,150.27274,506.01022z
							 M56.83484,505.98447c0.04258-0.2482,0.09377-0.42722,0.1014-0.60809c0.38152-9.03836,1.81547-17.88492,4.85397-26.43332
							c0.28431-0.79984-0.09702-1.04614-0.71232-1.34009c-2.08924-0.99808-4.22715-1.92328-6.2143-3.09949
							c-3.22098-1.90652-6.33729-3.98981-9.51812-6.01138c-7.92406,7.00031-16.46821,28.37341-14.9359,37.49237
							C39.21127,505.98447,48.01611,505.98447,56.83484,505.98447z M61.41544,510.52719
							c0.26976,10.55045,2.34756,20.56796,6.34322,30.09219c3.50304-0.77551,6.77947-1.63812,10.1068-2.19897
							c3.35925-0.56628,6.76895-0.83331,10.14233-1.22974c0-8.91266,0-17.76062,0-26.66348
							C79.1545,510.52719,70.38834,510.52719,61.41544,510.52719z M112.7925,540.79688
							c4.03461-9.81287,6.15263-19.79156,6.38362-30.2482c-8.93536,0-17.7347,0-26.56418,0c0,8.95816,0,17.83896,0,26.81296
							C99.50018,537.62555,106.16455,538.70789,112.7925,540.79688z M66.23533,479.60907
							c-3.07463,8.71152-4.63074,17.39517-4.79078,26.35333c8.96275,0,17.75888,0,26.58878,0c0-7.46143,0-14.82806,0-22.33115
							C80.58628,483.3588,73.36921,482.02753,66.23533,479.60907z M92.57066,505.96115c8.93658,0,17.73361,0,26.52523,0
							c0.32592-6.73737-2.48317-21.9263-4.88863-26.28201c-6.9799,2.34146-14.19375,3.68085-21.6366,3.95215
							C92.57066,491.14096,92.57066,498.50659,92.57066,505.96115z M67.91702,475.48578
							c6.6162,2.22308,13.23073,3.50168,20.09502,3.60046c0-10.38385,0-20.56778,0-31.064
							C78.94476,455.63458,72.51084,464.80008,67.91702,475.48578z M112.63176,475.36484
							c-4.55276-10.57227-10.98361-19.73557-20.0276-27.32645c0,10.5296,0,20.75275,0,30.96912
							C97.31425,479.34644,108.30547,477.35208,112.63176,475.36484z M132.03197,464.92416
							c-8.85009-8.42035-19.23796-13.70718-31.32568-15.71484c6.89723,7.27554,12.20257,15.53494,16.12778,24.66833
							C120.80435,472.59952,129.72395,467.3541,132.03197,464.92416z M63.74422,473.95984
							c3.95569-9.28387,9.30754-17.50339,16.17535-24.77533c-12.11411,2.03836-22.51939,7.3158-31.45203,15.85934
							C53.25535,468.71411,58.2159,471.646,63.74422,473.95984z M69.65205,544.87067
							c4.5128,9.10754,10.39889,16.97614,18.34519,23.59497c0-9.07599,0-17.80841,0-26.60785
							C81.71504,542.03662,75.66708,542.97083,69.65205,544.87067z M110.95585,544.8642
							c-6.07494-1.86841-12.10349-2.88281-18.34875-2.97314c0,8.86401,0,17.5874,0,26.58398
							C100.53239,561.86713,106.41003,554.01154,110.95585,544.8642z M79.91365,567.33051
							c-5.89719-6.26703-10.71322-13.23425-14.46687-20.88849c-4.54461,1.59045-12.07821,5.67578-14.09675,7.65558
							C59.67706,561.10016,69.13248,565.57751,79.91365,567.33051z M100.69527,567.33105
							c10.79147-1.7749,20.26771-6.23273,28.68725-13.3584c-4.57067-3.14502-9.18867-5.63562-14.22417-7.56348
							C111.37674,554.15399,106.55802,561.07526,100.69527,567.33105z"/>
					</g>
				</g>
			</g>
		</g>
		<g>
			<path d="M93.03118,685.09448c0,1.50458-1.1947,2.69928-2.69924,2.69928c-1.50444,0-2.69914-1.1947-2.69914-2.69928
				c0-1.50446,1.1947-2.69916,2.69914-2.69916C91.79226,682.39532,93.03118,683.59003,93.03118,685.09448z"/>
			<path d="M90.28772,676.11188c-4.9559,0-9.02693,4.02673-9.02693,8.9826c0,4.95599,4.02671,8.98273,9.02693,8.98273
				c1.94703,0,3.7612-0.61945,5.26573-1.68152l-2.832-2.83191c-0.708,0.39819-1.54875,0.61945-2.38951,0.61945
				c-2.78768,0-5.08866-2.25671-5.08866-5.04443c0-2.78778,2.25676-5.04443,5.08866-5.04443
				c2.78778,0,5.08876,2.25665,5.08876,5.04443c0,0.88501-0.2213,1.68146-0.61946,2.3894l2.8319,2.83203
				c1.06205-1.46021,1.68151-3.27448,1.68151-5.22144C99.31465,680.13861,95.28794,676.11188,90.28772,676.11188z"/>
		</g>
		<g>
			<g id="Layer_1_2_">
				<g>
					<path class="st0" d="M119.78197,588.4024c-0.69701-0.79919-1.70057-1.25903-2.75887-1.25903H66.59344l-0.71161-4.24774
						c-0.29195-1.75897-1.81371-3.05084-3.59821-3.05084h-8.21093c-2.01806,0-3.6493,1.63123-3.6493,3.64929
						s1.63124,3.64929,3.6493,3.64929h5.11997l6.78769,40.74078c0.0292,0.16425,0.11313,0.29926,0.16422,0.45251
						c0.05839,0.19342,0.10583,0.37592,0.19706,0.55103c0.11678,0.24091,0.2737,0.44525,0.43792,0.65326
						c0.11313,0.14233,0.21531,0.28467,0.34668,0.40869c0.21166,0.19708,0.45616,0.33575,0.70432,0.47443
						c0.13867,0.07666,0.2591,0.17883,0.40872,0.23718c0.42332,0.17157,0.86853,0.27374,1.33929,0.27374
						c0.00365,0,40.14594,0,40.14594,0c2.01806,0,3.6493-1.63123,3.6493-3.64929s-1.63124-3.64935-3.6493-3.64935H72.67317
						l-0.60578-3.64929h41.30642c1.81734,0,3.35735-1.33563,3.6128-3.1311l3.6493-25.54504
						C120.78554,590.25989,120.47169,589.19794,119.78197,588.4024z M112.81547,594.44202l-1.04005,7.29858h-12.9988v-7.29858
						H112.81547z M95.12731,594.44202v7.29858h-10.9479v-7.29858H95.12731z M95.12731,605.38989v7.29858h-10.9479v-7.29858H95.12731
						z M80.53011,594.44202v7.29858h-10.9479c-0.19341,0-0.36858,0.05475-0.54009,0.1095l-1.23347-7.40808H80.53011z
						 M69.63331,605.38989h10.8968v7.29858h-9.68159L69.63331,605.38989z M98.77661,612.68848v-7.29858h12.4733l-1.04005,7.29858
						H98.77661z"/>
					<circle class="st0" cx="75.05617" cy="640.05823" r="5.47395"/>
					<circle class="st0" cx="107.89986" cy="640.05823" r="5.47395"/>
				</g>
			</g>
		</g>
	</g>
	<polygon class="st6" points="20.69086,597.40332 0.36532,585.66827 0.36532,598.67383 -58.65589,598.67383 -58.65589,619.60303 
		0.36532,619.60303 0.36532,632.60858 20.69086,620.87354 41.01669,609.13837 	"/>
</g>
<g>
	<path class="st13" d="M-431.31345,639.22394h-143.23904h1.73346c-12.24341,0-22.16864-8.72266-22.16864-19.48254v-31.59167
		h141.50555v31.59167C-453.48212,630.50128-443.55685,639.22394-431.31345,639.22394"/>
	<path class="st14" d="M-505.69516,639.22394V508.27576c0-10.75992-9.92526-19.48254-22.16867-19.48254
		s-22.1687,8.72263-22.1687,19.48254v130.94818"/>
	<path class="st15" d="M-369.38492,533.01514v179.1109H-510.8905c0,0,0-164.73657,0-198.50385
		c0,0,1.0405-24.82898-16.97333-24.82898l21.4884,1.86633"/>
	<path class="st13" d="M-527.86383,488.79321h143.23901h-1.73343c12.24341,0,22.16867,8.72263,22.16867,19.48254v198.65497
		h-141.50558V508.27576C-505.69516,497.51584-515.62042,488.79321-527.86383,488.79321"/>
	<rect x="-506.37543" y="519.82147" class="st6" width="142.18584" height="34.34358"/>
	<rect x="-506.37543" y="510.22928" class="st2" width="142.18584" height="9.59221"/>
	<rect x="-417.55902" y="568.01904" class="st16" width="40.26138" height="40.26138"/>
	<rect x="-492.69287" y="568.01904" class="st2" width="69.93596" height="40.26138"/>
	<rect x="-492.69287" y="613.47827" class="st16" width="40.26138" height="77.04145"/>
	<path class="st14" d="M-570.41724,639.22394h-1.73346c12.24347,0,22.1687-8.72266,22.1687-19.48254v19.48254H-570.41724z"/>
	<rect x="-447.23361" y="613.47827" class="st17" width="69.93596" height="40.26138"/>
	<rect x="-447.23361" y="658.31982" class="st6" width="32.19991" height="32.19991"/>
	<rect x="-409.49756" y="658.31982" class="st2" width="32.19991" height="32.19991"/>
	<g>
		<g>
			<path class="st18" d="M-348.45825,599.68146v29.46796l8.85022-3.9364l5.88376,13.75909l4.91135-2.45569l-5.79538-13.52338
				l8.25104-3.66626L-348.45825,599.68146z"/>
		</g>
	</g>
</g>
<g>
	<rect y="59.26876" class="st15" width="177.24777" height="183.65048"/>
	<rect x="5.00031" y="53.04385" class="st19" width="177.24777" height="18.00083"/>
	<path class="st2" d="M169.63362,66.76877H17.61479c-1.29923,0-2.36224-1.06301-2.36224-2.36225l0,0
		c0-1.29924,1.06301-2.36224,2.36224-2.36224h152.01883c1.29922,0,2.36224,1.06301,2.36224,2.36224l0,0
		C171.99586,65.70576,170.93285,66.76877,169.63362,66.76877z"/>
	<circle class="st7" cx="9.52732" cy="56.93543" r="2.33333"/>
	<circle class="st20" cx="16.14468" cy="56.93543" r="2.33333"/>
	<circle class="st9" cx="22.81147" cy="56.93543" r="2.33333"/>
	<rect x="5.00031" y="71.04469" class="st3" width="177.24777" height="166.87425"/>
	<rect x="11.41948" y="77.08817" class="st2" width="164.40945" height="154.78729"/>
	<rect x="16.86528" y="83.08855" class="st8" width="153.51785" height="11.66667"/>
	<rect x="16.86528" y="99.91894" class="st13" width="98.38281" height="51.17507"/>
	<rect x="16.86528" y="161.75211" class="st13" width="98.38281" height="64.5704"/>
	<g>
		<polygon class="st21" points="165.55357,197.10416 171.12312,210.66927 176.69905,197.10416 		"/>
		<polygon class="st22" points="176.31682,198.16989 165.93579,198.16989 152.93497,161.92 152.93497,140.16927 
			189.31764,140.16927 189.31764,161.92 		"/>
		<path class="st23" d="M187.49959,25.99467h-32.66667V3.66992C154.83292,1.64308,156.476,0,158.50284,0h25.32683
			c2.02684,0,3.66992,1.64308,3.66992,3.66992V25.99467z"/>
		<path class="st24" d="M187.49959,25.99467h-15.6656V0h11.99568c2.02684,0,3.66992,1.64308,3.66992,3.66992V25.99467z"/>
		<path class="st25" d="M189.31128,161.91991c0,0,0.55942-9.00056-8.81436-9.00056c-9.37379,0-9.37379,9.00056-9.37379,9.00056
			s-0.55942-9.00056-9.37378-9.00056c-8.81438,0-8.81438,9.00056-8.81438,9.00056V27.82248h36.37631V161.91991z"/>
		<path class="st26" d="M189.31128,161.91991c0,0,0.55942-9.00056-8.81436-9.00056c-9.37379,0-9.37379,9.00056-9.37379,9.00056
			l0.04314-134.09743h18.14502V161.91991z"/>
		<rect x="152.93497" y="18.16648" class="st27" width="36.37631" height="9.656"/>
		<path class="st27" d="M189.2592,20.95815h-36.30128c-0.7677,0-1.39583-0.62812-1.39583-1.39583v0
			c0-0.76771,0.62813-1.39583,1.39583-1.39583h36.30128c0.7677,0,1.39583,0.62812,1.39583,1.39583v0
			C190.65503,20.33002,190.0269,20.95815,189.2592,20.95815z"/>
		<path class="st27" d="M189.2592,23.74981h-36.30128c-0.7677,0-1.39583-0.62812-1.39583-1.39583v0
			c0-0.76771,0.62813-1.39583,1.39583-1.39583h36.30128c0.7677,0,1.39583,0.62812,1.39583,1.39583v0
			C190.65503,23.12169,190.0269,23.74981,189.2592,23.74981z"/>
		<path class="st27" d="M189.2592,26.54148h-36.30128c-0.7677,0-1.39583-0.62812-1.39583-1.39583v0
			c0-0.76771,0.62813-1.39583,1.39583-1.39583h36.30128c0.7677,0,1.39583,0.62812,1.39583,1.39583v0
			C190.65503,25.91335,190.0269,26.54148,189.2592,26.54148z"/>
		<path class="st27" d="M189.2592,29.33315h-36.30128c-0.7677,0-1.39583-0.62812-1.39583-1.39583v0
			c0-0.76771,0.62813-1.39583,1.39583-1.39583h36.30128c0.7677,0,1.39583,0.62812,1.39583,1.39583v0
			C190.65503,28.70502,190.0269,29.33315,189.2592,29.33315z"/>
		<path class="st28" d="M189.66803,20.95815h-17.57246c-0.54286,0-0.987-0.44415-0.987-0.987v-0.81766
			c0-0.54285,0.44414-0.987,0.987-0.987h17.57246c0.54285,0,0.987,0.44415,0.987,0.987v0.81766
			C190.65503,20.51399,190.21088,20.95815,189.66803,20.95815z"/>
		<path class="st28" d="M189.66803,23.74981h-17.57246c-0.54286,0-0.987-0.44415-0.987-0.987v-0.81766
			c0-0.54285,0.44414-0.987,0.987-0.987h17.57246c0.54285,0,0.987,0.44415,0.987,0.987v0.81766
			C190.65503,23.30566,190.21088,23.74981,189.66803,23.74981z"/>
		<path class="st28" d="M189.66803,26.54148h-17.57246c-0.54286,0-0.987-0.44415-0.987-0.987v-0.81766
			c0-0.54285,0.44414-0.987,0.987-0.987h17.57246c0.54285,0,0.987,0.44415,0.987,0.987v0.81766
			C190.65503,26.09733,190.21088,26.54148,189.66803,26.54148z"/>
		<path class="st28" d="M189.66803,29.33315h-17.57246c-0.54286,0-0.987-0.44415-0.987-0.987v-0.81766
			c0-0.54285,0.44414-0.987,0.987-0.987h17.57246c0.54285,0,0.987,0.44415,0.987,0.987v0.81766
			C190.65503,28.88899,190.21088,29.33315,189.66803,29.33315z"/>
	</g>
</g>
</svg>
