<svg width="256" height="230" viewBox="0 0 256 230" xmlns="http://www.w3.org/2000/svg">
  <path fill="#fff1e8" d="M34.213 203.233h-19.9L27.875 125.9h8.554a37.194 37.194 0 0 1 3.642-3.73c29.625-26.3 43.893-17.068 64.582-37.73 20.719-20.692 7.477-34.236 37.778-64.498 24.909-24.877 62.764-26.268 92.676 3.606 29.912 29.874 34.768 89.964-33.288 157.932v.001c-63.678 61.406-134.733 54.317-158.137 33.245-3.675-3.309-6.83-7.2-9.469-11.493z"/>
  <path fill="#1f253c" d="M176.5 202.236c-10.286 7.058-20.577 12.564-30.65 16.737h-45.507c-8.23 0-11.327-5.228-6.462-6.903l25.087-8.637a21.99 21.99 0 0 1 7.158-1.197h3.54c-1.757-.234-2.882-1.768-2.565-3.626l12.67-74.154c.345-2.02 2.263-3.656 4.285-3.656h86.923c2.022 0 3.381 1.637 3.036 3.656l-4.08 23.883c-7.504 10.761-16.802 21.842-28.116 33.14v.002c-8.355 8.056-16.836 14.933-25.32 20.755zm-59.933-14.173h-23.83c-1.88 0-3.124-1.522-2.778-3.4l8.484-46.035c.346-1.878 2.15-3.4 4.03-3.4h23.83c1.88 0 3.124 1.522 2.778 3.4l-8.483 46.035c-.347 1.878-2.151 3.4-4.031 3.4zm.94-5.1l7.857-42.635h-23.83l-7.857 42.635h23.83zM92.119 124.2L77.96 204.933c-.33 1.878-2.12 3.4-4 3.4H11.716c-1.88 0-3.138-1.522-2.808-3.4L23.067 124.2c.329-1.878 2.12-3.4 4-3.4h62.244c1.88 0 3.137 1.522 2.808 3.4zm-5.405 1.7h-58.84l-13.56 77.333h58.838L86.714 125.9z"/>
  <path fill="#ffaba0" d="M250.652 95.19a10.79 10.79 0 0 1-.01.02l-104.024.073a2.248 2.248 0 0 1-.014-.055l-23.27-.001c.008.133 0 .269-.025.406l-.453 2.475v.002l-1.663 9.09h10.599a1.701 1.701 0 0 1 0 3.4h-11.221l-.79 4.314v.001l-.968 5.294a1.702 1.702 0 0 1-3.35-.61l.97-5.296.062-.34.468-2.557.147-.806h-10.343a1.701 1.701 0 1 1 0-3.4h10.965l.73-3.984v-.002l1.46-7.987C62.415 95.22 3.586 95.21 3.586 95.21-3.11 86.395-.4 76.725 11.483 76.725c.557 0 1.138.04 1.74.118-1.442-4.91-.9-9.46 1.94-12.297 5.234-5.227 16.289-2.662 24.691 5.73 2.876 2.872 5.068 6.054 6.498 9.207 1.805-1.47 3.854-2.818 6.11-4.02-4.917-7.349-5.782-15.364-1.554-19.586 2.979-2.975 7.843-3.425 13.031-1.714-1.926-8.611-.593-16.446 4.472-21.504 6.149-6.141 16.395-6.793 27.157-2.789 0-37.53 35.623-34.78 55.97-17.59 4.414-3.093 9.096-5.563 13.962-7.379 12.506 3.35 22.835 12.015 28.408 23.422 8.64-2.35 16.603-1.283 21.622 3.729 5.085 5.08 6.114 13.18 3.635 21.943 3.929-.127 7.183.308 9.479 1.32-2.97-9.266-2.101-17.93 3.239-23.263 1.994-1.991 4.452-3.36 7.233-4.14 13.615 16.173 20.53 39.51 14.925 67.293-1.093-.004-2.223-.01-3.389-.016zm-137.178 62.905l-.94 5.1c-.074.402-.46.728-.864.728h-5.106c-.403 0-.67-.326-.595-.728l.94-5.1c.074-.402.46-.728.864-.728h5.106c.403 0 .67.326.595.728zm-54.008-.746l-2.086 11.9c-.165.938-1.06 1.7-2 1.7H43.463c-.94 0-1.568-.762-1.404-1.7l2.087-11.9c.165-.939 1.06-1.7 2-1.7h11.915c.94 0 1.569.761 1.404 1.7zM190.233 120.8h-3.461l.399-2.179c.075-.41.113-.828.113-1.24 0-.978-.208-1.925-.62-2.816a1.7 1.7 0 0 1 .833-2.256 1.704 1.704 0 0 1 2.259.832c.619 1.34.932 2.767.932 4.24 0 .616-.057 1.24-.169 1.852l-.286 1.567zm-74.168 14.428h-3.46l1.36-7.437a1.701 1.701 0 0 1 1.98-1.367 1.7 1.7 0 0 1 1.369 1.978l-1.25 6.826zM98.425 107.2a1.701 1.701 0 0 1 0 3.4h-8.342a1.701 1.701 0 0 1 0-3.4h8.342zm-16.684 0a1.701 1.701 0 0 1 0 3.4H73.4a1.701 1.701 0 0 1 0-3.4h8.342zm-17.16.485a1.7 1.7 0 1 1 1.039 3.238 6.788 6.788 0 0 0-4.465 4.59 1.702 1.702 0 0 1-3.271-.94 10.184 10.184 0 0 1 6.697-6.888zm117.524-.356a1.7 1.7 0 1 1-.537 3.357 6.957 6.957 0 0 0-1.095-.086h-6.972a1.701 1.701 0 1 1 0-3.4h6.972c.547 0 1.097.043 1.632.129zm-16.946-.13a1.701 1.701 0 0 1 0 3.4h-8.342a1.701 1.701 0 0 1 0-3.4h8.342zm-16.684 0a1.701 1.701 0 0 1 0 3.4h-8.341a1.701 1.701 0 0 1 0-3.4h8.341zm74.323 50.772c-6.045 7.704-13.012 15.553-20.979 23.509v.001c-5.88 5.67-11.823 10.756-17.786 15.301h-51.129l12.045-70.498h83.263l-5.414 31.687zm-12.962 8.932l-8.624-19.26-15.205 19.26h23.83zm-25.051-16.674l.625-3.655h-36.606l-.625 3.655h36.606zm-10.088 5.484l.624-3.656h-27.454l-.625 3.656h27.455zm-9.046 21.063l1.25-7.312h-21.964l-1.249 7.312h21.963z"/>
  <path fill="#fff1e8" d="M226.338 137.251h-83.262l1.249-7.312h83.263l-1.25 7.312zm-63.916 36.741H147.78l.312-1.828h14.642l-.312 1.828zm44.358 2.413a292.854 292.854 0 0 1-4.962 5.076c-5.88 5.67-11.822 10.756-17.784 15.301h-51.13l2.916-17.066c18.203.892 27.095 4.235 41.358 4.235 13.066 0 19.943-3.976 29.602-7.546zm-83.397-81.178h-3.46l1.813-9.912H105.99c-2.797 0-4.72-2.265-4.297-5.058l5.37-35.403c.423-2.794 3.033-5.058 5.83-5.058h35.45c2.797 0 4.72 2.264 4.297 5.058l-5.369 35.403c-.423 2.793-3.034 5.058-5.831 5.058h-16.243l-1.814 9.912z"/>
  <path fill="#675baa" d="M107.65 179.804c-.149.805-.922 1.457-1.728 1.457-.806 0-1.339-.652-1.19-1.457.148-.805.921-1.457 1.727-1.457s1.339.652 1.19 1.457zm-4.377 0c-.149.805-.922 1.457-1.728 1.457-.806 0-1.339-.652-1.19-1.457.148-.805.921-1.457 1.727-1.457s1.339.652 1.19 1.457zm-4.377 0c-.148.805-.922 1.457-1.728 1.457-.805 0-1.339-.652-1.19-1.457.148-.805.922-1.457 1.727-1.457.806 0 1.34.652 1.19 1.457zm17.508 0c-.149.805-.922 1.457-1.728 1.457-.806 0-1.339-.652-1.19-1.457.148-.805.921-1.457 1.727-1.457s1.339.652 1.19 1.457zm-4.377 0c-.149.805-.922 1.457-1.728 1.457-.806 0-1.339-.652-1.19-1.457.148-.805.921-1.457 1.727-1.457s1.339.652 1.19 1.457zm-5.374-28.63l-.725 3.934c-.074.403-.461.729-.864.729h-3.94c-.403 0-.669-.326-.595-.729l.725-3.934c.074-.403.461-.729.864-.729h3.94c.403 0 .67.326.595.729zm7.513 0l-.725 3.934c-.074.403-.46.729-.863.729h-3.94c-.403 0-.67-.326-.596-.729l.726-3.934c.074-.403.46-.729.863-.729h3.94c.403 0 .67.326.595.729zm7.514 0l-.725 3.934c-.075.403-.461.729-.864.729h-3.94c-.403 0-.67-.326-.595-.729l.725-3.934c.074-.403.46-.729.863-.729h3.94c.403 0 .67.326.596.729zm-16.41 7.504l-.725 3.934c-.074.403-.46.729-.864.729h-3.94c-.403 0-.669-.326-.595-.729l.725-3.934c.075-.403.461-.729.864-.729h3.94c.403 0 .67.326.595.729zm15.027 0l-.725 3.934c-.075.403-.461.729-.864.729h-3.94c-.403 0-.67-.326-.595-.729l.725-3.934c.074-.403.46-.729.864-.729h3.94c.402 0 .669.326.595.729zm-16.383 7.358l-.725 3.935c-.074.402-.46.728-.864.728h-3.94c-.403 0-.669-.326-.595-.728l.725-3.935c.075-.402.461-.729.864-.729h3.94c.403 0 .67.327.595.729zm7.513 0l-.725 3.935c-.074.402-.46.728-.863.728h-3.94c-.403 0-.67-.326-.596-.728l.726-3.935c.074-.402.46-.729.863-.729h3.94c.403 0 .67.327.595.729zm7.514 0l-.726 3.935c-.074.402-.46.728-.863.728h-3.94c-.403 0-.67-.326-.595-.728l.725-3.935c.074-.402.46-.729.864-.729h3.94c.402 0 .669.327.595.729zm-75.534-24.837l-1.61 9.18c-.165.94-1.06 1.7-2 1.7h-9.194c-.94 0-1.569-.76-1.404-1.7l1.61-9.18c.165-.94 1.06-1.7 2-1.7h9.193c.94 0 1.57.76 1.405 1.7zm17.53 0l-1.61 9.18c-.164.94-1.06 1.7-2 1.7h-9.193c-.94 0-1.568-.76-1.404-1.7l1.61-9.18c.165-.94 1.06-1.7 2-1.7h9.194c.94 0 1.568.76 1.404 1.7zm17.532 0l-1.61 9.18c-.165.94-1.06 1.7-2 1.7h-9.194c-.94 0-1.568-.76-1.404-1.7l1.61-9.18c.165-.94 1.06-1.7 2-1.7h9.194c.94 0 1.568.76 1.404 1.7zm-38.133 17.509l-1.61 9.181c-.165.939-1.06 1.7-2 1.7h-9.194c-.94 0-1.568-.761-1.403-1.7l1.61-9.181c.164-.939 1.06-1.7 2-1.7h9.193c.94 0 1.568.761 1.404 1.7zm35.062 0l-1.61 9.181c-.165.939-1.06 1.7-2 1.7h-9.193c-.94 0-1.569-.761-1.404-1.7l1.61-9.181c.165-.939 1.06-1.7 2-1.7h9.193c.94 0 1.569.761 1.404 1.7zm-38.073 17.17l-1.61 9.18c-.165.94-1.06 1.7-2 1.7H24.52c-.94 0-1.568-.76-1.403-1.7l1.61-9.18c.164-.94 1.06-1.7 2-1.7h9.193c.94 0 1.568.76 1.404 1.7zm17.531 0l-1.61 9.18c-.165.94-1.06 1.7-2 1.7h-9.193c-.94 0-1.569-.76-1.404-1.7l1.61-9.18c.164-.94 1.06-1.7 2-1.7h9.193c.94 0 1.569.76 1.404 1.7zm17.531 0l-1.61 9.18c-.165.94-1.06 1.7-2 1.7h-9.193c-.94 0-1.569-.76-1.404-1.7l1.61-9.18c.165-.94 1.06-1.7 2-1.7h9.193c.94 0 1.569.76 1.404 1.7zM86.714 125.9l-1.49 8.5h-58.84l1.49-8.5h58.84zm-38.369 70.6c-.33 1.878-2.12 3.4-4 3.4s-3.138-1.522-2.809-3.4c.33-1.877 2.12-3.4 4.001-3.4 1.88 0 3.137 1.523 2.808 3.4zm-10.213 0c-.33 1.878-2.12 3.4-4 3.4s-3.138-1.522-2.808-3.4c.33-1.877 2.12-3.4 4-3.4s3.138 1.523 2.808 3.4zm-10.213 0c-.329 1.878-2.12 3.4-4 3.4s-3.138-1.522-2.808-3.4c.33-1.877 2.12-3.4 4-3.4s3.138 1.523 2.808 3.4zm40.852 0c-.33 1.878-2.12 3.4-4 3.4-1.881 0-3.138-1.522-2.809-3.4.33-1.877 2.12-3.4 4-3.4s3.138 1.523 2.809 3.4zm-10.213 0c-.33 1.878-2.12 3.4-4 3.4s-3.138-1.522-2.809-3.4c.33-1.877 2.12-3.4 4-3.4s3.138 1.523 2.809 3.4zm169.03-66.56h-83.263l.624-3.656h83.263l-.624 3.656zm-44.833 32.17h-36.606l.312-1.827h36.606l-.312 1.828zm-20.758 3.657h-16.472l.312-1.828h16.472l-.312 1.828zm9.984 39.47c-1.318.847-2.636 1.67-3.952 2.467l-2.252.763h.98c-.483.287-.965.57-1.447.85h-2.042l-8.027 2.72h5.205c-.534.287-1.068.57-1.602.85h-57.672l2.481-.85h15.12l7.94-2.72h-15.118l2.481-.85h15.118l6.948-2.38h-15.117l2.482-.85h48.474zm-42.642 4.08l-7.94 2.72h14.316l8.03-2.72H129.34zm9.43-3.23l-6.948 2.38h14.434l7.027-2.38h-14.513zm21.873 3.23h-14.27l-8.03 2.72h14.273l8.027-2.72zm-11.76-.85h14.268l7.024-2.38h-14.266l-7.026 2.38zm44.252-19.065a196.34 196.34 0 0 1-9.1 7.38H140.69l1.261-7.38h51.182zm-68.71-43.974h-23.83l.94-5.1h23.83l-.94 5.1z"/>
  <path fill="#1f253c" d="M110.979 161.74h-2.918l1.893-2.36 1.025 2.36zm-57.26 4.112h-6.808l4.37-5.503 2.439 5.503zm84.087-94.195h-23.83l14.835-19.26 8.995 19.26z"/>
</svg>
