<svg xmlns="http://www.w3.org/2000/svg" xmlns:xlink="http://www.w3.org/1999/xlink" viewBox="0 0 816.18 718.8"><defs><style>.cls-1{fill:#fccebe;}.cls-2,.cls-69{opacity:0.4;}.cls-3,.cls-69{fill:#a58877;}.cls-4{fill:url(#linear-gradient);}.cls-25,.cls-5{fill:#fff;}.cls-6{fill:url(#linear-gradient-2);}.cls-7{opacity:0.2;}.cls-8{fill:#7297ce;}.cls-9{fill:url(#linear-gradient-3);}.cls-10{fill:url(#linear-gradient-4);}.cls-11{fill:#3c59a8;}.cls-12{fill:#e6e7e7;}.cls-13{fill:#de3f26;}.cls-14{fill:#bf9c8e;}.cls-15{fill:url(#linear-gradient-5);}.cls-16{opacity:0.3;}.cls-17{fill:#264286;}.cls-18{fill:url(#linear-gradient-6);}.cls-19{fill:#e4ecf8;}.cls-20{fill:url(#linear-gradient-7);}.cls-21{fill:#b5cbe9;}.cls-22{fill:#6170b5;}.cls-23{fill:#fde0d5;}.cls-24{opacity:0.5;}.cls-25{opacity:0;}.cls-26{fill:#f9fafd;opacity:0.02;}.cls-27{fill:#f4f6fb;opacity:0.05;}.cls-28{fill:#f1f3fa;opacity:0.07;}.cls-29{fill:#edf0f8;opacity:0.1;}.cls-30{fill:#e9edf7;opacity:0.12;}.cls-31{fill:#e6eaf6;opacity:0.15;}.cls-32{fill:#e2e7f5;opacity:0.17;}.cls-33{fill:#dee4f4;opacity:0.2;}.cls-34{fill:#dbe1f2;opacity:0.22;}.cls-35{fill:#d7dff1;opacity:0.24;}.cls-36{fill:#d3dcf0;opacity:0.27;}.cls-37{fill:#d0d9ef;opacity:0.29;}.cls-38{fill:#ccd7ee;opacity:0.32;}.cls-39{fill:#c9d4ec;opacity:0.34;}.cls-40{fill:#c5d1eb;opacity:0.37;}.cls-41{fill:#c2cfea;opacity:0.39;}.cls-42{fill:#bfcce9;opacity:0.41;}.cls-43{fill:#bbcae8;opacity:0.44;}.cls-44{fill:#b8c7e7;opacity:0.46;}.cls-45{fill:#b4c5e5;opacity:0.49;}.cls-46{fill:#b1c2e4;opacity:0.51;}.cls-47{fill:#aec0e3;opacity:0.54;}.cls-48{fill:#aabee2;opacity:0.56;}.cls-49{fill:#a7bbe1;opacity:0.59;}.cls-50{fill:#a4b9e0;opacity:0.61;}.cls-51{fill:#a0b6df;opacity:0.63;}.cls-52{fill:#9db4dd;opacity:0.66;}.cls-53{fill:#9ab2dc;opacity:0.68;}.cls-54{fill:#97b0db;opacity:0.71;}.cls-55{fill:#93adda;opacity:0.73;}.cls-56{fill:#90abd9;opacity:0.76;}.cls-57{fill:#8da9d8;opacity:0.78;}.cls-58{fill:#8aa7d7;opacity:0.8;}.cls-59{fill:#87a5d6;opacity:0.83;}.cls-60{fill:#84a3d5;opacity:0.85;}.cls-61{fill:#81a1d4;opacity:0.88;}.cls-62{fill:#7e9fd3;opacity:0.9;}.cls-63{fill:#7b9dd2;opacity:0.93;}.cls-64{fill:#789bd1;opacity:0.95;}.cls-65{fill:#7599cf;opacity:0.98;}.cls-66{fill:url(#linear-gradient-8);}.cls-67{fill:url(#linear-gradient-9);}.cls-68{fill:url(#linear-gradient-10);}.cls-70{fill:url(#linear-gradient-11);}.cls-71{fill:url(#linear-gradient-12);}.cls-72{fill:url(#linear-gradient-13);}.cls-73{fill:url(#linear-gradient-14);}.cls-74{fill:url(#linear-gradient-15);}.cls-75{fill:url(#linear-gradient-16);}.cls-76{fill:url(#linear-gradient-17);}.cls-77{fill:url(#linear-gradient-18);}.cls-78{fill:url(#linear-gradient-19);}.cls-79{fill:url(#linear-gradient-20);}.cls-80{fill:url(#linear-gradient-21);}.cls-81{fill:url(#linear-gradient-22);}.cls-82{fill:url(#linear-gradient-23);}.cls-83{fill:url(#linear-gradient-24);}.cls-84{fill:url(#linear-gradient-25);}.cls-85{fill:url(#linear-gradient-26);}</style><linearGradient id="linear-gradient" x1="-4904.22" y1="678.06" x2="-4789.55" y2="678.06" gradientTransform="translate(5331.44)" gradientUnits="userSpaceOnUse"><stop offset="0" stop-color="#7297ce"/><stop offset="0.15" stop-color="#5d7ebf"/><stop offset="0.34" stop-color="#4865b0"/><stop offset="0.54" stop-color="#3954a5"/><stop offset="0.75" stop-color="#30499f"/><stop offset="1" stop-color="#2d469d"/></linearGradient><linearGradient id="linear-gradient-2" x1="-4690.03" y1="299.08" x2="-4855.3" y2="669.23" gradientTransform="translate(5331.44)" gradientUnits="userSpaceOnUse"><stop offset="0" stop-color="#b5cbe9"/><stop offset="0.81" stop-color="#e4ecf8"/></linearGradient><linearGradient id="linear-gradient-3" x1="-4716.05" y1="668.6" x2="-4610.13" y2="668.6" xlink:href="#linear-gradient"/><linearGradient id="linear-gradient-4" x1="-4602.66" y1="282.68" x2="-4788.42" y2="717.04" gradientTransform="translate(5331.44)" gradientUnits="userSpaceOnUse"><stop offset="0" stop-color="#b5cbe9"/><stop offset="0.04" stop-color="#b8cdea"/><stop offset="0.39" stop-color="#d0def2"/><stop offset="0.73" stop-color="#dfe8f6"/><stop offset="1" stop-color="#e4ecf8"/></linearGradient><linearGradient id="linear-gradient-5" x1="-4761.89" y1="29.77" x2="-4675.76" y2="29.77" gradientTransform="translate(5331.44)" gradientUnits="userSpaceOnUse"><stop offset="0" stop-color="#101c39"/><stop offset="0.2" stop-color="#1b2c55"/><stop offset="0.56" stop-color="#2d4482"/><stop offset="0.84" stop-color="#38539e"/><stop offset="1" stop-color="#3c59a8"/></linearGradient><linearGradient id="linear-gradient-6" x1="-4934.31" y1="305.7" x2="-4563.54" y2="305.7" gradientTransform="translate(-4166.41 611.39) rotate(-180)" gradientUnits="userSpaceOnUse"><stop offset="0" stop-color="#eff4fb"/><stop offset="0.44" stop-color="#f8fafd"/><stop offset="1" stop-color="#fff"/></linearGradient><linearGradient id="linear-gradient-7" x1="-4910.58" y1="257.94" x2="-4833.46" y2="257.94" gradientTransform="translate(-4412.6 515.88) rotate(-180)" gradientUnits="userSpaceOnUse"><stop offset="0" stop-color="#f37322"/><stop offset="1" stop-color="#fcb321"/></linearGradient><linearGradient id="linear-gradient-8" x1="357.79" y1="160.02" x2="174.01" y2="48.92" gradientTransform="matrix(1, 0, 0, 1, 0, 0)" xlink:href="#linear-gradient-6"/><linearGradient id="linear-gradient-9" x1="-828.59" y1="88.06" x2="-801.9" y2="88.06" gradientTransform="matrix(1, 0, -0.14, 1, 1047.84, 0)" xlink:href="#linear-gradient-7"/><linearGradient id="linear-gradient-10" x1="7.53" y1="190.7" x2="59.05" y2="190.7" gradientTransform="matrix(1, 0, 0, 1, 0, 0)" xlink:href="#linear-gradient"/><linearGradient id="linear-gradient-11" x1="-129.27" y1="680.15" x2="-32.74" y2="680.15" gradientTransform="translate(160.7)" xlink:href="#linear-gradient-5"/><linearGradient id="linear-gradient-12" x1="23.89" y1="465.7" x2="113.85" y2="465.7" gradientUnits="userSpaceOnUse"><stop offset="0" stop-color="#b5cbe9"/><stop offset="0.22" stop-color="#ceddf1"/><stop offset="0.42" stop-color="#dee8f6"/><stop offset="0.58" stop-color="#e4ecf8"/></linearGradient><linearGradient id="linear-gradient-13" x1="41.36" y1="465.7" x2="133.16" y2="465.7" gradientTransform="matrix(1, 0, 0, 1, 0, 0)" xlink:href="#linear-gradient-2"/><linearGradient id="linear-gradient-14" x1="18.22" y1="149.49" x2="118.38" y2="357.98" gradientTransform="matrix(1, 0, 0, 1, 0, 0)" xlink:href="#linear-gradient"/><linearGradient id="linear-gradient-15" x1="77.64" y1="143.87" x2="131.91" y2="227.29" gradientTransform="matrix(1, 0, 0, 1, 0, 0)" xlink:href="#linear-gradient"/><linearGradient id="linear-gradient-16" x1="10.96" y1="113.36" x2="108.88" y2="113.36" gradientTransform="matrix(1, 0, 0, 1, 0, 0)" xlink:href="#linear-gradient-7"/><linearGradient id="linear-gradient-17" x1="29.21" y1="81.48" x2="70.06" y2="81.48" gradientUnits="userSpaceOnUse"><stop offset="0" stop-color="#fcb321"/><stop offset="1" stop-color="#f37322"/></linearGradient><linearGradient id="linear-gradient-18" x1="42.01" y1="105.91" x2="76.53" y2="105.91" xlink:href="#linear-gradient-17"/><linearGradient id="linear-gradient-19" x1="56.86" y1="104.74" x2="90.52" y2="104.74" gradientTransform="matrix(1, 0, 0, 1, 0, 0)" xlink:href="#linear-gradient-7"/><linearGradient id="linear-gradient-20" x1="68.75" y1="109.78" x2="97.29" y2="109.78" gradientTransform="matrix(1, 0, 0, 1, 0, 0)" xlink:href="#linear-gradient-7"/><linearGradient id="linear-gradient-21" x1="32.62" y1="112.13" x2="52.81" y2="112.13" xlink:href="#linear-gradient-17"/><linearGradient id="linear-gradient-22" x1="16.77" y1="134.47" x2="25.85" y2="134.47" gradientTransform="matrix(1, 0, 0, 1, 0, 0)" xlink:href="#linear-gradient-7"/><linearGradient id="linear-gradient-23" x1="21.46" y1="145.24" x2="33.66" y2="145.24" gradientTransform="matrix(1, 0, 0, 1, 0, 0)" xlink:href="#linear-gradient-7"/><linearGradient id="linear-gradient-24" x1="43.05" y1="169.97" x2="68.37" y2="60.52" xlink:href="#linear-gradient-17"/><linearGradient id="linear-gradient-25" x1="78.2" y1="121.46" x2="94.93" y2="121.46" gradientTransform="matrix(1, 0, 0, 1, 0, 0)" xlink:href="#linear-gradient-7"/><linearGradient id="linear-gradient-26" x1="-109.96" y1="680.15" x2="-13.43" y2="680.15" gradientTransform="translate(160.7)" xlink:href="#linear-gradient-5"/></defs><title>contact-us</title><g id="Warstwa_2" data-name="Warstwa 2"><g id="Warstwa_1-2" data-name="Warstwa 1"><g id="_grupa_" data-name="&lt;grupa&gt;"><path id="_ścieżka_" data-name="&lt;ścieżka&gt;" class="cls-1" d="M537.37,681.47H483.56s8.18-18.9,14.2-19.69c11.17-1.47,12.71-24.47,12.71-24.47h29.19a19.54,19.54,0,0,0,2.23,22.17Z"/><g id="_grupa_2" data-name="&lt;grupa&gt;" class="cls-2"><path class="cls-3" d="M541.89,659.48a19.54,19.54,0,0,1-2.23-22.17h-9.85c-.59,2.21-1.15,4.43-1.8,6.62-2.11,7.1-4.64,14.24-9.19,20.08-3.08,4-17.47,9.82-17.65,12.44-.13,1.83,1.19,3.53,3.19,5h33Z"/></g><path id="_ścieżka_2" data-name="&lt;ścieżka&gt;" class="cls-4" d="M541.89,659.48v29.17a8,8,0,0,1-8,8H431.05a3.83,3.83,0,0,1-3.48-5.42h0a16.39,16.39,0,0,1,10.27-9.51l35.4-10.14,24.51-9.79h0A23.09,23.09,0,0,0,518.61,675H519a23.09,23.09,0,0,0,18.91-9.84Z"/><path id="_ścieżka_3" data-name="&lt;ścieżka&gt;" class="cls-5" d="M533.9,692.54H431.05a3.79,3.79,0,0,1-3.25-1.82c-.07.17-.16.33-.23.5a3.83,3.83,0,0,0,3.48,5.42H533.9a8,8,0,0,0,8-8v-4.1A8,8,0,0,1,533.9,692.54Z"/><path id="_ścieżka_4" data-name="&lt;ścieżka&gt;" class="cls-6" d="M553.34,376.59s-32,80-37.76,143.72c-5.8,64.25-1.47,96.69-9.52,122H541.6c8-39.17,15.43-47.21,18.5-64.22,4.2-23.28,3.24-50.54,3.24-50.54s69.53-100.68,69.5-156.17Z"/><g id="_grupa_3" data-name="&lt;grupa&gt;" class="cls-7"><path class="cls-8" d="M556.1,376.41c11.32,16.31,20.11,34.13,20.46,53.67.54,30.54-17.8,51-31.68,76.05-3.67,6.62-7.08,13.5-8.55,20.92-1.93,9.72-.43,19.74.46,29.61a233.75,233.75,0,0,1-8.34,85.68H541.6c8-39.17,15.43-47.21,18.5-64.22,4.2-23.28,3.24-50.54,3.24-50.54s69.53-100.68,69.5-156.17Z"/></g><path id="_ścieżka_5" data-name="&lt;ścieżka&gt;" class="cls-1" d="M703.17,637.32S706,655.49,700,661.89c-11.74,12.56-36.3,18-36.3,18s-1.74-19.39,1.1-25c6.9-13.51-3.57-28.08-3.57-28.08l29.37-8.2S689.39,635.21,703.17,637.32Z"/><g id="_grupa_4" data-name="&lt;grupa&gt;" class="cls-2"><path class="cls-3" d="M670.61,678a32,32,0,0,0,12.51-31c-1.44-7.7-5.71-14.53-9.63-21.31-.37-.63-.69-1.29-1.06-1.92l-11.15,3.11s10.47,14.57,3.57,28.08c-2.48,4.85-1.47,20.21-1.18,24.06l2.63.25C667.44,678.93,668.91,678.51,670.61,678Z"/></g><path id="_ścieżka_6" data-name="&lt;ścieżka&gt;" class="cls-9" d="M703.17,637.32l17.3,29.39a7.38,7.38,0,0,1-4.17,10.4l-66.37,22.54a4.85,4.85,0,0,1-1.56.26H618.79a14.79,14.79,0,0,1-3-3.72,3.39,3.39,0,0,1,1.58-4.7l24.89-11.66a29.38,29.38,0,0,0,11.34-9.38l11.23-15.51,6.6,4.63a19.52,19.52,0,0,0,17.44,2.51h0a19.52,19.52,0,0,0,13.12-16Z"/><path id="_ścieżka_7" data-name="&lt;ścieżka&gt;" class="cls-5" d="M720.47,666.7l-.54-.91a7.38,7.38,0,0,1-5,7.21l-66.37,22.54a4.86,4.86,0,0,1-1.56.26H617.43a13.91,13.91,0,0,1-1.9-2.09,3.22,3.22,0,0,0,.29,2.47,14.79,14.79,0,0,0,3,3.72h29.57a4.85,4.85,0,0,0,1.56-.26L716.3,677.1A7.38,7.38,0,0,0,720.47,666.7Z"/><path id="_ścieżka_8" data-name="&lt;ścieżka&gt;" class="cls-10" d="M668.24,362.35l3.13,23.36c1.6,11.92-2,24.16-5.68,36.27-3.56,11.6-6.63,23.79-5,35.82,3.09,23.35-7.64,70-7.64,70s12.39,10.66,20.78,34c4.09,11.37,7.47,37.71,21.33,61.57l-33.74,15.56L612.11,538.52,580.37,367.69Z"/><g id="_grupa_5" data-name="&lt;grupa&gt;" class="cls-7"><path class="cls-8" d="M580.37,367.69l31.74,170.83,49.28,100.43,15.6-7.19c-1.15-2-2.34-4.08-3.51-6.1a303.54,303.54,0,0,1-22.74-48.84c-3.89-10.75-7.26-21.91-13.83-31.26-1.83-2.6-3.9-5.06-5.2-8a26.82,26.82,0,0,1-1.86-6.93c-3.36-21.65,4.83-43.29,6.48-65.14,1.18-15.63-1-31.61,2.19-47.07S645.59,396.74,660,391A55.07,55.07,0,0,0,671.28,385l-3-22.67Z"/></g><path id="_ścieżka_9" data-name="&lt;ścieżka&gt;" class="cls-1" d="M595.57,225.91l54,.25s-14.34-110.15-6.7-162c1-6.68-19.47,20.78-20.64,20.78H608.86c-3.92,0-8.15-1.45-11.89-1,2.94,1.65,4.75,5,5.45,8.38.79,3.83.63,10.88.44,15.14s-12.92,23.52-12.92,27.45C589.93,139.49,595.57,221.26,595.57,225.91Z"/><g id="_grupa_6" data-name="&lt;grupa&gt;" class="cls-2"><path class="cls-3" d="M607.29,155.6a7.37,7.37,0,0,0,4.43-1.67c4-3.92-1-12.21-2-16.55a87.47,87.47,0,0,1-2.05-20.61c.13-6.8,1.33-14.14,6.18-18.91,1.88-1.85,4.2-3.19,6.1-5,3-2.85,3.67-5.79,3-8.61-.41.43-.69.67-.8.67H608.86c-3.92,0-8.15-1.45-11.89-1,2.94,1.65,4.75,5,5.45,8.38.79,3.83.63,10.88.44,15.14s-12.92,23.52-12.92,27.45c0,1.28.42,8.37,1,18.06A31.69,31.69,0,0,0,607.29,155.6Z"/></g><path id="_ścieżka_10" data-name="&lt;ścieżka&gt;" class="cls-5" d="M643,119.35l6.51,106.8-54-.25c0-4.65-5.64-86.42-5.64-91.06,0-1.62,2.18-5.88,4.75-10.6C613.45,133,633.15,124.85,643,119.35Z"/><path id="_ścieżka_11" data-name="&lt;ścieżka&gt;" class="cls-1" d="M584.62,87.33a6.85,6.85,0,0,0,7.54,6.1c4.8-.54,10.57-2.48,14-2.23h0a35.06,35.06,0,0,0,37.62-35V25.35H583.27c.39,0,.2,7-.09,14.6-.24,6.41-6.07,21.57-6.17,25.25,0,1.17,5.47,2,5.49,2.41Z"/><path id="_ścieżka_12" data-name="&lt;ścieżka&gt;" class="cls-11" d="M640.95,94l5.32,2.77,3.31,5.61a36,36,0,0,0,16.2,14.5l5.66,2.55a44.76,44.76,0,0,1,25.11,30.22l10.25,42.07a228.59,228.59,0,0,1,3.89,88.5L696,349.89H671.2l-1.83-103.71a98.6,98.6,0,0,0-1.65-16.29l-.68-3.65-67.42-.33s6.67-84.51,21.31-95.59l-6-4.6L628.29,120a13.52,13.52,0,0,0,8-9.87,44.78,44.78,0,0,1,1.08-4.65Z"/><path id="_ścieżka_13" data-name="&lt;ścieżka&gt;" class="cls-11" d="M602.86,107.39,597,110.22l-21.48,13.71a59.17,59.17,0,0,0-18.7,19C545,162.16,524,200.27,525.27,224.72l74.35,1.19s4.65-56.9-2.72-81.42a31.36,31.36,0,0,1,.08-18.55Z"/><rect id="_Prostokąt_" data-name="&lt;Prostokąt&gt;" class="cls-12" x="681.27" y="245.48" width="11.87" height="120.42" transform="translate(1374.4 611.39) rotate(180)"/><rect id="_Prostokąt_2" data-name="&lt;Prostokąt&gt;" class="cls-13" x="681.27" y="305.7" width="11.87" height="60.21" transform="translate(1374.4 671.6) rotate(180)"/><g id="_grupa_7" data-name="&lt;grupa&gt;" class="cls-2"><path class="cls-14" d="M582.49,67.61l2.14,19.72a6.85,6.85,0,0,0,7.54,6.1,85.62,85.62,0,0,0,9.07-2c2.62-.59,4.77,0,7.39.1a14.73,14.73,0,0,0,3.33-.38q4.57-.91,9-2.25a2.45,2.45,0,0,0,1.4-.81,2.48,2.48,0,0,0,.29-1.35,14.31,14.31,0,0,0-1.85-7.8c-1.46-2.58-3.8-4.55-5-7.29A39.6,39.6,0,0,1,614.08,66a12.1,12.1,0,0,1-.54-3.2,6.67,6.67,0,0,1,4.34-6.14A6.28,6.28,0,0,1,625,59a15.94,15.94,0,0,1,1.68,4.93c1.2,4.59,3.76,8.64,6.42,12.51.66,1,7.19,9.45,7.82,8.81l.1-.13c.34-7.59.94-14.64,1.84-20.86a35.1,35.1,0,0,0,.94-8V40.63A26.8,26.8,0,0,0,629.59,30L615,25.35s-29.19,0-29.17.07c1.06,2.45,3.7,5.15,5.32,7.32a47.76,47.76,0,0,0,7.74,8.14,33.41,33.41,0,0,1,5.19,4.72,16.62,16.62,0,0,1,3.11,10.78c-.1,3.61-1.59,7-1.76,10.56-.12,2.57.74,5.22-1.26,7.42-1.65,1.82-4.7,1.73-6.77.42S594.05,71.22,593,69c-2-4.12-4.25-4-8.44-2.75a10,10,0,0,0-2.46,1.12C582.31,67.47,582.48,67.55,582.49,67.61Z"/></g><g id="_grupa_8" data-name="&lt;grupa&gt;"><path class="cls-15" d="M578.59,6.79c7.5-.6,14.81-.13,22.49-2.7,3.81-1.27,7.52-2.88,11.46-3.64a28.27,28.27,0,0,1,29.23,13.61c5.61-.45,10.69,4.08,12.61,9.37s1.38,11.13.5,16.69a32.58,32.58,0,0,1-2.65,9.61c-1.42,2.84-7,11.32-11,9.57-2.27-1-4.41-10.59-6.34-13.12-5.82-7.62-15.28-11-24.4-12.55-11.83-2-26.07-3.12-35-12.14-3.9-3.92-10-12.74-1.92-14.1C575.21,7.11,576.91,6.92,578.59,6.79Z"/></g><g id="_grupa_9" data-name="&lt;grupa&gt;" class="cls-16"><path class="cls-17" d="M590.77,253.9c-2.8,9.29-20.76,2.79-26.69-.16-7.66-3.82-14.16-9.56-20.57-15.23l-.12-7.21,11.47-17.62c2.47-3.8,5-7.71,6-12.14,1.24-5.61-.89-13.15,2.14-18.25,4-6.66,6-3.74,7.57,1.88,3.44,12.55-1.2,26,4.18,38.36,2,4.59,8.54,11.56,12.72,18.33C590.12,246.16,591.82,250.4,590.77,253.9Z"/></g><g id="_grupa_10" data-name="&lt;grupa&gt;" class="cls-16"><path class="cls-17" d="M667.63,234l-14.56,13.25c-1.92,4.67-6.8,7.59-11.77,8.52s-10.07.19-15.06-.54c-6.35-.94-13.45-2.34-17-7.69-3.27-4.94-2.27-11.45-1.14-17.27,1.24-6.4,2.79-13.35,7.86-17.45,6.85-5.54,18.49-4.46,22.92-12.07,2.58-4.43,1.46-10,2.05-15.1s5-10.84,9.79-9c2,.75,3.36,2.63,4.34,4.54,3.18,6.2,3.61,13.39,4.49,20.3A143.7,143.7,0,0,0,667.63,234Z"/></g><g id="_grupa_11" data-name="&lt;grupa&gt;"><rect id="_Prostokąt_3" data-name="&lt;Prostokąt&gt;" class="cls-18" x="397.13" y="224.72" width="370.77" height="161.95" rx="5.32" ry="5.32" transform="translate(1165.03 611.39) rotate(180)"/><rect id="_Prostokąt_4" data-name="&lt;Prostokąt&gt;" class="cls-19" x="723.57" y="245.48" width="11.86" height="120.42" transform="translate(1459 611.39) rotate(180)"/><rect id="_Prostokąt_5" data-name="&lt;Prostokąt&gt;" class="cls-19" x="702.42" y="245.48" width="11.86" height="120.42" transform="translate(1416.7 611.39) rotate(180)"/><rect id="_Prostokąt_6" data-name="&lt;Prostokąt&gt;" class="cls-19" x="660.12" y="245.48" width="11.86" height="120.42" transform="translate(1332.1 611.39) rotate(180)"/><rect id="_Prostokąt_7" data-name="&lt;Prostokąt&gt;" class="cls-19" x="638.96" y="245.48" width="11.86" height="120.42" transform="translate(1289.79 611.39) rotate(180)"/><rect id="_Prostokąt_8" data-name="&lt;Prostokąt&gt;" class="cls-19" x="617.81" y="245.48" width="11.86" height="120.42" transform="translate(1247.49 611.39) rotate(180)"/><rect id="_Prostokąt_9" data-name="&lt;Prostokąt&gt;" class="cls-19" x="596.66" y="245.48" width="11.86" height="120.42" transform="translate(1205.19 611.39) rotate(180)"/><rect id="_Prostokąt_10" data-name="&lt;Prostokąt&gt;" class="cls-19" x="575.51" y="245.48" width="11.87" height="120.42" transform="translate(1162.89 611.39) rotate(180)"/><rect id="_Prostokąt_11" data-name="&lt;Prostokąt&gt;" class="cls-19" x="554.36" y="245.48" width="11.86" height="120.42" transform="translate(1120.59 611.39) rotate(180)"/><rect id="_Prostokąt_12" data-name="&lt;Prostokąt&gt;" class="cls-19" x="533.21" y="245.48" width="11.86" height="120.42" transform="translate(1078.29 611.39) rotate(180)"/><rect id="_Prostokąt_13" data-name="&lt;Prostokąt&gt;" class="cls-19" x="512.06" y="245.48" width="11.86" height="120.42" transform="translate(1035.99 611.39) rotate(180)"/><rect id="_Prostokąt_14" data-name="&lt;Prostokąt&gt;" class="cls-8" x="723.57" y="335.8" width="11.86" height="30.11" transform="translate(1459 701.71) rotate(180)"/><rect id="_Prostokąt_15" data-name="&lt;Prostokąt&gt;" class="cls-8" x="702.42" y="305.7" width="11.86" height="60.21" transform="translate(1416.7 671.6) rotate(180)"/><rect id="_Prostokąt_16" data-name="&lt;Prostokąt&gt;" class="cls-8" x="660.12" y="267.45" width="11.86" height="98.46" transform="translate(1332.1 633.35) rotate(180)"/><rect id="_Prostokąt_17" data-name="&lt;Prostokąt&gt;" class="cls-8" x="638.96" y="287.6" width="11.86" height="78.31" transform="translate(1289.79 653.51) rotate(180)"/><rect id="_Prostokąt_18" data-name="&lt;Prostokąt&gt;" class="cls-8" x="617.81" y="338.62" width="11.86" height="27.29" transform="translate(1247.49 704.53) rotate(180)"/><rect id="_Prostokąt_19" data-name="&lt;Prostokąt&gt;" class="cls-8" x="596.66" y="287.6" width="11.86" height="78.31" transform="translate(1205.19 653.51) rotate(180)"/><rect id="_Prostokąt_20" data-name="&lt;Prostokąt&gt;" class="cls-8" x="575.51" y="329.72" width="11.87" height="36.19" transform="translate(1162.89 695.63) rotate(180)"/><rect id="_Prostokąt_21" data-name="&lt;Prostokąt&gt;" class="cls-8" x="554.36" y="305.7" width="11.86" height="60.21" transform="translate(1120.59 671.6) rotate(180)"/><rect id="_Prostokąt_22" data-name="&lt;Prostokąt&gt;" class="cls-8" x="533.21" y="282.86" width="11.86" height="83.05" transform="translate(1078.29 648.76) rotate(180)"/><rect id="_Prostokąt_23" data-name="&lt;Prostokąt&gt;" class="cls-8" x="512.06" y="271.58" width="11.86" height="94.32" transform="translate(1035.99 637.49) rotate(180)"/><rect id="_Prostokąt_24" data-name="&lt;Prostokąt&gt;" class="cls-20" x="420.86" y="252.01" width="77.12" height="11.86" transform="translate(918.84 515.88) rotate(180)"/><rect id="_Prostokąt_25" data-name="&lt;Prostokąt&gt;" class="cls-21" x="420.86" y="285.23" width="77.12" height="5.93" transform="translate(918.84 576.39) rotate(180)"/><rect id="_Prostokąt_26" data-name="&lt;Prostokąt&gt;" class="cls-21" x="420.86" y="299.76" width="77.12" height="5.93" transform="translate(918.84 605.46) rotate(180)"/><rect id="_Prostokąt_27" data-name="&lt;Prostokąt&gt;" class="cls-21" x="420.86" y="314.3" width="77.12" height="5.93" transform="translate(918.84 634.53) rotate(180)"/><rect id="_Prostokąt_28" data-name="&lt;Prostokąt&gt;" class="cls-21" x="420.86" y="328.83" width="38.56" height="5.93" transform="translate(880.28 663.6) rotate(180)"/></g><path id="_ścieżka_14" data-name="&lt;ścieżka&gt;" class="cls-1" d="M591.77,226.72l-.64-6.64a7.69,7.69,0,0,0-8-6.78h0L581.68,216l-27.44-.46a5.83,5.83,0,0,0-5.76,7.22l1.26,5.12a5.83,5.83,0,0,0,5.67,4.44h2.25a7.8,7.8,0,0,0,7.8,7.86h10.21a7.8,7.8,0,0,0,7.8-7.8v-6.29Z"/><path id="_ścieżka_15" data-name="&lt;ścieżka&gt;" class="cls-11" d="M640.95,94l5.32,2.77,9.12,15.42,16.06,7.23a44.76,44.76,0,0,1,25.11,30.22l10.25,42.07a228.59,228.59,0,0,1,3.89,88.5L696,349.89H671.2l-1.83-103.71c-.1-5.47-5.4-36.49-5.4-36.49Z"/><path id="_ścieżka_16" data-name="&lt;ścieżka&gt;" class="cls-1" d="M694.54,349.89l2.77,38.36h0a11,11,0,0,1-8,8.43l-1.06.27-22,1.55a10.34,10.34,0,0,1-9.43-4.73l-1.62-2.52a13.75,13.75,0,0,1-2.18-7.43v-4.73a19.41,19.41,0,0,1,6.41-14.41l13.76-12.41v-2.37Z"/><g id="_grupa_12" data-name="&lt;grupa&gt;" class="cls-2"><path class="cls-22" d="M710.68,280.23a228.59,228.59,0,0,0-3.89-88.5l-10.25-42.07a44.77,44.77,0,0,0-25.11-30.22l-16.06-7.23-9-15.18c1.49,10.52,4.23,20.71,10.05,29.49C662.76,136,672.17,143,679,152.18c12.32,16.64,14.71,38.39,16.68,59,3,31.82,6,64.27-.94,95.46-2.59,11.55-6.53,22.84-7.68,34.62a60,60,0,0,0-.21,8.63H696Z"/></g><g id="_grupa_13" data-name="&lt;grupa&gt;" class="cls-2"><path class="cls-3" d="M687.07,349.89c.48,5.38,1.86,10.75,1.09,16.09-.57,4-2.29,7.66-2.88,11.61-1,6.62,1.3,13,4.81,18.81a11,11,0,0,0,7.22-8.16l-2.77-38.36Z"/></g><g id="_grupa_14" data-name="&lt;grupa&gt;"><path class="cls-23" d="M591.18,220.65l-.05-.57a7.69,7.69,0,0,0-8-6.78L581.68,216l-27.44-.46a5.75,5.75,0,0,0-4.16,1.7,11,11,0,0,0,2.49,1.47c3.33,1.39,7.09,1.32,10.68.92s7.17-1.12,10.78-.93C579.79,219,585.68,221.49,591.18,220.65Z"/></g></g><g class="cls-24"><ellipse id="_ścieżka_17" data-name="&lt;ścieżka&gt;" class="cls-25" cx="564.03" cy="679.11" rx="252.15" ry="39.69"/><ellipse class="cls-26" cx="564.03" cy="679.11" rx="246.5" ry="38.8"/><ellipse class="cls-27" cx="564.03" cy="679.11" rx="240.85" ry="37.91"/><ellipse class="cls-28" cx="564.03" cy="679.11" rx="235.2" ry="37.02"/><ellipse class="cls-29" cx="564.03" cy="679.11" rx="229.55" ry="36.13"/><ellipse class="cls-30" cx="564.03" cy="679.11" rx="223.9" ry="35.24"/><ellipse class="cls-31" cx="564.03" cy="679.11" rx="218.25" ry="34.35"/><ellipse class="cls-32" cx="564.03" cy="679.11" rx="212.6" ry="33.46"/><ellipse class="cls-33" cx="564.03" cy="679.11" rx="206.95" ry="32.57"/><ellipse class="cls-34" cx="564.03" cy="679.11" rx="201.3" ry="31.68"/><ellipse class="cls-35" cx="564.03" cy="679.11" rx="195.65" ry="30.79"/><ellipse class="cls-36" cx="564.03" cy="679.11" rx="190" ry="29.91"/><ellipse class="cls-37" cx="564.03" cy="679.11" rx="184.35" ry="29.02"/><ellipse class="cls-38" cx="564.03" cy="679.11" rx="178.7" ry="28.13"/><ellipse class="cls-39" cx="564.03" cy="679.11" rx="173.05" ry="27.24"/><ellipse class="cls-40" cx="564.03" cy="679.11" rx="167.41" ry="26.35"/><ellipse class="cls-41" cx="564.03" cy="679.11" rx="161.76" ry="25.46"/><ellipse class="cls-42" cx="564.03" cy="679.11" rx="156.11" ry="24.57"/><ellipse class="cls-43" cx="564.03" cy="679.11" rx="150.46" ry="23.68"/><ellipse class="cls-44" cx="564.03" cy="679.11" rx="144.81" ry="22.79"/><ellipse class="cls-45" cx="564.03" cy="679.11" rx="139.16" ry="21.9"/><ellipse class="cls-46" cx="564.03" cy="679.11" rx="133.51" ry="21.01"/><ellipse class="cls-47" cx="564.03" cy="679.11" rx="127.86" ry="20.12"/><ellipse class="cls-48" cx="564.03" cy="679.11" rx="122.21" ry="19.24"/><ellipse class="cls-49" cx="564.03" cy="679.11" rx="116.56" ry="18.35"/><ellipse class="cls-50" cx="564.03" cy="679.11" rx="110.91" ry="17.46"/><ellipse class="cls-51" cx="564.03" cy="679.11" rx="105.26" ry="16.57"/><ellipse class="cls-52" cx="564.03" cy="679.11" rx="99.61" ry="15.68"/><ellipse class="cls-53" cx="564.03" cy="679.11" rx="93.96" ry="14.79"/><ellipse class="cls-54" cx="564.03" cy="679.11" rx="88.31" ry="13.9"/><ellipse class="cls-55" cx="564.03" cy="679.11" rx="82.66" ry="13.01"/><ellipse class="cls-56" cx="564.03" cy="679.11" rx="77.01" ry="12.12"/><ellipse class="cls-57" cx="564.03" cy="679.11" rx="71.37" ry="11.23"/><ellipse class="cls-58" cx="564.03" cy="679.11" rx="65.72" ry="10.34"/><ellipse class="cls-59" cx="564.03" cy="679.11" rx="60.07" ry="9.45"/><ellipse class="cls-60" cx="564.03" cy="679.11" rx="54.42" ry="8.56"/><ellipse class="cls-61" cx="564.03" cy="679.11" rx="48.77" ry="7.68"/><ellipse class="cls-62" cx="564.03" cy="679.11" rx="43.12" ry="6.79"/><ellipse class="cls-63" cx="564.03" cy="679.11" rx="37.47" ry="5.9"/><ellipse class="cls-64" cx="564.03" cy="679.11" rx="31.82" ry="5.01"/><ellipse class="cls-65" cx="564.03" cy="679.11" rx="26.17" ry="4.12"/><ellipse id="_ścieżka_18" data-name="&lt;ścieżka&gt;" class="cls-8" cx="564.03" cy="679.11" rx="20.52" ry="3.23"/></g><path class="cls-66" d="M356.1,158.18H169.87a3.72,3.72,0,0,1-3.77-4.39l13.21-93.43a5.23,5.23,0,0,1,5-4.39H370.56a3.72,3.72,0,0,1,3.77,4.39l-13.21,93.43A5.23,5.23,0,0,1,356.1,158.18Z"/><path class="cls-21" d="M371.19,56s0,.09,0,.13L358,149.6a5.23,5.23,0,0,1-5,4.39H166.72a4.19,4.19,0,0,1-.63-.06,3.71,3.71,0,0,0,3.77,4.26H356.1a5.23,5.23,0,0,0,5-4.39l13.21-93.43A3.7,3.7,0,0,0,371.19,56Z"/><polygon class="cls-19" points="199.05 70 187.71 70 188.53 64.24 199.86 64.24 199.05 70"/><polygon class="cls-21" points="359.39 79.21 272.27 79.21 273.08 73.46 360.2 73.46 359.39 79.21"/><polygon class="cls-21" points="357.1 95.44 269.98 95.44 270.79 89.69 357.91 89.69 357.1 95.44"/><polygon class="cls-21" points="354.8 111.67 267.68 111.67 268.5 105.91 355.62 105.91 354.8 111.67"/><polygon class="cls-21" points="315.3 127.89 265.39 127.89 266.2 122.14 316.12 122.14 315.3 127.89"/><polygon class="cls-19" points="196.8 85.88 185.47 85.88 186.28 80.13 197.62 80.13 196.8 85.88"/><polygon class="cls-19" points="194.56 101.77 183.22 101.77 184.03 96.02 195.37 96.02 194.56 101.77"/><polygon class="cls-19" points="192.31 117.66 180.97 117.66 181.78 111.91 193.12 111.91 192.31 117.66"/><polygon class="cls-19" points="190.06 133.55 178.72 133.55 179.54 127.79 190.88 127.79 190.06 133.55"/><polygon class="cls-19" points="187.81 149.43 176.48 149.43 177.29 143.68 188.63 143.68 187.81 149.43"/><g id="_grupa_15" data-name="&lt;grupa&gt;"><path id="_ścieżka_19" data-name="&lt;ścieżka&gt;" class="cls-11" d="M236.67,74.71,232.9,101.4h0l16.16,18.88a31.19,31.19,0,0,0,10.5-18.82v-.08C261.67,86.66,251.41,74.71,236.67,74.71Z"/><path id="_ścieżka_20" data-name="&lt;ścieżka&gt;" class="cls-67" d="M215.43,82.5a31.19,31.19,0,0,0-10.51,18.84l26.67.06h0l3.77-26.69A30.6,30.6,0,0,0,215.43,82.5Z"/><path id="_ścieżka_21" data-name="&lt;ścieżka&gt;" class="cls-8" d="M231.43,102.71h0l-26.67-.06v.05c-2.08,14.74,8.17,26.69,22.91,26.69a30.6,30.6,0,0,0,19.94-7.79Z"/></g><g id="_grupa_16" data-name="&lt;grupa&gt;"><g id="_grupa_17" data-name="&lt;grupa&gt;"><path id="_ścieżka_złożona_" data-name="&lt;ścieżka złożona&gt;" class="cls-1" d="M136.11,278.72l15.06,9,2.56-1.7a1.13,1.13,0,0,0,.35-1.52l-11.55-9.21c-2.6-1.49-4.57-3-7.09-3.46l-6.49-1.75,2.94-.84c3.46-1,5.79-3.74,5-5.93l-.18-.51-21,4.67c-4.35.07-12,0-16.75-1.18-19.66-4.89-48.83-24.85-64.72-30.85l24.09-57.23a17,17,0,0,0-13.07-23.1h0a17,17,0,0,0-19,11.68l-25.88,82a8,8,0,0,0,5.74,10.17L92.92,281.3l6.67,3.91a25.32,25.32,0,0,0,9,3.19l-.08.09L121,292.61l.2.37A4.74,4.74,0,0,0,127.1,295l1-.34-3.69-5.92,4.94,4.15c2.53,2.13,6,2.27,7.39.3l.33-.46L127,283.08l11.12,7.75c2.72,1.89,6.15,1.73,7.39-.36l.29-.49-14.19-11.39a1.34,1.34,0,0,1,.64-.2Zm-14,8.6.29-.21,1.2,1Z"/><g id="_grupa_18" data-name="&lt;grupa&gt;" class="cls-2"><path class="cls-3" d="M121.07,293.11l.3.24c1,.78,1.15,2.07,2.8,1.57a1.88,1.88,0,0,0,.85-3.1,6.76,6.76,0,0,0-2.34-1.75c-11.52-6.34-22.52-12.62-35.07-17-5.57-1.93-11.39-3-17.15-4.16-5.58-1.17-9.95-4.13-15.09-6.6a98,98,0,0,0-29.14-8.72c-4.5-.61-8.13-2.45-12.88-2.11a21.66,21.66,0,0,0,.74-6.33C13.5,237.69,21,229.82,25,224A43.08,43.08,0,0,0,30,214.67a13.47,13.47,0,0,1,2.17-4.12c.84-1.13,2.07-2.6,1.63-4.13-.67-2.32-5.39-5-7.28-6.36a61.36,61.36,0,0,0-9.07-5.43L.37,248.77a8,8,0,0,0,5.74,10.17L92.92,281.3l6.67,3.91a25.33,25.33,0,0,0,9,3.19l-.08.09c.46-.51,8.68,2.87,9.59,3.18A8.77,8.77,0,0,1,121.07,293.11Z"/></g><path id="_ścieżka_złożona_2" data-name="&lt;ścieżka złożona&gt;" class="cls-68" d="M36.84,227.53l21-49.81a17.42,17.42,0,0,0-13.37-23.64h0A17.42,17.42,0,0,0,25,166L7.53,221.38Z"/></g><path id="_ścieżka_22" data-name="&lt;ścieżka&gt;" class="cls-1" d="M66.66,610.62s-5.35,30,9.41,51.27v21.27H35l-.29-20.27s10.59-23,2.86-58.44Z"/><path id="_ścieżka_23" data-name="&lt;ścieżka&gt;" class="cls-69" d="M66.66,610.62s-5.35,30,9.41,51.27v21.27H35l-.29-20.27s10.59-23,2.86-58.44Z"/><path id="_ścieżka_24" data-name="&lt;ścieżka&gt;" class="cls-70" d="M34.74,662.89s19,30.3,41.33-1c0,0,21,20.5,45.66,24.34a7.35,7.35,0,0,1,6.23,7.26h0a4.92,4.92,0,0,1-4.92,4.92H31.43v-36.1Z"/><path id="_ścieżka_25" data-name="&lt;ścieżka&gt;" class="cls-5" d="M123,693.78H31.43v4.64H123a4.92,4.92,0,0,0,4.92-4.92,7.33,7.33,0,0,0-.47-2.58A4.91,4.91,0,0,1,123,693.78Z"/><path id="_ścieżka_26" data-name="&lt;ścieżka&gt;" class="cls-1" d="M86,610.62s-5.35,30,9.41,51.27v21.27h-41l-.29-20.27s10.59-23,2.86-58.44Z"/><g id="_grupa_19" data-name="&lt;grupa&gt;" class="cls-2"><path class="cls-3" d="M86,610.62l-11-2.33c-.15,8.31-.43,16.65-2.21,24.76C71.69,638,70,642.8,69.54,647.82c-1.56,15.4,9.28,31,24.06,35.34h1.79V661.89C80.63,640.62,86,610.62,86,610.62Z"/></g><path id="_ścieżka_27" data-name="&lt;ścieżka&gt;" class="cls-71" d="M31.6,315.2s-17.89,26.58.83,56a53.48,53.48,0,0,1,8.26,28.34c.22,30.12,1,89.05,4.22,97.31,0,0-9,20.64-9.82,49.92-.56,20.36.16,43.44-1.61,69.41h36.2L83.53,511.47s39.49-139.93,28.33-182Z"/><path id="_ścieżka_28" data-name="&lt;ścieżka&gt;" class="cls-72" d="M45.33,315.2s-12.31,26.58,6.41,56A53.48,53.48,0,0,1,60,399.57c.21,30.12,1,89.05,4.22,97.31,0,0-9,20.64-9.82,49.92-.56,20.36.16,43.44-1.61,69.41H89l13.86-104.73s39.49-139.93,28.33-182Z"/><g id="_grupa_20" data-name="&lt;grupa&gt;" class="cls-7"><path class="cls-8" d="M102.85,511.47s39.49-139.93,28.33-182L80.82,321.1,70.5,325.8,53.2,336.28C55.26,352.16,71,361.84,82,373.47A74.55,74.55,0,0,1,101.61,433c-1.24,10.07-4.55,19.75-7,29.59-2.93,11.61-4.71,23.47-6.49,35.3l-7.67,51c-2,13.27-4,26.56-5,39.94-.69,9.12-.89,18.44,1.09,27.33H89Z"/></g><path id="_ścieżka_29" data-name="&lt;ścieżka&gt;" class="cls-73" d="M25.76,344.65a8.82,8.82,0,0,1-4-12c4.25-8.14,10.56-21.88,13.43-36.45a86.67,86.67,0,0,0-5.92-51.6c-8.31-18.92-18.51-52.72-5.74-86.42A36.15,36.15,0,0,1,57.38,135H75.15a35.9,35.9,0,0,1,33.06,21.9c6,14.17,13.94,31.3,20,38.62a15,15,0,0,1,3.45,7.87c.76,6.88.54,18.37-8.61,21.32,0,0-1.57,51.59-.91,56.26,2,14.15,6.26,40.54,12.05,53.8a6.84,6.84,0,0,1-3.33,8.84C115.18,351.3,72.56,367.38,25.76,344.65Z"/><g id="_grupa_21" data-name="&lt;grupa&gt;" class="cls-24"><path class="cls-11" d="M127.07,194.13l-.45-.64c-.23-.32-.45-.63-.69-1l-.62-.94-.54-.84c-.25-.39-.5-.81-.75-1.22l-.42-.69c-.29-.48-.57-1-.86-1.48l-.32-.55c-.32-.56-.64-1.14-1-1.73l-.21-.39q-.54-1-1.07-2l-.1-.19q-.58-1.1-1.16-2.24v0a138.82,138.82,0,0,1,0,20c-.69,9.49-4.83,11.67-9.34,18.67S101.78,231,92,230.38c-2.95-.18-6.74-.45-8,2.23s1.59,5.57,4.25,7c2.86,1.56,5.91,2.81,8.61,4.64s5.11,4.36,5.91,7.52c1.82,7.12-7.77,19.37-9.9,26.21A114.9,114.9,0,0,0,88,310.3c-.07,5,.19,10.12-.28,15.13-.11,1.2-.27,2.39-.48,3.58-1.67,9.35-6.79,18.22-8.9,27.3a127.65,127.65,0,0,0,52.49-12.66,6.84,6.84,0,0,0,3.33-8.84c-5.79-13.26-10.07-39.65-12.05-53.8-.39-2.81,0-22.56.4-37.88-.15-6,.31-12,.51-18.39,9.16-3,9.37-14.44,8.61-21.32a14,14,0,0,0-1.15-4.18,16.22,16.22,0,0,0-2.31-3.69C127.82,195.12,127.44,194.64,127.07,194.13Z"/></g><path id="_ścieżka_30" data-name="&lt;ścieżka&gt;" class="cls-1" d="M91.69,50.49c1.65.76,8.15,1.72,12.45,19.31V74a6.67,6.67,0,0,0,.9,3.35l6.88,11.86a1.68,1.68,0,0,1-.86,2.41l-2.72,1-.9,13.1a12.33,12.33,0,0,1-11.74,11.45c-13.18.64-33.61-.06-34.48-10.49L47.48,65.51S52.63,32.46,91.69,50.49Z"/><path id="_ścieżka_31" data-name="&lt;ścieżka&gt;" class="cls-1" d="M96.84,111.87s-16.89,4.29-17,37.34H59.93S57.78,96.42,54.78,87.4Z"/><g id="_grupa_22" data-name="&lt;grupa&gt;" class="cls-2"><path class="cls-3" d="M90,117.37c-1.35-8.64-5.52-16.72-3.11-25.53C89,84,95.66,78.51,101.33,72.76a33.31,33.31,0,0,0,2.74-3.18C99.78,52.21,93.33,51.25,91.69,50.49c-9.19-4.24-16.48-5.63-22.28-5.32a87.08,87.08,0,0,0-10.74,3.18c-9.39,5.75-11.18,17.16-11.18,17.16l13.73,41.21C62,115.73,77.31,117.48,90,117.37Z"/></g><path id="_ścieżka_złożona_3" data-name="&lt;ścieżka złożona&gt;" class="cls-1" d="M230.35,144.74l15.84-7.54v-3.07a1.13,1.13,0,0,0-1.08-1.13L231,137.5c-2.68,1.34-5,2.16-6.81,4l-5.06,4.43.93-2.91c1.1-3.43.09-6.89-2.16-7.46l-.53-.13-7.76,20.08c-2.35,3.66-6.68,10-10.27,13.29-15,13.65-47.76,26.86-61.55,36.76l-34.28-51.78a17,17,0,0,0-26.47-1.93h0a17,17,0,0,0-.81,22.28l53.9,67a8,8,0,0,0,11.64.86l66.74-59.85,6.95-3.38a25.32,25.32,0,0,0,7.65-5.73l0,.11L233.52,165l.42,0a4.74,4.74,0,0,0,5-3.79l.27-1-7-.21,6.2-1.81c3.18-.93,5.2-3.71,4.35-6l-.2-.53-13.64,3,12.62-5c3.08-1.21,4.84-4.16,3.8-6.35l-.25-.51-17.35,5.49a1.34,1.34,0,0,1,.19-.64Zm-.6,16.4c0-.11,0-.23,0-.36l1.5-.44Z"/><g id="_grupa_23" data-name="&lt;grupa&gt;" class="cls-2"><path class="cls-3" d="M234,165.23l.37-.12c1.19-.38,2.36.19,2.86-1.47a1.88,1.88,0,0,0-2.11-2.43,6.76,6.76,0,0,0-2.76,1c-11.66,6.08-23,11.75-33.55,19.78-4.69,3.57-8.77,7.84-13,12s-9,6-13.86,8.9a98,98,0,0,0-23.42,19.41c-3,3.41-6.55,5.41-8.89,9.55a21.65,21.65,0,0,0-4.86-4.13c-6.57-3.64-9-14.26-11.62-20.78a43.1,43.1,0,0,0-4.95-9.37,13.48,13.48,0,0,1-2.22-4.09c-.47-1.33-1-3.16-2.53-3.64-2.3-.73-7.15,1.72-9.33,2.54a61.38,61.38,0,0,0-9.55,4.54l35.58,44.23a8,8,0,0,0,11.64.86l66.74-59.85,6.95-3.38a25.33,25.33,0,0,0,7.65-5.73l0,.11c-.17-.67,7.2-5.63,8-6.22A8.75,8.75,0,0,1,234,165.23Z"/></g><path id="_ścieżka_32" data-name="&lt;ścieżka&gt;" class="cls-74" d="M103.2,152.65a17.64,17.64,0,1,0-28.26,21.08L112,222.63l25.44-21Z"/><g id="_grupa_24" data-name="&lt;grupa&gt;" class="cls-24"><path class="cls-11" d="M125.09,211.81c-.81-1.47-1.53-3-2.24-4.5-3.15-6.7-6.32-13.14-10.78-19.08a77.69,77.69,0,0,0-7.26-8L79.65,155l-6.49-.54a17.59,17.59,0,0,0,1.78,19.29L112,222.63Z"/></g><g id="_grupa_25" data-name="&lt;grupa&gt;"><path class="cls-75" d="M108.88,56.07c-.09-3.8-1.94-7.52-6.4-10.64-6.1-4.27-14.07-4.64-21.51-4.24C66.62,42,52,45.25,40.26,53.6c-12.77,9.11-20.8,24.31-17.78,40,2.08,10.79.19,21.82-1,32.74q-2,18.71-5.1,37.28c-1.06,6.45-2.27,13-5.43,18.73,1.48-2.67,5.69-3.42,8.38-3.94a61.46,61.46,0,0,1,6.41-.83c2.68-.23,4.1.38,4.56-2.61l1-6.56q.06,2.28.12,4.56c0,1.05,0,2.59.72,3.47,1,1.24,2.33.76,3.83.76,2.66,0,5.32.05,8,.23,4.27.28,9,1.91,11.51-2.73,2.22,5,11,6.69,15.84,6.28a48.23,48.23,0,0,0,0-22.85L75.59,174c.67,2.45,1.4,6.55,3.45,8.29,1.87,1.59,6.38,2,8.79,2.46,6,1.26,12.67,1.74,18.2-1.53-10.61-8-15.9-21.38-18-34.52-1.76-10.8-1.69-21.76-2.51-32.64-.66-8.8-4.31-17.23-1.22-25.91C87,82.48,94,77.47,100.11,72.15,105.11,67.79,109,61.83,108.88,56.07Z"/></g><g id="_grupa_26" data-name="&lt;grupa&gt;"><g id="_grupa_27" data-name="&lt;grupa&gt;" class="cls-24"><path id="_ścieżka_33" data-name="&lt;ścieżka&gt;" class="cls-76" d="M69.9,44.36l-1,.32c-.65.22-1.63.48-2.83.95s-2.65,1-4.29,1.71S58.36,49,56.43,50a60.41,60.41,0,0,0-6,3.79,57.23,57.23,0,0,0-6,5A48.86,48.86,0,0,0,39,65.12a44.24,44.24,0,0,0-4.27,7.46,47.71,47.71,0,0,0-2.76,8.19,61.33,61.33,0,0,0-1.29,8.29,99.92,99.92,0,0,0,0,14.95c.33,4.38.68,8,1,10.58l.46,4-.68-4c-.41-2.54-1-6.16-1.49-10.55A90,90,0,0,1,29.51,89a62.46,62.46,0,0,1,1.23-8.47,48.69,48.69,0,0,1,2.75-8.41A45.08,45.08,0,0,1,43.68,58a55.44,55.44,0,0,1,12.41-8.64c2-1,3.84-1.8,5.52-2.45s3.16-1.13,4.4-1.49C68.47,44.68,69.9,44.36,69.9,44.36Z"/></g><g id="_grupa_28" data-name="&lt;grupa&gt;" class="cls-24"><path id="_ścieżka_34" data-name="&lt;ścieżka&gt;" class="cls-77" d="M76.2,49.66,75,50.42c-.78.47-1.86,1.25-3.23,2.24a60.77,60.77,0,0,0-4.65,3.93,66.74,66.74,0,0,0-5.42,5.73A70.35,70.35,0,0,0,51.4,79a83.29,83.29,0,0,0-6.21,21.64A113.57,113.57,0,0,0,44,123.2c.33,7.22,1,14,1.12,19.81A62.6,62.6,0,0,1,44,157c-.36,1.66-.69,3-1,3.81l-.41,1.33.36-1.34c.25-.87.53-2.17.81-3.84A67.8,67.8,0,0,0,44.38,143c-.21-5.79-1.13-12.5-1.51-19.78a114.39,114.39,0,0,1,1-22.8,84.52,84.52,0,0,1,6.46-21.9A68.17,68.17,0,0,1,61.19,61.84a58.56,58.56,0,0,1,10.49-9.36c1.42-.94,2.53-1.67,3.32-2.11Z"/></g><g id="_grupa_29" data-name="&lt;grupa&gt;" class="cls-24"><path id="_ścieżka_35" data-name="&lt;ścieżka&gt;" class="cls-78" d="M90.33,51.49a33.54,33.54,0,0,0-4.77,1.91,32.32,32.32,0,0,0-5,3,30.72,30.72,0,0,0-5.47,5.23C71.5,65.92,68.77,72,67.38,78.78s-1.48,14.3-.91,21.74,1.41,14.9,1.62,22a66.94,66.94,0,0,1-1.92,19.16A38.34,38.34,0,0,1,60.59,154a28.54,28.54,0,0,1-2.36,3l-.9,1,.86-1a28.38,28.38,0,0,0,2.22-3.07,40.06,40.06,0,0,0,5.06-12.44A69.4,69.4,0,0,0,67,122.51c-.27-7-1.23-14.41-1.79-21.9s-.46-15.11,1.1-22.06A39.56,39.56,0,0,1,74.5,61.17a29.51,29.51,0,0,1,11-8A33.58,33.58,0,0,1,90.33,51.49Z"/></g><g id="_grupa_30" data-name="&lt;grupa&gt;" class="cls-24"><path id="_ścieżka_36" data-name="&lt;ścieżka&gt;" class="cls-79" d="M97.12,58.08l-1.23.42a22.19,22.19,0,0,0-3.35,1.45,30.1,30.1,0,0,0-9.77,8.38A41.44,41.44,0,0,0,75.2,84.81a79.88,79.88,0,0,0-1.46,20.91c.27,7.18.85,14.38,1.26,21.13l.59,9.73c.19,3.09.35,6,.28,8.76-.09,5.45-1.42,10-3.26,12.61a12.61,12.61,0,0,1-2.44,2.74l-1,.78,1-.83a12.46,12.46,0,0,0,2.3-2.81,16.79,16.79,0,0,0,2-5.23,35.64,35.64,0,0,0,.7-7.27c0-5.36-.84-11.67-1.25-18.41S72.78,113,72.46,105.77a81,81,0,0,1,1.66-21.23,41.12,41.12,0,0,1,8.1-16.66,29.26,29.26,0,0,1,10.24-8.12,22.39,22.39,0,0,1,3.43-1.31Z"/></g><g id="_grupa_31" data-name="&lt;grupa&gt;" class="cls-24"><path id="_ścieżka_37" data-name="&lt;ścieżka&gt;" class="cls-80" d="M52.51,59.51a11,11,0,0,0-1,.66,14,14,0,0,0-2.55,2.32A21.9,21.9,0,0,0,46,67a48,48,0,0,0-2.6,6.47,75.48,75.48,0,0,0-2.29,7.91c-.52,2.88-1.15,5.9-1.48,9.08s-.62,6.47-.82,9.82-.21,6.77-.21,10.19c0,6.84,0,13.69-.06,20.13,0,3.22-.18,6.33-.4,9.27s-.52,5.72-.84,8.28S36.59,153,36,155s-.83,3.83-1.35,5.24l-1.45,4.49,1.24-4.54c.46-1.43.68-3.24,1.1-5.28s.62-4.39,1-6.91.5-5.31.62-8.24.19-6,.22-9.23c.05-6.41-.11-13.26-.11-20.12,0-3.43.12-6.86.3-10.24s.42-6.71.91-9.9a92.89,92.89,0,0,1,1.67-9.15,76.61,76.61,0,0,1,2.53-7.95l1.35-3.45c.49-1.07,1-2.07,1.51-3a22.2,22.2,0,0,1,3.19-4.4,14.11,14.11,0,0,1,2.68-2.23A11,11,0,0,1,52.51,59.51Z"/></g><g id="_grupa_32" data-name="&lt;grupa&gt;" class="cls-24"><path id="_ścieżka_38" data-name="&lt;ścieżka&gt;" class="cls-81" d="M25,98l.21,3.16c.12,2,.32,4.88.36,8.34s.05,7.49-.12,11.8-.52,8.91-1,13.5-1.15,9.15-1.85,13.41-1.55,8.21-2.32,11.57-1.54,6.14-2.07,8.08l-.86,3s1-4.5,2.22-11.28c.67-3.38,1.25-7.36,1.92-11.6s1.21-8.81,1.67-13.37.87-9.13,1.12-13.43.46-8.31.51-11.75C25,102.62,25,98,25,98Z"/></g><g id="_grupa_33" data-name="&lt;grupa&gt;" class="cls-24"><path id="_ścieżka_39" data-name="&lt;ścieżka&gt;" class="cls-82" d="M33,121.14s-.08,3.1-.57,7.74c-.26,2.31-.58,5-1.06,7.88s-1.08,5.92-1.73,9-1.51,6-2.3,8.83-1.69,5.37-2.45,7.57c-1.56,4.39-2.83,7.22-2.83,7.22l2.14-7.44c.66-2.22,1.31-4.85,2.07-7.64s1.46-5.8,2.13-8.82,1.35-6,1.89-8.87,1.08-5.5,1.44-7.79Z"/></g><g id="_grupa_34" data-name="&lt;grupa&gt;" class="cls-24"><path id="_ścieżka_40" data-name="&lt;ścieżka&gt;" class="cls-83" d="M64.24,68.72l-.74.93a24.48,24.48,0,0,0-1.83,2.8,38.09,38.09,0,0,0-3.89,11.19Q57,87.27,56.6,91.51c-.36,2.82-.57,5.78-.84,8.86-.47,6.16-.67,12.75-.83,19.35s-.42,13.21-.84,19.4c-.18,3.1-.48,6.08-.82,8.91s-.74,5.49-1.15,7.93a103.47,103.47,0,0,1-2.77,11.66l-1.4,4.32,1.2-4.38c.71-2.8,1.53-6.84,2.26-11.72.35-2.44.69-5.1.93-7.92s.47-5.79.64-8.88c.36-6.17.5-12.76.67-19.36s.47-13.21,1-19.4a131,131,0,0,1,2.43-16.79,36.12,36.12,0,0,1,4.41-11.15,24.52,24.52,0,0,1,2-2.72Z"/></g><g id="_grupa_35" data-name="&lt;grupa&gt;" class="cls-24"><path id="_ścieżka_41" data-name="&lt;ścieżka&gt;" class="cls-84" d="M94.53,65.75l-1,.87A30.32,30.32,0,0,0,91,69.23,40.72,40.72,0,0,0,84,80.29a56.27,56.27,0,0,0-4.31,17.89,108.58,108.58,0,0,0,.62,21.19c.77,7.21,1.76,14.42,2.59,21.19l2.22,18.5a63.71,63.71,0,0,1,.61,13.18,29.19,29.19,0,0,1-.54,3.66l-.31,1.27.25-1.28a29.11,29.11,0,0,0,.38-3.66,70.09,70.09,0,0,0-1.12-13.08l-2.6-18.45c-.88-6.76-1.94-13.95-2.77-21.19a109.7,109.7,0,0,1-.45-21.44,55.73,55.73,0,0,1,1.74-9.74,51.76,51.76,0,0,1,3-8.34,38.89,38.89,0,0,1,7.43-10.9,30.51,30.51,0,0,1,2.72-2.51Z"/></g></g><path id="_ścieżka_42" data-name="&lt;ścieżka&gt;" class="cls-85" d="M54.06,662.89s19,30.3,41.33-1c0,0,21,20.5,45.66,24.34a7.35,7.35,0,0,1,6.23,7.26h0a4.92,4.92,0,0,1-4.92,4.92H50.74v-36.1Z"/><path id="_ścieżka_43" data-name="&lt;ścieżka&gt;" class="cls-5" d="M142.35,693.78H50.74v4.64h91.61a4.92,4.92,0,0,0,4.92-4.92,7.33,7.33,0,0,0-.47-2.58A4.91,4.91,0,0,1,142.35,693.78Z"/></g></g></g></svg>