<svg xmlns="http://www.w3.org/2000/svg" xmlns:xlink="http://www.w3.org/1999/xlink" width="694.091" height="449.353" viewBox="0 0 694.091 449.353"><defs><style>.a{fill:url(#a);}.b{fill:#eec9c3;}.c{fill:#f27f97;}.d{fill:url(#b);}.ab,.e,.f,.s{fill:none;stroke-linecap:round;}.e{stroke:#f9f9f9;}.ab,.e,.s{stroke-miterlimit:10;}.e,.f{stroke-width:0.97px;}.f,.s{stroke:#423f63;}.f{stroke-linejoin:round;}.g{fill:#423f63;}.h{fill:url(#c);}.i{fill:url(#d);}.j{fill:url(#e);}.k{fill:url(#f);}.l{fill:url(#g);}.m{fill:url(#h);}.n{fill:url(#i);}.o{fill:url(#j);}.p{fill:#d1e7d9;}.q{fill:#423a64;}.r{fill:#f2a887;}.s{stroke-width:0.75px;}.t,.x{opacity:0.45;}.t{fill:url(#k);}.u{fill:#f05757;}.ad,.v{opacity:0.3;}.v{fill:url(#l);}.w{fill:#ef8c89;}.x{fill:url(#m);}.y{fill:#f47676;}.z{fill:#edf2fe;}.aa{fill:#3a6277;}.ab{stroke:#3a6277;stroke-width:1.5px;}.ac{fill:#a5b7c6;}.ad{fill:url(#n);}</style><linearGradient id="a" y1="0.5" x2="1" y2="0.5" gradientUnits="objectBoundingBox"><stop offset="0" stop-color="#d8e3ff"/><stop offset="1" stop-color="#d2dfff"/></linearGradient><linearGradient id="b" x1="0.196" y1="0.928" x2="0.685" y2="0.163" gradientUnits="objectBoundingBox"><stop offset="0" stop-color="#60bec8"/><stop offset="1" stop-color="#79d7db"/></linearGradient><linearGradient id="c" x1="0.101" y1="0.845" x2="0.771" y2="0.321" gradientUnits="objectBoundingBox"><stop offset="0" stop-color="#67b292"/><stop offset="1" stop-color="#7ac8a9"/></linearGradient><linearGradient id="d" x1="0.21" y1="1.57" x2="0.915" y2="0.983" xlink:href="#b"/><linearGradient id="e" x1="-1.075" y1="0.858" x2="-0.447" y2="0.26" xlink:href="#c"/><linearGradient id="f" x1="-0.012" y1="0.776" x2="0.438" y2="0.485" xlink:href="#b"/><linearGradient id="g" x1="0.944" y1="0.94" x2="0.468" y2="0.367" xlink:href="#c"/><linearGradient id="h" x1="0.807" y1="0.9" x2="0.33" y2="0.236" xlink:href="#b"/><linearGradient id="i" x1="0.737" y1="0.9" x2="0.433" y2="0.449" xlink:href="#b"/><linearGradient id="j" y1="0.5" x2="1" y2="0.5" gradientUnits="objectBoundingBox"><stop offset="0" stop-color="#cbdafc"/><stop offset="1" stop-color="#adc4fe"/></linearGradient><linearGradient id="k" x1="0.365" y1="0.47" x2="1.021" y2="0.786" gradientUnits="objectBoundingBox"><stop offset="0" stop-opacity="0.6"/><stop offset="0.9" stop-opacity="0"/></linearGradient><linearGradient id="l" x1="0.611" y1="-0.059" x2="0.068" y2="1.138" gradientUnits="objectBoundingBox"><stop offset="0.35"/><stop offset="0.88" stop-opacity="0"/></linearGradient><linearGradient id="m" x1="0.926" y1="0.454" x2="-0.279" y2="0.525" gradientUnits="objectBoundingBox"><stop offset="0"/><stop offset="0.75" stop-opacity="0"/></linearGradient><linearGradient id="n" x1="0.499" y1="1" x2="0.499" gradientUnits="objectBoundingBox"><stop offset="0" stop-opacity="0"/><stop offset="0.86"/></linearGradient></defs><g transform="translate(0 0.031)"><g transform="translate(0 -0.031)"><path class="a" d="M506.233,415c0-35.689,101.021-192.236,18.646-225.45-70.553-28.452-131.265,30.645-180.957,45.319C268.879,256.966,186.858,316.193,233.885,415Z" transform="translate(39.312 32.532)"/><path class="b" d="M433.248,177.626l-81.727-123.4c-55.868-84.332-184.375-67.065-216,29.018h0C109.747,161.573,168.089,242.2,250.559,242.2H400.022l4.585,1.179.86-4.974Z" transform="translate(23.11 0.031)"/><path class="c" d="M565.377,401.593c15.322-18.458,39.543-75.28-11.786-92.016-63.906-20.827-46.627-56.881-90.755-52.214s-65.591,25.8-70.553,59.993,22.064,84.237,22.064,84.237Z" transform="translate(69.969 45.938)"/><path class="d" d="M387.27,304.113s10.608-50.682,37.646-94.2,67.772-66.994,85.793-38.9-70.247,79.193-85.793,156.123Z" transform="translate(69.182 28.405)"/><path class="e" d="M468.732,189.65c-41.936,39.626-64.212,121.4-64.212,121.4" transform="translate(72.264 33.915)"/><path class="f" d="M377.41,315.22S397.376,120.744,500.743,46.49" transform="translate(67.421 8.341)"/><path class="g" d="M473.7,58c7.638-7.2,13.354-23.691,25.553-30.833s19.436,5.186,10.231,12.164S473.7,58,473.7,58Z" transform="translate(84.622 4.504)"/><path class="g" d="M447.44,87.806c5.174-7.661,6.813-19.919,4.408-30.2s4.715-22.488,13.637-16.36S447.44,87.806,447.44,87.806Z" transform="translate(79.931 7.111)"/><path class="g" d="M445.75,85.352c8.416-8.027,28.665,2.687,35.135-.566,9.806-4.915,8.887-14.733-1.744-16.666C466.081,65.751,445.75,85.352,445.75,85.352Z" transform="translate(79.629 12.17)"/><path class="g" d="M427.933,119.019c4.172-10.7-3.135-22.571-6.211-31.1-4.1-11.374,7.272-22.229,14.144-9.429S427.933,119.019,427.933,119.019Z" transform="translate(75.181 13.024)"/><path class="g" d="M418.58,132.044c5.775-9.523,15.593-11.527,25.506-9.606,12.505,2.428,23.714-.365,21.982-10.372s-22.111-7.437-30.491-1.238S418.58,132.044,418.58,132.044Z" transform="translate(74.775 18.858)"/><path class="g" d="M406.8,172.38c5.151-13.743-9.241-24.822-17.585-31.21-10.808-8.25-6.447-23.573,10.054-16.183C421.925,135.17,406.8,172.38,406.8,172.38Z" transform="translate(68.472 22.014)"/><path class="g" d="M396.83,189.988c3.713-7.331,12.175-16.1,23-14.827s28.287-3.76,27.25-15.181-18.634-10.478-29.607-1.827C407.273,166.227,396.83,189.988,396.83,189.988Z" transform="translate(70.89 27.106)"/><path class="f" d="M420,320.98c14.91-65.026,86.406-106.419,159.258-105.418" transform="translate(75.029 38.541)"/><path class="g" d="M540.07,218.066c12.069-2.463,53.652-25.093,57.364-4.962,3.9,21.216-57.364,4.962-57.364,4.962" transform="translate(96.478 36.627)"/><path class="g" d="M511.88,225.98c9.582-2.77,13.472-22.276,26.284-30.409s21.216-.825,13.943,8.746S511.88,225.98,511.88,225.98Z" transform="translate(91.442 34.347)"/><path class="g" d="M515.81,219.972c9.712-2.015,15.841,16.3,28.582,21.216s19.86-2.817,11.338-12.635C544.4,215.494,515.81,219.972,515.81,219.972Z" transform="translate(92.145 39.2)"/><path class="g" d="M479.43,239.632c5.7-2.852,9.96-13.118,14.485-24.563,4.278-10.8,16.053-22.877,21.451-14.014,5.127,8.427-8.251,17.9-14.9,23.832C496.874,228.105,479.43,239.632,479.43,239.632Z" transform="translate(85.646 35.404)"/><path class="g" d="M472.25,238.25c8.993-4.007,20.367,2.122,28.217,8.427s19.518,8.144,22.323,1.591-5.2-13.943-17.126-15.558C489.222,230.483,472.25,238.25,472.25,238.25Z" transform="translate(84.363 41.536)"/><path class="g" d="M449.78,261.648c5.61-7.2,12.046-18.175,9.853-28.5s6.624-25.659,16.819-17.833S449.78,261.648,449.78,261.648Z" transform="translate(80.349 38.117)"/><path class="g" d="M446.37,259.3c8.628-7.072,24.645-1.426,29.348,6.27s19.483,3.842,15.664-6.483-19.53-12.965-30.645-8.639A55.5,55.5,0,0,0,446.37,259.3Z" transform="translate(79.74 44.421)"/><path class="h" d="M418.12,299.917c23.573-11.421,27.981-41.971,50.6-39.638s7.6,62.468-30.939,75.775Z" transform="translate(74.693 46.51)"/><path class="e" d="M458.064,283s-10.726,22.335-31.234,31.682" transform="translate(76.249 50.591)"/><path class="i" d="M324.439,278.184c0-26.178-25.529-43.5-13.554-62.821s59.521,20.449,54.654,60.912Z" transform="translate(54.966 37.61)"/><path class="e" d="M327.49,231.47s15.4,19.4,14.863,41.936" transform="translate(58.503 41.386)"/><path class="j" d="M395.842,283.212c4.161-25.836,32.13-38.9,23.384-59.863s-62.02,10.726-63.647,51.459Z" transform="translate(63.521 38.746)"/><path class="e" d="M393.233,236.28s-18.292,16.713-21.333,39.048" transform="translate(66.437 42.245)"/><path class="k" d="M430.192,335.189c34.735-11.892,45.224-44.529,75.763-69.94s68.078-23.1,74.148-2.687-33.815,22.5-64.825,66.1-85.1,48.725-85.1,48.725Z" transform="translate(76.848 44.11)"/><path class="e" d="M430.19,351.77c42.431-10.726,65.745-57.812,108.435-80.43" transform="translate(76.849 48.508)"/><path class="l" d="M140.33,321.127s-6.541-56.846-36.6-81.739-66-73.441-37.068-101.882S174.133,167.833,180.2,296.01Z" transform="translate(10.006 23.343)"/><path class="e" d="M81.73,160c36.986,30.432,62.315,81.326,75.751,142.144" transform="translate(14.601 28.619)"/><path class="m" d="M124.738,358.872c-45.861-27.839-91.616-76.058-93.784-113.857s34.074-44.388,66.369,3.064,53.451,61.89,53.451,61.89Z" transform="translate(5.513 38.366)"/><path class="e" d="M51.82,240.64s30.739,55.4,81.692,90.072" transform="translate(9.257 43.024)"/><path class="f" d="M130.316,340.523C144.2,275.262,96.8,207.6,30.32,177.8" transform="translate(5.417 31.798)"/><path class="g" d="M51.577,189.582C41.665,182.262,13.5,144.216,1.65,160.905c-12.482,17.574,49.927,28.676,49.927,28.676" transform="translate(0 28.031)"/><path class="g" d="M71.516,207.922c-7.532-6.541-2.829-25.871-11.02-38.648s-18.917-9.712-16.336,2.051S71.516,207.922,71.516,207.922Z" transform="translate(7.819 28.797)"/><path class="g" d="M71.3,199.915c-7.956-5.893-21.216,8.109-34.852,7.166S19.632,196.155,31.5,190.84C47.259,183.8,71.3,199.915,71.3,199.915Z" transform="translate(4.318 33.81)"/><path class="g" d="M94.482,233.593c-3.96-5-3.536-16.1-2.782-28.382.672-11.6-4.915-27.521-13.543-21.746-8.25,5.481,0,19.73,3.465,27.887C83.533,215.784,94.482,233.593,94.482,233.593Z" transform="translate(13.328 32.592)"/><path class="g" d="M103.877,235.6c-6.471-7.425-19.365-6.659-29.148-4.243s-21.133-.849-20.909-7.968,10.608-10.466,22.088-6.9C91.749,221.4,103.877,235.6,103.877,235.6Z" transform="translate(9.614 38.454)"/><path class="g" d="M110.92,265.446c-2.357-9.429-3.265-21.557,3.064-30s4.821-26.06-7.72-23.255S110.92,265.446,110.92,265.446Z" transform="translate(18.165 37.889)"/><path class="g" d="M117.752,265.331c-3.866-11.445-21.734-11.669-29.254-6.671s-19.283-4.715-11.468-12.482,23.172-3.536,31.458,5.08a55.454,55.454,0,0,1,9.264,14.073Z" transform="translate(13.301 43.285)"/><path class="n" d="M166.548,258.873s-51.86-62.468-59.368-126.22,36.361-89.211,52.214-68.361-3.194,78.721,52.626,129.2Z" transform="translate(18.994 10.247)"/><path class="e" d="M132.72,97.74s0,65.9,51.931,121.093" transform="translate(23.709 17.496)"/><path class="o" d="M494.493,405.673s27.05-79.523-24.245-114.493S379.1,270.2,275.466,239.874,75.781,303.8,93.968,405.673Z" transform="translate(16.389 41.857)"/><path class="p" d="M523.611,386.9c5.033-8.746,8.486-22.135-3.347-36.538-20.52-24.94-39.873,1.179-77.331-8.863s-55.8,14.7-53.463,45.389Z" transform="translate(69.54 60.631)"/><path class="q" d="M304.718,206.679c-13.448-2.416-30.114-8.863-45.472-20.225-22.076-16.312-13.99-36.75-46.2-59.533,0,0-40.286,16.949-20.473,57.647s56.881,42.773,88.587,41.677c8.769-.295,17.1-.931,24.575-1.685Z" transform="translate(33.422 22.709)"/><path class="r" d="M287.905,212.47c19.565-1.992,33.249-4.844,33.249-4.844s-4.821-13.519-18.858-12.116a57.753,57.753,0,0,1-15.417-.919Z" transform="translate(51.249 34.798)"/><path class="s" d="M302.75,203.118s9.276-1.921,10.443.283-2.982,4.432-8.25,5.21" transform="translate(54.084 36.182)"/><path class="t" d="M280.851,199.1a117.412,117.412,0,0,1-21.6-12.647c-22.076-16.312-13.99-36.75-46.2-59.533,0,0-40.286,16.949-20.473,57.647,17.762,36.479,49.385,41.924,78.592,41.877a96.649,96.649,0,0,0,9.688-27.344Z" transform="translate(33.422 22.709)"/><path class="q" d="M189.942,365.12l-6.412,17.149h44.883l-23.243-14Z" transform="translate(32.786 65.261)"/><path class="u" d="M209.638,230.209s42.608-8.085,62.81,9.017-19.141,93.49-68.255,153.482L189,389.562s40.875-76.67,40.251-110.238S209.638,230.209,209.638,230.209Z" transform="translate(33.763 40.82)"/><path class="v" d="M246.607,327.447c23.714-40.639,35.913-77.107,22.712-88.221-20.2-17.1-62.81-9.017-62.81-9.017s18.964,15.546,19.577,49.114c.212,11.044-4.078,26.767-9.936,42.879a137.381,137.381,0,0,0,30.456,5.245Z" transform="translate(36.891 40.82)"/><path class="q" d="M203.064,127.465s-8.015-3.866-3.783-14.474c0,0-6.376-6.813-1.238-12.8,0,0-4.95-13.755,4.267-20.379s16.147-.248,20.367-1.509,19.624-9.276,24.751-.578-1.65,17.267-9.653,18.175L217.09,115.183Z" transform="translate(35.021 13.207)"/><path class="r" d="M196.41,135.714l6.565-11.61s5.363-4,4.915-7.661a6.082,6.082,0,0,1,2.275-5.551,8.793,8.793,0,0,1-6.376-9.712c.766-7.944,10.667-8.639,13.755-3.029s8.451-1.32,8.9-5.61c0,0,5.893,2.581,11.232,0,0,0-.978,11.044,3.937,17.291A8.722,8.722,0,0,1,237,111.716s1.179,9.111-4.715,13.33c-7.367,5.327-12.965,2-12.965,2l-8.675,15.641Z" transform="translate(35.087 16.568)"/><path class="s" d="M206.58,99.681a11.787,11.787,0,0,1,5.634-.8" transform="translate(36.904 17.689)"/><path class="s" d="M209.224,103.874A7.378,7.378,0,0,0,209,98.9" transform="translate(37.336 17.704)"/><path class="s" d="M228.38,101.383s-1.957-1.6-5.74-.295" transform="translate(39.773 18.003)"/><path class="w" d="M229.214,111.652a5.61,5.61,0,1,0-1.639,3.975,5.622,5.622,0,0,0,1.639-3.975Z" transform="translate(38.938 18.977)"/><path class="q" d="M220.47,126.3c-51.6-21.946-93.478,87.219-87.113,135.874h0l53.227,16.713,33.108-29.937C230.571,212.266,244.951,136.716,220.47,126.3Z" transform="translate(23.709 22.083)"/><path class="x" d="M220.843,209.149,172.4,167.26c-5.893,50.092,4.149,89.353,4.149,89.353l20.85-1.45,15.534-14.049C215.563,232.238,218.391,221.1,220.843,209.149Z" transform="translate(30.467 29.915)"/><path class="q" d="M279.554,366.1l-1.874,15.994h41.912l-24.775-15.982Z" transform="translate(49.605 65.436)"/><path class="u" d="M219.6,229.92s-34.687,12.034-86.335,13.224a45.967,45.967,0,0,0,2.711,11.02c16.171,40.074,36,40.015,101.964,45.071,71.025,5.445,67.418,91.191,67.418,91.191h15.322s13.684-34.935-4.043-83.118S219.6,229.92,219.6,229.92Z" transform="translate(23.806 41.109)"/><rect class="y" width="17.267" height="14.745" transform="translate(320.155 141.97) rotate(25)"/><path class="z" d="M285.855,127.768c11.6,5.41,24.645-2.923,30.244-7.237a1.957,1.957,0,0,1,3.147,1.509c.071,4.715-.86,13.719-6.73,26.307s-12.152,19.07-15.829,22.052a1.945,1.945,0,0,1-3.171-1.438c-.295-7.072-2.357-22.394-13.9-27.828Z" transform="translate(49.952 21.496)"/><path class="z" d="M257.961,114.48l-2.734,5.893-2.746,5.881,16.336,8.592,3.123-6.683,3.112-6.683Z" transform="translate(45.103 20.487)"/><path class="q" d="M275.566,176.708l-14.356-9.889C246.784,186.2,223.093,205,223.093,205c8.628-45.826,4.09-78.533-15.853-79.134-46.627-1.391-48.961,124.264,1.179,117.51C240.62,239.035,263.4,202.367,275.566,176.708Z" transform="translate(30.645 22.518)"/><path class="r" d="M282.59,133.1c-6.294-5.245-16.678-4.314-26.46,18.764a71.1,71.1,0,0,1-8.51,14.144h0l14.356,9.877a228.85,228.85,0,0,0,10.242-25.093C280.257,149.068,288.884,138.342,282.59,133.1Z" transform="translate(44.235 23.344)"/><rect class="aa" width="5.127" height="86.724" transform="translate(207.724 348.737)"/><rect class="aa" width="76.623" height="3.89" transform="translate(171.976 435.461)"/><circle class="aa" cx="9.017" cy="9.017" r="9.017" transform="matrix(0.973, -0.231, 0.231, 0.973, 160.208, 431.806)"/><path class="z" d="M145.951,378.331a5.481,5.481,0,1,1,5.481-5.481A5.481,5.481,0,0,1,145.951,378.331Z" transform="translate(25.094 65.663)"/><path class="aa" d="M204.07,373.367a9.017,9.017,0,1,1,9.017,9.017,9.017,9.017,0,0,1-9.017-9.017Z" transform="translate(36.455 65.124)"/><path class="z" d="M212.551,378.331a5.481,5.481,0,1,0-5.481-5.481A5.481,5.481,0,0,0,212.551,378.331Z" transform="translate(36.991 65.663)"/><line class="ab" x2="24.704" y2="53.392" transform="translate(147.66 291.078)"/><path class="y" d="M220.246,301.026H149.363a6.683,6.683,0,0,1-6.683-6.683h0a6.683,6.683,0,0,1,6.683-6.683h70.883a6.683,6.683,0,0,1,6.683,6.683h0a6.683,6.683,0,0,1-6.683,6.683Z" transform="translate(25.489 51.424)"/><path class="y" d="M127.141,260.323h0a7.991,7.991,0,0,1-7.991-8V186.493a7.991,7.991,0,0,1,7.991-8h0a8,8,0,0,1,8,8V252.32A8,8,0,0,1,127.141,260.323Z" transform="translate(21.285 31.922)"/><path class="y" d="M318.755,19.8c-27.38,2.746-47.275,23.337-41.04,50.823L260,88.117,282.217,82.7c15.947,25.741,83.683,20.037,88.6-15.605C375.931,30.057,349.011,16.774,318.755,19.8Z" transform="translate(46.447 3.499)"/><rect class="z" width="9.076" height="18.788" rx="1.62" transform="translate(354.358 54.136)"/><path class="z" d="M311.9,66.586a1.921,1.921,0,0,1-1.9-1.909V49.708c0-2.357,7.555-6.718,7.956-9.076.259-1.509-.082-5.363.955-5.363,1.768,0,4.031.672,4.031,4.585,0,3.453-2.263,7.944-2.263,7.944h9.158a2.6,2.6,0,0,1,.589,5.151,2.6,2.6,0,0,1-1.049,4.573A2.6,2.6,0,0,1,328.34,62.1a2.617,2.617,0,0,1-1.65,4.679Z" transform="translate(55.379 6.337)"/><path class="ac" d="M303.559,211.59h69.009a3.041,3.041,0,0,0,3.029-3.041h0a3.029,3.029,0,0,0-3.029-3.029H303.559a3.029,3.029,0,0,0-3.029,3.029h0A3.041,3.041,0,0,0,303.559,211.59Z" transform="translate(53.687 36.75)"/><path class="ac" d="M394.164,149.948h0a1.886,1.886,0,0,0-2.522.919l-29.195,62.609a1.909,1.909,0,0,0,.919,2.534h0a1.886,1.886,0,0,0,2.522-.919L395.1,152.482a1.921,1.921,0,0,0-.931-2.534Z" transform="translate(64.716 26.79)"/><rect class="aa" width="167.862" height="6.447" transform="translate(334.793 248.34)"/><rect class="aa" width="6.211" height="187.769" transform="translate(415.612 254.787)"/><rect class="aa" width="91.922" height="4.974" transform="translate(372.757 442.545)"/><rect class="ad" width="6.211" height="12.611" transform="translate(415.612 254.787)"/><circle class="f" cx="4.561" cy="4.561" r="4.561" transform="translate(48.183 130.417)"/><circle class="f" cx="4.561" cy="4.561" r="4.561" transform="translate(614.402 192.614)"/><circle class="f" cx="4.561" cy="4.561" r="4.561" transform="translate(443.487 69.953)"/><circle class="f" cx="4.561" cy="4.561" r="4.561" transform="translate(36.373 370.648)"/><path class="f" d="M158.988,14.769a6.777,6.777,0,1,0-1.985,4.8A6.789,6.789,0,0,0,158.988,14.769Z" transform="translate(25.976 1.462)"/><path class="f" d="M482.508,129.029a6.789,6.789,0,1,0-6.789,6.789A6.789,6.789,0,0,0,482.508,129.029Z" transform="translate(83.77 21.873)"/></g></g></svg>