<svg width="670" height="661" viewBox="0 0 670 661" fill="none" xmlns="http://www.w3.org/2000/svg">
<g clip-path="url(#clip0)">
<path opacity="0.18" d="M18.0279 534.435C13.7354 503.315 34.4621 471.582 71.8683 445.118C93.0856 430.047 89.0384 396.477 65.0003 386.308C28.4526 370.87 4.53719 347.836 0.61261 319.534C-3.06669 293.192 11.1599 266.482 38.2641 242.836C58.6229 225.07 65.8588 195.175 54.9436 169.813C52.8586 164.79 51.3869 159.644 50.651 154.376C41.6981 89.9296 140.426 22.9107 271.409 4.65509C402.392 -13.6005 515.714 24.0134 524.667 88.4593C529.205 120.927 506.393 154.131 465.798 181.33C452.553 190.274 450.223 209.265 460.525 222.007C468.251 231.564 473.157 242.223 474.751 253.74C475.119 256.558 477.45 258.641 480.27 258.641C582.309 258.396 662.15 293.314 669.631 346.978C673.065 371.85 660.556 397.089 636.272 419.756C623.763 431.395 624.008 452.101 637.008 463.373C651.358 475.748 660.311 490.45 662.641 506.746C671.594 571.191 572.866 638.21 441.883 656.466C373.08 666.023 309.183 660.264 262.701 643.234C232.163 632.084 200.398 624.243 167.898 621.18C85.2364 613.461 24.528 580.871 18.0279 534.435Z" fill="#B4D3EE"/>
<path opacity="0.3" d="M110.134 469.745C107.435 450.019 120.558 429.803 144.351 413.018C157.842 403.461 155.266 382.143 139.936 375.649C116.634 365.847 101.549 351.145 98.9731 333.257C96.6429 316.594 105.718 299.564 122.889 284.616C135.889 273.344 140.427 254.353 133.436 238.181C132.087 234.995 131.106 231.687 130.615 228.379C124.851 187.457 187.644 144.82 270.796 133.303C353.948 121.786 425.94 145.555 431.704 186.599C434.525 207.183 420.053 228.256 394.298 245.532C385.836 251.168 384.364 263.297 390.864 271.384C395.77 277.51 398.836 284.248 399.94 291.477C400.185 293.315 401.657 294.54 403.496 294.54C468.375 294.295 519.026 316.594 523.809 350.655C526.017 366.46 518.045 382.51 502.592 396.845C494.62 404.319 494.743 417.429 503.083 424.535C512.158 432.376 517.922 441.688 519.394 452.102C525.158 493.024 462.365 535.661 379.213 547.178C335.552 553.304 294.957 549.506 265.4 538.724C246.022 531.618 225.786 526.595 205.182 524.757C152.936 519.856 114.304 499.272 110.134 469.745Z" fill="#B4D3EE"/>
<path opacity="0.68" d="M39.9817 442.913C39.3685 422.207 55.9253 402.971 83.2748 388.391C98.8505 380.06 98.8505 357.761 83.2748 349.307C59.6046 336.565 45.1327 319.657 44.5195 300.911C44.0289 283.391 55.8027 266.973 76.0388 253.373C91.2466 243.204 98.4825 224.213 92.9636 206.693C91.8598 203.262 91.2466 199.832 91.2466 196.278C90.0201 153.396 162.502 116.64 253.013 114.189C343.524 111.739 417.846 144.452 418.949 187.457C419.562 209.021 401.411 229.114 371.732 244.062C362.165 248.84 358.609 260.969 364.618 269.791C369.401 276.775 371.977 284.248 372.222 292.09C372.222 293.928 373.694 295.52 375.656 295.643C445.195 302.872 496.828 331.541 497.809 367.195C498.299 383.735 487.752 399.295 469.601 412.405C460.157 419.144 458.686 432.744 466.657 441.075C475.488 450.264 480.394 460.433 480.761 471.338C481.988 514.22 409.506 550.976 318.995 553.427C266.013 554.897 218.55 544.238 188.135 526.595C176.238 519.733 163.116 514.955 149.502 512.995C86.4635 503.683 40.8402 476.361 39.9817 442.913Z" fill="#E4F1FA"/>
<path d="M311.759 299.318H306.853C284.042 299.318 265.523 280.818 265.523 258.029V202.159C265.523 179.371 284.042 160.87 306.853 160.87H311.759C334.571 160.87 353.09 179.371 353.09 202.159V258.029C353.09 280.94 334.571 299.318 311.759 299.318Z" fill="#B4D3EE"/>
<path d="M312.986 294.05H308.08C285.268 294.05 266.749 275.549 266.749 252.761V196.891C266.749 174.102 285.268 155.602 308.08 155.602H312.986C335.797 155.602 354.316 174.102 354.316 196.891V252.761C354.194 275.549 335.675 294.05 312.986 294.05Z" fill="#B4D3EE"/>
<path d="M312.986 162.708H308.08C289.193 162.708 273.862 178.023 273.862 196.891V252.761C273.862 271.629 289.193 286.944 308.08 286.944H312.986C331.873 286.944 347.203 271.629 347.203 252.761V196.891C347.203 178.023 331.873 162.708 312.986 162.708Z" fill="#88BEFF"/>
<path d="M352.477 185.006C347.326 168.099 331.627 155.724 312.986 155.724H308.08C289.561 155.724 273.862 167.976 268.589 184.761V185.252H352.354V185.006H352.477Z" fill="#B4D3EE"/>
<path d="M275.947 185.252H345.118C344.873 184.639 344.627 184.026 344.382 183.536H276.561C276.315 184.026 276.07 184.639 275.947 185.252Z" fill="#8BC4EF"/>
<path opacity="0.33" d="M312.986 162.708H308.08C289.193 162.708 273.862 178.023 273.862 196.891V202.404C273.862 183.536 289.193 168.221 308.08 168.221H312.986C331.873 168.221 347.203 183.536 347.203 202.404V196.891C347.203 178.023 331.873 162.708 312.986 162.708Z" fill="#4A6CB8"/>
<path opacity="0.33" d="M312.986 287.189H308.08C289.193 287.189 273.862 271.874 273.862 253.006V247.492C273.862 266.36 289.193 281.675 308.08 281.675H312.986C331.873 281.675 347.203 266.36 347.203 247.492V253.006C347.203 271.874 331.873 287.189 312.986 287.189Z" fill="#4A6CB8"/>
<path d="M312.74 205.1C312.74 205.1 320.589 192.97 326.599 200.077C332.608 207.183 331.873 190.888 347.571 191.01C359.467 191.133 357.628 203.875 371.609 198.606C385.59 193.338 408.402 201.914 401.779 220.047C397.732 231.319 380.685 226.786 376.147 222.988C370.505 218.087 367.807 220.538 357.382 223.968C346.958 227.399 344.014 220.66 337.146 221.64C330.278 222.62 325.25 231.197 320.099 226.174C314.948 221.273 308.938 228.379 300.353 224.581C290.419 220.17 295.815 199.341 312.74 205.1Z" fill="#FDFDFB"/>
<path d="M262.089 233.892C262.089 233.892 266.013 227.766 269.079 231.319C272.145 234.873 271.777 226.664 279.627 226.664C285.636 226.664 284.655 233.157 291.768 230.462C298.882 227.766 310.287 232.177 306.976 241.244C304.891 246.88 296.306 244.674 294.098 242.714C291.278 240.263 289.929 241.489 284.655 243.204C279.381 244.919 277.91 241.489 274.476 241.979C271.042 242.469 268.466 246.757 265.891 244.307C263.315 241.856 260.249 245.409 255.956 243.571C250.928 241.489 253.626 230.952 262.089 233.892Z" fill="#FDFDFB"/>
<path d="M326.722 259.989C326.722 259.989 330.646 253.863 333.712 257.416C336.778 260.969 336.41 252.761 344.26 252.761C350.269 252.761 349.288 259.254 356.401 256.559C363.515 253.863 374.92 258.274 371.609 267.341C369.524 272.976 360.939 270.771 358.731 268.811C355.911 266.36 354.562 267.586 349.288 269.301C344.014 271.016 342.543 267.586 339.109 268.076C335.675 268.566 333.099 272.854 330.524 270.404C327.948 267.953 324.882 271.506 320.589 269.668C315.438 267.586 318.137 257.049 326.722 259.989Z" fill="#FDFDFB"/>
<path d="M291.523 469.132C359.392 469.132 414.411 466.938 414.411 464.232C414.411 461.525 359.392 459.331 291.523 459.331C223.654 459.331 168.634 461.525 168.634 464.232C168.634 466.938 223.654 469.132 291.523 469.132Z" fill="#E4F1FA"/>
<path d="M369.279 464.477C369.279 466.437 324.391 468.03 268.957 468.03C213.522 468.03 168.634 466.437 168.634 464.477C168.634 462.516 213.522 460.923 268.957 460.923C324.391 460.923 369.279 462.516 369.279 464.477Z" fill="#B4D3EE"/>
<path d="M235.966 467.295H168.88L150.238 358.619H284.9L276.561 431.641C273.862 452.102 256.447 467.295 235.966 467.295Z" fill="#264991"/>
<path d="M198.805 230.094C198.805 230.094 197.456 245.777 208.616 254.843C219.777 263.91 240.258 283.391 224.682 301.401C209.107 319.412 188.993 294.05 188.993 294.05L187.767 259.377L198.805 230.094Z" fill="#3D3A35"/>
<path d="M181.389 367.073L161.276 369.768C156.002 370.503 151.219 366.827 150.483 361.559L134.172 240.999C133.436 235.73 137.115 230.952 142.389 230.217L162.502 227.521C167.776 226.786 172.559 230.462 173.295 235.73L189.606 356.291C190.342 361.559 186.663 366.46 181.389 367.073Z" fill="#264991"/>
<path opacity="0.47" d="M198.805 230.094C198.805 230.094 197.456 245.777 208.616 254.843C219.777 263.91 240.258 283.391 224.682 301.401C209.107 319.412 188.993 294.05 188.993 294.05L187.767 259.377L198.805 230.094Z" fill="#3D3A35"/>
<path d="M181.757 202.159C181.757 202.159 186.663 194.808 179.304 196.646C162.993 200.812 160.417 214.902 160.295 226.786C160.172 237.69 166.304 245.409 160.295 256.191C137.728 296.378 153.672 326.151 186.908 322.352C220.145 318.554 194.144 267.463 194.144 267.463L181.757 202.159Z" fill="#3D3A35"/>
<path d="M226.767 319.657C231.55 311.326 237.56 303.729 244.673 297.236C253.626 289.149 267.362 278.122 285.636 268.076C289.07 266.238 292.872 265.258 296.797 265.503C302.438 265.993 309.184 269.178 311.514 281.185C315.684 302.627 309.429 347.592 309.429 347.592L283.306 339.383L226.767 319.657Z" fill="#FFC055"/>
<path opacity="0.5" d="M178.201 406.769C178.201 406.769 242.22 430.293 274.476 440.708C274.476 440.708 280.362 418.409 278.155 401.256C275.947 383.98 178.201 406.769 178.201 406.769Z" fill="#264991"/>
<path d="M198.927 236.098C198.927 236.098 195.003 248.595 201.871 256.804C208.739 265.013 216.343 272.609 221.003 275.917C225.664 279.225 227.013 290.374 219.409 293.315L234.494 316.961L203.833 324.803C203.833 324.803 175.135 300.789 173.54 280.45C172.682 270.281 175.135 263.052 176.974 256.436C178.814 249.82 180.286 243.817 177.465 236.098C171.946 220.538 198.927 236.098 198.927 236.098Z" fill="#F49968"/>
<path d="M309.674 396.355C309.674 396.355 310.165 414.856 312.863 419.266C315.561 423.677 314.948 433.356 309.674 429.313C304.401 425.147 297.042 404.931 297.042 404.931C297.042 404.931 292.627 390.597 301.212 393.415C309.674 396.355 309.674 396.355 309.674 396.355Z" fill="#F49968"/>
<path opacity="0.52" d="M309.674 396.355C309.674 396.355 310.165 414.856 312.863 419.266C315.561 423.677 314.948 433.356 309.674 429.313C304.401 425.147 297.042 404.931 297.042 404.931C297.042 404.931 292.627 390.597 301.212 393.415C309.674 396.355 309.674 396.355 309.674 396.355Z" fill="#F49968"/>
<path d="M287.108 294.05C287.108 294.05 280.73 301.279 280.73 309.733C280.73 318.064 283.919 329.581 283.919 329.581L238.541 320.76C238.541 320.76 250.192 320.882 260.74 318.677C268.466 316.962 275.089 311.816 278.645 304.832C280.73 300.911 283.551 296.5 287.108 294.05Z" fill="#ECB04B"/>
<path d="M293.24 408.975H182.003C172.927 408.975 164.955 403.216 162.012 394.64L151.464 363.029H293.24C298.391 363.029 302.561 367.195 302.561 372.341V399.663C302.561 404.809 298.391 408.975 293.24 408.975Z" fill="#264991"/>
<path opacity="0.24" d="M183.106 396.6C173.295 396.6 162.748 391.209 159.559 381.775L151.832 362.907H151.464L162.012 394.517C164.833 403.094 172.927 408.852 182.003 408.852H293.24C298.391 408.852 302.561 404.686 302.561 399.541V396.478H183.106V396.6Z" fill="#264991"/>
<path opacity="0.5" d="M302.561 363.029L295.202 370.748C295.202 370.748 286.863 397.58 298.146 407.627C298.146 407.627 303.665 405.299 304.155 393.047C304.523 380.672 302.561 363.029 302.561 363.029Z" fill="#264991"/>
<path d="M221.862 327.131C221.862 327.131 282.815 323.333 311.391 337.055C311.391 337.055 315.316 338.403 321.816 352.493C328.316 366.582 351.496 429.191 351.496 429.191C351.496 429.191 354.684 436.297 357.382 439.482C360.081 442.668 370.873 459.698 370.873 463.251C370.873 466.805 362.656 463.006 360.326 460.066C357.996 457.125 354.194 451.244 350.882 451.244C347.694 451.244 341.807 448.549 341.807 442.178C341.807 435.684 340.948 432.499 332.976 426.863C325.005 421.227 306.485 407.137 301.212 395.13C301.212 395.13 296.306 384.838 295.693 373.199C295.325 367.44 290.542 363.029 284.9 363.029H219.531L221.862 327.131Z" fill="#FFC055"/>
<path opacity="0.47" d="M186.54 269.056L175.87 260.112C175.87 260.112 166.55 262.195 164.097 288.659C163.238 297.358 157.474 304.342 150.851 300.544C154.653 315.859 168.021 324.435 186.908 322.352C188.993 322.107 190.833 321.74 192.427 321.127C191.201 306.547 186.54 269.056 186.54 269.056Z" fill="#3D3A35"/>
<path d="M223.701 299.196C222.475 297.236 222.72 294.663 224.192 292.825C227.748 288.047 227.013 279.838 221.003 275.794C219.163 274.569 217.079 272.609 214.626 270.404C205.427 273.467 200.399 264.278 193.654 258.274C187.276 252.516 177.219 255.456 176.974 256.314C175.135 262.93 172.682 270.159 173.54 280.328C175.135 300.666 191.323 347.469 191.323 347.469L234.494 316.961L223.701 299.196Z" fill="#4CAAFF"/>
<path d="M262.824 352.86C262.824 352.86 282.447 351.267 291.891 360.089C297.287 365.112 295.57 373.321 295.57 373.321C295.57 373.321 295.816 359.231 269.692 363.152C254.239 365.48 262.824 352.86 262.824 352.86Z" fill="#F9D539"/>
<path d="M287.108 364.867L154.04 363.152V333.502H274.844C281.712 333.502 287.23 339.015 287.23 345.876V364.867H287.108Z" fill="#264991"/>
<path d="M201.993 226.786C201.993 226.786 210.578 234.26 207.022 251.045C206.163 254.966 202.116 258.764 206.531 267.586" stroke="#4A6CB8" stroke-width="0.7193" stroke-miterlimit="10"/>
<path d="M200.154 287.066L201.871 277.02C201.871 277.02 210.824 296.5 216.097 295.765C216.097 295.765 213.031 318.432 219.409 324.803C224.192 329.581 208.861 322.107 207.022 321.127C205.182 320.147 195.861 304.342 195.861 304.342L200.154 287.066Z" fill="#4697E0"/>
<path d="M357.382 439.482C354.684 436.297 351.496 429.191 351.496 429.191C351.496 429.191 349.656 424.045 346.712 416.571C344.26 419.389 339.722 423.432 331.75 426.005C332.118 426.25 332.608 426.618 332.976 426.863C340.948 432.499 341.807 435.684 341.807 442.178C341.807 448.671 347.694 451.244 350.882 451.244C354.071 451.244 357.996 457.125 360.326 460.066C362.656 463.006 370.873 466.805 370.873 463.251C370.873 459.698 359.958 442.668 357.382 439.482Z" fill="#F49968"/>
<path d="M193.531 197.136C193.531 197.136 202.361 198.239 206.041 204.61C209.72 210.981 208.371 218.577 210.333 220.783C212.295 223.111 213.645 223.723 213.645 223.723C213.645 223.723 213.522 225.928 210.824 227.276C210.824 227.276 212.418 237.445 206.163 241.734C198.559 246.88 188.871 245.654 181.635 240.141C174.399 234.627 171.21 229.849 169.37 220.783C167.653 211.839 176.852 191.868 193.531 197.136Z" fill="#F49968"/>
<path opacity="0.52" d="M175.38 262.195C183.474 249.82 192.182 249.575 197.946 249.207C197.946 248.595 197.824 245.409 197.824 244.797C200.644 244.429 203.465 243.449 206.041 241.734C207.022 240.999 207.88 240.141 208.494 239.161C184.088 239.528 174.521 203.507 174.521 203.507L170.229 211.716C169.125 215.147 168.757 218.332 169.248 220.905C170.597 228.134 173.05 232.667 177.587 236.955C180.04 244.307 178.691 250.065 176.852 256.436C176.484 258.274 175.87 260.112 175.38 262.195Z" fill="#F49968"/>
<path d="M181.757 195.666C181.757 195.666 204.446 184.761 209.229 200.322C212.786 211.961 198.437 213.921 192.55 213.064C178.201 211.103 175.012 219.067 174.521 224.948C174.031 230.829 164.955 222.375 165.568 216.127C166.182 209.756 165.446 201.547 181.757 195.666Z" fill="#3D3A35"/>
<path d="M192.55 213.064C192.55 213.064 180.899 210.981 179.55 225.316C178.936 231.442 197.946 249.085 174.644 260.234C167.899 263.42 167.408 240.754 167.408 240.754L165.568 226.786L169.125 204.12L192.55 213.064Z" fill="#3D3A35"/>
<path d="M181.757 220.17C181.512 218.7 177.097 216.739 175.257 220.538C173.295 224.458 175.87 231.074 181.021 229.849" fill="#F49968"/>
<path opacity="0.52" d="M181.757 220.17C181.512 218.7 177.097 216.739 175.257 220.538C173.295 224.458 175.87 231.074 181.021 229.849" fill="#F49968"/>
<path opacity="0.5" d="M247.494 332.644C247.494 332.644 253.504 334.114 254.607 334.482C257.919 335.462 269.938 334.604 276.806 339.628C282.938 344.039 287.23 353.718 287.23 353.718L286.372 333.379" fill="#264991"/>
<path d="M187.767 193.46C187.767 193.46 180.899 197.504 181.88 216.249L177.833 217.475C177.833 217.475 175.502 206.693 180.531 197.749C181.389 196.278 182.616 194.931 184.088 193.951C185.191 193.215 186.663 192.725 187.767 193.46Z" fill="#4A6CB8"/>
<path d="M180.286 215.392L177.465 216.004C177.587 216.984 177.71 217.597 177.71 217.597L181.757 216.372C180.899 197.504 187.644 193.583 187.644 193.583C186.05 194.563 180.899 199.464 180.286 215.392Z" fill="#264991"/>
<path d="M180.368 234.997C185.175 234.856 188.927 229.806 188.748 223.719C188.57 217.631 184.528 212.811 179.72 212.952C174.913 213.093 171.161 218.142 171.34 224.229C171.519 230.317 175.561 235.138 180.368 234.997Z" fill="#264991"/>
<path d="M186.54 223.356C186.663 228.746 183.352 233.157 179.182 233.28C174.889 233.402 171.333 229.237 171.21 223.846C171.087 218.455 174.399 214.044 178.569 213.921C182.738 213.799 186.295 218.087 186.54 223.356Z" fill="#4A6CB8"/>
<path opacity="0.24" d="M287.108 358.864L201.012 358.128C188.625 358.006 176.729 352.493 168.88 342.813C139.936 307.282 141.776 230.339 141.776 230.339C137.115 230.829 133.804 234.995 134.172 239.528L134.294 240.999L150.974 363.029H287.108V358.864Z" fill="#264991"/>
<path d="M178.201 231.319C177.955 237.69 178.446 246.634 183.72 251.045C186.663 253.496 190.833 254.966 194.144 256.926C197.701 259.009 201.012 261.337 203.833 264.278C212.909 274.079 213.277 288.537 217.569 300.544C220.88 309.733 227.013 324.313 238.664 324.803" stroke="#4A6CB8" stroke-width="0.7193" stroke-miterlimit="10"/>
<path d="M177.465 261.827C181.635 257.539 188.38 257.171 193.163 260.847C195.371 262.562 197.578 265.135 199.418 268.933C204.324 279.838 214.748 310.835 215.362 312.796C215.975 314.756 237.192 314.389 268.589 323.7C268.589 323.7 284.9 328.356 290.051 335.83C295.202 343.303 296.429 351.39 291.768 350.287C287.108 349.184 284.042 341.098 279.381 337.3C279.381 337.3 273.862 332.277 263.806 333.502C253.749 334.727 243.692 335.462 233.513 336.075C224.314 336.687 214.626 338.28 205.55 335.707C186.05 330.194 178.814 310.468 174.644 292.702C172.436 283.146 169.738 269.668 177.465 261.827Z" fill="#F49968"/>
<path opacity="0.52" d="M241.73 335.585C239.768 335.707 225.909 336.32 209.965 332.767C192.795 328.846 185.927 306.547 181.88 291.11C177.833 275.672 181.267 267.341 184.21 260.602C184.578 259.744 184.823 259.009 184.946 258.397C182.248 258.642 179.55 259.744 177.587 261.827C169.861 269.668 172.559 283.146 174.767 292.702C178.936 310.468 186.172 330.194 205.673 335.707C214.748 338.28 224.437 336.687 233.635 336.075C236.211 335.952 238.909 335.707 241.73 335.585Z" fill="#F49968"/>
<path d="M180.531 357.148C177.465 359.231 173.785 360.456 169.861 360.456C159.314 360.456 150.851 352.002 150.851 341.466C150.851 330.929 159.314 322.475 169.861 322.475C180.408 322.475 188.871 330.929 188.871 341.466C188.871 347.959 185.559 353.84 180.531 357.148Z" fill="#264991"/>
<path opacity="0.24" d="M172.191 352.247C165.446 352.247 160.049 346.857 160.049 340.118C160.049 337.3 161.031 334.727 162.625 332.644C159.191 334.85 156.983 338.525 156.983 342.936C156.983 349.675 162.38 355.065 169.125 355.065C173.05 355.065 176.484 353.228 178.691 350.41C176.852 351.512 174.521 352.247 172.191 352.247Z" fill="#264991"/>
</g>
<defs>
<clipPath id="clip0">
<rect width="670" height="661" fill="white"/>
</clipPath>
</defs>
</svg>
