<svg id="Ñëîé_1" data-name="Ñëîé 1" xmlns="http://www.w3.org/2000/svg" xmlns:xlink="http://www.w3.org/1999/xlink" viewBox="0 0 1147.32 1429.45"><defs><style>.cls-1,.cls-12,.cls-15,.cls-26,.cls-31,.cls-39{fill:none;}.cls-2{fill:#b2b2b2;}.cls-3{fill:#d1d1d1;}.cls-4{fill:#a8754b;}.cls-5{fill:#ffd686;}.cls-6{fill:#b5845b;}.cls-7{fill:#0c2c40;}.cls-8{fill:#190d08;}.cls-9{fill:#fd6c75;}.cls-10{fill:#27160c;}.cls-11{fill:#fff;}.cls-12,.cls-26{stroke:#efc375;}.cls-12,.cls-26,.cls-31,.cls-39{stroke-linecap:round;stroke-linejoin:round;}.cls-12{stroke-width:2.98px;}.cls-13{fill:#f8f8f6;}.cls-14{clip-path:url(#clip-path);}.cls-15{stroke:#2a272d;stroke-miterlimit:10;stroke-width:6.72px;}.cls-16{fill:#ffeee3;}.cls-17{fill:#f2c09e;}.cls-18{fill:#efc375;}.cls-19{fill:#f7e5da;}.cls-20{fill:#fcc9a7;}.cls-21{clip-path:url(#clip-path-2);}.cls-22{fill:#1c2226;}.cls-23{fill:#54585a;}.cls-24{fill:#2a272d;}.cls-25{fill:#1f252a;}.cls-26{stroke-width:2.65px;}.cls-27{clip-path:url(#clip-path-3);}.cls-28{fill:#092330;}.cls-29{fill:#df945b;}.cls-30{fill:#f4be9a;}.cls-31{stroke:#ce804a;stroke-width:2.76px;}.cls-32{fill:#eda472;}.cls-33{fill:#efefef;}.cls-34{clip-path:url(#clip-path-4);}.cls-35{fill:#f9a772;}.cls-36{fill:#f7ebe7;}.cls-37{fill:#e49258;}.cls-38{fill:#4c1827;}.cls-39{stroke:#f7844c;stroke-width:14.17px;stroke-dasharray:0 39.69;}</style><clipPath id="clip-path"><circle class="cls-1" cx="379" cy="1082" r="223"/></clipPath><clipPath id="clip-path-2"><path class="cls-1" d="M311.51,996.2c-9.92,22.82-34.4,32.29-54.69,21.14s-28.7-38.69-18.79-61.52,34.39-32.29,54.68-21.14S321.42,973.37,311.51,996.2Z"/></clipPath><clipPath id="clip-path-3"><circle class="cls-1" cx="223" cy="483" r="223"/></clipPath><clipPath id="clip-path-4"><circle class="cls-1" cx="888" cy="223" r="223"/></clipPath></defs><title>join-calls</title><rect class="cls-2" x="1018.32" y="1174.65" width="125.44" height="235.74"/><rect class="cls-3" x="893.38" y="1174.65" width="125.44" height="235.74"/><path class="cls-4" d="M1007.53,951.75l-15.09,81.39,47.17,6.81s4.08-84.57,0-85S1007.53,951.75,1007.53,951.75Z"/><path class="cls-5" d="M1051.71,870s-47.13,7.49-55.61,88.17c0,0,15,18.19,34.17,12.57Z"/><path class="cls-5" d="M1072.14,867.2s45.92-5.12,62.1,31.29-31,74.33-14.83,157.76l-101.8-6.07V976.61s-18.56-30.43,7.73-63.05C1025.34,913.56,1026.9,864,1072.14,867.2Z"/><path class="cls-6" d="M920.68,1068.06s-33-13.75-41.87,22.27-45.65,271.34-45.65,271.34h29.49L880,1268.12s24.48-30.65,32-95.8l102.88-13.79Z"/><path class="cls-4" d="M988.16,1154.18s-17.49-.53-48.57-11.68-53.22.66-41,40,74,221.6,74,221.6l23.39-7.87-20.19-118s-4.76-58.54-26.71-92.87c0,0,46.19,2.59,62-.14S988.16,1154.18,988.16,1154.18Z"/><path class="cls-7" d="M1119.41,1056.25s37.36,52.82-7.58,104.67c0,0-23.14,30.28-125.06,25.55,0,0-26.72-101.51-83.61-128.81L1020.85,1040Z"/><path class="cls-8" d="M1069.65,732.37s-12.14-55.65,29.95-56c31.15-.23,40.41,41.64,2.22,69.67Z"/><path class="cls-9" d="M1103.2,756.21s7.61-21.87-14.09-33-28.61,15.13-28.61,15.13Z"/><path class="cls-10" d="M1020.73,806s-31.33-20.86,2.54-62.77c21.17-26.18,58.29-24.73,78.94,1.24s1.19,71.77,1.19,71.77l-14.07-26.3L1077,769.52l-17.62-7.92-13.82,1.07-11.69,1.69-9.44,4.44Z"/><polygon class="cls-6" points="1053.45 885.25 1088.69 880.16 1081.55 817.7 1046.32 822.79 1053.45 885.25"/><path class="cls-4" d="M1085.27,836.31s-3.82,22.75-20,27.31a12.12,12.12,0,0,1-13.66-4.92,10,10,0,0,1-1.65-4.38c-.75-6.57,14.63-18,14.63-18Z"/><path class="cls-6" d="M1060.44,852.49l1.8-.26c20.22-2.92,34.51-23.73,31.91-46.48l-2.06-18c-2.6-22.75-21.1-38.82-41.32-35.9l-1.8.26c-20.22,2.92-34.51,23.73-31.91,46.48l2.06,18.06C1021.72,839.34,1040.22,855.42,1060.44,852.49Z"/><path class="cls-10" d="M1090.21,801.25s-25.35-9.31-24.72-41.32c0,0-1.61-23.89,20.58-1.79S1090.21,801.25,1090.21,801.25Z"/><path class="cls-6" d="M1084.62,810c.87,7.66,7.1,13.07,13.91,12.09s11.62-8,10.75-15.65-7.1-13.08-13.91-12.09S1083.74,802.31,1084.62,810Z"/><path class="cls-10" d="M1076.49,785.22l1.15,10.09c2.58,14.25,7.92,9.94,9.9,3.77h0Z"/><path class="cls-10" d="M1013.2,780s25.88,21.82,63.84-10.51c26.16-22.28-13.4-30.29-13.4-30.29l-36.9,8.56Z"/><path class="cls-6" d="M1088.69,880.16s-22.16,44.47-37.88,30.79c-17-14.78,21.33-43.75,21.33-43.75Z"/><path class="cls-6" d="M1078.86,970.75s-13.69,28.38-23.06,50.68L956,1014.94s-19.82-18.24-35.31-2.84L936,1032.78l125,31.11a13.6,13.6,0,0,0,13.28-4.1c11.07-11.75,35.1-39.16,46.8-67.07Z"/><path class="cls-2" d="M801.9,927H924.55c4,0,7.52,3.17,8.36,7.61L956,1056.45c1.14,6-2.92,11.61-8.36,11.61H823c-4.09,0-7.61-3.26-8.39-7.78l-21-121.88C792.48,932.46,796.52,927,801.9,927Z"/><path class="cls-3" d="M794.83,927H917.49c4,0,7.51,3.17,8.35,7.61l23.09,121.89c1.13,6-2.92,11.61-8.36,11.61H815.88c-4.09,0-7.6-3.26-8.38-7.78l-21-121.88C785.42,932.46,789.46,927,794.83,927Z"/><path class="cls-2" d="M952.69,1057.66h83.81a4.94,4.94,0,0,1,4.62,5.2h0a4.94,4.94,0,0,1-4.62,5.2H951.07Z"/><path class="cls-11" d="M870.78,994.32c0,8.31-6,15-13.37,15s-13.36-6.72-13.36-15,6-15,13.36-15S870.78,986,870.78,994.32Z"/><path class="cls-5" d="M1121,880.81c1.65.82,56.64,31.22,2.54,125.38,0,0-34.54.66-54.56-28.31C1069,977.88,1075.65,858.39,1121,880.81Z"/><path class="cls-9" d="M1002.4,1391.08c-.75-2.47-3.11-3.38-4.72-1.77a20.45,20.45,0,0,1-17.19,6c-8.69-1-12-6.74-13.19-10.87-.65-2.17-2.52-3.29-4.16-2.36L910.41,1412a15.72,15.72,0,0,0-6.94,9.4h0c-1.17,4,1.18,8.2,4.47,8.1l91.11-2.83c3.59-.11,6.33-4.07,6-8.67l-1.52-22.58a4.46,4.46,0,0,0-.2-1.09Z"/><path class="cls-9" d="M869.43,1352.05c-.14-2.59-2.21-4.17-4.14-3.09a19.69,19.69,0,0,1-18,.77c-8.16-3.5-10-10-10.21-14.38-.12-2.28-1.66-3.91-3.47-3.49L775.8,1345.1a14.33,14.33,0,0,0-8.89,7h0c-2,3.47-.78,8.27,2.43,9.14l88.59,24.11c3.48,1,7.06-2.06,7.83-6.59l3.79-22.23a4.69,4.69,0,0,0,.07-1.12Z"/><path class="cls-12" d="M1073,983.09l-4-5.21a113.17,113.17,0,0,1,5.94-44.1"/><circle class="cls-13" cx="888" cy="223" r="223"/><circle class="cls-13" cx="379" cy="1082" r="223"/><g class="cls-14"><line class="cls-15" x1="418.37" y1="1234.26" x2="418.37" y2="1576.04"/><line class="cls-15" x1="638.11" y1="1234.26" x2="638.11" y2="1576.04"/><path class="cls-16" d="M288.43,1339.82s42.15-10.75,48.52,20.11c5.47,26.51-51.87,25.47-51.87,25.47l-126.1.87s-47.51,6.16-71-55.47S41.9,1107.74,41.9,1107.74,38.51,1085.53,55,1082.3c19.32-3.79,23.13,43.18,23.13,43.18s29.22,199.26,71.63,209c6.53,1.5,11.74,7.07,18.4,7Z"/><path class="cls-17" d="M400.52,1178.9l39.83-3.08a8.93,8.93,0,0,1,8.2,4.4l22.27,37.87-18.94,1-10.68-18.48s-30.77,8.65-42.14,0Z"/><path class="cls-18" d="M240.11,1056.21l53.21,111.21,110.56,4v40.91L287.11,1218c-15.42.76-30.09-7.54-38.73-21.94l-53.15-107.29Z"/><polygon class="cls-19" points="403.88 1171.39 403.88 1212.3 391.52 1212.91 391.52 1170.95 403.88 1171.39"/><path class="cls-16" d="M250.37,1046.69l9,16.29c.57,1.55.83,5.29-1.68,6.67l-3.51,2.85-7.52-12.92Z"/><path class="cls-20" d="M233.59,1063.89l-2.84-1.55c-9.37-5.16-13.26-17.89-8.68-28.44l30.44-70.12,33.81,18.58-35.21,78.54C247.34,1069.59,241.31,1068.14,233.59,1063.89Z"/><path class="cls-20" d="M311.51,996.2c-9.92,22.82-34.4,32.29-54.69,21.14s-28.7-38.69-18.79-61.52,34.39-32.29,54.68-21.14S321.42,973.37,311.51,996.2Z"/><path class="cls-20" d="M262.13,1041.58h0c-9.63-5.29-13.63-18.37-8.92-29.21l17.18-39.58,41.4,22.75-14,32.26C291.32,1042.68,275.36,1048.85,262.13,1041.58Z"/><path class="cls-20" d="M306.43,1004.84l2.24,17.71a3.27,3.27,0,0,1-4.77,3.36l-10.17-3.13Z"/><g class="cls-21"><path class="cls-22" d="M270.57,996s14.33,1,16.67-23.82c0,0,24.89,17.87,35,10.76,0,0,3.12-70.36-48.58-67.88S218,980.3,218,980.3l29,29.45Z"/></g><path class="cls-20" d="M272.64,997c-2.72,6.27-9.45,8.87-15,5.81s-7.88-10.64-5.16-16.91,9.45-8.87,15-5.81S275.36,990.73,272.64,997Z"/><path class="cls-22" d="M241.07,987.66l-7.68,20.17s16.88,15.23,25.39-4.37l-12.26-3.89Z"/><path class="cls-22" d="M287.24,972.16s33.74,29.31,47,4.76c10.61-19.6-1.18-32.3-18.23-29.11-7.37,1.37-11-4.24-16.76-8.63Z"/><path class="cls-5" d="M257,1082.29s-.77-17.89-5.83-24.12-31.94-23.35-31.94-23.35-38.71,12.62-62.47,62.37C138.19,1136,120.77,1234,120.77,1234l111.7,18.22C242.07,1179,260.13,1145.57,257,1082.29Z"/><path class="cls-16" d="M221,1031.39l-4.63,2.37a3,3,0,0,0-.64,4.73L245.28,1068a2.38,2.38,0,0,0,3.88-.7l3.33-6.47a3.1,3.1,0,0,0-.61-3.66l-28.2-25.42A2.32,2.32,0,0,0,221,1031.39Z"/><path class="cls-20" d="M388.22,1185.56l39.83-3.07a8.91,8.91,0,0,1,8.2,4.4l20.41,32.68-19.06,2.75-8.7-15s-30.77,8.65-42.14,0Z"/><path class="cls-5" d="M217.49,1064.5l60.1,114.07,114,3.51V1219l-123,6c-11.55.57-22.55-5.66-29-16.44L172.62,1097.1Z"/><polygon class="cls-16" points="391.58 1182.08 391.58 1218.96 379.22 1219.57 379.22 1182.08 391.58 1182.08"/><path class="cls-23" d="M120.77,1234l219.67,35.82c16.83,2.75,29.8,18.07,31.42,37.1l16.36,210.49L339.15,1521l-23.57-182.43-138,4c-37.45,0-66.16-37.41-60.71-79.09Z"/><rect class="cls-24" x="394.29" y="1218.09" width="115.87" height="8.46"/><polygon class="cls-24" points="510.16 1226.55 547.66 1103.38 539.78 1101.27 503.04 1219.57 510.16 1226.55"/><path class="cls-17" d="M260.29,1040.42a26.57,26.57,0,0,1-10.44-21.54,28.88,28.88,0,0,0,6.76,29.76Z"/><path class="cls-25" d="M89.27,1584a4,4,0,0,0,3.79-3.31l57.35-254.41c4.74-21.06,21.55-35.78,40.87-35.78,18.76,0,35.43,14.18,40.55,34.47,20,79.5,66.75,252.94,67.22,254.68a3.84,3.84,0,0,0,4.87,2.94,4.51,4.51,0,0,0,2.61-5.49c-.47-1.74-47.16-175.1-67.18-254.52-6.06-24.07-25.84-40.87-48.07-40.87-22.9,0-42.82,17.44-48.45,42.41l-57.35,254.4a4.48,4.48,0,0,0,2.83,5.35A3.52,3.52,0,0,0,89.27,1584Z"/><line class="cls-26" x1="239.56" y1="1208.57" x2="205.11" y2="1151.2"/><rect class="cls-16" x="375.92" y="1226.55" width="300.17" height="15.2"/><line class="cls-15" x1="418.37" y1="1278.71" x2="638.11" y2="1278.71"/><line class="cls-26" x1="259.77" y1="1141.9" x2="226.76" y2="1082.08"/></g><circle class="cls-13" cx="223" cy="483" r="223"/><g class="cls-27"><path class="cls-22" d="M332.59,308.52s10.69,1,11.6,17.59,1,64.89-19.09,67.84-5.62-79.28-5.62-79.28Z"/><path class="cls-22" d="M262.9,323.41s-8.11,25.45,8.1,30.12,13.2-32.25,13.2-32.25Z"/><path class="cls-20" d="M382.21,464l50.2,79.6.22.36a13.89,13.89,0,0,1,2,5.46l16.19,118.15-24.29,4-23-117,2.21,5.81-50.19-79.6Z"/><path class="cls-20" d="M445,708.15c13.2-4.45,20.69-20.09,16.73-34.94s-17.86-23.28-31.06-18.83-20.68,20.1-16.73,35S431.79,712.6,445,708.15Z"/><path class="cls-20" d="M277.62,490.89,245.87,600l-.14.49a15.15,15.15,0,0,1-16.1,10.83L126.71,600.65l1.73-24.57,103.4,3.83L215.6,591.23l31.76-109.15Z"/><polygon class="cls-20" points="252.15 1038.95 236.59 1087.19 213.85 1064.16 228.35 1025.54 252.15 1038.95"/><path class="cls-25" d="M245.6,1076c0-2.36-1.81-3.91-3.61-3a17.86,17.86,0,0,1-16.32-.36c-7.23-3.65-8.57-9.67-8.58-13.62,0-2.08-1.32-3.64-3-3.37l-53,8.59a12.76,12.76,0,0,0-8.37,5.84h0c-2,3-1.08,7.43,1.78,8.41l79.09,27c3.11,1.07,6.48-1.45,7.4-5.5l4.46-19.91a3.82,3.82,0,0,0,.11-1Z"/><polygon class="cls-20" points="458.91 1006.23 476.17 1044.19 456.1 1063.5 434.42 1017.94 458.91 1006.23"/><path class="cls-25" d="M479.77,1035.83a2.53,2.53,0,0,0-4.4,1.13,21.8,21.8,0,0,1-10.82,13.76c-7.15,3.83-12.09,1.09-14.77-1.47-1.41-1.34-3.33-1.22-4.21.37l-28.49,51a16.16,16.16,0,0,0-1.46,11h0c.74,3.69,4.34,5.74,6.85,3.92l69.52-50.3c2.74-2,3.22-6.5,1.07-9.9l-10.6-16.73a3.65,3.65,0,0,0-.61-.74Z"/><polygon class="cls-28" points="269.72 650.24 337.72 862.47 433.99 1041.94 476.94 1018.09 391.36 839.16 344.39 660.23 269.72 650.24"/><path class="cls-7" d="M374.81,653.36s12.87,27.37-7.12,71.11L305.62,857.72l-47.31,201.93-47-18.45,45-204.22,48.61-159.37-35.17-27.38Z"/><path class="cls-29" d="M316.24,417.54l53,12.22A25.23,25.23,0,0,1,384.66,441l33.69,52.81-45,33.13,16.22,144.61s-18.33,63.15-130.25,12.8c0,0,9.65-119.86,3.19-197.91l3.3-51.38Z"/><path class="cls-29" d="M265.79,435.1,257,438.72c-7.29,3-13,9.57-15.36,17.86l-18.34,62.93,53.93,11.22Z"/><path class="cls-20" d="M94,580C94,595.47,105.2,608,119,608s25-12.57,25-28.07-11.17-28.06-25-28.06S94,564.47,94,580Z"/><path class="cls-20" d="M301.28,435.79l6,3.73c11.69-1.08,22.66-3.86,21.7-17L326.19,384l-42.33,3.92,2.8,38.49C287.63,439.57,289.59,436.87,301.28,435.79Z"/><path class="cls-30" d="M326.78,388.67s-5.83,28.53-27.1,27.52C281.06,415.3,282.84,384,282.84,384Z"/><path class="cls-20" d="M301.26,406.28l7.67-.93c16.89-2.05,29.1-19.12,27.27-38.11l-2.66-27.67c-1.83-19-17-32.73-33.88-30.68l-7.67.93c-16.88,2.06-29.09,19.12-27.27,38.11l2.66,27.67C269.2,394.6,284.37,408.33,301.26,406.28Z"/><line class="cls-31" x1="370.24" y1="516.95" x2="356.61" y2="498.85"/><line class="cls-31" x1="264.54" y1="528.1" x2="262.49" y2="490.75"/><path class="cls-32" d="M301.28,435.79l26.89-18.25c11.5-5.39,18.78,7.08,18.78,7.08l-32,35.32-13.67-24.15"/><path class="cls-32" d="M301.28,435.79l-13,22.68-13-26.66s5.12-9.09,12.14-7Z"/><path class="cls-3" d="M231.13,581.11H68.42c-2.7,0-4.89-2.47-4.89-5.51h0c0-3,2.19-5.5,4.89-5.5H231.13c2.7,0,4.89,2.46,4.89,5.5h0C236,578.64,233.83,581.11,231.13,581.11Z"/><path class="cls-3" d="M63.53,574.2,44.08,467.87c-.48-2.64,1.31-5.13,3.72-5.13h99a3.94,3.94,0,0,1,3.72,3.44l19.17,108Z"/><polygon class="cls-33" points="55.07 470.83 73.2 567.29 162.96 567.29 144.82 470.83 55.07 470.83"/><path class="cls-22" d="M331.63,359.43h-11l-2.13-13.56s-11.47-6.92-9.26-20.33c0,0-48.39,19.5-55.91-2.19-9.94-28.65,26.15-35.74,55.91-34.94s27.59,43.51,27.59,43.51Z"/><path class="cls-20" d="M325.21,356.72c.7,7.23,6.47,12.46,12.9,11.68s11.08-7.28,10.38-14.51-6.47-12.46-12.9-11.68S324.52,349.49,325.21,356.72Z"/></g><g class="cls-34"><path class="cls-20" d="M800,197c-1.32-13.11-11.84-22.54-23.5-21.05s-20,13.32-18.71,26.43,11.84,22.54,23.5,21.05S801.29,210.11,800,197Z"/><polygon class="cls-20" points="786.96 191.52 811.45 247.08 791.4 259.07 771.3 218.82 786.96 191.52"/><path class="cls-35" d="M949.09,285.36,839,350.47c-4.37,2.84-10,.93-12.2-4.17L775.69,242l29.42-21.53,41,77.25,77.53-55.07c11.49-10,28.23-5.56,34.58,9.12h0C963.52,263.93,959.51,278.61,949.09,285.36Z"/><path class="cls-17" d="M931.43,605.21s27.55,53.33,43.36,87.91c2.46,5.38,6.53,9.35,10.13,13.85,10.87,13.6,21.14,28.25,33.16,54.47,17.91,39,47.76,117.79,47.76,117.79l20.84-8.71-22.48-86.69s-3.78-76.18-47.17-117.06c0,0-11.78-23-21.9-68Z"/><path class="cls-20" d="M892.86,582.16s28.58,203.61,23.79,303.72l24.69,1,7.24-88s21.55-60.48-.3-113l10.07-118.21Z"/><path class="cls-35" d="M964.27,200.33s27.48,27.59,20.52,68.5-27.2,58.51-23.82,85.49l-78.51-3.19,1.6-50.08s-25.52-21.91,1.83-56.87L909.42,214l21.09,3.05Z"/><polygon class="cls-36" points="923.41 193.52 907.51 203.97 896.86 224.15 918.8 216.6 923.41 193.52"/><path class="cls-20" d="M930.51,217.06h0c4.74,0,9.75-2.25,13.49-4.4a12.71,12.71,0,0,0,6-11.15l-.77-85.67-33.28.18.76,84.59C916.71,210.32,922.91,217.1,930.51,217.06Z"/><path class="cls-17" d="M916.46,176.85,930.2,155s8.41,25-13.64,32.7Z"/><path class="cls-20" d="M886.48,116.18c.11,25.5,18.58,46.08,41.25,46s41-20.9,40.86-46.4-18.58-46.09-41.25-46S886.37,90.67,886.48,116.18Z"/><path class="cls-20" d="M913.51,177.12h0c10.76-.06,19.45-9.93,19.4-22l-.14-31.61-46.29-7.29.13,31C886.68,163.77,898.72,177.19,913.51,177.12Z"/><path class="cls-20" d="M887.72,126.49l-8.9,14.91a3.63,3.63,0,0,0,3,5.38l10.4,2.16Z"/><path class="cls-36" d="M950.48,185.59,909.42,214l8.9,19.73,45.95-33.41S958.54,189,950.48,185.59Z"/><polygon class="cls-36" points="960.97 354.32 966.57 375.9 881.31 372.44 882.46 351.13 960.97 354.32"/><path class="cls-37" d="M881.31,372.44l-3.87,242.83s85.95,19,133.24-13.94c0,0-18.49-78.12-15-110,6.38-58.53-.93-83.85-29.11-115.4Z"/><path class="cls-25" d="M949,873.76c-.62-2.44-2.88-3.44-4.51-2a19.69,19.69,0,0,1-17,5c-8.41-1.4-11.37-7.17-12.4-11.25-.54-2.14-2.31-3.32-4-2.5L858.69,889.4a15.1,15.1,0,0,0-7.13,8.79h0c-1.29,3.79.83,8,4,8.1l88.71,1.86c3.49.08,6.32-3.63,6.2-8.12L950,878a4.86,4.86,0,0,0-.16-1.08Z"/><path class="cls-25" d="M1090.15,853.62c-1.18-2.16-3.6-2.46-4.82-.54a21.1,21.1,0,0,1-15.17,9.88c-8.44,1.17-12.65-3.52-14.6-7.14-1-1.91-3-2.52-4.4-1.24l-44.4,41a16.29,16.29,0,0,0-4.8,10.6h0c-.36,4,2.68,7.5,5.79,6.61l86-24.63c3.38-1,5.24-5.39,4.08-9.68l-5.74-21.08a4.74,4.74,0,0,0-.39-1Z"/><path class="cls-38" d="M932.74,136.12l-17.45-.71s-1.49-17-4.9-21.14-5.14-22.33-5.14-22.33a55.76,55.76,0,0,0-.74,23.08l-25.19-1s-5.47-49.93,50-52.35,53.9,56.57,43,68.27c-8.66,9.31-22.74,25.82-22.74,25.82S950.19,136.82,932.74,136.12Z"/><path class="cls-20" d="M920.1,130.07c-.23,7.29,4.83,13.41,11.3,13.67s11.92-5.43,12.15-12.71-4.83-13.41-11.3-13.67S920.34,122.79,920.1,130.07Z"/><path class="cls-38" d="M964.54,139.43c-.53,16.46,10.91,30.28,25.54,30.88S1017,158,1017.53,141.58,1006.62,111.29,992,110.7,965.07,123,964.54,139.43Z"/><path class="cls-20" d="M935.2,405.26c-11.55,2.27-19.29,14.65-17.28,27.64s13,21.71,24.58,19.44,19.29-14.64,17.27-27.64S946.76,403,935.2,405.26Z"/><polygon class="cls-20" points="928 408.29 975.83 377.46 987.66 399.27 953.15 424.24 928 408.29"/><path class="cls-35" d="M978.57,220.19l76.77,113.43a10.64,10.64,0,0,1-1.52,14.24l-82.95,72-24-28.84,61-56.14L945.61,255.8c-10.73-11-9.79-30.3,2-39.9h0C957.3,208,970.84,209.82,978.57,220.19Z"/><path class="cls-22" d="M749.93,143.72l22.93,68.48a3.23,3.23,0,0,0,4.09,2.24l30.57-10.83a3.84,3.84,0,0,0,2.08-4.91l-23.7-67.56a3.23,3.23,0,0,0-4-2.2l-29.79,9.9A3.82,3.82,0,0,0,749.93,143.72Z"/><path class="cls-33" d="M757.69,146.66,775,202a2.3,2.3,0,0,0,2.81,1.68l22.93-6.71a2.72,2.72,0,0,0,1.59-3.53l-19.65-55.81a2.29,2.29,0,0,0-2.89-1.55l-20.58,7.23A2.73,2.73,0,0,0,757.69,146.66Z"/></g><path class="cls-39" d="M903,491c5.68,20.36-1.22,58.59-10.27,77.68C887.85,579,881,588.24,874.27,597.42c-10.3,14-20.76,28.1-34.35,38.89-8.07,6.41-17.1,11.52-25.49,17.52a144.84,144.84,0,0,0-24.68,22.38c-6.55,7.49-12.49,16-14.11,25.86-2.3,13.94,4.52,27.86,13.18,39s19.35,20.78,26.87,32.76c10.37,16.52,14,36.56,13.61,56.07s-4.51,38.71-8.63,57.78"/><path class="cls-39" d="M761.51,996c-39.29-.53-78,22.17-96.78,56.71a63.57,63.57,0,0,0-7.12,19c-2.94,16.52,3.6,33.38,12.67,47.49,2.57,4,5.44,8,9.4,10.58,8.5,5.64,20.08,3.86,29.18-.75,25.7-13,37.35-45.56,32.16-73.89s-24.2-52.46-46.45-70.75c-12.42-10.21-26.44-19.17-42.21-22.29-20.85-4.11-42.18,2.36-62.45,8.76"/><path class="cls-39" d="M450,577s85,9,159,85S581,799,751,927"/></svg>