<svg xmlns="http://www.w3.org/2000/svg" width="876" height="685" viewBox="0 0 876 685">
  <defs>
    <linearGradient id="selecting-a-service-a" x1="55.565%" x2="55.565%" y1="79.963%" y2="-4.942%">
      <stop offset="0%" stop-color="#B1BEE2"/>
      <stop offset="100%" stop-color="#C7E5AA"/>
    </linearGradient>
  </defs>
  <g fill="none" fill-rule="evenodd">
    <path fill="url(#selecting-a-service-a)" d="M508.976593,98.9269331 C452.818085,96.9365933 399.326409,78.3807404 348.253486,58.0823721 C297.180564,37.7840038 246.580539,15.2861938 191.770952,4.52906537 C156.51296,-2.38678465 116.19264,-3.36259328 87.7877842,15.9754554 C60.4450099,34.5622864 51.6150071,66.732993 46.870528,96.5183896 C43.2966638,118.977477 41.1957588,142.559519 50.9793089,163.562638 C57.7781785,178.145556 69.8486916,190.397375 78.1980446,204.360732 C107.230846,252.95755 86.7257031,312.884591 55.2353858,360.335222 C40.5057937,382.592952 23.3496952,403.828406 11.9613948,427.518871 C0.573094432,451.209336 -4.69854904,478.361598 5.26330664,502.532223 C15.1476382,526.493746 38.6839758,544.484249 64.1816749,557.138783 C115.975572,582.850566 177.01035,590.207854 236.525654,594.374401 C368.270227,603.598116 500.720269,599.601948 632.8137,595.605779 C681.700441,594.118833 730.796497,592.624142 778.892491,584.887373 C805.591815,580.589168 833.159409,573.773997 852.540451,557.309163 C877.154375,536.398978 883.255527,501.029787 866.758384,474.8301 C839.121018,430.895479 762.627921,419.991204 743.293393,372.811632 C732.649325,346.852025 743.580232,317.934013 759.046304,293.8176 C792.226648,242.169444 847.842487,196.856299 850.7729,137.812132 C852.788529,97.2618628 826.050443,56.6496372 784.714556,37.4664787 C741.378546,17.3307452 681.297315,19.8864345 649.326348,53.1723509 C616.409586,87.5037766 558.561051,100.692682 508.976593,98.9269331 Z"/>
    <g fill-rule="nonzero" transform="translate(60.7 58.7)">
      <polygon fill="#ADADAD" points="435.77 549.99 257.58 547.71 258.11 543.14 266.72 467.75 423.21 467.75 434.72 543.14 435.6 548.85"/>
      <polygon fill="#939393" points="435.6 548.85 346.68 548.85 257.58 547.652 258.11 542.85 434.72 542.85"/>
      <rect width="236.45" height="5.71" x="227.88" y="544.28" fill="#CCC"/>
      <path fill="#444053" d="M689.920386,14.95 C689.94144,11.0044897 688.393779,7.21227551 685.617944,4.40830657 C682.842109,1.60433764 679.065693,0.0185162859 675.120169,2.84217094e-14 L14.8001692,2.84217094e-14 C6.58604708,0.0440711327 -0.038591261,6.73585108 1.13686838e-13,14.95 L1.13686838e-13,415.21 L689.920386,415.21 L689.920386,14.95 Z"/>
      <path fill="#CCC" d="M0.00016922515,411.21 L0.00016922515,458.09 C0.00016922515,466.263814 6.62635493,472.890003 14.8001692,472.890003 L675.120169,472.890003 C679.046187,472.892655 682.812168,471.334227 685.588282,468.558113 C688.364396,465.781998 689.920173,462.016017 689.920173,458.09 L689.920173,411.21 L0.00016922515,411.21 Z"/>
      <rect width="636.23" height="359.81" x="28.56" y="25.13" fill="#FFF"/>
      <path fill="#ADADAD" d="M348.390169,455.11 C353.122823,455.110804 357.594083,452.939681 360.520169,449.22 L360.520169,449.22 C360.961014,448.658748 361.361996,448.0673 361.720169,447.45 L353.300169,446.05 L362.450169,446.12 C364.223748,442.259996 364.328646,437.839791 362.740169,433.9 L350.470169,440.27 L361.790169,431.95 C358.86876,427.019247 353.453702,424.115535 347.730075,424.410566 C342.006448,424.705596 336.918646,428.150691 334.519695,433.355687 C332.120745,438.560684 332.806471,444.666761 336.300169,449.21 L336.300169,449.21 C339.215559,452.922418 343.669857,455.096145 348.390169,455.11 Z"/>
      <polygon fill="#939393" points="363.81 472.89 434.9 544.28 423.99 472.89"/>
      <rect width="636.92" height="21.02" x="28.06" y="25.17" fill="#CCC"/>
      <circle cx="38.8" cy="35.8" r="4.5" fill="#E64C3B"/>
      <circle cx="50.8" cy="35.8" r="4.5" fill="#EAD539"/>
      <circle cx="62.8" cy="35.8" r="4.5" fill="#91C73D"/>
      <rect width="191.9" height="12.79" x="249.2" y="28.83" fill="#C7E5AA" rx=".58"/>
      <path fill="#444053" d="M435.400169,36.54 L434.930169,36.54 L434.760169,36.4 C435.342017,35.7000317 435.663563,34.820197 435.670169,33.91 C435.659095,31.8168838 433.953321,30.1290502 431.860205,30.1400514 C429.767089,30.1511605 428.079239,31.8569183 428.090221,33.9500346 C428.101311,36.043151 429.807053,37.7310163 431.900169,37.72 C432.806036,37.7062705 433.680411,37.3854314 434.380169,36.81 L434.550169,36.95 L434.550169,37.42 L437.480169,40.35 L438.350169,39.47 L435.400169,36.54 Z M431.900169,36.54 C430.83058,36.5440439 429.864245,35.9023154 429.45306,34.914912 C429.041876,33.9275086 429.267107,32.7895764 430.023426,32.033257 C430.779746,31.2769375 431.917678,31.0517067 432.905081,31.4628911 C433.892485,31.8740755 434.534213,32.8404105 434.530169,33.91 C434.535548,34.6091543 434.260187,35.2812346 433.765795,35.7756259 C433.271404,36.2700173 432.599324,36.5453783 431.900169,36.54 L431.900169,36.54 Z"/>
    </g>
    <g fill-rule="nonzero" transform="translate(369 653)">
      <ellipse cx="150" cy="16" fill="#91C73D" rx="150" ry="16"/>
      <ellipse cx="150" cy="19" fill="#2A2A2A" opacity=".112" rx="113" ry="12"/>
    </g>
    <g fill-rule="nonzero" transform="translate(604.84 502.212)">
      <ellipse cx="49.16" cy="108.998" fill="#ADADAD" rx="45" ry="6.21"/>
      <ellipse cx="18.09" cy="106.348" fill="#932D03" rx="3.76" ry="4.92"/>
      <ellipse cx="18.09" cy="100.338" fill="#932D03" rx="3.76" ry="4.92"/>
      <ellipse cx="18.09" cy="94.318" fill="#932D03" rx="3.76" ry="4.92"/>
      <ellipse cx="18.09" cy="88.308" fill="#932D03" rx="3.76" ry="4.92"/>
      <ellipse cx="18.09" cy="82.288" fill="#932D03" rx="3.76" ry="4.92"/>
      <ellipse cx="18.09" cy="76.278" fill="#932D03" rx="3.76" ry="4.92"/>
      <ellipse cx="18.09" cy="70.258" fill="#932D03" rx="3.76" ry="4.92"/>
      <path fill="#91C73D" d="M32.1600312,29.0977132 C32.6732166,28.4438403 33.1409795,27.7555605 33.5600312,27.0377132 L23.6800312,25.4177132 L34.3600312,25.4977132 C36.4312933,20.9909207 36.5578597,15.8306292 34.7100312,11.2277132 L20.3700312,18.6677132 L33.5900312,8.94771323 C30.2073753,3.13402355 23.8655641,-0.308654346 17.147519,0.0218289928 C10.429474,0.352312332 4.45617906,4.40081192 1.66046487,10.5184365 C-1.13524933,16.6360611 -0.286885384,23.8020139 3.86003119,29.0977132 C3.05897648,30.1184634 2.36844729,31.2212988 1.80003119,32.3877132 L14.6300312,39.0477132 L0.950031191,34.4577132 C0.322505953,36.320236 0.00166193048,38.2723186 -5.68434189e-14,40.2377132 C-0.00751118889,44.2772291 1.35303834,48.2002644 3.86003119,51.3677132 C-1.93764326,58.7483065 -1.09135102,69.3448979 5.80425706,75.7117475 C12.6998651,82.0785972 23.3301972,82.0785972 30.2258053,75.7117475 C37.1214134,69.3448979 37.9677056,58.7483065 32.1700312,51.3677132 C37.3103627,44.8329496 37.3062292,35.6278579 32.1600312,29.0977132 L32.1600312,29.0977132 Z"/>
      <path fill="#6FB227" d="M0,40.2277132 C-0.00751118889,44.2672291 1.35303834,48.1902644 3.86003119,51.3577132 C-1.93764326,58.7383065 -1.09135102,69.3348979 5.80425706,75.7017475 C12.6998651,82.0685972 23.3301972,82.0685972 30.2258053,75.7017475 C37.1214134,69.3348979 37.9677056,58.7383065 32.1700312,51.3577132 C34.5800312,48.2977132 0,38.2077132 0,40.2277132 Z"/>
    </g>
    <g transform="translate(164 148)">
      <circle cx="38" cy="50" r="38" fill="#2A2A2A" opacity=".067"/>
      <circle cx="38" cy="167" r="38" fill="#2A2A2A" opacity=".067"/>
      <circle cx="150" cy="50" r="38" fill="#2A2A2A" opacity=".067"/>
      <circle cx="149" cy="167" r="38" fill="#2A2A2A" opacity=".067"/>
      <circle cx="257" cy="50" r="38" fill="#2A2A2A" opacity=".067"/>
      <circle cx="256" cy="169" r="40" fill="#2A2A2A" opacity=".097"/>
      <circle cx="364" cy="50" r="38" fill="#2A2A2A" opacity=".067"/>
      <circle cx="364" cy="167" r="38" fill="#2A2A2A" opacity=".067"/>
      <circle cx="469" cy="50" r="38" fill="#2A2A2A" opacity=".067"/>
      <circle cx="469" cy="167" r="38" fill="#2A2A2A" opacity=".067"/>
      <g transform="translate(3 129)">
        <ellipse cx="36.804" cy="36.5" fill="#C3ECF6" fill-rule="nonzero" rx="36.804" ry="36.5"/>
        <g transform="translate(22.082 10.95)">
          <path fill="#077989" fill-rule="nonzero" d="M53.010234,0 L4.81911225,0 C2.15758993,0 0,2.14327779 0,4.78714494 L0,36.7014445 C0,39.3453116 2.15758993,41.4885895 4.81911225,41.4885895 L53.010234,41.4885895 C55.6717563,41.4885895 57.8293462,39.3453116 57.8293462,36.7014445 L57.8293462,4.78714494 C57.8293462,2.14327779 55.6717563,0 53.010234,0 Z"/>
          <polygon fill="#5F30AA" fill-rule="nonzero" points="51.469 35.138 6.491 35.138 6.491 6.415 51.469 6.415"/>
          <path fill="#53CBE4" fill-rule="nonzero" d="M35.4833621,46.4454541 L33.8574611,41.608024 L24.1020546,41.608024 L22.4761536,46.4454541 L15.1595988,46.4454541 C13.8126582,46.4454541 12.7207471,47.5283497 12.7207471,48.8641693 C12.7207471,50.1999886 13.8126582,51.2828842 15.1595988,51.2828842 L42.7999169,51.2828842 C44.1468575,51.2828842 45.2387686,50.1999886 45.2387686,48.8641693 C45.2387686,47.5283497 44.1468575,46.4454541 42.7999169,46.4454541 L35.4833621,46.4454541 Z"/>
          <polygon fill="#53CBE4" fill-rule="nonzero" points="6.217 6.134 6.217 35.158 51.742 35.158 51.742 6.134"/>
          <path fill="#077989" fill-rule="nonzero" d="M25.9037288 15.8955579C25.9037288 18.5912656 23.7002326 20.7765684 20.9820823 20.7765684 18.263932 20.7765684 16.0604358 18.5912656 16.0604358 15.8955579 16.0604358 13.1998502 18.263932 11.0145474 20.9820823 11.0145474 22.2873842 11.0145474 23.5392242 11.5287953 24.4622119 12.4441623 25.3851996 13.3595293 25.9037288 14.6010333 25.9037288 15.8955579zM24.4272349 21.9968211L23.7851138 21.9968211C22.0064145 22.8101957 19.9577501 22.8101957 18.1790508 21.9968211L17.5369298 21.9968211C14.6831357 21.9974525 12.3698377 24.2916506 12.369201 27.1218821L12.369201 28.7082105C12.369201 29.7191009 13.1955121 30.5385895 14.2148184 30.5385895L27.7493462 30.5385895C28.7686526 30.5385895 29.5949637 29.7191009 29.5949637 28.7082105L29.5949637 27.1218821C29.594327 24.2916506 27.281029 21.9974525 24.4272349 21.9968211L24.4272349 21.9968211z"/>
          <path fill="#C3ECF6" fill-rule="nonzero" d="M41.9533135,16.0702957 C41.3333912,15.2587489 40.4281685,14.7534767 39.4488943,14.6723929 C39.016664,14.6514222 38.5923169,14.8007091 38.2568345,15.0917637 C37.9750324,15.3189486 37.8059148,15.6706528 37.7975088,16.0469974 C37.8176169,16.3940501 37.9625453,16.7194899 38.2021528,16.9556341 C38.6657507,17.397749 39.2090264,17.7346565 39.7988568,17.9458153 C40.8319522,18.3566411 41.8157728,18.8962565 42.7297929,19.5534035 C43.2417569,19.978595 43.6536492,20.5250266 43.932789,21.1493425 C44.2244887,21.7999049 44.3704899,22.5136922 44.3593058,23.2345474 C44.3654049,23.9761219 44.2120229,24.7093393 43.9109164,25.3779984 C43.6409945,25.9887582 43.2401683,26.5234473 42.7407291,26.9389898 C42.1258962,27.3811333 41.4280184,27.6753001 40.6956358,27.8010299 L40.6956358,30.5385895 L38.8911415,30.5385895 L38.8911415,27.8359775 C38.1270671,27.7682746 37.3834077,27.5385559 36.7038758,27.1603245 C35.8879738,26.6596244 35.15008,26.0269009 34.5166102,25.2848048 L36.342977,23.2927935 C37.1691835,24.4293914 38.4005521,25.1505786 39.7441751,25.2848048 C40.2831636,25.2908629 40.8023735,25.0688034 41.1877705,24.6673977 C41.5683312,24.291231 41.7860132,23.7642513 41.7892686,23.2112491 C41.7960469,22.7599734 41.6570514,22.3199194 41.3955609,21.9647858 C40.9693552,21.4949541 40.455158,21.1258425 39.8863475,20.8814112 C38.8018406,20.3901902 37.7621387,19.7935589 36.7804302,19.0990851 C36.2810816,18.7026605 35.8702644,18.1934584 35.577434,17.6079888 C35.3151434,17.0639673 35.1800786,16.460518 35.1837263,15.8489612 C35.1842055,14.8431922 35.5809759,13.8838156 36.277359,13.204595 C36.9986541,12.4670386 37.9569524,12.0504007 38.9567595,12.039676 L38.9567595,11.0145474 L40.7612537,11.0145474 L40.7612537,12.1794664 C41.3168436,12.3077399 41.85133,12.5236908 42.3470214,12.8201718 C42.8869968,13.1940075 43.3795357,13.6403464 43.8124893,14.1481794 L41.9533135,16.0702957 Z"/>
        </g>
      </g>
      <g transform="translate(428 127)">
        <ellipse cx="37.435" cy="37.5" fill="#D6DCF0" fill-rule="nonzero" rx="37.402" ry="37.5"/>
        <g transform="translate(3.543 7.105)">
          <path fill="#8FA2D5" fill-rule="nonzero" d="M14.3265842,6.49081024 L19.9807642,32.3965226 L50.224053,32.0986068 C51.3733439,32.0823482 52.3596315,31.2879266 52.6040681,30.1815841 L57.2457555,9.00366434 C57.3930589,8.36029212 57.2691396,7.68557814 56.9023378,7.13382791 C56.535536,6.58207768 55.9572258,6.20048487 55.2996656,6.07631886 C55.1160862,6.05722537 54.9309762,6.05722537 54.7473969,6.07631886 L14.3265842,6.49081024 Z"/>
          <ellipse cx="35.728" cy="19.243" fill="#D6DCF0" rx="8.76" ry="8.783"/>
          <path fill="#3B5B95" fill-rule="nonzero" d="M36.7059055,23.8815789 C36.8456693,23.8815789 36.9574803,23.7554605 36.9574803,23.6153289 L36.9574803,14.6188816 C36.9574803,14.47875 36.8456693,14.3526316 36.7059055,14.3526316 L35.7275591,14.3526316 L33.7149606,16.0482237 C33.6590551,16.1042763 33.6311024,16.1883553 33.6450787,16.3004605 L33.728937,16.9871053 C33.7429134,17.1132237 33.8826772,17.1973026 34.0084646,17.1692763 L35.2383858,16.9030263 L35.2383858,23.6153289 C35.2383858,23.7554605 35.3501969,23.8815789 35.503937,23.8815789 L36.7059055,23.8815789 Z"/>
          <path fill="#3B5B95" fill-rule="nonzero" d="M22.3482766,36.2858264 L49.8417626,36.2858264 C50.5058124,36.2680905 51.1488089,36.5205641 51.6246526,36.9858807 C52.1004963,37.4511973 52.3687797,38.0898438 52.3685449,38.7567091 C52.3662219,38.9425166 52.3442789,39.1275529 52.3030843,39.3087148 L51.7401222,41.8058836 C53.9649207,42.9101929 55.2239555,45.3311351 54.854799,47.7949571 C54.4856425,50.2587791 52.5729022,52.2007924 50.1229465,52.599227 C47.6729906,52.9976615 45.2473299,51.7611995 44.1222,49.5403922 C42.9970701,47.3195848 43.4303419,44.623424 45.1940541,42.870466 L23.6836744,42.870466 C25.3436035,44.4975472 25.8633854,46.9683969 25.0005319,49.1303161 C24.1376781,51.2922353 22.0622132,52.7192209 19.7423811,52.7462876 C17.4225488,52.7718926 15.3154693,51.3923893 14.4041353,49.2506116 C13.4928014,47.1088338 13.9567902,44.626816 15.5796421,42.9624669 C15.9462611,42.5807876 16.3650281,42.253323 16.8233951,41.9898855 L9.62272012,6.66151936 L2.46132161,6.66151936 C1.80853852,6.66151936 1.18249175,6.40119497 0.720904409,5.93781456 C0.259317067,5.47443416 0,4.84595546 0,4.19063663 L0,2.54776245 C0,1.8924436 0.259317067,1.26396489 0.720904409,0.8005845 C1.18249175,0.337204105 1.80853852,0.0768796974 2.46132161,0.0768796974 L12.9350306,0.0768796974 C14.1020351,0.0776245855 15.1080999,0.900972079 15.3439836,2.04832871 L22.3482766,36.2858264 Z"/>
        </g>
      </g>
      <g transform="translate(218 129)">
        <ellipse cx="37.5" cy="36.5" fill="#C7E5AA" fill-rule="nonzero" rx="37.5" ry="36.5"/>
        <g transform="translate(2.566 7.108)">
          <g fill-rule="nonzero">
            <path fill="#237209" d="M41.0690789,0 L3.73355263,0 C1.67156845,0 0,1.63108893 0,3.6431391 L0,30.3594925 C0,32.3715426 1.67156845,34.0026316 3.73355263,34.0026316 L41.0690789,34.0026316 C43.1310631,34.0026316 44.8026316,32.3715426 44.8026316,30.3594925 L44.8026316,3.6431391 C44.8026316,1.63108893 43.1310631,0 41.0690789,0 Z"/>
            <path fill="#C7E5AA" d="M11.4391447,26.7026316 C11.9523699,26.7026316 12.3684211,27.1219228 12.3684211,27.6391447 L12.3684211,28.2634868 C12.3684211,28.7807088 11.9523699,29.2 11.4391447,29.2 L5.86348684,29.2 C5.3502617,29.2 4.93421053,28.7807088 4.93421053,28.2634868 L4.93421053,27.6391447 C4.93421053,27.1219228 5.3502617,26.7026316 5.86348684,26.7026316 L11.4391447,26.7026316 Z M26.3075658,26.7026316 C26.8207909,26.7026316 27.2368421,27.1219228 27.2368421,27.6391447 L27.2368421,28.2634868 C27.2368421,28.7807088 26.8207909,29.2 26.3075658,29.2 L15.7757675,29.2 C15.2625424,29.2 14.8464912,28.7807088 14.8464912,28.2634868 L14.8464912,27.6391447 C14.8464912,27.1219228 15.2625424,26.7026316 15.7757675,26.7026316 L26.3075658,26.7026316 Z M20.8417528,17.0973684 C21.3585465,17.0973684 21.7774906,17.5005331 21.7774906,17.9978618 L21.7774906,20.9995066 C21.7774906,21.4968354 21.3585465,21.9 20.8417528,21.9 L15.8511513,21.9 C15.3343576,21.9 14.9154135,21.4968354 14.9154135,20.9995066 L14.9154135,17.9978618 C14.9154135,17.5005331 15.3343576,17.0973684 15.8511513,17.0973684 L20.8417528,17.0973684 Z M12.7320254,17.0973684 C13.2488191,17.0973684 13.6677632,17.5005331 13.6677632,17.9978618 L13.6677632,20.9995066 C13.6677632,21.4968354 13.2488191,21.9 12.7320254,21.9 L5.86994831,21.9 C5.3531546,21.9 4.93421053,21.4968354 4.93421053,20.9995066 L4.93421053,17.9978618 C4.93421053,17.5005331 5.3531546,17.0973684 5.86994831,17.0973684 L12.7320254,17.0973684 Z M28.9514803,17.0973684 C29.468274,17.0973684 29.887218,17.5005331 29.887218,17.9978618 L29.887218,20.9995066 C29.887218,21.4968354 29.468274,21.9 28.9514803,21.9 L23.9608788,21.9 C23.4440851,21.9 23.025141,21.4968354 23.025141,20.9995066 L23.025141,17.9978618 C23.025141,17.5005331 23.4440851,17.0973684 23.9608788,17.0973684 L28.9514803,17.0973684 Z M38.9326833,17.0973684 C39.449477,17.0973684 39.8684211,17.5005331 39.8684211,17.9978618 L39.8684211,20.9995066 C39.8684211,21.4968354 39.449477,21.9 38.9326833,21.9 L32.0706062,21.9 C31.5538125,21.9 31.1348684,21.4968354 31.1348684,20.9995066 L31.1348684,17.9978618 C31.1348684,17.5005331 31.5538125,17.0973684 32.0706062,17.0973684 L38.9326833,17.0973684 Z M13.1496674,4.80263158 C13.6407814,4.80142178 14.1121356,4.99330734 14.4594067,5.33582455 C14.8066778,5.67834175 15.0012266,6.1432435 15,6.62763445 L15,10.2776287 C15.0012266,10.7620197 14.8066778,11.2269214 14.4594067,11.5694386 C14.1121356,11.9119558 13.6407814,12.1038414 13.1496674,12.1026316 L6.98191153,12.1026316 C6.49079759,12.1038414 6.01944334,11.9119558 5.67217225,11.5694386 C5.32490115,11.2269214 5.13035235,10.7620197 5.13157895,10.2776287 L5.13157895,6.62763445 C5.13035235,6.1432435 5.32490115,5.67834175 5.67217225,5.33582455 C6.01944334,4.99330734 6.49079759,4.80142178 6.98191153,4.80263158 L13.1496674,4.80263158 Z"/>
          </g>
          <g fill-rule="nonzero" transform="translate(12.434 12.487)">
            <path fill="#91C73D" d="M44.8026316,30.3594925 C44.8026316,32.3715426 43.1310631,34.0026316 41.0690789,34.0026316 L41.0690789,34.0026316 L3.73355263,34.0026316 C1.67156845,34.0026316 0,32.3715426 0,30.3594925 L0,30.3594925 L0,3.6431391 C0,1.63108893 1.67156845,0 3.73355263,0 L3.73355263,0 L41.0690789,0 C43.1310631,0 44.8026316,1.63108893 44.8026316,3.6431391 L44.8026316,3.6431391 Z"/>
            <path fill="#237209" d="M26.4967105,24.3973684 C27.0144775,24.3973684 27.4342105,24.8005331 27.4342105,25.2978618 L27.4342105,28.2995066 C27.4342105,28.7968354 27.0144775,29.2 26.4967105,29.2 L15.8717105,29.2 C15.3539436,29.2 14.9342105,28.7968354 14.9342105,28.2995066 L14.9342105,25.2978618 C14.9342105,24.8005331 15.3539436,24.3973684 15.8717105,24.3973684 L26.4967105,24.3973684 Z M11.4967105,24.3973684 C12.0144775,24.3973684 12.4342105,24.8005331 12.4342105,25.2978618 L12.4342105,28.2995066 C12.4342105,28.7968354 12.0144775,29.2 11.4967105,29.2 L5.87171053,29.2 C5.35394357,29.2 4.93421053,28.7968354 4.93421053,28.2995066 L4.93421053,25.2978618 C4.93421053,24.8005331 5.35394357,24.3973684 5.87171053,24.3973684 L11.4967105,24.3973684 Z"/>
            <polygon fill="#237209" points="44.803 15.561 0 15.561 0 7.3 44.803 7.3"/>
          </g>
        </g>
      </g>
      <g transform="translate(113 129)">
        <ellipse cx="37.5" cy="36.5" fill="#DCDDEA" fill-rule="nonzero" rx="37.5" ry="36.5"/>
        <g transform="translate(12.434 8.645)">
          <path fill="#ACABD6" fill-rule="nonzero" d="M38.7888274,45.2065598 C39.4883008,45.8954985 39.435202,47.0651858 38.6285102,47.6284059 C34.5895276,50.4572691 29.7693855,52.0030557 24.8136561,52.0587351 C11.7258459,52.2186493 0.459729715,41.6502275 0.014517477,28.7625458 C-0.418441214,16.2138019 8.88404389,5.74293766 21.0518169,4.04925451 C22.0167838,3.91448398 22.873511,4.70399781 22.873511,5.66448914 L22.873511,29.5299331 L38.7888274,45.2065598 Z"/>
          <path fill="#5F30AA" fill-rule="nonzero" d="M52.2119118,22.5441406 C51.3706997,10.4798985 41.6723756,0.839411775 29.535755,0.0032161917 C28.6092024,-0.0563677931 27.8289474,0.720243805 27.8289474,1.64329062 L27.8289474,24.2407694 L50.563014,24.2407694 C51.4915985,24.2407694 52.2718535,23.4651677 52.2119118,22.5441406 Z M53.8161079,29.0882801 L29.7084674,29.0882801 L45.760586,45.0446691 C46.3701601,45.650608 47.386117,45.7041325 48.0149942,45.1133422 C52.0460954,41.3487573 54.6666238,36.3313049 55.4446866,30.8879182 C55.5838726,29.9355845 54.7863465,29.0882801 53.8161079,29.0882801 Z"/>
        </g>
      </g>
      <g transform="translate(323 129)">
        <ellipse cx="37.5" cy="36.5" fill="#FDCFD4" fill-rule="nonzero" rx="37.5" ry="36.5"/>
        <g transform="translate(12.632 13.255)">
          <path fill="#FA8393" fill-rule="nonzero" d="M8.28609971,21.7078947 L8.28609971,35.1552632 L17.2586966,35.1557363 C16.5691954,35.8671482 16.2464235,36.9047167 16.4926237,37.9399953 L16.4926237,37.9399953 L18.3882605,45.9128947 L5.52268011,45.9131579 C4.05077537,45.9131579 2.85113758,44.7986773 2.7642946,43.3877523 L2.75926052,43.2236842 L2.75926052,21.7078947 L8.28609971,21.7078947 Z M30.3934565,21.7078947 L30.3932605,31.7098947 L24.8662605,32.9478947 L24.8666173,21.7078947 L30.3934565,21.7078947 Z M46.9739741,21.7078947 L46.9732605,27.9938947 L41.4462605,29.2318947 L41.4471349,21.7078947 L46.9739741,21.7078947 Z"/>
          <path fill="#BC1020" fill-rule="nonzero" d="M48.6078031,9.34852202 C51.3208292,13.5734845 48.9146335,19.4379846 43.8438585,20.1001056 C43.4771528,20.1477674 43.1075958,20.1714673 42.7376544,20.1710526 C40.4612986,20.1686821 38.2937643,19.2197784 36.777879,17.5619752 C33.8471841,20.77279 28.8056426,21.0578754 25.5147835,18.1988725 C25.2845834,17.9993726 25.0667269,17.7866989 24.8623653,17.5619752 C21.9273773,20.7746631 16.8804539,21.0569641 13.588773,18.1925666 C13.3611194,17.9947653 13.1454361,17.784213 12.9428144,17.5619752 C11.4289856,19.2225193 9.26012351,20.1720043 6.98303898,20.1710526 C6.61311072,20.1710526 6.24358021,20.1473766 5.87683489,20.1001056 C0.816556779,19.4301022 -1.58156449,13.5656021 1.1298467,9.34852202 L6.36453363,1.18236322 C6.83799405,0.445267738 7.66714953,-0.00160202394 8.55837049,0 L41.1792793,0 C42.0676296,0.0011127232 42.893106,0.447643114 43.3650417,1.18236322 L48.6078031,9.34852202 Z"/>
          <path fill="#BC1020" d="M19.84871,35.4522903 L52.3828216,28.1571693 C53.65713,27.8736581 54.927834,28.6465073 55.2246557,29.8855887 L58.3069722,42.8526801 C58.5994186,44.0735116 57.834094,45.2926738 56.5940145,45.6038381 L56.5355403,45.6177555 C56.5348166,45.6179184 56.5340928,45.6180811 56.5328689,45.6161307 L23.9987574,52.9112517 C22.7244489,53.1947629 21.4537449,52.4219137 21.1569232,51.1828324 L18.0746067,38.2157409 C17.7821604,36.9949095 18.5474849,35.7757472 19.7875644,35.4645829 L19.8460386,35.4506656 C19.8467623,35.4505026 19.8474861,35.45034 19.84871,35.4522903 Z"/>
          <path fill="#FFF" fill-rule="nonzero" d="M28.1359656,48.1331223 C28.7799696,47.988407 29.344211,47.7274013 29.82869,47.3501051 C30.3131689,46.9728089 30.6982833,46.5144303 30.9840331,45.9749691 C31.2697829,45.435508 31.4505075,44.8382388 31.5262068,44.1831615 C31.601906,43.5280841 31.5565165,42.8496115 31.3900381,42.1477437 C31.2235597,41.445876 30.9587842,40.816702 30.5957116,40.2602218 C30.2326389,39.7037417 29.8012059,39.2440314 29.3014124,38.8810911 C28.801619,38.5181507 28.2490353,38.2704838 27.6436613,38.1380903 C27.0382874,38.0056968 26.4135985,38.0118577 25.7695945,38.1565729 C25.1185136,38.3028784 24.5525029,38.5642817 24.0715625,38.9407827 C23.590622,39.3172838 23.2090461,39.7748673 22.9268348,40.3135333 C22.6446234,40.8521993 22.4656681,41.4490709 22.3899688,42.1041483 C22.3142696,42.7592256 22.3596591,43.4376982 22.5261375,44.139566 C22.6926159,44.8414338 22.9573914,45.4706078 23.320464,46.0270879 C23.6835367,46.5835681 24.1132005,47.0436759 24.6094555,47.4074114 C25.1057104,47.7711468 25.6547556,48.0196089 26.2565911,48.1527975 C26.8584265,48.2859862 27.4848847,48.2794278 28.1359656,48.1331223 Z M27.6473687,45.7334708 C27.3484293,45.800646 27.0497791,45.7995784 26.751418,45.730268 C26.453057,45.6609577 26.1753369,45.532027 25.9182577,45.343476 C25.6611785,45.154925 25.4359066,44.9152408 25.2424421,44.6244236 C25.0489775,44.3336063 24.907672,44.0002783 24.8185256,43.6244395 C24.7293791,43.2486008 24.706259,42.8887152 24.7491651,42.5447826 C24.7920712,42.2008501 24.886595,41.8893041 25.0327364,41.6101447 C25.1788778,41.3309853 25.370423,41.0966052 25.607372,40.9070044 C25.8443211,40.7174037 26.1122653,40.5890157 26.4112047,40.5218405 C26.7101441,40.4546653 27.0087943,40.4557329 27.3071553,40.5250432 C27.6055163,40.5943536 27.8849745,40.7228937 28.1455297,40.9106636 C28.4060849,41.0984335 28.6330948,41.3377271 28.8265594,41.6285444 C29.0200239,41.9193617 29.1613295,42.2526897 29.2504759,42.6285284 C29.3396223,43.0043671 29.3627425,43.3642528 29.3198364,43.7081853 C29.2769303,44.0521179 29.1806685,44.3640544 29.0310511,44.6439949 C28.8814336,44.9239354 28.6881504,45.1587061 28.4512013,45.3483068 C28.2142523,45.5379076 27.9463081,45.6662956 27.6473687,45.7334708 Z M35.8478895,46.2433224 L35.1101258,43.132933 L36.3455127,42.8553271 C37.2472031,42.6527067 37.8727475,42.2238363 38.222146,41.5687158 C38.5715445,40.9135953 38.6282015,40.0883728 38.3921172,39.0930481 C38.1560328,38.0977235 37.7334449,37.3801929 37.1243536,36.9404563 C36.5342964,36.5144615 35.8069405,36.3898852 34.9422859,36.5667273 L34.8581811,36.584782 L31.5354165,37.3314461 L33.7605117,46.7123806 L35.8478895,46.2433224 Z M35.3882704,41.0140337 L34.6992289,41.1688694 L34.1341253,38.7864098 L34.8231668,38.6315741 C35.5864128,38.4600638 36.0622197,38.7713853 36.2505876,39.5655385 C36.4347695,40.3420438 36.1640565,40.8209105 35.4384485,41.0021385 L35.3882704,41.0140337 Z M45.6809298,44.0337231 L45.1910547,41.9684245 L42.7009548,42.5279791 L42.3173177,40.9105766 L44.668485,40.3822418 L44.1786099,38.3169433 L41.8274426,38.8452781 L41.4556097,37.2776418 L43.9457096,36.7180872 L43.4558346,34.6527886 L38.8710584,35.6830415 L41.0961536,45.063976 L45.6809298,44.0337231 Z M49.1248903,43.2598249 L47.7644541,37.5242668 L52.9453342,42.4013264 L55.0033081,41.9388756 L52.7782128,32.5579411 L50.7202389,33.0203919 L52.0806751,38.75595 L46.899795,33.8788904 L44.8312674,34.3437128 L47.0563627,43.7246473 L49.1248903,43.2598249 Z"/>
        </g>
      </g>
      <g transform="translate(430)">
        <ellipse cx="36.593" cy="47.788" fill="#C7E5AA" fill-rule="nonzero" rx="36.593" ry="37.212"/>
        <g transform="translate(10.978)">
          <path fill="#91C73D" fill-rule="nonzero" d="M65.5939268,47.8616278 L48.006846,62.6929896 C46.6860691,63.8052012 45.0453888,64.4104071 43.3547945,64.4090197 L1.86082064,64.4090197 C0.833117769,64.4090197 0,63.5309683 0,62.4478431 L0,50.6808123 C0,49.597687 0.833117769,48.7196406 1.86082064,48.7196406 L8.30391193,48.7196406 L13.7119219,44.0974036 C16.148922,42.0134434 19.1915697,40.875724 22.3298475,40.8749534 L40.9380536,40.8749534 C42.9907373,40.8749534 44.655846,42.6265646 44.6596948,44.7899425 C44.6605191,45.0142477 44.6426172,45.2381943 44.6061962,45.4591924 C44.310791,47.3835922 42.588369,48.7196406 40.7391785,48.7196406 L31.6339506,48.7196406 C30.6062476,48.7196406 29.77313,49.597687 29.77313,50.6808123 C29.77313,51.7639375 30.6062476,52.6419842 31.6339506,52.6419842 L45.390067,52.6419842 C47.0812291,52.6469157 48.7229923,52.0413103 50.0421185,50.9259587 L60.7883576,41.8677964 C62.2304934,40.6420641 64.3704373,40.5562629 65.7427924,41.8677964 C66.5621703,42.6359226 67.0184094,43.7458086 66.9897143,44.901165 C66.9610193,46.0565216 66.4503115,47.1397319 65.5939268,47.8616278 Z"/>
          <path fill="#237209" fill-rule="nonzero" d="M29.6814361,8.33935368 C28.6842092,7.00072364 27.2280393,6.16728763 25.6527477,6.0335416 C24.9574483,5.99895079 24.2748299,6.24519634 23.7351623,6.72528522 C23.2818466,7.10002174 23.0097985,7.68015083 22.9962762,8.30092348 C23.0286229,8.87337985 23.2617593,9.41018619 23.6471997,9.79970131 C24.3929579,10.5289608 25.2668888,11.0846828 26.2157085,11.4329849 C27.8775786,12.1106335 29.4601838,13.0007182 30.9305056,14.0846688 C31.7540671,14.7860137 32.41665,15.6873411 32.8656833,16.7171375 C33.3349209,17.7902268 33.5697831,18.9676045 33.5517919,20.1566405 C33.5616029,21.3798526 33.3148677,22.5892796 32.8304983,23.692219 C32.3962933,24.6996551 31.7515116,25.5816135 30.9480979,26.2670425 C29.9590581,26.9963492 28.8364296,27.4815713 27.6582956,27.68896 L27.6582956,32.2045086 L24.7555289,32.2045086 L24.7555289,27.7466052 C23.5264145,27.6349307 22.3301403,27.2560146 21.2370238,26.6321295 C19.9245376,25.8062348 18.7375383,24.7625706 17.7185185,23.5384983 L20.6564704,20.2527162 C21.9855326,22.1275114 23.9663509,23.3170946 26.1277459,23.5384983 C26.9947796,23.5484907 27.8299973,23.1822082 28.4499594,22.520098 C29.0621413,21.8996186 29.4123115,21.0303765 29.4175482,20.1182103 C29.4284521,19.3738405 29.2048594,18.6479802 28.7842173,18.0621946 C28.0986095,17.2872168 27.2714555,16.6783747 26.3564488,16.2751902 C24.6118766,15.4649314 22.9393792,14.4808001 21.3601713,13.3352798 C20.5569037,12.6813855 19.8960497,11.841467 19.4249935,10.875747 C19.0030645,9.97839454 18.785795,8.98301718 18.7916625,7.97426675 C18.7924337,6.31527154 19.4306911,4.73279926 20.5509152,3.61243891 C21.7112135,2.39585454 23.2527626,1.70861876 24.8610841,1.69092885 L24.8610841,0 L27.7638508,0 L27.7638508,1.92151006 C28.6575904,2.13309447 29.5173821,2.48930138 30.314767,2.9783406 C31.1833887,3.59497506 31.9757023,4.33120187 32.6721656,5.16886206 L29.6814361,8.33935368 Z"/>
        </g>
      </g>
      <g transform="translate(220 7)">
        <ellipse cx="37.5" cy="41.407" fill="#DCDDEA" fill-rule="nonzero" rx="37.5" ry="36.593"/>
        <g transform="translate(16.184)">
          <path fill="#5F30AA" fill-rule="nonzero" d="M42.6316425,47.7770045 L42.6316425,4.62222222 C42.6316425,2.07719427 40.5239303,0.0140415407 37.9239369,0.0140415407 L37.9239369,8.75369444 C37.9239369,9.01303982 37.8186872,9.26176314 37.6313416,9.44514807 C37.4439961,9.62853301 37.189901,9.73155772 36.9249545,9.73155772 L5.70675397,9.73155772 C5.44180737,9.73155772 5.18771228,9.62853301 5.00036674,9.44514807 C4.81302118,9.26176314 4.70777155,9.01303982 4.70777155,8.75369444 L4.70777155,0.0140415407 C3.46434695,0.0237016963 2.27337908,0.505795314 1.38615504,1.35860352 C0.498176961,2.22213387 -0.000793485417,3.39698647 2.13422456e-06,4.62222222 L2.13422456e-06,47.7770045 C2.13422456e-06,50.3220324 2.10777698,52.3851852 4.70777044,52.3851852 L37.9489102,52.3851852 C39.1860993,52.3808825 40.3712742,51.8974993 41.2455522,51.0406233 C42.1501889,50.139467 42.612219,49.0515941 42.6316425,47.7770045 Z" transform="rotate(180 21.316 26.2)"/>
          <path fill="#E9EAF1" fill-rule="nonzero" d="M11.284689,33.977388 C12.6695975,33.977388 13.7922876,35.0674674 13.7922876,36.4121485 C13.8023619,37.0641917 13.5426234,37.6929066 13.0712611,38.1574424 C12.5998988,38.6219781 11.9563141,38.8835042 11.284689,38.8834308 L11.284689,38.8469093 C9.89978057,38.8469093 8.77709045,37.7568298 8.77709045,36.4121485 C8.77709045,35.0674674 9.89978057,33.977388 11.284689,33.977388 Z M21.315646,33.977388 C22.7005534,33.977388 23.8232424,35.0674056 23.8232424,36.4120104 C23.8334929,37.0703984 23.5686304,37.704742 23.0890709,38.170346 C22.6095113,38.6359499 21.9561543,38.8931044 21.2780321,38.8831523 L21.315646,38.8466329 C19.9307388,38.8466329 18.8080497,37.7566153 18.8080497,36.4120104 C18.8080497,35.0674056 19.9307388,33.977388 21.315646,33.977388 Z M31.3465919,33.977388 C32.7314917,33.977388 33.8541748,35.0670314 33.8541748,36.4111748 C33.8650709,37.0801943 33.5917007,37.7240588 33.0983335,38.1913959 C32.6049663,38.6587328 31.9351248,38.9083161 31.2462886,38.8814683 L31.3465919,38.8449616 C29.961692,38.8449616 28.8390089,37.7553182 28.8390089,36.4111748 C28.8390089,35.0670314 29.961692,33.977388 31.3465919,33.977388 Z M11.284689,26.6183235 C12.6695975,26.6183235 13.7922876,27.708403 13.7922876,29.0530843 C13.8023619,29.7051275 13.5426234,30.3338423 13.0712611,30.798378 C12.5998988,31.2629138 11.9563141,31.5244397 11.284689,31.5243664 L11.284689,31.487845 C9.89978057,31.487845 8.77709045,30.3977656 8.77709045,29.0530843 C8.77709045,27.708403 9.89978057,26.6183235 11.284689,26.6183235 Z M21.315646,26.6183235 C22.7005534,26.6183235 23.8232424,27.7083412 23.8232424,29.0529462 C23.8334929,29.7113342 23.5686304,30.3456777 23.0890709,30.8112817 C22.6095113,31.2768855 21.9561543,31.5340401 21.2780321,31.5240879 L21.315646,31.4875687 C19.9307388,31.4875687 18.8080497,30.397551 18.8080497,29.0529462 C18.8080497,27.7083412 19.9307388,26.6183235 21.315646,26.6183235 Z M31.3465919,26.6183235 C32.7314917,26.6183235 33.8541748,27.7079669 33.8541748,29.0521103 C33.8650709,29.72113 33.5917007,30.3649946 33.0983335,30.8323317 C32.6049663,31.2996686 31.9351248,31.5492518 31.2462886,31.522404 L31.3465919,31.4858971 C29.961692,31.4858971 28.8390089,30.3962537 28.8390089,29.0521103 C28.8390089,27.7079669 29.961692,26.6183235 31.3465919,26.6183235 Z M11.284689,19.2592592 C12.6695975,19.2592592 13.7922876,20.3493387 13.7922876,21.69402 C13.8023619,22.3460632 13.5426234,22.9747779 13.0712611,23.4393137 C12.5998988,23.9038496 11.9563141,24.1653755 11.284689,24.1653021 L11.284689,24.1287808 C9.89978057,24.1287808 8.77709045,23.0387011 8.77709045,21.69402 C8.77709045,20.3493387 9.89978057,19.2592592 11.284689,19.2592592 Z M21.315646,19.2592592 C22.7005534,19.2592592 23.8232424,20.3492769 23.8232424,21.6938817 C23.8334929,22.3522699 23.5686304,22.9866135 23.0890709,23.4522172 C22.6095113,23.9178212 21.9561543,24.1749758 21.2780321,24.1650236 L21.315646,24.1285044 C19.9307388,24.1285044 18.8080497,23.0384867 18.8080497,21.6938817 C18.8080497,20.3492769 19.9307388,19.2592592 21.315646,19.2592592 Z M31.3465919,19.2592592 C32.7314917,19.2592592 33.8541748,20.3489027 33.8541748,21.6930461 C33.8650709,22.3620657 33.5917007,23.0059303 33.0983335,23.4732672 C32.6049663,23.9406043 31.9351248,24.1901874 31.2462886,24.1633398 L31.3465919,24.1268329 C29.961692,24.1268329 28.8390089,23.0371894 28.8390089,21.6930461 C28.8390089,20.3489027 29.961692,19.2592592 31.3465919,19.2592592 Z" transform="rotate(180 21.316 29.071)"/>
          <path fill="#B5B5DA" fill-rule="nonzero" d="M4.75373602,6.41455777 C4.75373602,5.63741007 5.34395427,5.00740741 6.07202542,5.00740741 L36.5762409,5.00740741 C37.3043121,5.00740741 37.8947369,5.63741007 37.8947369,6.41455777 L37.8947369,12.8268894 C37.898993,13.2031654 37.7620747,13.5656726 37.514362,13.8334296 C37.2666496,14.1011864 36.9287835,14.2518519 36.5762409,14.2518519 L6.0553382,14.2518519 C5.70279557,14.2518519 5.36492959,14.1011864 5.11721706,13.8334296 C4.8695045,13.5656726 4.73258625,13.2031654 4.73684215,12.8268894 L4.75373602,6.41455777 Z" transform="rotate(180 21.316 9.63)"/>
          <path fill="#ACABD6" fill-rule="nonzero" d="M35.1315789,68.3703704 L35.1315789,48.9235732 C35.1249274,46.8011497 33.4477792,45.0803489 31.3725126,45.0666667 L11.2590664,45.0666667 C9.1810187,45.0735445 7.5,46.7983275 7.5,48.9235732 L7.5,68.3703704 L10.4291426,68.3703704 L10.4291426,48.9235732 C10.4290957,48.4389636 10.8096732,48.0441839 11.2834759,48.0373584 L21.0472847,48.0373584 L21.0472847,68.3703704 L28.3701413,68.3703704 L28.3701413,48.0373584 L31.3969222,48.0373584 C31.8707248,48.0441839 32.2513024,48.4389636 32.2512553,48.9235732 L32.2512553,68.3703704 L35.1315789,68.3703704 Z" transform="rotate(180 21.316 56.719)"/>
        </g>
      </g>
      <g transform="translate(115 3)">
        <ellipse cx="37.5" cy="44.816" fill="#FDCFD4" fill-rule="nonzero" rx="37.5" ry="37.184"/>
        <g transform="translate(17.96)">
          <path fill="#BC1020" fill-rule="nonzero" d="M7.85336708e-14,46.0687562 L7.85336708e-14,56.1887665 C7.85336708e-14,57.8001246 0.616475674,59.345278 1.7134343,60.4833405 C2.81039291,61.6214031 4.29768793,62.2588546 5.84719766,62.2550967 L33.0929426,62.2550967 C36.3146803,62.2550967 38.9264145,59.5390898 38.9264145,56.1887665 L38.9264145,56.1887665 L38.9264145,46.0687562 L7.85336708e-14,46.0687562 Z"/>
          <path fill="#FDCFD4" fill-rule="nonzero" d="M26.3692293,55.3631259 C26.3772105,55.86988 26.2125639,56.3589227 25.9127582,56.7189626 C25.6129524,57.0790027 25.2034901,57.2794134 24.7775526,57.2745876 L15.3748696,57.2745876 C14.9579819,57.2746097 14.55838,57.0763615 14.264983,56.723957 C13.9715861,56.3715525 13.8087354,55.8942283 13.8125315,55.3981986 L13.8125315,54.1706545 C13.8087354,53.6746245 13.9715861,53.1973006 14.264983,52.8448961 C14.55838,52.4924916 14.9579819,52.2942655 15.3748696,52.2942655 L24.7775526,52.2942655 C25.648472,52.2942655 26.3544916,53.1343533 26.3544916,54.1706545 L26.3544916,54.1706545 L26.3692293,55.3631259 Z"/>
          <path fill="#FA8393" fill-rule="nonzero" d="M7.85336708e-14,47.3138695 L7.85336708e-14,5.90901985 C0.00756799393,2.64331057 2.62323225,-2.22489754e-14 5.84719766,-2.22489754e-14 L33.0929426,-2.22489754e-14 C36.3146803,-2.22489754e-14 38.9264145,2.64555831 38.9264145,5.90901985 L38.9264145,47.3138695 L7.85336708e-14,47.3138695 Z"/>
          <path fill="#BC1020" fill-rule="nonzero" d="M22.3507778,20.4223444 C21.6390367,19.5425167 20.5997384,18.9947326 19.4754205,18.9068267 C18.979171,18.8840916 18.4919724,19.0459389 18.1068006,19.361482 C17.7832598,19.6077813 17.5890935,19.9890768 17.5794424,20.3970859 C17.6025289,20.7733385 17.7689232,21.1261596 18.0440198,21.3821724 C18.5762827,21.8614853 19.200025,22.2267392 19.877217,22.455664 C21.0633278,22.9010553 22.1928655,23.4860723 23.2422641,24.1985094 C23.8300571,24.6594754 24.302956,25.2518816 24.6234403,25.9287257 C24.9583447,26.6340241 25.1259707,27.4078671 25.1131299,28.1893729 C25.1201323,28.993341 24.9440323,29.7882488 24.5983279,30.5131668 C24.2884269,31.175314 23.828233,31.7549898 23.2548203,32.2054949 C22.5489223,32.6848387 21.7476793,33.0037559 20.9068212,33.1400642 L20.9068212,36.107953 L18.835057,36.107953 L18.835057,33.1779521 C17.9578129,33.1045529 17.1040075,32.8555066 16.3238279,32.4454518 C15.3870797,31.9026245 14.5398939,31.2166657 13.8125987,30.4121322 L15.909475,28.2525193 C16.8580539,29.4847472 18.2718046,30.2666125 19.8144363,30.4121322 C20.4332562,30.4186998 21.029368,30.177957 21.4718477,29.7427785 C21.9087746,29.3349624 22.1586981,28.7636443 22.1624357,28.1641141 C22.1702179,27.6748699 22.0106353,27.1977909 21.7104144,26.8127776 C21.221082,26.3034157 20.6307253,25.9032483 19.9776663,25.6382513 C18.7325294,25.1057007 17.5388337,24.4588708 16.4117209,23.7059661 C15.8384122,23.2761877 15.3667473,22.7241429 15.0305448,22.089414 C14.7294054,21.4996203 14.5743357,20.8453987 14.5785236,20.1823874 C14.579074,19.0919965 15.0346113,18.051901 15.8341382,17.3155331 C16.6622668,16.515921 17.762502,16.0642285 18.9103939,16.0526016 L18.9103939,14.941222 L20.9821579,14.941222 L20.9821579,16.2041534 C21.6200382,16.3432193 22.233689,16.5773399 22.8027991,16.8987657 C23.4227522,17.3040548 23.9882426,17.7879471 24.4853226,18.3385076 L22.3507778,20.4223444 Z"/>
        </g>
      </g>
      <g transform="translate(325 8)">
        <ellipse cx="37.5" cy="39.774" fill="#C3ECF6" fill-rule="nonzero" rx="37.5" ry="37.226"/>
        <g transform="translate(16.382)">
          <g fill-rule="nonzero">
            <path fill="#53CBE4" d="M42.2303996,13.8619714 L29.9688936,13.8619714 C29.0014874,13.8619714 28.2172497,13.0861958 28.2172497,12.129228 L28.2172497,8.02160086e-06 L2.81841604,8.02160086e-06 C2.1233103,-0.00170118791 1.4559816,0.269795346 0.96323575,0.754787299 C0.470489901,1.23977925 0.192690416,1.89853828 0.19093403,2.58614381 L0.19093403,52.8486978 C0.189206177,53.5363034 0.463664124,54.1964313 0.953946247,54.6838606 C1.44422837,55.1712898 2.11017297,55.4460916 2.80527872,55.4478291 L39.602934,55.4478291 C40.2980397,55.4495383 40.9653685,55.1780418 41.4581142,54.69305 C41.95086,54.2080578 42.2286596,53.5492988 42.2303996,52.8616934 L42.2303996,13.8619714 Z"/>
            <path fill="#077989" d="M30.8323674.759365765C30.3420125.271587481 29.6774793-.00155043388 28.9852124.000144099206L28.0881931 0 28.0881931 12.1476751C28.0881931 13.1060901 29.1007622 13.8830546 30.0609086 13.8830546L42.2303998 13.8830546 42.2303998 13.2214471C42.2303998 12.5339497 41.9568145 11.8746074 41.4698066 11.3884691L30.8323674.759365765zM22.9623187 45.0383569L22.9623187 47.6504676C22.9623187 48.1289514 22.5701999 48.5168392 22.0864968 48.5168392L20.3348531 48.5168392C19.8511501 48.5168392 19.4590313 48.1289514 19.4590313 47.6504676L19.4590313 45.0199466C18.2163831 44.9561083 17.0209733 44.528263 16.0247148 43.7907817 15.8228006 43.6353807 15.699668 43.4004173 15.6876695 43.1476273 15.6756709 42.894837 15.7760062 42.6494946 15.9623125 42.4760628L17.2486759 41.2609762C17.5557076 40.9848475 18.0138023 40.952192 18.3576853 41.18192 18.7776276 41.4448505 19.2641994 41.5848918 19.7611898 41.5858657L22.8386089 41.5858657C23.5502141 41.5858657 24.1304461 40.9447505 24.1304461 40.1574354 24.1304461 39.5130715 23.7352315 38.945598 23.1703264 38.7788215L18.2438285 37.3168192C16.2086374 36.712525 14.7865217 34.7805161 14.7865217 32.6178357 14.7865217 29.9624064 16.8720725 27.8051409 19.4579365 27.7369142L19.4579365 25.1248035C19.4579365 24.6463196 19.8500553 24.2584318 20.3337584 24.2584318L22.0854021 24.2584318C22.5691051 24.2584318 22.9612239 24.6463196 22.9612239 25.1248035L22.9612239 27.7553245C24.204071 27.8181892 25.399759 28.2461339 26.3955404 28.9844894 26.5974546 29.1398904 26.7205872 29.3748538 26.7325858 29.6276438 26.7445843 29.880434 26.6442491 30.1257765 26.4579427 30.2992083L25.1715793 31.5142948C24.8645476 31.7904236 24.4064529 31.8230791 24.0625699 31.5933511 23.6427767 31.3300938 23.1561072 31.1900244 22.6590654 31.1894054L19.5816464 31.1894054C18.8700411 31.1894054 18.2898091 31.8305203 18.2898091 32.6178357 18.2898091 33.2621996 18.6850237 33.8296731 19.2499288 33.9964495L24.1764268 35.4584519C26.2116178 36.0627461 27.6337337 37.994755 27.6337337 40.1574354 27.6337337 42.8139476 25.5536566 44.9701302 22.9623187 45.0383569z"/>
            <path fill="#C3ECF6" d="M16.8315657,13.8619714 C17.3152688,13.8619714 17.7073876,14.2498593 17.7073876,14.7283431 L17.7073876,16.4610865 C17.7073876,16.9395704 17.3152688,17.3274582 16.8315657,17.3274582 L8.07334716,17.3274582 C7.58964412,17.3274582 7.19752533,16.9395704 7.19752533,16.4610865 L7.19752533,14.7283431 C7.19752533,14.2498593 7.58964412,13.8619714 8.07334716,13.8619714 L16.8315657,13.8619714 Z M16.8315657,6.93099786 C17.3152688,6.93099786 17.7073876,7.3188857 17.7073876,7.79736957 L17.7073876,9.53011295 C17.7073876,10.0085968 17.3152688,10.3964847 16.8315657,10.3964847 L8.07334716,10.3964847 C7.58964412,10.3964847 7.19752533,10.0085968 7.19752533,9.53011295 L7.19752533,7.79736957 C7.19752533,7.3188857 7.58964412,6.93099786 8.07334716,6.93099786 L16.8315657,6.93099786 Z"/>
          </g>
          <path fill="#077989" fill-rule="nonzero" d="M10.2802844,18.6132316 L6.29866299,18.6132316 C5.74704253,18.6132316 5.30325764,18.1687241 5.30325764,17.6162054 L5.30325764,9.30765434 L0.998129517,9.30765434 C0.110559749,9.30765434 -0.333225135,8.23585126 0.293050729,7.60440137 L7.5843949,0.292876425 C7.97426199,-0.0976254752 8.60468538,-0.0976254752 8.99455247,0.292876425 L16.2858966,7.60440137 C16.9121725,8.23169698 16.4683876,9.30765434 15.5808179,9.30765434 L11.2756897,9.30765434 L11.2756897,17.6162054 C11.2756897,18.1687241 10.8319048,18.6132316 10.2802844,18.6132316 Z" transform="translate(12.829 52.9)"/>
        </g>
      </g>
      <g transform="translate(3 10)">
        <ellipse cx="37.724" cy="37.5" fill="#D6DCF0" fill-rule="nonzero" rx="37.724" ry="37.5"/>
        <g transform="translate(22.634 9.079)">
          <path fill="#8FA2D5" fill-rule="nonzero" d="M0,42.4958882 L59.1918886,42.4958882 L59.1918886,47.3992599 C59.1918886,50.1073172 56.9834626,52.3026316 54.2592312,52.3026316 L4.93265738,52.3026316 C2.20842593,52.3026316 0,50.1073172 0,47.3992599 L0,42.4958882 Z M54.2592312,13.0756579 L48.3338765,13.0756579 C46.7784314,16.0859826 43.6600365,17.9787987 40.2556225,17.9790296 L35.2736384,17.9790296 L41.6871207,23.2613911 C41.9955529,23.567922 42.1688342,23.9837092 42.1688342,24.4172587 C42.1688342,24.8508085 41.9955529,25.2665957 41.6871207,25.5731266 L40.5248634,26.7284834 C40.2165017,27.0350844 39.7982312,27.2073369 39.3620921,27.2073369 C38.925953,27.2073369 38.5076827,27.0350844 38.199321,26.7284834 L29.5959443,19.2120233 L20.9915402,26.729505 C20.6831785,27.036106 20.264908,27.2083585 19.8287689,27.2083585 C19.3926298,27.2083585 18.9743593,27.036106 18.6659976,26.729505 L17.5037403,25.5741482 C17.1953082,25.2676172 17.0220269,24.8518301 17.0220269,24.4182803 C17.0220269,23.9847306 17.1953082,23.5689436 17.5037403,23.2624127 L23.9182502,17.9790296 L18.9362662,17.9790296 C15.5318521,17.9787987 12.4134572,16.0859826 10.8580121,13.0756579 L4.93265738,13.0756579 C2.20842593,13.0756579 0,15.2709722 0,17.9790296 L0,32.6891447 L59.1918886,32.6891447 L59.1918886,17.9790296 C59.1918886,15.2709722 56.9834626,13.0756579 54.2592312,13.0756579 Z"/>
          <path fill="#3B5B95" fill-rule="nonzero" d="M0,32.5657895 L0,43.0263158 L59.1670702,43.0263158 L59.1918886,32.5657895 L0,32.5657895 Z M18.9362662,17.9790296 L23.9182502,17.9790296 L17.5047679,23.2624127 C17.1963358,23.5689436 17.0230545,23.9847306 17.0230545,24.4182803 C17.0230545,24.8518301 17.1963358,25.2676172 17.5047679,25.5741482 L18.6670253,26.729505 C18.975387,27.036106 19.3936574,27.2083585 19.8297965,27.2083585 C20.2659357,27.2083585 20.684206,27.036106 20.9925676,26.729505 L29.5959443,19.2120233 L38.1982933,26.7284834 C38.506655,27.0350844 38.9249255,27.2073369 39.3610644,27.2073369 C39.7972035,27.2073369 40.215474,27.0350844 40.5238357,26.7284834 L41.686093,25.5731266 C41.9945252,25.2665957 42.1678065,24.8508085 42.1678065,24.4172587 C42.1678065,23.9837092 41.9945252,23.567922 41.686093,23.2613911 L35.2736384,17.9790296 L40.2556225,17.9790296 C45.2571315,17.9790296 49.3265738,13.9460064 49.3265738,8.9895148 C49.3265738,4.03302324 45.2571315,0 40.2556225,0 C38.4675342,0 36.3084689,0.27070698 33.8637207,2.27904632 C32.6120588,3.3067113 31.2679096,4.80121814 29.5959443,7.03735993 C27.9188408,4.78998124 26.5633877,3.29751748 25.2932284,2.2616802 C22.851563,0.268663909 20.70894,0 18.9362662,0 C13.9347571,0 9.86531477,4.03302324 9.86531477,8.9895148 C9.86531477,13.9460064 13.9347571,17.9790296 18.9362662,17.9790296 Z M40.2556225,4.90337171 C42.5258153,4.90337171 44.3661703,6.73280029 44.3661703,8.9895148 C44.3661703,11.2462293 42.5258153,13.0756579 40.2556225,13.0756579 L31.349093,13.0756579 C36.6660866,5.26090922 38.1458838,4.90337171 40.2556225,4.90337171 Z M18.9362662,4.90337171 C20.9915402,4.90337171 22.5155257,5.24047851 27.8427956,13.0756579 L18.9362662,13.0756579 C16.6660733,13.0756579 14.8257184,11.2462293 14.8257184,8.9895148 C14.8257184,6.73280029 16.6660733,4.90337171 18.9362662,4.90337171 L18.9362662,4.90337171 Z"/>
        </g>
      </g>
      <rect width="42.58" height="12.16" x="234" y="213" fill="#424242" fill-rule="nonzero" opacity=".192" rx="4.8"/>
      <rect width="42.58" height="12.16" x="232" y="211" fill="#4767A7" fill-rule="nonzero" rx="4.8"/>
    </g>
    <g fill-rule="nonzero" transform="translate(417 284)">
      <path fill="#0A0A0A" d="M174.2,198.613602 C174.14,196.893602 173.93,195.173602 173.72,193.463602 C172.95,187.043602 172.16,180.623602 170.91,174.293602 C170.68913,173.058653 170.354367,171.846812 169.91,170.673602 C169.46,169.563602 168.84,168.543602 168.37,167.443602 C168.374298,167.403717 168.374298,167.363487 168.37,167.323602 C168.95,167.043602 169.52,166.763602 170.08,166.463602 C170.484865,166.258039 170.872753,166.020625 171.24,165.753602 C171.60949,165.487084 171.919407,165.146516 172.15,164.753602 C173.15,162.993602 172.03,160.753602 171.52,158.753602 L171.52,158.753602 C170.98,156.603602 171.1,154.023602 169.52,152.583602 C163.88,147.583602 166.68,137.383602 163.86,130.223602 C163.36,128.973602 162.79,127.743602 162.36,126.463602 C162.03,125.463602 161.8,124.463602 161.56,123.463602 C159.56,115.130269 157.453333,106.833602 155.24,98.573602 C152.91,90.013602 153.16,81.093602 150.24,72.733602 C149.688661,71.0006017 148.968541,69.3259054 148.09,67.733602 C147.112245,66.0747494 145.788956,64.6457341 144.21,63.543602 C139.95,60.603602 135.66,58.093602 130.66,57.023602 C125.66,55.953602 120.26,56.123602 115.16,56.143602 C113.333183,53.6099793 110.821603,51.6499756 107.92,50.493602 L107.83,50.233602 C107.421932,49.2210962 107.107289,48.1734023 106.89,47.103602 C106.72649,46.0447194 106.642921,44.9750306 106.64,43.903602 C106.64,42.753602 106.59,41.593602 106.56,40.443602 L106.84,40.173602 C107.509243,39.4675675 108.124319,38.7120942 108.68,37.913602 C109.215603,37.1593716 109.684062,36.3596443 110.08,35.523602 C110.528767,34.5751043 110.909722,33.5959829 111.22,32.593602 C111.828063,30.5678028 112.239958,28.4882363 112.45,26.383602 C112.72,23.913602 112.8,21.383602 112.87,18.913602 C112.87,18.413602 112.87,17.913602 112.87,17.403602 L112.87,17.033602 C112.87,16.633602 112.87,16.243602 112.87,15.853602 L112.87,15.723602 C112.953075,13.1696335 112.307974,10.6447202 111.01,8.44360199 C109.2,5.74360199 106.1,4.44360199 103.11,3.36360199 C97.11,1.28360199 90.52,-0.086398011 84.59,2.14360199 C79.88,3.92360199 76.12,7.80360199 71.47,9.77360199 L71.47,9.77360199 C71.5764815,9.95158992 71.6732887,10.1351897 71.76,10.323602 C71.76181,10.3502379 71.76181,10.376966 71.76,10.403602 C71.84,10.583602 71.91,10.753602 71.97,10.933602 L71.97,10.933602 C72.1208274,11.3384063 72.2313625,11.7570995 72.3,12.183602 L72.3,12.183602 C72.4350138,12.9913322 72.4350138,13.8158718 72.3,14.623602 C70.8961155,15.2525668 69.3456236,15.4809874 67.82,15.283602 C68.3958419,17.1669085 69.3560683,18.9102981 70.64,20.403602 C71.05,20.923602 71.48,21.403602 71.89,21.953602 L72.52,22.733602 C73.5916131,23.9902659 74.4650158,25.4032224 75.11,26.923602 C75.3468521,27.5253179 75.5113394,28.1530551 75.6,28.793602 C75.79,30.063602 75.74,31.523602 75.91,32.793602 C75.9741408,33.3397032 76.1120649,33.8745798 76.32,34.383602 C77.0962623,39.7289007 80.4025384,44.3718357 85.2,46.853602 C85.8499735,50.8070652 85.8499735,54.8401388 85.2,58.793602 C85.2,59.013602 85.12,59.233602 85.07,59.453602 C82.35,62.883602 79.74,66.503602 76.39,69.183602 C74.866292,70.377256 73.2361025,71.4283433 71.52,72.323602 C70.5124076,72.9046767 69.4332972,73.3517848 68.31,73.653602 C67.05,73.943602 65.73,73.903602 64.48,74.213602 C62.0653011,74.9804224 60.0316736,76.6352019 58.79,78.843602 C58.1576943,80.0109436 57.4564539,81.1396069 56.69,82.223602 C55.99,83.093602 55.11,83.803602 54.37,84.633602 C51.69,87.633602 50.96,91.973602 50.37,96.033602 C48.2856162,98.3359657 45.9998797,100.447678 43.54,102.343602 C42.7702321,102.955848 41.914351,103.45118 41,103.813602 C38.64,104.603602 36.05,103.593602 34,102.073602 C31.95,100.553602 30.35,98.553602 28.37,96.993602 L27.85,97.763602 C27.701765,97.6174155 27.5647133,97.4603074 27.44,97.293602 C26.6282292,96.1500516 26.0660604,94.8485456 25.79,93.473602 C25.07,89.783602 26.43,85.833602 25.37,82.243602 C24.98,80.943602 24.04,79.603602 22.74,79.633602 C21.44,79.663602 20.63,80.963602 19.51,81.573602 C17.71,82.573602 15.51,81.663602 13.73,80.673602 C11.95,79.683602 9.92,78.573602 7.97,79.163602 C7.89413155,80.4700422 8.44800034,81.7339039 9.46,82.563602 C10.4645151,83.3584257 11.2892821,84.3570072 11.88,85.493602 C12.1720124,86.73444 12.2831612,88.0109678 12.21,89.283602 C12.41,92.203602 14.21,94.713602 15.95,96.993602 C18.11,99.7602687 20.37,102.446935 22.73,105.053602 L22.73,105.053602 C22.4469807,105.550312 22.002273,105.93502 21.47,106.143602 C21.3351958,106.617536 21.3351958,107.119668 21.47,107.593602 C21.5688221,107.920709 21.69597,108.238578 21.85,108.543602 C22.08,109.013602 22.36,109.473602 22.6,109.903602 L26.11,116.073602 L26.68,117.073602 C26.92,117.493602 27.16,117.893602 27.41,118.303602 C28.2372762,119.740185 29.2198339,121.081561 30.34,122.303602 C30.8984014,122.891056 31.5148825,123.420425 32.18,123.883602 C32.6129511,124.194737 33.0712224,124.469031 33.55,124.703602 C34.2188942,125.045249 34.9325685,125.290995 35.67,125.433602 C36.0321061,125.51095 36.4000633,125.55778 36.77,125.573602 C37.1527482,125.603555 37.5372518,125.603555 37.92,125.573602 C39.0727181,125.412475 40.2033364,125.120595 41.29,124.703602 C47.98,122.353602 54.12,118.603602 60.48,115.413602 C61.3547213,114.924482 62.2939341,114.560915 63.27,114.333602 C63.5993984,114.270399 63.9347429,114.243572 64.27,114.253602 C64.6095952,114.263709 64.9461423,114.320922 65.27,114.423602 C65.5895365,114.530851 65.8924786,114.682322 66.17,114.873602 C66.7307635,115.250723 67.1219239,115.83208 67.26,116.493602 C67.45,117.493602 67.63,118.423602 67.81,119.383602 C67.99,120.343602 68.19,121.303602 68.39,122.263602 C68.79,124.173602 69.22,126.083602 69.72,127.973602 C69.99,128.973602 70.25,130.033602 70.51,131.073602 C71.15,133.613602 71.78,136.173602 72.36,138.733602 C72.54,139.533602 72.71,140.343602 72.87,141.143602 C73.1678152,142.566449 73.381519,144.00561 73.51,145.453602 C73.5144051,145.48679 73.5144051,145.520414 73.51,145.553602 C73.61,146.813602 73.62,148.063602 73.63,149.323602 L73.63,153.273602 L73.73,164.933602 C73.73,166.613602 72.83,167.663602 72.12,169.173602 C71.98,169.483602 71.85,169.803602 71.74,170.123602 L71.74,170.123602 L71.74,170.123602 C71.6054986,170.530023 71.4953038,170.944088 71.41,171.363602 C71.41,171.493602 71.35,171.633602 71.33,171.763602 C71.31,171.893602 71.33,172.073602 71.27,172.223602 C71.21,172.373602 71.27,172.523602 71.22,172.663602 C71.17,172.803602 71.22,172.963602 71.22,173.103602 C71.22,173.243602 71.22,173.423602 71.22,173.583602 C71.22,173.743602 71.22,173.863602 71.22,173.993602 C71.22,174.123602 71.22,174.343602 71.22,174.513602 C71.22,174.683602 71.22,174.763602 71.22,174.883602 C71.22,175.003602 71.29,175.273602 71.32,175.473602 L71.38,175.773602 C71.45,176.063602 71.52,176.353602 71.62,176.643602 C71.82,177.243602 72.07,177.833602 72.33,178.413602 C72.59,178.993602 72.85,179.583602 73.07,180.183602 C73.2095038,180.563944 73.3296577,180.951106 73.43,181.343602 C73.454758,181.432478 73.4747861,181.522605 73.49,181.613602 C73.57,181.923602 73.64,182.233602 73.7,182.553602 L73.7,182.773602 C73.76,183.113602 73.81,183.463602 73.85,183.773602 C73.8549165,183.813451 73.8549165,183.853753 73.85,183.893602 C73.85,184.283602 73.93,184.673602 73.95,185.063602 L73.95,185.063602 C74.04,186.483602 74.02,187.933602 73.95,189.363602 L73.83,196.483602 L73.83,196.703602 L73.83,196.703602 C73.8189378,196.925588 73.8672643,197.146509 73.97,197.343602 C74.1157304,197.571737 74.3693273,197.707998 74.64,197.703602 C75.1469256,197.666729 75.6311307,197.47862 76.03,197.163602 L79.21,194.853602 L79.41,194.853602 C76.9,198.963602 74.89,203.493602 74.5,208.323602 C74.3488692,211.513064 74.5534639,214.709437 75.11,217.853602 C78.04,238.853602 84.94,260.043602 83.49,281.243602 C82.92,289.593602 86.38,297.733602 86.36,306.093602 C86.36,309.343602 85.81,312.563602 85.67,315.803602 C85.06,329.723602 92.16,343.803602 89.27,357.403602 C90.27,360.783602 94.06,362.583602 95.13,365.943602 C96.03,368.793602 94.73,371.823602 93.68,374.613602 C93.3020081,375.585959 93.0108709,376.58988 92.81,377.613602 C89.9,377.613602 86.67,377.673602 84.73,378.483602 C84.1922318,378.659652 83.6675894,378.873519 83.16,379.123602 C81.37,380.193602 81.25,383.123602 82.38,384.893602 C83.51,386.663602 89.86,392.313602 91.72,393.243602 L95.79,395.243602 C97.973885,396.477919 100.334919,397.368366 102.79,397.883602 C104.856428,398.113439 106.943994,398.073099 109,397.763602 C110.59,397.593602 112.35,397.333602 113.38,396.033602 C114.83,394.193602 114.09,391.203602 113.1,388.543602 C113.465883,388.251854 113.748662,387.869068 113.92,387.433602 C114.095818,386.737136 114.186481,386.021909 114.19,385.303602 C114.483591,383.913123 114.961125,382.567956 115.61,381.303602 C117.28,377.233602 117.21,372.653602 117.11,368.223602 C117.128314,361.020904 116.63373,353.826043 115.63,346.693602 C115.13,343.693602 114.45,340.693602 113.87,337.693602 C111.736088,326.829289 110.820429,315.760885 111.14,304.693602 C111.176217,302.00587 110.801906,299.32836 110.03,296.753602 C109.702112,295.267157 109.614334,293.737801 109.77,292.223602 L110.97,273.913602 C111.311437,270.190026 111.368268,266.445825 111.14,262.713602 C110.97,260.713602 110.64,258.713602 110.44,256.713602 C110.136637,252.901355 110.073178,249.07381 110.25,245.253602 C110.36,241.143602 110.55,236.733602 112.9,233.433602 C113.142085,233.005597 113.545414,232.692296 114.02,232.563602 C114.5,232.493602 114.64,233.143602 114.46,233.563602 C114.71,234.323602 114.97,235.073602 115.23,235.833602 C115.31,236.053602 115.38,236.263602 115.46,236.473602 C115.59,236.863602 115.73,237.253602 115.87,237.643602 C116.01,238.033602 116.07,238.183602 116.16,238.453602 L116.55,239.453602 C116.66,239.753602 116.78,240.043602 116.89,240.333602 C117,240.623602 117.14,240.963602 117.27,241.273602 C117.4,241.583602 117.53,241.893602 117.67,242.203602 C117.81,242.513602 117.91,242.773602 118.04,243.063602 L118.52,244.063602 C118.64,244.313602 118.76,244.573602 118.89,244.823602 C119.02,245.073602 119.28,245.553602 119.48,245.913602 C119.59,246.123602 119.7,246.333602 119.82,246.533602 C120.14,247.093602 120.47,247.633602 120.82,248.173602 L120.82,248.173602 C121.5,249.173602 122.23,250.173602 122.82,251.243602 C123.028428,251.595337 123.215435,251.959332 123.38,252.333602 C123.933622,253.714967 124.371789,255.139845 124.69,256.593602 C125.04,257.913602 125.45,259.203602 125.9,260.473602 C126.35,261.743602 126.9,263.013602 127.39,264.253602 C127.66,264.873602 127.94,265.493602 128.22,266.103602 C129.06,267.953602 129.97,269.773602 130.89,271.573602 C131.051441,271.892662 131.178811,272.227846 131.27,272.573602 C131.316203,272.741404 131.352927,272.911673 131.38,273.083602 C131.41666,273.415927 131.41666,273.751277 131.38,274.083602 C131.368772,274.291969 131.342031,274.49921 131.3,274.703602 C131.240486,275.011916 131.150029,275.313442 131.03,275.603602 C129.8,278.413602 130.79,281.183602 131.33,283.943602 C131.802105,286.852788 132.029568,289.796423 132.01,292.743602 C132.01,293.743602 132.01,294.743602 132.1,295.673602 C132.1,296.893602 132.1,298.103602 132.17,299.323602 C132.24,300.543602 132.17,301.943602 132.24,303.253602 C132.261993,304.565585 132.208571,305.877748 132.08,307.183602 C132.08,307.643602 131.96,308.093602 131.89,308.543602 C131.67,309.893602 131.36,311.233602 131.09,312.543602 C130.091458,317.81673 129.629102,323.177372 129.71,328.543602 C129.71,330.696935 129.78,332.853602 129.92,335.013602 C130.04,337.183602 130.21,339.343602 130.4,341.513602 C130.5,342.703602 130.62,343.893602 130.74,345.083602 C130.94,347.143602 131.16,349.203602 131.38,351.263602 C131.6,353.323602 131.84,355.593602 132.05,357.743602 C132.26,359.893602 132.45,362.043602 132.6,364.183602 C132.693648,365.24443 132.470945,366.309225 131.96,367.243602 C131.758115,367.614118 131.590743,368.002421 131.46,368.403602 C131.366799,368.681418 131.293284,368.965454 131.24,369.253602 C131.181365,369.584434 131.141303,369.91829 131.12,370.253602 C131.09514,370.955805 131.135312,371.658802 131.24,372.353602 C131.293333,372.700269 131.353333,373.033602 131.42,373.353602 C131.57,374.043602 131.75,374.733602 131.93,375.413602 C132.342197,377.297882 133.015356,379.115413 133.93,380.813602 C134.124694,381.162965 134.345312,381.497235 134.59,381.813602 C134.66,381.913602 134.74,382.003602 134.82,382.103602 C135.026592,382.344056 135.21701,382.597946 135.39,382.863602 C135.471775,382.986909 135.542069,383.117456 135.6,383.253602 C135.805425,383.806753 135.847087,384.407386 135.72,384.983602 C135.61,385.583602 135.4,386.183602 135.24,386.753602 L135.24,386.753602 L135.76,386.823602 C135.03,389.133602 134.69,391.503602 135.92,393.053602 C136.92,394.353602 138.71,394.613602 140.3,394.783602 C142.35513,395.101514 144.443366,395.145229 146.51,394.913602 C148.965081,394.398366 151.326115,393.507919 153.51,392.273602 L157.58,390.273602 C159.44,389.343602 165.78,383.733602 166.91,381.913602 C168.04,380.093602 167.91,377.223602 166.14,376.153602 C165.633738,375.897804 165.108918,375.680522 164.57,375.503602 C162.77,374.753602 159.86,374.683602 157.14,374.643602 C157,373.643602 156.92,372.553602 156.88,371.523602 C156.698166,367.696298 156.771662,363.861129 157.1,360.043602 C157.33,357.333602 157.68,354.633602 157.65,351.923602 C157.65,348.303602 156.9,344.723602 156.51,341.123602 C156.12,337.523602 156.08,334.003602 156.02,330.443602 C155.93,325.203602 157.47,320.213602 158.14,315.033602 L159.31,305.923602 C159.506347,304.817449 159.533322,303.687867 159.39,302.573602 C159.21,301.573602 158.75,300.573602 158.56,299.573602 C158.15,297.303602 159.18,295.053602 159.5,292.763602 C159.87,290.133602 159.3,287.463602 158.93,284.823602 C158.444897,280.654854 158.214469,276.460402 158.24,272.263602 C157.88,246.463602 157.15,220.083602 148.43,195.943602 C148.08,194.943602 147.7,193.943602 147.31,193.013602 C147.48617,192.966011 147.659739,192.909267 147.83,192.843602 C148.102223,192.742629 148.360865,192.608269 148.6,192.443602 C148.706311,192.379288 148.806705,192.305666 148.9,192.223602 C149.178597,191.945936 149.381679,191.60173 149.49,191.223602 C149.607145,190.858288 149.667844,190.477233 149.67,190.093602 C149.657731,189.4174 149.560297,188.74544 149.38,188.093602 L149.26,187.683602 C149.06,187.003602 148.84,186.333602 148.61,185.683602 L148.61,185.683602 C148.39,185.033602 148.15,184.403602 147.9,183.763602 C147.378992,182.577312 146.957539,181.349748 146.64,180.093602 C146.03,177.253602 146.64,173.973602 144.93,171.663602 C141.15,166.483602 143.82,158.523602 142.24,152.213602 C141.72,150.213602 140.96,148.213602 140.48,146.213602 C140.18,144.933602 139.99,143.623602 139.8,142.313602 C139.299822,139.481148 139.052182,136.609869 139.06,133.733602 C139.06,132.293602 139.28,130.853602 139.45,129.423602 L140.65,119.503602 C141.990685,122.070054 142.947543,124.819335 143.49,127.663602 C143.58,128.073602 143.66,128.473602 143.75,128.883602 C144.831159,133.77641 146.166299,138.609617 147.75,143.363602 C148.66,146.233602 149.56,149.093602 150.54,151.933602 C150.83,152.743602 151.11,153.563602 151.37,154.393602 C151.625218,155.222878 151.82565,156.068033 151.97,156.923602 C152.08,157.603602 152.13,158.303602 152.18,158.993602 C152.23,159.683602 152.27,160.393602 152.34,161.083602 C152.666914,164.037014 153.658373,166.878056 155.24,169.393602 C155.289988,169.457881 155.336714,169.524632 155.38,169.593602 C155.649237,170.079509 156.081253,170.454867 156.6,170.653602 L156.6,170.653602 C156.959497,170.728269 157.330503,170.728269 157.69,170.653602 L157.75,170.653602 C158.28,170.543602 158.81,170.423602 159.33,170.293602 C159.407788,170.27818 159.484591,170.258144 159.56,170.233602 C159.8,173.333602 160.72,176.423602 160.8,179.553602 C160.9,184.103602 159.23,188.463602 158.17,192.873602 C157.277423,196.898071 156.679173,200.98221 156.38,205.093602 C156.243179,205.907727 156.294488,206.742366 156.53,207.533602 C156.765159,208.325571 157.527466,208.840756 158.35,208.763602 C158.918863,208.572277 159.384865,208.156848 159.64,207.613602 C160.829534,205.636153 161.226126,203.28161 160.75,201.023602 C161.7,201.223602 162.19,202.313602 162.42,203.303602 C163.028013,205.870238 162.882174,208.557828 162,211.043602 C161.41,212.703602 160.5,214.233602 160,215.943602 C159.820158,216.475478 159.820158,217.051726 160,217.583602 C160.5,218.733602 162.08,218.653602 163.22,218.233602 C166.945762,216.714545 169.972397,213.862592 171.71,210.233602 C173.480262,206.623041 174.335375,202.632514 174.2,198.613602 Z" opacity=".341"/>
      <path fill="#7E7E7E" d="M109.86 395.123602C108.79 396.413602 106.96 396.673602 105.3 396.843602 103.156746 397.152878 100.983249 397.193191 98.83 396.963602 96.2912737 396.45159 93.841704 395.568802 91.56 394.343602L87.32 392.343602C85.39 391.413602 78.79 385.833602 77.61 384.023602 76.43 382.213602 76.55 379.363602 78.41 378.293602 78.9415773 378.043457 79.4895 377.829633 80.05 377.653602 83.17 376.413602 89.49 377.043602 92.81 376.563602 94.4560378 376.486448 96.0908749 376.870911 97.53 377.673602 100.81 379.123602 106.59 380.273602 108.02 383.963602 109.13 386.803602 112.17 392.313602 109.86 395.123602zM133.41 392.383602C134.48 393.673602 136.31 393.933602 137.97 394.103602 142.699599 394.987696 147.589095 394.093841 151.7 391.593602L155.94 389.593602C157.88 388.663602 164.48 383.083602 165.66 381.273602 166.84 379.463602 166.72 376.603602 164.85 375.543602 164.324538 375.287291 163.779478 375.07328 163.22 374.903602 160.1 373.663602 153.78 374.293602 150.46 373.813602 148.810459 373.732948 147.171462 374.117576 145.73 374.923602 142.46 376.373602 136.73 377.523602 135.25 381.213602 134.11 384.063602 131.06 389.573602 133.41 392.383602z"/>
      <path fill="#424242" d="M143.72,190.183602 C144.742453,192.149483 145.634382,194.180541 146.39,196.263602 C155.47,220.263602 156.23,246.523602 156.61,272.193602 C156.576156,276.367912 156.813321,280.540018 157.32,284.683602 C157.7,287.313602 158.32,289.963602 157.91,292.593602 C157.58,294.863602 156.51,297.103602 156.91,299.353602 C157.1,300.353602 157.58,301.353602 157.77,302.353602 C157.919823,303.46119 157.88943,304.585724 157.68,305.683602 L156.47,314.743602 C155.77,319.903602 154.17,324.863602 154.26,330.073602 C154.32,333.623602 154.38,337.173602 154.77,340.703602 C155.350248,344.260872 155.747438,347.845592 155.96,351.443602 C155.96,354.143602 155.62,356.833602 155.38,359.523602 C155.043315,363.320587 154.966469,367.13614 155.15,370.943602 C155.29,373.873602 155.63,376.943602 157.15,379.413602 C155.4,381.913602 153.68,384.153602 150.89,385.413602 C145.22,387.893602 138.71,387.053602 132.58,386.163602 C132.92,385.033602 133.44,383.753602 132.95,382.673602 C132.666159,382.151721 132.312949,381.670683 131.9,381.243602 C130.566005,379.339202 129.636854,377.181393 129.17,374.903602 C128.43,372.193602 127.69,369.283602 129.17,366.693602 C129.690552,365.78397 129.924091,364.738271 129.84,363.693602 C128.57,346.693602 124.78,329.053602 128.27,312.343602 C128.64,310.563602 129.08,308.783602 129.27,306.973602 C129.458348,304.371223 129.49174,301.759946 129.37,299.153602 L129.41,295.423602 C129.23,291.553602 129.41,287.583602 128.61,283.753602 C128.06,281.013602 127.02,278.253602 128.3,275.453602 C128.858354,274.162577 128.788212,272.685891 128.11,271.453602 C125.415872,266.735807 123.249481,261.73567 121.65,256.543602 C121.319415,255.093796 120.864396,253.675205 120.29,252.303602 C119.511058,250.855994 118.614721,249.474699 117.61,248.173602 C114.61,243.763602 112.75,238.653602 110.97,233.613602 C111.16,233.143602 110.97,232.503602 110.52,232.613602 C110.028847,232.734407 109.60709,233.048022 109.35,233.483602 C106.91,236.763602 106.7,241.143602 106.59,245.243602 C106.406574,249.043876 106.473385,252.852101 106.79,256.643602 C106.99,258.643602 107.34,260.643602 107.52,262.643602 C107.754937,266.355847 107.694748,270.080885 107.34,273.783602 L106.11,291.923602 C105.934644,293.430643 106.02262,294.956697 106.37,296.433602 C107.172501,298.985475 107.564058,301.648737 107.53,304.323602 C107.215258,315.32499 108.181758,326.325636 110.41,337.103602 C111.01,340.103602 111.72,343.043602 112.24,346.033602 C113.27814,353.126152 113.792864,360.28549 113.78,367.453602 C113.89,371.863602 113.96,376.453602 112.22,380.453602 C111.537276,381.709007 111.038831,383.056157 110.74,384.453602 C110.738808,385.169408 110.644688,385.882031 110.46,386.573602 C109.95,387.883602 108.46,388.443602 107.05,388.743602 C104.466728,389.304153 101.816616,389.492726 99.18,389.303602 C98.5618938,389.297192 97.9520391,389.160912 97.39,388.903602 C96.39,388.393602 95.89,387.313602 95.14,386.503602 C93.53,384.743602 90.85,384.203602 89.38,382.323602 C87.54,379.963602 88.31,376.553602 89.38,373.773602 C90.45,370.993602 91.82,367.983602 90.88,365.143602 C89.77,361.813602 85.88,360.013602 84.78,356.653602 C87.78,343.113602 80.4,329.113602 81.03,315.263602 C81.18,312.033602 81.74,308.833602 81.75,305.603602 C81.75,297.283602 78.18,289.183602 78.75,280.883602 C80.26,259.793602 73.07,238.733602 70.03,217.803602 C69.4484194,214.682654 69.2336287,211.504423 69.39,208.333602 C69.84,203.093602 72.27,198.223602 75.19,193.853602 C77.29,190.723602 79.81,187.653602 83.28,186.193602 C86.14,184.983602 89.34,184.993602 92.44,185.013602 C100.18,185.073602 107.92,185.133602 115.66,185.273602 C120.927613,185.19751 126.188962,185.666675 131.36,186.673602 C135.55,187.623602 139.47,189.573602 143.72,190.183602 Z"/>
      <path fill="#000" d="M1.38,1.81 C1.63961536,1.37669822 2.06030183,1.06388008 2.55,0.94 C3.05,0.87 3.2,1.51 3.01,1.94 C4.79,6.94 6.61,12.09 9.64,16.5 C10.651342,17.7984783 11.5512069,19.1800552 12.33,20.63 C12.8999031,22.0032565 13.3547991,23.4214617 13.69,24.87 C15.290078,30.0602548 17.4529334,35.0599717 20.14,39.78 C20.8227364,41.0110065 20.8929802,42.489822 20.33,43.78 C19.05,46.58 20.09,49.34 20.65,52.08 C21.42,55.91 21.27,59.88 21.45,63.75 C21.45,64.96 21.45,66.17 21.52,67.38 C21.6500651,69.9860521 21.6200085,72.5976316 21.43,75.2 C21.22,77.01 20.78,78.79 20.43,80.57 C16.95,97.28 20.73,114.89 22,131.92 C22.0877478,132.963688 21.8576683,134.009504 21.34,134.92 C19.82,137.51 20.56,140.42 21.34,143.13 C21.7991042,145.410218 22.7289164,147.569562 24.07,149.47 C24.4592341,149.905029 24.7949588,150.385116 25.07,150.9 C25.56,151.98 25.07,153.26 24.69,154.39 C27.3992523,154.825282 30.1298004,155.115694 32.87,155.26 C29.3143807,155.289278 25.7633555,154.9981 22.26,154.39 C22.6,153.26 23.12,151.98 22.63,150.9 C22.3461586,150.378119 21.992949,149.897081 21.58,149.47 C20.2460051,147.5656 19.3168539,145.407791 18.85,143.13 C18.11,140.42 17.37,137.51 18.85,134.92 C19.3705518,134.010368 19.6040913,132.964669 19.52,131.92 C18.25,114.92 14.46,97.28 17.95,80.57 C18.32,78.79 18.76,77.01 18.95,75.2 C19.1383482,72.5976215 19.1717405,69.9863438 19.05,67.38 C19.05,66.17 19,64.96 18.97,63.75 C18.79,59.88 18.97,55.91 18.17,52.08 C17.62,49.34 16.58,46.58 17.86,43.78 C18.4183543,42.4889746 18.3482117,41.0122885 17.67,39.78 C14.9758719,35.0622053 12.8094812,30.0620682 11.21,24.87 C10.8747991,23.4214617 10.4199031,22.0032565 9.85,20.63 C9.07105829,19.1823922 8.1747214,17.801097 7.17,16.5 C4.27,12.29 2.48,7.45 0.78,2.63 C1,2.38 1.18,2.09 1.38,1.81 Z" opacity=".1" transform="translate(110.41 231.614)"/>
      <path fill="#EBBF97" d="M18.67 94.033602C17.92 90.363602 19.34 86.433602 18.23 82.863602 17.83 81.573602 16.85 80.233602 15.5 80.263602 14.15 80.293602 13.3 81.583602 12.14 82.193602 10.27 83.193602 7.99 82.283602 6.14 81.303602 4.29 80.323602 2.14 79.203602.14 79.793602-.1 81.073602.76 82.283602 1.7 83.173602 2.73100477 83.961392 3.58595414 84.9559945 4.21 86.093602 4.68 87.273602 4.46 88.593602 4.56 89.863602 4.77 92.763602 6.56 95.273602 8.45 97.533602 11.4124755 101.175978 14.5599492 104.663899 17.88 107.983602 17.88 107.983602 22.88 101.743602 22.81 100.653602 22.74 99.563602 21.03 98.653602 20.41 97.833602 19.5571153 96.7106016 18.9629478 95.4129945 18.67 94.033602L18.67 94.033602zM168.73 170.833602C169.178205 171.998692 169.513086 173.204264 169.73 174.433602 171.03 180.733602 171.85 187.123602 172.66 193.503602 172.87 195.203602 173.09 196.913602 173.15 198.623602 173.383428 202.69837 172.545634 206.763221 170.72 210.413602 168.876633 214.087603 165.727549 216.94068 161.89 218.413602 160.71 218.833602 159.06 218.913602 158.54 217.773602 158.354763 217.246057 158.354763 216.671147 158.54 216.143602 159.01 214.443602 159.96 212.913602 160.54 211.263602 161.452971 208.798603 161.606231 206.116556 160.98 203.563602 160.74 202.563602 160.23 201.493602 159.24 201.293602 159.733425 203.547683 159.316507 205.905424 158.08 207.853602 157.804736 208.39828 157.321749 208.809179 156.74 208.993602 155.899546 209.08024 155.110958 208.573883 154.84 207.773602 154.599539 206.98668 154.548147 206.154124 154.69 205.343602 155.003609 201.249294 155.62537 197.184448 156.55 193.183602 157.65 188.793602 159.4 184.463602 159.28 179.933602 159.18 175.833602 157.55 171.803602 158.01 167.733602 157.994076 167.268733 158.300782 166.854266 158.75 166.733602 159.898378 166.262935 161.077842 165.872008 162.28 165.563602 162.99 165.383602 165.41 164.563602 166.09 164.923602 166.77 165.283602 166.81 167.053602 167.09 167.673602 167.62 168.703602 168.27 169.723602 168.73 170.833602z"/>
      <circle cx="87.8" cy="32.584" r="16.75" fill="#EBBF97"/>
      <path fill="#EBBF97" d="M102.81,44.703602 C102.802962,45.7720922 102.886595,46.839253 103.06,47.893602 C103.292724,48.9599668 103.627603,50.0014409 104.06,51.003602 C104.616776,52.6406237 105.404749,54.1896304 106.4,55.603602 C107.409368,57.0309371 108.926259,58.0183476 110.64,58.363602 C99.1879304,63.7341075 86.9614634,67.2673979 74.41,68.833602 C76.3867307,67.5196298 78.0301659,65.7632084 79.21,63.703602 C79.8411882,62.3855957 80.2693655,60.9796906 80.48,59.533602 C81.5536125,53.4769554 81.0120949,47.2443293 78.91,41.463602 C78.7,40.903602 78.5,40.203602 78.91,39.733602 C79.081202,39.5663407 79.28561,39.4368823 79.51,39.353602 C84.4811414,37.2429642 89.8521476,36.2397394 95.25,36.413602 C96.63,36.413602 98.01,36.483602 99.39,36.583602 C100.13,36.643602 101.76,36.483602 102.39,37.023602 C103.02,37.563602 102.74,39.683602 102.76,40.553602 L102.81,44.703602 Z"/>
      <path fill="#253750" d="M111.67,56.923602 C106.59731,50.4317414 97.7550168,48.2294165 90.23,51.583602 C82.23,55.393602 78.33,64.583602 71.32,69.903602 C69.7246589,71.0981977 68.024377,72.1458123 66.24,73.033602 C65.1871111,73.6133809 64.0647784,74.0569375 62.9,74.353602 C61.59,74.643602 60.23,74.603602 58.9,74.913602 C56.4137986,75.6439213 54.2955647,77.2870707 52.97,79.513602 C52.3161884,80.6792221 51.588016,81.801543 50.79,82.873602 C50.06,83.743602 49.15,84.453602 48.38,85.283602 C45.59,88.283602 44.83,92.583602 44.2,96.623602 C42.0162608,98.919531 39.633635,101.017714 37.08,102.893602 C36.2788951,103.510972 35.3887682,104.003239 34.44,104.353602 C31.99,105.153602 29.28,104.143602 27.19,102.633602 C25.1,101.123602 23.4,99.133602 21.34,97.633602 C19.45,100.333602 17.47,103.053602 15.45,105.633602 C15.1482603,106.135528 14.681737,106.517229 14.13,106.713602 C13.75,107.993602 14.66,109.313602 15.34,110.453602 L18.99,116.593602 C20.2023521,118.825813 21.6833635,120.901244 23.4,122.773602 C25.1710643,124.616003 27.5611432,125.738022 30.11,125.923602 C31.7222457,125.908921 33.3183198,125.60055 34.82,125.013602 C41.82,122.673602 48.17,118.943602 54.82,115.763602 C56.0196803,115.08117 57.361779,114.687442 58.74,114.613602 C60.1553629,114.581304 61.4205617,115.491431 61.84,116.843602 C62.6,120.683602 63.35,124.503602 64.39,128.263602 C65.3833333,131.823602 66.3,135.393602 67.14,138.973602 C67.7036438,141.17113 68.1047279,143.407174 68.34,145.663602 C68.45,146.943602 68.46,148.223602 68.48,149.513602 L68.62,165.033602 C68.62,166.713602 67.68,167.753602 66.94,169.253602 C65.8249178,171.586028 65.6564712,174.259669 66.47,176.713602 C66.88,177.923602 67.53,179.043602 67.99,180.243602 C69.09,183.133602 69.05,186.313602 68.99,189.403602 L68.86,196.483602 C68.8223939,196.77883 68.8746685,197.078538 69.01,197.343602 C69.44,198.013602 70.48,197.623602 71.14,197.163602 L74.41,194.923602 C78.8419944,195.535603 83.3195535,195.753123 87.79,195.573602 C100.5,195.393602 113.22,195.893602 125.9,196.783602 C130.14,197.083602 134.51,197.403602 138.51,195.993602 C140.51,195.273602 142.41,194.123602 144.51,193.553602 C145.368152,193.413031 146.180532,193.070255 146.88,192.553602 C148.04,191.483602 147.73,189.553602 147.26,188.093602 C146.84,186.773602 146.37,185.463602 145.84,184.183602 C145.301112,183.005004 144.859637,181.784258 144.52,180.533602 C143.89,177.713602 144.52,174.443602 142.75,172.143602 C138.81,166.993602 141.6,159.063602 139.94,152.793602 C139.41,150.793602 138.62,148.793602 138.12,146.793602 C137.8,145.513602 137.6,144.213602 137.41,142.913602 C136.88472,140.09757 136.626906,137.238176 136.64,134.373602 C136.64,132.943602 136.87,131.513602 137.05,130.093602 L138.3,120.213602 C139.858684,123.137856 140.945423,126.290073 141.52,129.553602 C142.655897,134.430004 144.057997,139.240541 145.72,143.963602 C146.66,146.813602 147.6,149.653602 148.62,152.483602 C149.272532,154.099797 149.771401,155.773855 150.11,157.483602 C150.33,158.853602 150.34,160.253602 150.5,161.623602 C150.83521,164.577953 151.863082,167.411454 153.5,169.893602 C153.806646,170.470513 154.310702,170.917775 154.92,171.153602 C155.325113,171.24313 155.744887,171.24313 156.15,171.153602 C160.572409,170.279761 164.85288,168.799095 168.87,166.753602 C169.723678,166.395383 170.465999,165.815337 171.02,165.073602 C172.1,163.313602 170.89,161.123602 170.36,159.123602 C169.83,157.123602 169.93,154.413602 168.25,152.983602 C162.38,147.983602 165.25,137.853602 162.36,130.733602 C161.84,129.483602 161.24,128.273602 160.8,126.993602 C160.46,125.993602 160.21,124.993602 159.96,123.993602 C157.913333,115.706935 155.72,107.450269 153.38,99.223602 C150.96,90.703602 151.22,81.833602 148.17,73.513602 C147.597226,71.7759812 146.850087,70.100781 145.94,68.513602 C144.919522,66.854082 143.555634,65.4322285 141.94,64.343602 C137.51,61.413602 133.05,58.923602 127.84,57.863602 C122.63,56.803602 116.97,56.863602 111.67,56.923602 Z"/>
      <path fill="#2A2A2A" d="M55.53 85.98C55.5262352 86.0098819 55.5262352 86.0401181 55.53 86.07 55.96 86.74 57 86.35 57.66 85.89L60.98 83.6C65.4122915 84.20866 69.8898493 84.4228331 74.36 84.24 87.07 84.06 99.79 84.56 112.47 85.45 116.71 85.75 121.08 86.07 125.08 84.66 127.08 83.94 128.98 82.8 131.08 82.22 131.805112 82.0855393 132.503979 81.8357027 133.15 81.48 133.39 82.14 133.62 82.8 133.83 83.48 134.3 84.99 134.61 86.87 133.45 87.94 132.750532 88.4566527 131.938152 88.7994288 131.08 88.94 129 89.51 127.08 90.66 125.08 91.38 121.08 92.79 116.71 92.47 112.47 92.17 99.79 91.28 87.07 90.78 74.36 90.96 69.8962096 91.1383362 65.4253959 90.9208191 61 90.31L57.68 92.61C57.02 93.07 55.98 93.46 55.55 92.79 55.4146685 92.5249356 55.3623939 92.2252279 55.4 91.93 55.4466667 89.95 55.49 87.9666667 55.53 85.98zM128.11 24.92C127.535423 21.6564713 126.448684 18.5042541 124.89 15.58L123.64 25.46C123.56 26.08 123.48 26.7 123.41 27.32 123.250253 25.8992775 123.190106 24.4691187 123.23 23.04 123.23 21.61 123.46 20.18 123.64 18.76L124.89 8.88C126.448684 11.8042541 127.535423 14.9564713 128.11 18.22 129.245897 23.0964024 130.647997 27.9069387 132.31 32.63 133.25 35.48 134.19 38.33 135.21 41.15 135.861199 42.766661 136.360031 44.4405925 136.7 46.15 136.92 47.52 136.93 48.92 137.09 50.29 137.419621 53.2456602 138.447954 56.0804311 140.09 58.56 140.389812 59.1385203 140.891539 59.5868727 141.5 59.82 141.908747 59.8931364 142.328538 59.8760717 142.73 59.77 147.152409 58.8961593 151.43288 57.4154933 155.45 55.37 155.980224 55.1093266 156.479938 54.7907167 156.94 54.42L156.94 54.42C157.47 56.42 158.68 58.61 157.6 60.37 157.045999 61.111735 156.303678 61.6917812 155.45 62.05 151.43288 64.0954933 147.152409 65.5761593 142.73 66.45 142.324887 66.5395283 141.905113 66.5395283 141.5 66.45 140.891539 66.2168727 140.389812 65.7685203 140.09 65.19 138.44933 62.7097386 137.421121 59.8753096 137.09 56.92 136.93 55.55 136.92 54.15 136.7 52.78 136.361401 51.0702532 135.862532 49.396195 135.21 47.78 134.21 44.95 133.21 42.11 132.31 39.26 130.650439 34.5598788 129.248358 29.7727749 128.11 24.92L128.11 24.92zM127.08 52.15C127.08 52.59 127.08 53.04 127.08 53.49 127.1 53.04 127.09 52.6 127.08 52.15zM54.55 68.97C55.65 71.86 55.61 75.04 55.55 78.13 55.55 78.94 55.55 79.74 55.55 80.55 55.4653968 78.8821193 55.1282266 77.2367284 54.55 75.67 54.09 74.47 53.44 73.35 53.03 72.14 52.329756 70.0218268 52.3579158 67.7303258 53.11 65.63 53.52 66.77 54.11 67.84 54.55 68.97zM2.06.96L2.63.22 5.63 5.22C6.83985819 7.45376914 8.32107928 9.52949393 10.04 11.4 11.7902727 13.2748431 14.1743374 14.433021 16.73 14.65 18.3411707 14.6339018 19.9364054 14.3290799 21.44 13.75 28.44 11.4 34.79 7.67 41.44 4.49 42.619174 3.80591255 43.9398784 3.4021739 45.3 3.31 46.7170519 3.28240258 47.9813123 4.1959327 48.4 5.55 49.16 9.38 49.91 13.2 50.95 16.96 51.9433333 20.52 52.86 24.09 53.7 27.67 54.2636438 29.8675275 54.6647279 32.1035717 54.9 34.36 55.01 35.64 55.02 36.93 55.03 38.21L55.1800214 53.74C55.1807712 53.9680218 55.1606876 54.1956363 55.12 54.42L55.03 44.91C55.03 43.62 55.03 42.34 54.9 41.06 54.6647279 38.8035717 54.2636438 36.5675275 53.7 34.37 52.8466667 30.79 51.93 27.22 50.95 23.66 49.95 19.9 49.16 16.08 48.4 12.24 47.9805617 10.8878289 46.7153629 9.97770199 45.3 10.01 43.921779 10.0838405 42.5796803 10.4775684 41.38 11.16 34.76 14.34 28.38 18.07 21.38 20.41 19.8783198 20.9969483 18.2822457 21.3053193 16.67 21.32 14.1143374 21.103021 11.7302727 19.9448431 9.98 18.07 8.26336352 16.1976422 6.78235208 14.1222112 5.57 11.89 4.36 9.84 3.14 7.8 1.92 5.75 1.24 4.61.33 3.29.71 2.01 1.26824215 1.82732138 1.74552881 1.45609842 2.06.96L2.06.96z" opacity=".433" transform="translate(13.41 104.614)"/>
      <g transform="translate(62.41 .614)">
        <path fill="#325081" d="M10,34.6340787 C7.75,33.4240787 8.34,30.1240787 8,27.6340787 C7.21,22.4240787 1.34,19.3440787 -1.10134124e-13,14.2640787 C1.58437777,14.4613172 3.19270679,14.2335281 4.66,13.6040787 C4.94115221,11.9173317 4.60759967,10.1856972 3.72,8.72407866 C8.55,6.72407866 12.47,2.91407866 17.37,1.14407866 C23.55,-1.08592134 30.37,0.284078662 36.65,2.35407866 C39.76,3.35407866 42.99,4.72407866 44.87,7.40407866 C46.93,10.3540787 46.87,14.2240787 46.79,17.8240787 C46.62,23.4640787 46.39,29.3040787 43.88,34.3540787 C40.69,40.7840787 31.64,46.7340787 24.16,44.9940787 C21.06,44.2740787 20.16,42.3140787 18.83,39.6140787 C18.01,37.9340787 17.71,35.9840787 15.83,35.1040787 C13.95,34.2240787 11.83,35.6140787 10,34.6340787 Z"/>
        <g transform="translate(0 9)">
          <path fill="#000" d="M4.75,3.58 L4.75,3.58 C4.60007831,2.71275966 4.28795795,1.88156958 3.83,1.13 C4.11,1.01666667 4.39,0.896666667 4.67,0.77 C4.88640586,1.69162042 4.91362123,2.6475603 4.75,3.58 Z"/>
          <path fill="#253750" d="M8.13,17.6 C8.51,20.13 7.92,23.42 10.13,24.6 C11.95,25.6 14.13,24.19 15.92,25.05 C17.71,25.91 18.06,27.88 18.92,29.56 C20.23,32.26 21.15,34.21 24.25,34.94 C31.73,36.68 40.78,30.72 43.97,24.29 C46.48,19.24 46.71,13.4 46.88,7.76 C46.88,7.48 46.88,7.21 46.88,6.93 C46.88,8.02 46.88,9.12 46.88,10.2 C46.71,15.84 46.48,21.68 43.97,26.73 C40.78,33.16 31.73,39.11 24.25,37.37 C21.15,36.65 20.25,34.69 18.92,31.99 C18.1,30.31 17.8,28.36 15.92,27.48 C14.04,26.6 11.92,28.02 10.13,27.04 C7.88,25.83 8.47,22.53 8.13,20.04 C7.34,14.83 1.47,11.75 0.13,6.67 C0.491276933,6.71851634 0.855484945,6.74190585 1.22,6.74 C3.37,10.45 7.48,13.31 8.13,17.6 Z"/>
        </g>
      </g>
    </g>
  </g>
</svg>
