<?xml version="1.0" standalone="no"?>
<!DOCTYPE svg PUBLIC "-//W3C//DTD SVG 20010904//EN"
 "http://www.w3.org/TR/2001/REC-SVG-20010904/DTD/svg10.dtd">
<svg version="1.0" xmlns="http://www.w3.org/2000/svg"
 width="225.000000pt" height="225.000000pt" viewBox="0 0 225.000000 225.000000"
 preserveAspectRatio="xMidYMid meet">
<metadata>
Created by potrace 1.16, written by Peter Selinger 2001-2019
</metadata>
<g transform="translate(0.000000,225.000000) scale(0.100000,-0.100000)"
fill="#000000" stroke="none">
<path d="M1782 2240 c-64 -14 -157 -67 -203 -117 -48 -52 -86 -131 -95 -196
l-7 -47 35 0 c34 0 36 2 42 41 15 92 85 183 174 226 77 36 183 39 257 5 66
-30 138 -103 166 -166 35 -78 32 -183 -6 -259 -53 -106 -144 -167 -260 -174
-103 -7 -116 1 -118 68 -5 147 -165 202 -261 89 -49 -59 -30 -170 37 -210 37
-23 110 -26 146 -6 19 11 30 10 65 -2 64 -22 197 -12 266 20 84 39 144 98 187
184 33 68 37 83 37 157 0 100 -21 167 -75 240 -43 57 -129 120 -187 137 -54
15 -151 20 -200 10z"/>
<path d="M1301 1548 c-18 -7 -57 -33 -85 -59 l-51 -48 138 -138 138 -138 48
51 c81 88 90 185 26 270 -44 58 -141 86 -214 62z m145 -102 c29 -29 34 -41 34
-79 0 -30 -7 -53 -21 -72 l-22 -27 -84 84 -84 83 26 23 c19 16 39 22 72 22 38
0 50 -5 79 -34z"/>
<path d="M1112 1388 l-22 -23 77 -77 c89 -89 91 -88 -74 -54 -111 23 -113 23
-130 4 -16 -18 -12 -24 120 -156 l136 -136 26 24 26 24 -82 82 -81 82 136 -28
c127 -25 136 -26 151 -10 8 9 15 21 15 26 0 13 -253 264 -265 264 -6 0 -21
-10 -33 -22z"/>
<path d="M817 1092 l-97 -97 138 -138 138 -138 27 29 27 28 -55 54 -55 54 47
48 47 48 56 -55 56 -55 24 25 24 26 -134 134 c-74 74 -137 135 -140 135 -3 0
-49 -44 -103 -98z"/>
<path d="M655 916 c-16 -8 -58 -43 -92 -78 l-63 -63 138 -138 138 -138 24 26
24 25 -35 37 c-19 20 -67 70 -107 111 l-73 75 37 38 c39 40 61 48 82 27 19
-19 14 -40 -20 -75 l-32 -33 27 -27 27 -28 26 27 27 26 64 -39 c35 -21 67 -39
71 -39 5 0 19 11 31 24 l23 24 -43 27 c-24 15 -57 36 -74 46 -20 12 -34 33
-45 65 -24 74 -92 109 -155 80z"/>
<path d="M354 628 l-75 -72 138 -138 138 -138 63 63 c76 74 84 89 84 138 -1
50 -25 84 -73 103 -26 11 -39 22 -39 35 0 11 -14 33 -31 50 -26 26 -38 31 -81
31 -49 0 -52 -2 -124 -72z m154 -10 c20 -20 14 -40 -20 -75 -26 -27 -30 -37
-22 -50 24 -38 42 -39 77 -5 35 34 55 40 75 20 21 -21 13 -43 -28 -83 l-40
-39 -82 82 -82 82 39 40 c40 41 62 49 83 28z"/>
</g>
</svg>
