<?xml version="1.0" encoding="UTF-8" standalone="no"?>
<!-- Created with Inkscape (http://www.inkscape.org/) -->

<svg
   xmlns:dc="http://purl.org/dc/elements/1.1/"
   xmlns:cc="http://creativecommons.org/ns#"
   xmlns:rdf="http://www.w3.org/1999/02/22-rdf-syntax-ns#"
   xmlns:svg="http://www.w3.org/2000/svg"
   xmlns="http://www.w3.org/2000/svg"
   xmlns:sodipodi="http://sodipodi.sourceforge.net/DTD/sodipodi-0.dtd"
   xmlns:inkscape="http://www.inkscape.org/namespaces/inkscape"
   version="1.1"
   id="svg2"
   xml:space="preserve"
   width="666.66669"
   height="666.66669"
   viewBox="0 0 666.66669 666.66669"
   sodipodi:docname="web-develop-1.svg"
   inkscape:version="0.92.4 (5da689c313, 2019-01-14)"><metadata
     id="metadata8"><rdf:RDF><cc:Work
         rdf:about=""><dc:format>image/svg+xml</dc:format><dc:type
           rdf:resource="http://purl.org/dc/dcmitype/StillImage" /><dc:title></dc:title></cc:Work></rdf:RDF></metadata><defs
     id="defs6" /><sodipodi:namedview
     pagecolor="#ffffff"
     bordercolor="#666666"
     borderopacity="1"
     objecttolerance="10"
     gridtolerance="10"
     guidetolerance="10"
     inkscape:pageopacity="0"
     inkscape:pageshadow="2"
     inkscape:window-width="1920"
     inkscape:window-height="1001"
     id="namedview4"
     showgrid="false"
     inkscape:zoom="1.062"
     inkscape:cx="333.33334"
     inkscape:cy="333.33334"
     inkscape:window-x="-9"
     inkscape:window-y="-9"
     inkscape:window-maximized="1"
     inkscape:current-layer="g10" /><g
     id="g10"
     inkscape:groupmode="layer"
     inkscape:label="ink_ext_XXXXXX"
     transform="matrix(1.3333333,0,0,-1.3333333,0,666.66667)"><path
       inkscape:connector-curvature="0"
       id="path16"
       style="fill:#214460;fill-opacity:1;fill-rule:evenodd;stroke:none;stroke-width:0.1"
       d="m 334.122,263.635 v 101.098 c 0,2.339 1.914,4.252 4.253,4.252 h 79.415 c 2.338,0 4.252,-1.914 4.252,-4.252 V 263.635 c 0,-2.338 -1.915,-4.253 -4.252,-4.253 h -79.415 c -2.338,0 -4.253,1.914 -4.253,4.253" /><path
       inkscape:connector-curvature="0"
       id="path18"
       style="fill:#192c3a;fill-opacity:1;fill-rule:evenodd;stroke:none;stroke-width:0.1"
       d="m 378.083,368.985 h 39.707 c 2.338,0 4.252,-1.913 4.252,-4.253 V 263.636 c 0,-2.339 -1.914,-4.254 -4.252,-4.254 h -39.707 v 109.603" /><path
       inkscape:connector-curvature="0"
       id="path20"
       style="fill:#c8e8f7;fill-opacity:1;fill-rule:evenodd;stroke:none;stroke-width:0.1"
       d="m 376.288,364.826 c 0,0.99 0.803,1.794 1.795,1.794 0.99,0 1.793,-0.804 1.793,-1.794 0,-0.992 -0.803,-1.795 -1.793,-1.795 -0.992,0 -1.795,0.803 -1.795,1.795" /><path
       inkscape:connector-curvature="0"
       id="path22"
       style="fill:#c8e8f7;fill-opacity:1;fill-rule:evenodd;stroke:none;stroke-width:0.1"
       d="m 340.63,269.474 v 89.42 c 0,1.527 1.247,2.774 2.774,2.774 h 64.163 c 1.527,0 2.774,-1.248 2.774,-2.774 v -89.42 c 0,-1.526 -1.248,-2.775 -2.774,-2.775 h -64.163 c -1.526,0 -2.774,1.248 -2.774,2.775" /><path
       inkscape:connector-curvature="0"
       id="path24"
       style="fill:#8fcbd5;fill-opacity:1;fill-rule:evenodd;stroke:none;stroke-width:0.1"
       d="m 378.083,361.668 h 34.675 c 1.528,0 2.776,-1.249 2.776,-2.774 v -89.42 c 0,-1.526 -1.249,-2.775 -2.776,-2.775 h -34.675 v 94.969" /><path
       inkscape:connector-curvature="0"
       id="path26"
       style="fill:#f8ba0b;fill-opacity:1;fill-rule:evenodd;stroke:none;stroke-width:0.1"
       d="m 340.63,269.474 v 48.552 l 1.754,-0.407 1.467,-1.346 1.973,0.41 15.582,-4.6 -0.33,-2.23 c -0.047,-0.32 1.145,-1.551 2.064,-1.043 0.827,0.456 0.158,0.287 1.341,1.236 0.604,0.484 -0.676,1.163 0.037,1.746 3.649,2.982 10.275,6.567 10.926,6.963 l 12.178,7.409 2.661,-0.157 2.052,2.387 10.656,1.496 c 1.511,0.212 2.077,-1.008 4.504,-0.08 l 2.847,-1.5 v -58.836 c 0,-1.526 -1.249,-2.775 -2.775,-2.775 h -64.162 c -1.526,0 -2.775,1.249 -2.775,2.775" /><path
       inkscape:connector-curvature="0"
       id="path28"
       style="fill:#f0401e;fill-opacity:1;fill-rule:evenodd;stroke:none;stroke-width:0.1"
       d="m 345.119,319.051 c -0.208,0.208 -0.496,0.337 -0.815,0.337 -0.317,0 -0.606,-0.129 -0.814,-0.337 -0.208,-0.208 -0.337,-0.496 -0.337,-0.814 0,-0.32 0.128,-0.608 0.334,-0.814 l 0.003,-0.003 c 0.207,-0.207 0.495,-0.335 0.814,-0.335 0.319,0 0.607,0.13 0.815,0.338 h 0.003 c 0.207,0.206 0.334,0.494 0.334,0.814 0,0.32 -0.128,0.608 -0.334,0.814 z m 18.384,-7.671 c -0.206,0.206 -0.494,0.334 -0.814,0.334 -0.317,0 -0.606,-0.129 -0.814,-0.337 -0.208,-0.208 -0.337,-0.496 -0.337,-0.815 0,-0.318 0.129,-0.605 0.337,-0.813 v -0.003 c 0.207,-0.207 0.495,-0.335 0.814,-0.335 0.32,0 0.608,0.128 0.814,0.335 v 0.003 c 0.208,0.208 0.337,0.495 0.337,0.813 0,0.321 -0.128,0.608 -0.335,0.815 z m 26.853,17.028 c -0.206,0.206 -0.494,0.334 -0.814,0.334 -0.318,0 -0.606,-0.129 -0.814,-0.337 h -0.003 c -0.206,-0.207 -0.334,-0.494 -0.334,-0.814 0,-0.319 0.128,-0.607 0.337,-0.815 0.208,-0.208 0.496,-0.337 0.814,-0.337 0.32,0 0.608,0.128 0.814,0.334 v 0.003 c 0.208,0.208 0.337,0.496 0.337,0.815 0,0.317 -0.129,0.606 -0.337,0.814 z m 21.168,3.477 c -0.206,0.207 -0.494,0.334 -0.815,0.334 -0.319,0 -0.607,-0.128 -0.814,-0.334 v -0.003 c -0.208,-0.208 -0.337,-0.496 -0.337,-0.814 0,-0.32 0.128,-0.608 0.334,-0.814 h 0.003 c 0.208,-0.208 0.497,-0.337 0.814,-0.337 0.321,0 0.609,0.127 0.815,0.334 l 0.003,0.003 c 0.206,0.206 0.334,0.494 0.334,0.814 0,0.318 -0.129,0.606 -0.337,0.814 z m -70.894,-13.031 1.19,0.025 c 0.116,0.45 0.351,0.853 0.67,1.172 0.465,0.464 1.106,0.751 1.814,0.751 0.708,0 1.351,-0.287 1.815,-0.751 l -0.001,-10e-4 c 0.465,-0.466 0.753,-1.107 0.753,-1.813 0,-0.358 -0.075,-0.7 -0.208,-1.009 l 14.966,-4.328 c 0.324,0.146 0.682,0.228 1.06,0.228 0.526,0 1.016,-0.16 1.425,-0.434 l 22.99,14.095 c -0.083,0.252 -0.128,0.522 -0.128,0.802 0,0.705 0.288,1.347 0.753,1.812 l -10e-4,0.002 c 0.464,0.464 1.106,0.751 1.814,0.751 0.706,0 1.348,-0.288 1.813,-0.753 l 10e-4,0.002 c 0.1,-0.1 0.19,-0.207 0.272,-0.322 l 16.523,1.791 c -0.005,0.063 -0.007,0.128 -0.007,0.194 0,0.708 0.287,1.35 0.752,1.814 l 10e-4,-0.001 c 0.466,0.465 1.107,0.752 1.812,0.752 0.707,0 1.348,-0.287 1.813,-0.752 l 0.002,0.001 c 0.464,-0.464 0.751,-1.106 0.751,-1.814 0,-0.315 -0.057,-0.617 -0.162,-0.897 l 2.421,-0.917 v -1.446 l -3.262,1.228 c -0.434,-0.334 -0.976,-0.534 -1.563,-0.534 -0.708,0 -1.349,0.288 -1.813,0.752 l 10e-4,10e-4 c -0.09,0.091 -0.174,0.188 -0.25,0.291 l -16.544,-1.797 c 0.003,-0.052 0.005,-0.105 0.005,-0.158 0,-0.709 -0.288,-1.35 -0.752,-1.815 l -10e-4,0.002 c -0.465,-0.465 -1.107,-0.753 -1.813,-0.753 -0.624,0 -1.196,0.223 -1.641,0.594 l -22.873,-14.002 c 0.145,-0.322 0.226,-0.679 0.226,-1.055 0,-0.708 -0.287,-1.35 -0.751,-1.813 l -0.002,10e-4 c -0.464,-0.465 -1.106,-0.753 -1.812,-0.753 -0.706,0 -1.347,0.288 -1.813,0.753 l -10e-4,-10e-4 c -0.464,0.463 -0.751,1.105 -0.751,1.813 0,0.525 0.157,1.012 0.427,1.418 l -14.778,4.153 c -0.416,-0.291 -0.923,-0.462 -1.469,-0.462 -0.705,0 -1.346,0.287 -1.811,0.752 l -0.002,10e-4 -10e-4,0.002 c -0.288,0.289 -0.509,0.646 -0.634,1.045 l -1.226,-0.027 v 1.41 0" /><path
       inkscape:connector-curvature="0"
       id="path30"
       style="fill:#f89f0e;fill-opacity:1;fill-rule:evenodd;stroke:none;stroke-width:0.1"
       d="m 378.083,320.36 9.539,5.804 2.661,-0.157 2.052,2.387 15.847,1.496 c 1.521,0.143 2.077,-1.008 4.504,-0.08 l 2.848,-1.5 v -58.836 c 0,-1.526 -1.249,-2.775 -2.776,-2.775 h -34.675 v 53.661" /><path
       inkscape:connector-curvature="0"
       id="path32"
       style="fill:#df3322;fill-opacity:1;fill-rule:evenodd;stroke:none;stroke-width:0.1"
       d="m 390.356,328.408 c -0.206,0.206 -0.494,0.334 -0.814,0.334 -0.318,0 -0.606,-0.129 -0.814,-0.337 h -0.003 c -0.206,-0.207 -0.334,-0.494 -0.334,-0.814 0,-0.319 0.128,-0.607 0.337,-0.815 0.208,-0.208 0.496,-0.337 0.814,-0.337 0.32,0 0.608,0.128 0.814,0.334 v 0.003 c 0.208,0.208 0.337,0.496 0.337,0.815 0,0.317 -0.129,0.606 -0.337,0.814 z m 21.168,3.477 c -0.206,0.207 -0.494,0.334 -0.815,0.334 -0.319,0 -0.607,-0.128 -0.814,-0.334 v -0.003 c -0.208,-0.208 -0.337,-0.496 -0.337,-0.814 0,-0.32 0.128,-0.608 0.334,-0.814 h 0.003 c 0.208,-0.208 0.497,-0.337 0.814,-0.337 0.321,0 0.609,0.127 0.815,0.334 l 0.003,0.003 c 0.206,0.206 0.334,0.494 0.334,0.814 0,0.318 -0.129,0.606 -0.337,0.814 z m -33.441,-10.626 9.021,5.53 c -0.083,0.252 -0.128,0.522 -0.128,0.802 0,0.705 0.288,1.347 0.753,1.812 l -10e-4,0.002 c 0.464,0.464 1.106,0.751 1.814,0.751 0.706,0 1.348,-0.288 1.813,-0.753 l 10e-4,0.002 c 0.1,-0.1 0.19,-0.207 0.272,-0.322 l 16.523,1.791 c -0.005,0.063 -0.007,0.128 -0.007,0.194 0,0.708 0.287,1.35 0.752,1.814 l 10e-4,-0.001 c 0.466,0.465 1.107,0.752 1.812,0.752 0.707,0 1.348,-0.287 1.813,-0.752 l 0.002,0.001 c 0.464,-0.464 0.751,-1.106 0.751,-1.814 0,-0.315 -0.057,-0.617 -0.162,-0.897 l 2.421,-0.917 v -1.446 l -3.262,1.228 c -0.434,-0.334 -0.976,-0.534 -1.563,-0.534 -0.708,0 -1.349,0.288 -1.813,0.752 l 10e-4,10e-4 c -0.09,0.091 -0.174,0.188 -0.25,0.291 l -16.544,-1.797 c 0.003,-0.052 0.005,-0.105 0.005,-0.158 0,-0.709 -0.288,-1.35 -0.752,-1.815 l -10e-4,0.002 c -0.465,-0.465 -1.107,-0.753 -1.813,-0.753 -0.624,0 -1.196,0.223 -1.641,0.594 l -9.818,-6.011 v 1.651 0" /><path
       inkscape:connector-curvature="0"
       id="path34"
       style="fill:#192c3a;fill-opacity:1;fill-rule:evenodd;stroke:none;stroke-width:0.1"
       d="M 66.8324,345.299 H 178.609 c 2.586,0 4.702,-2.115 4.702,-4.702 v -76.323 c 0,-2.586 -2.116,-4.702 -4.702,-4.702 H 66.8324 c -2.5863,0 -4.7019,2.116 -4.7019,4.702 v 76.323 c 0,2.587 2.1156,4.702 4.7019,4.702" /><path
       inkscape:connector-curvature="0"
       id="path36"
       style="fill:#def4fd;fill-opacity:1;fill-rule:evenodd;stroke:none;stroke-width:0.1"
       d="m 122.721,343.129 c 0.753,0 1.363,-0.611 1.363,-1.364 0,-0.753 -0.61,-1.364 -1.363,-1.364 -0.754,0 -1.365,0.611 -1.365,1.364 0,0.753 0.611,1.364 1.365,1.364" /><path
       inkscape:connector-curvature="0"
       id="path38"
       style="fill:#cbeef7;fill-opacity:1;fill-rule:evenodd;stroke:none;stroke-width:0.1"
       d="M 70.2203,338.104 H 175.221 V 266.768 H 70.2203 v 71.336" /><path
       inkscape:connector-curvature="0"
       id="path40"
       style="fill:#ace1e9;fill-opacity:1;fill-rule:evenodd;stroke:none;stroke-width:0.1"
       d="M 70.2195,338.103 H 175.221 V 325.669 H 70.2195 v 12.434" /><path
       inkscape:connector-curvature="0"
       id="path42"
       style="fill:#ace1e9;fill-opacity:1;fill-rule:evenodd;stroke:none;stroke-width:0.1"
       d="M 73.7258,321.849 H 121.289 V 298.798 H 73.7258 v 23.051" /><path
       inkscape:connector-curvature="0"
       id="path44"
       style="fill:#ace1e9;fill-opacity:1;fill-rule:evenodd;stroke:none;stroke-width:0.1"
       d="m 73.7258,295.33 h 21.5051 v -3.005 H 73.7258 v 3.005" /><path
       inkscape:connector-curvature="0"
       id="path46"
       style="fill:#ace1e9;fill-opacity:1;fill-rule:evenodd;stroke:none;stroke-width:0.1"
       d="m 73.7258,288.232 h 21.5051 v -3.005 H 73.7258 v 3.005" /><path
       inkscape:connector-curvature="0"
       id="path48"
       style="fill:#ace1e9;fill-opacity:1;fill-rule:evenodd;stroke:none;stroke-width:0.1"
       d="M 73.7258,281.134 H 95.2309 V 278.13 H 73.7258 v 3.004" /><path
       inkscape:connector-curvature="0"
       id="path50"
       style="fill:#ace1e9;fill-opacity:1;fill-rule:evenodd;stroke:none;stroke-width:0.1"
       d="m 73.7258,274.037 h 21.5051 v -3.005 H 73.7258 v 3.005" /><path
       inkscape:connector-curvature="0"
       id="path52"
       style="fill:#ace1e9;fill-opacity:1;fill-rule:evenodd;stroke:none;stroke-width:0.1"
       d="m 99.5141,295.33 h 21.7749 v -3.005 H 99.5141 v 3.005" /><path
       inkscape:connector-curvature="0"
       id="path54"
       style="fill:#ace1e9;fill-opacity:1;fill-rule:evenodd;stroke:none;stroke-width:0.1"
       d="m 99.5141,288.232 h 21.7749 v -3.005 H 99.5141 v 3.005" /><path
       inkscape:connector-curvature="0"
       id="path56"
       style="fill:#ace1e9;fill-opacity:1;fill-rule:evenodd;stroke:none;stroke-width:0.1"
       d="M 99.5141,281.134 H 121.289 V 278.13 H 99.5141 v 3.004" /><path
       inkscape:connector-curvature="0"
       id="path58"
       style="fill:#ace1e9;fill-opacity:1;fill-rule:evenodd;stroke:none;stroke-width:0.1"
       d="m 99.5141,274.037 h 21.7749 v -3.005 H 99.5141 v 3.005" /><path
       inkscape:connector-curvature="0"
       id="path60"
       style="fill:#badcee;fill-opacity:1;fill-rule:evenodd;stroke:none;stroke-width:0.1"
       d="m 246.742,290.297 h 2.335 v -4.672 h -2.335 z m 0,9.342 h 2.335 v -4.671 h -2.335 z m 0,9.342 h 2.335 v -4.671 h -2.335 z m 0,9.342 h 2.335 v -4.671 h -2.335 z m 0,9.343 h 2.335 v -4.671 h -2.335 z m 0,9.342 h 2.335 v -4.672 h -2.335 z m 0,9.342 h 2.335 v -4.671 h -2.335 z m 0,9.342 h 2.335 v -4.671 h -2.335 z m 0,9.343 h 2.335 v -4.672 h -2.335 z m 0,9.341 h 2.335 v -4.67 h -2.335 z m 0,-93.421 h 2.335 v -4.672 h -2.335 v 4.672 0" /><path
       inkscape:connector-curvature="0"
       id="path62"
       style="fill:#def4fd;fill-opacity:1;fill-rule:evenodd;stroke:none;stroke-width:0.1"
       d="m 203.17,349.811 h 89.479 V 328.277 H 203.17 v 21.534" /><path
       inkscape:connector-curvature="0"
       id="path64"
       style="fill:#badcee;fill-opacity:1;fill-rule:evenodd;stroke:none;stroke-width:0.1"
       d="m 291.481,348.643 h -87.143 v -19.199 h 87.143 z m -88.311,2.336 h 90.646 v -23.87 h -91.813 v 1.168 21.534 1.168 h 1.167 v 0" /><path
       inkscape:connector-curvature="0"
       id="path66"
       style="fill:#badcee;fill-opacity:1;fill-rule:evenodd;stroke:none;stroke-width:0.1"
       d="m 208.308,428.511 c 8.482,27.37 58.027,21.438 59.137,-15.622 5.87,4.137 28.268,3.216 31.877,-18.489 1.055,-6.349 2.801,-30.654 -18.857,-30.654 H 174.737 c -20.199,0 -23.098,11.133 -23.098,21.592 0,13.273 14.062,20.798 26.061,18.444 -10.949,17.979 13.266,34.804 30.608,24.729" /><path
       inkscape:connector-curvature="0"
       id="path68"
       style="fill:#def4fd;fill-opacity:1;fill-rule:evenodd;stroke:none;stroke-width:0.1"
       d="m 270.552,438.123 c 7.208,23.26 49.313,18.219 50.256,-13.276 4.988,3.516 24.024,2.733 27.09,-15.711 0.896,-5.396 2.38,-26.052 -16.024,-26.052 h -89.851 c -17.166,0 -19.629,9.462 -19.629,18.351 0,11.278 11.95,17.674 22.147,15.674 -9.304,15.278 11.274,29.576 26.011,21.014" /><path
       inkscape:connector-curvature="0"
       id="path70"
       style="fill:#326195;fill-opacity:1;fill-rule:evenodd;stroke:none;stroke-width:0.1"
       d="m 225.778,163.211 h 46.002 l 3.763,-38.236 h -53.529 l 3.764,38.236" /><path
       inkscape:connector-curvature="0"
       id="path72"
       style="fill:#192c3a;fill-opacity:1;fill-rule:evenodd;stroke:none;stroke-width:0.1"
       d="m 248.781,163.211 h 23 l 3.763,-38.236 h -26.763 v 38.236" /><path
       inkscape:connector-curvature="0"
       id="path74"
       style="fill:#def4fd;fill-opacity:1;fill-rule:evenodd;stroke:none;stroke-width:0.1"
       d="m 218.514,130.749 h 60.53 c 1.372,0 2.495,-1.122 2.495,-2.494 v -1.782 c 0,-1.372 -1.123,-2.494 -2.495,-2.494 h -60.53 c -1.371,0 -2.494,1.122 -2.494,2.494 v 1.782 c 0,1.372 1.123,2.494 2.494,2.494" /><path
       inkscape:connector-curvature="0"
       id="path76"
       style="fill:#c8e8f7;fill-opacity:1;fill-rule:evenodd;stroke:none;stroke-width:0.1"
       d="m 248.781,130.749 h 30.262 c 1.373,0 2.495,-1.122 2.495,-2.494 v -1.782 c 0,-1.372 -1.122,-2.494 -2.495,-2.494 h -30.262 v 6.77" /><path
       inkscape:connector-curvature="0"
       id="path78"
       style="fill:#214460;fill-opacity:1;fill-rule:evenodd;stroke:none;stroke-width:0.1"
       d="m 151.826,301.915 h 193.906 c 2.221,0 4.26,-0.816 5.833,-2.162 1.93,-1.652 3.159,-4.105 3.159,-6.829 V 161.958 c 0,-4.945 -4.047,-8.991 -8.992,-8.991 H 151.826 c -4.946,0 -8.992,4.046 -8.992,8.991 v 13.597 117.369 c 0,4.945 4.046,8.991 8.992,8.991" /><path
       inkscape:connector-curvature="0"
       id="path80"
       style="fill:#def4fd;fill-opacity:1;fill-rule:evenodd;stroke:none;stroke-width:0.1"
       d="m 354.724,173.188 v -11.23 c 0,-4.945 -4.047,-8.991 -8.992,-8.991 H 151.826 c -4.946,0 -8.992,4.046 -8.992,8.991 v 11.23 h 211.89" /><path
       inkscape:connector-curvature="0"
       id="path82"
       style="fill:#c8e8f7;fill-opacity:1;fill-rule:evenodd;stroke:none;stroke-width:0.1"
       d="m 354.724,173.187 v -11.229 c 0,-4.945 -4.046,-8.992 -8.992,-8.992 h -96.951 v 20.221 h 105.943" /><path
       inkscape:connector-curvature="0"
       id="path84"
       style="fill:#45b5bf;fill-opacity:1;fill-rule:evenodd;stroke:none;stroke-width:0.1"
       d="M 150.003,293.949 H 347.555 V 179.641 H 150.003 v 114.308" /><path
       inkscape:connector-curvature="0"
       id="path86"
       style="fill:#3a97a6;fill-opacity:1;fill-rule:evenodd;stroke:none;stroke-width:0.1"
       d="m 248.781,293.95 h 98.774 V 179.641 H 248.781 V 293.95" /><path
       inkscape:connector-curvature="0"
       id="path88"
       style="fill:#326195;fill-opacity:1;fill-rule:evenodd;stroke:none;stroke-width:0.1"
       d="m 239.319,167.492 h 18.92 c 1.944,0 3.534,-1.59 3.534,-3.534 v -0.001 c 0,-1.943 -1.59,-3.534 -3.534,-3.534 h -18.92 c -1.944,0 -3.534,1.591 -3.534,3.534 v 0.001 c 0,1.944 1.59,3.534 3.534,3.534" /><path
       inkscape:connector-curvature="0"
       id="path90"
       style="fill:#192c3a;fill-opacity:1;fill-rule:evenodd;stroke:none;stroke-width:0.1"
       d="m 248.781,167.492 h 9.459 c 1.944,0 3.533,-1.59 3.533,-3.534 v -0.001 c 0,-1.943 -1.589,-3.534 -3.533,-3.534 h -9.459 v 7.069" /><path
       inkscape:connector-curvature="0"
       id="path92"
       style="fill:#f8ba0b;fill-opacity:1;fill-rule:evenodd;stroke:none;stroke-width:0.1"
       d="m 279.268,250.477 c -12.438,0 -22.521,-10.083 -22.521,-22.522 0,-12.437 10.083,-22.521 22.521,-22.521 12.438,0 22.522,10.084 22.522,22.521 0,12.439 -10.084,22.522 -22.522,22.522 z m 0,-6.656 c -8.763,0 -15.866,-7.103 -15.866,-15.866 0,-8.762 7.103,-15.866 15.866,-15.866 8.762,0 15.865,7.104 15.865,15.866 0,8.763 -7.103,15.866 -15.865,15.866 z m 0,3.089 c -10.469,0 -18.955,-8.486 -18.955,-18.955 0,-10.468 8.486,-18.954 18.955,-18.954 10.468,0 18.954,8.486 18.954,18.954 0,10.469 -8.486,18.955 -18.954,18.955 z m -2.226,20.747 h 4.452 c 1.065,0 1.937,-0.873 1.937,-1.939 v -3.189 c 1.78,-0.212 3.518,-0.559 5.204,-1.029 l 1.218,2.943 c 0.407,0.985 1.547,1.458 2.532,1.05 l 4.114,-1.701 c 0.985,-0.408 1.458,-1.547 1.049,-2.532 l -1.217,-2.947 c 1.556,-0.876 3.04,-1.87 4.437,-2.968 l 2.258,2.257 c 0.754,0.754 1.987,0.754 2.741,0 l 3.148,-3.147 c 0.753,-0.754 0.753,-1.988 0,-2.742 l -2.258,-2.257 c 1.091,-1.388 2.079,-2.86 2.952,-4.407 l 2.944,1.222 c 0.985,0.409 2.124,-0.063 2.533,-1.048 l 1.706,-4.112 c 0.408,-0.984 -0.063,-2.124 -1.048,-2.533 l -2.941,-1.22 c 0.476,-1.697 0.825,-3.447 1.039,-5.239 h 3.189 c 1.066,0 1.938,-0.872 1.938,-1.937 v -4.453 c 0,-1.065 -0.872,-1.938 -1.938,-1.938 h -3.19 c -0.212,-1.779 -0.558,-3.518 -1.029,-5.204 l 2.943,-1.217 c 0.985,-0.408 1.457,-1.547 1.05,-2.532 l -1.701,-4.113 c -0.407,-0.986 -1.547,-1.458 -2.532,-1.051 l -2.947,1.219 c -0.876,-1.558 -1.87,-3.04 -2.968,-4.438 l 2.258,-2.258 c 0.753,-0.754 0.753,-1.987 0,-2.741 l -3.148,-3.147 c -0.754,-0.754 -1.987,-0.754 -2.741,0 l -2.258,2.257 c -1.388,-1.09 -2.86,-2.079 -4.406,-2.952 l 1.221,-2.944 c 0.409,-0.985 -0.063,-2.125 -1.047,-2.533 l -4.113,-1.705 c -0.984,-0.41 -2.124,0.062 -2.532,1.047 l -1.221,2.941 c -1.697,-0.476 -3.447,-0.825 -5.239,-1.039 v -3.189 c 0,-1.065 -0.872,-1.938 -1.937,-1.938 h -4.452 c -1.066,0 -1.939,0.873 -1.939,1.938 v 3.19 c -1.779,0.212 -3.517,0.558 -5.204,1.029 l -1.217,-2.943 c -0.407,-0.986 -1.547,-1.458 -2.532,-1.05 l -4.113,1.701 c -0.986,0.407 -1.458,1.547 -1.05,2.532 l 1.219,2.947 c -1.558,0.877 -3.041,1.87 -4.439,2.968 l -2.258,-2.257 c -0.754,-0.754 -1.987,-0.754 -2.741,0 l -3.147,3.147 c -0.754,0.754 -0.754,1.987 0,2.741 l 2.257,2.258 c -1.09,1.388 -2.078,2.86 -2.951,4.406 l -2.945,-1.22 c -0.984,-0.41 -2.125,0.062 -2.533,1.046 l -1.705,4.112 c -0.409,0.985 0.062,2.125 1.047,2.533 l 2.941,1.22 c -0.476,1.698 -0.825,3.448 -1.039,5.239 h -3.188 c -1.067,0 -1.939,0.873 -1.939,1.938 v 4.453 c 0,1.065 0.872,1.937 1.939,1.937 h 3.189 c 0.213,1.779 0.559,3.518 1.029,5.204 l -2.943,1.218 c -0.985,0.407 -1.457,1.546 -1.05,2.531 l 1.701,4.115 c 0.408,0.984 1.547,1.457 2.532,1.049 l 2.946,-1.218 c 0.878,1.557 1.871,3.041 2.969,4.438 l -2.257,2.257 c -0.754,0.754 -0.754,1.988 0,2.742 l 3.147,3.147 c 0.754,0.754 1.987,0.754 2.741,0 l 2.258,-2.258 c 1.388,1.092 2.86,2.079 4.406,2.952 l -1.22,2.945 c -0.41,0.985 0.062,2.124 1.047,2.533 l 4.112,1.705 c 0.984,0.409 2.124,-0.062 2.532,-1.047 l 1.22,-2.941 c 1.698,0.475 3.448,0.825 5.239,1.038 v 3.189 c 0,1.066 0.873,1.939 1.939,1.939 v 0" /><path
       inkscape:connector-curvature="0"
       id="path94"
       style="fill:#def4fd;fill-opacity:1;fill-rule:evenodd;stroke:none;stroke-width:0.1"
       d="m 330.726,288.572 c -9.648,0 -17.47,-7.821 -17.47,-17.469 0,-9.648 7.822,-17.47 17.47,-17.47 9.648,0 17.47,7.822 17.47,17.47 0,9.648 -7.822,17.469 -17.47,17.469 z m 0.018,-10.761 c -3.705,0.009 -6.717,-2.986 -6.726,-6.691 -0.009,-3.704 2.986,-6.716 6.691,-6.725 3.706,-0.009 6.716,2.987 6.725,6.691 0.01,3.706 -2.985,6.717 -6.69,6.725 z m 0.011,4.549 c -6.217,0.015 -11.271,-5.011 -11.287,-11.228 -0.014,-6.217 5.013,-11.271 11.229,-11.286 6.219,-0.015 11.271,5.012 11.287,11.228 0.015,6.219 -5.012,11.271 -11.229,11.286 z m 1.718,14.32 c 2.234,-0.151 4.389,-0.587 6.429,-1.274 l 0.929,2.245 c 0.171,0.413 0.649,0.611 1.062,0.44 l 1.726,-0.715 c 0.414,-0.171 0.612,-0.649 0.44,-1.062 l -0.931,-2.248 c 1.973,-0.981 3.802,-2.21 5.446,-3.644 l 1.723,1.724 c 0.317,0.316 0.834,0.316 1.151,0 l 1.32,-1.321 c 0.316,-0.316 0.316,-0.834 0,-1.15 l -1.723,-1.724 c 1.435,-1.642 2.663,-3.472 3.645,-5.445 l 2.247,0.931 c 0.413,0.17 0.891,-0.028 1.062,-0.44 l 0.714,-1.726 c 0.171,-0.413 -0.026,-0.891 -0.439,-1.063 l -2.245,-0.929 c 0.685,-2.041 1.123,-4.196 1.273,-6.429 h 2.435 c 0.448,0 0.813,-0.366 0.813,-0.814 v -1.867 c 0,-0.447 -0.365,-0.813 -0.813,-0.813 h -2.435 c -0.15,-2.234 -0.587,-4.388 -1.273,-6.429 l 2.245,-0.93 c 0.413,-0.17 0.61,-0.648 0.439,-1.062 l -0.714,-1.726 c -0.171,-0.413 -0.649,-0.61 -1.062,-0.439 l -2.248,0.931 c -0.981,-1.974 -2.209,-3.803 -3.645,-5.446 l 1.724,-1.724 c 0.316,-0.316 0.316,-0.834 0,-1.149 l -1.32,-1.321 c -0.317,-0.316 -0.834,-0.316 -1.15,0 l -1.724,1.723 c -1.644,-1.434 -3.472,-2.664 -5.445,-3.645 l 0.93,-2.246 c 0.172,-0.414 -0.026,-0.893 -0.44,-1.064 l -1.726,-0.714 c -0.413,-0.172 -0.891,0.027 -1.062,0.44 l -0.929,2.245 c -2.04,-0.686 -4.195,-1.122 -6.429,-1.273 v -2.436 c 0,-0.447 -0.366,-0.813 -0.813,-0.813 h -1.868 c -0.448,0 -0.814,0.366 -0.814,0.813 v 2.436 c -2.232,0.151 -4.388,0.587 -6.429,1.273 l -0.929,-2.245 c -0.171,-0.413 -0.649,-0.612 -1.063,-0.44 l -1.724,0.714 c -0.414,0.171 -0.612,0.65 -0.441,1.064 l 0.931,2.246 c -1.973,0.982 -3.801,2.211 -5.446,3.645 l -1.723,-1.723 c -0.317,-0.316 -0.833,-0.316 -1.15,0 l -1.321,1.32 c -0.316,0.316 -0.316,0.834 0,1.15 l 1.724,1.724 c -1.435,1.643 -2.664,3.472 -3.646,5.446 l -2.247,-0.931 c -0.412,-0.171 -0.89,0.026 -1.061,0.439 l -0.715,1.726 c -0.171,0.414 0.026,0.892 0.439,1.062 l 2.246,0.93 c -0.686,2.041 -1.123,4.196 -1.274,6.429 h -2.435 c -0.447,0 -0.813,0.366 -0.813,0.813 v 1.867 c 0,0.448 0.366,0.814 0.813,0.814 h 2.435 c 0.151,2.233 0.588,4.388 1.274,6.429 l -2.246,0.929 c -0.413,0.172 -0.61,0.65 -0.439,1.063 l 0.715,1.726 c 0.171,0.414 0.649,0.61 1.061,0.44 l 2.248,-0.931 c 0.982,1.973 2.211,3.801 3.645,5.445 l -1.724,1.724 c -0.316,0.316 -0.316,0.834 0,1.15 l 1.321,1.321 c 0.317,0.316 0.833,0.316 1.15,0 l 1.723,-1.724 c 1.644,1.435 3.472,2.663 5.446,3.645 l -0.931,2.247 c -0.171,0.413 0.027,0.891 0.441,1.062 l 1.724,0.715 c 0.414,0.171 0.892,-0.027 1.063,-0.44 l 0.929,-2.246 c 2.041,0.687 4.197,1.124 6.429,1.274 v 2.436 c 0,0.447 0.366,0.812 0.814,0.812 h 1.868 c 0.447,0 0.813,-0.365 0.813,-0.812 v -2.435 0" /><path
       inkscape:connector-curvature="0"
       id="path96"
       style="fill:#f14e20;fill-opacity:1;fill-rule:evenodd;stroke:none;stroke-width:0.1"
       d="m 285.977,292.947 c -3.268,-0.131 -5.81,-2.886 -5.68,-6.154 0.131,-3.268 2.886,-5.811 6.155,-5.68 3.267,0.131 5.81,2.886 5.679,6.155 -0.131,3.268 -2.885,5.81 -6.154,5.679 z m -2.321,13.538 3.552,0.142 c 0.78,0.032 1.445,-0.581 1.476,-1.362 l 0.142,-3.538 c 1.765,-0.312 3.427,-0.936 4.926,-1.815 l 2.403,2.604 c 0.53,0.574 1.433,0.609 2.008,0.08 l 2.611,-2.41 c 0.574,-0.53 0.61,-1.434 0.08,-2.008 l -2.402,-2.603 c 0.996,-1.424 1.751,-3.031 2.203,-4.765 l 3.538,0.141 c 0.781,0.031 1.445,-0.581 1.476,-1.363 l 0.143,-3.551 c 0.031,-0.781 -0.582,-1.445 -1.363,-1.476 l -3.538,-0.142 c -0.312,-1.766 -0.936,-3.428 -1.814,-4.927 l 2.603,-2.402 c 0.574,-0.53 0.61,-1.434 0.08,-2.008 l -2.41,-2.611 c -0.53,-0.575 -1.433,-0.611 -2.008,-0.081 l -2.603,2.402 c -1.424,-0.995 -3.031,-1.75 -4.765,-2.203 l 0.141,-3.537 c 0.032,-0.781 -0.582,-1.446 -1.363,-1.477 l -3.551,-0.142 c -0.78,-0.031 -1.445,0.582 -1.476,1.363 l -0.142,3.537 c -1.766,0.312 -3.428,0.937 -4.927,1.815 l -2.402,-2.603 c -0.53,-0.574 -1.434,-0.61 -2.008,-0.081 l -2.611,2.411 c -0.574,0.53 -0.611,1.433 -0.081,2.007 l 2.403,2.603 c -0.996,1.424 -1.751,3.031 -2.203,4.766 l -3.538,-0.142 c -0.781,-0.031 -1.445,0.582 -1.477,1.363 l -0.142,3.551 c -0.032,0.781 0.582,1.445 1.363,1.477 l 3.537,0.141 c 0.313,1.766 0.937,3.428 1.816,4.927 l -2.604,2.403 c -0.574,0.529 -0.61,1.433 -0.08,2.008 l 2.41,2.611 c 0.53,0.574 1.434,0.611 2.008,0.08 l 2.602,-2.402 c 1.424,0.996 3.032,1.75 4.766,2.203 l -0.142,3.538 c -0.031,0.781 0.582,1.445 1.363,1.476 v 0" /><path
       inkscape:connector-curvature="0"
       id="path98"
       style="fill:#192c3a;fill-opacity:1;fill-rule:evenodd;stroke:none;stroke-width:0.1"
       d="m 339.124,279.459 c -2.138,2.148 -5.097,3.483 -8.367,3.491 -3.27,0.008 -6.238,-1.311 -8.386,-3.449 -2.149,-2.138 -3.484,-5.098 -3.492,-8.366 -0.007,-3.271 1.311,-6.239 3.45,-8.387 2.138,-2.15 5.097,-3.484 8.367,-3.492 3.27,-0.007 6.237,1.311 8.387,3.449 2.148,2.139 3.483,5.099 3.49,8.367 0.008,3.271 -1.311,6.238 -3.449,8.387 z m -8.367,4.338 c 3.507,-0.008 6.679,-1.437 8.969,-3.739 2.29,-2.302 3.703,-5.48 3.694,-8.986 -0.008,-3.506 -1.437,-6.678 -3.739,-8.969 -2.303,-2.29 -5.48,-3.703 -8.985,-3.694 -3.507,0.008 -6.679,1.438 -8.97,3.74 -2.29,2.301 -3.703,5.48 -3.694,8.986 0.009,3.506 1.437,6.677 3.74,8.968 2.302,2.29 5.48,3.703 8.985,3.694 v 0" /><path
       inkscape:connector-curvature="0"
       id="path100"
       style="fill:#192c3a;fill-opacity:1;fill-rule:evenodd;stroke:none;stroke-width:0.1"
       d="m 327.919,258.697 c -2.036,0.636 -8.24,3.555 -15.415,7.072 -12.643,6.195 -28.322,14.254 -29.504,14.938 -1.157,0.668 -2.159,1.6 -2.852,2.729 v 0.001 c -0.645,1.048 -1.027,2.265 -1.027,3.594 0,1.956 0.795,3.73 2.078,5.014 l 10e-4,10e-4 v 0.001 c 1.284,1.283 3.058,2.078 5.015,2.078 1.391,0 7.59,-1.298 15.172,-3.015 12.831,-2.906 29.63,-7.01 33.752,-8.057 l -0.206,-0.824 c -4.134,1.049 -20.944,5.158 -33.731,8.054 -7.523,1.703 -13.657,2.991 -14.987,2.991 -1.724,0 -3.286,-0.699 -4.414,-1.828 l -0.002,-0.001 c -1.128,-1.129 -1.827,-2.691 -1.827,-4.414 0,-1.167 0.335,-2.234 0.899,-3.149 h 0.002 c 0.618,-1.007 1.516,-1.841 2.552,-2.441 1.185,-0.684 16.839,-8.732 29.451,-14.912 7.134,-3.495 13.294,-6.396 15.295,-7.02 l -0.252,-0.812" /><path
       inkscape:connector-curvature="0"
       id="path102"
       style="fill:#192c3a;fill-opacity:1;fill-rule:evenodd;stroke:none;stroke-width:0.1"
       d="m 340.904,263.518 -49.646,-51.558 -0.026,-0.027 -0.024,-0.019 c -1.702,-1.268 -3.616,-2.273 -5.672,-2.951 -1.984,-0.653 -4.11,-1.006 -6.318,-1.001 v -0.002 h -0.001 v 0.002 c -5.522,0.014 -10.516,2.266 -14.123,5.891 -3.608,3.626 -5.834,8.631 -5.82,14.151 h -10e-4 v 0.001 h 10e-4 c 0.008,3.394 0.873,6.663 2.444,9.539 1.575,2.884 3.864,5.378 6.709,7.217 l 10e-4,-0.001 54.467,36.324 0.472,-0.704 -54.474,-36.329 -0.006,-0.005 c -2.727,-1.761 -4.917,-4.149 -6.423,-6.907 -1.506,-2.756 -2.336,-5.886 -2.342,-9.134 h 0.002 v -0.001 h -0.002 c -0.013,-5.286 2.118,-10.078 5.575,-13.553 3.455,-3.472 8.236,-5.629 13.52,-5.641 v 0.002 h 0.001 v -0.002 c 2.109,-0.004 4.146,0.334 6.052,0.961 1.961,0.646 3.784,1.601 5.405,2.806 l 49.618,51.529 0.611,-0.588" /><path
       inkscape:connector-curvature="0"
       id="path104"
       style="fill:#55c7d6;fill-opacity:1;fill-rule:evenodd;stroke:none;stroke-width:0.1"
       d="m 375.539,104.956 c 0,-1.803 -0.741,-3.445 -1.934,-4.641 l -0.002,-0.002 -0.003,-0.002 c -1.194,-1.193 -2.838,-1.934 -4.641,-1.934 h -52.393 c -1.809,0 -3.456,0.7402 -4.649,1.933 -1.191,1.191 -1.932,2.836 -1.932,4.646 v 98.481 c 0.469,-0.044 0.997,-0.068 1.423,-0.068 0.425,0 0.738,0.015 1.102,0.041 v -98.454 c 0,-1.112 0.458,-2.126 1.193,-2.861 0.736,-0.736 1.751,-1.193 2.863,-1.193 h 52.393 c 1.115,0 2.129,0.455 2.861,1.189 l 0.005,0.005 c 0.732,0.731 1.188,1.746 1.188,2.86 0,27.622 -0.004,20.183 -0.004,47.807 0,1.807 0.741,3.452 1.935,4.645 l -0.002,0.003 c 1.19,1.192 2.837,1.932 4.647,1.932 h 51.524 c 1.81,0 3.457,-0.74 4.647,-1.932 1.192,-1.191 1.932,-2.839 1.932,-4.648 V 48.0789 h -2.525 V 152.763 c 0,1.113 -0.457,2.128 -1.192,2.863 -0.735,0.735 -1.749,1.192 -2.862,1.192 h -51.524 c -1.114,0 -2.127,-0.457 -2.862,-1.192 h -0.006 c -0.731,-0.731 -1.187,-1.745 -1.187,-2.863 0,-27.624 0.005,-20.183 0.005,-47.807" /><path
       inkscape:connector-curvature="0"
       id="path106"
       style="fill:#42b1bf;fill-opacity:1;fill-rule:evenodd;stroke:none;stroke-width:0.1"
       d="m 324.767,183.532 -13.514,31.7 -13.513,-31.7 13.513,5.677 13.514,-5.677" /><path
       inkscape:connector-curvature="0"
       id="path108"
       style="fill:#55c7d6;fill-opacity:1;fill-rule:evenodd;stroke:none;stroke-width:0.1"
       d="m 311.253,215.232 -13.513,-31.7 13.513,5.677 z" /><path
       inkscape:connector-curvature="0"
       id="path110"
       style="fill:#3796a3;fill-opacity:1;fill-rule:evenodd;stroke:none;stroke-width:0.1"
       d="m 463.177,104.965 -8.593,15.724 -5.21,-53.3398 7.734,-0.4 5.724,6.0567 0.345,31.9591" /><path
       inkscape:connector-curvature="0"
       id="path112"
       style="fill:#42b1bf;fill-opacity:1;fill-rule:evenodd;stroke:none;stroke-width:0.1"
       d="m 409.726,103.874 10.479,6.985 5.289,-45.107 h -10.529 l -3.224,5.7332 -2.015,32.3888" /><path
       inkscape:connector-curvature="0"
       id="path114"
       style="fill:#55c7d6;fill-opacity:1;fill-rule:evenodd;stroke:none;stroke-width:0.1"
       d="m 425.344,142.095 h 23.701 l 8.433,-8.732 V 67.2992 L 437.869,52.6789 h -2.794 l -20.11,13.1231 v 66.863 l 10.379,9.43" /><path
       inkscape:connector-curvature="0"
       id="path116"
       style="fill:#42b1bf;fill-opacity:1;fill-rule:evenodd;stroke:none;stroke-width:0.1"
       d="m 436.453,142.095 h 12.592 l 8.433,-8.732 V 67.2992 L 437.869,52.6789 h -1.416 v 89.4161" /><path
       inkscape:connector-curvature="0"
       id="path118"
       style="fill:#ffffff;fill-opacity:1;fill-rule:evenodd;stroke:none;stroke-width:0.1"
       d="m 431.649,142.095 h 9.712 V 55.282 l -3.492,-2.6031 h -2.794 l -3.426,2.2352 v 87.1809" /><path
       inkscape:connector-curvature="0"
       id="path120"
       style="fill:#c9eded;fill-opacity:1;fill-rule:evenodd;stroke:none;stroke-width:0.1"
       d="m 436.453,142.095 h 4.908 V 55.282 l -3.492,-2.6031 h -1.416 v 89.4161" /><path
       inkscape:connector-curvature="0"
       id="path122"
       style="fill:#55c7d6;fill-opacity:1;fill-rule:evenodd;stroke:none;stroke-width:0.1"
       d="m 434.512,104.623 h 3.879 c 0.279,0 0.509,-0.228 0.509,-0.509 v -2.203 c 0,-0.28 -0.23,-0.509 -0.509,-0.509 h -3.879 c -0.279,0 -0.508,0.229 -0.508,0.509 v 2.203 c 0,0.281 0.229,0.509 0.508,0.509 z m 0,-6.507 h 3.879 c 0.279,0 0.509,-0.2281 0.509,-0.5078 v -2.2043 c 0,-0.2789 -0.23,-0.5078 -0.509,-0.5078 h -3.879 c -0.279,0 -0.508,0.2289 -0.508,0.5078 v 2.2043 c 0,0.2797 0.229,0.5078 0.508,0.5078 z m 0,-7.2781 h 3.879 c 0.279,0 0.509,-0.2297 0.509,-0.509 V 88.125 c 0,-0.2789 -0.23,-0.5078 -0.509,-0.5078 h -3.879 c -0.279,0 -0.508,0.2289 -0.508,0.5078 v 2.2039 c 0,0.2793 0.229,0.509 0.508,0.509 z m 0.265,38.4381 h 3.349 c 0.426,0 0.774,-0.347 0.774,-0.773 v -12.304 c 0,-0.426 -0.348,-0.773 -0.774,-0.773 h -3.349 c -0.425,0 -0.773,0.347 -0.773,0.773 v 12.304 c 0,0.426 0.348,0.773 0.773,0.773 v 0" /><path
       inkscape:connector-curvature="0"
       id="path124"
       style="fill:#42b1bf;fill-opacity:1;fill-rule:evenodd;stroke:none;stroke-width:0.1"
       d="m 436.453,104.623 h 1.938 c 0.279,0 0.509,-0.228 0.509,-0.509 v -2.203 c 0,-0.28 -0.23,-0.509 -0.509,-0.509 h -1.938 z m 0,-6.507 h 1.938 c 0.279,0 0.509,-0.2281 0.509,-0.5078 v -2.2043 c 0,-0.2789 -0.23,-0.5078 -0.509,-0.5078 h -1.938 z m 0,-7.2781 h 1.938 c 0.279,0 0.509,-0.2297 0.509,-0.509 V 88.125 c 0,-0.2789 -0.23,-0.5078 -0.509,-0.5078 h -1.938 z m 0,38.4381 h 1.673 c 0.426,0 0.774,-0.347 0.774,-0.773 v -12.304 c 0,-0.426 -0.348,-0.773 -0.774,-0.773 h -1.673 v 13.85 0" /><path
       inkscape:connector-curvature="0"
       id="path126"
       style="fill:#eeba66;fill-opacity:1;fill-rule:evenodd;stroke:none;stroke-width:0.1"
       d="m 427.929,85.5281 0.355,-0.0051 c 0.346,2.3969 2.699,4.2661 5.53,4.2661 h 0.443 c 2.906,0 5.305,-1.9672 5.556,-4.4469 l 0.37,-0.0063 c 0.192,2.5332 2.618,4.55 5.561,4.55 h 0.445 c 3.029,0 5.513,-2.1429 5.575,-4.775 l 0.446,-0.055 v 0.0961 c 0,1.9609 1.835,3.5621 4.077,3.5621 h 0.323 c 2.241,0 4.075,-1.6102 4.075,-3.5621 V 68.027 l -0.009,-0.2348 0.346,-20.234 C 461.108,42.425 457.59,37.198 453.437,33.7301 l -2.819,-2.3512 -4.641,-26.46093 h -28.543 l 4.738,27.01793 c -3.955,1.2141 -6.503,4.793 -7.312,8.911 l -3.55,17.9902 c -1.206,2.041 -0.756,4.659 1.231,6.2449 l 3.916,3.1262 -0.141,7.9059 c -0.006,0.3121 0,0.6199 0.017,0.925 V 113.25 c 0,3.067 2.509,5.577 5.577,5.577 h 0.443 c 3.067,0 5.576,-2.51 5.576,-5.577 V 85.5281" /><path
       inkscape:connector-curvature="0"
       id="path128"
       style="fill:#def4fd;fill-opacity:1;fill-rule:evenodd;stroke:none;stroke-width:0.1"
       d="m 453.054,31.441 -36.159,0.1512 C 416.721,27.6441 416.532,14.0801 416.328,0 h 36.702 c 0.021,14.3719 0.03,28.107 0.024,31.441" /><path
       inkscape:connector-curvature="0"
       id="path130"
       style="fill:#def4fd;fill-opacity:1;fill-rule:evenodd;stroke:none;stroke-width:0.1"
       d="m 208.03,230.97 c -4.176,5.577 -12.081,6.712 -17.658,2.535 -5.578,-4.177 -6.712,-12.082 -2.536,-17.659 4.177,-5.576 12.082,-6.712 17.66,-2.534 5.576,4.176 6.711,12.082 2.534,17.658 z m 20.955,20.423 4.539,-6.06 c 0.997,-1.332 0.724,-3.238 -0.608,-4.236 l -6.038,-4.523 c 1.584,-3.474 2.498,-7.145 2.766,-10.836 l 7.469,-1.072 c 1.649,-0.237 2.802,-1.779 2.566,-3.427 l -1.075,-7.493 c -0.237,-1.648 -1.778,-2.804 -3.427,-2.566 l -7.469,1.072 c -1.295,-3.467 -3.204,-6.733 -5.703,-9.622 l 4.522,-6.037 c 0.998,-1.332 0.724,-3.239 -0.609,-4.237 l -6.059,-4.538 c -1.333,-0.998 -3.239,-0.724 -4.237,0.608 l -4.522,6.038 c -3.475,-1.585 -7.146,-2.498 -10.837,-2.767 l -1.072,-7.468 c -0.237,-1.649 -1.779,-2.802 -3.427,-2.567 l -7.493,1.076 c -1.647,0.238 -2.803,1.778 -2.566,3.426 l 1.072,7.47 c -3.466,1.295 -6.733,3.204 -9.622,5.702 l -6.036,-4.522 c -1.333,-0.998 -3.24,-0.723 -4.238,0.609 l -4.538,6.06 c -0.998,1.332 -0.724,3.239 0.609,4.237 l 6.036,4.521 c -1.585,3.475 -2.497,7.147 -2.765,10.837 l -7.47,1.072 c -1.648,0.238 -2.801,1.78 -2.565,3.427 l 1.075,7.493 c 0.237,1.648 1.778,2.803 3.426,2.567 l 7.47,-1.073 c 1.296,3.467 3.205,6.732 5.703,9.622 l -4.522,6.037 c -0.998,1.333 -0.724,3.239 0.609,4.237 l 6.059,4.539 c 1.333,0.997 3.239,0.724 4.237,-0.609 l 4.522,-6.036 c 3.474,1.584 7.146,2.497 10.837,2.765 l 1.072,7.469 c 0.237,1.648 1.779,2.802 3.427,2.566 l 7.493,-1.076 c 1.648,-0.237 2.803,-1.778 2.566,-3.426 l -1.072,-7.47 c 3.466,-1.295 6.732,-3.204 9.62,-5.703 l 6.039,4.522 c 1.332,0.999 3.238,0.725 4.236,-0.608 v 0" /><path
       inkscape:connector-curvature="0"
       id="path132"
       style="fill:#214460;fill-opacity:1;fill-rule:evenodd;stroke:none;stroke-width:0.1"
       d="m 170.873,213.711 15.815,-10.436 -53.345,-80.839 -15.815,10.435 53.345,80.84" /><path
       inkscape:connector-curvature="0"
       id="path134"
       style="fill:#192c3a;fill-opacity:1;fill-rule:evenodd;stroke:none;stroke-width:0.1"
       d="m 178.781,208.492 7.907,-5.217 -53.345,-80.839 -7.907,5.217 53.345,80.839" /><path
       inkscape:connector-curvature="0"
       id="path136"
       style="fill:#214460;fill-opacity:1;fill-rule:evenodd;stroke:none;stroke-width:0.1"
       d="m 213.341,221.316 c 0.805,-8.433 -2.988,-17.016 -10.581,-21.959 -10.883,-7.083 -25.447,-4.002 -32.531,6.881 -7.083,10.883 -4.002,25.448 6.881,32.531 8.512,5.54 19.276,4.861 26.952,-0.905 l -6.52,-0.347 -8.235,-0.441 -3.737,-7.35 -3.737,-7.352 4.499,-6.912 4.499,-6.911 8.234,0.439 8.235,0.441 3.736,7.35 2.305,4.535" /><path
       inkscape:connector-curvature="0"
       id="path138"
       style="fill:#fcd797;fill-opacity:1;fill-rule:evenodd;stroke:none;stroke-width:0.1"
       d="m 155.908,153.193 -10.505,-20.801 c -2.288,-4.538 -7.924,-6.84 -12.69,-5.052 l -26.21,9.824 c -4.763,1.785 -8.2628,6.374 -9.8522,10.947 l -1.1102,3.19 10.1204,20.515 c 2.246,4.549 7.442,5.062 12.691,5.053 l 19.582,-0.029 -6.069,-4.948 19.384,-7.143 c 4.783,-1.763 6.95,-7.018 4.659,-11.556" /><path
       inkscape:connector-curvature="0"
       id="path140"
       style="fill:#fcd797;fill-opacity:1;fill-rule:evenodd;stroke:none;stroke-width:0.1"
       d="M 114.294,169.857 103.12,146.75 67.7754,167.628 78.9496,190.737 114.294,169.857" /><path
       inkscape:connector-curvature="0"
       id="path142"
       style="fill:#fcd797;fill-opacity:1;fill-rule:evenodd;stroke:none;stroke-width:0.1"
       d="m 164.31,154.39 -0.176,-0.363 c -1.2,-2.482 -4.303,-3.716 -6.895,-2.745 l -35.64,13.361 c -2.595,0.973 -3.734,3.796 -2.534,6.28 l 0.176,0.362 c 1.199,2.483 4.303,3.719 6.898,2.745 l 35.639,-13.36 c 2.593,-0.972 3.731,-3.798 2.532,-6.28" /><path
       inkscape:connector-curvature="0"
       id="path144"
       style="fill:#fcd797;fill-opacity:1;fill-rule:evenodd;stroke:none;stroke-width:0.1"
       d="m 157.807,144.782 -0.174,-0.358 c -1.2,-2.485 -4.308,-3.719 -6.897,-2.747 l -18.534,6.947 c -2.59,0.971 -3.73,3.803 -2.531,6.283 l 0.172,0.359 c 1.199,2.48 4.305,3.72 6.899,2.747 l 18.535,-6.949 c 2.593,-0.97 3.732,-3.796 2.53,-6.282" /><path
       inkscape:connector-curvature="0"
       id="path146"
       style="fill:#fcd797;fill-opacity:1;fill-rule:evenodd;stroke:none;stroke-width:0.1"
       d="m 153.079,134.774 -0.173,-0.358 c -1.201,-2.484 -4.309,-3.718 -6.899,-2.746 l -18.534,6.946 c -2.59,0.972 -3.731,3.804 -2.532,6.282 l 0.174,0.359 c 1.199,2.479 4.305,3.722 6.898,2.747 l 18.533,-6.946 c 2.595,-0.973 3.733,-3.798 2.533,-6.284" /><path
       inkscape:connector-curvature="0"
       id="path148"
       style="fill:#fcd797;fill-opacity:1;fill-rule:evenodd;stroke:none;stroke-width:0.1"
       d="m 147.747,126.513 -0.136,-0.279 c -0.937,-1.936 -3.256,-2.938 -5.148,-2.229 l -16.559,6.208 c -1.891,0.709 -2.675,2.879 -1.742,4.809 l 0.135,0.284 c 0.934,1.93 3.25,2.936 5.145,2.226 l 16.559,-6.208 c 1.895,-0.712 2.68,-2.876 1.746,-4.811" /><path
       inkscape:connector-curvature="0"
       id="path150"
       style="fill:#fcd797;fill-opacity:1;fill-rule:evenodd;stroke:none;stroke-width:0.1"
       d="m 135.376,176.592 0.399,0.131 c 2.742,0.906 5.644,-0.41 6.449,-2.914 l 5.755,-17.928 c 0.802,-2.505 -0.783,-5.301 -3.522,-6.206 l -0.396,-0.13 c -2.74,-0.902 -5.645,0.407 -6.45,2.917 l -5.755,17.927 c -0.806,2.507 0.779,5.298 3.52,6.203" /><path
       inkscape:connector-curvature="0"
       id="path152"
       style="fill:#def4fd;fill-opacity:1;fill-rule:evenodd;stroke:none;stroke-width:0.1"
       d="M 110.854,182.233 92.4656,144.205 0,179.487 v 45.187 l 110.854,-42.441" /><path
       inkscape:connector-curvature="0"
       id="path154"
       style="fill:#ff6600;fill-opacity:1;fill-rule:evenodd;stroke:none;stroke-width:0.0869928"
       d="m 351.9814,48.371242 v 21.555333 h 7.0576 v 3.658834 h -17.52476 v -3.658834 h 7.09036 V 48.371242 Z m -26.88676,0.107419 v 17.538924 l 11.30359,-17.538924 h 2.67474 v 25.106752 h -3.34405 V 55.903925 l -11.40268,17.681484 -2.60923,0.03587 v -25.14262 z m -17.0889,10.724275 h 10.60068 v 3.657753 h -10.60068 v 7.065889 h 10.83499 v 3.622969 H 304.59451 V 48.478658 h 14.27981 v 3.6236 h -10.86858 z m -24.78055,6.958923 6.11955,-9.756623 h 1.90717 l 6.11956,9.756623 V 48.478658 h 3.34404 v 25.106751 h -2.67557 l -7.72439,-12.194314 -7.72608,12.194314 h -2.74192 V 48.478658 h 3.37764 z m -19.09518,-5.739493 v 9.504212 h 5.15045 c 2.84269,0 4.24682,-2.367222 4.24682,-4.769678 0,-2.367312 -1.40413,-4.734534 -4.24682,-4.734534 z m -3.41123,13.163047 V 48.478658 h 3.41123 v 8.357052 h 5.15045 c 5.04882,0 7.59087,4.160773 7.59087,8.356331 0,4.197721 -2.54205,8.393368 -7.59087,8.393368 z M 233.49696,61.032349 c 0,3.551419 1.37137,6.74346 3.47757,9.073824 2.14063,2.331356 5.15045,3.802027 8.42815,3.802027 3.31045,0 6.28668,-1.470671 8.46005,-3.802027 2.10703,-2.330364 3.47842,-5.522405 3.47842,-9.073824 0,-3.550337 -1.37139,-6.742377 -3.47842,-9.073373 -2.17337,-2.367311 -5.1496,-3.802117 -8.46005,-3.802117 -3.2777,0 -6.28752,1.434806 -8.42815,3.802117 -2.1062,2.330996 -3.47757,5.523036 -3.47757,9.073373 z m 20.43296,0 c 0,-2.581604 -0.96996,-4.84186 -2.47487,-6.491768 -1.57125,-1.686136 -3.74462,-2.724887 -6.05237,-2.724887 -2.30775,0 -4.44837,1.038751 -5.98603,2.724887 -1.5385,1.649908 -2.50846,3.945309 -2.50846,6.491768 0,2.545739 0.96996,4.84195 2.50846,6.491049 1.53766,1.686135 3.67828,2.727049 5.98603,2.727049 2.30775,0 4.48112,-1.040914 6.05237,-2.727049 1.50491,-1.649099 2.47487,-3.908994 2.47487,-6.491049 z m -31.16717,12.517194 h -3.37764 V 48.478658 h 14.37974 v 3.6236 h -11.0021 z M 205.77378,59.202932 h 10.60152 v 3.657753 h -10.60152 v 7.06589 h 10.83582 v 3.622968 H 202.36255 V 48.478658 h 14.2798 v 3.6236 h -10.86857 z m -16.01901,-4.411742 -6.95515,18.758353 h -3.67913 l 9.39726,-25.141985 h 2.47486 l 9.39727,25.141985 h -3.61194 z m -22.77346,4.411742 H 177.582 v 3.657753 h -10.60069 v 7.06589 h 10.83498 v 3.622968 H 163.57008 V 48.478658 h 14.2798 v 3.6236 H 166.98131 Z M 140.62867,73.549543 V 48.478658 h 8.39455 c 7.65805,0 11.50346,6.241071 11.50346,12.517825 0,6.276306 -3.84541,12.55306 -11.50346,12.55306 z m 3.37764,-21.447285 v 17.824317 h 5.01691 c 5.41749,0 8.15941,-4.482122 8.15941,-8.930092 0,-4.447337 -2.74192,-8.894225 -8.15941,-8.894225 h -5.01691 v 0" /></g></svg>