<svg width="395" height="343" viewBox="0 0 395 343" fill="none" xmlns="http://www.w3.org/2000/svg">
<path opacity="0.15" fill-rule="evenodd" clip-rule="evenodd" d="M361.199 238.782C344.844 238.782 331.463 252.192 331.463 268.583C331.463 298.477 307.023 323.063 277.102 323.063H260.84H134.741H71.3662C32.5237 323.063 0.743398 291.213 0.743398 252.378C0.743398 213.451 32.5237 181.601 71.3662 181.601C79.1719 181.601 85.4908 175.175 85.4908 167.445C85.4908 159.622 79.079 153.29 71.3662 153.29H34.3822C15.4255 153.29 0 137.737 0 118.832C0 99.8338 15.4255 84.3745 34.3822 84.3745H67.928C84.2828 84.3745 97.6639 70.964 97.6639 54.5734C97.6639 24.6791 122.103 0.0931286 152.025 0.0931286C204.992 0 271.34 0 324.307 0C363.15 0 394.837 31.85 394.837 70.6846C394.837 109.612 363.057 141.369 324.307 141.369C316.502 141.369 310.183 147.795 310.183 155.525C310.183 163.348 316.595 169.68 324.307 169.68H361.199C406.267 169.773 406.267 238.782 361.199 238.782Z" fill="#0143A0"/>
<path fill-rule="evenodd" clip-rule="evenodd" d="M147.661 56.8088C148.405 56.1569 147.847 54.9463 146.825 55.1325C146.639 55.1325 146.453 55.2257 146.267 55.4119C145.803 55.8776 145.245 56.3432 144.781 56.8088C144.502 57.0882 144.409 57.5539 144.595 57.9264C144.874 58.4852 145.71 58.6714 146.174 58.2058C146.732 57.7401 147.197 57.2745 147.661 56.8088ZM237.241 283.763C236.311 283.763 235.94 284.974 236.683 285.533C236.869 285.626 237.055 285.719 237.334 285.719H238.17H239.192H239.378C240.307 285.719 240.679 284.415 239.843 283.856C239.657 283.763 239.471 283.67 239.285 283.67H238.17L237.241 283.763ZM245.046 283.391C244.675 283.391 244.303 283.763 244.21 284.136C244.024 284.788 244.582 285.44 245.325 285.347L246.254 285.253L247.37 285.16C248.299 285.067 248.578 283.856 247.834 283.391C247.648 283.205 247.37 283.205 247.091 283.205L246.069 283.298L245.046 283.391ZM252.759 282.18C252.48 282.273 252.202 282.46 252.016 282.739C251.737 283.484 252.295 284.229 253.131 284.136L253.688 284.043L254.618 283.856L255.082 283.763C256.012 283.577 256.104 282.273 255.268 281.901C255.082 281.808 254.896 281.808 254.711 281.901L254.246 281.994L253.317 282.18H252.759ZM260.286 280.318C259.264 280.597 259.357 282.087 260.472 282.273C260.658 282.273 260.751 282.273 260.937 282.273L261.773 281.994L262.609 281.715L262.888 281.621C263.167 281.528 263.446 281.249 263.538 280.969C263.724 280.224 262.981 279.479 262.238 279.759L262.052 279.852L261.215 280.131L260.286 280.318ZM267.627 277.617C267.255 277.803 267.07 278.082 267.07 278.455C267.07 279.2 267.813 279.666 268.463 279.386L269.114 279.107L269.857 278.734L270.229 278.548C271.158 278.082 270.88 276.779 269.95 276.686C269.764 276.686 269.579 276.686 269.393 276.779L269.021 276.965L268.278 277.337L267.627 277.617ZM274.596 274.078C273.667 274.637 274.132 276.034 275.154 275.941C275.34 275.941 275.433 275.847 275.619 275.847L275.897 275.661L276.641 275.195L277.384 274.73C278.221 274.171 277.849 272.867 276.827 272.867C276.641 272.867 276.548 272.96 276.362 273.054L275.712 273.519L275.061 273.892L274.596 274.078ZM281.101 269.794C280.265 270.446 280.915 271.843 281.938 271.563C282.03 271.563 282.123 271.47 282.309 271.377L282.774 271.005L283.424 270.539L283.889 270.167C284.539 269.608 284.261 268.49 283.331 268.397C283.053 268.397 282.774 268.397 282.588 268.583L282.123 268.956L281.473 269.422L281.101 269.794ZM287.048 264.765C286.677 265.044 286.677 265.603 286.863 265.976C287.234 266.535 287.978 266.628 288.442 266.162L288.814 265.79L289.372 265.231L289.836 264.765C290.022 264.579 290.115 264.206 290.115 263.927C290.022 263.089 289 262.809 288.442 263.368L287.978 263.834L287.42 264.393L287.048 264.765ZM292.252 258.991C292.066 259.271 291.973 259.643 292.066 260.016C292.345 260.761 293.274 260.854 293.739 260.295L294.018 259.922L294.482 259.27L294.947 258.712C295.412 258.06 294.947 257.129 294.111 257.129C293.832 257.129 293.553 257.315 293.367 257.501L292.903 258.06L292.438 258.619L292.252 258.991ZM296.806 252.565C296.341 253.31 296.991 254.242 297.828 254.055C298.106 253.962 298.292 253.869 298.478 253.59L298.664 253.31L299.036 252.658L299.5 251.82C299.686 251.448 299.686 250.982 299.407 250.703C298.943 250.144 298.106 250.237 297.828 250.889L297.363 251.634L296.991 252.286L296.806 252.565ZM300.523 245.767C300.337 246.139 300.43 246.512 300.708 246.884C301.173 247.443 302.009 247.257 302.381 246.605L302.753 245.767L303.031 245.022L303.124 244.742C303.496 243.811 302.381 242.973 301.545 243.625C301.452 243.718 301.359 243.811 301.266 243.997L301.173 244.277L300.894 244.929L300.523 245.767ZM303.496 238.503C303.217 239.434 304.332 240.179 305.076 239.62C305.262 239.527 305.355 239.341 305.355 239.155L305.633 238.503L305.912 237.758L306.098 237.292C306.191 236.92 306.098 236.64 305.912 236.361C305.448 235.802 304.425 235.988 304.239 236.733L304.054 237.199L303.775 237.944L303.496 238.503ZM305.633 230.959C305.448 231.984 306.656 232.543 307.306 231.891C307.399 231.798 307.492 231.611 307.585 231.425L307.678 230.866L307.864 230.121L307.956 229.469C308.142 228.445 306.934 227.886 306.191 228.631C306.098 228.724 306.005 228.911 306.005 229.097L305.912 229.656L305.726 230.401L305.633 230.959ZM306.934 223.323C306.934 223.695 307.12 224.068 307.399 224.254C308.049 224.627 308.793 224.254 308.886 223.509L308.979 223.043L309.072 222.205L309.165 221.46C309.257 220.529 308.049 219.97 307.399 220.715C307.213 220.902 307.213 221.088 307.12 221.274L307.027 221.926L306.934 222.671V223.323ZM307.492 215.5C307.492 216.618 308.979 216.897 309.443 215.873C309.536 215.779 309.536 215.593 309.536 215.5V215.034V214.196V213.451C309.536 212.613 308.607 212.147 307.956 212.706C307.678 212.892 307.585 213.172 307.585 213.451V214.196V214.941L307.492 215.5ZM307.213 207.677C307.306 208.609 308.421 208.888 308.979 208.143C309.165 207.957 309.165 207.677 309.165 207.491V207.025L309.072 206.187L308.979 205.442C308.979 205.256 308.886 205.07 308.7 204.883C308.049 204.138 306.841 204.697 306.934 205.628L307.027 206.28L307.12 207.025L307.213 207.677ZM306.191 199.854C306.284 200.134 306.47 200.413 306.748 200.599C307.492 200.972 308.328 200.32 308.142 199.482L308.049 198.923L307.864 198.085L307.771 197.433C307.678 196.967 307.306 196.688 306.934 196.688C306.284 196.595 305.726 197.247 305.912 197.899L306.005 198.458L306.191 199.203V199.854ZM304.425 192.218C304.518 192.59 304.89 192.963 305.355 192.963C306.005 192.963 306.563 192.311 306.284 191.659L306.098 191.007L305.819 190.262L305.633 189.797C305.355 188.772 303.868 188.865 303.682 189.89C303.682 190.076 303.682 190.169 303.682 190.355L303.775 190.821L303.961 191.566L304.425 192.218ZM301.916 184.861C302.009 185.14 302.288 185.419 302.66 185.419C303.403 185.606 304.054 184.861 303.775 184.116L303.403 183.278L303.124 182.533L303.031 182.346C302.66 181.601 301.638 181.508 301.266 182.253C301.08 182.533 301.08 182.812 301.266 183.091L301.359 183.278L301.638 184.023L301.916 184.861ZM298.664 177.69C299.129 178.621 300.523 178.249 300.523 177.224C300.523 177.038 300.522 176.945 300.43 176.759L300.244 176.386L299.872 175.641L299.5 174.989C299.036 174.058 297.642 174.43 297.642 175.455C297.642 175.641 297.642 175.734 297.735 175.92L298.106 176.572L298.478 177.317L298.664 177.69ZM294.761 170.985C294.947 171.264 295.319 171.45 295.69 171.45C296.434 171.357 296.806 170.519 296.434 169.867L295.969 169.215L295.505 168.47L295.319 168.191C295.133 167.818 294.668 167.725 294.297 167.818C293.646 168.004 293.274 168.749 293.739 169.401L293.925 169.681L294.389 170.333L294.761 170.985ZM290.115 164.652C290.765 165.397 291.973 164.838 291.881 163.814C291.881 163.627 291.788 163.534 291.695 163.348L291.323 162.975L290.765 162.324L290.394 161.858C289.836 161.206 288.721 161.579 288.628 162.417C288.628 162.696 288.721 162.975 288.907 163.162L289.279 163.627L289.836 164.279L290.115 164.652ZM284.911 158.785C285.655 159.53 286.77 158.878 286.584 157.853C286.584 157.667 286.491 157.481 286.305 157.388L286.026 157.108L285.376 156.456L284.818 155.898C284.075 155.246 282.96 155.898 283.146 156.829C283.239 157.015 283.239 157.202 283.424 157.295L283.982 157.76L284.632 158.412L284.911 158.785ZM279.15 153.476C279.8 154.035 280.822 153.476 280.73 152.638C280.73 152.359 280.544 152.173 280.358 151.986L280.079 151.707L279.336 151.148L278.778 150.683C278.499 150.496 278.128 150.403 277.756 150.589C277.105 150.869 276.92 151.8 277.57 152.266L278.128 152.731L278.778 153.29L279.15 153.476ZM272.924 148.82C273.296 149.099 273.76 149.006 274.039 148.82C274.596 148.447 274.504 147.609 273.946 147.237L273.388 146.864L272.645 146.305L272.273 146.119C271.437 145.56 270.415 146.492 270.88 147.423C270.972 147.609 271.065 147.702 271.251 147.796L271.623 147.982L272.366 148.447L272.924 148.82ZM266.233 144.722C266.698 145.002 267.255 144.815 267.534 144.443C267.906 143.977 267.72 143.325 267.163 143.046L266.977 142.953L266.14 142.487L265.397 142.115C264.561 141.649 263.631 142.58 264.003 143.418C264.096 143.605 264.282 143.791 264.468 143.884L265.211 144.257L266.047 144.722H266.233ZM259.264 141.183C260.007 141.556 260.844 140.811 260.565 139.973C260.472 139.693 260.286 139.507 260.007 139.414L259.078 139.041L258.149 138.669C257.22 138.296 256.476 139.228 256.941 140.066C257.034 140.252 257.22 140.438 257.405 140.438L258.242 140.811L259.264 141.183ZM251.923 138.39C252.759 138.669 253.595 137.738 253.131 136.899C253.038 136.713 252.852 136.527 252.573 136.434L252.387 136.341C251.83 136.154 251.179 135.968 250.622 135.782C249.786 135.503 249.042 136.341 249.414 137.179C249.507 137.458 249.693 137.551 249.971 137.645C250.529 137.831 251.087 138.017 251.644 138.203L251.923 138.39ZM244.396 135.968C244.768 136.061 245.139 135.968 245.418 135.689C245.883 135.13 245.604 134.292 244.954 134.106C244.303 133.919 243.653 133.733 243.002 133.547C242.723 133.454 242.445 133.547 242.259 133.64C241.515 134.106 241.608 135.223 242.445 135.503C243.188 135.689 243.838 135.782 244.396 135.968ZM236.776 134.012C237.798 134.199 238.449 132.988 237.705 132.336C237.612 132.243 237.427 132.15 237.241 132.15C236.59 132.057 235.94 131.871 235.289 131.684C234.453 131.498 233.71 132.522 234.267 133.267C234.36 133.454 234.639 133.64 234.825 133.64C235.475 133.733 236.219 133.919 236.776 134.012ZM229.156 132.336C230.086 132.522 230.736 131.405 230.086 130.66C229.9 130.474 229.714 130.38 229.528 130.38C228.878 130.287 228.227 130.101 227.577 130.008C226.554 129.822 225.997 131.032 226.74 131.777C226.833 131.871 227.019 131.964 227.205 131.964C227.855 132.057 228.506 132.243 229.156 132.336ZM221.351 130.939C222.28 131.126 222.93 129.915 222.187 129.263C222.001 129.17 221.908 129.077 221.629 128.984C220.979 128.89 220.328 128.797 219.678 128.704C218.656 128.518 218.098 129.915 219.027 130.567C219.12 130.66 219.306 130.66 219.399 130.66C220.05 130.753 220.7 130.846 221.351 130.939ZM213.545 129.729C214.381 129.822 215.032 128.89 214.474 128.145C214.288 127.959 214.102 127.773 213.824 127.773C213.173 127.68 212.523 127.587 211.872 127.493C210.85 127.4 210.385 128.611 211.129 129.263C211.222 129.356 211.408 129.449 211.593 129.449C212.244 129.542 212.894 129.635 213.545 129.729ZM205.739 128.797C206.204 128.797 206.576 128.611 206.761 128.145C207.04 127.493 206.576 126.842 205.925 126.748C205.275 126.655 204.624 126.562 203.974 126.562C203.044 126.469 202.487 127.68 203.23 128.332C203.416 128.425 203.602 128.518 203.788 128.518C204.438 128.611 205.089 128.704 205.739 128.797ZM197.841 128.052C198.77 128.145 199.327 126.935 198.584 126.283C198.398 126.19 198.212 126.097 198.026 126.097C197.376 126.003 196.726 126.003 196.075 125.91C195.61 125.91 195.239 126.097 195.053 126.469C194.774 127.121 195.239 127.773 195.889 127.866C196.54 127.866 197.19 127.959 197.841 128.052ZM189.942 127.307C190.964 127.4 191.429 126.097 190.593 125.538C190.5 125.445 190.314 125.352 190.128 125.352C189.477 125.258 188.827 125.165 188.176 125.165C187.805 125.165 187.433 125.258 187.247 125.538C186.783 126.19 187.154 127.028 187.898 127.121C188.641 127.121 189.292 127.214 189.942 127.307ZM182.043 126.283C182.88 126.376 183.437 125.538 183.066 124.793C182.88 124.513 182.694 124.327 182.322 124.327C181.672 124.234 181.021 124.141 180.371 124.048C180.092 123.955 179.72 124.048 179.534 124.327C178.977 124.886 179.256 125.817 180.092 126.003C180.742 126.097 181.393 126.19 182.043 126.283ZM174.238 124.793C175.167 124.979 175.817 123.955 175.167 123.21C174.981 123.023 174.888 122.93 174.609 122.837C173.959 122.651 173.308 122.558 172.658 122.371C171.822 122.185 171.171 123.116 171.543 123.861C171.729 124.048 171.915 124.234 172.193 124.327C172.937 124.513 173.587 124.7 174.238 124.793ZM166.525 122.837C167.454 123.116 168.198 121.999 167.547 121.254C167.454 121.068 167.268 120.974 167.083 120.881C166.432 120.695 165.875 120.509 165.224 120.323C164.295 120.043 163.551 121.068 164.109 121.906C164.202 122.092 164.388 122.185 164.574 122.278C165.224 122.465 165.875 122.651 166.525 122.837ZM158.998 120.229C159.37 120.416 159.741 120.323 160.02 120.043C160.485 119.578 160.392 118.646 159.649 118.46C158.998 118.181 158.441 117.994 157.883 117.715C156.954 117.342 156.024 118.46 156.768 119.298C156.861 119.391 156.954 119.484 157.14 119.578C157.697 119.671 158.348 119.95 158.998 120.229ZM151.657 116.784C151.936 116.97 152.215 116.97 152.586 116.784C153.33 116.411 153.33 115.387 152.679 115.014C152.122 114.735 151.564 114.362 151.007 114.083C150.728 113.897 150.449 113.897 150.17 113.99C149.427 114.269 149.334 115.387 150.077 115.759C150.542 116.132 151.099 116.504 151.657 116.784ZM144.874 112.5C145.617 113.059 146.732 112.314 146.453 111.382C146.36 111.196 146.267 111.01 146.082 110.917C145.524 110.544 145.059 110.172 144.595 109.706C143.944 109.147 142.922 109.706 143.015 110.544C143.015 110.823 143.201 111.01 143.387 111.196C143.851 111.662 144.316 112.127 144.874 112.5ZM138.833 107.098C139.484 107.843 140.692 107.191 140.506 106.26C140.506 106.074 140.413 105.981 140.227 105.795C139.763 105.329 139.391 104.863 138.926 104.304C138.648 103.932 138.183 103.839 137.811 104.025C137.161 104.304 136.975 105.049 137.44 105.608C137.997 106.074 138.462 106.54 138.833 107.098ZM134.094 100.486C134.28 100.859 134.652 101.045 135.116 100.952C135.86 100.859 136.232 100.114 135.86 99.4618C135.581 98.903 135.302 98.3442 135.023 97.7854C134.838 97.4129 134.373 97.1335 133.908 97.2267C133.258 97.3198 132.979 98.0648 133.165 98.6236C133.444 99.2755 133.815 99.8343 134.094 100.486ZM131.121 92.8496C131.214 93.129 131.399 93.4084 131.771 93.5015C132.515 93.7809 133.258 93.129 133.072 92.2909C132.886 91.639 132.793 91.0802 132.7 90.4283C132.515 89.4039 131.028 89.3107 130.749 90.3352C130.749 90.5214 130.656 90.6145 130.749 90.8008C130.842 91.5458 130.935 92.1977 131.121 92.8496ZM130.191 84.7474C130.191 85.7719 131.492 86.1444 132.05 85.2131C132.143 85.0268 132.143 84.9337 132.143 84.7474C132.143 84.0955 132.143 83.4436 132.236 82.7917C132.329 81.7673 130.935 81.3017 130.377 82.233C130.284 82.3261 130.284 82.5124 130.284 82.6986C130.284 83.3505 130.191 84.0955 130.191 84.7474ZM131.492 76.6452C131.399 76.8315 131.399 77.1109 131.492 77.2971C131.864 78.2284 133.072 78.1353 133.351 77.2971C133.537 76.7384 133.723 75.9933 134.001 75.5277C134.187 75.1552 134.001 74.6895 133.723 74.4102C133.165 73.9445 132.422 74.1308 132.143 74.7827C131.957 75.3414 131.678 75.9933 131.492 76.6452ZM134.745 69.195C134.559 69.5675 134.559 69.94 134.838 70.3125C135.302 70.8713 136.139 70.7781 136.51 70.2194C136.789 69.6606 137.161 69.1018 137.532 68.5431C137.718 68.1705 137.718 67.7049 137.44 67.3324C136.975 66.7736 136.232 66.8667 135.86 67.4255C135.488 68.0774 135.116 68.6362 134.745 69.195ZM139.391 62.5828C138.833 63.2347 139.391 64.2591 140.227 64.166C140.506 64.166 140.785 63.9798 140.971 63.7935C141.342 63.3279 141.807 62.7691 142.272 62.3034C142.922 61.5584 142.179 60.3477 141.157 60.7202C140.971 60.8134 140.878 60.9065 140.785 60.9996C140.227 61.5584 139.856 62.1172 139.391 62.5828Z" fill="#A4ABBA"/>
<path fill-rule="evenodd" clip-rule="evenodd" d="M156.947 139.041C157.133 138.762 157.505 138.668 157.783 138.855C158.062 139.041 158.155 139.413 157.969 139.693C157.876 139.786 133.065 178.527 152.673 201.065C152.858 201.344 152.858 201.716 152.58 201.996C152.301 202.182 151.929 202.182 151.65 201.903C131.579 178.621 156.854 139.134 156.947 139.041Z" fill="#000618"/>
<path fill-rule="evenodd" clip-rule="evenodd" d="M229.428 133.646C229.242 133.367 229.335 132.994 229.613 132.808C229.892 132.622 230.264 132.715 230.45 132.994C230.45 133.087 244.667 155.159 229.706 172.108C229.521 172.388 229.056 172.388 228.777 172.201C228.498 172.015 228.498 171.549 228.684 171.27C243.18 154.972 229.428 133.739 229.428 133.646Z" fill="#000618"/>
<path fill-rule="evenodd" clip-rule="evenodd" d="M160.939 112.875L150.531 124.423C150.531 124.423 155.549 133.27 155.084 145.004C154.62 156.645 115.406 221.276 187.794 220.904C260.275 220.531 219.946 183.094 219.946 183.094C219.946 183.094 243.828 175.364 231.747 140.627C219.667 105.983 160.939 112.875 160.939 112.875Z" fill="#000618"/>
<path fill-rule="evenodd" clip-rule="evenodd" d="M220.601 183.746C220.136 183.281 219.95 183.095 219.95 183.095C219.95 183.095 220.786 182.815 222.087 182.163C224.132 179.835 226.269 177.134 228.313 173.968C238.163 158.602 227.663 137.368 227.663 137.368L222.087 135.692C222.087 135.692 210.936 131.688 207.963 130.663C204.989 129.639 170.421 131.874 160.571 150.313C150.721 168.753 161.686 195.574 161.686 195.574C161.686 195.574 202.48 194.27 204.803 194.084C206.476 194.084 213.167 191.476 220.601 183.746Z" fill="#01020E"/>
<path fill-rule="evenodd" clip-rule="evenodd" d="M240.019 193.895C251.634 199.017 253.214 209.633 254.701 221.554C256.002 232.077 256.466 248.002 253.679 272.123C250.891 296.243 206.938 240.273 206.938 240.273L240.019 193.895Z" fill="#EF8871"/>
<path fill-rule="evenodd" clip-rule="evenodd" d="M171.629 193.524L160.292 187.75C160.292 187.75 148.397 190.73 142.264 198.46C136.131 206.189 117.639 271.938 116.989 279.947C116.245 287.956 121.728 318.596 131.671 318.596C141.614 318.596 146.539 251.636 146.539 251.636L154.623 226.492L171.629 193.524Z" fill="#F4AD85"/>
<path fill-rule="evenodd" clip-rule="evenodd" d="M171.63 193.524L160.293 187.75C160.293 187.75 156.483 188.681 152.023 190.916C153.51 191.661 154.625 193.431 154.532 197.435C154.16 207.959 138.177 248.004 134.739 259.18C131.208 270.355 128.42 277.06 128.42 277.06L121.172 261.787C120.521 264.302 119.871 266.537 119.406 268.679C122.101 283.393 125.539 303.509 126.004 315.057C127.677 317.292 129.628 318.689 131.672 318.689C141.615 318.689 146.54 251.729 146.54 251.729L154.625 226.585L171.63 193.524Z" fill="#EF8871"/>
<path fill-rule="evenodd" clip-rule="evenodd" d="M201.551 179.082C201.551 179.082 231.566 189.792 240.022 193.889C240.022 193.889 238.442 195.566 236.584 204.786C234.725 214.098 236.584 227.509 234.632 240.826C233.238 250.419 226.734 299.032 223.295 325.201L149.327 319.241C149.327 318.03 149.234 316.633 149.234 315.05C155.274 319.799 161.129 319.986 157.505 306.11C151.186 281.989 152.487 239.988 154.531 227.416C156.668 214.843 159.735 201.526 156.761 188.767C158.713 187.091 201.551 179.082 201.551 179.082Z" fill="#F74871"/>
<path fill-rule="evenodd" clip-rule="evenodd" d="M221.255 186.355C228.782 189.149 236.402 192.129 240.026 193.899C240.026 193.899 238.446 195.575 236.588 204.795C234.729 214.108 236.588 227.518 234.636 240.836C234.357 242.791 233.893 246.237 233.242 250.8C216.516 253.408 167.173 259.089 155.279 258.064C154.442 257.971 153.606 257.878 152.77 257.692C152.77 244.561 153.513 233.199 154.442 227.518C154.535 227.239 154.535 226.866 154.628 226.587C158.81 238.973 211.498 245.865 211.498 245.865C211.498 245.865 220.233 226.494 218.003 219.323C215.773 212.152 205.272 212.338 205.272 212.338L205.551 205.912C205.551 205.912 216.051 191.664 218.56 187.38C218.839 186.821 219.768 186.449 221.255 186.355Z" fill="#C23E3E"/>
<path fill-rule="evenodd" clip-rule="evenodd" d="M225.525 187.939L226.175 188.218C224.874 193.62 223.016 199.952 220.6 203.678C218.37 207.03 215.768 210.103 211.865 212.339C208.055 214.574 203.037 215.877 196.068 215.691C190.027 215.505 185.102 213.27 181.385 210.103C176.46 206.006 173.394 200.232 172.093 195.482C170.142 188.777 168.376 186.542 167.726 185.983L168.469 185.797C169.305 186.821 170.978 189.336 172.743 195.296C174.044 199.952 177.018 205.633 181.85 209.638C185.474 212.711 190.213 214.946 196.161 215.039C202.944 215.226 207.869 213.922 211.586 211.78C215.303 209.638 217.905 206.565 220.042 203.305C222.458 199.58 224.224 193.34 225.525 187.939ZM237.884 192.875C238.07 192.968 238.255 193.061 238.441 193.154C236.955 195.762 235.003 201.07 233.052 212.339C230.821 225.842 233.423 231.896 235.375 234.503C235.375 234.783 235.375 235.155 235.282 235.434C233.145 233.013 229.985 226.867 232.401 212.245C234.26 201.163 236.304 195.669 237.884 192.875ZM153.973 231.244C154.066 230.778 154.066 230.405 154.159 230.033C155.831 226.68 162.243 212.059 158.619 188.125C158.805 188.032 158.991 188.032 159.269 187.939C163.451 215.319 154.53 230.685 154.344 231.057C154.344 231.057 154.344 231.151 154.251 231.151C154.159 231.244 154.066 231.244 153.973 231.244Z" fill="#B23539"/>
<path fill-rule="evenodd" clip-rule="evenodd" d="M199.23 146.962H199.416C205.92 146.869 211.403 152.177 211.403 158.696L211.589 182.817C215.956 184.4 221.16 186.356 226.085 188.218C218.372 204.888 209.359 215.877 194.862 212.711C175.069 208.427 175.72 191.664 169.68 185.517C175.348 184.307 181.946 183.003 187.707 181.792L187.521 158.976C187.428 152.364 192.725 146.962 199.23 146.962Z" fill="#EF8871"/>
<path fill-rule="evenodd" clip-rule="evenodd" d="M210.655 154.685C211.12 155.896 211.399 157.293 211.399 158.69L211.584 182.81C215.952 184.393 221.156 186.349 226.081 188.211C220.412 200.411 214.001 209.631 205.266 212.332C219.204 202.926 214.93 191.285 211.956 190.074C208.983 188.863 185.473 182.251 185.473 182.251C186.216 182.065 186.959 181.972 187.703 181.786L187.517 158.969C187.517 155.244 189.19 151.984 191.792 149.749C198.017 149.656 204.243 151.612 210.655 154.685Z" fill="#EA745D"/>
<path fill-rule="evenodd" clip-rule="evenodd" d="M225.994 124.148C226.18 124.148 226.458 124.148 226.644 124.148C230.826 124.428 234.45 127.687 235.1 131.971C235.844 137 232.406 141.75 227.295 142.588C222.277 143.333 217.538 139.887 216.701 134.765C216.237 131.785 217.259 128.991 219.117 126.942C219.21 129.736 220.14 132.996 223.671 132.903L223.02 127.594C222.649 125.452 224.507 124.242 225.994 124.148Z" fill="#EA745D"/>
<path fill-rule="evenodd" clip-rule="evenodd" d="M159.829 134.576C159.643 134.669 159.365 134.669 159.179 134.762C155.183 136.159 152.581 140.163 153.046 144.541C153.603 149.663 158.25 153.295 163.267 152.736C168.378 152.177 172.002 147.521 171.445 142.492C171.073 139.512 169.401 137.09 167.077 135.6C167.635 138.301 167.728 141.747 164.29 142.492L163.639 137.183C163.453 135.041 161.316 134.296 159.829 134.576Z" fill="#EA745D"/>
<path fill-rule="evenodd" clip-rule="evenodd" d="M188.451 83.3534C205.735 81.0252 221.811 93.3182 224.041 110.64L227.851 139.324C230.174 156.646 217.908 172.757 200.624 174.992C183.34 177.32 167.264 165.027 165.034 147.705L161.224 119.022C158.901 101.7 171.167 85.6816 188.451 83.3534Z" fill="#F4AD85"/>
<path fill-rule="evenodd" clip-rule="evenodd" d="M188.453 83.3467C204.808 81.2047 220.14 92.1008 223.578 108.026C223.393 109.516 222.928 111.099 222.092 112.682L207.409 111.844C207.409 111.844 197.745 130.284 177.952 134.847C172.656 136.057 170.983 141.459 172.005 146.581C174.7 159.06 185.293 176.848 211.591 171.446C208.246 173.309 204.529 174.613 200.533 175.078C183.249 177.407 167.173 165.114 164.943 147.792L161.133 119.108C158.903 101.693 171.169 85.6749 188.453 83.3467Z" fill="#EF8871"/>
<path fill-rule="evenodd" clip-rule="evenodd" d="M230.355 200.316C230.355 200.316 231.563 200.13 231.842 201.061C232.121 201.992 228.125 207.114 227.847 207.301C227.568 207.487 219.669 206.462 219.669 206.462C219.669 206.462 219.205 206.09 219.297 205.811C219.39 205.531 219.669 205.252 219.669 205.252L230.355 200.316Z" fill="#000618"/>
<path fill-rule="evenodd" clip-rule="evenodd" d="M169.033 133.361C169.033 133.361 169.312 135.503 169.591 137.459C169.869 139.415 166.059 144.63 164.573 144.816L163.643 137.645C163.643 137.645 162.528 134.479 158.533 135.038C144.222 122.465 142.921 99.5557 154.537 86.052C166.152 72.5484 194.494 67.9851 199.605 69.0095C204.809 70.0339 211.035 77.7636 211.035 77.7636C211.035 77.7636 214.752 73.4796 218.934 74.8766C223.115 76.2735 239.47 99.2763 240.213 105.423C241.05 111.569 230.735 125.445 230.735 125.445C226.739 126.004 226.461 129.357 226.461 129.357L227.018 133.827C225.531 134.013 224.416 132.151 224.137 130.195C223.859 128.239 223.58 126.097 223.58 126.097C210.385 122.186 203.322 106.168 203.322 106.168C203.322 106.168 189.755 133.641 169.033 133.361Z" fill="#000618"/>
<path fill-rule="evenodd" clip-rule="evenodd" d="M146.719 108.217C146.719 102.35 148.02 96.5756 150.807 91.5466C163.724 101.605 184.539 108.31 201.916 69.8477C203.031 70.4064 204.146 71.1515 205.168 71.9896C198.478 91.5466 181.287 125.632 146.719 108.217Z" fill="#0F1630"/>
<path fill-rule="evenodd" clip-rule="evenodd" d="M169.022 133.362C169.022 133.362 169.301 135.503 169.579 137.459C169.858 139.415 166.048 144.63 164.562 144.816L163.632 137.645C163.632 137.645 162.517 134.479 158.521 135.038C152.946 130.102 149.322 123.583 147.742 116.692C147.742 116.692 172.181 133.734 202.289 102.07C202.289 102.07 216.042 123.583 236.207 117.157C233.605 121.627 230.817 125.352 230.817 125.352C226.821 125.911 226.542 129.264 226.542 129.264L227.1 133.734C225.613 133.92 224.498 132.058 224.219 130.102C223.94 128.146 223.662 126.004 223.662 126.004C210.466 122.093 203.404 106.075 203.404 106.075C203.404 106.075 189.744 133.641 169.022 133.362Z" fill="#01020E"/>
<path fill-rule="evenodd" clip-rule="evenodd" d="M229.613 175.92L231.657 176.478C231.657 176.478 232.865 165.675 232.865 164.651C232.865 163.627 232.308 162.137 231.564 160.367C230.728 158.598 227.847 151.986 227.661 151.706C227.476 151.52 225.617 153.103 226.453 156.083C227.29 158.97 228.777 162.975 228.684 163.813C228.684 164.651 226.732 172.101 226.732 172.101L229.613 175.92Z" fill="#EF8871"/>
<path fill-rule="evenodd" clip-rule="evenodd" d="M231.748 176.017C231.748 174.993 231.376 173.317 229.332 172.013C227.287 170.802 222.362 166.891 221.34 166.425C220.318 165.96 219.11 166.146 217.902 166.984C216.694 167.729 212.791 170.43 211.955 171.268C211.118 172.106 209.074 177.414 208.795 177.973C208.516 178.532 210.561 178.998 212.233 177.787C212.233 177.787 211.397 179.556 211.118 180.115C210.84 180.674 210.468 185.144 210.468 186.075C210.468 187.007 212.884 186.541 213.813 184.492C213.813 184.492 213.72 185.982 213.72 186.448C213.72 186.914 215.114 186.727 215.114 186.727C215.114 186.727 216.787 195.668 217.158 196.785C217.53 197.903 231.655 248.844 231.655 248.844L252.098 247.633C252.098 247.633 229.796 197.623 229.61 196.878C228.309 190.452 231.748 181.233 231.748 176.017Z" fill="#F4AD85"/>
<path fill-rule="evenodd" clip-rule="evenodd" d="M215.031 186.631L215.124 187.096V187.283V187.376V187.469C215.589 189.797 216.704 195.664 216.983 196.502C217.261 197.341 225.067 225.559 229.156 240.087C233.523 238.317 236.961 236.268 236.961 236.268C236.961 236.268 221.164 199.296 220.793 197.899C220.421 196.409 221.257 195.292 220.978 194.919C220.7 194.547 219.492 193.988 219.12 192.87C218.841 191.846 218.098 188.121 218.562 186.631C218.934 185.513 220.142 185.606 220.7 185.793C221.35 185.979 221.908 186.165 222.279 186.165C223.116 186.258 223.023 185.793 223.023 185.793C223.209 184.116 224.788 181.788 224.788 181.788C223.952 181.322 222.558 179.087 222.558 179.087C221.629 178.715 220.978 178.249 220.328 178.715C219.677 179.18 217.726 181.229 217.726 181.416C217.726 181.602 217.54 183.558 217.169 184.861C216.797 186.258 215.031 186.631 215.031 186.631Z" fill="#EF8871"/>
<path fill-rule="evenodd" clip-rule="evenodd" d="M123.49 327.53H271.891C274.214 327.53 276.073 325.481 276.073 323.06C276.073 320.639 274.214 318.59 271.891 318.59H123.49C121.167 318.59 119.309 320.639 119.309 323.06C119.309 325.574 121.167 327.53 123.49 327.53Z" fill="#000618"/>
<path fill-rule="evenodd" clip-rule="evenodd" d="M274.591 232.727H225.712H169.586H120.8C118.477 232.727 116.897 234.589 117.269 236.917L128.978 315.145C129.349 317.474 131.487 319.336 133.717 319.336H156.576H238.629H261.488C263.811 319.336 265.949 317.474 266.227 315.145L277.936 236.917C278.401 234.682 276.821 232.727 274.591 232.727Z" fill="#000618"/>
<path fill-rule="evenodd" clip-rule="evenodd" d="M271.156 236.457H224.508H170.89H124.242C122.012 236.457 120.525 238.226 120.897 240.462L132.141 315.244C132.512 317.479 134.557 319.248 136.694 319.248H158.531H236.96H258.797C261.027 319.248 263.072 317.479 263.35 315.244L274.594 240.462C274.873 238.226 273.293 236.457 271.156 236.457Z" fill="#0F1630"/>
<path fill-rule="evenodd" clip-rule="evenodd" d="M129.164 296.057L132.045 315.241C132.416 317.476 134.461 319.246 136.598 319.246H158.435H236.864H258.701C260.931 319.246 262.976 317.476 263.254 315.241L274.498 240.459C274.777 238.689 273.848 237.199 272.361 236.641C255.542 265.697 214.19 313.379 129.164 296.057Z" fill="#000618"/>
<path fill-rule="evenodd" clip-rule="evenodd" d="M197.652 299.313C206.665 299.313 214.006 293.167 214.006 285.623C214.006 278.08 206.665 271.934 197.652 271.934C188.638 271.934 181.297 278.08 181.297 285.623C181.297 293.167 188.638 299.313 197.652 299.313Z" fill="#000618"/>
<path fill-rule="evenodd" clip-rule="evenodd" d="M197.651 275.285C202.204 275.285 206.2 277.334 208.338 280.407L189.381 293.352C186.872 291.49 185.199 288.696 185.199 285.622C185.292 279.848 190.775 275.285 197.651 275.285ZM207.78 291.676L202.112 288.509L192.633 295.028C194.213 295.587 195.979 295.96 197.744 295.96C201.833 296.053 205.457 294.283 207.78 291.676Z" fill="white"/>
<path fill-rule="evenodd" clip-rule="evenodd" d="M231.194 200.511C231.194 200.511 231.566 200.604 231.659 201.069C231.752 201.628 228.592 205.726 219.672 206.005C219.672 206.005 219.486 205.912 219.393 205.819C219.393 205.726 219.486 205.54 219.486 205.54V205.353C219.486 205.353 219.207 205.54 219.207 205.819C219.207 206.098 220.508 211.593 220.787 212.99C221.066 214.387 223.76 214.014 225.991 213.455C228.221 212.897 233.703 211.034 235.097 208.054C235.097 208.054 235.283 207.309 235.097 206.657C234.911 206.005 232.124 200.883 232.031 200.604C231.845 200.324 231.473 200.138 231.101 200.231L231.194 200.511Z" fill="#0F1630"/>
<path fill-rule="evenodd" clip-rule="evenodd" d="M223.853 205.624C222.645 205.903 221.251 206.089 219.672 206.089C219.672 206.089 219.486 205.996 219.393 205.903C219.393 205.81 219.486 205.624 219.486 205.624V205.438C219.486 205.438 219.207 205.624 219.207 205.903C219.207 206.183 220.508 211.677 220.787 213.074C221.066 214.471 223.76 214.098 225.99 213.54C226.269 213.447 226.734 213.353 227.106 213.26L223.853 205.624Z" fill="#000618"/>
<path fill-rule="evenodd" clip-rule="evenodd" d="M74.992 331.824H320.128C323.194 331.824 325.703 334.339 325.703 337.412C325.703 340.485 323.194 343 320.128 343H74.992C71.9254 343 69.4165 340.485 69.4165 337.412C69.3236 334.339 71.9254 331.824 74.992 331.824Z" fill="white"/>
<path fill-rule="evenodd" clip-rule="evenodd" d="M63.0068 323.07H331.931C335.834 323.07 339.086 326.33 339.086 330.241C339.086 334.153 335.834 337.412 331.931 337.412H63.0068C59.1039 337.412 55.8516 334.153 55.8516 330.241C55.9445 326.33 59.1039 323.07 63.0068 323.07Z" fill="#BE865E"/>
<path d="M240.954 323.07H226.086V337.412H240.954V323.07Z" fill="#915E40"/>
<path d="M256.385 323.07H248.672V337.412H256.385V323.07Z" fill="#915E40"/>
<path d="M268.372 323.07H264.469V337.412H268.372V323.07Z" fill="#915E40"/>
<path d="M298.2 323.07H281.566V337.412H298.2V323.07Z" fill="#915E40"/>
<path d="M318.923 323.07H310.652V337.412H318.923V323.07Z" fill="#915E40"/>
<path fill-rule="evenodd" clip-rule="evenodd" d="M63.6495 325.402H194.395C196.718 325.402 198.669 327.358 198.669 329.686C198.669 332.014 196.718 333.97 194.395 333.97H63.6495C61.3264 333.97 59.375 332.014 59.375 329.686C59.375 327.358 61.3264 325.402 63.6495 325.402Z" fill="#D49D80"/>
<path fill-rule="evenodd" clip-rule="evenodd" d="M150.262 33.0527L153.328 50.7472L193.007 18.7109L151.563 28.9551L150.262 33.0527Z" fill="#5A6986"/>
<path fill-rule="evenodd" clip-rule="evenodd" d="M153.328 50.7484L168.661 38.4554C168.847 37.0585 169.404 35.2891 169.404 35.2891L156.58 38.7348L153.328 50.7484Z" fill="#A4ABBA"/>
<path fill-rule="evenodd" clip-rule="evenodd" d="M193.004 18.7109L139.387 28.6757L150.259 33.0527L193.004 18.7109Z" fill="white"/>
<path fill-rule="evenodd" clip-rule="evenodd" d="M193.008 18.7109L168.94 50.8403L156.488 38.7336L193.008 18.7109Z" fill="white"/>
<path fill-rule="evenodd" clip-rule="evenodd" d="M55.3828 183.825C60.5866 182.615 66.0692 181.963 71.6446 181.963C79.4503 181.963 85.7692 175.537 85.7692 167.807C85.7692 167.155 85.6763 166.503 85.5834 165.852H107.978C111.324 165.852 114.111 168.645 114.111 171.998V197.422V199.285V215.489C114.111 215.769 113.925 216.048 113.647 216.141C113.368 216.234 113.089 216.234 112.903 215.955L102.403 205.431H61.5158C58.1706 205.431 55.3828 202.637 55.3828 199.285V183.825Z" fill="#0143A0"/>
<path fill-rule="evenodd" clip-rule="evenodd" d="M59.1916 163.43H105.747C109.092 163.43 111.88 166.224 111.88 169.576V195V196.863V213.067C111.88 213.347 111.694 213.626 111.415 213.719C111.137 213.812 110.858 213.812 110.672 213.533L100.264 203.009H59.1916C55.8463 203.009 53.0586 200.215 53.0586 196.863V169.576C53.0586 166.224 55.8463 163.43 59.1916 163.43Z" fill="#F74871"/>
<path fill-rule="evenodd" clip-rule="evenodd" d="M80.0583 172.411C80.408 171.913 80.289 171.227 79.7923 170.877C79.2957 170.527 78.6095 170.646 78.2598 171.143L75.0886 175.65C74.1717 175.056 73.0777 174.712 71.9011 174.712C68.654 174.712 66.0352 177.333 66.0352 180.583V193.793C66.0352 194.401 66.5276 194.894 67.135 194.894H76.5938H76.6672C77.2746 194.894 77.767 194.401 77.767 193.793V180.583C77.767 179.318 77.3703 178.149 76.6942 177.192L80.0583 172.411ZM73.8203 177.452L70.9274 181.564C70.5776 182.061 70.6967 182.748 71.1933 183.098C71.69 183.448 72.3761 183.329 72.7259 182.832L75.2932 179.183C75.4699 179.614 75.5673 180.087 75.5673 180.583V192.692H68.2349V180.583C68.2349 178.549 69.8689 176.914 71.9011 176.914C72.6059 176.914 73.2628 177.111 73.8203 177.452ZM86.7383 179.19C86.8272 178.847 86.9279 178.461 87.0343 178.057C87.3922 176.697 87.8051 175.172 88.052 174.394C88.3512 173.507 89.428 172.878 90.8926 172.878H90.9025H90.9125H90.9225H90.9325H90.9426H90.9527H90.9628H90.973H90.9833H90.9936H91.0039H91.0143H91.0247H91.0351H91.0456H91.0561H91.0667H91.0773H91.088H91.0986H91.1094H91.1201H91.1309H91.1418H91.1527H91.1636H91.1745H91.1855H91.1965H91.2076H91.2187H91.2298H91.241H91.2522H91.2634H91.2747H91.286H91.2974H91.3088H91.3202H91.3316H91.3431H91.3546H91.3662H91.3777H91.3893H91.401H91.4127H91.4244H91.4361H91.4479H91.4597H91.4715H91.4834H91.4953H91.5072H91.5192H91.5312H91.5432H91.5552H91.5673H91.5794H91.5915H91.6037H91.6158H91.6281H91.6403H91.6526H91.6649H91.6772H91.6895H91.7019H91.7143H91.7267H91.7392H91.7517H91.7641H91.7767H91.7892H91.8018H91.8144H91.827H91.8397H91.8523H91.865H91.8777H91.8905H91.9032H91.916H91.9288H91.9416H91.9545H91.9673H91.9802H91.9931H92.0061H92.019H92.032H92.045H92.058H92.071H92.084H92.0971H92.1102H92.1233H92.1364H92.1495H92.1627H92.1759H92.189H92.2022H92.2155H92.2287H92.242H92.2552H92.2685H92.2818H92.2951H92.3084H92.3218H92.3351H92.3485H92.3619H92.3753H92.3887H92.4021H92.4155H92.429H92.4425H92.4559H92.4694H92.4829H92.4964H92.5099H92.5234H92.537H92.5505H92.5641H92.5777H92.5912H92.6048H92.6184H92.632H92.6456H92.6592H92.6729H92.6865H92.7002H92.7138H92.7275H92.7411H92.7548H92.7685H92.7822H92.7958H92.8095H92.8232H92.8369H92.8507H92.8644H92.8781H92.8918H92.9055H92.9193H92.933H92.9467H92.9605H92.9742H92.988H93.0017H93.0155H93.0292H93.043H93.0567H93.0705H93.0842H93.098H93.1117H93.1255H93.1392H93.153H93.1667H93.1805H93.1942H93.208H93.2217H93.2355H93.2492H93.263H93.2767H93.2904H93.3042H93.3179H93.3316H93.3453H93.359H93.3727H93.3865H93.4002H93.4138H93.4275H93.4412H93.4549H93.4686H93.4822H93.4959H93.5095H93.5232H93.5368H93.5504H93.5641H93.5777H93.5913H93.6049H93.6185H93.632H93.6456H93.6592H93.6727H93.6862H93.6998H93.7133H93.7268H93.7403H93.7538H93.7672H93.7807H93.7941H93.8076H93.821H93.8344H93.8478H93.8612H93.8746H93.8879H93.9013H93.9146H93.9279H93.9412H93.9545H93.9677H93.981H93.9942H94.0074H94.0206H94.0338H94.047H94.0601H94.0733H94.0864H94.0995H94.1126H94.1256H94.1387H94.1517H94.1647H94.1777H94.1907H94.2036H94.2165H94.2295H94.2423H94.2552H94.268H94.2809H94.2937H94.3065H94.3192H94.3319H94.3447H94.3574H94.37H94.3827H94.3953H94.4079H94.4205H94.433H94.4455H94.458H94.4705H94.483H94.4954H94.5078H94.5202H94.5325H94.5448H94.5571H94.5694H94.5816H94.5938H94.606H94.6182H94.6303H94.6424H94.6545H94.6665H94.6785H94.6905H94.7025H94.7144H94.7263H94.7381H94.75H94.7618H94.7736H94.7853H94.797H94.8087H94.8203H94.8319H94.8435H94.8551H94.8666H94.8781H94.8895H94.9009H94.9123H94.9236H94.9349H94.9462H94.9575H94.9687H94.9798H94.991H95.0021H95.0131H95.0242H95.0351H95.0461H95.057H95.0679H95.0787H95.0895H95.1003H95.111H95.1217H95.1323H95.1429H95.1535H95.164H95.1745H95.185H95.1954H95.2058H95.2161H95.2264H95.2366H95.2468H95.257H95.2671H95.2772H95.2872H95.2972H95.3071H95.317H95.3269H95.3367H95.3465H95.3562H95.3659H95.3755H95.3851H95.3947H95.4042H95.4136H95.423H95.4324H95.4417H95.451H95.4602H95.4694H95.4785H95.4876H95.4966H95.5056H95.5145H95.5234H95.5323H95.541H95.5498H95.5585H95.5671H95.5757H95.5842H95.5927H95.6012H95.6095H95.6179H95.6262H95.6344H95.6426H95.6507H95.6588H95.6668H95.6747H95.6826H95.6905H95.6983H95.7061H95.7138H95.7214H95.729H95.7365H95.744H95.7514H95.7588H95.7661H95.7733H95.7805H95.7877H95.7947H95.8018H95.8087H95.8156H95.8225H95.8293H95.836H95.8427H95.8493H95.8559H95.8624H95.8688H95.8752H95.8815H95.8877H95.8939H95.9001H95.9061H95.9121H95.9181H95.924H95.9298H95.9356H95.9413H95.9469H95.9525H95.958H95.9634H95.9688H95.9741H95.9794H95.9845H95.9897H95.9947H95.9997H96.0046H96.0095H96.0143H96.019H96.0237H96.0283H96.0328H96.0373H96.0416H96.046H96.0502H96.0544H96.0585H96.0626H96.0666H96.0705H96.0743H96.0781H96.0818H96.0854H96.089H96.0924H96.0959H96.0992H96.1025H96.1057H96.1088H96.1119H96.1148H96.1178H96.1206H96.1234H96.126H96.1287H96.1312H96.1337H96.1361H96.1384H96.1406H96.1428H96.1449H96.1469H96.1489H96.1507H96.1525H96.1542H96.1559H96.1574H96.1589H96.1603H96.1616H96.1629H96.164H96.1651H96.1661H96.1671H96.1679H96.1687H96.1694H96.17H96.1705H96.1709H96.1713H96.1716H96.1718H96.1719C96.7794 172.878 97.2718 172.385 97.2718 171.777C97.2718 171.169 96.7794 170.676 96.1719 170.676H96.1718H96.1716H96.1713H96.1709H96.1705H96.17H96.1694H96.1687H96.1679H96.1671H96.1661H96.1651H96.164H96.1629H96.1616H96.1603H96.1589H96.1574H96.1559H96.1542H96.1525H96.1507H96.1489H96.1469H96.1449H96.1428H96.1406H96.1384H96.1361H96.1337H96.1312H96.1287H96.126H96.1234H96.1206H96.1178H96.1148H96.1119H96.1088H96.1057H96.1025H96.0992H96.0959H96.0924H96.089H96.0854H96.0818H96.0781H96.0743H96.0705H96.0666H96.0626H96.0585H96.0544H96.0502H96.046H96.0416H96.0373H96.0328H96.0283H96.0237H96.019H96.0143H96.0095H96.0046H95.9997H95.9947H95.9897H95.9845H95.9794H95.9741H95.9688H95.9634H95.958H95.9525H95.9469H95.9413H95.9356H95.9298H95.924H95.9181H95.9121H95.9061H95.9001H95.8939H95.8877H95.8815H95.8752H95.8688H95.8624H95.8559H95.8493H95.8427H95.836H95.8293H95.8225H95.8156H95.8087H95.8018H95.7947H95.7877H95.7805H95.7733H95.7661H95.7588H95.7514H95.744H95.7365H95.729H95.7214H95.7138H95.7061H95.6983H95.6905H95.6826H95.6747H95.6668H95.6588H95.6507H95.6426H95.6344H95.6262H95.6179H95.6095H95.6012H95.5927H95.5842H95.5757H95.5671H95.5585H95.5498H95.541H95.5323H95.5234H95.5145H95.5056H95.4966H95.4876H95.4785H95.4694H95.4602H95.451H95.4417H95.4324H95.423H95.4136H95.4042H95.3947H95.3851H95.3755H95.3659H95.3562H95.3465H95.3367H95.3269H95.317H95.3071H95.2972H95.2872H95.2772H95.2671H95.257H95.2468H95.2366H95.2264H95.2161H95.2058H95.1954H95.185H95.1745H95.164H95.1535H95.1429H95.1323H95.1217H95.111H95.1003H95.0895H95.0787H95.0679H95.057H95.0461H95.0351H95.0242H95.0131H95.0021H94.991H94.9798H94.9687H94.9575H94.9462H94.9349H94.9236H94.9123H94.9009H94.8895H94.8781H94.8666H94.8551H94.8435H94.8319H94.8203H94.8087H94.797H94.7853H94.7736H94.7618H94.75H94.7381H94.7263H94.7144H94.7025H94.6905H94.6785H94.6665H94.6545H94.6424H94.6303H94.6182H94.606H94.5938H94.5816H94.5694H94.5571H94.5448H94.5325H94.5202H94.5078H94.4954H94.483H94.4705H94.458H94.4455H94.433H94.4205H94.4079H94.3953H94.3827H94.37H94.3574H94.3447H94.3319H94.3192H94.3065H94.2937H94.2809H94.268H94.2552H94.2423H94.2295H94.2165H94.2036H94.1907H94.1777H94.1647H94.1517H94.1387H94.1256H94.1126H94.0995H94.0864H94.0733H94.0601H94.047H94.0338H94.0206H94.0074H93.9942H93.981H93.9677H93.9545H93.9412H93.9279H93.9146H93.9013H93.8879H93.8746H93.8612H93.8478H93.8344H93.821H93.8076H93.7941H93.7807H93.7672H93.7538H93.7403H93.7268H93.7133H93.6998H93.6862H93.6727H93.6592H93.6456H93.632H93.6185H93.6049H93.5913H93.5777H93.5641H93.5504H93.5368H93.5232H93.5095H93.4959H93.4822H93.4686H93.4549H93.4412H93.4275H93.4138H93.4002H93.3865H93.3727H93.359H93.3453H93.3316H93.3179H93.3042H93.2904H93.2767H93.263H93.2492H93.2355H93.2217H93.208H93.1942H93.1805H93.1667H93.153H93.1392H93.1255H93.1117H93.098H93.0842H93.0705H93.0567H93.043H93.0292H93.0155H93.0017H92.988H92.9742H92.9605H92.9467H92.933H92.9193H92.9055H92.8918H92.8781H92.8644H92.8507H92.8369H92.8232H92.8095H92.7958H92.7822H92.7685H92.7548H92.7411H92.7275H92.7138H92.7002H92.6865H92.6729H92.6592H92.6456H92.632H92.6184H92.6048H92.5912H92.5777H92.5641H92.5505H92.537H92.5234H92.5099H92.4964H92.4829H92.4694H92.4559H92.4425H92.429H92.4155H92.4021H92.3887H92.3753H92.3619H92.3485H92.3351H92.3218H92.3084H92.2951H92.2818H92.2685H92.2552H92.242H92.2287H92.2155H92.2022H92.189H92.1759H92.1627H92.1495H92.1364H92.1233H92.1102H92.0971H92.084H92.071H92.058H92.045H92.032H92.019H92.0061H91.9931H91.9802H91.9673H91.9545H91.9416H91.9288H91.916H91.9032H91.8905H91.8777H91.865H91.8523H91.8397H91.827H91.8144H91.8018H91.7892H91.7767H91.7641H91.7517H91.7392H91.7267H91.7143H91.7019H91.6895H91.6772H91.6649H91.6526H91.6403H91.6281H91.6158H91.6037H91.5915H91.5794H91.5673H91.5552H91.5432H91.5312H91.5192H91.5072H91.4953H91.4834H91.4715H91.4597H91.4479H91.4361H91.4244H91.4127H91.401H91.3893H91.3777H91.3662H91.3546H91.3431H91.3316H91.3202H91.3088H91.2974H91.286H91.2747H91.2634H91.2522H91.241H91.2298H91.2187H91.2076H91.1965H91.1855H91.1745H91.1636H91.1527H91.1418H91.1309H91.1201H91.1094H91.0986H91.088H91.0773H91.0667H91.0561H91.0456H91.0351H91.0247H91.0143H91.0039H90.9936H90.9833H90.973H90.9628H90.9527H90.9426H90.9325H90.9225H90.9125H90.9025H90.8926C88.9878 170.676 86.6933 171.511 85.963 173.704L85.9584 173.718C85.6917 174.557 85.2629 176.144 84.9072 177.496C84.7297 178.17 84.568 178.794 84.45 179.253C82.473 179.602 80.9921 181.366 80.9921 183.52V188.731C80.9921 189.104 81.1813 189.452 81.4945 189.655C82.0582 190.02 82.7318 190.324 83.4869 190.578V192.692C83.4869 193.787 84.323 194.894 85.6133 194.894H87.3731C88.6634 194.894 89.4995 193.787 89.4995 192.692V191.652C91.5308 191.823 93.7549 191.886 96.0236 191.886C96.631 191.886 97.1235 191.394 97.1235 190.786C97.1235 190.178 96.631 189.685 96.0236 189.685C93.412 189.685 90.9121 189.599 88.7339 189.368C88.6285 189.335 88.5162 189.317 88.3996 189.317C88.3677 189.317 88.3361 189.318 88.3049 189.321C88.1704 189.305 88.0372 189.289 87.9054 189.272C86.7857 189.128 85.7997 188.944 84.9621 188.722C84.906 188.702 84.8479 188.686 84.788 188.674C84.1676 188.501 83.6335 188.306 83.1919 188.089V183.52C83.1919 182.26 84.1258 181.392 85.1716 181.392H96.0236C96.631 181.392 97.1235 180.899 97.1235 180.291C97.1235 179.683 96.631 179.19 96.0236 179.19H86.7383ZM85.6866 191.145V192.692H87.2998V191.412C86.7462 191.336 86.2066 191.248 85.6866 191.145ZM87.1531 187.042C88.1655 187.042 88.9862 186.221 88.9862 185.207C88.9862 184.194 88.1655 183.373 87.1531 183.373C86.1407 183.373 85.32 184.194 85.32 185.207C85.32 186.221 86.1407 187.042 87.1531 187.042Z" fill="white"/>
<path fill-rule="evenodd" clip-rule="evenodd" d="M318.369 52.4297H269.955C266.424 52.4297 263.543 55.3167 263.543 58.8556V85.3041V87.2598V104.116C263.543 104.395 263.729 104.675 264.008 104.768C264.286 104.861 264.565 104.861 264.751 104.582L275.623 93.6857H318.276C321.807 93.6857 324.687 90.7987 324.687 87.2598V58.8556C324.687 55.3167 321.807 52.4297 318.369 52.4297Z" fill="#0143A0"/>
<path fill-rule="evenodd" clip-rule="evenodd" d="M315.579 52.4297H267.166C263.635 52.4297 260.754 55.3167 260.754 58.8556V85.3041V87.2598V104.116C260.754 104.395 260.94 104.675 261.219 104.768C261.497 104.861 261.776 104.861 261.962 104.582L272.834 93.6857H315.487C319.018 93.6857 321.898 90.7987 321.898 87.2598V58.8556C321.991 55.3167 319.111 52.4297 315.579 52.4297Z" fill="#F74871"/>
<path d="M362.519 217.673V208.141H366.848C368.753 208.141 370.311 209.701 370.311 211.607C370.311 213.513 368.753 215.073 366.848 215.073H362.519M371.091 204.674C371.091 197.482 365.29 191.676 358.104 191.676C350.918 191.676 345.117 197.482 345.117 204.674C345.117 211.867 350.918 217.672 358.104 217.672M358.104 196.961V205.28L354.468 208.833" stroke="white" stroke-width="3" stroke-miterlimit="10" stroke-linecap="round" stroke-linejoin="round"/>
<path d="M290.002 71.8345V64.5866H293.178C294.562 64.5866 295.702 65.7665 295.702 67.1992C295.702 68.632 294.562 69.8119 293.178 69.8119H290.002M292.364 76.7214V81.1039M289.84 84.9813V82.1159C289.84 81.5259 290.491 81.1045 291.386 81.1045H293.422C294.236 81.1045 294.969 81.5259 294.969 82.1159V84.9813M285.688 84.9804H298.959M283.652 59.6133H300.994V76.7218H283.652V59.6133Z" stroke="white" stroke-width="3" stroke-miterlimit="10" stroke-linecap="round" stroke-linejoin="round"/>
<path fill-rule="evenodd" clip-rule="evenodd" d="M36.2383 112.497C36.7958 111.473 37.5392 110.635 38.5614 110.076C39.4907 109.517 40.0482 108.679 40.327 107.655C40.6987 106.444 40.6987 104.954 40.6987 103.65C40.6987 103.184 41.0704 102.719 41.6279 102.719H43.2076C43.3935 102.719 43.4864 102.719 43.6723 102.812C44.4157 102.998 44.9732 103.743 45.3449 104.395C45.8095 105.233 46.0883 106.351 46.0883 107.282C46.0883 107.934 45.9954 108.679 45.8095 109.238C45.6237 109.703 45.252 111.007 45.4378 111.473C45.4378 111.473 45.6237 111.473 45.7166 111.473H49.7124C50.177 111.473 50.6416 111.566 51.0133 111.659C51.6638 111.845 52.2213 112.125 52.593 112.59C53.1506 113.149 53.3364 113.894 53.3364 114.639C53.3364 115.012 53.2435 115.477 53.1506 115.85C53.7081 117.34 53.8011 119.109 52.686 120.32C52.7789 121.531 52.5001 122.835 51.385 123.58C50.8275 125.256 49.4336 126.373 47.5751 126.373H40.327C39.119 126.373 37.818 125.722 36.8888 124.976C36.7958 125.349 36.61 125.628 36.3312 125.908C35.9595 126.28 35.4949 126.467 34.9373 126.467H31.685C31.1274 126.467 30.6628 126.28 30.1982 125.908C29.8265 125.535 29.6406 124.976 29.6406 124.418V113.987C29.6406 113.429 29.8265 112.963 30.2911 112.497C30.6628 112.125 31.1274 111.938 31.685 111.938H34.9373C35.402 112.032 35.8666 112.218 36.2383 112.497ZM37.0746 122.741C37.9109 123.58 39.3048 124.697 40.5128 124.697H47.761C48.7831 124.697 49.7124 123.952 49.8982 122.928C49.9912 122.648 50.177 122.462 50.3628 122.276C51.0133 121.903 51.0133 120.879 50.9204 120.227C50.8275 119.854 51.0133 119.482 51.2921 119.296C52.1284 118.644 51.8496 117.247 51.4779 116.409C51.385 116.222 51.385 115.943 51.385 115.757C51.4779 115.384 51.5709 115.105 51.5709 114.732C51.5709 114.453 51.4779 114.08 51.2921 113.894C51.1062 113.708 50.8275 113.615 50.6416 113.522C50.3628 113.429 50.0841 113.429 49.8053 113.429H45.8095C44.9732 113.429 44.2298 113.149 43.8581 112.311C43.4864 111.287 43.8581 109.797 44.1369 108.865C44.3227 108.4 44.3227 107.934 44.3227 107.375C44.3227 106.723 44.1369 105.978 43.8581 105.326C43.7652 105.14 43.4864 104.674 43.2076 104.581H42.5572C42.5572 105.792 42.4642 107.003 42.0925 108.213C41.6279 109.797 40.7916 111.007 39.3977 111.752C38.0039 112.497 37.2605 114.267 36.9817 115.757V122.741H37.0746ZM34.9373 113.894H31.685C31.592 113.894 31.592 113.894 31.592 113.894C31.592 113.894 31.4991 113.987 31.4991 114.08V124.511C31.4991 124.604 31.4991 124.604 31.592 124.697C31.592 124.697 31.685 124.79 31.7779 124.79H35.0303C35.1232 124.79 35.1232 124.79 35.1232 124.79C35.1232 124.79 35.2161 124.697 35.2161 124.604V114.174C35.2161 114.08 35.2161 114.08 35.1232 113.987C35.1232 113.894 35.0303 113.894 34.9373 113.894Z" fill="white"/>
<path fill-rule="evenodd" clip-rule="evenodd" d="M298.481 41.4418H301.269C301.92 41.4418 302.477 40.883 302.477 40.2311V37.4372C302.477 36.7853 301.92 36.2266 301.269 36.2266H298.481C297.831 36.2266 297.273 36.7853 297.273 37.4372V40.2311C297.273 40.883 297.831 41.4418 298.481 41.4418Z" fill="white"/>
<path fill-rule="evenodd" clip-rule="evenodd" d="M308.142 41.4418H310.929C311.58 41.4418 312.137 40.883 312.137 40.2311V37.4372C312.137 36.7853 311.58 36.2266 310.929 36.2266H308.142C307.491 36.2266 306.934 36.7853 306.934 37.4372V40.2311C306.934 40.883 307.491 41.4418 308.142 41.4418Z" fill="#0143A0"/>
<path fill-rule="evenodd" clip-rule="evenodd" d="M317.806 41.4418H320.593C321.244 41.4418 321.801 40.883 321.801 40.2311V37.4372C321.801 36.7853 321.244 36.2266 320.593 36.2266H317.806C317.155 36.2266 316.598 36.7853 316.598 37.4372V40.2311C316.598 40.883 317.155 41.4418 317.806 41.4418Z" fill="white"/>
<path fill-rule="evenodd" clip-rule="evenodd" d="M327.474 41.4418H330.261C330.912 41.4418 331.469 40.883 331.469 40.2311V37.4372C331.469 36.7853 330.912 36.2266 330.261 36.2266H327.474C326.823 36.2266 326.266 36.7853 326.266 37.4372V40.2311C326.266 40.883 326.823 41.4418 327.474 41.4418Z" fill="#0143A0"/>
<path fill-rule="evenodd" clip-rule="evenodd" d="M337.226 41.4418H340.014C340.664 41.4418 341.222 40.883 341.222 40.2311V37.4372C341.222 36.7853 340.664 36.2266 340.014 36.2266H337.226C336.575 36.2266 336.018 36.7853 336.018 37.4372V40.2311C335.925 40.883 336.483 41.4418 337.226 41.4418Z" fill="white"/>
<path fill-rule="evenodd" clip-rule="evenodd" d="M346.892 41.4418H349.679C350.33 41.4418 350.887 40.883 350.887 40.2311V37.4372C350.887 36.7853 350.33 36.2266 349.679 36.2266H346.892C346.241 36.2266 345.684 36.7853 345.684 37.4372V40.2311C345.684 40.883 346.241 41.4418 346.892 41.4418Z" fill="white"/>
<path fill-rule="evenodd" clip-rule="evenodd" d="M356.564 41.4418H359.351C360.002 41.4418 360.559 40.883 360.559 40.2311V37.4372C360.559 36.7853 360.002 36.2266 359.351 36.2266H356.564C355.913 36.2266 355.355 36.7853 355.355 37.4372V40.2311C355.355 40.883 355.913 41.4418 356.564 41.4418Z" fill="white"/>
<path fill-rule="evenodd" clip-rule="evenodd" d="M327.845 30.9183H330.632C331.283 30.9183 331.841 30.3595 331.841 29.7076V26.9138C331.841 26.2619 331.283 25.7031 330.632 25.7031H327.845C327.194 25.7031 326.637 26.2619 326.637 26.9138V29.7076C326.637 30.3595 327.194 30.9183 327.845 30.9183Z" fill="white"/>
<path fill-rule="evenodd" clip-rule="evenodd" d="M337.513 30.9183H340.301C340.951 30.9183 341.509 30.3595 341.509 29.7076V26.9138C341.509 26.2619 340.951 25.7031 340.301 25.7031H337.513C336.862 25.7031 336.305 26.2619 336.305 26.9138V29.7076C336.305 30.3595 336.862 30.9183 337.513 30.9183Z" fill="#0143A0"/>
<path fill-rule="evenodd" clip-rule="evenodd" d="M347.265 30.9183H350.053C350.703 30.9183 351.261 30.3595 351.261 29.7076V26.9138C351.261 26.2619 350.703 25.7031 350.053 25.7031H347.265C346.615 25.7031 346.057 26.2619 346.057 26.9138V29.7076C345.964 30.3595 346.522 30.9183 347.265 30.9183Z" fill="white"/>
<path fill-rule="evenodd" clip-rule="evenodd" d="M337.226 52.805H340.014C340.664 52.805 341.222 52.2463 341.222 51.5944V48.8005C341.222 48.1486 340.664 47.5898 340.014 47.5898H337.226C336.575 47.5898 336.018 48.1486 336.018 48.8005V51.5944C335.925 52.2463 336.483 52.805 337.226 52.805Z" fill="white"/>
<path fill-rule="evenodd" clip-rule="evenodd" d="M346.892 52.805H349.679C350.33 52.805 350.887 52.2463 350.887 51.5944V48.8005C350.887 48.1486 350.33 47.5898 349.679 47.5898H346.892C346.241 47.5898 345.684 48.1486 345.684 48.8005V51.5944C345.684 52.2463 346.241 52.805 346.892 52.805Z" fill="#0143A0"/>
<path fill-rule="evenodd" clip-rule="evenodd" d="M102.216 121.533C105.004 118.739 109.557 118.739 112.345 121.533L112.995 122.185L113.646 121.533C116.433 118.739 120.987 118.739 123.774 121.533C126.562 124.327 126.562 128.89 123.774 131.684L123.124 132.336L112.995 142.487L102.866 132.336L102.216 131.684C99.4281 128.89 99.4281 124.327 102.216 121.533Z" fill="white"/>
<path fill-rule="evenodd" clip-rule="evenodd" d="M88.4672 240.922C81.0332 233.286 75.4577 242.971 76.2941 252.656C77.0375 261.876 84.9361 293.354 83.4493 306.578H86.5158C93.8568 289.629 98.0385 250.701 88.4672 240.922Z" fill="#61E6F9"/>
<path fill-rule="evenodd" clip-rule="evenodd" d="M85.3984 306.674C92.5536 279.853 83.447 242.881 83.447 242.695C83.3541 242.509 83.1682 242.322 82.8894 242.415C82.7036 242.509 82.5177 242.695 82.6107 242.974C82.6107 243.067 91.8102 280.132 84.4691 306.674H85.3984V306.674Z" fill="white"/>
<path fill-rule="evenodd" clip-rule="evenodd" d="M70.162 257.685C62.3563 253.495 60.312 262.621 63.3785 270.165C65.8874 276.404 77.1313 294.844 81.313 306.671H85.3087C85.6804 290.28 79.3615 262.621 70.162 257.685Z" fill="white"/>
<path fill-rule="evenodd" clip-rule="evenodd" d="M83.9135 306.674C81.3116 284.509 66.6295 260.482 66.5366 260.389C66.4436 260.202 66.2578 260.202 66.0719 260.296C65.8861 260.389 65.8861 260.575 65.979 260.761C66.0719 260.854 80.6611 284.788 83.1701 306.674H83.9135Z" fill="#F1F1F1"/>
<path fill-rule="evenodd" clip-rule="evenodd" d="M103.341 268.21C110.961 264.857 112.169 273.518 108.731 280.316C106.408 284.88 98.2303 296.707 92.6548 306.672H86.3359C88.4732 291.492 95.4426 271.655 103.341 268.21Z" fill="#31599B"/>
<path fill-rule="evenodd" clip-rule="evenodd" d="M88.5664 306.674C93.956 288.328 106.408 271.006 106.408 271.006C106.501 270.82 106.687 270.82 106.873 270.913C107.058 271.006 107.058 271.192 106.965 271.378C106.873 271.472 94.6065 288.514 89.2169 306.674H88.5664V306.674Z" fill="white"/>
<path fill-rule="evenodd" clip-rule="evenodd" d="M73.0345 299.504H99.3322C100.076 299.504 100.726 300.156 100.726 300.901V307.42C100.726 308.165 100.076 308.817 99.3322 308.817H73.0345C72.2911 308.817 71.6406 308.165 71.6406 307.42V300.901C71.6406 300.156 72.2911 299.504 73.0345 299.504Z" fill="#FFBF00"/>
<path fill-rule="evenodd" clip-rule="evenodd" d="M77.5846 304.809H94.8685L99.3289 308.813L95.7049 323.062H86.2266H76.7482L73.0312 308.813L77.5846 304.809Z" fill="#FFBF00"/>
<path fill-rule="evenodd" clip-rule="evenodd" d="M99.3289 308.812L98.5855 311.793H73.8676L73.0312 308.812H99.3289Z" fill="#FF9700"/>
<path d="M224.412 38.745C225.746 38.745 226.828 37.661 226.828 36.3237C226.828 34.9864 225.746 33.9023 224.412 33.9023C223.078 33.9023 221.996 34.9864 221.996 36.3237C221.996 37.661 223.078 38.745 224.412 38.745Z" fill="#0143A0"/>
<path d="M264.189 178.999C265.524 178.999 266.605 177.915 266.605 176.578C266.605 175.24 265.524 174.156 264.189 174.156C262.855 174.156 261.773 175.24 261.773 176.578C261.773 177.915 262.855 178.999 264.189 178.999Z" fill="#0143A0"/>
<path d="M28.9903 261.507C30.3246 261.507 31.4063 260.423 31.4063 259.085C31.4063 257.748 30.3246 256.664 28.9903 256.664C27.6559 256.664 26.5742 257.748 26.5742 259.085C26.5742 260.423 27.6559 261.507 28.9903 261.507Z" fill="#0143A0"/>
<path fill-rule="evenodd" clip-rule="evenodd" d="M322.076 113.245C323.377 113.245 324.492 112.128 324.492 110.824C324.492 109.52 323.377 108.402 322.076 108.402C320.775 108.402 319.66 109.52 319.66 110.824C319.66 112.128 320.775 113.245 322.076 113.245Z" fill="#0143A0"/>
<path d="M102.209 97.1239C103.543 97.1239 104.625 96.0399 104.625 94.7026C104.625 93.3653 103.543 92.2812 102.209 92.2812C100.875 92.2812 99.793 93.3653 99.793 94.7026C99.793 96.0399 100.875 97.1239 102.209 97.1239Z" fill="#0143A0"/>
<path d="M96.2676 237.757C97.602 237.757 98.6837 236.673 98.6837 235.335C98.6837 233.998 97.602 232.914 96.2676 232.914C94.9333 232.914 93.8516 233.998 93.8516 235.335C93.8516 236.673 94.9333 237.757 96.2676 237.757Z" fill="white"/>
<path d="M329.791 225.472C331.125 225.472 332.207 224.388 332.207 223.05C332.207 221.713 331.125 220.629 329.791 220.629C328.457 220.629 327.375 221.713 327.375 223.05C327.375 224.388 328.457 225.472 329.791 225.472Z" fill="white"/>
<path fill-rule="evenodd" clip-rule="evenodd" d="M280.912 121.995C282.213 121.995 283.328 120.877 283.328 119.574C283.328 118.27 282.213 117.152 280.912 117.152C279.611 117.152 278.496 118.27 278.496 119.574C278.496 120.877 279.611 121.995 280.912 121.995Z" fill="white"/>
<path d="M261.021 31.3857C262.356 31.3857 263.438 30.3016 263.438 28.9643C263.438 27.627 262.356 26.543 261.021 26.543C259.687 26.543 258.605 27.627 258.605 28.9643C258.605 30.3016 259.687 31.3857 261.021 31.3857Z" fill="white"/>
<path d="M359.436 92.9403C360.77 92.9403 361.852 91.8563 361.852 90.519C361.852 89.1817 360.77 88.0977 359.436 88.0977C358.101 88.0977 357.02 89.1817 357.02 90.519C357.02 91.8563 358.101 92.9403 359.436 92.9403Z" fill="white"/>
<path fill-rule="evenodd" clip-rule="evenodd" d="M320.48 299.496C322.617 299.496 324.661 300.334 326.148 301.824C327.635 303.314 328.471 305.363 328.471 307.505C328.471 309.647 327.635 311.696 326.148 313.186C324.661 314.676 322.617 315.514 320.48 315.514C318.343 315.514 316.298 314.676 314.811 313.186C313.325 311.696 312.488 309.647 312.488 307.505C312.488 305.363 313.325 303.314 314.811 301.824C316.298 300.334 318.343 299.496 320.48 299.496ZM323.918 304.059C322.989 303.128 321.781 302.662 320.48 302.662C319.179 302.662 317.971 303.128 317.042 304.059C316.112 304.991 315.648 306.201 315.648 307.505C315.648 308.809 316.112 310.02 317.042 310.951C317.971 311.882 319.179 312.348 320.48 312.348C321.781 312.348 322.989 311.882 323.918 310.951C324.847 310.02 325.312 308.809 325.312 307.505C325.312 306.201 324.754 304.991 323.918 304.059Z" fill="#FF9700"/>
<path fill-rule="evenodd" clip-rule="evenodd" d="M307.756 323.153C314.632 323.153 320.301 317.472 320.301 310.581V309.836V298.381V297.45C320.301 296.798 319.836 296.332 319.185 296.332H296.326C295.676 296.332 295.211 296.798 295.211 297.45V298.381V309.836V310.581C295.211 317.565 300.879 323.153 307.756 323.153Z" fill="#FFBF00"/>
<path fill-rule="evenodd" clip-rule="evenodd" d="M315.932 309.091C315.932 310.395 315.746 311.699 315.282 312.91C315.096 313.561 314.817 314.213 314.445 314.865C313.051 317.473 310.821 319.522 308.126 320.639C306.64 321.291 305.06 321.57 303.294 321.57C302.551 321.57 301.9 321.477 301.25 321.384C303.108 322.502 305.246 323.154 307.569 323.154C310.357 323.154 312.959 322.222 315.096 320.639C316.49 319.615 317.605 318.311 318.441 316.821C318.813 316.169 319.092 315.61 319.37 314.958C319.835 313.655 320.114 312.165 320.114 310.674V309.929V302.665V300.71V298.475V297.543C320.114 296.891 319.649 296.426 318.999 296.426H315.932V296.891V301.641V304.062V308.346V309.091Z" fill="#FF9700"/>
<path fill-rule="evenodd" clip-rule="evenodd" d="M296.884 323.157H318.628C319.557 323.157 320.301 322.412 320.301 321.481C320.301 320.55 319.557 319.805 318.628 319.805H296.884C295.954 319.805 295.211 320.55 295.211 321.481C295.211 322.412 295.954 323.157 296.884 323.157Z" fill="#FFBF00"/>
<path fill-rule="evenodd" clip-rule="evenodd" d="M299.204 298.852C300.319 298.852 301.341 299.783 301.341 300.994V308.537C301.341 309.654 300.412 310.679 299.204 310.679C298.089 310.679 297.066 309.748 297.066 308.537V300.994C297.066 299.783 298.089 298.852 299.204 298.852Z" fill="white"/>
<path fill-rule="evenodd" clip-rule="evenodd" d="M297.069 280.968H306.641C307.384 280.968 307.942 280.409 307.942 279.664C307.942 278.919 307.384 278.36 306.641 278.36H293.817C291.959 278.36 290.379 276.777 290.379 274.915C290.379 273.052 291.959 271.469 293.817 271.469H327.177C329.036 271.469 330.615 273.052 330.615 274.915C330.615 276.777 329.036 278.36 327.177 278.36H315.562C314.818 278.36 314.261 278.919 314.261 279.664C314.261 280.409 314.818 280.968 315.562 280.968H320.022C321.509 280.968 322.717 282.179 322.717 283.669C322.717 285.159 321.509 286.369 320.022 286.369H312.588C309.707 286.369 307.291 288.791 307.291 291.678V294.099C307.291 294.751 306.734 295.31 306.083 295.31C305.433 295.31 304.875 294.751 304.875 294.099V289.443C304.875 287.766 303.481 286.369 301.809 286.369H297.162C295.676 286.369 294.468 285.159 294.468 283.669C294.375 282.179 295.583 280.968 297.069 280.968Z" fill="white"/>
</svg>
