<svg width="463" height="312" viewBox="0 0 463 312" fill="none" xmlns="http://www.w3.org/2000/svg">
<g clip-path="url(#clip0)">
<path opacity="0.24" d="M125.623 15.0243C121.384 14.154 117.098 13.5295 112.787 13.1538C91.9362 11.4981 71.1477 17.0444 53.8757 28.8711C24.9469 48.7884 12.413 85.4189 5.1657 118.395C-3.01454 155.415 -2.15073 195.137 12.7326 230.399C33.0839 278.625 82.9342 315.715 135.022 311.705C157.697 309.973 179.283 300.976 201.889 298.413C227.855 295.468 253.942 301.08 280.02 302.742C319.345 305.223 358.72 298.746 395.191 283.795C416.666 274.971 437.734 262.518 450.285 242.947C469.055 213.652 464.736 174.873 452.349 142.322C445.776 125.002 437.198 108.497 429.027 91.8703C420.855 75.2437 415.448 57.4394 407.846 40.7782C395.114 12.8767 360 -3.59407 330.51 0.640521C304.518 4.36419 282.197 21.3718 256.62 27.3124C244.474 30.1268 231.889 30.3779 219.424 30.0835C198.278 29.5899 177.098 27.5635 156.513 22.6881C146.191 20.272 135.998 17.0939 125.623 15.0243Z" fill="#FBD46D"/>
<path opacity="0.24" d="M272.6 263.203C267.858 263.445 262.692 263.861 259.254 267.134C300.681 271.613 342.499 271.011 383.78 265.342C381.189 260.518 374.65 259.817 369.165 259.695C353.616 259.349 335.381 254.976 320.057 257.513C304.207 260.146 288.684 263.203 272.6 263.203Z" fill="#FBD46D"/>
<path opacity="0.24" d="M75.8508 263.341C73.2594 263.402 69.64 264.597 70.1756 267.169C70.547 268.901 72.6893 269.559 74.4946 269.836C117.866 276.694 162.283 275.967 205.715 269.446C205.171 266.71 194.667 267.827 190.167 267.074C184.639 266.147 179.11 265.177 173.616 264.043C164.291 262.086 154.761 261.278 145.24 261.635L75.8508 263.341Z" fill="#FBD46D"/>
<path d="M302.349 45.2556H136.792C124.684 45.2556 114.869 55.0956 114.869 67.2338V160.135C114.869 172.273 124.684 182.113 136.792 182.113H302.349C314.457 182.113 324.273 172.273 324.273 160.135V67.2338C324.273 55.0956 314.457 45.2556 302.349 45.2556Z" fill="#FBD46D"/>
<path d="M301.192 45.2556H135.635C123.527 45.2556 113.711 55.0956 113.711 67.2338V160.135C113.711 172.273 123.527 182.113 135.635 182.113H301.192C313.3 182.113 323.115 172.273 323.115 160.135V67.2338C323.115 55.0956 313.3 45.2556 301.192 45.2556Z" fill="url(#paint0_linear)"/>
<path opacity="0.24" d="M206.527 137.282C206.541 141.983 205.179 146.584 202.61 150.516C200.04 154.448 196.377 157.538 192.073 159.403C187.769 161.268 183.014 161.827 178.396 161.009C173.779 160.191 169.502 158.033 166.096 154.802C162.69 151.571 160.305 147.41 159.235 142.833C158.166 138.256 158.459 133.466 160.079 129.054C161.699 124.643 164.574 120.805 168.348 118.016C172.123 115.227 176.63 113.61 181.313 113.364C181.74 113.314 182.17 113.294 182.6 113.303C188.944 113.303 195.029 115.829 199.516 120.326C204.003 124.823 206.525 130.922 206.527 137.282Z" fill="#FBD46D"/>
<path opacity="0.45" d="M204.843 72.6894C204.653 73.3476 201.586 74.1703 200.8 74.6725C199.447 75.6287 198.256 76.7985 197.276 78.1364C195.402 80.6131 193.924 83.3842 191.713 85.5664C191.063 86.1147 190.499 86.7568 190.037 87.4715C189.441 88.502 189.441 89.749 189.087 90.8748C188.717 92.0093 188.018 93.0074 187.08 93.7417C186.141 94.4759 185.005 94.9129 183.818 94.9968C184.771 95.8314 185.433 96.9496 185.708 98.1881C185.982 99.4267 185.854 100.721 185.343 101.881C184.832 103.042 183.964 104.008 182.866 104.639C181.768 105.27 180.497 105.533 179.24 105.388C180.516 107.837 181.224 110.542 181.313 113.303C177.887 113.479 174.539 114.391 171.497 115.98C168.455 117.568 165.79 119.795 163.683 122.509C162.932 122.339 162.224 122.014 161.605 121.555C160.987 121.096 160.47 120.512 160.089 119.841C158.18 121.573 155.122 120.465 153.118 118.88C145.871 113.243 143.832 101.925 148.67 94.1049C151.045 90.208 156.142 87.1771 160.029 89.5152C161.048 87.8699 163.346 87.3763 165.212 87.8699C167.069 88.5192 168.764 89.5652 170.178 90.9354C169.816 88.0604 172.252 85.2893 175.085 84.7264C176.531 84.5392 178.001 84.7195 179.359 85.2506C180.718 85.7817 181.921 86.6467 182.859 87.766C182.064 86.8394 197.76 73.287 199.41 72.1785C200.334 71.5983 205.931 68.9571 204.843 72.6894Z" fill="#FBD46D"/>
<path opacity="0.24" d="M201.275 108.601C195.289 116.326 187.722 124.44 177.953 124.613C176.165 124.613 174.299 124.405 172.64 125.098C169.453 126.431 168.529 130.432 168.028 133.87C166.775 142.53 165.531 151.319 167.164 159.849C168.434 166.5 171.422 172.977 170.792 179.715C170.671 180.953 170.334 182.312 169.271 182.971C168.43 183.351 167.492 183.463 166.585 183.291L151.624 181.975C150.376 181.987 149.151 181.635 148.1 180.962C147.259 180.159 146.66 179.136 146.372 178.009C140.325 160.767 141.776 141.932 143.279 123.73C143.608 119.72 143.953 115.642 145.422 111.892C146.89 108.142 149.646 104.713 153.446 103.423C162.085 100.487 170.438 109.415 179.568 109.77C189.07 110.134 195.713 101.751 202.511 96.4083C204.782 94.6158 210.363 89.2381 210.864 94.737C211.226 98.3914 203.452 105.839 201.275 108.601Z" fill="#FBD46D"/>
<path opacity="0.24" d="M211.08 160.429C224.299 160.429 235.016 149.686 235.016 136.433C235.016 123.181 224.299 112.437 211.08 112.437C197.86 112.437 187.144 123.181 187.144 136.433C187.144 149.686 197.86 160.429 211.08 160.429Z" fill="#FBD46D"/>
<path d="M113.668 116.551C112.744 118.88 111.802 121.348 112.234 123.816C112.585 125.367 113.227 126.837 114.126 128.146C116.732 132.425 119.706 136.467 123.015 140.226C123.872 141.398 125.061 142.285 126.427 142.772C127.696 133.593 128 124.305 127.334 115.061C127.341 114.228 127.148 113.405 126.772 112.663C126.135 111.823 125.268 111.188 124.276 110.835C121.987 109.762 119.706 108.506 117.365 107.64C116.674 108.506 114.377 116.551 113.668 116.551Z" fill="#C8A59C"/>
<path d="M208.402 89.1775L198.848 87.6101C198.848 87.6101 197.863 85.5751 199.366 84.8823L214.483 87.4802L208.402 89.1775Z" fill="#606161"/>
<path d="M179.231 106.419C180.676 106.629 182.143 106.65 183.593 106.48C184.155 106.254 200.498 93.2476 206.761 90.0262C209.656 88.2282 212.986 87.2552 216.392 87.2118C217.964 87.1078 219.847 87.1598 220.711 88.502C220.962 88.9728 221.076 89.5047 221.041 90.0373C221.006 90.5699 220.823 91.082 220.512 91.5156C219.883 92.3748 219.044 93.0576 218.076 93.4987C216.079 94.5404 213.888 95.1566 211.641 95.3086C211.055 95.3041 210.472 95.3918 209.913 95.5684C209.193 95.9268 208.572 96.4595 208.108 97.1184C203.472 102.62 198.621 107.923 193.553 113.026C190.849 115.745 187.791 118.551 183.982 118.984C182.612 119.103 181.231 119.012 179.888 118.716C177.263 118.205 174.722 117.331 172.338 116.118C171.819 115.893 171.361 115.549 170.999 115.113C170.619 114.5 170.447 113.78 170.507 113.061C170.559 110.67 171.421 108.367 172.951 106.532C174.955 104.141 176.666 105.856 179.231 106.419Z" fill="#C8A59C"/>
<path d="M156.435 74.2742C156.594 76.2621 156.519 78.2618 156.211 80.232C155.822 82.2411 154.699 84.3714 152.755 84.8909C151.598 85.194 150.242 84.8909 149.3 85.679C148.592 86.2592 148.393 87.2377 147.918 88.0258C147.457 88.6826 146.843 89.2169 146.13 89.5821C145.416 89.9472 144.625 90.1324 143.824 90.1214C142.222 90.0805 140.639 89.7672 139.142 89.1948C138.75 89.103 138.386 88.919 138.079 88.6579C137.683 88.1456 137.492 87.5031 137.544 86.8567C137.365 81.9207 137.296 76.9789 137.337 72.0313C137.256 70.6033 137.48 69.1744 137.993 67.84C138.898 66.2638 140.285 65.0219 141.949 64.2982C144.301 63.0822 146.833 62.2519 149.447 61.8388C151.857 61.4491 155.865 61.6743 156.306 64.7918C156.327 65.9313 156.275 67.0709 156.15 68.2037C156.193 70.2041 156.358 72.2305 156.435 74.2742Z" fill="#C8A59C"/>
<path d="M157.895 58.297C158.278 58.8781 158.521 59.5403 158.605 60.2316C158.689 60.9229 158.612 61.6243 158.379 62.2805C157.892 63.5951 157.056 64.7511 155.96 65.6231C155.31 66.0942 154.729 66.6538 154.233 67.2858C153.187 68.8532 153.688 70.9488 153.369 72.8193C153.369 72.9665 153.282 73.1484 153.127 73.1744C152.971 73.2004 152.859 73.0705 152.755 72.9492C152.466 72.6135 152.077 72.3796 151.645 72.2817C151.213 72.1838 150.761 72.227 150.356 72.4051C149.95 72.5833 149.612 72.8869 149.391 73.2715C149.17 73.6561 149.078 74.1016 149.127 74.5426C149.248 75.6684 150.259 76.595 150.216 77.7294C150.126 78.3724 149.85 78.9747 149.421 79.4613C149.108 79.9693 148.647 80.3683 148.1 80.6044C147.65 80.704 147.184 80.704 146.735 80.6044L137.406 79.5219C136.88 79.4821 136.361 79.3804 135.859 79.2188C135.201 78.9359 134.616 78.5067 134.147 77.9636C133.679 77.4205 133.34 76.7778 133.156 76.084C132.802 74.6929 132.651 73.2579 132.706 71.8235C132.706 69.2256 132.586 66.4891 131.523 64.0817C131.328 63.7396 131.232 63.3497 131.247 62.9559C131.313 62.6934 131.441 62.4502 131.618 62.2459C133.095 60.3321 135.341 59.0158 136.352 56.8249C136.51 56.4132 136.71 56.0186 136.948 55.6472C137.725 54.6167 139.237 54.5994 140.524 54.6686L146.286 54.989C147.607 55.0583 148.635 54.5647 149.896 54.4781C150.832 54.4789 151.756 54.6797 152.609 55.067C154.336 55.829 156.772 56.747 157.895 58.297Z" fill="#606161"/>
<path d="M157.895 58.297C158.278 58.8781 158.521 59.5403 158.605 60.2316C158.689 60.9229 158.612 61.6243 158.379 62.2805C157.892 63.5951 157.056 64.7511 155.96 65.6231C155.31 66.0942 154.729 66.6538 154.233 67.2858C153.187 68.8532 153.688 70.9488 153.369 72.8193C153.369 72.9665 153.282 73.1484 153.127 73.1744C152.971 73.2004 152.859 73.0705 152.755 72.9492C152.466 72.6135 152.077 72.3796 151.645 72.2817C151.213 72.1838 150.761 72.227 150.356 72.4051C149.95 72.5833 149.612 72.8869 149.391 73.2715C149.17 73.6561 149.078 74.1016 149.127 74.5426C149.248 75.6684 150.259 76.595 150.216 77.7294C150.126 78.3724 149.85 78.9747 149.421 79.4613C149.108 79.9693 148.647 80.3683 148.1 80.6044C147.65 80.704 147.184 80.704 146.735 80.6044L137.406 79.5219C136.88 79.4821 136.361 79.3804 135.859 79.2188C135.201 78.9359 134.616 78.5067 134.147 77.9636C133.679 77.4205 133.34 76.7778 133.156 76.084C132.802 74.6929 132.651 73.2579 132.706 71.8235C132.706 69.2256 132.586 66.4891 131.523 64.0817C131.328 63.7396 131.232 63.3497 131.247 62.9559C131.313 62.6934 131.441 62.4502 131.618 62.2459C133.095 60.3321 135.341 59.0158 136.352 56.8249C136.51 56.4132 136.71 56.0186 136.948 55.6472C137.725 54.6167 139.237 54.5994 140.524 54.6686L146.286 54.989C147.607 55.0583 148.635 54.5647 149.896 54.4781C150.832 54.4789 151.756 54.6797 152.609 55.067C154.336 55.829 156.772 56.747 157.895 58.297Z" fill="url(#paint1_linear)"/>
<path d="M136.965 87.6101C140.42 88.2163 144.048 88.0604 147.59 88.1989C152.963 88.3981 158.482 89.3507 162.992 92.2777C164.821 93.5415 166.54 94.958 168.131 96.5122L175.905 103.708C176.215 103.917 176.454 104.215 176.589 104.563C176.725 104.912 176.752 105.293 176.666 105.657C176.252 109.473 174.427 112.995 171.552 115.529C171.383 115.71 171.163 115.834 170.921 115.884C170.683 115.886 170.448 115.827 170.239 115.711L161.601 111.693C161.303 113.397 161.303 115.141 161.601 116.845C163.821 129.341 161.601 142.357 160.512 155C160.507 155.576 160.374 156.144 160.124 156.662C159.764 157.195 159.269 157.623 158.69 157.901C153.827 160.629 147.979 160.741 142.407 160.707C137.224 160.707 131.739 160.447 127.575 157.416C127.077 157.086 126.655 156.652 126.34 156.143C126.03 155.432 125.894 154.657 125.943 153.883L125.459 120.933C125.497 120.151 125.389 119.37 125.14 118.629C124.371 116.707 117.218 113.71 115.983 107.83C116.856 101.673 132.015 88.5193 136.965 87.6101Z" fill="#FBD46D"/>
<path d="M136.965 87.6101C140.42 88.2163 144.048 88.0604 147.59 88.1989C152.963 88.3981 158.482 89.3507 162.992 92.2777C164.821 93.5415 166.54 94.958 168.131 96.5122L175.905 103.708C176.215 103.917 176.454 104.215 176.589 104.563C176.725 104.912 176.752 105.293 176.666 105.657C176.252 109.473 174.427 112.995 171.552 115.529C171.383 115.71 171.163 115.834 170.921 115.884C170.683 115.886 170.448 115.827 170.239 115.711L161.601 111.693C161.303 113.397 161.303 115.141 161.601 116.845C163.821 129.341 161.601 142.357 160.512 155C160.507 155.576 160.374 156.144 160.124 156.662C159.764 157.195 159.269 157.623 158.69 157.901C153.827 160.629 147.979 160.741 142.407 160.707C137.224 160.707 131.739 160.447 127.575 157.416C127.077 157.086 126.655 156.652 126.34 156.143C126.03 155.432 125.894 154.657 125.943 153.883L125.459 120.933C125.497 120.151 125.389 119.37 125.14 118.629C124.371 116.707 117.218 113.71 115.983 107.83C116.856 101.673 132.015 88.5193 136.965 87.6101Z" fill="url(#paint2_linear)"/>
<path d="M160.098 156.628C160.098 156.628 167.224 194.73 167.224 199.831C167.224 204.932 157.964 253.937 157.964 253.937C157.964 253.937 149.853 254.404 147.771 251.616L151.71 204.724L145.128 184.581L141.733 210.976L120.19 252.776L109.548 246.29L130.443 201.26C130.443 201.26 119.965 179.065 126.358 156.143L160.098 156.628Z" fill="#606161"/>
<path d="M160.098 156.628C160.098 156.628 167.224 194.73 167.224 199.831C167.224 204.932 157.964 253.937 157.964 253.937C157.964 253.937 149.853 254.404 147.771 251.616L151.71 204.724L145.128 184.581L141.733 210.976L120.19 252.776L109.548 246.29L130.443 201.26C130.443 201.26 119.965 179.065 126.358 156.143L160.098 156.628Z" fill="url(#paint3_linear)"/>
<path d="M147.909 267.186C147.899 267.313 147.919 267.441 147.97 267.558C148.066 267.705 148.214 267.81 148.385 267.853C149.931 268.346 151.548 268.577 153.17 268.537C158.405 268.676 163.645 268.794 168.891 268.892C168.891 266.381 166.732 264.346 164.408 263.41C162.085 262.475 159.536 262.319 157.118 261.679C156.622 261.597 156.171 261.346 155.839 260.968C155.639 260.6 155.543 260.184 155.563 259.765L155.373 254.803C155.398 254.503 155.363 254.201 155.27 253.916C155.176 253.63 155.026 253.366 154.829 253.14C154.6 252.974 154.342 252.853 154.068 252.785C153.11 252.499 150.656 251.469 149.749 252.084C148.842 252.698 148.842 255.218 148.704 256.258C148.197 259.879 147.932 263.53 147.909 267.186Z" fill="#606161"/>
<path d="M105.859 257.444C105.774 257.549 105.711 257.671 105.674 257.802C105.637 257.932 105.627 258.069 105.645 258.204C105.663 258.338 105.708 258.468 105.777 258.585C105.847 258.701 105.939 258.802 106.049 258.881L113.642 267.541C113.839 267.802 114.086 268.019 114.368 268.182C114.702 268.321 115.06 268.389 115.422 268.381C118.566 268.511 121.728 268.502 124.872 268.381C124.669 267.348 124.236 266.375 123.607 265.532C122.977 264.69 122.167 264 121.235 263.514C120.052 262.908 118.644 262.648 117.642 261.782C116.753 260.956 116.059 259.941 115.612 258.812C115.207 258.243 115.001 257.555 115.028 256.856C115.054 256.157 115.311 255.487 115.759 254.95L117.322 252.352C117.549 252.073 117.707 251.744 117.782 251.391C117.857 251.039 117.848 250.674 117.754 250.326C117.529 249.946 117.195 249.645 116.795 249.46C115.707 248.819 114.204 247.511 112.96 247.277C111.716 247.044 111.232 248.213 110.593 249.261C109.064 251.919 107.121 254.612 105.859 257.444Z" fill="#606161"/>
<path opacity="0.24" d="M303.196 74.8977H245.511C244.361 74.8977 243.429 75.8321 243.429 76.9847V76.9933C243.429 78.1459 244.361 79.0803 245.511 79.0803H303.196C304.346 79.0803 305.278 78.1459 305.278 76.9933V76.9847C305.278 75.8321 304.346 74.8977 303.196 74.8977Z" fill="#FBD46D"/>
<path opacity="0.24" d="M302.505 82.0939H244.82C243.67 82.0939 242.738 83.0282 242.738 84.1809V84.1895C242.738 85.3421 243.67 86.2765 244.82 86.2765H302.505C303.655 86.2765 304.587 85.3421 304.587 84.1895V84.1809C304.587 83.0282 303.655 82.0939 302.505 82.0939Z" fill="#FBD46D"/>
<path opacity="0.24" d="M301.805 89.2987H244.12C242.97 89.2987 242.038 90.2331 242.038 91.3857V91.3944C242.038 92.547 242.97 93.4814 244.12 93.4814H301.805C302.955 93.4814 303.887 92.547 303.887 91.3944V91.3857C303.887 90.2331 302.955 89.2987 301.805 89.2987Z" fill="#FBD46D"/>
<path opacity="0.24" d="M301.114 96.4949H243.429C242.279 96.4949 241.347 97.4293 241.347 98.5819V98.5906C241.347 99.7432 242.279 100.678 243.429 100.678H301.114C302.264 100.678 303.196 99.7432 303.196 98.5906V98.5819C303.196 97.4293 302.264 96.4949 301.114 96.4949Z" fill="#FBD46D"/>
<path opacity="0.24" d="M304.587 108.108H240.423V164.768H304.587V108.108Z" fill="#FBD46D"/>
<path opacity="0.24" d="M246.755 127.306L259.721 148.973L280.728 122.656L289.686 135.351L302.349 114.611V161.668H242.738V136.286L246.755 127.306Z" fill="#FBD46D"/>
<path opacity="0.24" d="M307.074 116.863C304.112 114.057 299.551 113.442 295.612 114.472C291.673 115.503 288.252 117.98 285.246 120.725C283.386 122.282 281.836 124.177 280.676 126.31C279.268 129.168 279.104 132.476 279.087 135.663C279.061 142.714 279.639 149.754 280.815 156.706C280.871 157.368 281.094 158.006 281.463 158.559C282.568 159.936 284.728 159.295 286.481 159.486C288.606 159.719 290.342 161.356 291.422 163.209C292.373 165.127 293.204 167.102 293.91 169.124C295.502 172.839 298.044 176.068 301.278 178.485C303.611 180.217 307.04 181.455 309.286 179.593C310.044 178.865 310.634 177.978 311.013 176.995C321.725 153.571 312.914 125.375 320.628 100.79C321.111 99.2487 324.636 92.0265 322.355 90.9441C320.628 90.1647 317.993 94.6418 317.25 95.6463C314.968 98.6191 312.945 101.783 311.203 105.103C310.495 106.41 305.891 115.745 307.074 116.863Z" fill="#FBD46D"/>
<path d="M230.152 61.8995C228.477 64.6706 224.59 67.9613 219.588 70.6111C211.857 74.6985 204.385 75.6944 202.873 72.8193C202.687 72.3904 202.599 71.9251 202.615 71.4576C202.632 70.9901 202.753 70.5322 202.968 70.1175C203.66 68.3856 205.404 66.3246 207.909 64.3069C209.844 62.7536 211.927 61.396 214.129 60.2541C218.932 57.7082 223.631 56.3573 226.861 56.3919L230.152 61.8995Z" fill="url(#paint4_linear)"/>
<path opacity="0.24" d="M207.909 64.3069C205.404 66.3246 203.66 68.3683 202.969 70.1175C201.129 67.9353 196.058 66.2899 196.058 66.2899C200.239 63.2504 206.329 64.0471 207.909 64.3069Z" fill="#FBD46D"/>
<path opacity="0.24" d="M205.888 82.6221C205.888 82.6221 212.66 79.1582 213.887 73.0532C213.887 73.0532 208.134 75.3566 205.404 74.3002C205.404 74.3002 207.218 76.9067 205.888 82.6221Z" fill="#FBD46D"/>
<path opacity="0.24" d="M230.187 61.8388L226.896 56.3313C226.896 56.3313 232.295 55.4653 233.02 56.4352C233.746 57.4051 230.55 61.4059 230.187 61.8388Z" fill="#FBD46D"/>
<path opacity="0.24" d="M213.205 69.4074C214.55 69.4074 215.641 68.3141 215.641 66.9654C215.641 65.6167 214.55 64.5233 213.205 64.5233C211.859 64.5233 210.769 65.6167 210.769 66.9654C210.769 68.3141 211.859 69.4074 213.205 69.4074Z" fill="#FBD46D"/>
<path opacity="0.24" d="M218.275 66.0128C219.334 66.0128 220.193 65.1521 220.193 64.0904C220.193 63.0286 219.334 62.1679 218.275 62.1679C217.216 62.1679 216.357 63.0286 216.357 64.0904C216.357 65.1521 217.216 66.0128 218.275 66.0128Z" fill="#FBD46D"/>
<path opacity="0.24" d="M223.087 63.5708C224.146 63.5708 225.004 62.7101 225.004 61.6483C225.004 60.5866 224.146 59.7259 223.087 59.7259C222.027 59.7259 221.169 60.5866 221.169 61.6483C221.169 62.7101 222.027 63.5708 223.087 63.5708Z" fill="#FBD46D"/>
<path d="M125.114 118.594V103.301C125.114 103.301 117.961 106.713 116.726 109.805C116.726 109.805 123.455 117.78 125.114 118.594Z" fill="url(#paint5_linear)"/>
<path d="M310.607 206.083C310.248 207.479 310.296 208.949 310.746 210.318C313.207 221.16 315.514 232.14 315.566 243.225C315.566 246.264 315.401 249.382 314.201 252.17C313.066 254.614 311.37 256.754 309.251 258.414C308.465 259.072 307.524 259.938 307.8 260.925C307.933 261.327 308.191 261.675 308.534 261.921C309.206 262.45 310.014 262.774 310.864 262.855C311.714 262.937 312.569 262.772 313.328 262.38C314.163 261.864 314.907 261.215 315.531 260.457L321.319 254.145C321.634 253.837 321.888 253.472 322.07 253.071C322.254 252.231 322.154 251.353 321.785 250.577C319.427 243.147 322.571 235.197 322.968 227.412C323.331 220.164 321.284 213.037 319.263 206.066C319.089 205.293 318.77 204.561 318.321 203.91C317.897 203.44 317.372 203.074 316.785 202.839C316.198 202.605 315.565 202.509 314.935 202.559C313.677 202.667 312.444 202.974 311.281 203.468" fill="url(#paint6_linear)"/>
<path d="M322.502 207.573C323.567 215.927 324.561 224.298 325.482 232.686C326.441 241.467 327.313 250.499 325.033 259.037C324.566 260.769 324.014 262.865 325.111 264.32C325.662 264.945 326.42 265.35 327.245 265.46C328.071 265.569 328.908 265.377 329.602 264.917C330.281 264.438 330.853 263.823 331.281 263.11C331.709 262.397 331.985 261.603 332.09 260.778C332.276 259.129 332.276 257.465 332.09 255.816C331.52 245.225 333.93 234.721 334.578 224.139C334.918 220.154 334.732 216.142 334.025 212.206C333.213 208.222 331.235 202.49 327.512 200.281C322.727 197.415 322.122 204.559 322.502 207.573Z" fill="url(#paint7_linear)"/>
<path d="M305.131 262.302C304.868 262.538 304.666 262.836 304.543 263.168C304.499 263.475 304.554 263.787 304.7 264.06C304.846 264.333 305.076 264.551 305.355 264.684C305.92 264.932 306.537 265.036 307.152 264.987C309.506 265.051 311.817 264.353 313.743 262.995C316.274 261.029 317.457 257.6 320.213 255.98C320.3 255.917 320.4 255.875 320.507 255.859C321.267 255.764 320.999 257.245 321.647 257.635C322.295 258.024 322.822 257.141 322.943 256.465C323.167 255.255 323.167 254.013 322.943 252.802C322.856 252.395 322.692 251.936 322.286 251.815C321.88 251.694 321.37 252.239 321.12 252.681C320.384 254.152 319.302 255.421 317.967 256.379C315.505 257.964 313.035 257.141 310.409 257.73C308.128 258.293 306.66 260.674 305.131 262.302Z" fill="#FBD46D"/>
<path d="M324.022 265.047C323.958 266.063 324.051 267.082 324.299 268.069C324.428 268.563 324.669 269.019 325.003 269.404C325.337 269.788 325.755 270.09 326.225 270.286C326.816 270.426 327.432 270.421 328.02 270.27C328.608 270.119 329.151 269.828 329.602 269.42C331.206 268.106 332.337 266.303 332.824 264.285C333.301 262.275 333.429 260.199 333.205 258.145C333.135 257.323 332.937 256.361 332.194 256.006C332.008 257.017 331.534 257.952 330.828 258.697C330.123 259.443 329.217 259.967 328.22 260.206C327.584 260.375 326.907 260.302 326.321 259.999C325.736 259.697 325.283 259.188 325.05 258.57C323.867 260.146 324.057 263.081 324.022 265.047Z" fill="#FBD46D"/>
<path d="M306.141 169.41C305.847 174.738 305.936 180.08 306.409 185.395L307.273 198.463L308.197 212.717C308.161 214.044 308.49 215.356 309.148 216.51C310.011 217.722 311.497 217.956 312.827 218.094C320.554 218.91 328.32 219.295 336.09 219.246C337.109 219.246 338.266 219.168 338.949 218.268C339.395 217.524 339.637 216.676 339.649 215.808C340.098 211.253 340.184 206.646 340.642 202.091C341.376 194.644 343.095 187.37 343.812 179.957C344.529 172.544 344.175 164.577 341.039 157.996C340.728 157.204 340.23 156.5 339.588 155.944C338.904 155.511 338.116 155.272 337.308 155.251C330.053 154.465 322.757 154.133 315.462 154.255C314.192 154.255 311.601 153.77 310.486 154.506C309.51 155.147 308.759 157.771 308.318 158.94C307.128 162.316 306.396 165.838 306.141 169.41Z" fill="#606161"/>
<path d="M308.474 84.7437C307.385 87.9911 306.703 91.5416 307.705 94.815C307.757 95.0503 307.874 95.2662 308.042 95.4385C308.193 95.556 308.366 95.6414 308.552 95.6896L309.89 96.1312C310.464 96.3801 311.092 96.4756 311.713 96.4083C312.024 96.3678 312.308 96.2137 312.512 95.9755C312.716 95.7373 312.826 95.4319 312.819 95.118L313.346 97.0059L320.524 96.3564C320.76 96.3541 320.99 96.2851 321.189 96.1572C321.299 96.0426 321.385 95.9068 321.442 95.7579C321.498 95.6091 321.524 95.4503 321.517 95.2912C321.958 90.8835 321.854 86.441 321.906 82.0073C321.906 79.6085 321.992 77.1145 321.042 74.915C320.092 72.7154 317.777 70.9055 315.419 71.3559C313.061 71.8062 311.877 73.6593 311.514 75.8329C310.979 78.9071 309.467 81.8081 308.474 84.7437Z" fill="#606161"/>
<path d="M308.474 84.7437C307.385 87.9911 306.703 91.5416 307.705 94.815C307.757 95.0503 307.874 95.2662 308.042 95.4385C308.193 95.556 308.366 95.6414 308.552 95.6896L309.89 96.1312C310.464 96.3801 311.092 96.4756 311.713 96.4083C312.024 96.3678 312.308 96.2137 312.512 95.9755C312.716 95.7373 312.826 95.4319 312.819 95.118L313.346 97.0059L320.524 96.3564C320.76 96.3541 320.99 96.2851 321.189 96.1572C321.299 96.0426 321.385 95.9068 321.442 95.7579C321.498 95.6091 321.524 95.4503 321.517 95.2912C321.958 90.8835 321.854 86.441 321.906 82.0073C321.906 79.6085 321.992 77.1145 321.042 74.915C320.092 72.7154 317.777 70.9055 315.419 71.3559C313.061 71.8062 311.877 73.6593 311.514 75.8329C310.979 78.9071 309.467 81.8081 308.474 84.7437Z" fill="url(#paint8_linear)"/>
<path d="M343.803 106.185C345.401 109.51 345.609 113.312 345.782 117.001C346.144 124.396 348.528 132.45 345.436 139.179C341.229 148.366 349.833 153.251 343.605 160.629C342.68 161.72 310.21 163.971 307.584 158.247C306.608 156.134 309.234 148.644 309.035 146.323C307.981 134.104 306.979 121.452 311.022 109.883C311.82 107.25 313.195 104.83 315.047 102.799C324.135 93.7671 338.059 94.0962 343.803 106.185Z" fill="#FBD46D"/>
<path d="M343.803 106.185C345.401 109.51 345.609 113.312 345.782 117.001C346.144 124.396 348.528 132.45 345.436 139.179C341.229 148.366 349.833 153.251 343.605 160.629C342.68 161.72 310.21 163.971 307.584 158.247C306.608 156.134 309.234 148.644 309.035 146.323C307.981 134.104 306.979 121.452 311.022 109.883C311.82 107.25 313.195 104.83 315.047 102.799C324.135 93.7671 338.059 94.0962 343.803 106.185Z" fill="url(#paint9_linear)"/>
<path d="M312.335 84.8303C312.041 86.666 312.041 88.5369 312.335 90.3725C312.485 91.2895 312.831 92.1632 313.348 92.9343C313.865 93.7053 314.542 94.3556 315.332 94.8409C316.391 95.2984 317.494 95.6437 318.623 95.8714C318.947 95.9305 319.246 96.0807 319.487 96.3044C319.652 96.498 319.765 96.7304 319.816 96.9799C320.013 98.1962 320.059 99.4324 319.954 100.66C319.908 101.276 320.008 101.895 320.245 102.465C320.482 103.035 320.85 103.541 321.319 103.942C321.726 104.185 322.183 104.329 322.656 104.364C323.128 104.399 323.602 104.322 324.04 104.141C324.915 103.774 325.699 103.218 326.337 102.513C326.771 102.087 327.157 101.614 327.486 101.102C328.327 99.4853 328.69 97.6616 328.531 95.8455C328.531 93.4381 328.289 91.0307 328.272 88.6233C328.272 84.3627 330.302 81.8254 330.164 77.5735C330.164 76.8288 328.6 74.3435 328.272 73.6767C327.95 73.1193 327.539 72.619 327.054 72.1959C326.586 71.6969 326.037 71.2811 325.43 70.9662C324.503 70.64 323.504 70.58 322.545 70.793C320.49 71.1051 318.48 71.6663 316.559 72.4643C315.81 72.7401 315.121 73.1575 314.529 73.694C314.258 73.9717 314.051 74.3056 313.923 74.6722C313.794 75.0387 313.748 75.429 313.786 75.8156C313.705 76.7886 313.543 77.7532 313.302 78.6993C312.905 80.7372 312.583 82.7809 312.335 84.8303Z" fill="url(#paint10_linear)"/>
<path d="M312.318 65.3027C310.145 67.4104 308.776 70.2134 308.448 73.2263C308.309 74.1871 308.353 75.1656 308.577 76.11C308.739 76.8196 309.139 77.4521 309.709 77.9026C310.365 78.3157 311.141 78.4956 311.912 78.4135C312.746 78.4154 313.561 78.1582 314.244 77.6774C314.584 77.4356 314.847 77.0997 315.001 76.7107C315.154 76.3217 315.191 75.8963 315.108 75.4865L315.332 77.6514C315.331 77.8003 315.376 77.9459 315.462 78.0671C315.547 78.1357 315.646 78.1852 315.752 78.2121C315.858 78.239 315.968 78.2427 316.075 78.223L320.818 77.9632C321.098 78.0092 321.384 77.9447 321.618 77.7833C321.851 77.6218 322.014 77.3759 322.07 77.0972L322.934 74.8111C322.908 75.7134 323.152 76.6029 323.634 77.3657C323.984 77.7799 324.47 78.056 325.005 78.1448C325.539 78.2336 326.088 78.1293 326.553 77.8506C326.51 83.9124 326.424 90.1907 323.824 95.6549C324.264 96.202 324.829 96.6353 325.47 96.9186C326.112 97.2018 326.812 97.3268 327.512 97.283C328.516 97.3391 329.516 97.111 330.397 96.6248C330.833 96.3786 331.197 96.0217 331.451 95.59C331.706 95.1583 331.843 94.667 331.848 94.1655L331.745 95.6809C331.718 95.8255 331.749 95.9746 331.831 96.0966C331.895 96.1443 331.967 96.1782 332.045 96.1961C332.122 96.214 332.202 96.2155 332.28 96.2005L337.118 95.8541C337.394 95.8818 337.671 95.8098 337.899 95.6511C338.127 95.4924 338.291 95.2573 338.361 94.9881C339.722 92.4715 340.839 89.8297 341.696 87.0992C342.94 82.7 342.827 78.0325 342.404 73.4861C342.327 72.1631 342.077 70.8558 341.661 69.5979C340.27 65.9002 336.323 63.744 332.453 63.0252C328.583 62.3065 324.731 62.8434 320.869 62.497C319.326 62.3083 317.76 62.4618 316.282 62.9467C314.805 63.4315 313.451 64.2358 312.318 65.3027Z" fill="#606161"/>
<path d="M312.318 65.3027C310.145 67.4104 308.776 70.2134 308.448 73.2263C308.309 74.1871 308.353 75.1656 308.577 76.11C308.739 76.8196 309.139 77.4521 309.709 77.9026C310.365 78.3157 311.141 78.4956 311.912 78.4135C312.746 78.4154 313.561 78.1582 314.244 77.6774C314.584 77.4356 314.847 77.0997 315.001 76.7107C315.154 76.3217 315.191 75.8963 315.108 75.4865L315.332 77.6514C315.331 77.8003 315.376 77.9459 315.462 78.0671C315.547 78.1357 315.646 78.1852 315.752 78.2121C315.858 78.239 315.968 78.2427 316.075 78.223L320.818 77.9632C321.098 78.0092 321.384 77.9447 321.618 77.7833C321.851 77.6218 322.014 77.3759 322.07 77.0972L322.934 74.8111C322.908 75.7134 323.152 76.6029 323.634 77.3657C323.984 77.7799 324.47 78.056 325.005 78.1448C325.539 78.2336 326.088 78.1293 326.553 77.8506C326.51 83.9124 326.424 90.1907 323.824 95.6549C324.264 96.202 324.829 96.6353 325.47 96.9186C326.112 97.2018 326.812 97.3268 327.512 97.283C328.516 97.3391 329.516 97.111 330.397 96.6248C330.833 96.3786 331.197 96.0217 331.451 95.59C331.706 95.1583 331.843 94.667 331.848 94.1655L331.745 95.6809C331.718 95.8255 331.749 95.9746 331.831 96.0966C331.895 96.1443 331.967 96.1782 332.045 96.1961C332.122 96.214 332.202 96.2155 332.28 96.2005L337.118 95.8541C337.394 95.8818 337.671 95.8098 337.899 95.6511C338.127 95.4924 338.291 95.2573 338.361 94.9881C339.722 92.4715 340.839 89.8297 341.696 87.0992C342.94 82.7 342.827 78.0325 342.404 73.4861C342.327 72.1631 342.077 70.8558 341.661 69.5979C340.27 65.9002 336.323 63.744 332.453 63.0252C328.583 62.3065 324.731 62.8434 320.869 62.497C319.326 62.3083 317.76 62.4618 316.282 62.9467C314.805 63.4315 313.451 64.2358 312.318 65.3027Z" fill="url(#paint11_linear)"/>
<path d="M313.855 150.627L283.838 154.905L274.25 113L304.267 108.722L313.855 150.627Z" fill="white"/>
<path d="M351.578 139.43C351.578 140.755 351.578 142.209 350.714 143.24C349.85 144.27 348.304 144.626 346.913 144.781C336.834 145.903 326.657 143.851 317.794 138.91C317.091 138.58 316.479 138.08 316.015 137.455C315.635 136.739 315.447 135.937 315.471 135.126C315.4 133.48 315.437 131.831 315.583 130.19C315.566 129.827 315.627 129.466 315.763 129.129C315.898 128.793 316.105 128.49 316.369 128.241C316.864 127.971 317.436 127.873 317.993 127.964L331.606 128.64C332.061 128.721 332.53 128.628 332.919 128.38C333.228 128.074 333.409 127.663 333.429 127.228C334.163 122.829 333.429 118.309 333.861 113.866C334.198 110.645 335.692 105.207 339.389 104.341C343.708 103.327 345.099 108.774 346.205 111.797C349.466 120.658 351.281 129.989 351.578 139.43Z" fill="#FBD46D"/>
<path d="M309.908 126.942C309.355 126.671 308.776 126.456 308.18 126.302C307.636 126.204 307.083 126.157 306.53 126.163C305.347 126.163 304.172 126.163 302.997 126.163C301.953 126.146 300.909 126.248 299.888 126.466C299.588 126.516 299.315 126.666 299.11 126.89C298.972 127.101 298.9 127.348 298.903 127.601C298.857 128.475 299.056 129.344 299.48 130.11C299.903 130.875 300.532 131.506 301.296 131.93C301.648 132.067 301.949 132.309 302.159 132.623C302.254 132.814 302.254 133.047 302.341 133.247C302.534 133.578 302.841 133.828 303.205 133.948C305.066 134.795 307.065 135.299 309.104 135.438C309.386 135.432 309.665 135.485 309.925 135.593C310.108 135.704 310.284 135.825 310.452 135.957C310.832 136.17 311.253 136.298 311.687 136.332C312.121 136.366 312.557 136.306 312.966 136.156C313.778 135.854 314.613 135.613 315.462 135.438C316.17 135.351 317.034 135.377 317.388 134.771C317.557 134.401 317.59 133.985 317.483 133.593C317.415 132.59 317.268 131.594 317.043 130.614C316.818 129.895 316.231 129.748 315.566 129.48L312.706 128.189C311.929 127.834 310.556 127.523 309.908 126.942Z" fill="url(#paint12_linear)"/>
<path d="M71.8168 211.651C72.5531 203.711 71.6323 195.704 69.1131 188.14C67.6533 183.811 65.6579 179.602 64.3708 175.151C63.0838 170.7 62.4877 165.954 63.8785 161.573C65.2692 157.191 66.2712 153.458 68.5603 149.492C71.0826 145.162 73.6481 140.72 77.2674 137.239C73.7538 142.533 71.3284 148.476 70.133 154.721C68.9375 160.966 68.9961 167.387 70.3052 173.609C71.0394 176.987 72.1364 180.277 72.9743 183.637C74.9179 191.431 75.4621 199.511 75.5658 207.547C75.5658 209.088 75.5657 210.751 74.6328 211.998C73.6999 213.245 72.7411 212.924 71.8168 211.651Z" fill="#FBD46D"/>
<path d="M63.5761 141.335C63.5761 141.335 77.6648 154.264 76.8874 172.163C76.1099 190.063 74.0627 211.132 74.581 211.998C75.0993 212.864 83.435 212.916 83.435 212.916C82.5548 199.477 82.3559 186.003 82.839 172.544C83.6164 150.09 63.5761 141.335 63.5761 141.335Z" fill="#FBD46D"/>
<path d="M63.5761 141.335C63.5761 141.335 77.6648 154.264 76.8874 172.163C76.1099 190.063 74.0627 211.132 74.581 211.998C75.0993 212.864 83.435 212.916 83.435 212.916C82.5548 199.477 82.3559 186.003 82.839 172.544C83.6164 150.09 63.5761 141.335 63.5761 141.335Z" fill="url(#paint13_linear)"/>
<path d="M106.3 142.868C106.3 142.868 89.6285 155.857 85.7932 177.203C81.9579 198.549 79.9798 213.002 79.9798 213.002L89.4817 212.604C89.4817 212.604 89.6112 178.13 97.0227 162.482C104.434 146.834 106.3 142.868 106.3 142.868Z" fill="#FBD46D"/>
<path d="M106.3 142.868C106.3 142.868 89.6285 155.857 85.7932 177.203C81.9579 198.549 79.9798 213.002 79.9798 213.002L89.4817 212.604C89.4817 212.604 89.6112 178.13 97.0227 162.482C104.434 146.834 106.3 142.868 106.3 142.868Z" fill="url(#paint14_linear)"/>
<path d="M87.9095 130.25C87.9095 130.25 93.9562 152.662 90.1641 163.798C86.372 174.934 84.9812 213.314 84.9812 213.314L79.9539 212.985C79.9539 212.985 80.4117 172.345 82.1998 166.379C83.9879 160.412 89.4298 145.647 87.9095 130.25Z" fill="#FBD46D"/>
<path d="M87.9095 130.25C87.9095 130.25 93.9562 152.662 90.1641 163.798C86.372 174.934 84.9812 213.314 84.9812 213.314L79.9539 212.985C79.9539 212.985 80.4117 172.345 82.1998 166.379C83.9879 160.412 89.4298 145.647 87.9095 130.25Z" fill="url(#paint15_linear)"/>
<path d="M47.4402 162.352C47.4402 162.352 71.6268 158.507 77.8635 174.813C84.1002 191.119 77.8635 212.838 77.8635 212.838L74.5637 212.015C74.5637 212.015 77.6648 177.532 59.0152 167.989L47.4402 162.352Z" fill="#FBD46D"/>
<path d="M47.4402 162.352C47.4402 162.352 71.6268 158.507 77.8635 174.813C84.1002 191.119 77.8635 212.838 77.8635 212.838L74.5637 212.015C74.5637 212.015 77.6648 177.532 59.0152 167.989L47.4402 162.352Z" fill="url(#paint16_linear)"/>
<path d="M71.8168 211.651C72.5531 203.711 71.6323 195.704 69.1131 188.14C67.6533 183.811 65.6579 179.602 64.3708 175.151C63.0838 170.7 62.4877 165.954 63.8785 161.573C65.2692 157.191 66.2712 153.458 68.5603 149.492C71.0826 145.162 73.6481 140.72 77.2674 137.239C73.7538 142.533 71.3284 148.476 70.133 154.721C68.9375 160.966 68.9961 167.387 70.3052 173.609C71.0394 176.987 72.1364 180.277 72.9743 183.637C74.9179 191.431 75.4621 199.511 75.5658 207.547C75.5658 209.088 75.5657 210.751 74.6328 211.998C73.6999 213.245 72.7411 212.924 71.8168 211.651Z" fill="url(#paint17_linear)"/>
<path d="M65.822 210.214H97.5669L91.2179 259.54H71.6441L65.822 210.214Z" fill="#FBD46D"/>
<path d="M65.822 210.214H97.5669L91.2179 259.54H71.6441L65.822 210.214Z" fill="url(#paint18_linear)"/>
</g>
<defs>
<linearGradient id="paint0_linear" x1="199.081" y1="-93.3947" x2="222.676" y2="158.011" gradientUnits="userSpaceOnUse">
<stop stop-color="white" stop-opacity="0"/>
<stop offset="0.95" stop-color="white"/>
</linearGradient>
<linearGradient id="paint1_linear" x1="131.229" y1="67.6149" x2="158.629" y2="67.6149" gradientUnits="userSpaceOnUse">
<stop stop-color="#010101" stop-opacity="0"/>
<stop offset="0.95" stop-color="#010101"/>
</linearGradient>
<linearGradient id="paint2_linear" x1="11364.8" y1="15210" x2="3276.77" y2="20124" gradientUnits="userSpaceOnUse">
<stop stop-color="#010101" stop-opacity="0"/>
<stop offset="0.95" stop-color="#010101"/>
</linearGradient>
<linearGradient id="paint3_linear" x1="10099.1" y1="34365" x2="10099.1" y2="19464.5" gradientUnits="userSpaceOnUse">
<stop stop-color="#010101" stop-opacity="0"/>
<stop offset="0.95" stop-color="#010101"/>
</linearGradient>
<linearGradient id="paint4_linear" x1="7388.61" y1="2163.94" x2="7423.3" y2="2728.23" gradientUnits="userSpaceOnUse">
<stop stop-color="white" stop-opacity="0"/>
<stop offset="0.95" stop-color="white"/>
</linearGradient>
<linearGradient id="paint5_linear" x1="1400.11" y1="2989.71" x2="1395.09" y2="3823.46" gradientUnits="userSpaceOnUse">
<stop stop-color="#010101" stop-opacity="0"/>
<stop offset="0.95" stop-color="#010101"/>
</linearGradient>
<linearGradient id="paint6_linear" x1="307.791" y1="232.729" x2="323.046" y2="232.729" gradientUnits="userSpaceOnUse">
<stop stop-color="#E4C5D5"/>
<stop offset="0.42" stop-color="#E9D3CF"/>
<stop offset="1" stop-color="#EFE8CA"/>
</linearGradient>
<linearGradient id="paint7_linear" x1="5086.41" y1="22273.8" x2="5262.67" y2="22273.8" gradientUnits="userSpaceOnUse">
<stop stop-color="#E4C5D5"/>
<stop offset="0.42" stop-color="#E9D3CF"/>
<stop offset="1" stop-color="#EFE8CA"/>
</linearGradient>
<linearGradient id="paint8_linear" x1="5676.53" y1="4283.07" x2="5926.57" y2="4283.07" gradientUnits="userSpaceOnUse">
<stop stop-color="#010101" stop-opacity="0"/>
<stop offset="0.95" stop-color="#010101"/>
</linearGradient>
<linearGradient id="paint9_linear" x1="16083.1" y1="13491.2" x2="12071.5" y2="21450" gradientUnits="userSpaceOnUse">
<stop stop-color="#010101" stop-opacity="0"/>
<stop offset="0.95" stop-color="#010101"/>
</linearGradient>
<linearGradient id="paint10_linear" x1="7070.26" y1="5721.5" x2="7446.91" y2="5721.5" gradientUnits="userSpaceOnUse">
<stop stop-color="#E4C5D5"/>
<stop offset="0.42" stop-color="#E9D3CF"/>
<stop offset="1" stop-color="#EFE8CA"/>
</linearGradient>
<linearGradient id="paint11_linear" x1="320.04" y1="83.4015" x2="354.561" y2="62.5908" gradientUnits="userSpaceOnUse">
<stop stop-color="#010101" stop-opacity="0"/>
<stop offset="0.47" stop-color="#010101" stop-opacity="0.47"/>
<stop offset="0.95" stop-color="#010101"/>
</linearGradient>
<linearGradient id="paint12_linear" x1="6993.1" y1="2346.67" x2="7396.28" y2="2346.67" gradientUnits="userSpaceOnUse">
<stop stop-color="#E4C5D5"/>
<stop offset="0.42" stop-color="#E9D3CF"/>
<stop offset="1" stop-color="#EFE8CA"/>
</linearGradient>
<linearGradient id="paint13_linear" x1="2184.71" y1="18257.8" x2="1128.44" y2="18863.3" gradientUnits="userSpaceOnUse">
<stop stop-color="#010101" stop-opacity="0"/>
<stop offset="0.95" stop-color="#010101"/>
</linearGradient>
<linearGradient id="paint14_linear" x1="3345" y1="19252.5" x2="2098.91" y2="19384.5" gradientUnits="userSpaceOnUse">
<stop stop-color="#010101" stop-opacity="0"/>
<stop offset="0.95" stop-color="#010101"/>
</linearGradient>
<linearGradient id="paint15_linear" x1="1414.58" y1="20696" x2="-2350.52" y2="23370.5" gradientUnits="userSpaceOnUse">
<stop stop-color="#010101" stop-opacity="0"/>
<stop offset="0.95" stop-color="#010101"/>
</linearGradient>
<linearGradient id="paint16_linear" x1="3057.9" y1="14143" x2="4235.17" y2="16153.2" gradientUnits="userSpaceOnUse">
<stop stop-color="#010101" stop-opacity="0"/>
<stop offset="0.95" stop-color="#010101"/>
</linearGradient>
<linearGradient id="paint17_linear" x1="1466.76" y1="20475.3" x2="1024.99" y2="20505.5" gradientUnits="userSpaceOnUse">
<stop stop-color="#010101" stop-opacity="0"/>
<stop offset="0.95" stop-color="#010101"/>
</linearGradient>
<linearGradient id="paint18_linear" x1="3090.16" y1="11794.3" x2="1571.43" y2="22926" gradientUnits="userSpaceOnUse">
<stop stop-color="#010101" stop-opacity="0"/>
<stop offset="0.95" stop-color="#010101"/>
</linearGradient>
<clipPath id="clip0">
<rect width="463" height="312" fill="white"/>
</clipPath>
</defs>
</svg>
