<?xml version="1.0" encoding="UTF-8"?>
<svg width="888px" height="368px" viewBox="0 0 888 368" version="1.1" xmlns="http://www.w3.org/2000/svg" xmlns:xlink="http://www.w3.org/1999/xlink">
    <!-- Generator: Sketch 59.1 (86144) - https://sketch.com -->
    <title>Group 46</title>
    <desc>Created with Sketch.</desc>
    <g id="Key-Pages" stroke="none" stroke-width="1" fill="none" fill-rule="evenodd">
        <g id="Group-46">
            <g id="Group-45" transform="translate(0.000000, 4.000000)">
                <polyline id="Fill-5" fill="#40327A" points="544 90 541.829015 140.011095 541.829015 140.021606 540.880431 162 447 162 450.119569 90 544 90"></polyline>
                <polyline id="Fill-6" fill="#DDD6FF" points="540 156 539.726781 162 403 162 403 156 540 156"></polyline>
                <polyline id="Fill-7" fill="#7760DB" points="541 140 540.329607 156 448 156 451.177079 155.452716 541 140"></polyline>
                <polyline id="Fill-8" fill="#AB9AF7" points="442 230.784606 500.096096 231 501 206.611957 443.065103 202 442 230.784606"></polyline>
                <polyline id="Fill-9" fill="#FF95A9" points="492.458157 134 417 149.663387 418.119505 161.979285 422.081732 161.980321 427.934223 161.979285 495 162 492.458157 134"></polyline>
                <polyline id="Fill-10" fill="#FF95A9" points="419.101499 161.998916 418 149.104949 422.999039 148 423 162 419.101499 161.998916"></polyline>
                <path d="M439.18336,65 L407,65 L407,26.9545334 C407,15.3815329 415.691651,6 426.413618,6 C436.769875,6 446.185184,14.7752933 446.68573,25.9420398 L447.989477,55.0237449 C448.23296,60.4537259 444.219862,65 439.18336,65" id="Fill-11" fill="#FF95A9"></path>
                <path d="M447.989164,55.026709 C448.236549,60.4515511 444.21631,65 439.181311,65 L407,65 L407,26.9549052 C407,15.3827465 415.693378,6 426.414337,6 C431.590006,6 437.197385,8.19883581 440.680169,11.7860794 C444.171684,15.3733229 446.437919,20.3604919 446.684333,25.9361113 L447.989164,55.026709" id="Fill-12" fill="#FF95A9"></path>
                <path d="M415.263971,2 L418,2 L418,38 L397,38 L397,21.1258549 C397,10.5628105 405.176938,2 415.263971,2" id="Fill-14" fill="#7760DB"></path>
                <path d="M457,16.5 C457,22.8511221 452.25088,28 446.392857,28 C440.534835,28 435,22.8511221 435,16.5 C435,10.1488779 440.534835,5 446.392857,5 C452.25088,5 457,10.1488779 457,16.5" id="Fill-17" fill="#7760DB"></path>
                <polygon id="Fill-18" fill="#7760DB" points="413 26 442 26 442 14 413 14"></polygon>
                <polygon id="Fill-19" fill="#7760DB" points="413 41 435 41 435 25 413 25"></polygon>
                <path d="M421.950147,55 L409.147605,55 C402.438905,55 397,49.1574332 397,41.9495353 L397,35 L431,35 L431,45.2767421 C431,50.6466943 426.948192,55 421.950147,55" id="Fill-20" fill="#7760DB"></path>
                <path d="M418,95 L418,95 C411.37312,95 406,89.0991038 406,81.8212968 L406,55 L430,55 L430,81.8212968 C430,89.0991038 424.62784,95 418,95" id="Fill-21" fill="#FF95A9"></path>
                <path d="M436,47 L441,47 L441,36 L436,36 C433.238217,36 431,38.4620392 431,41.5 C431,44.5369521 433.238217,47 436,47" id="Fill-22" fill="#FF95A9"></path>
                <path d="M443,22 L430,22 L430,36 L436.023455,36 C439.876088,36 443,32.5026836 443,28.1895415 L443,22" id="Fill-23" fill="#7760DB"></path>
                <path d="M406,81.5 C406,88.95524 411.37312,95 418,95 C424.62784,95 430,88.95524 430,81.5 C430,74.04368 424.62784,68 418,68 C411.37312,68 406,74.04368 406,81.5" id="Fill-24" fill="#FF95A9"></path>
                <path d="M478,352.999467 C478,357.970022 481.581255,362 485.999526,362 C490.417797,362 494,357.970022 494,352.999467 C494,348.028912 490.417797,344 485.999526,344 C481.581255,344 478,348.028912 478,352.999467" id="Fill-25" fill="#2FC2A7"></path>
                <path d="M488,219 C488,225.627237 492.92482,231 499.000476,231 C505.07518,231 510,225.627237 510,219 C510,212.371725 505.07518,207 499.000476,207 C492.92482,207 488,212.371725 488,219" id="Fill-26" fill="#AB9AF7"></path>
                <polyline id="Fill-27" fill="#AB9AF7" points="478 351.612769 487.679664 218 510 219.900359 494.288938 353 478 351.612769"></polyline>
                <path d="M503.4801,364 L478,364 L478,354 L494.955611,354 L504.686841,359.286 C505.497024,359.726 506,360.571 506,361.49 C506,362.876 504.872571,364 503.4801,364" id="Fill-28" fill="#7760DB"></path>
                <path d="M430,352.999467 C430,357.970022 433.581255,362 438.000474,362 C442.418745,362 446,357.970022 446,352.999467 C446,348.028912 442.418745,344 438.000474,344 C433.581255,344 430,348.028912 430,352.999467" id="Fill-29" fill="#AB9AF7"></path>
                <path d="M440,219 C440,225.627237 444.925032,231 451,231 C457.074968,231 462,225.627237 462,219 C462,212.371725 457.074968,207 451,207 C444.925032,207 440,212.371725 440,219" id="Fill-30" fill="#AB9AF7"></path>
                <polyline id="Fill-31" fill="#AB9AF7" points="430 351.612769 439.679664 218 462 219.900359 446.28797 353 430 351.612769"></polyline>
                <path d="M454.479187,364 L429,364 L429,354 L445.956007,354 L455.685884,359.286 C456.496038,359.726 457,360.571 457,361.49 C457,362.876 455.871607,364 454.479187,364" id="Fill-32" fill="#7760DB"></path>
                <polyline id="Fill-71" fill="#DDD6FF" points="156 205 198.156192 364 203 364 168.530199 205 156 205"></polyline>
                <polyline id="Fill-72" fill="#DDD6FF" points="110 205 67.843808 364 63 364 97.4698006 205 110 205"></polyline>
                <path d="M205,182 C205,225.078135 172.541554,260 132.5,260 C92.4594257,260 60,225.078135 60,182 C60,138.921865 92.4594257,104 132.5,104 C172.541554,104 205,138.921865 205,182" id="Fill-73" fill="#854D94"></path>
                <path d="M133.058986,261 C110.152913,261 88.9906701,249.812852 75,230.307916 L76.5475757,229.029385 C90.1652654,248.015573 110.764132,258.904047 133.058986,258.904047 C162.296938,258.904047 188.254225,240.101255 199.189776,211 L201,211.783886 C189.765675,241.681604 163.097577,261 133.058986,261" id="Fill-74" fill="#40327A"></path>
                <path d="M69.3532253,221 C63.2347361,209.270091 60,195.88559 60,182.291924 C60,177.488406 60.4012591,172.679684 61.1904967,168 L63.0563988,168.378787 C62.2880304,172.934637 61.8972059,177.615362 61.8972059,182.291924 C61.8972059,195.523453 65.0446706,208.55102 71,219.966661 L69.3532253,221" id="Fill-75" fill="#40327A"></path>
                <path d="M169,202.562762 C169,207.671323 168.072847,212.536619 166.393308,217 L99.6066923,217 C97.9291278,212.536619 97,207.671323 97,202.562762 C97,181.261225 113.114098,164 133.000987,164 C152.876029,164 169,181.261225 169,202.562762" id="Fill-76" fill="#40327A"></path>
                <path d="M143,202.5 C143,208.29915 138.522,213 133,213 C127.477,213 123,208.29915 123,202.5 C123,196.70085 127.477,192 133,192 C138.522,192 143,196.70085 143,202.5" id="Fill-77" fill="#40327A"></path>
                <path d="M225.416298,147.573399 C228.917221,140.748598 226.419672,132.272751 219.838372,128.642297 C213.257073,125.011844 205.083635,127.6018 201.583702,134.426601 C198.082779,141.252428 200.580328,149.727249 207.161628,153.357703 C213.742927,156.988156 221.916365,154.3982 225.416298,147.573399" id="Fill-78" fill="#7760DB"></path>
                <polyline id="Fill-79" fill="#DDD6FF" points="150 121.748773 207.164822 154 222 130.299512 171.752006 87 150 121.748773"></polyline>
                <path d="M176.712865,112.860098 C171.656575,123.097716 159.850766,126.981964 150.344511,121.536669 C140.838257,116.091373 137.23052,103.378334 142.287785,93.1407157 C147.344075,82.9030976 159.148909,79.0177997 168.655164,84.4630956 C178.161419,89.9083914 181.769155,102.62248 176.712865,112.860098" id="Fill-80" fill="#DDD6FF"></path>
                <polyline id="Fill-81" fill="#DDD6FF" points="118 120.305824 65.1992218 160 48 137.966824 92.7816594 88 118 120.305824"></polyline>
                <path d="M90.4707027,114.955358 C96.6018961,124.488454 108.748269,126.865428 117.601404,120.262605 C126.453564,113.659781 128.660755,100.579072 122.529562,91.0449264 C116.398368,81.5107808 104.251995,79.1348561 95.3988602,85.7376798 C86.545725,92.3405035 84.3395093,105.421213 90.4707027,114.955358" id="Fill-82" fill="#DDD6FF"></path>
                <path d="M125,217 C125,224.731282 118.956154,231 111.5,231 C104.044835,231 98,224.731282 98,217 C98,209.267692 104.044835,203 111.5,203 C118.956154,203 125,209.267692 125,217" id="Fill-83" fill="#40327A"></path>
                <path d="M154.5,203 C161.956154,203 168,209.267692 168,217 C168,224.731282 161.956154,231 154.5,231 C147.044835,231 141,224.731282 141,217 C141,209.267692 147.044835,203 154.5,203" id="Fill-84" fill="#40327A"></path>
                <path d="M172.983199,97.5400612 L168.196627,203 L96.804352,203 L92.0168009,97.5400612 C91.6330136,89.0832882 97.8734738,82 105.706847,82 L159.293153,82 C167.126526,82 173.366986,89.0832882 172.983199,97.5400612" id="Fill-85" fill="#DDD6FF"></path>
                <path d="M169,203 L168.305869,217.686154 C167.953374,225.142564 162.031048,231 154.843884,231 L111.155129,231 C103.967965,231 98.0456391,225.142564 97.6931432,217.686154 L97.6615469,217 L97,203 L169,203" id="Fill-86" fill="#40327A"></path>
                <path d="M168,352.999467 C168,357.970022 164.417797,362 159.999526,362 C155.581255,362 152,357.970022 152,352.999467 C152,348.028912 155.581255,344 159.999526,344 C164.417797,344 168,348.028912 168,352.999467" id="Fill-87" fill="#40327A"></path>
                <path d="M168,219 C168,225.627237 163.07518,231 157.000476,231 C150.92482,231 146,225.627237 146,219 C146,212.371725 150.92482,207 157.000476,207 C163.07518,207 168,212.371725 168,219" id="Fill-88" fill="#40327A"></path>
                <polyline id="Fill-89" fill="#40327A" points="151.945355 353 146 219 168 219 167.999049 353 151.945355 353"></polyline>
                <path d="M177.480191,364 L152,364 L152,354 L168.956007,354 L178.686888,359.286 C179.496038,359.726 180,360.571 180,361.49 C180,362.876 178.871607,364 177.480191,364" id="Fill-90" fill="#FF95A9"></path>
                <path d="M214.682576,230.523492 C218.843807,232.189808 221.015873,237.335878 219.534661,242.017129 C218.053448,246.698379 213.479031,249.142949 209.3178,247.476633 C205.156568,245.809251 202.983554,240.66318 204.465715,235.98193 C205.946927,231.30068 210.521344,228.857176 214.682576,230.523492" id="Fill-91" fill="#40327A"></path>
                <path d="M96.68868,185.698039 C102.410169,187.919948 105.396906,194.781722 103.360105,201.023189 C101.323305,207.265692 95.0331852,210.523869 89.3116965,208.301961 C83.5902077,206.080052 80.6025199,199.218278 82.6402713,192.976811 C84.6770719,186.734308 90.9662403,183.476131 96.68868,185.698039" id="Fill-92" fill="#40327A"></path>
                <polyline id="Fill-93" fill="#40327A" points="209.459256 247 90 208.052571 97.5922185 185 215 230.178426 209.459256 247"></polyline>
                <path d="M215.53553,258.2703 L224,233.477667 L214.632706,230 L209,246.498699 L210.719144,257.804745 C210.862323,258.745187 211.486743,259.529062 212.347806,259.848418 C213.646361,260.330564 215.074175,259.624454 215.53553,258.2703" id="Fill-94" fill="#FF95A9"></path>
                <polyline id="Fill-95" fill="#FF95A9" points="147.464073 83 123 81.4774139 124.535927 53 149 54.523639 147.464073 83"></polyline>
                <path d="M146.979584,82.280874 C146.595608,89.7240448 140.921396,95.4079403 134.305483,94.9770312 C127.689569,94.5461222 122.637399,88.1624045 123.020416,80.7192337 C123.404392,73.2760629 129.078604,67.5910874 135.694517,68.0230764 C142.310431,68.4539854 147.362601,74.8377032 146.979584,82.280874" id="Fill-96" fill="#FF95A9"></path>
                <polyline id="Fill-97" fill="#40327A" points="101.137054 226 85 203.965831 100.973328 187 120 205.997214 101.137054 226"></polyline>
                <polyline id="Fill-98" fill="#DDD6FF" points="25 162 23.9909192 172.553207 4.85686252 364 0 364 14.3608835 162 25 162"></polyline>
                <polyline id="Fill-99" fill="#DDD6FF" points="581 166 581.969604 176.239746 600.336668 362 605 362 591.213159 166 581 166"></polyline>
                <polygon id="Fill-100" fill="#7760DB" points="5 172 882 172 882 163 5 163"></polygon>
                <path d="M70.7454521,150.691588 C69.3116512,158.277906 62.2198282,163.222917 54.9043757,161.736027 C47.5889233,160.249138 42.8214609,152.89473 44.2542724,145.308412 C45.6880733,137.722094 52.7798963,132.777083 60.0953487,134.263973 C67.4108012,135.750862 72.1792531,143.10527 70.7454521,150.691588" id="Fill-101" fill="#DDD6FF"></path>
                <polygon id="Fill-102" fill="#40327A" points="143 162 190 162 190 156 143 156"></polygon>
                <polyline id="Fill-103" fill="#C4B8FF" points="283 90 279.880431 162 186 162 189.119569 90 283 90"></polyline>
                <path d="M241.992285,126.5 C241.812483,130.642143 238.536098,134 234.674359,134 C230.81262,134 227.827914,130.642143 228.007715,126.5 C228.187517,122.357857 231.463902,119 235.325641,119 C239.18738,119 242.172086,122.357857 241.992285,126.5" id="Fill-104" fill="#FFFFFF"></path>
                <polyline id="Fill-105" fill="#DDD6FF" points="280 146 279.319545 162 186 162 280 146"></polyline>
                <path d="M161.302608,33.6937752 L157.867382,34 L156,8.34842775 L159.435225,8.04220293 C165.837408,7.4717019 171.446191,12.7519826 171.961854,19.8350046 C172.477517,26.9180267 167.704791,33.1232741 161.302608,33.6937752" id="Fill-110" fill="#40327A"></path>
                <path d="M134,60.1928201 L125.239324,60.9682806 C120.401079,61.3969645 116.162417,57.4303087 115.772688,52.1084587 L115,41.5530484 L132.521352,40 L134,60.1928201" id="Fill-111" fill="#40327A"></path>
                <path d="M159.116373,33.1642379 L149.482823,34 L147,0.785844724 L155.613976,0.0376688357 C161.494399,-0.472019393 166.645155,4.25024732 167.118214,10.5859991 L167.968348,21.9563732 C168.396353,27.6853533 164.43363,32.7030914 159.116373,33.1642379" id="Fill-112" fill="#40327A"></path>
                <path d="M157.93011,68.2684755 L126.879283,71 L124.063326,32.8018974 C123.207051,21.1828992 131.134593,11.0055975 141.769972,10.0690749 C152.04334,9.1652461 161.157311,17.2311532 162.48082,28.3987643 L165.926192,57.4836996 C166.570088,62.9140547 162.925851,67.8286895 157.93011,68.2684755" id="Fill-113" fill="#FF95A9"></path>
                <path d="M130.58323,7.23257504 L133.275249,7 L136,43.2179867 L115.335731,45 L114.059155,28.0230842 C113.259683,17.3968476 120.657279,8.08853614 130.58323,7.23257504" id="Fill-114" fill="#40327A"></path>
                <path d="M124.72083,46.9819241 L130,46.541186 L129.574636,41.0586863 C129.339618,38.0310071 126.786466,35.7748717 123.871074,36.0179332 C120.955683,36.2620033 118.783221,38.9145004 119.017268,41.9421796 C119.252286,44.9698588 121.80641,47.2259942 124.72083,46.9819241" id="Fill-115" fill="#FF95A9"></path>
                <path d="M165,21.2045466 L144.997846,22.9476619 C136.845194,23.6577034 129.679274,17.0596659 129.023069,8.23816003 C128.710959,4.04083908 131.602335,0.363725813 135.482381,0.0249615277 C139.361457,-0.312753952 142.759768,2.81583386 143.072847,7.01420362 C143.104833,7.45260446 143.460561,7.78088069 143.866691,7.74522129 L163.868845,6.00210599 L165,21.2045466" id="Fill-116" fill="#40327A"></path>
                <path d="M166.940768,64.9241267 C167.458039,69.3429642 164.527157,73.346832 160.502531,73.7049712 L146.524549,74.948808 C138.75674,75.6404242 131.951657,69.2432428 131.326661,60.6596966 L130,42.4685833 L135.272677,42 C135.532769,45.5771031 138.368543,48.242774 141.606101,47.9554048 L164.706698,45.8998573 L166.940768,64.9241267" id="Fill-118" fill="#40327A"></path>
                <path d="M156.676436,151.114226 C155.43577,146.610361 150.993964,144.02595 146.755104,145.34418 C142.515244,146.661348 140.083897,151.380847 141.323564,155.885774 C142.563231,160.389639 147.005036,162.97405 151.244896,161.65582 C155.484756,160.338652 157.916103,155.619153 156.676436,151.114226" id="Fill-119" fill="#FF95A9"></path>
                <path d="M140.756956,153.675503 C141.687735,157.120873 139.863168,160.729792 136.683921,161.737083 C133.504675,162.744375 130.172465,160.768784 129.242685,157.324497 C128.312905,153.879127 130.136473,150.270208 133.315719,149.262917 C136.495966,148.255625 139.827176,150.231216 140.756956,153.675503" id="Fill-120" fill="#FF95A9"></path>
                <polyline id="Fill-121" fill="#FF95A9" points="149 161.99286 134.720046 162 133 150.005355 146.707286 146 149 161.99286"></polyline>
                <polyline id="Fill-122" fill="#DDD6FF" points="60.5466637 134 136 149.677431 134.878569 161.993785 130.916441 161.993785 125.064097 161.991714 58 162 60.5466637 134"></polyline>
                <polyline id="Fill-123" fill="#FF95A9" points="133.897002 162 135 149.105035 130.002882 148 130 162 133.897002 162"></polyline>
                <polygon id="Fill-124" fill="#DDD6FF" points="88 147 99 147 99 135 88 135"></polygon>
                <polyline id="Fill-129" fill="#DDD6FF" points="427 205 469.156192 364 474 364 439.530199 205 427 205"></polyline>
                <polyline id="Fill-130" fill="#DDD6FF" points="382 205 339.843808 364 335 364 369.469801 205 382 205"></polyline>
                <path d="M384,202.562762 C384,207.671323 384.92814,212.536619 386.616566,217 L453.383434,217 C455.07186,212.536619 456,207.671323 456,202.562762 C456,181.261225 439.885902,164 420,164 C400.123971,164 384,181.261225 384,202.562762" id="Fill-131" fill="#AB9AF7"></path>
                <path d="M410,202.5 C410,208.29915 414.477,213 420,213 C425.523,213 430,208.29915 430,202.5 C430,196.70085 425.523,192 420,192 C414.477,192 410,196.70085 410,202.5" id="Fill-132" fill="#40327A"></path>
                <path d="M333.400226,155.96648 C329.157784,149.609836 330.687715,140.889719 336.817336,136.489123 C342.947947,132.089553 351.356631,133.676149 355.599073,140.032793 C359.842505,146.390463 358.312574,155.11058 352.181963,159.51015 C346.052342,163.910746 337.643657,162.32415 333.400226,155.96648" id="Fill-133" fill="#FF95A9"></path>
                <polyline id="Fill-134" fill="#FF95A9" points="405 120.317088 352.192381 160 335 137.959965 379.790909 88 405 120.317088"></polyline>
                <path d="M377.467907,114.950228 C383.596218,124.486475 395.742675,126.86555 404.596847,120.265874 C413.451019,113.666199 415.66115,100.585488 409.532838,91.0492405 C403.403552,81.5140432 391.25807,79.1339186 382.402923,85.7346437 C373.548751,92.3343188 371.338621,105.41503 377.467907,114.950228" id="Fill-135" fill="#FFC359"></path>
                <path d="M397.150562,162.13274 C396.301678,157.526651 399.128289,153.061846 403.463692,152.159962 C407.798095,151.258078 412.001516,154.261171 412.849399,158.86726 C413.698282,163.473349 410.872671,167.938154 406.537268,168.840038 C402.201866,169.741922 397.998445,166.738829 397.150562,162.13274" id="Fill-136" fill="#FF95A9"></path>
                <path d="M412.112968,156.74829 C412.749861,160.270581 415.901332,162.566785 419.152787,161.877924 C422.404242,161.18798 424.523886,157.774 423.886993,154.25171 C423.2511,150.729419 420.098628,148.433215 416.848173,149.122076 C413.596719,149.81202 411.476074,153.226 412.112968,156.74829" id="Fill-137" fill="#FF95A9"></path>
                <polyline id="Fill-138" fill="#FF95A9" points="409.026472 168 421 161.079456 417.230146 149 404 151.894418 409.026472 168"></polyline>
                <path d="M482.254192,150.689606 C483.686001,158.276123 490.77776,163.22229 498.093147,161.736387 C505.408533,160.251511 510.177932,152.89691 508.746123,145.310394 C507.313324,137.723877 500.221565,132.77771 492.906178,134.263613 C485.590792,135.748489 480.821393,143.10309 482.254192,150.689606" id="Fill-139" fill="#FF95A9"></path>
                <polyline id="Fill-140" fill="#FF95A9" points="436 120.271463 488.780749 160 506 137.990254 461.248761 88 436 120.271463"></polyline>
                <polyline id="Fill-141" fill="#0099E8" points="436 120.144719 479.539807 153 498 129.334371 461.08935 88 436 120.144719"></polyline>
                <polyline id="Fill-142" fill="#0099E8" points="405 120.185381 361.433932 153 343 129.304025 379.947686 88 405 120.185381"></polyline>
                <path d="M462.519809,114.969045 C456.381786,124.497962 444.233453,126.863393 435.385184,120.252155 C426.537891,113.641967 424.341422,100.559129 430.479445,91.0302111 C436.618443,81.5023433 448.766776,79.1369124 457.615045,85.7471003 C466.462338,92.3583381 468.658807,105.441177 462.519809,114.969045" id="Fill-143" fill="#0099E8"></path>
                <path d="M441.5,231 C448.956154,231 455,224.731282 455,217 C455,209.267692 448.956154,203 441.5,203 C434.043846,203 428,209.267692 428,217 C428,224.731282 434.043846,231 441.5,231" id="Fill-144" fill="#AB9AF7"></path>
                <path d="M385,217 C385,224.731282 391.044835,231 398.5,231 C405.956154,231 412,224.731282 412,217 C412,209.267692 405.956154,203 398.5,203 C391.044835,203 385,209.267692 385,217" id="Fill-145" fill="#AB9AF7"></path>
                <path d="M380.016801,97.5400612 L384.803373,203 L456.195648,203 L460.983199,97.5400612 C461.366986,89.0832882 455.126526,82 447.293153,82 L393.706847,82 C385.873474,82 379.633014,89.0832882 380.016801,97.5400612" id="Fill-146" fill="#0099E8"></path>
                <path d="M384,203 L384.694131,217.686154 C385.046626,225.142564 390.968952,231 398.156116,231 L441.844871,231 C449.031048,231 454.954361,225.142564 455.305869,217.686154 L456,203 L384,203" id="Fill-147" fill="#AB9AF7"></path>
                <path d="M568.000479,281.122924 C561.338196,281.122924 555.91748,287.123369 555.91748,294.499469 C555.91748,301.875569 561.338196,307.877076 568.000479,307.877076 C574.662763,307.877076 580.08252,301.875569 580.08252,294.499469 C580.08252,287.123369 574.662763,281.122924 568.000479,281.122924 Z M568.000479,310 C560.280705,310 554,303.046362 554,294.499469 C554,285.952577 560.280705,279 568.000479,279 C575.720253,279 582,285.952577 582,294.499469 C582,303.046362 575.720253,310 568.000479,310 L568.000479,310 Z" id="Fill-148" fill="#40327A"></path>
                <polygon id="Fill-149" fill="#1F5883" points="521 364 615 364 615 294 521 294"></polygon>
                <polygon id="Fill-150" fill="#40327A" points="606 364 615 364 615 294 606 294"></polygon>
                <polygon id="Fill-151" fill="#40327A" points="521 331 605 331 605 329 521 329"></polygon>
                <polygon id="Fill-152" fill="#FFFFFF" points="556 337 570 337 570 328 556 328"></polygon>
                <polyline id="Fill-154" fill="#FFFFFF" points="129.624317 150 80 139.140317 80.3756831 137 130 147.859683 129.624317 150"></polyline>
                <polyline id="Fill-155" fill="#7760DB" points="144.451122 227 111 215.987942 111.548878 214 145 225.012058 144.451122 227"></polyline>
                <path d="M161.980161,52 C162.224246,55.0331871 160.187776,57.7095286 157.431801,57.9781652 C154.675827,58.2468017 152.244085,56.0054909 152,52.9733062 L161.980161,52" id="Fill-177" fill="#FFFFFF"></path>
                <polyline id="Fill-179" fill="#FFFFFF" points="189.645347 127 188 126.902838 189.354653 90 191 90.0961175 189.645347 127"></polyline>
                <polygon id="Fill-180" fill="#FFFFFF" points="484 103 512 103 512 101 484 101"></polygon>
                <polygon id="Fill-181" fill="#FFFFFF" points="492 109 522 109 522 107 492 107"></polygon>
                <polygon id="Fill-182" fill="#FFFFFF" points="499 116 527 116 527 114 499 114"></polygon>
                <polygon id="Fill-183" fill="#FFFFFF" points="504 122 512 122 512 120 504 120"></polygon>
                <polygon id="Fill-184" fill="#FFFFFF" points="517 122 527 122 527 120 517 120"></polygon>
                <polygon id="Fill-185" fill="#FFFFFF" points="518 103 527 103 527 101 518 101"></polygon>
                <polyline id="Fill-186" fill="#F8F7FF" points="4 173.5 230 173.5 4 173.5"></polyline>
                <polygon id="Fill-187" fill="#40327A" points="4 174 230 174 230 172 4 172"></polygon>
                <polyline id="Fill-188" fill="#F8F7FF" points="247 173.5 262 173.5 247 173.5"></polyline>
                <polygon id="Fill-189" fill="#40327A" points="247 174 262 174 262 172 247 172"></polygon>
                <polyline id="Fill-190" fill="#F8F7FF" points="276 173.5 335 173.5 276 173.5"></polyline>
                <polygon id="Fill-191" fill="#40327A" points="276 174 335 174 335 172 276 172"></polygon>
                <polyline id="Fill-192" fill="#F8F7FF" points="511 173.5 448 173.5 511 173.5"></polyline>
                <polygon id="Fill-193" fill="#40327A" points="448 174 511 174 511 172 448 172"></polygon>
                <path d="M477,182 C477,225.078135 444.541554,260 404.5,260 C364.459426,260 332,225.078135 332,182 C332,138.921865 364.459426,104 404.5,104 C444.541554,104 477,138.921865 477,182" id="Fill-198" fill="#854D94"></path>
                <path d="M469.313554,219 L467.59693,218.005756 C473.126973,206.93574 476.050399,194.39588 476.050399,181.741583 C476.050399,139.4815 444.127637,105.099776 404.889972,105.099776 C397.96694,105.099776 391.125791,106.168561 384.556611,108.274636 L384,106.262001 C390.750493,104.098183 397.778803,103 404.889972,103 C445.203816,103 478,138.323474 478,181.741583 C478,194.742343 474.99664,207.625516 469.313554,219" id="Fill-199" fill="#FFFFFF"></path>
                <path d="M416.147059,132 L392.852941,132 C390.173147,132 388,129.762 388,127 C388,124.239 390.173147,122 392.852941,122 L416.147059,122 C418.827824,122 421,124.239 421,127 C421,129.762 418.827824,132 416.147059,132" id="Fill-200" fill="#0099E8"></path>
                <polyline id="Fill-33" fill="#DDD6FF" points="717.656 203.272 673.716 354.68 668.666 354.68 704.596 203.272 717.656 203.272"></polyline>
                <polyline id="Fill-34" fill="#DDD6FF" points="763.606 203.272 807.546 354.68 812.596 354.68 776.666 203.272 763.606 203.272"></polyline>
                <path d="M666.626,181.675 C666.626,222.544 699.756,255.675 740.626,255.675 C781.496,255.675 814.626,222.544 814.626,181.675 C814.626,140.806 781.496,107.675 740.626,107.675 C699.756,107.675 666.626,140.806 666.626,181.675" id="Fill-35" fill="#854D94"></path>
                <path d="M707.046,175.374 C707.046,188.215 717.456,198.625 730.296,198.625 C743.136,198.625 753.546,188.215 753.546,175.374 C753.546,162.533 743.136,152.123 730.296,152.123 C717.456,152.123 707.046,162.533 707.046,175.374" id="Fill-38" fill="#AB9AF7"></path>
                <path d="M703.656,102.052 C703.656,109.231 709.476,115.052 716.656,115.052 C723.836,115.052 729.656,109.231 729.656,102.052 C729.656,94.872 723.836,89.052 716.656,89.052 C709.476,89.052 703.656,94.872 703.656,102.052" id="Fill-40" fill="#AB9AF7"></path>
                <path d="M657.536,127.65 C659.336,132.545 664.776,135.049 669.666,133.243 C674.566,131.437 677.066,126.006 675.256,121.111 C673.456,116.216 668.026,113.712 663.126,115.518 C658.236,117.324 655.726,122.755 657.536,127.65" id="Fill-42" fill="#FF95A9"></path>
                <polyline id="Fill-43" fill="#FF95A9" points="710.606 90.543 662.006 116.018 669.666 133.243 721.156 114.248 710.606 90.543"></polyline>
                <polyline id="Fill-44" fill="#FF95A9" points="662.006 116.017 601.054 147.941 605.111 157.059 669.666 133.243 662.006 116.017"></polyline>
                <path d="M700.376,345.68 C700.376,349.27 697.466,352.18 693.876,352.18 C690.286,352.18 687.376,349.27 687.376,345.68 C687.376,342.09 690.286,339.18 693.876,339.18 C697.466,339.18 700.376,342.09 700.376,345.68" id="Fill-45" fill="#40327A"></path>
                <path d="M703.676,102.652 L707.046,175.374 L753.546,175.374 L772.766,99.004 C774.036,93.952 770.216,89.052 765.006,89.052 L716.666,89.052 C709.246,89.052 703.336,95.245 703.676,102.652" id="Fill-46" fill="#DDD6FF"></path>
                <path d="M728.856,97.552 C731.336,104.288 727.896,111.763 721.156,114.248 C714.416,116.733 706.946,113.287 704.456,106.551 C701.976,99.815 705.426,92.34 712.156,89.855 C718.896,87.37 726.366,90.816 728.856,97.552" id="Fill-47" fill="#DDD6FF"></path>
                <path d="M707.046,175.374 L753.546,175.374 L756.056,177.321 C764.496,183.881 769.436,193.973 769.436,204.664 L769.436,214.665 C769.436,222.397 763.166,228.665 755.436,228.665 L715.046,228.665 C707.316,228.665 701.046,222.397 701.046,214.665 L701.046,200.969 C701.046,192.09 703.096,183.33 707.046,175.374" id="Fill-48" fill="#40327A"></path>
                <path d="M728.816,106.653 L719.086,132.373 L718.876,132.293 C717.086,137.243 712.346,140.773 706.786,140.773 C699.676,140.773 693.926,135.013 693.926,127.913 C693.926,126.243 694.246,124.653 694.826,123.193 L694.756,123.173 L704.486,97.453 L728.816,106.653" id="Fill-49" fill="#DDD6FF"></path>
                <path d="M769.796,113.966 C763.216,116.838 755.556,113.832 752.686,107.251 C749.806,100.671 752.816,93.009 759.396,90.137 C765.976,87.265 773.636,90.271 776.516,96.852 C779.386,103.432 776.376,111.094 769.796,113.966" id="Fill-50" fill="#DDD6FF"></path>
                <path d="M773.926,154.993 C773.256,149.82 776.896,145.08 782.076,144.406 C787.246,143.731 791.986,147.379 792.656,152.552 C793.336,157.725 789.686,162.466 784.516,163.14 C779.336,163.814 774.596,160.167 773.926,154.993" id="Fill-51" fill="#FF95A9"></path>
                <polyline id="Fill-52" fill="#FF95A9" points="777.086 98.447 792.366 151.154 774.636 157.551 752.686 107.251 777.086 98.447"></polyline>
                <polyline id="Fill-53" fill="#DDD6FF" points="752.686 107.253 766.996 140.046 787.046 132.812 777.086 98.446 752.686 107.253"></polyline>
                <polyline id="Fill-54" fill="#DDD6FF" points="721.156 114.248 687.586 126.632 678.926 107.158 710.606 90.543 721.156 114.248"></polyline>
                <path d="M715.046,228.662 C707.316,228.662 701.046,222.394 701.046,214.662 C701.046,206.93 707.316,200.662 715.046,200.662 C722.776,200.662 729.046,206.93 729.046,214.662 C729.046,222.394 722.776,228.662 715.046,228.662" id="Fill-55" fill="#40327A"></path>
                <path d="M769.436,214.662 C769.436,222.394 763.166,228.662 755.436,228.662 C747.706,228.662 741.436,222.394 741.436,214.662 C741.436,206.93 747.706,200.662 755.436,200.662 C763.166,200.662 769.436,206.93 769.436,214.662" id="Fill-56" fill="#40327A"></path>
                <path d="M687.376,345.68 L700.376,345.68 L700.376,354.68 L682.166,354.68 C680.626,354.68 679.376,353.432 679.376,351.893 C679.376,350.896 679.906,349.974 680.776,349.477 L687.376,345.68" id="Fill-57" fill="#7760DB"></path>
                <path d="M680.376,217.352 C680.376,223.599 675.316,228.662 669.066,228.662 C662.816,228.662 657.756,223.599 657.756,217.352 C657.756,211.106 662.816,206.042 669.066,206.042 C675.316,206.042 680.376,211.106 680.376,217.352" id="Fill-58" fill="#40327A"></path>
                <polyline id="Fill-59" fill="#40327A" points="657.946 219.835 687.456 346.681 700.296 344.679 680.296 216.351 657.946 219.835"></polyline>
                <path d="M733.106,345.68 C733.106,349.27 730.196,352.18 726.606,352.18 C723.016,352.18 720.106,349.27 720.106,345.68 C720.106,342.09 723.016,339.18 726.606,339.18 C730.196,339.18 733.106,342.09 733.106,345.68" id="Fill-60" fill="#40327A"></path>
                <path d="M720.106,345.68 L733.106,345.68 L733.106,354.68 L714.886,354.68 C713.346,354.68 712.106,353.432 712.106,351.893 C712.106,350.896 712.636,349.974 713.496,349.477 L720.106,345.68" id="Fill-61" fill="#7760DB"></path>
                <path d="M713.096,217.352 C713.096,223.599 708.036,228.662 701.786,228.662 C695.546,228.662 690.476,223.599 690.476,217.352 C690.476,211.106 695.546,206.042 701.786,206.042 C708.036,206.042 713.096,211.106 713.096,217.352" id="Fill-62" fill="#40327A"></path>
                <polyline id="Fill-63" fill="#40327A" points="690.676 219.835 720.176 346.681 733.026 344.679 713.026 216.351 690.676 219.835"></polyline>
                <polygon id="Fill-64" fill="#FF95A9" points="722.346 89.052 744.346 89.052 744.346 61.962 722.346 61.962"></polygon>
                <path d="M744.346,89.052 C744.346,95.127 739.416,100.052 733.346,100.052 C727.266,100.052 722.346,95.127 722.346,89.052 C722.346,82.976 727.266,78.052 733.346,78.052 C739.416,78.052 744.346,82.976 744.346,89.052" id="Fill-65" fill="#FF95A9"></path>
                <path d="M737.476,59.071 C737.476,67.722 744.486,74.734 753.136,74.734 C761.786,74.734 768.796,67.722 768.796,59.071 C768.796,50.421 761.786,43.408 753.136,43.408 C744.486,43.408 737.476,50.421 737.476,59.071" id="Fill-66" fill="#40327A"></path>
                <path d="M694.236,38.556 C694.236,19.467 709.696,4 728.786,4 C747.876,4 763.346,19.467 763.346,38.556 C763.346,57.644 747.876,73.111 728.786,73.111 L711.166,55.496 C701.816,55.496 694.226,47.911 694.226,38.556 L694.236,38.556" id="Fill-67" fill="#40327A"></path>
                <path d="M745.346,55.611 L740.346,55.611 L740.346,45.611 L745.346,45.611 C748.106,45.611 750.346,47.85 750.346,50.611 C750.346,53.373 748.106,55.611 745.346,55.611" id="Fill-68" fill="#FF95A9"></path>
                <path d="M706.756,26.6 L744.346,26.6 L744.346,75.111 L721.006,75.111 C711.656,75.111 704.246,67.23 704.826,57.903 L706.756,26.6" id="Fill-69" fill="#FF95A9"></path>
                <path d="M744.346,45.611 L745.346,45.611 L745.346,16.727 L715.576,16.727 C707.716,16.727 701.336,23.099 701.336,30.96 L701.336,31.526 L702.346,31.526 C710.856,31.526 719.136,34.304 725.936,39.438 C731.236,43.444 737.696,45.611 744.346,45.611" id="Fill-70" fill="#40327A"></path>
                <polyline id="Fill-99" fill="#DDD6FF" points="861.796 163.269 862.846 173.269 882.736 354.68 887.786 354.68 872.856 163.269 861.796 163.269"></polyline>
                <polygon id="Fill-106" fill="#40327A" points="675.986 163.269 723.986 163.269 723.986 157.269 675.986 157.269"></polygon>
                <polyline id="Fill-107" fill="#C4B8FF" points="679.856 163.272 583.86 163.272 583.85 163.162 580.67 94.772 676.666 94.772 679.856 163.272"></polyline>
                <path d="M623.266,129.019 C623.456,132.885 626.736,136.019 630.596,136.019 C634.466,136.019 637.456,132.885 637.266,129.019 C637.086,125.153 633.806,122.019 629.946,122.019 C626.076,122.019 623.086,125.153 623.266,129.019" id="Fill-108" fill="#FFFFFF"></path>
                <polyline id="Fill-109" fill="#DDD6FF" points="679.856 163.272 583.16 163.272 583.85 163.162 679.156 148.312 679.856 163.272"></polyline>
                <polyline id="Fill-125" fill="#40327A" points="713.396 200.759 667.736 206.12 669.066 228.662 715.046 228.662 713.396 200.759"></polyline>
                <path d="M709.766,156.615 C708.856,159.224 710.236,162.073 712.846,162.978 C715.456,163.884 718.306,162.503 719.206,159.894 C720.116,157.285 718.736,154.437 716.126,153.531 C713.516,152.626 710.666,154.007 709.766,156.615" id="Fill-126" fill="#FF95A9"></path>
                <path d="M700.196,162.823 C700.946,163.084 701.716,163.202 702.466,163.205 L702.466,163.211 L714.466,163.256 L716.126,153.531 L704.786,149.597 C701.136,148.329 697.146,150.262 695.876,153.914 C694.616,157.567 696.546,161.555 700.196,162.823" id="Fill-127" fill="#FF95A9"></path>
                <polyline id="Fill-128" fill="#FF95A9" points="783.286 163.22 714.486 163.255 713.836 153.297 782.076 144.406 783.286 163.22"></polyline>
                <path d="M721.65603,59.673 C721.666,62.71 719.206,65.177 716.166,65.183011 C713.126,65.189 710.666,62.731 710.656,59.693 L721.65603,59.673" id="Fill-178" fill="#FFFFFF"></path>
                <polyline id="Fill-194" fill="#F8F7FF" points="646.186 173.269 831.856 173.269 646.186 173.269"></polyline>
                <polyline id="Fill-196" fill="#F8F7FF" points="840.026 173.269 881.866 173.269 840.026 173.269"></polyline>
                <polyline id="Fill-210" fill="#40327A" points="678.866 163.318 675.666 94.818 677.666 94.725 680.856 163.225 678.866 163.318"></polyline>
                <rect id="Rectangle" fill="#7760DB" x="632" y="163" width="246" height="9"></rect>
            </g>
            <path d="M451,12.2996809 L451,23.495752 C451,24.3619296 450.903054,25.2001326 450.709161,26 L431,26 L431,1 L440.427048,1 C446.269026,1 451,6.05615649 451,12.2996809" id="Fill-13" fill="#7760DB"></path>
            <path d="M449,24 L427.923119,24 C419.694046,24 413,16.7017544 413,7.72993089 C413,3.46092504 416.175381,0 420.090968,0 C424.006556,0 427.181936,3.46092504 427.181936,7.72993089 C427.181936,8.17650186 427.513518,8.53907496 427.923119,8.53907496 L449,8.53907496 L449,24" id="Fill-15" fill="#7760DB"></path>
            <path d="M441.941748,16 L431.059223,16 C427.161165,16 424,12.4186494 424,8 C424,3.58245083 427.161165,0 431.059223,0 L441.941748,0 C445.839806,0 449,3.58245083 449,8 C449,12.4186494 445.839806,16 441.941748,16" id="Fill-16" fill="#7760DB"></path>
            <path d="M157.530219,19.1142537 L147.597908,19.9752225 C143.726367,20.3104485 140.334658,17.2049228 140.023154,13.037501 C139.710684,8.87112018 142.59741,5.22111243 146.46895,4.88484531 L156.401262,4.02491765 C160.272802,3.68865053 163.664512,6.79521731 163.976983,10.9615981 C164.288486,15.1290199 161.40176,18.7790277 157.530219,19.1142537" id="Fill-117" fill="#40327A"></path>
        </g>
    </g>
</svg>