<?xml version="1.0" encoding="UTF-8"?>
<svg width="600px" height="500px" viewBox="0 0 600 500" version="1.1" xmlns="http://www.w3.org/2000/svg" xmlns:xlink="http://www.w3.org/1999/xlink">
    <title>2</title>
    <g id="2" stroke="none" stroke-width="1" fill="none" fill-rule="evenodd">
        <g transform="translate(12.000000, 28.000000)">
            <path d="M59.2745905,404.159079 C-51.1388687,323.821427 12.8539264,130.937265 88.2745905,77.1590785 C163.695255,23.3808923 442.274591,-35.8409215 530.274591,27.1590785 C618.274591,90.1590785 557.700287,360.678843 530.274591,404.159079 C484.274591,404.159079 173.274591,406.159079 59.2745905,404.159079 Z" id="Path-12" fill="#F7F8FC" fill-rule="nonzero"></path>
            <path d="M26.7745905,404.159079 L572.774591,404.159079 C573.603018,404.159079 574.274591,404.830652 574.274591,405.659079 C574.274591,406.487506 573.603018,407.159079 572.774591,407.159079 L26.7745905,407.159079 C25.9461634,407.159079 25.2745905,406.487506 25.2745905,405.659079 C25.2745905,404.830652 25.9461634,404.159079 26.7745905,404.159079 Z" id="Rectangle" fill="#CCCCE7" fill-rule="nonzero"></path>
            <g id="bench" transform="translate(56.274591, 289.159079)" fill-rule="nonzero">
                <rect id="Rectangle" fill="#CCCCE7" x="33" y="5" width="8" height="113"></rect>
                <rect id="Rectangle-Copy-5" fill="#CCCCE7" x="240" y="5" width="8" height="113"></rect>
                <rect id="Rectangle" fill="#D9DBF1" x="11" y="0" width="260" height="8"></rect>
                <rect id="Rectangle-Copy" fill="#D9DBF1" x="11" y="14" width="260" height="8"></rect>
                <rect id="Rectangle-Copy-2" fill="#D9DBF1" x="11" y="27" width="260" height="8"></rect>
                <rect id="Rectangle-Copy-3" fill="#D9DBF1" x="11" y="40" width="260" height="8"></rect>
                <rect id="Rectangle-Copy-4" fill="#D9DBF1" x="0" y="61" width="281" height="8"></rect>
            </g>
            <g id="guy" transform="translate(150.000000, 246.000000)" fill-rule="nonzero">
                <path d="M26.5231609,35.6085355 C45.5340256,26.3967824 70.5649975,32.7497156 75.9514091,39.4202954 C81.3378208,46.0908753 75.0008659,80.7143611 69.6144542,85.7967077 C64.2280426,90.8790542 43.3160914,94.3731675 34.1275068,85.7967077 C24.9389222,77.2202479 7.51229619,44.8202886 26.5231609,35.6085355 Z" id="torso" fill="#0088FF"></path>
                <g id="phone" transform="translate(62.000000, 43.000000)">
                    <path d="M6.22176495,0 L10.5728779,0 C11.6774474,0 12.5728779,0.8954305 12.5728779,2 C12.5728779,2.28720094 12.5110228,2.5710332 12.3915197,2.83219102 L8.28437688,11.8078008 C7.95879788,12.51931 7.24819723,12.9756098 6.46573505,12.9756098 L2.1146221,12.9756098 C1.0100526,12.9756098 0.1146221,12.0801793 0.1146221,10.9756098 C0.1146221,10.6884088 0.17647725,10.4045766 0.29598026,10.1434187 L4.40312312,1.16780898 C4.72870212,0.456299752 5.43930277,0 6.22176495,0 Z" id="Rectangle" fill="#2F3563"></path>
                    <path d="M6.53426495,1.02439024 L10.8853779,1.02439024 C11.9899474,1.02439024 12.8853779,1.91982074 12.8853779,3.02439024 C12.8853779,3.31159118 12.8235228,3.59542344 12.7040197,3.85658126 L8.59687688,12.832191 C8.27129788,13.5437002 7.56069723,14 6.77823505,14 L2.4271221,14 C1.3225526,14 0.4271221,13.1045695 0.4271221,12 C0.4271221,11.7127991 0.48897725,11.4289668 0.60848026,11.167809 L4.71562312,2.19219923 C5.04120212,1.48069 5.75180277,1.02439024 6.53426495,1.02439024 Z" id="Rectangle" fill="#171D47"></path>
                </g>
                <g id="r-arm" transform="translate(10.000000, 36.000000)">
                    <path d="M39.9367854,19.3100871 C43.6090054,15.4606599 45.9851478,13.4290178 47.0652125,13.2151608 C48.6853096,12.8943752 54.8416784,12.252804 53.2215814,14.1775176 C57.4338338,14.1775176 61.6460862,12.252804 63.5902026,13.2151608 C65.5343191,14.1775176 64.2837466,17.1194763 63.3116883,18.7234043 C62.3396301,20.3273322 60.8814343,21.2989811 55.7142857,22.9787234 C52.26952,24.0985516 47.658392,24.907315 41.8809018,25.4050135 L39.9367854,19.3100871 Z" id="r-hand" fill="#FFCACC"></path>
                    <path d="M15.9593486,0.48193654 C5.26670796,5.9352917 2.78824456,19.952305 1.37847498,26.4655699 C-0.0312946106,32.9788349 0.844155844,39.1489362 9.28571429,39.1489362 C17.7272727,39.1489362 26.6519893,-4.97141862 15.9593486,0.48193654 Z" id="ru-arm" fill="#0088FF"></path>
                    <path d="M4.94268854,39.1987942 C9.15494093,42.0858645 30.4340403,34.4427977 43.1769795,26.6881559 C42.9609666,24.5495852 41.9889083,21.5555863 40.2608048,17.7061591 C20.387614,20.0585868 8.61490858,22.304086 4.94268854,24.4426567 C-0.565641513,27.6505126 0.730436146,36.3117238 4.94268854,39.1987942 Z" id="Path-2" fill="#0088FF"></path>
                </g>
                <g id="legs" transform="translate(18.000000, 62.000000)">
                    <path d="M48.4955357,43.5728155 C56.7366071,42.6116505 69.6706795,21.7608175 70.6830357,15.0582524 C71.6953919,8.35568733 68.78125,0.640776699 60.5401786,2.88349515 C52.2991071,5.12621359 27.5758929,18.5825243 25.9910714,31.7184466 C24.40625,44.8543689 40.2544643,44.5339806 48.4955357,43.5728155 Z" id="Path-4" fill="#00006D"></path>
                    <path d="M10.1428571,20.8252427 C2.18374221,24.1279658 -2.21875,30.1165049 1.58482143,38.1262136 C5.38839286,46.1359223 20.4733868,47.431768 29.1607143,44.5339806 C37.8480417,41.6361932 35.8169643,30.4368932 31.6964286,25.631068 C27.5758929,20.8252427 18.1019721,17.5225196 10.1428571,20.8252427 Z" id="Path-5" fill="#000088"></path>
                    <path d="M2.4158453e-13,17.3009709 C20.2185902,12.3595446 33.7423998,8.94206889 40.5714286,7.04854369 C53.6726149,3.41590027 61.4566489,0 63.7098214,0 C69.7321429,0 73.8526786,14.4174757 67.1964286,19.5436893 C62.7589286,22.961165 41.4166667,25.5242718 3.16964286,27.2330097 L2.4158453e-13,17.3009709 Z" id="Path-6" fill="#000088"></path>
                    <path d="M13.9464286,28.5145631 C19.3348214,21.1456311 29.7946429,24.3495146 31.6964286,30.4368932 C32.9642857,34.4951456 31.8020833,57.3495146 28.2098214,99 L17.4330357,99 C11.516369,56.9223301 10.3541667,33.4271845 13.9464286,28.5145631 Z" id="Path-7" fill="#000088"></path>
                </g>
                <g id="l-shoe" transform="translate(0.000000, 79.000000)">
                    <path d="M3.49206349,3.59554467 C5.84310466,3.70093585 7.64204646,3.49328558 8.88888889,2.97259385 C13.2056363,1.16988436 16.1313436,-0.55508453 17.4603175,0.169315159 C20.3174603,1.72669221 19.6825397,6.08734795 19.6825397,8.26767581 C19.6825397,9.26018769 15.9295285,11.5536051 13.3333333,13.5627578 C10.226265,15.9672668 8.04542151,18.0143981 6.03174603,17.6119381 C3.56757494,17.1194405 2.72101409,12.4473094 3.49206349,3.59554467 Z" id="Path-3" fill="#1A1423"></path>
                    <path d="M0.317460317,3.90702008 C0.952380952,2.86876871 2.22222222,2.66111844 4.12698413,3.28406926 L7.93650794,17.6119381 C6.24338624,18.6501895 4.97354497,18.8578397 4.12698413,18.2348889 C2.85714286,17.3004627 1.60021119,13.780667 0.952380952,11.6939053 C-0.21425032,7.93600507 -0.0907700395,4.5745771 0.317460317,3.90702008 Z" id="Path-8" fill="#D8D8D8"></path>
                    <path d="M0,3.90702008 L3.17460317,2.97259385 C4.65608466,4.01084521 5.82010582,5.46439713 6.66666667,7.33324959 C7.51322751,9.20210204 8.04232804,12.5245064 8.25396825,17.3004627 L5.3968254,18.8578397 C4.68080169,14.5412282 3.94006095,11.3226489 3.17460317,9.20210204 C2.4091454,7.08155517 1.35094434,5.31652785 0,3.90702008 Z" id="Path-9" fill="#F3F3F3"></path>
                </g>
                <g id="r-shoe" transform="translate(30.000000, 160.000000)">
                    <path d="M15.75,15.3209211 C6.81034379,15.8624952 1.77462951,15.8624952 0.642857143,15.3209211 C-1.0548014,14.5085601 3.21428571,11.5209211 4.5,8.67092112 C5.78571429,5.82092112 4.11094026,3.04058973 6.75,1.07092112 C8.50937316,-0.242191278 11.2950874,-0.347746834 15.1071429,0.754254457 C16.5794299,2.08321386 17.4365728,4.08876942 17.6785714,6.77092112 C17.9205701,9.45307283 17.2777129,12.3030728 15.75,15.3209211 Z" id="Path-10" fill="#1A1423"></path>
                    <path d="M0.321428571,14.6875878 C3.32142857,14.8986989 5.78571429,15.0042545 7.71428571,15.0042545 C9.64285714,15.0042545 12.4285714,14.8986989 16.0714286,14.6875878 C16.7142857,16.5875878 16.8214286,17.7486989 16.3928571,18.1709211 C15.75,18.8042545 11.25,18.8042545 7.71428571,18.8042545 C4.17857143,18.8042545 0.964285714,18.8042545 0.321428571,18.1709211 C-0.107142857,17.7486989 -0.107142857,16.5875878 0.321428571,14.6875878 Z" id="Path-11" fill="#EEEEEE"></path>
                </g>
                <g id="head" transform="translate(39.000000, 0.000000)">
                    <path d="M4.01608376,36.0812136 C2.91718266,34.5963651 3.46663321,30.8842439 5.66443541,24.94485 L16.213886,30.6721227 C17.3127871,36.8236378 16.5435563,40.4296984 13.9061936,41.4903045 C9.95014969,43.0812136 5.66443541,38.3084863 4.01608376,36.0812136 Z" id="Path-16" fill="#E6B6B8"></path>
                    <path d="M18.8512486,36.0812136 C15.8842156,37.035759 7.97212771,33.2175772 5.33476508,29.3993954 C2.69740244,25.5812136 0.332813786,20.2271948 2.03806178,13.8084863 C3.74330977,7.38977785 6.03702456,3.82795703 12.257842,4.26303177 C18.4786594,4.69810651 21.8180555,10.0187607 23.7963035,14.1266681 C25.1151356,16.8652731 25.0052455,20.1531519 23.4666332,23.9903045 C22.3677321,31.4145469 20.8292706,35.44485 18.8512486,36.0812136 Z" id="Path-14" fill="#FFCACC"></path>
                    <path d="M2.36773211,19.535759 C0.389710131,16.6721227 -0.206722884,13.019186 0.0600398009,9.67212268 C0.326802486,6.32505935 1.3836459,6.56254229 4.01608376,3.94484995 C6.64852161,1.32715762 9.29080903,-0.509695501 14.235864,0.126668135 C19.1809189,0.763031772 29.7303695,6.4903045 29.7303695,13.1721227 C29.7303695,19.8539409 18.5215783,17.6266681 15.8842156,16.3539409 C13.246853,15.0812136 11.5490606,12.7067794 9.62047936,13.1721227 C7.69189811,13.637466 8.63146837,16.9903045 7.97212771,18.2630318 C7.31278705,19.535759 4.34575409,22.3993954 2.36773211,19.535759 Z" id="Path-13" fill="#2E0E02"></path>
                    <path d="M3.3567431,22.7175772 C2.35541392,22.9108641 1.04778672,20.5394714 0.71938046,19.535759 C0.390974198,18.5320467 0.412579463,16.8586173 1.37872112,16.6721227 C2.34486278,16.4856281 3.19666474,16.7662064 3.68641343,18.2630318 C4.17616212,19.7598571 4.35807228,22.5242904 3.3567431,22.7175772 Z" id="Path-15" fill="#FFCACC"></path>
                </g>
            </g>
            <path d="M125.775813,190.386199 C150.191344,190.386199 180.835892,190.386199 217.709456,190.386199 C231.361804,170.005779 227.477034,160.650827 206.055145,162.321342 C197.517289,152.039825 199.373558,144.305094 185.478291,142.42473 C171.583024,140.544367 149.47776,148.849054 144.364531,160.915053 C137.237558,153.441691 134.724206,146.769377 120.580642,151.564575 C106.437077,156.359773 87.6825991,185.494069 125.775813,190.386199 Z" id="Path-3" fill="#FFFFFF" fill-rule="nonzero" opacity="0.75"></path>
            <g id="Group-5" transform="translate(181.000000, 174.000000)">
                <g id="notification" fill="#FDB219" fill-rule="nonzero">
                    <rect id="Rectangle" x="0" y="0" width="42" height="42" rx="4"></rect>
                    <path d="M16,37 L26,37 L26,47 L17,47 C16.4477153,47 16,46.5522847 16,46 L16,37 Z" id="Rectangle" transform="translate(21.000000, 42.000000) rotate(-45.000000) translate(-21.000000, -42.000000) "></path>
                </g>
                <g id="24px" transform="translate(9.000000, 10.000000)">
                    <polygon id="Path" points="0 0 24 0 24 24 0 24"></polygon>
                    <path d="M7.55,3.58 L6.12,2.15 C3.72,3.98 2.14,6.8 2,10 L4,10 C4.15,7.35 5.51,5.03 7.55,3.58 L7.55,3.58 Z M19.94,10 L21.94,10 C21.79,6.8 20.21,3.98 17.82,2.15 L16.4,3.58 C18.42,5.03 19.79,7.35 19.94,10 Z M17.97,10.5 C17.97,7.43 16.33,4.86 13.47,4.18 L13.47,3.5 C13.47,2.67 12.8,2 11.97,2 C11.14,2 10.47,2.67 10.47,3.5 L10.47,4.18 C7.6,4.86 5.97,7.42 5.97,10.5 L5.97,15.5 L3.97,17.5 L3.97,18.5 L19.97,18.5 L19.97,17.5 L17.97,15.5 L17.97,10.5 Z M11.97,21.5 C12.11,21.5 12.24,21.49 12.37,21.46 C13.02,21.32 13.55,20.88 13.81,20.28 C13.91,20.04 13.96,19.78 13.96,19.5 L9.96,19.5 C9.97,20.6 10.86,21.5 11.97,21.5 Z" id="Shape" fill="#FFFFFF" fill-rule="nonzero"></path>
                </g>
            </g>
            <ellipse id="Oval" fill="#F0F1F9" fill-rule="nonzero" cx="467" cy="438" rx="63" ry="7"></ellipse>
            <path d="M429.775813,124.386199 C454.191344,124.386199 484.835892,124.386199 521.709456,124.386199 C535.361804,104.005779 531.477034,94.6508266 510.055145,96.3213416 C501.517289,86.0398247 503.373558,78.3050938 489.478291,76.4247302 C475.583024,74.5443666 453.47776,82.8490538 448.364531,94.9150528 C441.237558,87.4416915 438.724206,80.7693767 424.580642,85.5645748 C410.437077,90.3597728 391.682599,119.494069 429.775813,124.386199 Z" id="Path-3-Copy" fill="#FFFFFF" fill-rule="nonzero" opacity="0.75"></path>
            <g id="char" transform="translate(395.000000, 188.000000)" fill-rule="nonzero">
                <path d="M14.3343662,72 C12.7404478,70.6097827 11.2595402,69.1216554 9.89164316,67.5356181 C7.83979766,65.156562 6.33746474,66.6427417 3.67183093,62.1783597 C1.00619711,57.7139778 6.99864618,54.6325037 9.00309856,55.0353486 C11.0075509,55.4381935 10.843183,59.0019861 11.6687324,59.4997306 C12.4942818,59.997475 13.4458216,56.8211014 15.2229108,59.4997306 C16.4076369,61.2854833 17,64.8569889 17,70.2142472 L14.3343662,72 Z" id="r-hand" fill="#C79295"></path>
                <path d="M1.57088931,51 L8.35611371,51 C8.74449373,51 9.09774676,51.2248745 9.26212771,51.5767523 L15.3351247,64.5767523 C15.5688779,65.07713 15.3527361,65.6722607 14.8523584,65.906014 C14.7198465,65.9679174 14.5753688,66 14.4291107,66 L7.64388629,66 C7.25550627,66 6.90225324,65.7751255 6.73787229,65.4232477 L0.664875313,52.4232477 C0.431122054,51.92287 0.647263883,51.3277393 1.1476416,51.093986 C1.28015346,51.0320826 1.42463124,51 1.57088931,51 Z" id="phone" fill="#171D47"></path>
                <path d="M36.12419,20.8385492 C31.7545322,13.9806976 40.5238309,-5.52564495 55.48261,1.50480683 C70.4413891,8.53525861 61.0410488,16.8385666 69.5614609,30.5054204 C78.081873,44.1722742 93.3195219,38.4146787 100.358947,50.7179693 C107.398373,63.0212599 90.8498397,75.8488965 68.6815327,64.7788729 C46.5132258,53.7088492 40.4938477,27.6964009 36.12419,20.8385492 Z" id="hair" fill="#0F0202"></path>
                <g id="r-foot" transform="translate(30.000000, 233.000000)">
                    <polygon id="Path-43" fill="#C79295" points="21.6730769 0.869565217 21.6730769 13.0434783 14.5961538 13.0434783 14.5961538 0"></polygon>
                    <path d="M21.6730769,11.3043478 C22.5576923,13.9130435 23.4423077,16.5217391 22.5576923,18.2608696 C18.1346154,18.2608696 3.09615385,18.2608696 0.442307692,18.2608696 C-1.32692308,15.6521739 11.0576923,13.0434783 14.5961538,10.4347826 C16.3653846,12.173913 19.9038462,12.173913 21.6730769,11.3043478 Z" id="Path-44" fill="#3333A0"></path>
                    <path d="M0.442307692,18.2608696 L22.5576923,18.2608696 C23.1474359,18.8405797 23.1474359,19.4202899 22.5576923,20 C19.0192308,20 1.32692308,20 0.442307692,20 C-0.147435897,19.4202899 -0.147435897,18.8405797 0.442307692,18.2608696 Z" id="Path-45" fill="#D8D8D8"></path>
                </g>
                <g id="r-foot" transform="translate(108.942429, 236.899750) rotate(-37.000000) translate(-108.942429, -236.899750) translate(97.442429, 224.399750)">
                    <polygon id="Path-43" fill="#C79295" points="21.7948218 0.817216384 21.5874126 17.6388889 14.5384615 17.6388889 14.3910413 1.85872479"></polygon>
                    <path d="M21.5874126,15.875 C22.4685315,18.5208333 23.3496503,21.1666667 22.4685315,22.9305556 C18.0629371,22.9305556 3.08391608,22.9305556 0.440559441,22.9305556 C-1.32167832,20.2847222 11.013986,17.6388889 14.5384615,14.9930556 C16.3006993,16.7569444 19.8251748,16.7569444 21.5874126,15.875 Z" id="Path-44" fill="#3333A0"></path>
                    <path d="M0.440559441,22.9305556 L22.4685315,22.9305556 C23.0559441,23.5185185 23.0559441,24.1064815 22.4685315,24.6944444 C18.9440559,24.6944444 1.32167832,24.6944444 0.440559441,24.6944444 C-0.146853147,24.1064815 -0.146853147,23.5185185 0.440559441,22.9305556 Z" id="Path-45" fill="#D8D8D8"></path>
                </g>
                <path d="M45,8.58677088 C54.320078,-1.51531251 62.4751463,-2.70379291 69.4652048,5.02132968 C79.9502925,16.6090136 71.2127194,26.4139769 80.8240499,33.5448593 C90.4353803,40.6757416 106.961205,45.6694226 103.54174,46.9152637 C100.122275,48.1611048 63.3489036,35.3275799 59.8538743,30.8707784 C56.3588451,26.4139769 61.601389,17.5003739 56.3588451,11.2608518 C52.8638158,7.10117038 49.0775341,6.20981008 45,8.58677088 Z" id="hair" fill="#0F0202"></path>
                <path d="M46.4882579,117.389278 C53.8155889,109.010741 71.2646382,101.308913 73.7040588,117.389278 C76.1434794,133.469642 62.829427,147.381681 58.4225624,183.537146 C59.3054061,202.067973 64.9303042,230.858049 62.8367811,232.952683 C61.441099,234.349106 54.9669115,234.349106 43.4142187,232.952683 C40.4714062,219.747298 39,201.804752 39,179.125045 C39,145.105485 39.1609269,125.767814 46.4882579,117.389278 Z" id="r-leg" fill="#6666B8"></path>
                <path d="M48.0262903,125.764148 C48.7935566,110.421736 69.7683386,100.060908 77.0721859,112.579412 C84.3760331,125.097916 85.0738391,156.786267 84.1136151,174.987162 C95.5910893,187.505666 112.990521,214.506772 114.919868,218.936282 C115.746882,220.83499 110.172417,225.522896 98.1964735,233 C81.9985038,206.278001 72.5171231,190.843801 69.7523314,186.697401 C63.4918909,177.308523 47.2590241,141.10656 48.0262903,125.764148 Z" id="l-leg" fill="#6666B8"></path>
                <path d="M96.6837887,124 C97.6273222,128.035072 98.2461915,131.336861 98.5403967,133.905366 C98.9817045,137.758124 99.625706,137.760795 97.6120927,141.109269 C95.5984795,144.457743 92.9556404,145.597223 92.0422688,144.71122 C91.1288972,143.825217 93.6990664,138.920647 92.9705728,137.507318 C92.2420791,136.093988 91.1139648,141.109269 90.1856608,139.308293 C89.5667915,138.107643 90.4950955,133.305041 92.9705728,124.900488 L96.6837887,124 Z" id="l-hand" fill="#C79295"></path>
                <path d="M39.2689716,46.7892746 C44.5039663,41.5826287 54.9739558,43.6652871 53.9269569,53.0372496 C52.8799579,62.4092122 37.1749737,97.8144043 31.939979,99.8970626 C26.7049842,101.979721 11,71.7811748 11,70.7398457 C11,70.0456262 13.0939979,68.6571873 17.2819937,66.574529 C22.1679888,72.822504 26.3559846,77.6820402 29.8459811,81.1531374 C32.9869779,67.6158581 34.0339768,51.9959205 39.2689716,46.7892746 Z" id="r-arm" fill="#FF0088"></path>
                <path d="M43.1275567,42.8388295 C53.6097443,36.6140188 69.3330257,38.6889557 75.6223382,43.8762979 C81.9116508,49.0636402 74.5741195,82.2626304 76.670557,98.8621255 C78.7669945,115.461621 83.5788258,115.319225 81.4823883,120.506568 C79.3859507,125.69391 40.1245022,130.385489 38.5675763,126.660705 C37.0106504,122.93592 39.2196262,117.446845 40.3192013,96.7691816 C40.6558425,90.4385963 35.7426159,84.1694203 35.0643264,77.4276078 C34.4008554,70.8330835 38.993622,45.2937522 43.1275567,42.8388295 Z" id="torso" fill="#FF0088"></path>
                <path d="M66.5742056,58.4476254 C64.6546198,52.5362316 67.5924376,38.5884385 74.7200617,42.7693199 C81.8476859,46.9502014 91.1310093,64.9575723 96.1029342,82.4876938 C101.074859,100.017815 98.1393982,125.341729 98.1393982,127.432169 C98.1393982,129.52261 94.0664701,129.52261 92.0300061,127.432169 C89.9935421,125.341729 88.97531,95.0303381 86.938846,89.8042363 C84.902382,84.5781345 68.4937914,64.3590192 66.5742056,58.4476254 Z" id="l-arm" fill="#FF0088"></path>
                <path d="M50.7239965,34.0862456 C48.9865136,34.0862456 46.6560537,34.3656685 45.5115479,33.2059785 C44.6428065,32.3257114 42.2172649,25.7696877 42.0365822,21.7625059 C41.7838781,16.15803 42.8605483,12.1249371 44.6428065,10.3190334 C48.2854603,6.62805218 59.4114107,5.91769784 58.5426693,19.1217046 C62.8863764,16.4809032 63.7551179,25.2835744 58.5426693,26.1638415 C58.6014621,26.4378766 58.6940122,26.6894066 58.7212838,26.9705951 C59.4114107,34.0862456 62.0519581,36.8313822 62.8863764,39.3678483 C63.7551179,42.0086496 59.4406738,44.5872054 56.8051865,45.5297181 C54.1696992,46.4722308 48.4628914,46.0534048 47.2490308,43.7691839 C46.0351701,41.484963 51.3856328,36.7679028 50.7239965,34.0862456 Z" id="face" fill="#C79295"></path>
            </g>
            <g id="Group-5-Copy" transform="translate(361.000000, 163.000000)" fill-rule="nonzero">
                <g id="notification" fill="#0088FF">
                    <rect id="Rectangle" x="0" y="0" width="42" height="42" rx="4"></rect>
                    <path d="M16,37 L26,37 L26,47 L17,47 C16.4477153,47 16,46.5522847 16,46 L16,37 Z" id="Rectangle" transform="translate(21.000000, 42.000000) rotate(-45.000000) translate(-21.000000, -42.000000) "></path>
                </g>
                <rect id="Rectangle" fill="#FFFFFF" x="8" y="12" width="26" height="4" rx="2"></rect>
                <rect id="Rectangle-Copy-31" fill="#FFFFFF" x="8" y="18" width="26" height="4" rx="2"></rect>
                <rect id="Rectangle-Copy-32" fill="#FFFFFF" x="8" y="24" width="13" height="4" rx="2"></rect>
            </g>
        </g>
    </g>
</svg>