<?xml version="1.0" encoding="UTF-8"?><svg width="1440" height="720" xmlns="http://www.w3.org/2000/svg" xmlns:xlink="http://www.w3.org/1999/xlink"><defs><linearGradient x1="25.423%" y1="43.376%" x2="94.559%" y2="81.184%" id="i"><stop stop-color="#DD3835" offset="0%"/><stop stop-color="#EB4842" offset="100%"/></linearGradient><linearGradient x1="23.873%" y1="15.371%" x2="78.451%" y2="57.497%" id="o"><stop stop-color="#E9403D" offset="0%"/><stop stop-color="#F0594D" offset="100%"/></linearGradient><linearGradient x1="50%" y1="50%" x2="82.472%" y2="52.679%" id="d"><stop stop-color="#FFF6DF" offset="0%"/><stop stop-color="#FFF" offset="100%"/></linearGradient><linearGradient x1="47.589%" y1="24.209%" x2="30.644%" y2="45.899%" id="e"><stop stop-color="#793816" offset="0%"/><stop stop-color="#9A512B" offset="100%"/></linearGradient><linearGradient x1="30.137%" y1="86.976%" x2="54.849%" y2="33.047%" id="f"><stop stop-color="#E9403D" offset="0%"/><stop stop-color="#F0594D" offset="100%"/></linearGradient><linearGradient x1="82.023%" y1="0%" x2="21.734%" y2="54.222%" id="n"><stop stop-color="#793816" offset="0%"/><stop stop-color="#9A512B" offset="100%"/></linearGradient><linearGradient x1="35.131%" y1="27.781%" x2="81.15%" y2="38.66%" id="h"><stop stop-color="#793816" offset="0%"/><stop stop-color="#9A512B" offset="100%"/></linearGradient><linearGradient x1="22.274%" y1="7.773%" x2="43.452%" y2="51.489%" id="m"><stop stop-color="#793816" offset="0%"/><stop stop-color="#9A512B" offset="100%"/></linearGradient><linearGradient x1="41.31%" y1="50%" x2="74.579%" y2="50%" id="j"><stop stop-color="#FFF6DF" offset="0%"/><stop stop-color="#FFF" offset="100%"/></linearGradient><linearGradient x1="39.837%" y1="52.679%" x2="74.579%" y2="50%" id="k"><stop stop-color="#FFF6DF" offset="0%"/><stop stop-color="#FFF" offset="100%"/></linearGradient><linearGradient x1="17.746%" y1="85.621%" x2="54.849%" y2="33.047%" id="l"><stop stop-color="#F4C730" stop-opacity=".027" offset="0%"/><stop stop-color="#F4C730" stop-opacity=".145" offset="100%"/></linearGradient><path id="b" d="M0 2.47h12.488v12.497H0z"/><path d="M724.926 148.252l10.771-15.776a2.31 2.31 0 00-1.276-3.524l-13.63-3.875a4.62 4.62 0 00-5.126 1.909l-47.537 72.443a3.465 3.465 0 003.299 5.342l30.95-3.617 22.55-52.902z" id="g"/><radialGradient cx="78.337%" cy="-9.882%" fx="78.337%" fy="-9.882%" r="101.815%" gradientTransform="matrix(0 -1 1.30576 0 .912 .685)" id="a"><stop stop-color="#FFF" offset="0%"/><stop stop-color="#FFF" stop-opacity="0" offset="100%"/></radialGradient></defs><g fill="none" fill-rule="evenodd"><path fill="#F1BB28" d="M0 0h1440v720H0z"/><path fill="#F1BB28" d="M0 720h1440V0H0z"/><path d="M826.301 701.642c256.181 102.472 466-116.804 466-260.89 0-144.087-197.382-307.601-462.232-260.891-264.85 46.71-469.768 116.804-469.768 260.89 0 144.087 209.82 158.42 466 260.891z" fill="url(#a)" style="mix-blend-mode:soft-light" opacity=".458" transform="rotate(155 844.669 411.98)"/><path d="M432.488 112.876c151.724 117.6 289.26 167.5 261.787 263.6-27.475 96.1-177.834 103.452-363.799 83.684C144.511 440.39 43.735 293.383 71.21 197.284c27.474-96.1 209.555-202.007 361.28-84.408zM1043.442 554.314c-41.602-101.117-95.344-164.926-54.622-204.281 40.722-39.356 116.976-.008 203.128 62.836 86.151 62.844 94.306 163.85 53.584 203.206-40.722 39.355-160.488 39.355-202.09-61.761z" stroke="#FFF" stroke-width="2" opacity=".3"/><g style="mix-blend-mode:soft-light"><path d="M305.535 328.55a6.248 6.248 0 00-8.534-2.285 6.248 6.248 0 00-2.29 8.533 6.248 6.248 0 008.535 2.284 6.248 6.248 0 002.289-8.533M288.707 299.403a6.248 6.248 0 00-8.534-2.284 6.248 6.248 0 00-2.29 8.532 6.248 6.248 0 008.535 2.284 6.248 6.248 0 002.289-8.532M461.227 429.437a6.248 6.248 0 00-8.534-2.284 6.248 6.248 0 00-2.289 8.533 6.248 6.248 0 008.534 2.284 6.248 6.248 0 002.29-8.533M444.4 400.29a6.248 6.248 0 00-8.535-2.283 6.248 6.248 0 00-2.289 8.532 6.248 6.248 0 008.534 2.284 6.248 6.248 0 002.29-8.532M549.288 514.613a6.248 6.248 0 00-8.534-2.284 6.248 6.248 0 00-2.289 8.532 6.248 6.248 0 008.534 2.284 6.248 6.248 0 002.29-8.532M532.46 485.466a6.248 6.248 0 00-8.533-2.284 6.248 6.248 0 00-2.29 8.533 6.248 6.248 0 008.535 2.284 6.248 6.248 0 002.289-8.533M515.633 456.32a6.248 6.248 0 00-8.534-2.285 6.248 6.248 0 00-2.29 8.533 6.248 6.248 0 008.535 2.284 6.248 6.248 0 002.289-8.533M498.805 427.173a6.248 6.248 0 00-8.534-2.284 6.248 6.248 0 00-2.29 8.532 6.248 6.248 0 008.535 2.284 6.248 6.248 0 002.289-8.532M481.977 398.026a6.248 6.248 0 00-8.534-2.284 6.248 6.248 0 00-2.289 8.533 6.248 6.248 0 008.534 2.284 6.248 6.248 0 002.29-8.533M465.15 368.88a6.248 6.248 0 00-8.535-2.285 6.248 6.248 0 00-2.289 8.533 6.248 6.248 0 008.534 2.284 6.248 6.248 0 002.29-8.533M448.322 339.733a6.248 6.248 0 00-8.534-2.284 6.248 6.248 0 00-2.29 8.533 6.248 6.248 0 008.534 2.283 6.248 6.248 0 002.29-8.532M431.494 310.586a6.248 6.248 0 00-8.534-2.284 6.248 6.248 0 00-2.29 8.533 6.248 6.248 0 008.535 2.284 6.248 6.248 0 002.289-8.533M414.666 281.44a6.248 6.248 0 00-8.534-2.284 6.248 6.248 0 00-2.29 8.532 6.248 6.248 0 008.535 2.284 6.248 6.248 0 002.289-8.532M637.35 599.788a6.248 6.248 0 00-8.534-2.284 6.248 6.248 0 00-2.29 8.533 6.248 6.248 0 008.535 2.284 6.248 6.248 0 002.289-8.533M620.522 570.641a6.248 6.248 0 00-8.534-2.284 6.248 6.248 0 00-2.289 8.533 6.248 6.248 0 008.534 2.284 6.248 6.248 0 002.29-8.533M603.694 541.495a6.248 6.248 0 00-8.534-2.284 6.248 6.248 0 00-2.289 8.532 6.248 6.248 0 008.534 2.284 6.248 6.248 0 002.29-8.532M570.039 483.201a6.248 6.248 0 00-8.534-2.284 6.248 6.248 0 00-2.29 8.533 6.248 6.248 0 008.535 2.284 6.248 6.248 0 002.289-8.533M553.21 454.055a6.248 6.248 0 00-8.533-2.284 6.248 6.248 0 00-2.29 8.533 6.248 6.248 0 008.535 2.283 6.248 6.248 0 002.289-8.532M536.383 424.908a6.248 6.248 0 00-8.534-2.284 6.248 6.248 0 00-2.29 8.533 6.248 6.248 0 008.535 2.284 6.248 6.248 0 002.289-8.533M519.555 395.762a6.248 6.248 0 00-8.534-2.284 6.248 6.248 0 00-2.289 8.532 6.248 6.248 0 008.534 2.284 6.248 6.248 0 002.29-8.532M502.727 366.615a6.248 6.248 0 00-8.534-2.284 6.248 6.248 0 00-2.289 8.533 6.248 6.248 0 008.534 2.284 6.248 6.248 0 002.29-8.533M485.9 337.468a6.248 6.248 0 00-8.535-2.284 6.248 6.248 0 00-2.289 8.533 6.248 6.248 0 008.534 2.284 6.248 6.248 0 002.29-8.533M469.072 308.322a6.248 6.248 0 00-8.534-2.284 6.248 6.248 0 00-2.29 8.532 6.248 6.248 0 008.535 2.284 6.248 6.248 0 002.289-8.532M452.244 279.175a6.248 6.248 0 00-8.534-2.284 6.248 6.248 0 00-2.29 8.533 6.248 6.248 0 008.535 2.284 6.248 6.248 0 002.289-8.533M658.1 568.377a6.248 6.248 0 00-8.534-2.284 6.248 6.248 0 00-2.29 8.533 6.248 6.248 0 008.535 2.284 6.248 6.248 0 002.289-8.533M641.272 539.23a6.248 6.248 0 00-8.534-2.284 6.248 6.248 0 00-2.289 8.533 6.248 6.248 0 008.534 2.284 6.248 6.248 0 002.29-8.533M624.444 510.084a6.248 6.248 0 00-8.534-2.284 6.248 6.248 0 00-2.289 8.532 6.248 6.248 0 008.534 2.284 6.248 6.248 0 002.29-8.532M607.617 480.937a6.248 6.248 0 00-8.534-2.284 6.248 6.248 0 00-2.29 8.533 6.248 6.248 0 008.535 2.284 6.248 6.248 0 002.289-8.533M590.789 451.79a6.248 6.248 0 00-8.534-2.284 6.248 6.248 0 00-2.29 8.533 6.248 6.248 0 008.535 2.284 6.248 6.248 0 002.289-8.533M573.96 422.644a6.248 6.248 0 00-8.533-2.284 6.248 6.248 0 00-2.29 8.532 6.248 6.248 0 008.535 2.284 6.248 6.248 0 002.289-8.532M557.133 393.497a6.248 6.248 0 00-8.534-2.284 6.248 6.248 0 00-2.289 8.533 6.248 6.248 0 008.534 2.284 6.248 6.248 0 002.29-8.533M540.305 364.35a6.248 6.248 0 00-8.534-2.284 6.248 6.248 0 00-2.289 8.533 6.248 6.248 0 008.534 2.284 6.248 6.248 0 002.29-8.533M523.477 335.204a6.248 6.248 0 00-8.534-2.284 6.248 6.248 0 00-2.289 8.532 6.248 6.248 0 008.534 2.284 6.248 6.248 0 002.29-8.532M506.65 306.057a6.248 6.248 0 00-8.534-2.284 6.248 6.248 0 00-2.29 8.533 6.248 6.248 0 008.535 2.284 6.248 6.248 0 002.289-8.533M489.822 276.91a6.248 6.248 0 00-8.534-2.284 6.248 6.248 0 00-2.29 8.533 6.248 6.248 0 008.535 2.284 6.248 6.248 0 002.289-8.533M472.994 247.764a6.248 6.248 0 00-8.534-2.284 6.248 6.248 0 00-2.29 8.532 6.248 6.248 0 008.535 2.284 6.248 6.248 0 002.289-8.532M695.678 566.112a6.248 6.248 0 00-8.534-2.284 6.248 6.248 0 00-2.29 8.533 6.248 6.248 0 008.535 2.284 6.248 6.248 0 002.289-8.533M662.022 507.819a6.248 6.248 0 00-8.534-2.284 6.248 6.248 0 00-2.289 8.533 6.248 6.248 0 008.534 2.284 6.248 6.248 0 002.29-8.533M645.195 478.672a6.248 6.248 0 00-8.535-2.284 6.248 6.248 0 00-2.289 8.533 6.248 6.248 0 008.534 2.284 6.248 6.248 0 002.29-8.533M628.367 449.526a6.248 6.248 0 00-8.534-2.284 6.248 6.248 0 00-2.29 8.532 6.248 6.248 0 008.535 2.284 6.248 6.248 0 002.289-8.532M611.539 420.38a6.248 6.248 0 00-8.534-2.285 6.248 6.248 0 00-2.29 8.533 6.248 6.248 0 008.535 2.284 6.248 6.248 0 002.289-8.533M594.711 391.232a6.248 6.248 0 00-8.534-2.284 6.248 6.248 0 00-2.289 8.533 6.248 6.248 0 008.534 2.284 6.248 6.248 0 002.29-8.533M577.883 362.086a6.248 6.248 0 00-8.534-2.284 6.248 6.248 0 00-2.289 8.533 6.248 6.248 0 008.534 2.283 6.248 6.248 0 002.29-8.532M561.055 332.94a6.248 6.248 0 00-8.534-2.285 6.248 6.248 0 00-2.289 8.533 6.248 6.248 0 008.534 2.284 6.248 6.248 0 002.29-8.533M544.228 303.793a6.248 6.248 0 00-8.534-2.284 6.248 6.248 0 00-2.29 8.532 6.248 6.248 0 008.535 2.284 6.248 6.248 0 002.289-8.532M527.4 274.646a6.248 6.248 0 00-8.534-2.284 6.248 6.248 0 00-2.29 8.533 6.248 6.248 0 008.535 2.284 6.248 6.248 0 002.289-8.533M510.572 245.5a6.248 6.248 0 00-8.534-2.285 6.248 6.248 0 00-2.29 8.533 6.248 6.248 0 008.535 2.284 6.248 6.248 0 002.289-8.533M493.744 216.353a6.248 6.248 0 00-8.534-2.284 6.248 6.248 0 00-2.289 8.532 6.248 6.248 0 008.534 2.284 6.248 6.248 0 002.29-8.532M699.6 505.554a6.248 6.248 0 00-8.534-2.284 6.248 6.248 0 00-2.289 8.533 6.248 6.248 0 008.534 2.284 6.248 6.248 0 002.29-8.533M682.772 476.408a6.248 6.248 0 00-8.534-2.284 6.248 6.248 0 00-2.289 8.533 6.248 6.248 0 008.534 2.283 6.248 6.248 0 002.29-8.532M665.945 447.261a6.248 6.248 0 00-8.534-2.284 6.248 6.248 0 00-2.29 8.533 6.248 6.248 0 008.535 2.284 6.248 6.248 0 002.289-8.533M649.117 418.115a6.248 6.248 0 00-8.534-2.284 6.248 6.248 0 00-2.29 8.532 6.248 6.248 0 008.535 2.284 6.248 6.248 0 002.289-8.532M632.289 388.968a6.248 6.248 0 00-8.534-2.284 6.248 6.248 0 00-2.29 8.533A6.248 6.248 0 00630 397.5a6.248 6.248 0 002.289-8.533M615.461 359.821a6.248 6.248 0 00-8.534-2.284 6.248 6.248 0 00-2.289 8.533 6.248 6.248 0 008.534 2.284 6.248 6.248 0 002.29-8.533M598.633 330.675a6.248 6.248 0 00-8.534-2.284 6.248 6.248 0 00-2.289 8.532 6.248 6.248 0 008.534 2.284 6.248 6.248 0 002.29-8.532M581.806 301.528a6.248 6.248 0 00-8.534-2.284 6.248 6.248 0 00-2.29 8.533 6.248 6.248 0 008.534 2.284 6.248 6.248 0 002.29-8.533M564.978 272.381a6.248 6.248 0 00-8.534-2.284 6.248 6.248 0 00-2.29 8.533 6.248 6.248 0 008.535 2.284 6.248 6.248 0 002.289-8.533M548.15 243.235a6.248 6.248 0 00-8.534-2.284 6.248 6.248 0 00-2.29 8.532 6.248 6.248 0 008.535 2.284 6.248 6.248 0 002.289-8.532M531.322 214.088a6.248 6.248 0 00-8.534-2.284 6.248 6.248 0 00-2.289 8.533 6.248 6.248 0 008.534 2.284 6.248 6.248 0 002.29-8.533M514.494 184.941a6.248 6.248 0 00-8.534-2.284 6.248 6.248 0 00-2.289 8.533 6.248 6.248 0 008.534 2.284 6.248 6.248 0 002.29-8.533M754.006 532.437a6.248 6.248 0 00-8.534-2.284 6.248 6.248 0 00-2.289 8.532 6.248 6.248 0 008.534 2.284 6.248 6.248 0 002.29-8.532M737.178 503.29a6.248 6.248 0 00-8.534-2.284 6.248 6.248 0 00-2.289 8.533 6.248 6.248 0 008.534 2.284 6.248 6.248 0 002.29-8.533M720.35 474.143a6.248 6.248 0 00-8.534-2.284 6.248 6.248 0 00-2.289 8.533 6.248 6.248 0 008.534 2.284 6.248 6.248 0 002.29-8.533M703.523 444.997a6.248 6.248 0 00-8.534-2.284 6.248 6.248 0 00-2.29 8.532 6.248 6.248 0 008.535 2.284 6.248 6.248 0 002.289-8.532M686.695 415.85a6.248 6.248 0 00-8.534-2.284 6.248 6.248 0 00-2.29 8.533 6.248 6.248 0 008.535 2.284 6.248 6.248 0 002.289-8.533M669.867 386.703a6.248 6.248 0 00-8.534-2.284 6.248 6.248 0 00-2.29 8.533 6.248 6.248 0 008.535 2.284 6.248 6.248 0 002.289-8.533M653.04 357.557a6.248 6.248 0 00-8.535-2.284 6.248 6.248 0 00-2.289 8.532 6.248 6.248 0 008.534 2.284 6.248 6.248 0 002.29-8.532M636.211 328.41a6.248 6.248 0 00-8.534-2.284 6.248 6.248 0 00-2.289 8.533 6.248 6.248 0 008.534 2.284 6.248 6.248 0 002.29-8.533M619.384 299.263a6.248 6.248 0 00-8.535-2.284 6.248 6.248 0 00-2.289 8.533 6.248 6.248 0 008.534 2.284 6.248 6.248 0 002.29-8.533M602.556 270.117a6.248 6.248 0 00-8.534-2.284 6.248 6.248 0 00-2.29 8.532 6.248 6.248 0 008.535 2.284 6.248 6.248 0 002.289-8.532M585.728 240.97a6.248 6.248 0 00-8.534-2.284 6.248 6.248 0 00-2.29 8.533 6.248 6.248 0 008.535 2.284 6.248 6.248 0 002.289-8.533M568.9 211.823a6.248 6.248 0 00-8.534-2.283 6.248 6.248 0 00-2.29 8.532 6.248 6.248 0 008.535 2.284 6.248 6.248 0 002.289-8.533M774.756 501.025a6.248 6.248 0 00-8.534-2.284 6.248 6.248 0 00-2.289 8.533 6.248 6.248 0 008.534 2.284 6.248 6.248 0 002.29-8.533M757.928 471.879a6.248 6.248 0 00-8.534-2.284 6.248 6.248 0 00-2.289 8.532 6.248 6.248 0 008.534 2.284 6.248 6.248 0 002.29-8.532M741.1 442.732a6.248 6.248 0 00-8.533-2.284 6.248 6.248 0 00-2.29 8.533 6.248 6.248 0 008.535 2.284 6.248 6.248 0 002.289-8.533M724.273 413.585a6.248 6.248 0 00-8.534-2.284 6.248 6.248 0 00-2.29 8.533 6.248 6.248 0 008.535 2.284 6.248 6.248 0 002.289-8.533M707.445 384.439a6.248 6.248 0 00-8.534-2.284 6.248 6.248 0 00-2.29 8.533 6.248 6.248 0 008.535 2.283 6.248 6.248 0 002.289-8.532M690.617 355.292a6.248 6.248 0 00-8.534-2.284 6.248 6.248 0 00-2.289 8.533 6.248 6.248 0 008.534 2.284 6.248 6.248 0 002.29-8.533M673.79 326.145a6.248 6.248 0 00-8.535-2.283 6.248 6.248 0 00-2.289 8.532 6.248 6.248 0 008.534 2.284 6.248 6.248 0 002.29-8.533M656.961 296.999a6.248 6.248 0 00-8.534-2.284 6.248 6.248 0 00-2.289 8.533 6.248 6.248 0 008.534 2.284 6.248 6.248 0 002.29-8.533M640.134 267.852a6.248 6.248 0 00-8.534-2.284 6.248 6.248 0 00-2.29 8.533 6.248 6.248 0 008.535 2.284 6.248 6.248 0 002.289-8.533M623.306 238.706a6.248 6.248 0 00-8.534-2.284 6.248 6.248 0 00-2.29 8.532 6.248 6.248 0 008.535 2.284 6.248 6.248 0 002.289-8.532M606.478 209.559a6.248 6.248 0 00-8.534-2.284 6.248 6.248 0 00-2.29 8.533 6.248 6.248 0 008.535 2.284 6.248 6.248 0 002.289-8.533M829.162 527.907a6.248 6.248 0 00-8.534-2.284 6.248 6.248 0 00-2.29 8.533 6.248 6.248 0 008.535 2.284 6.248 6.248 0 002.289-8.533M812.334 498.76a6.248 6.248 0 00-8.534-2.283 6.248 6.248 0 00-2.289 8.533 6.248 6.248 0 008.534 2.283 6.248 6.248 0 002.29-8.532M795.506 469.614a6.248 6.248 0 00-8.534-2.284 6.248 6.248 0 00-2.289 8.533 6.248 6.248 0 008.534 2.284 6.248 6.248 0 002.29-8.533M778.679 440.468a6.248 6.248 0 00-8.535-2.284 6.248 6.248 0 00-2.289 8.532A6.248 6.248 0 00776.39 449a6.248 6.248 0 002.29-8.532M761.85 411.32a6.248 6.248 0 00-8.533-2.283 6.248 6.248 0 00-2.29 8.533 6.248 6.248 0 008.535 2.284 6.248 6.248 0 002.289-8.533M745.023 382.174a6.248 6.248 0 00-8.534-2.284 6.248 6.248 0 00-2.29 8.533 6.248 6.248 0 008.535 2.284 6.248 6.248 0 002.289-8.533M728.195 353.028a6.248 6.248 0 00-8.534-2.284 6.248 6.248 0 00-2.289 8.532 6.248 6.248 0 008.534 2.284 6.248 6.248 0 002.29-8.532M694.54 294.734a6.248 6.248 0 00-8.535-2.284 6.248 6.248 0 00-2.289 8.533 6.248 6.248 0 008.534 2.284 6.248 6.248 0 002.29-8.533M677.712 265.588a6.248 6.248 0 00-8.534-2.284 6.248 6.248 0 00-2.29 8.532 6.248 6.248 0 008.535 2.284 6.248 6.248 0 002.289-8.532M660.884 236.441a6.248 6.248 0 00-8.534-2.284 6.248 6.248 0 00-2.29 8.533 6.248 6.248 0 008.535 2.284 6.248 6.248 0 002.289-8.533" fill="#3D3F3C"/><g transform="rotate(-120 583.911 21.901)"><mask id="c" fill="#fff"><use xlink:href="#b"/></mask><path d="M6.243 14.967a6.248 6.248 0 006.245-6.249A6.248 6.248 0 006.243 2.47 6.248 6.248 0 000 8.718a6.248 6.248 0 006.244 6.249" fill="#3D3F3C" mask="url(#c)"/></g><path d="M849.912 496.496a6.248 6.248 0 00-8.534-2.284 6.248 6.248 0 00-2.289 8.533 6.248 6.248 0 008.534 2.284 6.248 6.248 0 002.29-8.533M782.6 379.91a6.248 6.248 0 00-8.533-2.284 6.248 6.248 0 00-2.29 8.532 6.248 6.248 0 008.535 2.284 6.248 6.248 0 002.289-8.532M765.773 350.763a6.248 6.248 0 00-8.534-2.284 6.248 6.248 0 00-2.29 8.533 6.248 6.248 0 008.535 2.284 6.248 6.248 0 002.289-8.533M715.29 263.323a6.248 6.248 0 00-8.535-2.284 6.248 6.248 0 00-2.289 8.533 6.248 6.248 0 008.534 2.284 6.248 6.248 0 002.29-8.533" fill="#3D3F3C"/></g><g transform="rotate(-28 616.083 -457.869)"><path d="M57.802 170.92v13.807L28.9 155.652a19.635 19.635 0 01-5.678-12.734L.523 2.698a2.31 2.31 0 012.28-2.68h30.009l24.99 170.902zM23.2 136.72l-.026-.025.025.681.001-.656z" fill="url(#d)"/><ellipse fill="#F1BB28" fill-rule="nonzero" opacity=".2" transform="rotate(-6 27.17 77.348)" cx="27.17" cy="77.348" rx="4.619" ry="9.252"/><path d="M60.014 143.757l81.432 14.182a23.1 23.1 0 018.064 3.036l56.668 34.559L57.802 170.92l2.212-27.163z" fill="#FFF"/><path d="M190.814 208.146L57.802 184.707V170.92l148.376 24.332c0 7.23-5.862 13.092-13.092 13.092-.762 0-1.522-.066-2.272-.198z" fill="#FBEDC9" fill-rule="nonzero"/><path d="M32.812.018l24.99 170.902 7.394 1.623L40.442 6.594a7.714 7.714 0 00-7.63-6.576z" fill="#FBEDC9" fill-rule="nonzero"/><path fill="#FBEDC9" fill-rule="nonzero" opacity=".8" d="M147.816 166.649l21.07 14.015-21.352-3.58-18.616-13.225z"/></g><path d="M115.342 196.157c-1.751-3.054-2.038-5.511-.86-7.373 1.178-1.861 4.138-6.232 8.88-13.112l2.048.739c1.012-3.144 2.155-4.39 3.427-3.736 1.273.654 2.33 2.502 3.172 5.546 1.754-.621 2.627 1.784 2.62 7.215-.012 8.147-1.669 11.508-.023 15.298 1.098 2.527 2.637 5.862 4.619 10.005l7.216 6.444 62.573 9.16c2.34 13.565 4.253 23.282 5.736 29.151 1.483 5.87 9.288 22.542 23.415 50.019l-33.988 1.66c-11.527-37.411-17.616-57.34-18.266-59.785-3.002-11.282-.301-14.006-15.758-19.756-15.457-5.75-20.753-6.77-26.393-6.762-5.64.008-16.53-1.49-17.465-5.042-.936-3.553-2.166-3.485-4.764-4.273-2.597-.787-5.448-2.199-5.447-2.908 0-.472-.247-4.636-.742-12.49z" fill="url(#e)" transform="rotate(-26 617.9 -312.829)"/><g transform="translate(287 58)"><use fill="url(#f)" xlink:href="#g"/><use fill="#FFF" xlink:href="#g"/></g><path d="M1013.081 208.565l10.77-15.776a2.31 2.31 0 00-1.275-3.524l-13.63-3.875a4.62 4.62 0 00-5.126 1.909l-47.538 72.443a3.465 3.465 0 003.3 5.342l30.95-3.617 22.549-52.902z" fill="#FBEDC9" fill-rule="nonzero"/><path d="M686.463 219.827c0-.751-6.17-10.46-5.384-15.712.525-3.5 1.6-6.265 3.226-8.293-4.126-4.63-6.082-7.465-5.866-8.506.323-1.56 1.51-3.048 4.011-2.754 2.503.293 3.149 4.136 5.461 4.136 2.312 0 7.115-2.726 7.115-6.294 0-3.568 2.976-18.648 6.028-21.078 3.051-2.431 7.206-2.074 7.706-1.037.561-3.572 5.306-10.45 7.7-9.716 1.594.489 2.49.917 2.684 1.283 3.718-3.645 6.076-4.686 7.073-3.125 1.497 2.343-2.65 10.407-2.65 10.737 0 .33-9.34 21.158-9.34 22.936 0 1.778-3.785 8.655-3.785 11.637 0 2.982-4.445 7.973-3.615 18.383.83 10.409-5.222 58.807-13.676 58.807-5.595 0-21.958-17.605-22.04-17.711-1.4-1.805 15.352-33.452 15.352-33.693z" fill="url(#h)" transform="translate(287 58)"/><path d="M297.01 219.11c-9.976-2.85-14.438-8.065-9.626-24.432 9.626-19.26-3.176-17.056-3.176-27.224 0-10.169 25.81-17.348 12.802-30.649-13.008-13.3-13.008-23.057 0-33.136 13.007-10.079 45.515-24.868 22.687-28.033-22.828-3.166 22.184-30.517 50.418-34.098 9.154-24.107 36.503-47.616 91.16-40.12 54.658 7.498 81.818 34.411 87.09 43.69 5.271 9.279-15.592.881-10.376 11.824 5.216 10.943 54.576 41.495 48.812 60.328-5.764 18.834-21.878 13.24-17.924 29.529 3.954 16.288 32.09 32.66 14.357 37.735-17.733 5.075-35.349 9.948-26.54 25.395 8.807 15.448 2.3 30.491-8.33 25.008-10.63-5.484-22.198-15.823-29.155 0-6.957 15.823-26.07-6.018-30.344-13.507-5.826-10.207-18.4-11.775-26.156-7.175-7.756 4.6 1.393 27.72-21.96 23.322-6.811-1.282-26.117-15.065-60.778-18.457-10.375-1.016-25.865 15.005-37.294 9.472-11.43-5.533-.857-22.03-13.714-22.03-12.858 0-21.977 15.407-31.953 12.558z" fill="url(#f)" transform="matrix(-1 0 0 1 1160.253 58)"/><path d="M466.642 219.442c-9.95-2.864-14.401-8.108-9.6-24.565 9.6-19.365 22.759-14.688 60.87-33.375 38.11-18.687 38.595-54.532 66.757-58.133 9.132-24.239-.7 119.484-35.274 116.073-10.348-1.02-25.8 15.088-37.2 9.525-11.4-5.564-.855-22.15-13.68-22.15s-21.922 15.49-31.873 12.625z" fill="url(#i)" transform="matrix(-1 0 0 1 1329.992 58)"/><path d="M504.041 201.14c23.597-3.585 42.006-3.437 59.757 13.601 17.75 17.038 41.672 108.587 52.87 110.698 11.197 2.11 49.157-66.926 52.02-75.91 2.863-8.982 28.706 13.756 29.829 20.127 1.123 6.37-43 94.656-52.339 103.975-9.339 9.318-30.7 24.262-44.614 9.752-9.275-9.673-17.007-19.92-23.195-30.738-65.283-98.615-90.06-149.117-74.328-151.506z" fill="url(#j)" transform="translate(287 58)"/><path d="M446.764 642.721c-26.798-31.187-33.498-69.823-20.099-115.909 20.1-69.129 44.934-91.043 24.43-124.967-13.67-22.616-31.848-55.574-54.533-98.874-41.372 96.154-71.713 139.575-91.024 130.261-28.966-13.97-100.448-83.362-108.965-88.867-8.517-5.504 28.143-22.958 34.966-19.83 6.823 3.13 75.502 63.781 83.701 51.596 8.2-12.184 28.742-115.422 49.154-142.067 20.411-26.645 37.593-23.963 59.631-23.963 19.407 0 56.954-4.787 80.94-9.158 3.251-.593 70.418 51.904 83.103 76.384 8.456 16.32 5.223 41.427-9.699 75.318-1.82 32.482-.856 52.321 2.893 59.518 5.622 10.794 42.048 106.961 43.574 137.052 1.527 30.091-14.838 47.11-62.087 67.153-31.499 13.363-70.16 22.147-115.985 26.353z" fill="url(#k)" transform="translate(287 58)"/><path d="M446.414 642.746c-26.798-31.187-33.498-69.823-20.098-115.91 20.098-69.128 44.933-91.042 24.428-124.966-13.67-22.616-31.846-55.574-54.532-98.874l9.311-20.816c.352 39.217 15.426 63.421 45.221 72.613 44.694 13.787 131.168-28.089 126.85-20.743-4.317 7.345-93.513 54.947-93.513 65.006 0 8.043 53.46-7.123 56.802 0 2.346 5-48.975 30.727-66.952 66.058-17.978 35.331-3.707 123.05 5.103 173.244-6.916 2.076-17.789 3.539-32.62 4.388z" fill="url(#l)" transform="translate(287 58)"/><path d="M433.154 151.86c7.234 23.48 9.15 38.864 5.745 46.154-5.106 10.934-7.792 11.063-14.966 12.143-.512 14.439 22.478 39.763 53.053 45.449 30.576 5.686 57.898-1.89 52.303-19.007-5.596-17.116-21.847-28.9-32.269-34.089-7.165-.523-13.348-8.016-13.348-15.743 0-5.151 2.523-18.45 7.568-39.895l-58.086 4.989z" fill="url(#m)" transform="translate(287 58)"/><path d="M453.524 45.178c-9.741 3.294-17.328 6.516-20.68 12.576-4.588 8.293-10.491 18.895-11.074 24.955-.582 6.06-2.236 12.618-5.565 19.105-3.33 6.488-.58 18.989 2.493 27.957 3.072 8.97 8.449 22.31 8.927 26.649.478 4.34 4.15 15.32 22.219 9.704 18.068-5.617 45.52-18.23 52.156-24.041 4.424-3.874 9.19-11.663 14.3-23.366L492.872 88.59c-12.992-20.557-19.692-30.835-20.1-30.835-.61 0-15.66-13.79-19.248-12.576z" fill="url(#n)" transform="matrix(-1 0 0 1 1217.987 58)"/><path d="M358.56 27.965c5.445 2.41 8.164 6.685 8.157 12.826-.01 9.212-9.65 19.392-9.658 26.721-.008 7.33 15.986 16.489 15.977 24.987-.01 8.498-22.463 31.692-11.264 45.27 11.199 13.58 22.184 23.09 25.285 34.76 3.1 11.669 20.626 31.943 22.998 11.647 2.37-20.297 32.89 21.526 29.82-4.839-3.069-26.365 29.853-48.247 16.622-64.35-13.23-16.105-42.916-4.333-46.992-35.586-2.171-16.645-9.153-39.525-29.533-51.46-3.42-2.003-10.557-1.995-21.412.024z" fill="url(#o)" transform="scale(-1 1) rotate(-17 50.544 3831.167)"/></g></svg>