<?xml version="1.0" encoding="UTF-8"?> <svg xmlns="http://www.w3.org/2000/svg" width="1479" height="1418" viewBox="0 0 1479 1418" fill="none"> <path d="M273.59 128.402C268.083 128.402 262.802 126.208 258.908 122.302C255.015 118.397 252.827 113.099 252.827 107.576V42.3182H155.934V107.576C155.934 113.099 153.747 118.397 149.853 122.302C145.959 126.208 140.678 128.402 135.171 128.402C129.665 128.402 124.384 126.208 120.49 122.302C116.596 118.397 114.409 113.099 114.409 107.576V21.4914C114.409 15.9678 116.596 10.6704 120.49 6.76459C124.384 2.8588 129.665 0.664551 135.171 0.664551L273.59 0.664551C279.096 0.664551 284.377 2.8588 288.271 6.76459C292.165 10.6704 294.353 15.9678 294.353 21.4914V107.576C294.353 113.099 292.165 118.397 288.271 122.302C284.377 126.208 279.096 128.402 273.59 128.402Z" fill="#8080EE"></path> <path d="M273.59 0.664551H204.381V42.3182H252.827V107.576C252.827 113.099 255.015 118.397 258.908 122.302C262.802 126.208 268.083 128.402 273.59 128.402C279.096 128.402 284.378 126.208 288.271 122.302C292.165 118.397 294.353 113.099 294.353 107.576V21.4914C294.353 15.9678 292.165 10.6704 288.271 6.76459C284.378 2.8588 279.096 0.664551 273.59 0.664551V0.664551Z" fill="#5C63E8"></path> <path d="M106.911 296.128H20.8268C15.3032 296.128 10.0058 293.927 6.10004 290.009C2.19425 286.091 0 280.778 0 275.237V275.237V135.964C0 130.424 2.19425 125.11 6.10004 121.192C10.0058 117.274 15.3032 115.073 20.8268 115.073H106.911C112.435 115.073 117.732 117.274 121.638 121.192C125.544 125.11 127.738 130.424 127.738 135.964C127.738 141.505 125.544 146.818 121.638 150.736C117.732 154.654 112.435 156.855 106.911 156.855H41.6537V254.346H106.911C112.435 254.346 117.732 256.547 121.638 260.465C125.544 264.383 127.738 269.696 127.738 275.237C127.738 280.778 125.544 286.091 121.638 290.009C117.732 293.927 112.435 296.128 106.911 296.128Z" fill="#8080EE"></path> <path d="M508.368 288.353L413.231 169.361L318.108 288.339L285.467 262.232L396.917 122.849H429.558L518.607 234.216L561.014 128.145L599.813 143.673L544.088 283.056L508.368 288.353Z" fill="#5C63E8"></path> <path d="M635.307 518.281C631.601 518.281 627.903 517.96 624.252 517.321C611.816 514.971 600.378 508.888 591.44 499.871C582.502 490.854 576.483 479.325 574.173 466.8C571.605 452.709 573.926 438.158 580.747 425.586C587.568 413.014 598.473 403.185 611.635 397.746C613.349 397.036 614.648 394.518 614.648 391.902V274.79C614.648 269.254 616.832 263.946 620.719 260.032C624.606 256.118 629.879 253.919 635.376 253.919C640.873 253.919 646.146 256.118 650.033 260.032C653.92 263.946 656.104 269.254 656.104 274.79V391.944C656.104 411.687 644.869 429.121 627.472 436.37C624.001 437.812 620.984 440.176 618.743 443.209C616.503 446.243 615.122 449.832 614.75 453.594C614.378 457.356 615.027 461.149 616.629 464.568C618.231 467.988 620.725 470.904 623.846 473.007C626.966 475.11 630.595 476.321 634.345 476.509C638.095 476.697 641.825 475.856 645.137 474.076C648.45 472.295 651.219 469.642 653.151 466.4C655.082 463.159 656.103 459.449 656.104 455.669C656.104 450.133 658.288 444.825 662.175 440.911C666.062 436.997 671.335 434.798 676.832 434.798C682.329 434.798 687.602 436.997 691.489 440.911C695.376 444.825 697.56 450.133 697.56 455.669C697.56 463.891 695.952 472.033 692.827 479.629C689.701 487.226 685.121 494.128 679.347 499.942C673.572 505.756 666.717 510.368 659.173 513.515C651.628 516.661 643.542 518.281 635.376 518.281H635.307Z" fill="black"></path> <path d="M691.146 296.128H301.877C296.346 296.128 291.042 293.927 287.131 290.009C283.221 286.091 281.023 280.778 281.023 275.237C281.023 269.696 283.221 264.383 287.131 260.465C291.042 256.547 296.346 254.346 301.877 254.346H670.293V229.973L572.975 156.855H301.877C296.346 156.855 291.042 154.654 287.131 150.736C283.221 146.818 281.023 141.505 281.023 135.964C281.023 130.424 283.221 125.11 287.131 121.192C291.042 117.274 296.346 115.073 301.877 115.073H579.927C584.439 115.073 588.829 116.539 592.439 119.251L703.659 202.815C706.249 204.761 708.351 207.284 709.798 210.185C711.246 213.086 712 216.285 712 219.528V275.237C712 280.778 709.803 286.091 705.892 290.009C701.981 293.927 696.677 296.128 691.146 296.128Z" fill="#8080EE"></path> <path d="M261.808 624.914L122.184 523.168V489.609L238.77 404.65L122.184 319.704L146.953 286.131L286.577 387.877V421.436L169.977 506.396L286.577 591.341L261.808 624.914Z" fill="#8080EE"></path> <path d="M286.577 591.398L204.381 531.61V583.13L261.822 624.914L286.577 591.398Z" fill="#5C63E8"></path> <path d="M204.381 379.93L238.784 404.976L204.381 430.036V481.626L286.577 421.756V388.209L204.381 328.34V379.93Z" fill="#5C63E8"></path> <path d="M253.254 281.688H294.353V629.357H253.254V281.688Z" fill="#5C63E8"></path> <path d="M114.409 281.688H155.507V629.357H114.409V281.688Z" fill="#8080EE"></path> <path d="M301.344 323.897H107.417C101.907 323.897 96.6219 321.698 92.7253 317.783C88.8287 313.868 86.6396 308.558 86.6396 303.021V108.18C86.6396 102.643 88.8287 97.3336 92.7253 93.4186C96.6219 89.5036 101.907 87.3042 107.417 87.3042H301.344C306.855 87.3042 312.139 89.5036 316.036 93.4186C319.933 97.3336 322.122 102.643 322.122 108.18V303.021C322.122 308.558 319.933 313.868 316.036 317.783C312.139 321.698 306.855 323.897 301.344 323.897Z" fill="#D4E1F4"></path> <path d="M301.344 87.3042H204.381V323.897H301.344C306.854 323.897 312.139 321.698 316.036 317.783C319.933 313.868 322.122 308.558 322.122 303.021V108.18C322.122 102.643 319.933 97.3336 316.036 93.4186C312.139 89.5036 306.854 87.3042 301.344 87.3042Z" fill="#D4E1F4"></path> <path d="M343.468 1418H65.2937C59.7605 1418 54.4539 1415.79 50.5413 1411.87C46.6287 1407.94 44.4307 1402.61 44.4307 1397.05V1369.13C44.4307 1356.16 49.5595 1343.73 58.6888 1334.57C67.8182 1325.4 80.2003 1320.25 93.1111 1320.25H315.65C328.561 1320.25 340.943 1325.4 350.073 1334.57C359.202 1343.73 364.331 1356.16 364.331 1369.13V1369.13V1397.05C364.331 1402.61 362.133 1407.94 358.22 1411.87C354.308 1415.79 349.001 1418 343.468 1418V1418Z" fill="#D4E1F4"></path> <path d="M315.65 1320.25H204.381V1418H343.468C349.001 1418 354.307 1415.79 358.22 1411.87C362.133 1407.94 364.331 1402.61 364.331 1397.05V1397.05V1369.13C364.331 1356.16 359.202 1343.73 350.072 1334.57C340.943 1325.4 328.561 1320.25 315.65 1320.25V1320.25Z" fill="#B3C8E2"></path> <path d="M261.808 972.583L122.184 870.838V837.278L238.77 752.319L122.184 667.373L146.953 633.8L286.577 735.546V769.105L169.977 854.065L286.577 939.01L261.808 972.583Z" fill="#8080EE"></path> <path d="M286.577 939.068L204.381 879.279V930.799L261.822 972.583L286.577 939.068Z" fill="#5C63E8"></path> <path d="M204.381 727.599L238.784 752.645L204.381 777.705V829.295L286.577 769.426V735.878L204.381 676.009V727.599Z" fill="#5C63E8"></path> <path d="M253.254 629.357H294.353V977.026H253.254V629.357Z" fill="#5C63E8"></path> <path d="M114.409 629.357H155.507V977.026H114.409V629.357Z" fill="#8080EE"></path> <path d="M261.808 1320.25L122.184 1218.51V1184.95L238.77 1099.99L122.184 1015.04L146.953 981.47L286.577 1083.22V1116.77L169.977 1201.73L286.577 1286.68L261.808 1320.25Z" fill="#8080EE"></path> <path d="M286.577 1286.74L204.381 1226.95V1278.47L261.822 1320.25L286.577 1286.74Z" fill="#5C63E8"></path> <path d="M204.381 1075.27L238.784 1100.31L204.381 1125.37V1176.96L286.577 1117.09V1083.55L204.381 1023.68V1075.27Z" fill="#5C63E8"></path> <path d="M253.254 977.026H294.353V1324.7H253.254V977.026Z" fill="#5C63E8"></path> <path d="M114.409 977.026H155.507V1324.7H114.409V977.026Z" fill="#8080EE"></path> <path fill-rule="evenodd" clip-rule="evenodd" d="M1030.37 1237.21L1046.26 1292.83C1052.38 1314.28 1075.64 1331.82 1097.94 1331.82L1077.67 1341.95L1062.86 1334.55L1067.53 1341.95H831.7V1331.82C853.999 1331.82 877.258 1314.28 883.38 1292.83L887.692 1277.76L899.274 1237.21L964.821 1196.67L1030.37 1237.21Z" fill="#5C63E8"></path> <path d="M1174.3 1352.09H755.341C749.743 1352.09 745.205 1347.55 745.205 1341.95C745.205 1336.36 749.743 1331.82 755.341 1331.82H1174.3C1179.9 1331.82 1184.44 1336.36 1184.44 1341.95C1184.44 1347.55 1179.9 1352.09 1174.3 1352.09Z" fill="#5C63E8"></path> <rect x="540" y="586" width="827" height="661" rx="26" fill="#8080EE"></rect> <path d="M953 634C961.837 634 969 626.837 969 618C969 609.163 961.837 602 953 602C944.163 602 937 609.163 937 618C937 626.837 944.163 634 953 634Z" fill="black"></path> <path d="M1295 646H540V1212H1295V646Z" fill="#D4E1F4"></path> <path d="M1367 646H1295V1212H1367V646Z" fill="#B3C8E2"></path> <path d="M700 1031C700 1012.22 684.778 997 666 997H586C578.268 997 572 1003.27 572 1011V1212H666C684.778 1212 700 1196.78 700 1178V1031Z" fill="#ABBDD4"></path> <path d="M572 1212H627V1247H572V1212Z" fill="#5C63E8"></path> <path d="M769.551 1351.67H586.619C585.175 1351.67 583.789 1351.09 582.768 1350.07C581.746 1349.05 581.172 1347.67 581.17 1346.22V1002.32C581.18 1000.87 581.758 999.495 582.777 998.475C583.797 997.455 585.177 996.878 586.619 996.868H769.551C770.993 996.878 772.373 997.455 773.393 998.475C774.413 999.495 774.99 1000.87 775 1002.32V1346.22C774.999 1347.67 774.424 1349.05 773.402 1350.07C772.381 1351.09 770.996 1351.67 769.551 1351.67V1351.67Z" fill="#8080EE"></path> <path d="M678.085 1334.46C687.865 1334.46 695.792 1326.53 695.792 1316.75C695.792 1306.97 687.865 1299.04 678.085 1299.04C668.306 1299.04 660.378 1306.97 660.378 1316.75C660.378 1326.53 668.306 1334.46 678.085 1334.46Z" fill="black"></path> <path d="M775 1048.48H581.176V1280.88H775V1048.48Z" fill="#D4E1F4"></path> <path d="M775 1048.48H738.916V1280.88H775V1048.48Z" fill="#B3C8E2"></path> <path d="M685.158 1018.37H671.012C669.621 1018.41 668.301 1019 667.333 1020C666.364 1021 665.823 1022.33 665.823 1023.73C665.823 1025.12 666.364 1026.45 667.333 1027.45C668.301 1028.45 669.621 1029.04 671.012 1029.08H685.158C685.862 1029.11 686.563 1028.99 687.222 1028.74C687.881 1028.49 688.484 1028.12 688.998 1027.64C689.511 1027.15 689.925 1026.58 690.215 1025.94C690.506 1025.29 690.667 1024.6 690.689 1023.9C690.712 1023.19 690.596 1022.49 690.348 1021.83C690.099 1021.18 689.724 1020.57 689.242 1020.06C688.761 1019.54 688.183 1019.13 687.541 1018.84C686.9 1018.55 686.208 1018.39 685.504 1018.37H685.158Z" fill="black"></path> <path d="M706.234 1029.52C709.435 1029.52 712.029 1026.92 712.029 1023.72C712.029 1020.52 709.435 1017.93 706.234 1017.93C703.034 1017.93 700.44 1020.52 700.44 1023.72C700.44 1026.92 703.034 1029.52 706.234 1029.52Z" fill="black"></path> <path d="M1041 1212H1096V1247H1041V1212Z" fill="#5C63E8"></path> <path d="M1258 815C1258 796.223 1242.78 781 1224 781H1055C1047.27 781 1041 787.268 1041 795V1212H1224C1242.78 1212 1258 1196.78 1258 1178V815Z" fill="#ABBDD4"></path> <path d="M1467.26 1352H1073.03C1069.92 1352 1066.93 1351.05 1064.73 1349.37C1062.53 1347.68 1061.29 1345.4 1061.29 1343.02V779.319C1061.29 773.308 1061.91 770.029 1064.41 768.39C1066.61 766.71 1069.92 767.314 1073.03 767.297H1467.26C1470.37 767.314 1473.34 768.265 1475.54 769.945C1477.73 771.626 1478.98 773.9 1479 776.276V1343.02C1479 1345.4 1477.76 1347.68 1475.56 1349.37C1473.36 1351.05 1470.37 1352 1467.26 1352Z" fill="#8080EE"></path> <path d="M1270.26 1334.52C1280.22 1334.52 1288.29 1326.46 1288.29 1316.5C1288.29 1306.55 1280.22 1298.48 1270.26 1298.48C1260.31 1298.48 1252.24 1306.55 1252.24 1316.5C1252.24 1326.46 1260.31 1334.52 1270.26 1334.52Z" fill="black"></path> <path d="M1415.75 823.297H1061.29V1279.2H1415.75V823.297Z" fill="#D4E1F4"></path> <path d="M1479 823.346H1415.65V1278.82H1479V823.346Z" fill="#B3C8E2"></path> <path d="M1265.83 792.169H1249.78C1248.2 792.219 1246.7 792.882 1245.6 794.016C1244.5 795.151 1243.89 796.669 1243.89 798.248C1243.89 799.828 1244.5 801.346 1245.6 802.48C1246.7 803.615 1248.2 804.278 1249.78 804.328H1265.83C1266.63 804.354 1267.42 804.222 1268.17 803.94C1268.92 803.659 1269.6 803.232 1270.18 802.686C1270.77 802.14 1271.24 801.484 1271.57 800.756C1271.89 800.028 1272.08 799.243 1272.1 798.444C1272.13 797.646 1272 796.85 1271.72 796.103C1271.43 795.355 1271.01 794.671 1270.46 794.088C1269.91 793.505 1269.26 793.036 1268.53 792.706C1267.8 792.377 1267.02 792.194 1266.22 792.169H1265.83Z" fill="black"></path> <path d="M1289.74 804.82C1293.37 804.82 1296.32 801.876 1296.32 798.245C1296.32 794.614 1293.37 791.671 1289.74 791.671C1286.11 791.671 1283.17 794.614 1283.17 798.245C1283.17 801.876 1286.11 804.82 1289.74 804.82Z" fill="black"></path> </svg> 