<svg width="600" height="500" xmlns="http://www.w3.org/2000/svg" xmlns:xlink="http://www.w3.org/1999/xlink"><defs><path d="M14.445 31.16c.553 0 1.047-.095 1.48-.285.433-.19.8-.452 1.1-.785.3-.333.53-.725.69-1.175.16-.45.24-.935.24-1.455 0-.533-.08-1.028-.24-1.485a3.567 3.567 0 00-.69-1.195c-.3-.34-.667-.607-1.1-.8-.433-.193-.927-.29-1.48-.29-.547 0-1.038.097-1.475.29-.437.193-.805.46-1.105.8-.3.34-.53.738-.69 1.195-.16.457-.24.952-.24 1.485 0 .52.08 1.005.24 1.455.16.45.39.842.69 1.175.3.333.668.595 1.105.785.437.19.928.285 1.475.285zm0-1.31c-.353 0-.653-.068-.9-.205a1.717 1.717 0 01-.6-.545 2.365 2.365 0 01-.335-.765 3.635 3.635 0 01-.105-.875c0-.313.035-.617.105-.91a2.41 2.41 0 01.335-.785 1.7 1.7 0 01.6-.55c.247-.137.547-.205.9-.205s.653.068.9.205a1.7 1.7 0 01.6.55c.153.23.265.492.335.785.07.293.105.597.105.91 0 .3-.035.592-.105.875-.07.283-.182.538-.335.765a1.717 1.717 0 01-.6.545c-.247.137-.547.205-.9.205zm6.88 1.28c.687 0 1.25-.18 1.69-.54.44-.36.707-.883.8-1.57h-1.37c-.047.32-.162.575-.345.765-.183.19-.445.285-.785.285-.22 0-.407-.05-.56-.15a1.12 1.12 0 01-.365-.385 1.763 1.763 0 01-.195-.525 2.809 2.809 0 010-1.155c.04-.197.108-.377.205-.54.097-.163.222-.297.375-.4a.997.997 0 01.57-.155c.607 0 .957.297 1.05.89h1.39c-.02-.333-.1-.622-.24-.865a1.954 1.954 0 00-.545-.61 2.362 2.362 0 00-.76-.365 3.241 3.241 0 00-.885-.12c-.42 0-.793.07-1.12.21-.327.14-.603.335-.83.585-.227.25-.398.547-.515.89a3.444 3.444 0 00-.175 1.115c0 .387.063.742.19 1.065.127.323.303.602.53.835.227.233.502.415.825.545.323.13.678.195 1.065.195zm5.3-.08c.14 0 .283-.003.43-.01.147-.007.28-.02.4-.04v-1.1a2.542 2.542 0 01-.44.04c-.24 0-.4-.04-.48-.12-.08-.08-.12-.24-.12-.48v-2.56h1.04v-.95h-1.04v-1.55h-1.42v1.55h-.86v.95h.86v3.05c0 .26.043.47.13.63a.93.93 0 00.355.37c.15.087.323.145.52.175s.405.045.625.045zm4.02.08c.407 0 .775-.063 1.105-.19a2.35 2.35 0 00.845-.545 2.43 2.43 0 00.54-.855c.127-.333.19-.707.19-1.12 0-.413-.063-.788-.19-1.125a2.421 2.421 0 00-.54-.86 2.41 2.41 0 00-.845-.55 2.992 2.992 0 00-1.105-.195c-.407 0-.773.065-1.1.195a2.42 2.42 0 00-.84.55 2.421 2.421 0 00-.54.86c-.127.337-.19.712-.19 1.125 0 .413.063.787.19 1.12.127.333.307.618.54.855.233.237.513.418.84.545.327.127.693.19 1.1.19zm0-1.06c-.24 0-.44-.047-.6-.14a1.092 1.092 0 01-.385-.375 1.612 1.612 0 01-.205-.53 3.103 3.103 0 010-1.215c.04-.2.108-.377.205-.53a1.16 1.16 0 01.385-.375c.16-.097.36-.145.6-.145s.442.048.605.145c.163.097.293.222.39.375.097.153.165.33.205.53a3.103 3.103 0 010 1.215c-.04.197-.108.373-.205.53a1.08 1.08 0 01-.39.375c-.163.093-.365.14-.605.14zm6.67 1.06a1.968 1.968 0 001.455-.65 2.52 2.52 0 00.495-.845c.127-.343.19-.752.19-1.225 0-.473-.063-.882-.19-1.225a2.506 2.506 0 00-.495-.845 1.972 1.972 0 00-1.455-.65c-.32 0-.628.062-.925.185a1.515 1.515 0 00-.705.585h-.02v-2.6h-1.42V31h1.35v-.66h.02c.153.287.38.49.68.61.3.12.64.18 1.02.18zm-.49-1.06a1.047 1.047 0 01-.92-.5 1.65 1.65 0 01-.22-.53 2.72 2.72 0 01-.07-.62c0-.22.023-.43.07-.63.047-.2.12-.377.22-.53a1.047 1.047 0 01.92-.5c.213 0 .395.045.545.135.15.09.275.212.375.365.1.153.173.33.22.53.047.2.07.41.07.63 0 .213-.023.42-.07.62-.047.2-.12.377-.22.53-.1.153-.225.275-.375.365a1.04 1.04 0 01-.545.135zm5.92 1.06c.587 0 1.087-.133 1.5-.4.413-.267.72-.71.92-1.33h-1.25c-.047.16-.173.312-.38.455a1.266 1.266 0 01-.74.215c-.4 0-.707-.103-.92-.31-.213-.207-.33-.54-.35-1h3.73a3.65 3.65 0 00-.1-1.15 2.815 2.815 0 00-.455-.98 2.295 2.295 0 00-.805-.685c-.327-.17-.71-.255-1.15-.255-.393 0-.752.07-1.075.21-.323.14-.602.332-.835.575a2.534 2.534 0 00-.54.865c-.127.333-.19.693-.19 1.08 0 .4.062.767.185 1.1.123.333.298.62.525.86.227.24.503.425.83.555.327.13.693.195 1.1.195zm1.09-3.27h-2.31c.007-.1.028-.213.065-.34a1.044 1.044 0 01.55-.645 1.23 1.23 0 01.565-.115c.347 0 .605.093.775.28.17.187.288.46.355.82zm3.68 3.14v-2.33c0-.233.023-.45.07-.65.047-.2.125-.375.235-.525.11-.15.255-.268.435-.355.18-.087.4-.13.66-.13a2.727 2.727 0 01.51.05v-1.32a1.107 1.107 0 00-.31-.05c-.18 0-.353.027-.52.08a1.906 1.906 0 00-.47.225 1.769 1.769 0 00-.66.795h-.02v-.96h-1.35V31h1.42z" id="a"/><path d="M29.37 58v-3.66h-9.93c.52-.72 1.12-1.35 1.8-1.89.68-.54 1.38-1.045 2.1-1.515.72-.47 1.435-.945 2.145-1.425.71-.48 1.345-1.015 1.905-1.605a7.17 7.17 0 001.35-2.025c.34-.76.51-1.67.51-2.73 0-1.02-.195-1.94-.585-2.76a6.126 6.126 0 00-1.575-2.07 7.07 7.07 0 00-2.295-1.29 8.36 8.36 0 00-2.745-.45c-1.26 0-2.375.215-3.345.645a6.523 6.523 0 00-2.415 1.8c-.64.77-1.12 1.67-1.44 2.7-.32 1.03-.46 2.145-.42 3.345h4.08c0-.56.055-1.125.165-1.695.11-.57.295-1.09.555-1.56.26-.47.605-.85 1.035-1.14.43-.29.955-.435 1.575-.435.92 0 1.675.285 2.265.855.59.57.885 1.365.885 2.385 0 .64-.145 1.21-.435 1.71-.29.5-.65.95-1.08 1.35-.43.4-.905.765-1.425 1.095-.52.33-1.01.655-1.47.975-.9.62-1.755 1.23-2.565 1.83-.81.6-1.515 1.255-2.115 1.965a8.462 8.462 0 00-1.425 2.415c-.35.9-.525 1.96-.525 3.18h15.42zm8.97.39c1.02 0 2-.15 2.94-.45.94-.3 1.77-.74 2.49-1.32.72-.58 1.295-1.3 1.725-2.16.43-.86.645-1.84.645-2.94 0-1.2-.33-2.23-.99-3.09-.66-.86-1.57-1.42-2.73-1.68v-.06c.98-.28 1.715-.81 2.205-1.59s.735-1.68.735-2.7c0-.94-.21-1.77-.63-2.49a6.09 6.09 0 00-1.635-1.83 7.173 7.173 0 00-2.265-1.125 8.795 8.795 0 00-2.52-.375c-1.08 0-2.06.175-2.94.525-.88.35-1.635.845-2.265 1.485a6.748 6.748 0 00-1.47 2.295c-.35.89-.545 1.875-.585 2.955h4.05c-.02-1.08.245-1.975.795-2.685s1.365-1.065 2.445-1.065c.78 0 1.47.24 2.07.72.6.48.9 1.17.9 2.07 0 .6-.145 1.08-.435 1.44-.29.36-.66.635-1.11.825-.45.19-.935.305-1.455.345-.52.04-1.01.04-1.47 0v3c.52 0 1.065.015 1.635.045.57.03 1.095.14 1.575.33s.875.495 1.185.915c.31.42.465 1.03.465 1.83 0 1.02-.33 1.825-.99 2.415-.66.59-1.47.885-2.43.885-.62 0-1.155-.11-1.605-.33a3.281 3.281 0 01-1.125-.885c-.3-.37-.53-.81-.69-1.32a6.06 6.06 0 01-.27-1.605h-4.05c-.02 1.22.155 2.3.525 3.24.37.94.895 1.735 1.575 2.385.68.65 1.505 1.145 2.475 1.485.97.34 2.045.51 3.225.51z" id="b"/><path id="c" d="M0 0h24v24H0z"/></defs><g fill="none" fill-rule="evenodd"><path d="M72 452c-110.413-80.338-46.42-273.222 29-327 75.42-53.778 354-113 442-50s27.426 333.52 0 377c-46 0-357 2-471 0z" fill="#F7F8FC" fill-rule="nonzero"/><path d="M284 106h198c8.837 0 16 7.163 16 16v313c0 8.837-7.163 16-16 16H284c-8.837 0-16-7.163-16-16V122c0-8.837 7.163-16 16-16z" fill="#D9DBF1" fill-rule="nonzero"/><g fill-rule="nonzero" transform="translate(268 106)"><path d="M16 0h198c8.837 0 16 7.163 16 16v16H0V16C0 7.163 7.163 0 16 0z" fill="#020887"/><circle fill="#FFF" cx="16" cy="16" r="4"/><circle fill="#FFF" cx="29" cy="16" r="4"/><circle fill="#FFF" cx="42" cy="16" r="4"/></g><path d="M295 154h176a8 8 0 018 8v24a8 8 0 01-8 8H295a8 8 0 01-8-8v-24a8 8 0 018-8z" fill="#FFF"/><path d="M304.488 178v-9.8h-1.582a2.164 2.164 0 01-.35.938 2.13 2.13 0 01-.651.609 2.611 2.611 0 01-.868.322c-.322.06-.656.086-1.001.077v1.498h2.464V178h1.988z" fill="#9999CF" fill-rule="nonzero"/><path d="M322 165h78a3 3 0 010 6h-78a3 3 0 010-6z" fill="#D9DBF1" fill-rule="nonzero"/><path d="M322 177h64a3 3 0 010 6h-64a3 3 0 010-6z" fill="#F0F1F9" fill-rule="nonzero"/><g transform="translate(287 202)"><rect fill="#FFF" width="192" height="40" rx="8"/><path d="M35 11h87a3 3 0 010 6H35a3 3 0 010-6z" fill="#D9DBF1" fill-rule="nonzero"/><path d="M19.598 25v-1.708h-4.634c.243-.336.523-.63.84-.882.317-.252.644-.488.98-.707.336-.22.67-.441 1.001-.665.331-.224.628-.474.889-.749s.471-.59.63-.945c.159-.355.238-.78.238-1.274 0-.476-.091-.905-.273-1.288a2.859 2.859 0 00-.735-.966 3.3 3.3 0 00-1.071-.602 3.902 3.902 0 00-1.281-.21c-.588 0-1.108.1-1.561.301-.453.2-.828.48-1.127.84-.299.36-.523.78-.672 1.26a4.702 4.702 0 00-.196 1.561h1.904c0-.261.026-.525.077-.791a2.45 2.45 0 01.259-.728 1.5 1.5 0 01.483-.532c.2-.135.446-.203.735-.203.43 0 .782.133 1.057.399.275.266.413.637.413 1.113 0 .299-.068.565-.203.798a2.721 2.721 0 01-.504.63c-.2.187-.422.357-.665.511-.243.154-.471.306-.686.455-.42.29-.819.574-1.197.854a5.83 5.83 0 00-.987.917c-.28.331-.502.707-.665 1.127-.163.42-.245.915-.245 1.484h7.196z" fill="#9999CF" fill-rule="nonzero"/><path d="M35 23h67a3 3 0 010 6H35a3 3 0 010-6z" fill="#F0F1F9" fill-rule="nonzero"/></g><g transform="translate(287 250)"><rect fill="#FFF" width="192" height="40" rx="8"/><path d="M35 11h87a3 3 0 010 6H35a3 3 0 010-6z" fill="#D9DBF1" fill-rule="nonzero"/><path d="M16 25.182c.476 0 .933-.07 1.372-.21.439-.14.826-.345 1.162-.616.336-.27.604-.607.805-1.008.2-.401.301-.859.301-1.372 0-.56-.154-1.04-.462-1.442-.308-.401-.733-.663-1.274-.784v-.028c.457-.13.8-.378 1.029-.742.229-.364.343-.784.343-1.26 0-.439-.098-.826-.294-1.162a2.842 2.842 0 00-.763-.854 3.347 3.347 0 00-1.057-.525 4.104 4.104 0 00-1.176-.175c-.504 0-.961.082-1.372.245-.41.163-.763.394-1.057.693a3.15 3.15 0 00-.686 1.071 4.165 4.165 0 00-.273 1.379h1.89c-.01-.504.114-.922.371-1.253.257-.331.637-.497 1.141-.497.364 0 .686.112.966.336.28.224.42.546.42.966 0 .28-.068.504-.203.672a1.303 1.303 0 01-.518.385 2.16 2.16 0 01-.679.161 4.205 4.205 0 01-.686 0v1.4c.243 0 .497.007.763.021.266.014.511.065.735.154.224.089.408.231.553.427.145.196.217.48.217.854 0 .476-.154.852-.462 1.127-.308.275-.686.413-1.134.413a1.69 1.69 0 01-.749-.154 1.531 1.531 0 01-.525-.413 1.842 1.842 0 01-.322-.616 2.828 2.828 0 01-.126-.749h-1.89c-.01.57.072 1.073.245 1.512.173.439.418.81.735 1.113a3.16 3.16 0 001.155.693c.453.159.954.238 1.505.238z" fill="#9999CF" fill-rule="nonzero"/><path d="M35 23h67a3 3 0 010 6H35a3 3 0 010-6z" fill="#F0F1F9" fill-rule="nonzero"/></g><g transform="translate(287 298)"><rect fill="#FFF" width="192" height="40" rx="8"/><path d="M35 11h87a3 3 0 010 6H35a3 3 0 010-6z" fill="#D9DBF1" fill-rule="nonzero"/><path d="M18.366 25v-2.268h1.302v-1.638h-1.302V15.2h-1.778l-4.256 5.712v1.82h4.144V25h1.89zm-1.89-3.906H13.9l2.534-3.402h.042v3.402z" fill="#9999CF" fill-rule="nonzero"/><path d="M35 23h67a3 3 0 010 6H35a3 3 0 010-6z" fill="#F0F1F9" fill-rule="nonzero"/></g><g transform="translate(287 346)"><rect fill="#FFF" width="192" height="40" rx="8"/><path d="M35 11h87a3 3 0 010 6H35a3 3 0 010-6z" fill="#D9DBF1" fill-rule="nonzero"/><path d="M16 25.182a3.58 3.58 0 001.4-.245 3.51 3.51 0 001.946-1.862c.196-.434.294-.903.294-1.407a4.08 4.08 0 00-.203-1.295 3.11 3.11 0 00-.588-1.057 2.829 2.829 0 00-.945-.714 2.969 2.969 0 00-1.288-.266c-.392 0-.742.058-1.05.175a2.47 2.47 0 00-.868.581l-.028-.028.392-2.226h4.046V15.2h-5.474l-.966 5.418h1.792c.196-.27.406-.469.63-.595.224-.126.513-.189.868-.189.27 0 .509.047.714.14.205.093.383.224.532.392.15.168.261.364.336.588a2.243 2.243 0 01-.007 1.421 1.89 1.89 0 01-.336.602 1.686 1.686 0 01-.532.42 1.53 1.53 0 01-.707.161c-.448 0-.817-.133-1.106-.399-.29-.266-.457-.623-.504-1.071H12.36c.01.513.114.964.315 1.351.2.387.469.712.805.973.336.261.721.455 1.155.581.434.126.889.189 1.365.189z" fill="#9999CF" fill-rule="nonzero"/><path d="M35 23h67a3 3 0 010 6H35a3 3 0 010-6z" fill="#F0F1F9" fill-rule="nonzero"/></g><g transform="translate(287 394)"><rect fill="#FFF" width="192" height="40" rx="8"/><path d="M35 11h87a3 3 0 010 6H35a3 3 0 010-6z" fill="#D9DBF1" fill-rule="nonzero"/><path d="M16.168 25.182c.513 0 .98-.091 1.4-.273.42-.182.782-.434 1.085-.756.303-.322.537-.7.7-1.134a3.97 3.97 0 00.245-1.407 3.8 3.8 0 00-.182-1.162 2.837 2.837 0 00-.574-1.022 3.083 3.083 0 00-1.022-.735 2.954 2.954 0 00-1.232-.273c-.476 0-.896.084-1.26.252-.364.168-.681.448-.952.84l-.028-.028c.01-.27.047-.579.112-.924a4.14 4.14 0 01.308-.973c.14-.303.329-.56.567-.77.238-.21.534-.315.889-.315.345 0 .635.121.868.364.233.243.383.527.448.854h1.89a3.39 3.39 0 00-.35-1.162 2.715 2.715 0 00-.686-.847 3.022 3.022 0 00-.966-.525 3.696 3.696 0 00-1.176-.182c-.7 0-1.293.154-1.778.462a3.785 3.785 0 00-1.19 1.197 5.308 5.308 0 00-.672 1.645 8.07 8.07 0 00-.21 1.82c0 .625.056 1.239.168 1.841.112.602.313 1.141.602 1.617.29.476.677.861 1.162 1.155.485.294 1.097.441 1.834.441zm-.056-1.624c-.252 0-.476-.051-.672-.154a1.52 1.52 0 01-.497-.413 1.861 1.861 0 01-.308-.588 2.175 2.175 0 01-.105-.665c0-.243.033-.474.098-.693a1.75 1.75 0 01.294-.581c.13-.168.296-.301.497-.399.2-.098.432-.147.693-.147a1.336 1.336 0 011.134.581c.121.173.212.369.273.588.06.22.091.446.091.679 0 .224-.033.443-.098.658a1.76 1.76 0 01-.294.574c-.13.168-.287.303-.469.406a1.275 1.275 0 01-.637.154z" fill="#9999CF" fill-rule="nonzero"/><path d="M35 23h67a3 3 0 010 6H35a3 3 0 010-6z" fill="#F0F1F9" fill-rule="nonzero"/></g><g transform="translate(130 86)"><rect width="60" height="62" rx="4" fill="#000" fill-rule="nonzero" transform="translate(0 6)"/><rect width="60" height="62" rx="4" fill="#FFF" transform="translate(0 6)"/><path d="M4 6h52a4 4 0 014 4v6H0v-6a4 4 0 014-4z" fill="#D9DBF1"/><rect fill="#D9DBF1" x="11.25" width="5.625" height="12" rx="2.813"/><rect fill="#D9DBF1" x="43.125" width="5.625" height="12" rx="2.813"/><g fill-rule="nonzero"><use fill="#000" xlink:href="#a"/><use fill="#D9DBF1" xlink:href="#a"/></g><g fill-rule="nonzero"><use fill="#000" xlink:href="#b"/><use fill="#D9DBF1" xlink:href="#b"/></g></g><g transform="translate(157.858 258.75)" fill-rule="nonzero"><path fill="#E1E2F4" d="M43 43h8v142h-8z"/><ellipse fill="#D9DBF1" cx="47" cy="190" rx="30" ry="4"/><ellipse fill="#FFF" cx="47" cy="186" rx="30" ry="4"/><path d="M26.832 3h55.833a2 2 0 011.92 2.56l-22.165 76A2 2 0 0160.5 83H4.667a2 2 0 01-1.92-2.56l22.165-76A2 2 0 0126.832 3z" fill="#D9DBF1"/><path d="M24.832 0h55.833a2 2 0 011.92 2.56l-22.165 76A2 2 0 0158.5 80H2.667a2 2 0 01-1.92-2.56l22.165-76A2 2 0 0124.832 0z" fill="#FFF"/><path fill="#010786" d="M25.999 8h50L57.333 72h-50z"/><path fill="#FFF" d="M34.874 29h20l-1.458 5h-20zm-2.624 9h20l-1.459 5h-20z"/><path fill="#9999CF" d="M29.624 47h20l-1.458 5h-20z"/></g><g fill-rule="nonzero" transform="translate(182 200)"><rect fill="#FA3" width="42" height="42" rx="4"/><path d="M13.929 42L21 34.929 28.071 42l-6.364 6.364a1 1 0 01-1.414 0L13.929 42z" fill="#FDB219"/></g><g transform="translate(191 210)"><mask id="d" fill="#fff"><use xlink:href="#c"/></mask><path d="M12 2C6.5 2 2 6.5 2 12s4.5 10 10 10 10-4.5 10-10S17.5 2 12 2zm4.2 14.2L11 13V7h1.5v5.2l4.5 2.7-.8 1.3z" fill="#FFF" fill-rule="nonzero" mask="url(#d)"/></g><g fill-rule="nonzero"><path fill="#FFCACC" d="M124.858 233.75l-2 15-15-3 7-20z"/><path d="M131.26 238.487c-3.625 3.618-15.707-1.206-19.332-6.03s-4.965-15.888 1.208-21.707c6.173-5.82 19.333-4.824 21.749 0 2.417 4.824 0 24.119-3.625 27.737z" fill="#FFCACC"/><path d="M121.775 231.346c-.816 2.69-8.442 5.963-10.854 3.578-2.412-2.385-6.03-14.312-4.824-17.89.804-2.385 2.01-3.975 3.618-4.77-.571-1.676.476-3.514 3.143-5.514 4-3 17.745-.766 21 0 3.254.766 4.8 5.514 3.595 7.899-1.206 2.385-8.277 2.091-10.854 3.578-2.577 1.486-2.189.883-3.618 4.77-1.43 3.888-.39 5.659-1.206 8.349z" fill="#2E0E02"/><path d="M121.41 232.61c-2.342-1.241-3.814-3.056-3.513-4.968.3-1.911 2.342-3.726 4.684-2.484s1.171 8.695-1.171 7.453zm42.448 59.14c2-1 11.134-2.761 15 0 3.865 2.761 2.597 8.602 1 10-1.065.932-4.065-.068-9-3-3.826-.156-6.16-.823-7-2-1.261-1.766-2-4 0-5z" fill="#FFCACC"/><path d="M108.858 432.75c0 4 .666 7 2 9 2 3 17 3 15 9h-25c-.667-4.667-.334-10.333 1-17l7-1z" fill="#1A1423"/><path d="M127.858 433.75c0 4.667.666 7.667 2 9 2 2 17 1 16 8h-29c-1.334-4 0-10.333 4-19l7 2z" fill="#1A1423"/><path d="M100.858 325.75c6-11 22-8 25-1 2 4.667-1 26.333-9 65l-6 47h-11c-1.334-27.333-.667-43.667 2-49-2-20-7-51-1-62z" fill="#008"/><path d="M100.858 326.75c3-14 25-4 31 0s15 44 14 55-14 53-16 55c-1.334 1.333-5.334 1.333-12 0 3.333-27.333 7.666-44.333 13-51-8-22-33-45-30-59z" fill="#3333A0"/><path d="M98.858 249.75c4.052-5.59 15-3 15 3s-6 22-16 33c8.666 2 15.333 6.333 20 13l-4 5c-18-2.667-27.667-6.333-29-11-2-7 9.947-37.41 14-43z" fill="#007AE6"/><path d="M97.858 249.75c10.546-13.258 32-5 35 2s0 22-2 34c5 24 8 43 6 48s-33 4-39-2 0-21 0-36-10.546-32.742 0-46z" fill="#08F"/><path d="M117.858 254.75c3-8 9-8 13-5 2.666 2 5.333 13.333 8 34l30 6-1 9c-24.667 0-38.334-2-41-6-4-6-12-30-9-38z" fill="#08F"/></g><path d="M33.5 451h546a1.5 1.5 0 010 3h-546a1.5 1.5 0 010-3z" fill="#CCCCE7" fill-rule="nonzero"/></g></svg>