<svg id="Ñëîé_1" data-name="Ñëîé 1" xmlns="http://www.w3.org/2000/svg" xmlns:xlink="http://www.w3.org/1999/xlink" viewBox="0 0 1502.13 1367.41"><defs><style>.cls-1,.cls-15,.cls-24,.cls-31,.cls-33{fill:none;}.cls-2{fill:#f8f8f8;}.cls-3{clip-path:url(#clip-path);}.cls-4{fill:#b2b2b2;}.cls-5{fill:#d1d1d1;}.cls-6{fill:#f7ebe7;}.cls-7{fill:#fcc9a7;}.cls-8{fill:#1f252a;}.cls-9{fill:#092330;}.cls-10{fill:#f4be9a;}.cls-11{fill:#1c2226;}.cls-12{fill:#0c2c40;}.cls-13{fill:#fff7f3;}.cls-14{fill:#fff;}.cls-15{stroke:#eaddd8;stroke-width:0.76px;}.cls-15,.cls-24,.cls-31,.cls-33{stroke-linecap:round;}.cls-15,.cls-24,.cls-33{stroke-linejoin:round;}.cls-16{clip-path:url(#clip-path-2);}.cls-17{fill:#ffc9a6;}.cls-18{fill:#ead1b9;}.cls-19{fill:#0b1226;}.cls-20{fill:#0c0c0c;}.cls-21{fill:#f7e0c6;}.cls-22{fill:#232322;}.cls-23{fill:#ffeee3;}.cls-24{stroke:#e8ccb1;stroke-width:0.78px;}.cls-25{clip-path:url(#clip-path-3);}.cls-26{fill:#4f4d4b;}.cls-27{fill:#f2c09e;}.cls-28{fill:#f7ece7;}.cls-29{fill:#ff7c60;}.cls-30{fill:#383635;}.cls-31,.cls-33{stroke:#f7844c;}.cls-31{stroke-miterlimit:10;stroke-width:8.5px;}.cls-32{clip-path:url(#clip-path-4);}.cls-33{stroke-width:14.17px;stroke-dasharray:0 39.69;}.cls-34{clip-path:url(#clip-path-5);}.cls-35{clip-path:url(#clip-path-6);}</style><clipPath id="clip-path"><circle class="cls-1" cx="1236.93" cy="865.21" r="265.21"/></clipPath><clipPath id="clip-path-2"><circle class="cls-1" cx="334.21" cy="1102.21" r="265.21"/></clipPath><clipPath id="clip-path-3"><circle class="cls-1" cx="265.21" cy="265.21" r="265.21"/></clipPath><clipPath id="clip-path-4"><path class="cls-1" d="M644.6,881.66l-2.39,95.42c-.71,28.55-1.05,58.69,12.94,83.58,5.9,10.5,16.41,20.48,28.31,18.64,5.55-.87,10.37-4.2,15-7.45,10.22-7.22,20.93-15,25.85-26.53a58.62,58.62,0,0,0,3.64-14.8c8.84-61.6-9.74-125.12,2.14-186.2,2.24-11.51,6.41-24,16.62-29.73,4.77-2.69,10.33-3.57,15.77-4.21,15.77-1.84,32-2,47.26,2.32s29.66,13.26,38.13,26.68c5.29,8.38,8.09,18.06,10.44,27.68,3.88,15.91,6.52,33.42-.76,48.08-3.17,6.37-8,11.76-11.42,18A44.74,44.74,0,0,0,895,998.21a32.7,32.7,0,0,0,12.15-5.16c7.24-5.21,11.24-13.77,14.19-22.19a154.7,154.7,0,0,0-69-185.44c-13.69-7.85-28.52-13.56-43.65-18-13.67-4-27.86-7.13-42.1-6.35-18.71,1-36.35,8.62-53.53,16.1-9.58,4.18-19.41,8.51-26.83,15.87-13.63,13.49-16.5,34.09-19,53.09s-6.38,39.7-21,52Z"/></clipPath><clipPath id="clip-path-5"><path class="cls-1" d="M547.28,377.21c4.54,13.13-9.61,28-12.88,41.48s-.84,27.71,2.55,41.18c4.9,19.51,12.55,39.65,28.55,51.85,10.92,8.33,24.75,12.09,38.44,13.12,17.24,1.29,35-1.62,50.12-10.05s27.23-22.66,31.42-39.43c6.44-25.76-5.66-55,6.43-78.62,6.36-12.47,18.43-20.94,30.59-27.89,17.59-10.05,36.92-18.15,57.17-18.73s41.58,7.47,53,24.19c4.87,7.13,7.74,15.4,10.56,23.56,7.93,23,16,47.68,9.76,71.21-3.08,11.69-9.51,22.23-13.34,33.7-4.35,13-5.35,27.27-11.72,39.45-4,7.69-10,14.21-14,21.89-5.11,9.78-6.77,21-7.54,32-1,13.68-.59,27.71,3.8,40.7,9.82,29,38.73,48.35,68.67,54.81,37.77,8.15,82-3.85,102.37-36.66,8.12-13.06,12-28.34,14-43.57,6.46-47.65-3.78-96.23-20.52-141.31C953,411.6,916.13,353.63,857.93,331.16,826.48,319,791.76,318.46,758.14,321c-23.25,1.77-46.69,5-68.26,13.88-37.7,15.45-69.93,36.61-110.6,34.31C579.28,369.21,547.17,376.9,547.28,377.21Z"/></clipPath><clipPath id="clip-path-6"><path class="cls-1" d="M266.1,606.3c27,10.84,60.73,3.56,83.71,21.42,13.9,10.8,20.42,28.51,24.34,45.67,6.14,26.81,7.27,56.27-5.65,80.56s-43.24,40.69-68.9,30.77c-3.65-1.41-7.18-3.31-11.06-3.88-13.82-2-24.41,15.08-20.91,28.6a16.9,16.9,0,0,0,3.27,6.81c4.72,5.51,13.12,5.46,20.36,5,23.83-1.66,47.86-3.36,70.84-9.88s45.13-18.29,60.06-36.94c16.49-20.6,22.73-47.6,24.92-73.9,1.17-14,1.28-28.43-3.19-41.76-9.65-28.83-38.2-46.61-65.82-59.3-25.56-11.75-53.68-23.74-80.74-31.41C276.84,562.21,242,596.65,266.1,606.3Z"/></clipPath></defs><title>Artboard 3</title><circle class="cls-2" cx="1236.93" cy="865.21" r="265.21"/><g class="cls-3"><rect class="cls-4" x="1242.47" y="1163.9" width="122.42" height="218.56"/><rect class="cls-5" x="1120.53" y="1163.9" width="122.43" height="218.56"/><polygon class="cls-6" points="1178.81 898.87 1173.59 1016.34 1149.05 1102.47 1193.22 1102.47 1216.2 1028.26 1223.38 943.92 1178.81 898.87"/><polygon class="cls-7" points="1177.58 1309.5 1186.46 1356.08 1156.63 1360.05 1148.13 1314.2 1177.58 1309.5"/><path class="cls-8" d="M1188.24,1351.87c-.75-2.5-3.15-3.42-4.78-1.79a20.68,20.68,0,0,1-17.41,6.13c-8.81-1-12.12-6.83-13.37-11-.66-2.2-2.55-3.32-4.22-2.38L1095,1373a15.91,15.91,0,0,0-7,9.52h0c-1.18,4,1.2,8.32,4.54,8.21l92.31-2.87c3.63-.11,6.42-4.12,6.11-8.78l-1.54-22.88a4.62,4.62,0,0,0-.2-1.11Z"/><path class="cls-9" d="M1177.05,1084.29h-69.27s-42.19-2.66-44.71,36.31S1125,1271,1135,1330.49l57.93-5.38-41.73-161.87,103.75.66a61,61,0,0,0,22.61-4c20.19-7.89,51-19.18,34.22-81.77Z"/><polygon class="cls-7" points="1230.52 1309.68 1244.62 1365.34 1214.79 1369.31 1201.08 1314.37 1230.52 1309.68"/><path class="cls-8" d="M1246.41,1361.13c-.75-2.5-3.16-3.42-4.79-1.79a20.7,20.7,0,0,1-17.41,6.13c-8.8-1-12.12-6.83-13.37-11-.66-2.2-2.55-3.33-4.21-2.38l-53.43,30.21a16,16,0,0,0-7,9.53h0c-1.18,4,1.2,8.3,4.55,8.2l93.91-2.87c3.63-.11,6.42-4.12,6.11-8.78l-3.14-22.88a5.87,5.87,0,0,0-.2-1.11Z"/><path class="cls-6" d="M1259.86,852.7c1.56,1.7,71.08,21.67,71.08,21.67l-14.87,44.44-76-6.45Z"/><path class="cls-6" d="M1231.18,863.4s-45.31,18.61-52.37,35.47h0c2.45,23.8,9.88,46.69,22.15,66.27a200,200,0,0,1,30.22,119.15h131s-7.05-151.48-45.83-209.6Z"/><path class="cls-7" d="M1246,887.44h0c12.87-3,21.17-17.09,18.54-31.57l-7.71-42.37-46.59,10.72,7.71,42.37C1220.6,881.07,1233.16,890.4,1246,887.44Z"/><path class="cls-10" d="M1260.05,828.29s-4.89,34.34-28.66,36.41c-20.81,1.81-18.8-32-18.8-32Z"/><path class="cls-7" d="M1231,846.5l8.77-2.28c19.3-5,31.33-26.71,26.86-48.43l-6.51-31.63c-4.47-21.72-23.74-35.25-43-30.22l-8.77,2.28c-19.31,5-31.34,26.71-26.87,48.43l6.51,31.63C1192.39,838,1211.66,851.53,1231,846.5Z"/><path class="cls-11" d="M1253.12,804.14A22.23,22.23,0,0,0,1251,813c-.36,5.33-2.76,10.42-6.72,13.37-11.43,8.5-20.17-13.05-37-9.24,0,0-6.59,1.13-7.92,9.39s-10.51-6.16-12.54-16-3.07,48.82,38.54,43.84c0,0,21-.75,35.13-24.85a18.58,18.58,0,0,0,2.55-8.92c.12-4.72-.48-11.83-4.45-16.93A3.18,3.18,0,0,0,1253.12,804.14Z"/><path class="cls-11" d="M1253.16,790.84s-18-6.67-14.93-36.23c0,0-44.64,47.53-77.69,12.64,0,0,14.78-4.42,20.89-15.82,11.13-20.77,43.09-49.34,68.65-16.26,0,0,31.12-5.41,22.19,48.51Z"/><path class="cls-7" d="M1253.16,790.84c1.7,8.27,9,13.42,16.39,11.51s11.93-10.17,10.22-18.44-9-13.42-16.38-11.5S1251.46,782.57,1253.16,790.84Z"/><polygon class="cls-12" points="1230.45 885.75 1249.7 886.17 1236.21 917.56 1221.7 887.47 1230.45 885.75"/><path class="cls-13" d="M1266.2,854.08l-24.8,32.52,16.13,20.84,29.68-45.88S1279.62,847.79,1266.2,854.08Z"/><path class="cls-13" d="M1230.45,885.75l-14.25,18.12-10-28.23s2.64-12.7,10.83-10.25Z"/><path class="cls-12" d="M1235.7,907.44s-18.61,54.61-14,132.07l18.35,18.82,21.39-23.19-23.07-131.27Z"/><polygon class="cls-7" points="1270.47 1037.05 1230.64 1051.8 1228 1078.09 1280.87 1060.36 1270.47 1037.05"/><path class="cls-7" d="M1236.58,1069.17c0,15.4-11.1,27.87-24.78,27.87s-24.77-12.47-24.77-27.87,11.09-27.87,24.77-27.87S1236.58,1053.78,1236.58,1069.17Z"/><path class="cls-12" d="M1231.18,1084.29h-69.27s-42.19-2.66-44.71,36.31,66.61,157.53,76.68,217l57.94-5.37-46.46-169,103.76.66a60.94,60.94,0,0,0,22.6-4c20.2-7.89,51-19.18,34.23-81.77Z"/><path class="cls-4" d="M1022.26,946.56H1142c3.94,0,7.34,3.09,8.16,7.42l22.53,119c1.11,5.84-2.85,11.34-8.15,11.34h-121.7c-4,0-7.43-3.19-8.19-7.6l-20.54-119C1013.07,951.94,1017,946.56,1022.26,946.56Z"/><path class="cls-5" d="M1015.37,946.56h119.71c3.94,0,7.33,3.09,8.15,7.42l22.54,119c1.11,5.84-2.85,11.34-8.16,11.34h-121.7c-4,0-7.42-3.19-8.18-7.6l-20.55-119C1006.18,951.94,1010.13,946.56,1015.37,946.56Z"/><path class="cls-4" d="M1169.44,1074.13h81.79a4.83,4.83,0,0,1,4.52,5.08h0a4.83,4.83,0,0,1-4.52,5.08h-83.37Z"/><path class="cls-14" d="M1089.49,1012.31c0,8.11-5.84,14.68-13,14.68s-13-6.57-13-14.68,5.84-14.67,13-14.67S1089.49,1004.21,1089.49,1012.31Z"/><path class="cls-6" d="M1302.38,916.63l43.74,79.49-104.72,42,14.35,34.86s89.53-11.3,132.8-48.81a16.9,16.9,0,0,0,5.31-14.66c-2-17.91-10.73-61.46-47.72-123.29-7.53-12.6-22.51-16.41-34.19-8.8h0C1299.78,885.38,1295.52,902.83,1302.38,916.63Z"/><polyline class="cls-15" points="1269.24 1026.99 1346.12 996.12 1307.68 926.25"/><line class="cls-15" x1="1217.21" y1="1000.67" x2="1198.31" y2="944.45"/><path class="cls-15" d="M1270.48,1070.66s58.8-8.31,88.43-27.38"/></g><circle class="cls-2" cx="334.21" cy="1102.21" r="265.21"/><g class="cls-16"><polygon class="cls-17" points="419.58 1198.73 445.46 1184.36 459.89 1206.26 427.58 1224.33 419.58 1198.73"/><path class="cls-17" d="M486.8,1174.46c2.12,14.89-6.73,29.1-19.76,31.72s-25.31-7.32-27.43-22.21,6.74-29.1,19.76-31.73S484.68,1159.56,486.8,1174.46Z"/><path d="M510.48,1142.34h0A6.24,6.24,0,0,1,508,1150l-57,30.53c-2.52,1.36-5.53.11-6.68-2.77h0a6.24,6.24,0,0,1,2.51-7.69l57-30.54A4.76,4.76,0,0,1,510.48,1142.34Z"/><path class="cls-18" d="M309.42,1113.72l55.66,114.75,65.29-40,10,35.35-82.26,62.45c-6.56,4.1-14.7,1.2-18-6.39l-59.65-84.4Z"/><path class="cls-7" d="M268.74,1067.89l-2.59-2.05c-8.59-6.81-21.67-1.76-15.75-11.65l50.18-84.29,31,24.52-41.17,68.87C285.51,1071.44,275.82,1073.5,268.74,1067.89Z"/><path class="cls-7" d="M357.57,1011.43c-10.44,23-35.12,31.94-55.12,19.92s-27.75-40.42-17.31-63.44c12.59-27.73,33-33.22,55.13-19.92C360.27,960,368,988.42,357.57,1011.43Z"/><path class="cls-7" d="M307.18,1056.29h0c-9.5-5.71-13.18-19.2-8.22-30.12l18.11-39.92,40.8,24.52-14.75,32.53C336.31,1058.31,320.22,1064.12,307.18,1056.29Z"/><path class="cls-7" d="M352.29,1020.11l1.83,18.17c.13,2.85-2.55,4.67-4.85,3.28l-10.08-3.51Z"/><path class="cls-19" d="M298.83,999.11l-20.24,7.73s-15.44-74.29,34.09-83.44c0,0,41.44-2.78,56.84,37.12,4.4,11.4,4,29-7.37,31.68h0a49.6,49.6,0,0,0-2.49-18.72S350,1000,330.45,997.42h0l-5.67,9.8c-2.16,3.74-8.67,2.27-12.13.19l-3.86-2.33L314,993.63Z"/><path class="cls-7" d="M317.77,985.32a14.3,14.3,0,0,1-.85,18.24c-4.61,4.77-11.71,4.33-15.85-1a14.32,14.32,0,0,1,.85-18.24C306.53,979.57,313.63,980,317.77,985.32Z"/><polygon class="cls-20" points="324.15 1282.14 323.41 1731.11 277.93 1731.11 263.2 1337.49 324.15 1282.14"/><path class="cls-21" d="M306.73,1080.27s-7-17.9-14.21-22-40-9.4-40-9.4-37.38,28.52-36.82,79.55l3.25,153.7H324.15S332,1143.38,306.73,1080.27Z"/><path class="cls-22" d="M324.15,1282.15l-18.62,64.79-22.85,177.78L234.9,1735.61l-44.42-5.89,36.7-207.29-1-155.38s-2.23-14.25,4.15-84.9Z"/><path class="cls-21" d="M216.64,1123.38v259.2H253l12.85-272.51c.61-13-4.21-25.7-13.36-33.29-10.38-8.61-24.36-9.37-34.18,31.84A64.1,64.1,0,0,0,216.64,1123.38Z"/><polygon class="cls-23" points="216.64 1382.58 216.64 1365.21 253.86 1365.21 253.04 1382.58 216.64 1382.58"/><path class="cls-24" d="M263.2,1146l-5.42,136.17Z"/><path class="cls-19" d="M346.66,978.52s29.32,48.73,38.9,7-52-29.35-52-29.35Z"/><path class="cls-7" d="M252.51,1048.9s44.56,50.33,49.95,22.15c0,0-4.82-13.6-22-23.7Z"/><polygon class="cls-23" points="430.37 1188.43 440.38 1223.78 428.19 1233.04 417.22 1196.49 430.37 1188.43"/></g><circle class="cls-2" cx="265.21" cy="265.21" r="265.21"/><g class="cls-25"><polygon class="cls-17" points="180.87 324.54 161.5 300.9 141.24 315.36 165.37 344.99 180.87 324.54"/><path class="cls-17" d="M126.43,275.2c-6.67,12.92-3,29.58,8.22,37.23s25.7,3.36,32.37-9.56,3-29.58-8.22-37.22S133.1,262.28,126.43,275.2Z"/><path d="M114.7,236h0a6.39,6.39,0,0,0-.11,8.12l43,51a4.55,4.55,0,0,0,7,.11h0a6.38,6.38,0,0,0,.11-8.11l-43-51A4.55,4.55,0,0,0,114.7,236Z"/><path class="cls-26" d="M309.54,290.09l-87.73,83.74L174.16,310.7l-20.43,28.66L210,430c4.76,6.41,13.2,7,18.62,1.28l81.82-54.11Z"/><path class="cls-27" d="M206.14,680.83S348.21,797,405.3,868.44l17.33-18.15-48.11-65.11s-21.84-57.41-68.3-76.33L241.8,621.1Z"/><path class="cls-8" d="M422.61,837.58a2.68,2.68,0,0,0-4.24,2.12A23.84,23.84,0,0,1,409.91,856c-6.54,5.47-12,3.82-15.18,1.84a2.69,2.69,0,0,0-4.18,1.32L370.87,917a16.61,16.61,0,0,0,.47,11.39h0c1.4,3.56,5.4,4.82,7.61,2.42l61.22-66.4c2.41-2.61,2.09-7.28-.69-10.24l-13.67-14.49a3.87,3.87,0,0,0-.74-.61Z"/><path class="cls-7" d="M200.74,625s-6.88,197.42-28,290.53l23.05,6.12,21.38-81.17s30.29-52.33,18.46-106.3l29-109Z"/><path class="cls-8" d="M205.17,911c-.19-2.41-2.15-3.83-3.93-2.78a18.43,18.43,0,0,1-16.77,1.16c-7.68-3.08-9.49-9.12-9.79-13.18-.16-2.13-1.63-3.61-3.3-3.18l-53.69,13.75a13.52,13.52,0,0,0-8.16,6.76h0c-1.84,3.29-.56,7.73,2.45,8.47l83.09,20.36c3.27.8,6.54-2.09,7.18-6.34l3.12-20.83a5.2,5.2,0,0,0,0-1Z"/><path class="cls-28" d="M329.78,595.29,333.35,721l-161.79,9s17.88-72.35,32.18-143.27Z"/><path class="cls-7" d="M301,266.06h0c4.71-.64,9.46-3.49,13-6.12a13.09,13.09,0,0,0,4.78-11.87L309.25,163l-33.08,4.49,9.41,84C286.61,261.15,293.47,267.08,301,266.06Z"/><path class="cls-27" d="M282.93,227.89l11.44-23.56s10.92,23.77-10.23,34.3Z"/><path class="cls-7" d="M246.91,171.43c2.72,25.36,23.19,43.43,45.73,40.38s38.61-26.09,35.89-51.45S305.34,116.93,282.8,120,244.2,146.07,246.91,171.43Z"/><path class="cls-7" d="M280,228.54h0c10.7-1.46,18.33-12.39,17-24.43l-3.37-31.42-46.79-1.26,3.3,30.78C252,218.75,265.33,230.53,280,228.54Z"/><path class="cls-7" d="M249.2,181.53l-7.33,16a3.55,3.55,0,0,0,3.56,5l10.56.8Z"/><path class="cls-29" d="M288.63,186.33l-9-.81-3.46-18.06s-36.83,7.35-42.38-12.27c0,0,21.29-66,72.82-40.28,38.22,19.11,27.27,66.33,14.67,83.88a32.24,32.24,0,0,0-5.62,20.9c.06.91.15,1.86.26,2.85l-15-38.46Z"/><path class="cls-7" d="M300.58,167.11c-5.74-2.76-12.37.24-14.83,6.69s.22,13.92,5.95,16.68,12.38-.24,14.83-6.7S306.31,169.86,300.58,167.11Z"/><path class="cls-29" d="M313,128.86s9.18-55.1,50.75-40c45.8,16.58,25.58,76,27.38,89.06,2.11,15.25,9.18,31.1,28.81,34.11,0,0-54.87,13.86-58-29.33-2.63-36.37-18-51.14-35.38-37.14Z"/><path class="cls-30" d="M318.78,248.07S328.24,244,333,301.8,341,629,341,629l-149.37-28.6s27.1-240.81,93.95-348.87Z"/><path class="cls-7" d="M316.9,632.81c-.87,15.1-12.22,26.53-25.34,25.53s-23.05-14.05-22.18-29.15,12.21-26.54,25.33-25.54S317.77,617.71,316.9,632.81Z"/><rect class="cls-7" x="279.42" y="564.98" width="24.47" height="51.73"/><path class="cls-26" d="M275.6,337.63V590.44h33.65l11.87-265.12c.57-12-3.89-23.74-12.34-30.76-9.6-8-22.52-8.67-31.59,29.43A58.87,58.87,0,0,0,275.6,337.63Z"/><polygon class="cls-14" points="275.6 590.44 275.6 574.38 310 574.38 309.25 590.44 275.6 590.44"/></g><path class="cls-31" d="M826.72,1015.71H762.38a12.08,12.08,0,0,1-12-12V951.37a12.08,12.08,0,0,1,12-12h64.34a12.09,12.09,0,0,1,12,12v52.33A11.8,11.8,0,0,1,826.72,1015.71Z"/><path class="cls-31" d="M762.61,938.23V903.79s0-30.58,30.58-30.58C824,873.21,824,904,824,904v32.62"/><line class="cls-31" x1="794.1" y1="971.53" x2="794.1" y2="985.58"/><path class="cls-31" d="M788.72,562.71H724.38a12.08,12.08,0,0,1-12-12V498.37a12.08,12.08,0,0,1,12-12h64.34a12.09,12.09,0,0,1,12,12V550.7A11.8,11.8,0,0,1,788.72,562.71Z"/><path class="cls-31" d="M724.61,485.23V450.79s0-30.58,30.58-30.58C786,420.21,786,451,786,451v32.62"/><line class="cls-31" x1="756.1" y1="518.53" x2="756.1" y2="532.58"/><path class="cls-31" d="M319.72,763.71H255.38a12.08,12.08,0,0,1-12-12V699.37a12.08,12.08,0,0,1,12-12h64.34a12.09,12.09,0,0,1,12,12V751.7A11.8,11.8,0,0,1,319.72,763.71Z"/><path class="cls-31" d="M255.61,686.23V651.79s0-30.58,30.58-30.58C317,621.21,317,652,317,652v32.62"/><line class="cls-31" x1="287.1" y1="719.53" x2="287.1" y2="733.58"/><g class="cls-32"><line class="cls-33" x1="905.07" y1="942.21" x2="642.28" y2="1023.21"/></g><g class="cls-34"><line class="cls-33" x1="1007.28" y1="664.21" x2="556.28" y2="388.21"/></g><g class="cls-35"><line class="cls-33" x1="290.57" y1="792.71" x2="281.28" y2="574.21"/></g></svg>