<?xml version="1.0" encoding="UTF-8"?>
<svg width="2006px" height="2001px" viewBox="0 0 2006 2001" version="1.1" xmlns="http://www.w3.org/2000/svg" xmlns:xlink="http://www.w3.org/1999/xlink">
    <title>hero_graphic</title>
    <defs>
        <linearGradient x1="47.5942582%" y1="49.4244033%" x2="52.2173698%" y2="50.3881861%" id="linearGradient-1">
            <stop stop-color="#647899" offset="0%"></stop>
            <stop stop-color="#8BADE1" offset="100%"></stop>
        </linearGradient>
        <linearGradient x1="45.7457586%" y1="52.6382453%" x2="56.9009689%" y2="47.5265327%" id="linearGradient-2">
            <stop stop-color="#FF3610" offset="0%"></stop>
            <stop stop-color="#FF3610" offset="46.6263%"></stop>
            <stop stop-color="#FC5047" offset="100%"></stop>
        </linearGradient>
        <linearGradient x1="54.705807%" y1="48.6832306%" x2="45.9258723%" y2="50.6111352%" id="linearGradient-3">
            <stop stop-color="#FF3610" offset="0%"></stop>
            <stop stop-color="#FF3610" offset="52.2221%"></stop>
            <stop stop-color="#FC5047" offset="91.021759%"></stop>
            <stop stop-color="#FC5047" offset="100%"></stop>
        </linearGradient>
        <linearGradient x1="77.5355576%" y1="45.4642252%" x2="45.9566815%" y2="50.8474061%" id="linearGradient-4">
            <stop stop-color="#FF3610" offset="0%"></stop>
            <stop stop-color="#FF3610" offset="0.134637%"></stop>
            <stop stop-color="#FF3610" offset="66.226102%"></stop>
            <stop stop-color="#FC5047" offset="100%"></stop>
        </linearGradient>
        <polygon id="path-5" points="1.15599997 1086.15997 1366.31997 1086.15997 1366.31997 1.26399997 1.15599997 1.26399997"></polygon>
        <path d="M926.61331,1.26266664 L1366.3133,1084.38531 L44.1586656,1086.16397 L1.1573333,557.098653 L767.978647,52.8346653 L866.450645,61.7679985 C869.237312,61.5053318 871.105312,60.4773318 873.294645,58.6653319 L926.61331,1.26266664 Z" id="path-7"></path>
        <polygon id="path-9" points="0 87379.9978 87379.9978 87379.9978 87379.9978 0 0 0"></polygon>
        <linearGradient x1="66.3024397%" y1="19.9065664%" x2="50.4129706%" y2="64.9560178%" id="linearGradient-11">
            <stop stop-color="#FF3610" offset="0%"></stop>
            <stop stop-color="#FF3610" offset="35.3323%"></stop>
            <stop stop-color="#FC5047" offset="97.142514%"></stop>
            <stop stop-color="#FC5047" offset="100%"></stop>
        </linearGradient>
        <polygon id="path-12" points="0.123999997 11.1599997 83.6066646 11.1599997 83.6066646 0.626666651 0.123999997 0.626666651"></polygon>
        <polygon id="path-14" points="0.123999997 0.626666651 83.6066646 0.626666651 83.6066646 11.1599997 0.123999997 11.1599997"></polygon>
        <polygon id="path-16" points="0.123999997 10.8666664 129.894663 10.8666664 129.894663 0.346666658 0.123999997 0.346666658"></polygon>
        <polygon id="path-18" points="0.123999997 0.346666658 129.894663 0.346666658 129.894663 10.8666664 0.123999997 10.8666664"></polygon>
        <polygon id="path-20" points="0.66666665 41.5066656 20.0533328 41.5066656 20.0533328 0.173333329 0.66666665 0.173333329"></polygon>
        <polygon id="path-22" points="0.66666665 0.173333329 20.0533328 0.173333329 20.0533328 41.5066656 0.66666665 41.5066656"></polygon>
        <polygon id="path-24" points="0.333333325 55.2266653 19.7199995 55.2266653 19.7199995 0.173333329 0.333333325 0.173333329"></polygon>
        <polygon id="path-26" points="0.333333325 0.173333329 19.7199995 0.173333329 19.7199995 55.2266653 0.333333325 55.2266653"></polygon>
        <polygon id="path-28" points="0.066666665 7.05333316 83.9066646 7.05333316 83.9066646 0.586666652 0.066666665 0.586666652"></polygon>
        <polygon id="path-30" points="0.066666665 0.586666652 83.9066646 0.586666652 83.9066646 7.05333316 0.066666665 7.05333316"></polygon>
        <polygon id="path-32" points="0.213333328 7.35999982 90.7799977 7.35999982 90.7799977 0.919999977 0.213333328 0.919999977"></polygon>
        <polygon id="path-34" points="0.214666661 0.919999977 90.7799977 0.919999977 90.7799977 7.35999982 0.214666661 7.35999982"></polygon>
        <polygon id="path-36" points="0.567999986 109.613331 232.258661 109.613331 232.258661 1.06666664 0.567999986 1.06666664"></polygon>
        <polygon id="path-38" points="0.567999986 1.06666664 232.258661 1.06666664 232.258661 109.613331 0.567999986 109.613331"></polygon>
    </defs>
    <g id="Page-1" stroke="none" stroke-width="1" fill="none" fill-rule="evenodd">
        <g id="hero_graphic" transform="translate(0.000000, 1.000000)">
            <g id="g1315" transform="translate(1003.000000, 1000.166700) scale(-1, 1) rotate(-180.000000) translate(-1003.000000, -1000.166700) translate(0.000000, 0.666700)">
                <g id="g20" fill-rule="nonzero">
                    <g id="g22" transform="translate(-0.000008, 0.333325)">
                        <g id="g28" transform="translate(1157.693971, 1095.116506)" fill="#FFE7D6">
                            <path d="M415.99999,201.333328 C232.067994,374.686657 6.7266665,405.254657 1.25066664,222.527994 C-11.605333,-206.397328 523.20532,100.293331 415.99999,201.333328" id="path30"></path>
                        </g>
                        <g id="g32" transform="translate(1.235733, 1.097600)" fill="#FFE7D6">
                            <path d="M1971.99995,513.333321 C1971.99995,513.333321 1935.45995,394.76399 1840.02795,285.617326 C1826.83062,270.523993 1812.49995,255.60666 1796.98396,241.207994 C1466.6933,-65.3293317 578.382652,-110.189331 192.011995,285.617326 C147.65733,331.049325 109.915997,382.289324 80.3973313,439.595989 C-43.8159989,680.727983 -21.5359995,1023.08531 138.603997,1250.9653 C181.022662,1311.33997 280.789326,1457.25996 471.677322,1506.9173 C502.437321,1514.9213 696.937316,1562.35729 860.855978,1457.8333 C1107.72797,1300.41863 1046.65731,1029.52931 1209.13064,992.687975 C1331.0813,965.035976 1386.1933,1078.61997 1590.13063,1086.18797 C1720.10929,1090.99997 1868.56662,1019.39064 1947.74395,886.341311 C2049.93728,714.638649 1980.69862,534.835987 1971.99995,513.333321" id="path34"></path>
                        </g>
                        <g id="g36" transform="translate(191.930929, 0.048133)" fill="#F2B199">
                            <path d="M1649.33329,286.66666 C1636.13596,271.573327 1621.80529,256.655994 1606.28929,242.257327 C1275.9973,-64.2799984 387.68799,-109.138664 1.31599997,286.66666 L1649.33329,286.66666 Z" id="path38"></path>
                        </g>
                        <g id="g40" transform="translate(666.107450, 221.656261)" fill="#F9AA8F">
                            <path d="M0,393.333324 C0,393.333324 37.5239991,319.167992 35.0386658,297.249326 C32.5559992,275.331993 24.5253327,257.651994 31.2693326,227.694661 C38.0173324,197.743995 91.8279977,89.0119978 93.0586643,69.1639983 C93.5719977,60.7933318 91.0893311,60.0186652 91.0893311,60.0186652 C91.1546644,45.5986655 95.8893309,33.0866658 98.7946642,30.0959992 C102.522664,26.262666 106.262664,4.30133323 109.810664,4.30133323 C113.363997,4.30133323 143.358663,0.897333311 143.358663,0.897333311 C144.15733,7.93466647 134.95733,2.31066661 129.63333,16.9253329 C124.30533,31.5359992 121.10933,53.453332 114.362664,83.0413313 C107.617331,112.629331 79.9826647,247.643994 79.9826647,278.69466 C79.9826647,309.746659 82.7586646,309.887992 78.143998,330.346658 C73.5239982,350.801325 56.1306653,389.158657 56.1306653,389.158657 L0,393.333324 Z" id="path42"></path>
                        </g>
                    </g>
                </g>
                <g id="g44" transform="translate(638.666643, 300.333318)" fill="url(#linearGradient-1)" fill-rule="nonzero">
                    <g id="g54">
                        <path d="M26.882666,569.931986 L0.798666647,396.138657 L55.9466653,207.810661 C54.0226653,178.995996 57.9133319,150.091996 67.3893316,122.81333 L67.3893316,122.81333 L109.769331,0.81199998 L141.803996,4.69866655 C133.46933,102.137331 125.134664,199.575995 116.799997,297.015993 L116.799997,297.015993 C115.522664,311.955992 113.241331,326.778658 109.917331,341.397325 L109.917331,341.397325 C98.4693309,391.73599 87.9453311,444.223989 78.6786647,498.782654 L78.6786647,498.782654 C74.6693315,522.390654 71.0133316,545.683986 67.6879983,568.653319 L67.6879983,568.653319 L49.8386654,571.083986 L26.882666,569.931986 Z" id="path62"></path>
                    </g>
                </g>
                <g id="g64" transform="translate(116.000000, 219.000000)">
                    <g id="g66" transform="translate(-0.000011, -0.000014)">
                        <g id="g72" transform="translate(470.557988, 4.949200)" fill="#F9AA8F" fill-rule="nonzero">
                            <path d="M62.6666651,335.999992 C62.6666651,335.999992 57.8706652,282.417326 51.477332,266.529327 C45.0866655,250.63866 50.2333321,40.2293323 55.5626653,23.2439994 C56.7439986,19.4733328 58.3479985,16.1119996 60.0119985,13.157333 C65.8519984,2.79999993 67.1773317,0.689333316 59.3053319,0.689333316 C49.1853321,0.689333316 40.3306657,2.69599993 38.3746657,6.96933316 C35.0053325,14.3399996 32.0893325,39.707999 25.162666,39.707999 C25.162666,39.707999 20.4679995,49.1746654 21.6639995,54.1479986 C23.4626661,61.6333318 28.3959993,57.7626652 28.3959993,68.1733316 C28.3959993,78.5866647 -4.62533322,236.941327 0.701333316,259.95466 C6.02533318,282.967993 9.75466642,285.703993 9.75466642,313.102659 C9.75466642,340.502658 62.6666651,335.999992 62.6666651,335.999992" id="path74"></path>
                        </g>
                        <g id="g76" transform="translate(463.284522, 81.050798)" fill="#8BADE1" fill-rule="nonzero">
                            <path d="M57.3333319,575.999986 C48.6906654,561.347986 40.5066657,545.36132 33.1946658,527.983987 C-12.3239997,419.80399 -0.0413333323,314.699992 14.221333,251.233327 C8.79199978,227.918661 -0.817333313,201.086662 2.37599994,171.538662 C4.77066655,149.374663 20.7013328,1.09466664 20.7013328,1.09466664 L60.1813318,1.09466664 L72.0813315,224.853328 L107.258664,448.759989 L127.070663,568.935986 L57.3333319,575.999986 Z" id="path78"></path>
                        </g>
                        <g id="g80" transform="translate(589.929052, 527.006520)" fill="#F9AA8F" fill-rule="nonzero">
                            <path d="M34.6666658,209.333328 C34.6666658,209.333328 54.6866653,116.731997 64.7479984,105.805331 C74.8079981,94.881331 98.5399975,40.9333323 98.5399975,40.9333323 C98.5399975,40.9333323 120.479997,29.3066659 120.479997,16.6013329 L115.243997,7.59999981 L105.141331,3.38399992 L100.094664,0.430666656 L94.657331,0.430666656 C94.657331,0.430666656 93.1026643,15.7679996 86.1133312,27.0839993 C79.1213314,38.3973324 50.0279987,65.818665 34.6666658,102.938664 C19.3013329,140.063996 0.425333323,197.314662 0.425333323,197.314662 L34.6666658,209.333328 Z" id="path82"></path>
                        </g>
                        <g id="g84" transform="translate(635.389984, 1.190133)" fill="#332F44" fill-rule="nonzero">
                            <path d="M47.9999988,11.9999997 C55.029332,5.23599987 66.4333317,6.57733317 65.7933317,0.93733331 C65.7933317,0.93733331 26.9479993,2.64933327 23.3986661,2.64933327 C19.8466662,2.64933327 16.8293329,25.1159994 13.0999997,28.9506659 C9.37199977,32.7893325 11.6786664,2.64933327 11.6786664,2.64933327 L7.8519998,2.64933327 C7.8519998,2.64933327 5.28799987,33.7013325 1.73733329,45.7546655 C-1.08799997,55.3586653 2.92933326,59.3933318 5.80666652,61.8173318 C17.4693329,38.8853324 18.6159995,6.62933317 47.9999988,11.9999997" id="path86"></path>
                        </g>
                        <g id="g88" transform="translate(573.755852, 633.807317)" fill="#8BADE1" fill-rule="nonzero">
                            <path d="M35.9999991,173.333329 C26.158666,203.757328 5.08266654,227.763994 5.08266654,227.763994 C5.08266654,227.763994 -2.14533328,165.787996 2.23599994,143.511996 C4.96666654,129.65733 32.6519992,24.4559994 43.3559989,0.733333315 C50.2759987,4.63866655 68.6933316,20.8613328 76.2906648,23.2439994 C72.8346648,50.9719987 41.0586656,157.713329 35.9999991,173.333329" id="path90"></path>
                        </g>
                        <g id="g92" transform="translate(492.593054, 6.502667)" fill="#1A1722" fill-rule="nonzero">
                            <polygon id="path94" points="7.9999998 34.6666658 8.42533312 0.598666652 4.73733321 0.505333321 0.11333333 39.351999"></polygon>
                        </g>
                        <g id="g96" transform="translate(497.504521, 638.904251)" fill="#647899" fill-rule="nonzero">
                            <path d="M81.3333313,222.666661 C81.3333313,222.666661 64.6013317,236.002661 8.22933313,223.823994 C5.47199986,223.226661 1.30399997,156.525329 1.30399997,156.525329 C1.30399997,156.525329 28.426666,45.7493322 23.1133328,18.1466662 C23.1133328,18.1466662 58.2973319,-14.8666663 105.246664,8.71733312 C105.246664,8.71733312 95.5826643,101.283997 99.9079975,120.630664 C104.230664,139.975997 112.795997,157.502663 100.786664,177.634662 C88.7813311,197.766662 81.3333313,222.666661 81.3333313,222.666661" id="path98"></path>
                        </g>
                        <g id="g100" transform="translate(403.501990, 829.794913)" fill="#121841" fill-rule="nonzero">
                            <path d="M99.9999975,159.999996 C99.9999975,159.999996 88.1386645,169.702662 74.9799981,159.590663 C61.8226651,149.47733 72.2426649,112.669331 30.0653326,99.3586642 C-18.6933329,83.9693312 -3.16799992,-4.96133321 50.8226654,0.647999984 C104.814664,6.25866651 101.286664,28.8013326 92.0799977,57.3759986 C82.8706646,85.9506645 77.1759981,117.211997 94.1226643,122.598664 C111.069331,127.983997 99.9999975,159.999996 99.9999975,159.999996" id="path102"></path>
                        </g>
                        <g id="g104" transform="translate(518.275320, 829.125046)" fill="#F9AA8F" fill-rule="nonzero">
                            <path d="M33.3333325,86.6666645 C33.3333325,86.6666645 34.4906658,69.0799983 34.3239991,54.741332 C34.2346658,46.9839988 37.2586657,41.807999 39.1253324,35.9893324 C41.0826656,29.8906659 62.1253318,2.74799993 55.9346653,0.79999998 C52.1519987,-0.38799999 25.6599994,18.2973329 21.1999995,20.3693328 C14.101333,23.6679994 7.06933316,29.7573326 0.711999982,33.1586658 L10.6773331,105.867997 L33.3333325,86.6666645 Z" id="path106"></path>
                        </g>
                        <g id="g108" transform="translate(527.619187, 885.659445)" fill="#EF8062" fill-rule="nonzero">
                            <path d="M1.3333333,49.3333321 L23.9893327,30.1319992 C23.9893327,30.1319992 24.746666,11.7746664 24.9959994,0.575999986 C17.7559996,3.55199991 3.96533323,23.1626661 -0.0066666665,39.5413323 C2.5466666,54.457332 1.3333333,49.3333321 1.3333333,49.3333321" id="path110"></path>
                        </g>
                        <g id="g112" transform="translate(508.132121, 901.777311)" fill="#F9AA8F" fill-rule="nonzero">
                            <path d="M29.3333326,94.6666643 C29.3333326,94.6666643 38.915999,93.9919977 46.2319988,86.0799978 C53.5519987,78.171998 54.185332,64.2599984 59.1559985,56.8026652 C64.1279984,49.3439988 68.4933316,6.73199983 50.7439987,1.1973333 C28.5279993,-5.73066652 11.0879997,25.906666 7.05066649,31.9666659 C3.01199992,38.0266657 -2.48133327,64.6679984 4.63599988,76.4919981 C11.7519997,88.3146645 29.3333326,94.6666643 29.3333326,94.6666643" id="path114"></path>
                        </g>
                        <g id="g116" transform="translate(482.883455, 915.373710)" fill="#121841" fill-rule="nonzero">
                            <path d="M37.3333324,63.9999984 C45.9799989,79.9106647 55.6159986,80.4546647 56.3439986,80.971998 C56.3119986,81.0653313 56.0093319,81.3773313 55.4519986,81.8066646 C52.6599987,84.1946646 43.4239989,90.4733311 29.6066659,83.7599979 C15.3413329,77.2346647 7.41866648,72.9159982 2.01333328,58.6333319 C-0.413333323,52.225332 1.54933329,42.3946656 4.14666656,36.3906658 C8.89199978,25.4119994 14.373333,25.166666 16.4946663,13.1879997 C18.5253329,1.71599996 44.8786655,0.755999981 44.8786655,0.755999981 C44.0453322,2.00666662 38.859999,12.3146664 36.9399991,14.7679996 C32.6719992,20.6933328 31.3879992,26.0999993 32.1079992,32.0226659 C33.3839992,31.8906659 36.1613324,34.1133325 37.4106657,36.256 C41.4546656,43.2093323 34.7679991,46.9466655 37.3333324,63.9999984" id="path118"></path>
                        </g>
                        <g id="g120" transform="translate(523.824920, 956.516243)" fill="#121841" fill-rule="nonzero">
                            <path d="M5.3333332,43.9999989 C5.3333332,43.9999989 15.1719996,50.5199987 27.1719993,48.2013321 C39.1733324,45.8866655 51.989332,20.4426662 49.7133321,12.8719997 C47.8893321,6.79733316 63.5639984,7.55599981 64.0159984,4.79333321 C64.2293317,3.48933325 61.4213318,2.12133328 61.0959985,1.96133328 C50.0453321,-3.47466658 4.43199989,2.90266659 0.707999982,26.258666 C0.190666662,29.5093326 0.0773333314,35.6453324 5.3333332,43.9999989" id="path122"></path>
                        </g>
                        <g id="g124" transform="translate(507.715454, 927.241577)" fill="#F9AA8F" fill-rule="nonzero">
                            <path d="M10.6666664,17.3333329 L7.27599982,20.1546662 C7.27599982,20.1546662 1.89333329,22.7479994 0.826666646,19.4173328 C-1.78933329,11.2319997 11.1373331,-3.87333324 13.1786663,2.40933327 C15.2199996,8.69333312 10.6666664,17.3333329 10.6666664,17.3333329" id="path126"></path>
                        </g>
                        <g id="g128" transform="translate(488.871721, 2.388000)" fill="#332F44" fill-rule="nonzero">
                            <path d="M9.3333331,65.3333317 C12.385333,46.2786655 24.4973327,8.60133312 31.5986659,8.57599979 C41.1893323,8.54133312 41.7493323,9.06399977 41.7013323,15.7186663 C47.5413321,5.3613332 54.1786653,0.053333332 46.3013322,0.053333332 C36.1853324,0.053333332 20.3959995,-0.578666652 18.4453329,3.68933324 C15.0759996,11.0626664 13.233333,38.951999 6.30933318,38.951999 L8.45866646,4.61999988 L4.78533321,4.51999989 C4.78533321,4.51999989 -0.661333317,51.7919987 0.52933332,56.5106653 C2.16933328,62.9879984 7.38133315,64.1759984 9.3333331,65.3333317" id="path130"></path>
                        </g>
                        <g id="g132" transform="translate(647.591717, 672.683583)" fill="#FC5047" fill-rule="nonzero">
                            <path d="M39.999999,79.999998 L39.999999,2.89333326 C39.999999,1.38666663 31.2466659,0.161333329 20.4466662,0.161333329 C9.65199976,0.161333329 0.898666644,1.38666663 0.898666644,2.89333326 L0.898666644,79.999998 L39.999999,79.999998 Z" id="path134"></path>
                        </g>
                        <g id="g136" transform="translate(654.414650, 687.018249)" fill="#FFFFFF" fill-rule="nonzero">
                            <path d="M5.3333332,0 L5.3333332,0 C7.9399998,0 10.0559997,2.11333328 10.0559997,4.72133322 L10.0559997,49.2773321 C10.0559997,51.885332 7.9399998,54.001332 5.3333332,54.001332 C2.7226666,54.001332 0.610666651,51.885332 0.610666651,49.2773321 L0.610666651,4.72133322 C0.610666651,2.11333328 2.7226666,0 5.3333332,0" id="path138"></path>
                        </g>
                        <g id="g140" transform="translate(547.201186, 654.550784)" fill="#F9AA8F" fill-rule="nonzero">
                            <path d="M1.3333333,27.9999993 C3.24533325,19.6506662 4.50533322,-0.0786666647 12.8226663,0.430666656 C35.0173325,1.78533329 92.6426644,20.7946661 108.825331,36.8573324 C129.694663,57.5719986 123.886664,62.6426651 123.886664,62.6426651 C123.886664,62.6426651 120.419997,63.6693317 118.678664,68.6213316 C116.934664,73.5746648 110.165331,77.4279981 106.545331,79.1706647 C102.929331,80.9146646 94.393331,69.0546649 93.7026643,67.5373316 C93.013331,66.022665 91.4399977,40.8613323 77.9879981,39.879999 C64.5359984,38.9026657 22.6959994,41.4773323 7.42666648,37.9119991 C1.31999997,36.4853324 0.325333325,32.3959992 1.3333333,27.9999993" id="path142"></path>
                        </g>
                        <g id="g144" transform="translate(648.490250, 748.683581)" fill="#FC5047" fill-rule="nonzero">
                            <path d="M0,3.9999999 C0,2.31999994 8.75333311,0.961333309 19.5479995,0.961333309 C30.3479992,0.961333309 39.1013324,2.31999994 39.1013324,3.9999999 C39.1013324,5.67733319 30.3479992,7.03599982 19.5479995,7.03599982 C8.75333311,7.03599982 0,5.67733319 0,3.9999999" id="path146"></path>
                        </g>
                        <g id="g148" transform="translate(652.645184, 750.016915)" fill="#A8302D" fill-rule="nonzero">
                            <path d="M0,2.6666666 C0,1.34399997 6.89066649,0.27066666 15.3946663,0.27066666 C23.8973327,0.27066666 30.7906659,1.34399997 30.7906659,2.6666666 C30.7906659,3.98666657 23.8973327,5.05999987 15.3946663,5.05999987 C6.89066649,5.05999987 0,3.98666657 0,2.6666666" id="path150"></path>
                        </g>
                        <g id="g152" transform="translate(468.401722, 652.061184)" fill="#8BADE1" fill-rule="nonzero">
                            <path d="M37.3333324,210.666661 C37.3333324,210.666661 70.0853316,179.194662 64.0506651,131.974663 C58.0159985,84.7573312 59.6039985,53.9626653 59.6039985,53.9626653 L88.8679978,43.1186656 L91.7586644,0.982666642 C79.9853313,-0.359999991 51.7746654,-1.83999995 30.4053326,15.9866663 C11.5119997,31.7479992 8.84799978,54.501332 4.29066656,99.3626642 C0.527999987,136.39733 -5.22666654,193.055995 21.5293328,207.363995 C27.4079993,210.506661 33.3999992,210.829328 37.3333324,210.666661" id="path154"></path>
                        </g>
                        <g id="g156" transform="translate(116.979197, 43.023466)" fill="#FF3610" fill-rule="nonzero">
                            <path d="M149.33333,85.3333312 C149.33333,81.4866646 148.526663,74.3239981 146.979996,65.702665 C142.754663,41.8986656 133.01733,7.05199982 119.878664,1.09199997 L30.2613326,1.09199997 C12.365333,9.21599977 0.806666646,70.8386649 0.806666646,85.3333312 C0.806666646,91.533331 2.91999993,97.4413309 6.7666665,102.799997 C11.3013331,109.171997 18.2559995,114.787997 26.946666,119.235997 L123.19333,119.235997 C139.183997,111.061331 149.33333,98.9173309 149.33333,85.3333312" id="path158"></path>
                        </g>
                        <g id="g160" transform="translate(123.645864, 108.356797)" fill="#D33B37" fill-rule="nonzero">
                            <path d="M142.666663,19.9999995 C142.666663,16.1533329 141.859996,8.99066644 140.31333,0.369333324 C127.594663,7.86533314 112.101331,15.5933329 93.8839977,22.0533328 C56.8733319,35.1759991 23.6173327,37.7439991 0.0999999975,37.4666657 C2.11599995,40.1146657 4.85733321,43.3386656 8.63199978,46.4066655 C12.0239997,49.1626654 15.9346663,51.6786654 20.2813328,53.9026653 L116.526664,53.9026653 C132.515997,45.7279989 142.666663,33.5839992 142.666663,19.9999995" id="path162"></path>
                        </g>
                        <g id="g164" transform="translate(-0.006533, 329.722658)" fill="#8BADE1" fill-rule="nonzero">
                            <path d="M153.333329,1.3333333 C143.48133,0.622666651 131.351997,0.54533332 117.63333,2.23733328 C104.729331,3.82666657 93.5986643,6.58933317 84.5813312,9.4493331 C84.6106646,13.7946663 90.3479977,21.9533328 90.3773311,26.298666 C84.2439979,26.1493327 72.4026649,22.1893328 66.266665,22.0399994 C61.4066651,31.8106659 55.6306653,42.1639989 48.7453321,52.825332 C33.1426658,76.9839981 16.2279996,95.9479976 1.09333331,110.414664 C139.526663,112.553331 154.395996,30.5479992 153.333329,1.3333333" id="path166"></path>
                        </g>
                        <g id="g168" transform="translate(218.184928, 277.496126)" fill="#8BADE1" fill-rule="nonzero">
                            <path d="M1.3333333,1.3333333 C11.1853331,0.622666651 23.3146661,0.543999986 37.0333324,2.23599994 C49.9373321,3.82533324 61.0679985,6.58799984 70.0853316,9.44799976 C70.0559982,13.793333 64.3186651,21.9519995 64.2893317,26.2973327 C70.4226649,26.1479993 82.2639979,22.1893328 88.3999978,22.0399994 C93.2599977,31.8093325 99.0359975,42.1639989 105.921331,52.8239987 C121.523997,76.9826647 138.438663,95.9466643 153.573329,110.413331 C15.1399996,112.551997 0.269333327,30.5466659 1.3333333,1.3333333" id="path170"></path>
                        </g>
                        <g id="g172" transform="translate(32.709599, 168.847596)" stroke="#DEF2FF" stroke-width="2.6666666">
                            <path d="M134.666663,0 C134.666663,76.0426648 173.901329,188.570662 0.951999976,259.713327" id="path174"></path>
                        </g>
                        <g id="g176" transform="translate(177.558529, 411.230523)" fill="#8BADE1" fill-rule="nonzero">
                            <path d="M11.9999997,0 C11.9999997,0 79.4893313,9.41866643 91.7706644,40.811999 L70.4879982,64.4026651 L98.7666642,56.1386653 L141.426663,158.138663 C141.426663,158.138663 40.507999,127.94533 13.2466663,84.4719979 C-14.0146663,40.9986656 11.9999997,0 11.9999997,0" id="path178"></path>
                        </g>
                        <g id="g180" transform="translate(182.670529, 163.925729)" stroke="#DEF2FF" stroke-width="2.6666666">
                            <path d="M6.6666665,0 C6.6666665,0 -7.60666648,148.491996 7.14133315,247.231994 C15.4559996,302.891992 52.9239987,351.198658 108.134664,380.80799" id="path182"></path>
                        </g>
                        <g id="g184" transform="translate(198.157595, 163.925729)" stroke="#DEF2FF" stroke-width="2.6666666">
                            <path d="M1.3333333,0 C1.3333333,0 -19.8013328,151.919996 128.646663,208.491995" id="path186"></path>
                        </g>
                        <polygon id="path188" fill="#F2B199" fill-rule="nonzero" points="125.950664 156.918663 259.225327 156.918663 259.225327 170.930662 125.950664 170.930662"></polygon>
                        <g id="g190" transform="translate(1123.924505, 7.559866)" fill="#0A1744" fill-rule="nonzero">
                            <path d="M30.6666659,13.333333 C-0.161333329,13.333333 0.589333319,0.661333317 0.589333319,0.661333317 L90.8213311,0.661333317 C90.8213311,0.661333317 86.3279978,39.607999 85.6506645,48.8199988 L64.4653317,48.8199988 C62.1213318,37.5559991 54.345332,13.333333 30.6666659,13.333333" id="path192"></path>
                        </g>
                        <g id="g194" transform="translate(1244.081969, 2.914000)" fill="#0A1744" fill-rule="nonzero">
                            <path d="M61.3333318,13.333333 C33.2666658,13.333333 27.530666,47.3573321 26.7253327,53.4666653 L6.45599984,53.4666653 C6.44799984,51.805332 6.44399984,50.7573321 6.44399984,50.5039987 C6.44399984,46.2786655 1.18266664,0.661333317 1.18266664,0.661333317 L38.775999,0.661333317 L91.413331,0.661333317 C91.413331,0.661333317 92.1639977,13.333333 61.3333318,13.333333" id="path196"></path>
                        </g>
                        <g id="g198" transform="translate(1122.186105, 55.506532)" fill="#647899" fill-rule="nonzero">
                            <path d="M203.999995,449.333322 L195.861328,521.427987 L37.2973324,521.427987 C31.7599992,502.818654 26.2279993,484.210655 20.6933328,465.601322 C13.6626663,434.590656 7.52799981,399.066657 3.96266657,359.638658 C-0.382666657,311.618659 0.0319999992,268.35866 2.56799994,231.366661 C11.6946664,192.514662 21.2173328,153.238663 31.1479992,113.551997 C40.6773323,75.4813314 50.3613321,37.9186657 60.1786652,0.873333312 L90.1173311,0.873333312 C90.0613311,1.62266663 81.655998,226.849328 81.655998,226.849328 L107.962664,412.453323 C107.373331,341.966658 114.694664,286.515993 114.106664,216.027995 C117.09733,144.310663 120.086664,72.5919982 123.078664,0.873333312 L151.258663,0.873333312 C171.230662,63.3999984 190.643995,142.10933 200.549328,234.154661 C209.369328,316.119992 208.535995,389.014657 203.999995,449.333322" id="path200"></path>
                        </g>
                        <g id="g202" transform="translate(1159.117171, 548.794253)" fill="#26357A" fill-rule="nonzero">
                            <path d="M159.999996,18.6666662 L158.930663,28.138666 L0.363999991,28.138666 L0.217333328,19.8399995 L33.4986658,8.51866645 C60.6359985,-0.711999982 89.4986644,-1.44666663 116.98133,6.39333317 L159.999996,18.6666662 Z" id="path204"></path>
                        </g>
                        <g id="g206" transform="translate(1155.704371, 567.391319)" fill="#FFE7D6" fill-rule="nonzero">
                            <path d="M173.333329,267.999993 C156.091996,287.370659 116.18933,318.281325 72.1986649,310.821326 L26.242666,290.410659 L12.725333,191.215995 L0.626666651,2.26533328 L164.515996,0.38399999 L180.101329,184.313329 C180.101329,184.313329 190.574662,248.63066 173.333329,267.999993" id="path208"></path>
                        </g>
                        <g id="g210" transform="translate(1216.979170, 842.729846)" fill="#F9AA8F" fill-rule="nonzero">
                            <path d="M5.3333332,79.999998 C5.3333332,79.999998 4.85999988,41.2386656 1.15866664,21.4973328 C-0.27466666,13.8586663 3.22533325,6.04266652 9.70799976,3.23199992 C14.493333,1.15866664 20.8239995,-0.0599999985 28.7559993,1.4493333 C49.3813321,5.3773332 50.0826654,28.5493326 50.0826654,28.5493326 L43.1253323,99.2346642 L5.3333332,79.999998 Z" id="path212"></path>
                        </g>
                        <g id="g214" transform="translate(1220.102769, 892.630778)" fill="#EF8062" fill-rule="nonzero">
                            <path d="M39.999999,49.3333321 L2.20933328,30.0986659 C2.20933328,30.0986659 2.03599995,15.7906663 1.06933331,0.13333333 C10.9279997,-0.353333325 23.3186661,5.2373332 36.4706658,22.1053328 C38.423999,24.6106661 40.2493323,27.0973327 41.9466656,29.5559993 L39.999999,49.3333321 Z" id="path216"></path>
                        </g>
                        <g id="g218" transform="translate(1195.427037, 908.766244)" fill="#F9AA8F" fill-rule="nonzero">
                            <path d="M29.3333326,113.333331 C29.3333326,113.333331 16.4013329,102.334664 10.8053331,83.8759979 C5.21199987,65.4173317 0.315999992,52.0626654 0.315999992,52.0626654 L6.25999984,48.1346655 C6.25999984,48.1346655 1.52799996,22.3666661 5.21199987,13.573333 C10.8053331,0.218666661 34.4039991,-10.5826664 61.1439985,19.4639995 C87.8893311,49.5093321 90.1613311,76.0213314 85.6173312,88.9813311 C81.0733313,101.943997 39.819999,120.010664 29.3333326,113.333331" id="path220"></path>
                        </g>
                        <g id="g222" transform="translate(1192.098904, 919.000644)" fill="#121841" fill-rule="nonzero">
                            <path d="M97.3333309,71.9999982 C97.3333309,71.9999982 103.277331,67.2879983 99.0826642,50.7906654 C94.8866643,34.2959991 70.1826649,8.70533312 70.1826649,0.851999979 C70.1826649,0.851999979 64.1253317,11.1213331 69.0199983,27.226666 C73.9146648,43.3293323 73.9146648,52.7559987 68.6693316,52.7559987 C63.4239984,52.7559987 72.8613315,74.3586648 72.8613315,74.3586648 C72.8613315,74.3586648 60.9773318,85.3546645 43.8493322,80.6413313 C26.718666,75.9279981 9.23999977,86.5319978 3.64399991,100.279997 C-1.94799995,114.026664 -1.1373333,153.299996 26.0213327,147.802663 C51.9506654,142.554663 97.3333309,71.9999982 97.3333309,71.9999982" id="path224"></path>
                        </g>
                        <g id="g226" transform="translate(1256.069035, 951.768910)" fill="#F9AA8F" fill-rule="nonzero">
                            <path d="M1.3333333,9.3333331 C1.3333333,9.3333331 3.03733326,22.8839994 6.84133316,22.8839994 C10.6413331,22.8839994 14.1826663,21.4106661 13.2639997,13.7519997 C12.3466664,6.09199985 8.41599979,-2.44799994 3.42933325,1.08666664 C-1.54799996,4.61999988 1.3333333,9.3333331 1.3333333,9.3333331" id="path228"></path>
                        </g>
                    </g>
                </g>
                <g id="g230" transform="translate(1221.333295, 721.666640)" fill="url(#linearGradient-2)" fill-rule="nonzero">
                    <g id="g240">
                        <path d="M76.6119981,355.134658 C61.1306651,342.963991 54.001332,274.857326 54.001332,274.857326 L54.001332,274.857326 L30.7493326,171.459996 C34.0453325,148.538663 36.1826658,112.427997 25.4333327,70.5426649 L25.4333327,70.5426649 C18.9493329,45.2759989 9.53333309,24.746666 0.94533331,9.37866643 L0.94533331,9.37866643 C12.5959997,5.3573332 30.3253326,0.797333313 52.1839987,1.01333331 L52.1839987,1.01333331 C68.7919983,1.1773333 82.7039979,4.04666657 92.9119977,6.99733316 L92.9119977,6.99733316 L105.127997,373.746657 C105.127997,373.746657 92.097331,367.303991 76.6119981,355.134658" id="path250"></path>
                    </g>
                </g>
                <g id="g252" transform="translate(1372.000000, 1172.000000)" fill="#EF8062" fill-rule="nonzero">
                    <g id="g254" transform="translate(-0.000042, 0.333296)">
                        <g id="g260" transform="translate(1.250000, 1.235733)">
                            <path d="M2.6666666,11.9999997 C2.6666666,11.9999997 4.88266654,16.5933329 6.86666649,15.9386663 C8.85199978,15.2826663 9.30266643,6.05733318 5.77733319,2.17066661 C2.25066661,-1.71333329 -0.715999982,4.65466655 2.6666666,11.9999997" id="path262"></path>
                        </g>
                    </g>
                </g>
                <g id="g264" transform="translate(1378.666624, 716.333307)" fill="url(#linearGradient-3)" fill-rule="nonzero">
                    <g id="g274">
                        <path d="M0.814666646,12.3306664 C13.781333,7.49999981 32.8626658,2.07599995 56.4093319,1.11599997 L56.4093319,1.11599997 C75.1546648,0.354666658 91.0719977,2.65199993 102.943997,5.3013332 L102.943997,5.3013332 C97.2266642,19.4679995 88.3026645,44.1453322 82.6533313,75.7946648 L82.6533313,75.7946648 C60.4959985,199.947995 116.823997,273.833326 76.2919981,335.150658 L76.2919981,335.150658 C67.2439983,348.833325 49.0919988,368.371991 8.81866645,381.082657 L8.81866645,381.082657 L0.814666646,12.3306664 Z" id="path286"></path>
                    </g>
                </g>
                <g id="g288" transform="translate(1142.000000, 849.000000)" fill-rule="nonzero">
                    <g id="g290" transform="translate(0.666630, 0.666637)">
                        <g id="g296" transform="translate(154.234396, 69.446665)" fill="#FC908D">
                            <polygon id="path298" points="0 162.666663 35.0279991 183.147995 23.7133327 0.830666646 4.50933322 104.243997 11.2879997 108.907997"></polygon>
                        </g>
                        <g id="g300" transform="translate(241.003861, 72.001332)" fill="#FC908D">
                            <polygon id="path302" points="0 0 2.98266659 180.593329 34.1893325 166.406663 17.1919996 106.482664 21.5053328 103.114664"></polygon>
                        </g>
                        <g id="g304" transform="translate(2.024800, 25.614533)" fill="#647899">
                            <path d="M0,78.6666647 L10.0053331,74.9573315 L13.349333,76.8853314 L92.061331,3.75999991 C94.3546643,1.61333329 97.3786642,0.441333322 100.527997,0.490666654 L189.827995,1.71066662 C192.974662,1.75866662 194.610662,5.5173332 192.438662,7.83466647 L111.725331,94.8186643 C109.138664,97.5999976 105.429331,99.0159975 101.647997,98.6746642 L8.1759998,90.0119977 C6.92933316,89.8893311 5.95599985,89.1826644 5.4173332,88.2533311 L5.3453332,88.1093311 L0,78.6666647 Z" id="path306"></path>
                        </g>
                        <g id="g308" transform="translate(0.924533, 16.300800)" fill="#8BADE1">
                            <path d="M87.9999978,3.9999999 L1.98666662,83.9519979 C-0.318666659,86.0959978 0.995999975,89.9613311 4.13466656,90.2506644 L97.6053309,98.9226642 C101.377331,99.2733309 105.098664,97.8506642 107.677331,95.0746643 L188.401329,8.09333313 C190.549329,5.77866652 188.935995,2.01199995 185.777329,1.96799995 L96.4759976,0.735999982 C93.3386643,0.693333316 90.3026644,1.86133329 87.9999978,3.9999999" id="path310"></path>
                        </g>
                        <g id="g312" transform="translate(140.055996, 0.296933)" fill="#F9AA8F">
                            <path d="M30.6666659,43.9999989 L24.1706661,56.8053319 C23.4199994,58.2813319 24.9173327,59.8906652 26.438666,59.2399985 C29.8986659,57.7573319 34.9279991,54.8466653 39.359999,49.3706654 C44.7506655,42.7039989 56.9746652,30.3506659 62.7493318,30.3506659 C68.5213316,30.3506659 93.0959977,27.8959993 93.0959977,27.8959993 L97.2213309,0.271999993 C97.2213309,0.271999993 8.1879998,18.1719995 5.4253332,23.9453327 C-1.31599997,38.047999 -2.23466661,51.7026654 15.1946663,49.7866654 C27.682666,48.4133321 30.6666659,43.9999989 30.6666659,43.9999989" id="path314"></path>
                        </g>
                    </g>
                </g>
                <g id="g316" transform="translate(1358.666625, 828.333304)" fill="url(#linearGradient-4)" fill-rule="nonzero">
                    <g id="g326">
                        <path d="M90.5279977,232.103994 C77.6439981,231.957328 65.5973317,217.969328 60.7226651,204.915995 L60.7226651,204.915995 C51.9319987,181.354662 69.5306649,168.099996 73.7946648,125.095997 L73.7946648,125.095997 C76.1546648,101.321331 79.767998,73.1759982 62.9293318,60.7146651 L62.9293318,60.7146651 C43.7919989,46.5559988 0.802666647,60.7146651 0.802666647,60.7146651 L0.802666647,60.7146651 L0.802666647,18.2706662 C10.0519997,13.081333 24.5359994,6.37066651 43.2999989,3.17599992 L43.2999989,3.17599992 C51.8799987,1.71599996 83.9053312,-3.73733324 107.258664,8.32666646 L107.258664,8.32666646 C155.019996,33.0013325 154.801329,124.918664 131.830663,182.433329 L131.830663,182.433329 C127.067997,194.359995 111.993331,232.099994 90.7319977,232.103994 L90.7319977,232.103994 C90.6626644,232.103994 90.5973311,232.103994 90.5279977,232.103994" id="path338"></path>
                    </g>
                </g>
                <g id="g340" transform="translate(384.000000, 873.000000)">
                    <g id="g342-Clipped" transform="translate(-0.000000, 0.000000)">
                        <g id="g342" transform="translate(-0.000017, 0.666637)">
                            <g id="g348" transform="translate(817.826780, 0.045600)" fill="#F9AA8F" fill-rule="nonzero">
                                <path d="M1.3333333,23.9999994 C-1.11466664,18.0959995 5.70399986,12.0279997 7.04266649,10.7506664 C9.59066643,8.31999979 14.165333,5.01466654 17.0133329,3.35333325 C19.8613328,1.69066662 21.6946661,0.847999979 24.4413327,0.235999994 C28.4759993,-0.66266665 36.3053324,13.537333 36.2734302,15.4159996 C36.1586658,22.3506661 21.8279995,34.5293325 15.049333,32.3106659 C8.26933313,30.0906659 1.3333333,23.9999994 1.3333333,23.9999994" id="path350"></path>
                            </g>
                            <g id="g352" transform="translate(841.395846, 33.807332)" fill="#FFFFFF" fill-rule="nonzero">
                                <path d="M2.6666666,5.3333332 C5.58933319,0.901333311 11.0613331,-0.646666651 14.8866663,1.87733329 C19.5599995,4.95866654 18.9893329,12.953333 16.5239996,14.4719996 C15.029333,15.3906663 13.5706663,13.4879997 10.4759997,14.1479996 C6.7866665,14.9359996 5.98266652,18.2626662 4.30266656,17.9266662 C1.97199995,17.4626662 -0.581333319,10.2559997 2.6666666,5.3333332" id="path354"></path>
                            </g>
                            <g id="g418-Clipped" transform="translate(0.000000, 38.666666)">
                                <mask id="mask-6" fill="white">
                                    <use xlink:href="#path-5"></use>
                                </mask>
                                <g id="path360"></g>
                                <g id="g418" opacity="0.25" mask="url(#mask-6)">
                                    <g id="g414-Clipped">
                                        <mask id="mask-8" fill="white">
                                            <use xlink:href="#path-7"></use>
                                        </mask>
                                        <g id="path364"></g>
                                        <g id="g414" mask="url(#mask-8)">
                                            <g transform="translate(-44386.665557, -44935.998877)" id="g410-Clipped">
                                                <mask id="mask-10" fill="white">
                                                    <use xlink:href="#path-9"></use>
                                                </mask>
                                                <g id="path384"></g>
                                                <g id="g410" mask="url(#mask-10)">
                                                    <g transform="translate(44386.665557, 44935.998877)" id="g408">
                                                        <path d="M926.61331,1.26266664 L1366.3133,1084.38531 L44.1586656,1086.16397 L1.1573333,557.098653 L767.978647,52.8346653 L866.450645,61.7679985 C869.237312,61.5053318 871.105312,60.4773318 873.294645,58.6653319 L926.61331,1.26266664 Z" id="path406" fill="url(#linearGradient-11)" fill-rule="nonzero"></path>
                                                    </g>
                                                </g>
                                            </g>
                                        </g>
                                    </g>
                                </g>
                            </g>
                            <g id="g422" transform="translate(201.713595, 923.432244)" fill="#8BADE1" fill-rule="nonzero">
                                <path d="M343.999991,0 L14.3559996,0 C6.89333316,0 0.845333312,6.04933318 0.845333312,13.5106663 L0.845333312,130.082663 C0.845333312,137.543997 6.89333316,143.591996 14.3559996,143.591996 L343.999991,143.591996 C351.461325,143.591996 357.510658,137.543997 357.510658,130.082663 L357.510658,13.5106663 C357.510658,6.04933318 351.461325,0 343.999991,0" id="path424"></path>
                            </g>
                            <g id="g426" transform="translate(241.387994, 953.236910)" fill="#647899" fill-rule="nonzero">
                                <path d="M82.6666646,35.9999991 C79.3466647,13.5959997 58.4933319,-1.87333329 36.0653324,1.45066663 C13.661333,4.77066655 -1.80933329,25.6239994 1.51199996,48.0279988 C4.45999989,67.9199983 21.2493328,82.3493313 40.6746656,82.9826646 L38.567999,68.7706649 C26.9319993,67.2559983 17.1933329,58.1853319 15.3826663,45.9719989 C13.1959997,31.2226659 23.3959994,17.5039996 38.1213324,15.321333 C52.8679987,13.1359997 66.6093317,23.3066661 68.7959983,38.055999 C69.2213316,40.931999 69.1746649,43.8053322 68.7026649,46.5146655 L70.6919982,47.9893321 L80.823998,55.5066653 C82.9639979,49.4346654 83.6746646,42.8013323 82.6666646,35.9999991" id="path428"></path>
                            </g>
                            <g id="g430" transform="translate(287.070259, 1006.278642)" fill="#F3F6FF" fill-rule="nonzero">
                                <path d="M31.9999992,9.3333331 L20.6066662,0.882666645 C16.8373329,8.56533312 9.4693331,14.317333 0.351999991,15.6679996 L2.40666661,29.5399993 C15.352,27.6213326 25.986666,19.8653328 31.9999992,9.3333331" id="path432"></path>
                            </g>
                            <g id="g434" transform="translate(360.734391, 1015.587841)" fill="#F3F6FF" fill-rule="nonzero">
                                <path d="M153.333329,0 L5.98666652,0 C3.07999992,0 0.722666649,2.35733327 0.722666649,5.26399987 C0.722666649,8.1719998 3.07999992,10.5279997 5.98666652,10.5279997 L153.333329,10.5279997 C156.241329,10.5279997 158.597329,8.1719998 158.597329,5.26399987 C158.597329,2.35733327 156.241329,0 153.333329,0" id="path436"></path>
                            </g>
                            <g id="g458-Clipped" transform="translate(361.333324, 989.333309)">
                                <mask id="mask-13" fill="white">
                                    <use xlink:href="#path-12"></use>
                                </mask>
                                <g id="path442"></g>
                                <g id="g458" opacity="0.5" mask="url(#mask-13)">
                                    <g id="g454-Clipped">
                                        <mask id="mask-15" fill="white">
                                            <use xlink:href="#path-14"></use>
                                        </mask>
                                        <g id="path446"></g>
                                        <g id="g454" mask="url(#mask-15)">
                                            <g transform="translate(-1.333333, 0.000000)" id="g452">
                                                <g transform="translate(1.009067, 0.630800)">
                                                    <path d="M78.6666647,0 L5.71199986,0 C2.80533326,0 0.447999989,2.35733327 0.447999989,5.26399987 C0.447999989,8.1719998 2.80533326,10.5279997 5.71199986,10.5279997 L78.6666647,10.5279997 C81.5746646,10.5279997 83.9306646,8.1719998 83.9306646,5.26399987 C83.9306646,2.35733327 81.5746646,0 78.6666647,0" id="path450" fill="#F3F6FF" fill-rule="nonzero"></path>
                                                </g>
                                            </g>
                                        </g>
                                    </g>
                                </g>
                            </g>
                            <g id="g482-Clipped" transform="translate(361.333324, 963.999976)">
                                <mask id="mask-17" fill="white">
                                    <use xlink:href="#path-16"></use>
                                </mask>
                                <g id="path466"></g>
                                <g id="g482" opacity="0.5" mask="url(#mask-17)">
                                    <g id="g478-Clipped">
                                        <mask id="mask-19" fill="white">
                                            <use xlink:href="#path-18"></use>
                                        </mask>
                                        <g id="path470"></g>
                                        <g id="g478" mask="url(#mask-19)">
                                            <g transform="translate(-1.333333, 0.000000)" id="g476">
                                                <g transform="translate(0.630267, 0.340533)">
                                                    <path d="M125.33333,0 L6.09066651,0 C3.18399992,0 0.826666646,2.35733327 0.826666646,5.26399987 C0.826666646,8.1719998 3.18399992,10.5279997 6.09066651,10.5279997 L125.33333,10.5279997 C128.24133,10.5279997 130.59733,8.1719998 130.59733,5.26399987 C130.59733,2.35733327 128.24133,0 125.33333,0" id="path474" fill="#F3F6FF" fill-rule="nonzero"></path>
                                                </g>
                                            </g>
                                        </g>
                                    </g>
                                </g>
                            </g>
                            <g id="g486" transform="translate(900.925711, 860.260378)" fill="#8BADE1" fill-rule="nonzero">
                                <path d="M163.999996,173.333329 L10.3613331,173.333329 C5.07866654,173.333329 0.794666647,169.049329 0.794666647,163.765329 L0.794666647,10.1266664 C0.794666647,4.84266655 5.07866654,0.558666653 10.3613331,0.558666653 L163.999996,0.558666653 C169.285329,0.558666653 173.569329,4.84266655 173.569329,10.1266664 L173.569329,163.765329 C173.569329,169.049329 169.285329,173.333329 163.999996,173.333329" id="path488"></path>
                            </g>
                            <g id="g490" transform="translate(900.925711, 860.819045)" fill="#DEF2FF" fill-rule="nonzero">
                                <path d="M163.999996,0 L10.3613331,0 C5.07866654,0 0.794666647,4.28399989 0.794666647,9.56799976 L0.794666647,46.5159988 L173.569329,46.5159988 L173.569329,9.56799976 C173.569329,4.28399989 169.285329,0 163.999996,0" id="path492"></path>
                            </g>
                            <g id="g514-Clipped" transform="translate(923.999977, 922.666644)">
                                <mask id="mask-21" fill="white">
                                    <use xlink:href="#path-20"></use>
                                </mask>
                                <g id="path498"></g>
                                <g id="g514" opacity="0.699997" mask="url(#mask-21)">
                                    <g id="g510-Clipped">
                                        <mask id="mask-23" fill="white">
                                            <use xlink:href="#path-22"></use>
                                        </mask>
                                        <g id="path502"></g>
                                        <g id="g510" mask="url(#mask-23)">
                                            <g transform="translate(-1.333333, 0.000000)" id="g508">
                                                <g transform="translate(0.962267, 0.173867)">
                                                    <path d="M17.3333329,0 L4.12266656,0 C2.41733327,0 1.03733331,1.3813333 1.03733331,3.08533326 L1.03733331,38.2413324 C1.03733331,39.9453323 2.41733327,41.3266656 4.12266656,41.3266656 L17.3333329,41.3266656 C19.0373333,41.3266656 20.4173328,39.9453323 20.4173328,38.2413324 L20.4173328,3.08533326 C20.4173328,1.3813333 19.0373333,0 17.3333329,0" id="path506" fill="#FFFFFF" fill-rule="nonzero"></path>
                                                </g>
                                            </g>
                                        </g>
                                    </g>
                                </g>
                            </g>
                            <g id="g518" transform="translate(959.462243, 922.840510)" fill="#FFFFFF" fill-rule="nonzero">
                                <path d="M17.3333329,0 L4.12266656,0 C2.41733327,0 1.03733331,1.3813333 1.03733331,3.08533326 L1.03733331,70.5879982 C1.03733331,72.2919982 2.41733327,73.6719982 4.12266656,73.6719982 L17.3333329,73.6719982 C19.0373333,73.6719982 20.4173328,72.2919982 20.4173328,70.5879982 L20.4173328,3.08533326 C20.4173328,1.3813333 19.0373333,0 17.3333329,0" id="path520"></path>
                            </g>
                            <g id="g542-Clipped" transform="translate(995.999975, 922.666644)">
                                <mask id="mask-25" fill="white">
                                    <use xlink:href="#path-24"></use>
                                </mask>
                                <g id="path526"></g>
                                <g id="g542" opacity="0.699997" mask="url(#mask-25)">
                                    <g id="g538-Clipped">
                                        <mask id="mask-27" fill="white">
                                            <use xlink:href="#path-26"></use>
                                        </mask>
                                        <g id="path530"></g>
                                        <g id="g538" mask="url(#mask-27)">
                                            <g transform="translate(-1.333333, 0.000000)" id="g536">
                                                <g transform="translate(0.628933, 0.173867)">
                                                    <path d="M17.3333329,0 L4.12266656,0 C2.41733327,0 1.03733331,1.3813333 1.03733331,3.08533326 L1.03733331,51.9639987 C1.03733331,53.6679987 2.41733327,55.049332 4.12266656,55.049332 L17.3333329,55.049332 C19.0373333,55.049332 20.4173328,53.6679987 20.4173328,51.9639987 L20.4173328,3.08533326 C20.4173328,1.3813333 19.0373333,0 17.3333329,0" id="path534" fill="#FFFFFF" fill-rule="nonzero"></path>
                                                </g>
                                            </g>
                                        </g>
                                    </g>
                                </g>
                            </g>
                            <g id="g546" transform="translate(1031.128908, 922.840510)" fill="#FFFFFF" fill-rule="nonzero">
                                <path d="M17.3333329,0 L4.12266656,0 C2.41733327,0 1.03733331,1.3813333 1.03733331,3.08533326 L1.03733331,89.7013311 C1.03733331,91.405331 2.41733327,92.7866643 4.12266656,92.7866643 L17.3333329,92.7866643 C19.0373333,92.7866643 20.4173328,91.405331 20.4173328,89.7013311 L20.4173328,3.08533326 C20.4173328,1.3813333 19.0373333,0 17.3333329,0" id="path548"></path>
                            </g>
                            <g id="g550" transform="translate(922.413977, 888.599578)" fill="#51A6F4" fill-rule="nonzero">
                                <path d="M43.9999989,0 L3.54799991,0 C1.76399996,0 0.317333325,1.44666663 0.317333325,3.23066659 C0.317333325,5.01466654 1.76399996,6.46133317 3.54799991,6.46133317 L43.9999989,6.46133317 C45.7839989,6.46133317 47.2306655,5.01466654 47.2306655,3.23066659 C47.2306655,1.44666663 45.7839989,0 43.9999989,0" id="path552"></path>
                            </g>
                            <g id="g574-Clipped" transform="translate(922.666644, 873.333312)">
                                <mask id="mask-29" fill="white">
                                    <use xlink:href="#path-28"></use>
                                </mask>
                                <g id="path558"></g>
                                <g id="g574" opacity="0.5" mask="url(#mask-29)">
                                    <g id="g570-Clipped">
                                        <mask id="mask-31" fill="white">
                                            <use xlink:href="#path-30"></use>
                                        </mask>
                                        <g id="path562"></g>
                                        <g id="g570" mask="url(#mask-31)">
                                            <g transform="translate(-1.333333, 0.000000)" id="g568">
                                                <g transform="translate(0.673200, 0.591733)">
                                                    <path d="M81.3333313,0 L3.9559999,0 C2.17199995,0 0.725333315,1.4453333 0.725333315,3.22933325 C0.725333315,5.01466654 2.17199995,6.45999984 3.9559999,6.45999984 L81.3333313,6.45999984 C83.1173313,6.45999984 84.5639979,5.01466654 84.5639979,3.22933325 C84.5639979,1.4453333 83.1173313,0 81.3333313,0" id="path566" fill="#499DF7" fill-rule="nonzero"></path>
                                                </g>
                                            </g>
                                        </g>
                                    </g>
                                </g>
                            </g>
                            <g id="g578" transform="translate(225.707061, 557.473319)" fill="#647899" fill-rule="nonzero">
                                <path d="M301.333326,206.666662 L21.3039995,206.666662 C10.2066664,206.666662 1.21199997,197.671995 1.21199997,186.575995 L1.21199997,20.2973328 C1.21199997,9.19999977 10.2066664,0.205333328 21.3039995,0.205333328 L301.333326,0.205333328 C312.429326,0.205333328 321.423992,9.19999977 321.423992,20.2973328 L321.423992,186.575995 C321.423992,197.671995 312.429326,206.666662 301.333326,206.666662" id="path580"></path>
                            </g>
                            <g id="g582" transform="translate(259.799460, 737.268915)" fill="#FFFFFF" fill-rule="nonzero">
                                <path d="M39.999999,0 L3.63466658,0 C1.85599995,0 0.414666656,1.4413333 0.414666656,3.21999992 C0.414666656,4.99866654 1.85599995,6.43999984 3.63466658,6.43999984 L39.999999,6.43999984 C41.7786656,6.43999984 43.2199989,4.99866654 43.2199989,3.21999992 C43.2199989,1.4413333 41.7786656,0 39.999999,0" id="path584"></path>
                            </g>
                            <g id="g606-Clipped" transform="translate(259.999993, 718.666649)">
                                <mask id="mask-33" fill="white">
                                    <use xlink:href="#path-32"></use>
                                </mask>
                                <g id="path590"></g>
                                <g id="g606" opacity="0.5" mask="url(#mask-33)">
                                    <g id="g602-Clipped">
                                        <mask id="mask-35" fill="white">
                                            <use xlink:href="#path-34"></use>
                                        </mask>
                                        <g id="path594"></g>
                                        <g id="g602" mask="url(#mask-35)">
                                            <g transform="translate(-1.333333, 0.000000)" id="g600">
                                                <g transform="translate(0.892533, 0.918000)">
                                                    <path d="M87.9999978,0 L3.87466657,0 C2.09599995,0 0.65466665,1.4413333 0.65466665,3.21999992 C0.65466665,4.99866654 2.09599995,6.43999984 3.87466657,6.43999984 L87.9999978,6.43999984 C89.7786644,6.43999984 91.2199977,4.99866654 91.2199977,3.21999992 C91.2199977,1.4413333 89.7786644,0 87.9999978,0" id="path598" fill="#FFFFFF" fill-rule="nonzero"></path>
                                                </g>
                                            </g>
                                        </g>
                                    </g>
                                </g>
                            </g>
                            <g id="g630-Clipped" transform="translate(270.666660, 603.999985)">
                                <mask id="mask-37" fill="white">
                                    <use xlink:href="#path-36"></use>
                                </mask>
                                <g id="path614"></g>
                                <g id="g630" opacity="0.5" mask="url(#mask-37)">
                                    <g id="g626-Clipped">
                                        <mask id="mask-39" fill="white">
                                            <use xlink:href="#path-38"></use>
                                        </mask>
                                        <g id="path618"></g>
                                        <g id="g626" mask="url(#mask-39)">
                                            <g transform="translate(1.333333, 5.333333)" id="g624">
                                                <g transform="translate(1.292267, 0.653600)">
                                                    <polyline id="path622" stroke="#FFFFFF" stroke-width="5.74133319" points="0 15.9999996 39.8266657 56.8999986 87.9746645 0.0986666642 130.179997 76.0546648 179.715996 46.8613322 227.467994 101.746664"></polyline>
                                                </g>
                                            </g>
                                        </g>
                                    </g>
                                </g>
                            </g>
                            <g id="g634" transform="translate(265.758393, 617.986918)" fill="#FFFFFF" fill-rule="nonzero">
                                <path d="M14.6666663,7.9999998 C14.6666663,4.0599999 11.4719997,0.866666645 7.53333314,0.866666645 C3.59333324,0.866666645 0.39999999,4.0599999 0.39999999,7.9999998 C0.39999999,11.9399997 3.59333324,15.133333 7.53333314,15.133333 C11.4719997,15.133333 14.6666663,11.9399997 14.6666663,7.9999998" id="path636"></path>
                            </g>
                            <g id="g638" transform="translate(305.584659, 658.887317)" fill="#FFFFFF" fill-rule="nonzero">
                                <path d="M14.6666663,7.9999998 C14.6666663,4.0599999 11.4719997,0.866666645 7.53333314,0.866666645 C3.59333324,0.866666645 0.39999999,4.0599999 0.39999999,7.9999998 C0.39999999,11.9399997 3.59333324,15.133333 7.53333314,15.133333 C11.4719997,15.133333 14.6666663,11.9399997 14.6666663,7.9999998" id="path640"></path>
                            </g>
                            <g id="g642" transform="translate(353.733058, 602.085985)" fill="#FFFFFF" fill-rule="nonzero">
                                <path d="M14.6666663,7.9999998 C14.6666663,4.0599999 11.4719997,0.866666645 7.53333315,0.866666645 C3.59333324,0.866666645 0.401333323,4.0599999 0.401333323,7.9999998 C0.401333323,11.9399997 3.59333324,15.133333 7.53333315,15.133333 C11.4719997,15.133333 14.6666663,11.9399997 14.6666663,7.9999998" id="path644"></path>
                            </g>
                            <g id="g646" transform="translate(395.937457, 678.041716)" fill="#FFFFFF" fill-rule="nonzero">
                                <path d="M14.6666663,7.9999998 C14.6666663,4.0599999 11.473333,0.866666645 7.53333315,0.866666645 C3.59333324,0.866666645 0.401333323,4.0599999 0.401333323,7.9999998 C0.401333323,11.9399997 3.59333324,15.133333 7.53333315,15.133333 C11.473333,15.133333 14.6666663,11.9399997 14.6666663,7.9999998" id="path648"></path>
                            </g>
                            <g id="g650" transform="translate(445.567722, 648.921184)" fill="#FFFFFF" fill-rule="nonzero">
                                <path d="M14.6666663,7.9999998 C14.6666663,4.0599999 11.4719997,0.866666645 7.53333314,0.866666645 C3.59333324,0.866666645 0.39999999,4.0599999 0.39999999,7.9999998 C0.39999999,11.9399997 3.59333324,15.133333 7.53333314,15.133333 C11.4719997,15.133333 14.6666663,11.9399997 14.6666663,7.9999998" id="path652"></path>
                            </g>
                            <g id="g654" transform="translate(493.226521, 703.733049)" fill="#FFFFFF" fill-rule="nonzero">
                                <path d="M14.6666663,7.9999998 C14.6666663,4.0599999 11.4719997,0.866666645 7.53199981,0.866666645 C3.59333324,0.866666645 0.39999999,4.0599999 0.39999999,7.9999998 C0.39999999,11.9399997 3.59333324,15.133333 7.53199981,15.133333 C11.4719997,15.133333 14.6666663,11.9399997 14.6666663,7.9999998" id="path656"></path>
                            </g>
                            <g id="g658" transform="translate(924.249977, 589.114519)" fill="#8BADE1" fill-rule="nonzero">
                                <path d="M139.999997,0 L13.9279997,0 C6.37999984,0 0.259999993,6.11999985 0.259999993,13.6679997 L0.259999993,139.739997 C0.259999993,147.28933 6.37999984,153.409329 13.9279997,153.409329 L139.999997,153.409329 C147.54933,153.409329 153.669329,147.28933 153.669329,139.739997 L153.669329,13.6679997 C153.669329,6.11999985 147.54933,0 139.999997,0" id="path660"></path>
                            </g>
                            <g id="g662" transform="translate(1013.111975, 639.572251)" fill="#FFFFFF" fill-rule="nonzero">
                                <path d="M15.9999996,78.6666647 C15.9999996,78.6666647 25.198666,76.8693314 29.6493326,70.9213316 C34.0999991,64.9733317 32.9026658,58.2986652 30.0799992,51.4946654 C27.2533327,44.6919989 18.4559995,10.9999997 15.4426663,6.56533317 C10.7373331,-0.366666658 0.381333324,0.915999977 0.381333324,0.915999977 L0.381333324,4.42533322 C0.381333324,4.42533322 10.5653331,3.31333325 13.9879997,12.385333 C17.4133329,21.4559995 25.6279994,48.1573321 27.2533327,52.949332 C28.8786659,57.7426652 31.3626659,62.4853318 28.0253326,68.0119983 C24.4933327,73.8533315 15.6146663,75.5346648 15.6146663,75.5346648 L15.9999996,78.6666647 Z" id="path664"></path>
                            </g>
                            <g id="g666" transform="translate(980.541709, 639.572251)" fill="#FFFFFF" fill-rule="nonzero">
                                <path d="M17.3333329,78.6666647 C17.3333329,78.6666647 8.13466646,76.8693314 3.68399991,70.9213316 C-0.766666647,64.9733317 0.430666656,58.2986652 3.25466659,51.4946654 C6.08133318,44.6919989 14.877333,10.9999997 17.8893329,6.56533317 C22.5959994,-0.366666658 32.9519992,0.915999977 32.9519992,0.915999977 L32.9519992,4.42533322 C32.9519992,4.42533322 22.7666661,3.31333325 19.3439995,12.385333 C15.9199996,21.4559995 7.70533314,48.1573321 6.08133318,52.949332 C4.45333322,57.7426652 1.97066662,62.4853318 5.30799987,68.0119983 C8.83999978,73.8533315 17.7186662,75.5346648 17.7186662,75.5346648 L17.3333329,78.6666647 Z" id="path668"></path>
                            </g>
                            <g id="g670" transform="translate(1021.937441, 713.400382)" fill="#FFFFFF" fill-rule="nonzero">
                                <path d="M2.6666666,7.9999998 L8.42399979,5.76933319 C8.90533311,5.58399986 9.1813331,5.07733321 9.07599977,4.57333322 L8.35599979,1.10133331 C8.24933313,0.597333318 7.79599981,0.242666661 7.28133315,0.26266666 L1.41599996,0.495999988 C0.786666647,0.52133332 0.319999992,1.08533331 0.41599999,1.70666662 L1.24666664,7.17599982 C1.34666663,7.84266647 2.03733328,8.24399979 2.6666666,7.9999998" id="path672"></path>
                            </g>
                            <g id="g674" transform="translate(995.714775, 713.400382)" fill="#FFFFFF" fill-rule="nonzero">
                                <path d="M6.6666665,7.9999998 L0.909333311,5.76933319 C0.427999989,5.58399986 0.15333333,5.07733321 0.257333327,4.57333322 L0.978666642,1.10133331 C1.08399997,0.597333318 1.53733329,0.242666661 2.05199995,0.26266666 L7.91866647,0.495999988 C8.54666645,0.52133332 9.01466644,1.08533331 8.91866644,1.70666662 L8.08933313,7.17599982 C7.9879998,7.84266647 7.29599982,8.24399979 6.6666665,7.9999998" id="path676"></path>
                            </g>
                            <g id="g678" transform="translate(955.354109, 610.421851)" fill="#FFFFFF" fill-rule="nonzero">
                                <path d="M55.9999986,30.6666659 L60.1946652,30.6666659 C60.1933318,28.618666 59.9759985,15.8439996 49.8373321,7.30266648 C39.1573324,-1.69466662 23.3053328,-1.05999997 13.2519997,6.14799985 C5.48666653,11.7159997 2.87999993,19.9933328 2.49599994,21.2746661 C1.82133329,23.5239994 0.181333329,28.9919993 1.63466663,35.1439991 C2.21466661,37.6119991 3.19199992,39.7493323 3.71733324,44.1013322 C3.9079999,45.6679989 4.16266656,47.8546655 3.9679999,50.4359987 C3.58266658,55.5106653 1.71333329,57.6639986 0.802666647,61.2186651 C0.0359999991,64.1919984 -0.361333324,68.6919983 1.74133329,74.9119981 C3.18266659,74.3693315 4.62266655,73.8279982 6.06399985,73.2853315 C5.32399987,71.8706649 4.40666656,69.7119983 4.08266656,66.9919983 C3.45333325,61.6906651 5.5293332,57.9893319 6.61999983,54.9719986 C10.5453331,44.1013322 2.6306666,39.475999 5.20666654,26.2159993 C5.77466652,23.2973328 6.97599983,17.0919996 11.8826664,12.053333 C19.1213329,4.61733322 33.1373325,1.01599997 44.1119989,7.91866647 C55.9279986,15.3506663 56.0093319,29.7919993 55.9999986,30.6666659" id="path680"></path>
                            </g>
                            <g id="g682" transform="translate(952.684910, 681.626916)" fill="#FFFFFF" fill-rule="nonzero">
                                <path d="M17.3333329,9.3333331 C17.3333329,4.75999988 13.6266663,1.05333331 9.05333311,1.05333331 C4.47999989,1.05333331 0.773333314,4.75999988 0.773333314,9.3333331 C0.773333314,13.9066663 4.47999989,17.6133329 9.05333311,17.6133329 C13.6266663,17.6133329 17.3333329,13.9066663 17.3333329,9.3333331" id="path684"></path>
                            </g>
                            <g id="g686" transform="translate(955.419309, 684.293583)" fill="#7489E2" fill-rule="nonzero">
                                <path d="M11.9999997,6.6666665 C11.9999997,3.52933325 9.45599976,0.986666642 6.31866651,0.986666642 C3.18266659,0.986666642 0.638666651,3.52933325 0.638666651,6.6666665 C0.638666651,9.80399975 3.18266659,12.3466664 6.31866651,12.3466664 C9.45599976,12.3466664 11.9999997,9.80399975 11.9999997,6.6666665" id="path688"></path>
                            </g>
                            <g id="g690" transform="translate(957.088509, 686.960249)" fill="#FFFFFF" fill-rule="nonzero">
                                <path d="M7.9999998,3.9999999 C7.9999998,2.14933332 6.49999984,0.649333317 4.64933322,0.649333317 C2.8013333,0.649333317 1.3013333,2.14933332 1.3013333,3.9999999 C1.3013333,5.85066652 2.8013333,7.35066648 4.64933322,7.35066648 C6.49999984,7.35066648 7.9999998,5.85066652 7.9999998,3.9999999" id="path692"></path>
                            </g>
                            <g id="g694" transform="translate(639.152384, 311.391859)" fill="#8BADE1" fill-rule="nonzero">
                                <path d="M133.33333,0 L21.5479995,0 C10.2159997,0 1.02933331,9.18666644 1.02933331,20.5186662 L1.02933331,132.30533 C1.02933331,143.63733 10.2159997,152.823996 21.5479995,152.823996 L133.33333,152.823996 C144.666663,152.823996 153.853329,143.63733 153.853329,132.30533 L153.853329,20.5186662 C153.853329,9.18666644 144.666663,0 133.33333,0" id="path696"></path>
                            </g>
                            <g id="g698" transform="translate(668.157583, 338.915325)" fill="#DEF2FF" fill-rule="nonzero">
                                <path d="M79.999998,17.3333329 C78.2973314,15.6306663 76.5186648,14.0999996 74.6226648,12.741333 C74.3173315,15.2279996 73.7813315,17.6786662 73.0159982,20.0706662 L83.6746646,39.951999 C86.6026645,41.291999 89.4346644,42.8039989 92.0759977,44.6786655 C92.4199977,44.9279989 92.7066643,45.1959989 92.917331,45.5026655 C92.1519977,35.2253325 87.8466645,25.1599994 79.999998,17.3333329 M70.2413316,21.5826661 C64.6719984,20.5493328 59.0653319,19.9933328 53.401332,19.9546662 L43.1239989,37.7333324 C44.7319989,40.6986656 46.3199988,43.6653322 47.8893321,46.6506655 C48.9613321,48.6786654 49.9933321,50.7079987 51.0466654,52.7546653 L72.3053315,54.937332 C74.9106648,51.1093321 77.3773314,47.2053322 79.5226647,43.1106656 C79.9226647,42.3639989 80.3053313,41.5986656 80.707998,40.8133323 L70.4133316,21.6199995 C70.3559982,21.6013328 70.2986649,21.5826661 70.2413316,21.5826661 M45.5359989,11.1333331 C45.2493322,10.7306664 44.9226655,10.3493331 44.5973322,9.96666642 L23.3173328,13.7546663 C20.8306661,16.7786662 18.5906662,19.9746662 16.6786662,23.3999994 C16.1799996,24.2613327 15.6439996,25.102666 15.2226663,26.0213327 L23.5479994,39.091999 C23.7399994,39.0346657 23.9493327,38.995999 24.1799994,38.9386657 C29.3839993,37.5413324 34.7039991,36.5466658 40.0426657,35.7613324 C40.3506657,35.7239991 40.6173323,35.6853324 40.827999,35.6666658 L50.8159987,18.3866662 C49.0946654,15.9559996 47.3346655,13.525333 45.5359989,11.1333331 M26.2079993,10.1759997 L44.2346656,6.96133316 C44.3879989,6.86533316 44.5213322,6.78933316 44.6746655,6.71333317 C46.5293322,5.77599986 48.4239988,4.97199988 50.3973321,4.32133323 C42.0519989,3.95733323 33.6519992,5.90933319 26.2079993,10.1759997 M13.233333,28.5279993 C13.041333,28.6053326 12.869333,28.7199993 12.6786663,28.8146659 C10.3813331,30.2693326 8.27733313,31.9159992 6.40133317,33.8866658 C3.54933324,41.923999 3.05199992,50.6506654 4.94799988,58.9159985 C5.84666652,60.6773318 6.86133316,62.3613318 8.00933313,63.9879984 C8.35333312,64.4853317 8.67866645,65.002665 9.06133311,65.4813317 L19.8146662,59.1279985 L19.8146662,58.8599985 C19.7973328,53.061332 20.3906662,47.3199988 21.5573328,41.655999 L21.5573328,41.5986656 L13.233333,28.5279993 Z M10.9746664,68.9439983 C11.6826664,70.8386649 12.3906664,72.7519982 13.1946663,74.6279981 C13.8266663,76.0626648 14.5319996,77.4413314 15.2999996,78.799998 C15.8159996,79.3546647 16.3333329,79.9093313 16.8679996,80.4453313 C21.9199995,85.4973312 27.8919993,89.0759978 34.2453325,91.1999977 C34.2053325,91.1426644 34.1679991,91.1039977 34.1493325,91.0466644 C34.2053325,90.9893311 34.2266658,90.9706644 34.2639991,90.9506644 C37.4599991,89.8413311 40.3866657,88.2146645 43.1413323,86.2813312 L37.7466657,70.0546649 C37.7279991,70.0346649 37.6906657,70.0346649 37.6706657,70.0159982 C36.5599991,69.5759983 35.4506658,69.1546649 34.3599991,68.6573316 C29.8813326,66.6293317 25.5373327,64.3893317 21.4226661,61.6919985 L10.7839997,67.9693316 C10.8026664,68.3133316 10.8613331,68.638665 10.9746664,68.9439983 M47.2573322,85.7079979 C50.3973321,86.0146645 53.5319987,86.3773312 56.6733319,86.5693312 C58.6053319,86.6653312 60.5386652,86.7413312 62.4906651,86.5879978 L76.7466647,70.5133316 C76.2679981,68.9639983 75.7893314,67.4133316 75.2159981,65.882665 C74.2013315,63.2226651 73.1306648,60.5826652 72.0586649,57.9413319 L51.333332,55.8173319 C51.0839987,56.1426653 50.8359987,56.4679986 50.5693321,56.7733319 C48.1186655,59.5479985 45.6493322,62.3039984 43.1986656,65.0599984 C43.2199989,65.078665 43.2399989,65.098665 43.2573323,65.1359984 C42.2826656,66.1119983 41.287999,67.1079983 40.291999,68.102665 L46.0519988,85.4586645 C46.4546655,85.5746645 46.8573322,85.6506645 47.2573322,85.7079979 M65.322665,90.2053311 C70.6613316,88.0426645 75.6759981,84.7706645 79.999998,80.4453313 C83.9426646,76.5226648 86.9839978,72.0253315 89.1479978,67.222665 C86.4679978,69.0586649 83.6173312,70.5706649 80.631998,71.7959982 C80.1533313,71.9866649 79.6746647,72.1599982 79.195998,72.3119982 L65.150665,88.1573311 C65.246665,88.8279978 65.3039984,89.5159978 65.322665,90.2053311 M92.6106644,66.8199983 C90.2186644,72.7333315 86.6799978,78.0346647 82.1413313,82.5879979 C77.5893314,87.1426645 72.2893315,90.6639977 66.374665,93.0559977 C60.6533318,95.3719976 54.625332,96.5386643 48.4439988,96.5386643 C42.2439989,96.5386643 36.2159991,95.3719976 30.4933326,93.0559977 C24.5813327,90.6639977 19.2799995,87.1426645 14.745333,82.5879979 C10.1906664,78.0346647 6.66933317,72.7333315 4.25733323,66.8199983 C1.94266662,61.1173318 0.775999981,55.0706653 0.775999981,48.8893321 C0.775999981,42.6893323 1.94266662,36.6613324 4.25733323,30.9586659 C6.66933317,25.0453327 10.1906664,19.7453328 14.745333,15.1906663 C19.2799995,10.6359997 24.5813327,7.11466649 30.4933326,4.72266655 C36.2159991,2.40799994 42.2439989,1.2213333 48.4439988,1.2213333 C54.625332,1.2213333 60.6533318,2.40799994 66.374665,4.72266655 C72.2893315,7.11466649 77.5893314,10.6359997 82.1413313,15.1906663 C86.6959978,19.7453328 90.2186644,25.0453327 92.6106644,30.9586659 C94.925331,36.6613324 96.0933309,42.6893323 96.0933309,48.8893321 C96.0933309,55.0706653 94.925331,61.1173318 92.6106644,66.8199983" id="path700"></path>
                            </g>
                        </g>
                    </g>
                </g>
            </g>
        </g>
    </g>
</svg>