<svg height="511pt" viewBox="0 -113 511.99951 511" width="511pt" xmlns="http://www.w3.org/2000/svg"><path d="m512 88.09375v186.597656c0 5.6875-4.613281 10.300782-10.300781 10.300782h-396.863281c-57.390626 0-105.234376-46.957032-104.83203175-104.34375.19531275-28.304688 11.75781275-53.917969 30.33593775-72.507813 18.746094-18.746094 44.648437-30.347656 73.253906-30.347656h398.105469c5.6875 0 10.300781 4.609375 10.300781 10.300781zm0 0" fill="#3b7ca8"/><path d="m512 108.699219v145.386719h-408.40625c-40.082031 0-72.6875-32.613282-72.6875-72.699219 0-40.074219 32.601562-72.691407 72.6875-72.691407h408.40625zm0 0" fill="#dceeef"/><path d="m501.699219 50.417969h-207.015625c-5.6875 0-10.300782-4.609375-10.300782-10.300781v-21.589844c0-5.691406 4.613282-10.300782 10.300782-10.300782h207.015625c5.6875 0 10.300781 4.609376 10.300781 10.300782v21.589844c0 5.691406-4.613281 10.300781-10.300781 10.300781zm0 0" fill="#3bc3ff"/><path d="m321.996094 50.417969h-27.3125c-5.6875 0-10.300782-4.609375-10.300782-10.300781v-21.589844c0-5.691406 4.613282-10.300782 10.300782-10.300782h27.3125zm0 0" fill="#ff5d49"/><path d="m363.652344 8.226562h38.636718v42.191407h-38.636718zm0 0" fill="#40e464"/><path d="m321.996094 8.226562h41.65625v42.191407h-41.65625zm0 0" fill="#ffbf00"/><path d="m175.472656 58.144531h-5.492187c-4.269531 0-7.726563-3.457031-7.726563-7.726562 0-4.265625 3.457032-7.726563 7.726563-7.726563h5.492187c4.269532 0 7.726563 3.460938 7.726563 7.726563 0 4.269531-3.457031 7.726562-7.726563 7.726562zm0 0" fill="#4c94c3"/><path d="m260.636719 37.046875h-90.65625c-4.269531 0-7.726563-3.457031-7.726563-7.722656 0-4.269531 3.457032-7.726563 7.726563-7.726563h90.65625c4.265625 0 7.726562 3.457032 7.726562 7.726563 0 4.265625-3.460937 7.722656-7.726562 7.722656zm0 0" fill="#4c94c3"/><path d="m233.851562 15.953125h-63.871093c-4.269531 0-7.726563-3.460937-7.726563-7.726563 0-4.269531 3.457032-7.726562 7.726563-7.726562h63.871093c4.265626 0 7.726563 3.457031 7.726563 7.726562 0 4.265626-3.460937 7.726563-7.726563 7.726563zm0 0" fill="#3bc3ff"/><path d="m260.636719 15.953125h-6.183594c-4.265625 0-7.726563-3.460937-7.726563-7.726563 0-4.269531 3.460938-7.726562 7.726563-7.726562h6.183594c4.265625 0 7.726562 3.457031 7.726562 7.726562 0 4.265626-3.460937 7.726563-7.726562 7.726563zm0 0" fill="#3bc3ff"/><path d="m260.652344 58.144531h-63.871094c-4.269531 0-7.726562-3.457031-7.726562-7.726562 0-4.265625 3.457031-7.726563 7.726562-7.726563h63.871094c4.265625 0 7.722656 3.460938 7.722656 7.726563 0 4.269531-3.457031 7.726562-7.722656 7.726562zm0 0" fill="#4c94c3"/><g fill="#1a5a84"><path d="m258.644531 209.828125c-2.234375 0-4.390625-.96875-5.875-2.703125l-10.660156-12.472656-10.664063 12.472656c-1.8125 2.113281-4.617187 3.097656-7.351562 2.5625-2.730469-.53125-4.96875-2.496094-5.851562-5.132812l-13.851563-41.421876c-1.355469-4.046874.828125-8.425781 4.875-9.777343 4.046875-1.359375 8.425781.828125 9.78125 4.875l9.523437 28.472656 7.664063-8.964844c1.46875-1.714843 3.613281-2.703125 5.871094-2.703125 2.261719 0 4.40625.988282 5.875 2.703125l7.664062 8.964844 9.523438-28.472656c1.351562-4.046875 5.734375-6.230469 9.777343-4.878907 4.046876 1.355469 6.230469 5.730469 4.878907 9.78125l-13.855469 41.421876c-.882812 2.636718-3.117188 4.597656-5.847656 5.132812-.492188.09375-.988282.140625-1.476563.140625zm0 0"/><path d="m344.167969 209.828125c-2.234375 0-4.386719-.96875-5.871094-2.703125l-10.664063-12.472656-10.664062 12.472656c-1.804688 2.113281-4.613281 3.101562-7.347656 2.5625-2.730469-.53125-4.96875-2.496094-5.847656-5.132812l-13.855469-41.421876c-1.351563-4.046874.832031-8.425781 4.875-9.777343 4.046875-1.359375 8.425781.828125 9.78125 4.875l9.523437 28.472656 7.664063-8.964844c1.46875-1.714843 3.613281-2.703125 5.871093-2.703125 2.257813 0 4.40625.988282 5.871094 2.703125l7.667969 8.964844 9.523437-28.472656c1.351563-4.046875 5.730469-6.230469 9.777344-4.878907 4.046875 1.355469 6.230469 5.730469 4.875 9.78125l-13.851562 41.421876c-.882813 2.636718-3.117188 4.597656-5.847656 5.132812-.492188.09375-.988282.140625-1.480469.140625zm0 0"/><path d="m429.695312 209.828125c-2.234374 0-4.386718-.96875-5.871093-2.703125l-10.664063-12.472656-10.664062 12.472656c-1.808594 2.113281-4.613282 3.101562-7.347656 2.5625-2.734376-.535156-4.96875-2.496094-5.851563-5.132812l-13.851563-41.421876c-1.355468-4.046874.832032-8.425781 4.875-9.78125 4.042969-1.351562 8.425782.832032 9.777344 4.878907l9.523438 28.472656 7.667968-8.964844c1.46875-1.714843 3.613282-2.703125 5.871094-2.703125 2.257813 0 4.40625.988282 5.871094 2.703125l7.667969 8.964844 9.523437-28.472656c1.351563-4.046875 5.730469-6.230469 9.777344-4.878907 4.046875 1.355469 6.230469 5.730469 4.875 9.78125l-13.851562 41.421876c-.882813 2.636718-3.117188 4.597656-5.851563 5.132812-.492187.09375-.984375.140625-1.476563.140625zm0 0"/><path d="m111.097656 206.984375c-1.976562 0-3.953125-.753906-5.460937-2.261719-3.019531-3.019531-3.019531-7.910156 0-10.929687l35.734375-35.730469c3.015625-3.019531 7.910156-3.019531 10.925781 0 3.019531 3.015625 3.019531 7.90625 0 10.925781l-35.734375 35.734375c-1.507812 1.507813-3.484375 2.261719-5.464844 2.261719zm0 0"/><path d="m143.402344 206.984375c-1.976563 0-3.953125-.753906-5.460938-2.261719-3.019531-3.019531-3.019531-7.910156 0-10.929687l35.734375-35.730469c3.015625-3.019531 7.910157-3.019531 10.925781 0 3.019532 3.015625 3.019532 7.90625 0 10.925781l-35.734374 35.734375c-1.507813 1.507813-3.488282 2.261719-5.464844 2.261719zm0 0"/><path d="m471.296875 208.921875c-4.269531 0-7.726563-3.457031-7.726563-7.726563v-.519531c0-4.269531 3.457032-7.726562 7.726563-7.726562 4.265625 0 7.726563 3.460937 7.726563 7.726562v.519531c0 4.269532-3.460938 7.726563-7.726563 7.726563zm0 0"/></g></svg>