<?xml version="1.0" encoding="utf-8"?>
<svg id="blog-hero" xmlns="http://www.w3.org/2000/svg" xmlns:xlink="http://www.w3.org/1999/xlink" width="514" height="372" viewBox="0 0 514 372">
  <defs>
    <clipPath id="clip-path">
      <path id="Clip_38" data-name="Clip 38" d="M0,.363H4.221v.773H0Z" transform="translate(0.097 0.363)" fill="none"/>
    </clipPath>
    <clipPath id="clip-path-2">
      <path id="Clip_103" data-name="Clip 103" d="M0,0H54.458V58.534H0Z" transform="translate(0.422 0.281)" fill="none"/>
    </clipPath>
    <clipPath id="clip-path-3">
      <path id="Clip_128" data-name="Clip 128" d="M0,371H514V0H0Z" fill="none"/>
    </clipPath>
  </defs>
  <path id="Fill_1" data-name="Fill 1" d="M202,17a28.617,28.617,0,0,1-15.612-4.978C181.81,8.943,178.209,4.693,176.682,0H0C1.527,4.693,5.128,8.943,9.706,12.022A28.617,28.617,0,0,0,25.318,17Z" transform="translate(0 164)" fill="#dff1fa"/>
  <path id="Fill_3" data-name="Fill 3" d="M12.354,28.962c2.571-3.116,3.4-7.417,1.881-12.168h.027c-1.346-4.584-.505-8.731,1.989-11.755C18.832,1.93,23.151,0,28.606,0H205c-5.455,0-9.775,1.93-12.354,5.039s-3.406,7.417-1.882,12.167h-.027c1.347,4.586.506,8.731-1.989,11.756-2.579,3.109-6.9,5.038-12.354,5.038H0c5.454,0,9.775-1.929,12.354-5.038" transform="translate(26 147)" fill="#91d3f5"/>
  <path id="Fill_5" data-name="Fill 5" d="M176.686,0A28.586,28.586,0,0,1,192.3,4.988c4.577,3.084,8.179,7.341,9.706,12.043l61.676,189.938c1.527,4.7,5.128,8.961,9.706,12.044A28.586,28.586,0,0,0,289,224H112.314A28.586,28.586,0,0,1,96.7,219.012c-4.579-3.083-8.179-7.341-9.706-12.044L25.319,17.03c-1.527-4.7-5.128-8.959-9.706-12.043A28.586,28.586,0,0,0,0,0Z" transform="translate(54 147)" fill="#dff1fa"/>
  <path id="Fill_7" data-name="Fill 7" d="M12.362,29.022c2.572-3.078,3.407-7.328,1.883-12.022s-.69-8.943,1.882-12.021S23.032,0,28.49,0H205c-5.458,0-9.78,1.907-12.362,4.979S189.231,12.307,190.756,17s.689,8.944-1.883,12.022S181.969,34,176.51,34H0c5.458,0,9.781-1.906,12.362-4.978" transform="translate(167 337)" fill="#91d3f5"/>
  <path id="Fill_9" data-name="Fill 9" d="M111.9,3H94.915A2.3,2.3,0,0,1,92.9,1.5,1.177,1.177,0,0,1,93.007.418,1.082,1.082,0,0,1,93.919,0h16.987a2.293,2.293,0,0,1,2.015,1.5,1.177,1.177,0,0,1-.108,1.082A1.081,1.081,0,0,1,111.9,3ZM88.849,3H82.175a2.293,2.293,0,0,1-2.015-1.5A1.178,1.178,0,0,1,80.267.418,1.082,1.082,0,0,1,81.179,0h6.674a2.293,2.293,0,0,1,2.014,1.5,1.177,1.177,0,0,1-.108,1.082A1.08,1.08,0,0,1,88.849,3ZM73.68,3H54.875a2.293,2.293,0,0,1-2.014-1.5A1.177,1.177,0,0,1,52.968.418,1.081,1.081,0,0,1,53.879,0H72.686A2.293,2.293,0,0,1,74.7,1.5a1.174,1.174,0,0,1-.106,1.081A1.083,1.083,0,0,1,73.68,3ZM48.808,3H42.134a2.288,2.288,0,0,1-2.013-1.5A1.177,1.177,0,0,1,40.228.417,1.079,1.079,0,0,1,41.138,0h6.674a2.3,2.3,0,0,1,2.015,1.5,1.178,1.178,0,0,1-.108,1.083A1.082,1.082,0,0,1,48.808,3ZM33.642,3H14.835a2.291,2.291,0,0,1-2.014-1.5A1.177,1.177,0,0,1,12.928.418,1.082,1.082,0,0,1,13.839,0H32.646a2.293,2.293,0,0,1,2.015,1.5,1.178,1.178,0,0,1-.108,1.083A1.081,1.081,0,0,1,33.642,3ZM8.769,3H2.1A2.293,2.293,0,0,1,.08,1.5,1.178,1.178,0,0,1,.188.418,1.082,1.082,0,0,1,1.1,0H7.772A2.293,2.293,0,0,1,9.788,1.5,1.177,1.177,0,0,1,9.68,2.582,1.081,1.081,0,0,1,8.769,3Z" transform="translate(129 191)" fill="#6a6b7d"/>
  <path id="Fill_11" data-name="Fill 11" d="M119.9,3H96.218A2.3,2.3,0,0,1,94.2,1.5,1.177,1.177,0,0,1,94.308.418,1.083,1.083,0,0,1,95.221,0H118.9a2.294,2.294,0,0,1,2.016,1.5,1.174,1.174,0,0,1-.106,1.081A1.083,1.083,0,0,1,119.9,3ZM87.717,3h-25.5A2.291,2.291,0,0,1,60.2,1.5,1.176,1.176,0,0,1,60.3.418,1.081,1.081,0,0,1,61.215,0h25.5a2.292,2.292,0,0,1,2.016,1.5,1.174,1.174,0,0,1-.106,1.081A1.082,1.082,0,0,1,87.717,3ZM53.711,3h-25.5a2.292,2.292,0,0,1-2.016-1.5A1.175,1.175,0,0,1,26.3.419,1.083,1.083,0,0,1,27.212,0h25.5a2.3,2.3,0,0,1,2.017,1.5,1.176,1.176,0,0,1-.108,1.082A1.083,1.083,0,0,1,53.711,3Zm-34,0H2.1A2.294,2.294,0,0,1,.08,1.5,1.178,1.178,0,0,1,.188.418,1.083,1.083,0,0,1,1.1,0H18.71a2.294,2.294,0,0,1,2.016,1.5,1.177,1.177,0,0,1-.108,1.082A1.082,1.082,0,0,1,19.706,3Z" transform="translate(125 205)" fill="#6a6b7d"/>
  <path id="Fill_13" data-name="Fill 13" d="M115.9,3H98.859a2.3,2.3,0,0,1-2.021-1.5A1.175,1.175,0,0,1,96.944.419,1.086,1.086,0,0,1,97.86,0H114.9a2.3,2.3,0,0,1,2.021,1.5,1.173,1.173,0,0,1-.105,1.08A1.086,1.086,0,0,1,115.9,3ZM92.774,3h-6.7a1.688,1.688,0,0,1-.313-.03,1.408,1.408,0,0,1-.3.03H66.605a2.3,2.3,0,0,1-2.021-1.5A1.176,1.176,0,0,1,64.692.418,1.085,1.085,0,0,1,65.606,0H84.471a1.678,1.678,0,0,1,.314.031,1.419,1.419,0,0,1,.3-.031h6.694A2.3,2.3,0,0,1,93.8,1.5a1.174,1.174,0,0,1-.106,1.08A1.085,1.085,0,0,1,92.774,3ZM60.521,3H53.827a1.678,1.678,0,0,1-.314-.03,1.421,1.421,0,0,1-.3.03H34.354a2.3,2.3,0,0,1-2.021-1.5A1.175,1.175,0,0,1,32.44.419,1.085,1.085,0,0,1,33.355,0H52.219a1.689,1.689,0,0,1,.315.031A1.384,1.384,0,0,1,52.827,0h6.694a2.3,2.3,0,0,1,2.021,1.5,1.173,1.173,0,0,1-.106,1.08A1.086,1.086,0,0,1,60.521,3ZM28.268,3H21.574a1.707,1.707,0,0,1-.314-.03,1.387,1.387,0,0,1-.293.03H2.1A2.3,2.3,0,0,1,.081,1.5,1.174,1.174,0,0,1,.186.419,1.086,1.086,0,0,1,1.1,0H19.967a1.708,1.708,0,0,1,.314.031A1.4,1.4,0,0,1,20.575,0h6.694A2.3,2.3,0,0,1,29.29,1.5a1.174,1.174,0,0,1-.106,1.081A1.085,1.085,0,0,1,28.268,3Z" transform="translate(134 219)" fill="#6a6b7d"/>
  <path id="Fill_15" data-name="Fill 15" d="M111.9,3H94.914A2.292,2.292,0,0,1,92.9,1.5,1.177,1.177,0,0,1,93.007.418,1.082,1.082,0,0,1,93.919,0h16.987a2.292,2.292,0,0,1,2.014,1.5,1.176,1.176,0,0,1-.107,1.082A1.081,1.081,0,0,1,111.9,3ZM88.848,3H82.174A2.29,2.29,0,0,1,80.16,1.5,1.178,1.178,0,0,1,80.267.417,1.082,1.082,0,0,1,81.179,0h6.673a2.293,2.293,0,0,1,2.015,1.5,1.176,1.176,0,0,1-.107,1.082A1.082,1.082,0,0,1,88.848,3ZM73.681,3H54.875A2.293,2.293,0,0,1,52.86,1.5,1.179,1.179,0,0,1,52.967.417,1.081,1.081,0,0,1,53.878,0H72.685A2.291,2.291,0,0,1,74.7,1.5a1.176,1.176,0,0,1-.107,1.082A1.082,1.082,0,0,1,73.681,3ZM48.808,3H42.134A2.29,2.29,0,0,1,40.12,1.5,1.178,1.178,0,0,1,40.227.417,1.082,1.082,0,0,1,41.139,0h6.674a2.29,2.29,0,0,1,2.014,1.5,1.178,1.178,0,0,1-.108,1.082A1.081,1.081,0,0,1,48.808,3ZM33.641,3H14.835A2.293,2.293,0,0,1,12.82,1.5,1.177,1.177,0,0,1,12.927.418,1.083,1.083,0,0,1,13.839,0H32.646A2.292,2.292,0,0,1,34.66,1.5a1.177,1.177,0,0,1-.108,1.082A1.081,1.081,0,0,1,33.641,3ZM8.768,3H2.1A2.291,2.291,0,0,1,.08,1.5,1.178,1.178,0,0,1,.187.417,1.082,1.082,0,0,1,1.1,0H7.772A2.292,2.292,0,0,1,9.787,1.5,1.176,1.176,0,0,1,9.68,2.582,1.082,1.082,0,0,1,8.768,3Z" transform="translate(142 233)" fill="#6a6b7d"/>
  <path id="Fill_17" data-name="Fill 17" d="M119.9,3h-17a2.293,2.293,0,0,1-2.017-1.5,1.176,1.176,0,0,1,.107-1.082A1.083,1.083,0,0,1,101.9,0h17a2.3,2.3,0,0,1,2.017,1.5,1.178,1.178,0,0,1-.108,1.083A1.082,1.082,0,0,1,119.9,3ZM96.826,3H90.145a2.294,2.294,0,0,1-2.016-1.5A1.177,1.177,0,0,1,88.237.418,1.083,1.083,0,0,1,89.15,0h6.68a2.291,2.291,0,0,1,2.015,1.5,1.177,1.177,0,0,1-.107,1.083A1.082,1.082,0,0,1,96.826,3Zm-33.4,0H44.6a2.291,2.291,0,0,1-2.015-1.5A1.174,1.174,0,0,1,42.693.418,1.083,1.083,0,0,1,43.607,0H62.431a2.293,2.293,0,0,1,2.016,1.5,1.178,1.178,0,0,1-.108,1.083A1.083,1.083,0,0,1,63.427,3ZM38.53,3H31.851a2.3,2.3,0,0,1-2.017-1.5A1.177,1.177,0,0,1,29.942.417,1.082,1.082,0,0,1,30.854,0h6.68a2.3,2.3,0,0,1,2.018,1.5,1.177,1.177,0,0,1-.108,1.082A1.084,1.084,0,0,1,38.53,3ZM5.133,3H2.1A2.294,2.294,0,0,1,.08,1.5,1.177,1.177,0,0,1,.188.417,1.082,1.082,0,0,1,1.1,0H4.135A2.291,2.291,0,0,1,6.151,1.5a1.176,1.176,0,0,1-.106,1.082A1.082,1.082,0,0,1,5.133,3Z" transform="translate(139 247)" fill="#6a6b7d"/>
  <path id="Fill_19" data-name="Fill 19" d="M119.9,3h-17a2.291,2.291,0,0,1-2.014-1.5A1.179,1.179,0,0,1,100.99.418,1.082,1.082,0,0,1,101.9,0h17a2.3,2.3,0,0,1,2.016,1.5,1.171,1.171,0,0,1-.108,1.078A1.084,1.084,0,0,1,119.9,3Zm-25.5,0H75.571a2.289,2.289,0,0,1-2.015-1.5A1.181,1.181,0,0,1,73.665.417,1.08,1.08,0,0,1,74.575,0H93.4a2.293,2.293,0,0,1,2.016,1.5,1.171,1.171,0,0,1-.108,1.078A1.083,1.083,0,0,1,94.395,3ZM67.07,3H48.245a2.286,2.286,0,0,1-2.013-1.5A1.179,1.179,0,0,1,46.338.418,1.081,1.081,0,0,1,47.25,0H66.074a2.3,2.3,0,0,1,2.018,1.5,1.174,1.174,0,0,1-.11,1.079A1.082,1.082,0,0,1,67.07,3ZM39.743,3H20.919A2.291,2.291,0,0,1,18.9,1.5,1.179,1.179,0,0,1,19.012.418,1.082,1.082,0,0,1,19.924,0H38.749a2.293,2.293,0,0,1,2.017,1.5,1.172,1.172,0,0,1-.109,1.078A1.084,1.084,0,0,1,39.743,3ZM12.417,3H2.1A2.289,2.289,0,0,1,.08,1.5,1.181,1.181,0,0,1,.189.417,1.08,1.08,0,0,1,1.1,0H11.423a2.293,2.293,0,0,1,2.016,1.5,1.171,1.171,0,0,1-.108,1.078A1.083,1.083,0,0,1,12.417,3Z" transform="translate(144 261)" fill="#6a6b7d"/>
  <path id="Fill_21" data-name="Fill 21" d="M119.9,3h-17a2.294,2.294,0,0,1-2.016-1.5,1.176,1.176,0,0,1,.106-1.082A1.082,1.082,0,0,1,101.9,0h17a2.3,2.3,0,0,1,2.017,1.5,1.177,1.177,0,0,1-.108,1.082A1.082,1.082,0,0,1,119.9,3ZM96.827,3h-25.5a2.294,2.294,0,0,1-2.016-1.5A1.176,1.176,0,0,1,69.414.418,1.082,1.082,0,0,1,70.327,0h25.5a2.294,2.294,0,0,1,2.016,1.5,1.177,1.177,0,0,1-.108,1.082A1.081,1.081,0,0,1,96.827,3ZM65.252,3h-25.5a2.292,2.292,0,0,1-2.016-1.5A1.177,1.177,0,0,1,37.84.418,1.083,1.083,0,0,1,38.753,0h25.5a2.3,2.3,0,0,1,2.017,1.5,1.176,1.176,0,0,1-.108,1.081A1.083,1.083,0,0,1,65.252,3ZM33.677,3H8.176A2.3,2.3,0,0,1,6.158,1.5,1.178,1.178,0,0,1,6.266.418,1.083,1.083,0,0,1,7.178,0h25.5A2.3,2.3,0,0,1,34.7,1.5a1.176,1.176,0,0,1-.108,1.082A1.083,1.083,0,0,1,33.677,3ZM2.1,3A2.3,2.3,0,0,1,.08,1.5,1.178,1.178,0,0,1,.188.418,1.083,1.083,0,0,1,1.1,0,2.3,2.3,0,0,1,3.119,1.5a1.173,1.173,0,0,1-.108,1.08A1.085,1.085,0,0,1,2.1,3Z" transform="translate(148 275)" fill="#6a6b7d"/>
  <path id="Fill_23" data-name="Fill 23" d="M119.9,3h-17a2.294,2.294,0,0,1-2.016-1.5,1.177,1.177,0,0,1,.108-1.082A1.082,1.082,0,0,1,101.9,0h17a2.293,2.293,0,0,1,2.016,1.5,1.174,1.174,0,0,1-.106,1.081A1.083,1.083,0,0,1,119.9,3ZM96.826,3H90.145a2.292,2.292,0,0,1-2.016-1.5A1.176,1.176,0,0,1,88.237.418,1.082,1.082,0,0,1,89.149,0h6.68a2.3,2.3,0,0,1,2.017,1.5,1.175,1.175,0,0,1-.107,1.081A1.082,1.082,0,0,1,96.826,3ZM81.644,3h-17a2.3,2.3,0,0,1-2.017-1.5A1.176,1.176,0,0,1,62.733.418,1.082,1.082,0,0,1,63.644,0h17a2.294,2.294,0,0,1,2.017,1.5,1.175,1.175,0,0,1-.107,1.081A1.082,1.082,0,0,1,81.644,3ZM58.569,3H51.89a2.293,2.293,0,0,1-2.017-1.5A1.175,1.175,0,0,1,49.981.419,1.082,1.082,0,0,1,50.893,0h6.68a2.3,2.3,0,0,1,2.016,1.5,1.176,1.176,0,0,1-.108,1.082A1.082,1.082,0,0,1,58.569,3ZM43.389,3h-17a2.292,2.292,0,0,1-2.016-1.5A1.175,1.175,0,0,1,24.477.419,1.082,1.082,0,0,1,25.389,0h17a2.3,2.3,0,0,1,2.016,1.5A1.177,1.177,0,0,1,44.3,2.582,1.081,1.081,0,0,1,43.389,3ZM20.314,3h-6.68a2.292,2.292,0,0,1-2.016-1.5A1.174,1.174,0,0,1,11.724.419,1.082,1.082,0,0,1,12.637,0h6.68a2.3,2.3,0,0,1,2.017,1.5,1.176,1.176,0,0,1-.108,1.082A1.082,1.082,0,0,1,20.314,3ZM5.133,3H2.1A2.291,2.291,0,0,1,.08,1.5,1.175,1.175,0,0,1,.187.419,1.082,1.082,0,0,1,1.1,0H4.136A2.3,2.3,0,0,1,6.152,1.5a1.176,1.176,0,0,1-.108,1.082A1.082,1.082,0,0,1,5.133,3Z" transform="translate(153 289)" fill="#6a6b7d"/>
  <path id="Fill_25" data-name="Fill 25" d="M90.9,3H73.868a2.3,2.3,0,0,1-2.02-1.5A1.174,1.174,0,0,1,71.955.419,1.085,1.085,0,0,1,72.87,0H89.9a2.3,2.3,0,0,1,2.02,1.5,1.175,1.175,0,0,1-.107,1.081A1.084,1.084,0,0,1,90.9,3ZM67.787,3H61.1a2.3,2.3,0,0,1-2.019-1.5A1.174,1.174,0,0,1,59.183.419,1.085,1.085,0,0,1,60.1,0h6.69a2.3,2.3,0,0,1,2.021,1.5A1.176,1.176,0,0,1,68.7,2.581,1.084,1.084,0,0,1,67.787,3ZM52.581,3H50.757a2.3,2.3,0,0,1-2.02-1.5A1.175,1.175,0,0,1,48.844.419,1.084,1.084,0,0,1,49.758,0h1.825A2.3,2.3,0,0,1,53.6,1.5,1.173,1.173,0,0,1,53.5,2.58,1.086,1.086,0,0,1,52.581,3ZM42.242,3H25.212a2.3,2.3,0,0,1-2.02-1.5A1.177,1.177,0,0,1,23.3.418,1.084,1.084,0,0,1,24.214,0h17.03a2.3,2.3,0,0,1,2.02,1.5,1.174,1.174,0,0,1-.106,1.081A1.084,1.084,0,0,1,42.242,3ZM19.13,3H12.44a2.3,2.3,0,0,1-2.02-1.5A1.175,1.175,0,0,1,10.526.419,1.085,1.085,0,0,1,11.442,0h6.69a2.3,2.3,0,0,1,2.02,1.5,1.175,1.175,0,0,1-.107,1.081A1.084,1.084,0,0,1,19.13,3ZM3.925,3H2.1A2.3,2.3,0,0,1,.08,1.5,1.176,1.176,0,0,1,.187.419,1.085,1.085,0,0,1,1.1,0H2.927a2.3,2.3,0,0,1,2.02,1.5,1.176,1.176,0,0,1-.108,1.081A1.084,1.084,0,0,1,3.925,3Z" transform="translate(186 303)" fill="#6a6b7d"/>
  <path id="Fill_27" data-name="Fill 27" d="M33.527,0l3.981,15.7a8.607,8.607,0,0,0,2.925,4.457A7.874,7.874,0,0,0,45,21.99L45,22H11.7a7.743,7.743,0,0,1-4.8-1.845A8.6,8.6,0,0,1,3.98,15.7L0,0Z" transform="translate(145 297)" fill="#0055a3"/>
  <path id="Fill_29" data-name="Fill 29" d="M1.565,6H6L4.435,0H0Z" transform="translate(159 294)" fill="#fff"/>
  <path id="Fill_31" data-name="Fill 31" d="M33.527,0l3.981,15.7a8.6,8.6,0,0,0,2.925,4.457A7.874,7.874,0,0,0,45,21.99L45,22H11.7a7.746,7.746,0,0,1-4.8-1.845A8.612,8.612,0,0,1,3.98,15.7L0,0Z" transform="translate(206 164)" fill="#0686d8"/>
  <path id="Fill_33" data-name="Fill 33" d="M1.565,6H6L4.436,0H0Z" transform="translate(219 161)" fill="#fff"/>
  <path id="Fill_35" data-name="Fill 35" d="M0,0H176.5a27.4,27.4,0,0,1,11.257,2.574c8.525,2.75,13.9,8.325,16.636,10.9,4.638,4.37,11.72,9.517,22.806,13.834A156.485,156.485,0,0,0,271,33.975L65.19,34A68.435,68.435,0,0,1,52.9,31.954c-17.22-3.465-24.079-9.015-26.971-13.872A44.294,44.294,0,0,0,17.66,7.47a34.166,34.166,0,0,0-8.1-5.612A26.889,26.889,0,0,0,0,0" transform="translate(195 337)" fill="#e6f7ff"/>
  <g id="Group_39" data-name="Group 39" transform="translate(466 370)">
    <path id="Clip_38-2" data-name="Clip 38" d="M0,.363H4.221v.773H0Z" transform="translate(0.097 0.363)" fill="none"/>
    <g id="Group_39-2" data-name="Group 39" clip-path="url(#clip-path)">
      <path id="Fill_37" data-name="Fill 37" d="M0,.743l4.221,0C2.858.765,1.44.762,0,.743" transform="translate(0.097 0.727)" fill="#e6f7ff"/>
    </g>
  </g>
  <path id="Fill_40" data-name="Fill 40" d="M19.37,56.906l47.248-5.642c4.759-.57,8.481-4.271,8.379-8.35L74.136,8.631C74.013,3.724,69.609-.184,64.215.007L10.075,1.92C3.568,2.149-.913,6.876.158,12.346l7.408,37.8c.873,4.45,6.188,7.433,11.8,6.763" transform="translate(244 44)" fill="#dff1fa"/>
  <path id="Fill_42" data-name="Fill 42" d="M40.8,40.932,6.147,36.873C2.657,36.465-.074,33.8,0,30.868L.633,6.208C.723,2.679,3.953-.133,7.908,0l39.7,1.376c4.773.165,8.058,3.565,7.272,7.5L49.451,36.068c-.64,3.2-4.538,5.347-8.656,4.864" transform="translate(276 13)" fill="#0686d8"/>
  <path id="Fill_44" data-name="Fill 44" d="M15,2.458,1.945,10.8A1.263,1.263,0,0,1,0,9.645Q.362,4.823.724,0L15,2.458" transform="translate(291 49)" fill="#0686d8"/>
  <path id="Fill_46" data-name="Fill 46" d="M17.67,0V2.763L0,10.563V13H31V3.25Z" transform="translate(352 359)" fill="#2b374d"/>
  <path id="Fill_48" data-name="Fill 48" d="M9.655,52.931l30.283-4.223c2.779-.387,5.273-3.37,5.659-6.751l3.331-29.168c.491-4.291-1.589-8.155-4.762-8.528L8.407.051C3.564-.519-.282,3.736.016,9.381L1.976,46.5a6.682,6.682,0,0,0,7.679,6.429" transform="translate(166 33)" fill="#0686d8"/>
  <path id="Fill_50" data-name="Fill 50" d="M10.579.32,1.141,5.957a2.4,2.4,0,0,0,0,4.086l9.439,5.637A2.282,2.282,0,0,0,14,13.637V2.363A2.281,2.281,0,0,0,10.579.32" transform="translate(183 52)" fill="#fff"/>
  <path id="Fill_52" data-name="Fill 52" d="M0,9c0,4.971.448,9,1,9s1-4.029,1-9S1.553,0,1,0,0,4.03,0,9" transform="translate(114 15)" fill="#fff"/>
  <path id="Fill_54" data-name="Fill 54" d="M9,0C4.03,0,0,.448,0,1S4.03,2,9,2s9-.447,9-1S13.971,0,9,0" transform="translate(106 23)" fill="#fff"/>
  <path id="Fill_56" data-name="Fill 56" d="M3.077,3.077C1.159,5-.207,6.74.026,6.974S2,5.841,3.923,3.923,7.207.26,6.974.026,5,1.158,3.077,3.077" transform="translate(112 21)" fill="#fff"/>
  <path id="Fill_58" data-name="Fill 58" d="M3.923,3.077C2,1.158.26-.207.026.026S1.159,2,3.077,3.923s3.663,3.284,3.9,3.051S5.841,5,3.923,3.077" transform="translate(112 21)" fill="#fff"/>
  <path id="Fill_60" data-name="Fill 60" d="M0,9c0,4.97.447,9,1,9s1-4.03,1-9S1.552,0,1,0,0,4.03,0,9" transform="translate(29 102)" fill="#fff"/>
  <path id="Fill_62" data-name="Fill 62" d="M9,0C4.029,0,0,.448,0,1S4.029,2,9,2s9-.448,9-1S13.97,0,9,0" transform="translate(21 110)" fill="#fff"/>
  <path id="Fill_64" data-name="Fill 64" d="M3.077,3.077C1.159,5-.207,6.741.026,6.974S2,5.842,3.923,3.924,7.207.26,6.974.026,5,1.158,3.077,3.077" transform="translate(27 108)" fill="#fff"/>
  <path id="Fill_66" data-name="Fill 66" d="M3.923,3.077C2,1.158.26-.208.026.026S1.159,2,3.077,3.924s3.663,3.284,3.9,3.05S5.842,5,3.923,3.077" transform="translate(27 108)" fill="#fff"/>
  <path id="Fill_68" data-name="Fill 68" d="M30.78,0,16.492,50.837,0,89l19.909-3.367L46,21.772Z" transform="translate(308 137)" fill="#0686d8"/>
  <path id="Fill_70" data-name="Fill 70" d="M0,0Q7.585,7,15.169,14,23.084,24.308,31,34.614c.021.859.08,8.339-6.021,13.1A16.086,16.086,0,0,1,14.39,50.979Q7.2,25.49,0,0" transform="translate(401 118)" fill="#0686d8"/>
  <path id="Fill_72" data-name="Fill 72" d="M0,0V141.178L15.22,147Q28.116,73.5,41,0Z" transform="translate(368 220)" fill="#abdfff"/>
  <path id="Fill_74" data-name="Fill 74" d="M0,0,56.778,147,73,145.335Q56.985,72.667,40.971,0Z" transform="translate(389 220)" fill="#abdfff"/>
  <path id="Fill_76" data-name="Fill 76" d="M12,15,0,0H5.882Z" transform="translate(391 242)" fill="#6fa6c7"/>
  <path id="Fill_78" data-name="Fill 78" d="M0,19.269,29.295,98H91L61.705.394A84.049,84.049,0,0,0,0,19.269" transform="translate(339 117)" fill="#0686d8"/>
  <path id="Fill_80" data-name="Fill 80" d="M46,47,35.587,11.782,23.448,0Q11.724,17.851,0,35.706Z" transform="translate(378 148)" fill="#0055a3"/>
  <path id="Fill_82" data-name="Fill 82" d="M0,19.911l13.643,2.352L21.24,37,40,29.318,31.628,14.11l1.705-4.547L22.016,0Z" transform="translate(337 90)" fill="#eba075"/>
  <path id="Fill_84" data-name="Fill 84" d="M11.585,0a50.986,50.986,0,0,0-3.65,3.863C6.032,6.1,5.61,7,5.4,7.881a6.757,6.757,0,0,0,0,3.091L0,17.308l1.587,2.782A8.684,8.684,0,0,1,1.428,21.4c-.206,1.031-.452,1.277-.556,1.932-.16,1.025.395,1.179.4,2.395,0,1.391-.5,1.753-.556,2.936a5.256,5.256,0,0,0,.873,3.014,44.531,44.531,0,0,0,6.348.309,44.565,44.565,0,0,0,10.633-1.545,21.692,21.692,0,0,0,5.078-5.718c1.149-1.893,5.022-8.271,2.539-14.835C24.123,4.441,18.35.63,11.585,0" transform="translate(335 78)" fill="#f7ba97"/>
  <path id="Fill_86" data-name="Fill 86" d="M1.755,14.035A20.463,20.463,0,0,1,.366,9.6,21.054,21.054,0,0,1,.793,0,45.969,45.969,0,0,1,7.526,4.116,46.163,46.163,0,0,1,18,14.88L12.121,21,1.755,14.035" transform="translate(357 84)" fill="#bf9780"/>
  <path id="Fill_88" data-name="Fill 88" d="M.012,7.658A4.9,4.9,0,0,0,2.645,8.964C5.321,9.318,7.812,6.984,8.62,4.5c.215-.658.734-2.252,0-3.374C7.612-.419,4.788-.222,3.05.8,1.013,2-.128,4.674.012,7.658" transform="translate(356 95)" fill="#f7ba97"/>
  <path id="Fill_90" data-name="Fill 90" d="M.027,6.029c.408,1.728,5.208.822,9.173,4.528a11.831,11.831,0,0,1,2.274,2.938,36.211,36.211,0,0,1,8.441,5.454,36.648,36.648,0,0,1,7.527,9,5.835,5.835,0,0,0,2.509-.212A6.237,6.237,0,0,0,33.3,25.09L32.25,22.971a4.082,4.082,0,0,0,1.778-.105A4.136,4.136,0,0,0,35.8,21.807l-1.882-.424a6.526,6.526,0,0,0,2.3-1.376A6.689,6.689,0,0,0,38,17.253l-1.36-.211a7.9,7.9,0,0,0-.835-2.966,8.277,8.277,0,0,0-4.286-3.812c.646-.044,1.244-.178,1.359-.529.345-1.052-3.845-3.481-6.794-4.765a28.588,28.588,0,0,0-7.631-2.118c1-.234,1.244-.46,1.254-.635C19.755,1.23,12.585-1.4,6.142.946,3.074,2.061-.336,4.489.027,6.029" transform="translate(346 72)" fill="#5c3d3b"/>
  <path id="Fill_92" data-name="Fill 92" d="M0,0A8.832,8.832,0,0,1,2.619.886,8.622,8.622,0,0,1,6,4.114L1.183,5A8.655,8.655,0,0,0,1.1,3.065,8.857,8.857,0,0,0,0,0" transform="translate(342 88)" fill="#eba075"/>
  <path id="Fill_94" data-name="Fill 94" d="M1.24,7.666,0,17,20,0Z" transform="translate(357 120)" fill="#f7ba97"/>
  <path id="Fill_96" data-name="Fill 96" d="M2.613,23,4,22.869,1.387,0,0,.131Z" transform="translate(392 220)" fill="#6fa6c7"/>
  <path id="Fill_98" data-name="Fill 98" d="M38.781,147,40,146.727,14.6,33.022,2.018,24.637,1.248,0,0,.039.791,25.32l12.7,8.462Z" transform="translate(421 221)" fill="#6fa6c7"/>
  <path id="Fill_100" data-name="Fill 100" d="M0,33.548V36L6,25,3.869.163,3.857,0,2.71.113v.05L4.819,24.717Z" transform="translate(369 220)" fill="#6fa6c7"/>
  <g id="Group_104" data-name="Group 104" transform="translate(459)">
    <path id="Clip_103-2" data-name="Clip 103" d="M0,0H54.458V58.534H0Z" transform="translate(0.422 0.281)" fill="none"/>
    <g id="Group_104-2" data-name="Group 104" clip-path="url(#clip-path-2)">
      <path id="Fill_102" data-name="Fill 102" d="M26.853,5.228,0,38.424l24.433,20.11,26.851-33.2a14.315,14.315,0,0,0-2.02-20.02L46.7,3.209a14.022,14.022,0,0,0-19.848,2.02" transform="translate(0.422 0.281)" fill="#0686d8"/>
    </g>
  </g>
  <path id="Fill_105" data-name="Fill 105" d="M231.432,0,0,283.931,24.568,304,256,20.068Z" transform="translate(228 38)" fill="#312d61"/>
  <path id="Fill_107" data-name="Fill 107" d="M0,46.515,3.074,49,45,19.876,20.4,0Z" transform="translate(208 322)" fill="#f7ce99"/>
  <path id="Fill_109" data-name="Fill 109" d="M25.984,0,0,31.8,26.016,53,52,21.2Z" transform="translate(440 28)" fill="#d9f2ff"/>
  <path id="Fill_111" data-name="Fill 111" d="M42.2,0,32.6,7.537,0,34.238a12.362,12.362,0,0,0,2.41,4.554A12.582,12.582,0,0,0,6.5,42,144.351,144.351,0,0,0,37.381,27.425c2.873-1.8,5.562-3.629,8.076-5.456A10.973,10.973,0,0,0,47.291,5.858L42.2,0" transform="translate(385 147)" fill="#0686d8"/>
  <path id="Fill_113" data-name="Fill 113" d="M0,24.482,3.006,27,22,13.326l-6.072,1.1-.808-2.584-2.869,1.075L13.947,4.53H11L10.36,0Z" transform="translate(208 345)" fill="#312d61"/>
  <path id="Fill_115" data-name="Fill 115" d="M15.838,0a6.5,6.5,0,0,1,4.173,2.778,6.85,6.85,0,0,1,.036,7.031L1.335,18,0,17,7.771,7.25q-2.853.381-5.706.761a1.583,1.583,0,0,1-.835-.854,1.672,1.672,0,0,1,.105-1.39L8.742,2.992,15.838,0" transform="translate(372 179)" fill="#f7ba97"/>
  <path id="Fill_117" data-name="Fill 117" d="M5,13,0,0V9.175Z" transform="translate(346 155)" fill="#0055a3"/>
  <path id="Fill_119" data-name="Fill 119" d="M0,9c0,4.97.448,9,1,9s1-4.03,1-9S1.552,0,1,0,0,4.03,0,9" transform="translate(376 19)" fill="#fff"/>
  <path id="Fill_121" data-name="Fill 121" d="M9,0C4.03,0,0,.448,0,1S4.03,2,9,2s9-.448,9-1S13.97,0,9,0" transform="translate(368 27)" fill="#fff"/>
  <path id="Fill_123" data-name="Fill 123" d="M3.077,3.077C1.158,5-.208,6.741.026,6.974S2,5.842,3.923,3.924,7.207.26,6.974.026s-1.979,1.132-3.9,3.051" transform="translate(374 24)" fill="#fff"/>
  <path id="Fill_125" data-name="Fill 125" d="M3.923,3.077C2,1.158.259-.208.026.026S1.158,2,3.076,3.924s3.664,3.284,3.9,3.05S5.842,5,3.923,3.077" transform="translate(374 24)" fill="#fff"/>
  <path id="Clip_128-2" data-name="Clip 128" d="M0,371H514V0H0Z" fill="none"/>
  <g id="Mask_Group_3" data-name="Mask Group 3" clip-path="url(#clip-path-3)">
    <path id="Fill_127" data-name="Fill 127" d="M0,7H62V0H0Z" transform="translate(368 215)" fill="#312d61"/>
    <path id="Fill_129" data-name="Fill 129" d="M8.756,0A9.774,9.774,0,0,0,0,5.644V8H18q-.1-.959-.193-1.919A9.78,9.78,0,0,0,8.756,0" transform="translate(446 363)" fill="#2b374d"/>
  </g>
</svg>
