<?xml version="1.0" encoding="UTF-8"?>
<svg width="588px" height="238px" viewBox="0 0 588 238" version="1.1" xmlns="http://www.w3.org/2000/svg" xmlns:xlink="http://www.w3.org/1999/xlink">
    <!-- Generator: Sketch 63.1 (92452) - https://sketch.com -->
    <title>Monogram 01</title>
    <desc>Created with Sketch.</desc>
    <g id="Page-1" stroke="none" stroke-width="1" fill="none" fill-rule="evenodd">
        <g id="Monogram-01---Jul-09" transform="translate(-42.000000, -13.000000)">
            <g id="Monogram-01" transform="translate(43.176011, 0.313069)">
                <g id="Color" transform="translate(17.952855, 0.000000)">
                    <path d="M198.844912,203.327003 L271.704336,217.297917 C269.898304,223.874129 265.93499,227.162235 259.814394,227.162235 C253.693799,227.162235 246.724365,226.466438 238.906094,225.074843 L238.906094,239.421277 C250.283079,240.806526 254.192215,242.86378 250.633501,245.593041 C247.074786,248.322301 234.733767,245.964973 213.610443,238.521057 C210.70626,235.006695 210.422325,233.249514 212.758638,233.249514 C215.094951,233.249514 217.606358,233.249514 220.292859,233.249514 L227.24948,220.597307 C211.605956,218.426869 202.654,215.973878 200.393611,213.238335 C198.133223,210.502791 197.61699,207.199014 198.844912,203.327003 Z" id="Path-508" fill="#73819C"></path>
                    <path d="M319.173023,84.2478524 C304.49525,88.915478 295.017867,91.2492908 290.740875,91.2492908 C284.325386,91.2492908 284.413538,87.7031037 283.186168,82.1644793 C282.367922,78.472063 281.368531,71.9384742 280.187996,62.563713 C279.915772,59.4263194 281.376074,57.5392424 284.568901,56.9024819 C289.358142,55.9473412 308.314484,52.3349904 311.824004,52.3349904 C315.333525,52.3349904 317.449167,53.4933258 318.311095,57.6258928 C318.885714,60.3809375 319.772861,67.7989041 320.972535,79.8797928" id="Path-458" fill="#E1E7F5"></path>
                    <path d="M45.6760438,184.465568 L57.6615525,195.041117 L56.9545424,196.835 L44.2187564,209.023177 C41.3292497,207.055513 39.8844963,204.61117 39.8844963,201.690145 C39.8844963,198.769121 38.5745053,196.552778 35.9545231,195.041117 L45.6760438,184.465568 Z" id="Path-507" fill="#E1E7F5"></path>
                    <path d="M38.8050684,76.9918057 C40.1824456,82.7410508 40.8711342,88.4265469 40.8711342,94.048294 C40.8711342,99.6700412 40.8711342,103.526179 40.8711342,105.616706 L36.7530985,106.939112 L37.1112814,114.573267 L43.5044669,114.573267 C46.3632549,121.002999 47.6210581,125.678524 47.2778765,128.599841 C46.9346949,131.521159 46.0603757,133.550189 44.654919,134.686931 C37.4528476,137.074057 32.7020674,138.902087 30.4025783,140.17102 C26.9533448,142.07442 18.6421347,145.995193 15.7920678,144.932269 C12.9420009,143.869345 9.88602138,138.572184 9.88602138,136.629557 C9.88602138,135.334473 9.9806,132.020265 10.1697572,126.686931 C2.79098185,126.853452 -0.57248189,122.280073 0.0793660099,112.966792 C0.73121391,103.653512 2.26296558,94.436237 4.67462103,85.3149677 C10.1460119,80.6837611 13.4730186,77.9821534 14.655641,77.2101445 C15.8382633,76.4381357 19.054273,74.9732 24.3036699,72.8153374 L24.9550949,76.9918057 L28.3963635,80.6256346 L32.2998293,77.2101445 L32.2998293,74.3401919 L38.8050684,76.9918057 Z" id="Path-504" fill="#73819C"></path>
                    <path d="M17.0162548,145.60573 C22.4320905,143.915601 26.3623577,142.342723 28.8070563,140.887095 C32.4741041,138.703653 37.7308904,135.8096 41.4480384,135.8096 C43.9261371,135.8096 45.3354722,135.435377 45.6760438,134.686931 L50.3178382,132.395977 L53.2733416,136.474359 C47.4959063,140.084333 42.2865011,142.903636 37.6451261,144.932269 C33.0037511,146.960902 27.7612085,150.800468 21.9174983,156.450968 L17.0162548,145.60573 Z" id="Path-506" fill="#E1E7F5"></path>
                    <g id="Group-13" transform="translate(355.595157, 0.000000)">
                        <path d="M147.857504,110.028914 C134.974696,120.565713 128.533292,127.878611 128.533292,131.967609 C128.533292,138.101107 132.381523,141.691333 140.589045,138.559139 C148.796568,135.426944 157.704409,126.06896 161.261887,121.371658 C164.819364,116.674357 166.17968,107.565981 162.020565,106.072407 C159.247822,105.076691 155.21816,105.944141 149.931579,108.674756" id="Path-484" fill="#73819C" transform="translate(146.560881, 122.693287) rotate(-11.000000) translate(-146.560881, -122.693287) "></path>
                        <path d="M111.808364,119.767637 C101.150913,128.82208 95.8221871,135.209024 95.8221871,138.92847 C95.8221871,145.061967 99.6697107,148.652193 107.875726,145.519999 C116.081741,142.387804 124.987946,133.02982 128.544769,128.332519 C130.195067,126.153062 131.372451,123.023998 131.745137,120.146528 C131.94114,118.633212 127.756884,120.39707 123.355408,120.494756 C118.088368,120.611653 112.385207,119.277557 111.808364,119.767637 Z" id="Path-484" fill="#73819C" transform="translate(113.786975, 133.105005) rotate(-21.000000) translate(-113.786975, -133.105005) "></path>
                        <path d="M79.0963906,49.0024704 C85.4590685,45.9059874 90.5095251,43.7256309 94.2477604,42.4614011 C97.9859958,41.1971713 103.540149,40.0547221 110.910219,39.0340534 C113.264746,48.0399336 114.223665,53.2489151 113.786975,54.660998 C112.603954,58.4864208 103.07388,61.6947484 85.1967528,64.2859808 C84.278343,63.9560025 83.0320135,61.719871 81.4577644,57.5775864 C79.8835152,53.4353017 79.0963906,50.5769297 79.0963906,49.0024704 Z" id="Path-510" fill="#E1E7F5"></path>
                        <circle id="Oval" fill="#73819C" cx="104.904843" cy="50.5" r="2.5"></circle>
                        <circle id="Oval" fill="#73819C" cx="91.9048434" cy="54.5" r="2.5"></circle>
                        <path d="M96.0963906,80.0024704 L113.786975,74.3973061 C117.849585,80.0004844 118.335175,83.8768086 115.243745,86.0262785 C112.887646,87.664473 108.308973,88.1832496 104.904843,89.1718266 C101.609152,90.1289127 99.4670477,91.6340172 98.3556844,88.5775864 C96.8494885,84.4353017 96.0963906,81.5769297 96.0963906,80.0024704 Z" id="Path-510" fill="#B89575"></path>
                        <path d="M197.559568,96.6526349 L192.9563,97.6523801 C187.366484,84.5197479 181.437081,76.7648756 175.168091,74.3877632 C165.764607,70.8220945 144.745125,70.0219718 139.620769,72.8465999 C136.204532,74.7296852 131.928258,76.7196213 126.791947,78.8164079 L124.357883,73.8198835 C130.875053,67.7610031 141.062751,64.9422413 154.920977,65.3635982 C175.708316,65.9956336 184.577233,69.8073433 191.66583,81.4736968 C196.391561,89.2512658 198.356141,94.3109118 197.559568,96.6526349 Z" id="Path-511" fill="#E1E7F5"></path>
                        <path d="M91.6711363,87.243078 C76.4944455,88.9471759 66.8799539,88.9471759 62.8276615,87.243078 C56.7492228,84.6869312 45.3386021,73.9951462 41.6582174,71.9636322 C39.2046275,70.6092895 33.6518884,70.1197876 25,70.4951265 L27.6503279,74.8620761 C33.693626,73.1523644 38.9584386,74.68069 43.4447657,79.4470529 C50.1742563,86.5965972 62.3486036,93.6914877 70.8552283,93.6914877 C76.5263114,93.6914877 84.2802265,93.1384987 94.1169735,92.0325207 L91.6711363,87.243078 Z" id="Path-512" fill="#E1E7F5"></path>
                        <g id="Group-7" transform="translate(105.670476, 84.686931) rotate(-10.000000) translate(-105.670476, -84.686931) translate(10.670476, 15.686931)" stroke="#151D2A" stroke-width="1.5">
                            <path d="M95.028038,49.5396046 L82.6883608,50.6949131 C79.5037517,49.9600696 77.6807305,48.23566 77.2192971,45.5216843 C76.7578638,42.8077085 76.4035232,38.2326181 76.1562754,31.7964131 C76.7856073,28.5384923 80.5920733,26.4675045 87.5756734,25.5834499 C98.0510735,24.257368 108.712772,23.1844276 111.433504,27.0117371 C114.154236,30.8390467 113.512973,43.4525653 110.571012,45.5216843 C108.609704,46.901097 105.241384,47.7809828 100.466052,48.1613419" id="Path-471"></path>
                            <path d="M76.1562754,35.1882113 C71.9368672,35.9278053 70.1057599,37.5506972 70.6629534,40.056887 C71.2201469,42.5630768 72.2764891,43.8694022 73.83198,43.975863" id="Path-472"></path>
                            <path d="M113.1629,30.7749055 C116.338892,29.6946834 118.250833,30.7656811 118.898724,33.9878986 C119.546614,37.2101162 118.405099,39.2728549 115.474177,40.1761147" id="Path-473"></path>
                            <path d="M91.6409141,24.3627502 C92.1882075,16.3468038 93.6983723,10.8665888 96.1714086,7.92210531 C98.6444449,4.97762184 102.283999,3.230668 107.090072,2.68124381" id="Path-474"></path>
                            <path d="M109.105501,0 C107.724789,0 106.605501,1.11928813 106.605501,2.5 C106.605501,3.88071187 107.724789,5 109.105501,5 C110.486213,5 111.605501,3.88071187 111.605501,2.5" id="Path"></path>
                            <path d="M100.105827,31.6462146 C97.189778,34.1991556 96.9429998,36.160028 99.3654929,37.5288316 C101.787986,38.8976353 103.527976,37.4475939 104.585463,33.1787073" id="Path-475"></path>
                            <path d="M86.1058275,33.6462146 C83.189778,36.1991556 82.9429998,38.160028 85.3654929,39.5288316 C87.787986,40.8976353 89.5279762,39.4475939 90.5854635,35.1787073" id="Path-475"></path>
                            <path d="M112.138341,58.5314272 L85.6728899,62.0405863 C81.9241985,62.6057467 80.6609766,65.443613 81.8832242,70.5541855 C83.1054717,75.6647579 84.8614068,85.9081473 87.1510295,101.284354 C87.21603,104.258326 89.7188828,105.428611 94.6595877,104.795209 C99.6002926,104.161807 107.166137,102.68387 117.357119,100.361397" id="Path-476"></path>
                            <line x1="116.11878" y1="63.1343356" x2="120.130515" y2="95.725687" id="Path-477"></line>
                            <path d="M86.334303,62.2014539 L88.5236442,76.8370651 C89.0298545,78.0252014 90.5357743,78.6192696 93.0414035,78.6192696 C95.5470327,78.6192696 100.945239,78.0252014 109.236023,76.8370651 C110.987695,75.4136444 111.863532,73.7791157 111.863532,71.9334792 C111.863532,70.0878427 111.447796,67.3549048 110.616325,63.7346657" id="Path-478"></path>
                            <path d="M93.1055014,84 C91.7247895,84 90.6055014,85.1192881 90.6055014,86.5 C90.6055014,87.8807119 91.7247895,89 93.1055014,89 C94.4862132,89 95.6055014,87.8807119 95.6055014,86.5" id="Path"></path>
                            <path d="M86.958313,97.6689808 C91.9896596,96.3150674 96.0365277,95.3764687 99.0989173,94.8531845 C102.161307,94.3299003 106.849301,93.7759341 113.1629,93.1912859" id="Path-479"></path>
                            <line x1="104.800156" y1="82.0943332" x2="111.863532" y2="80.978646" id="Path-480"></line>
                            <line x1="104.800156" y1="86.0943332" x2="111.863532" y2="84.978646" id="Path-480"></line>
                            <path d="M88.0766868,108.710852 C80.9488991,117.431135 77.7090533,124.026791 78.3571494,128.49782 C79.3292936,135.204363 87.0985586,134.03012 88.9411172,133.032679 C90.1694896,132.367719 93.1056877,129.523493 97.7497115,124.5" id="Path-481"></path>
                            <ellipse id="Oval" cx="86.1055014" cy="126" rx="2.5" ry="3"></ellipse>
                            <path d="M86.958313,133.804479 C82.7282557,136.247367 78.9296721,137.46881 75.5625622,137.46881 C70.5118973,137.46881 67.3334551,127.742335 68.105186,124.5 C68.876917,121.257665 74.1877429,112.041273 76.2319335,109.902814 C77.5947273,108.477175 79.3282286,106.602011 81.4324374,104.277322" id="Path-482"></path>
                            <line x1="74.5200574" y1="112.779976" x2="83.9613442" y2="113.122099" id="Path-483"></line>
                            <line x1="69.5200574" y1="120.779976" x2="78.9613442" y2="121.122099" id="Path-483"></line>
                            <line x1="69.5200574" y1="130.779976" x2="78.9613442" y2="131.122099" id="Path-483"></line>
                            <path d="M132.79563,99.7353339 C118.840898,111.200759 111.863532,119.158156 111.863532,123.607524 C111.863532,130.281577 116.031957,134.188216 124.922393,130.779976 C133.812829,127.371736 143.461855,117.189017 147.315335,112.077734 C151.168815,106.966452 152.642317,97.0553383 148.13714,95.4301334 C145.133688,94.3466634 140.768735,95.2905628 135.04228,98.2618318" id="Path-484"></path>
                            <ellipse id="Oval" transform="translate(120.605501, 123.500000) rotate(19.000000) translate(-120.605501, -123.500000) " cx="120.605501" cy="123.5" rx="3" ry="3.5"></ellipse>
                            <ellipse id="Oval" transform="translate(142.605501, 103.500000) rotate(19.000000) translate(-142.605501, -103.500000) " cx="142.605501" cy="103.5" rx="3" ry="3.5"></ellipse>
                            <path d="M114.580676,130.951038 L105.70365,126 C104.498991,123.857501 104.197826,121.241183 104.800156,118.151046 C105.70365,113.51584 118.383967,99.4123288 124.057678,95.4301334 C129.731389,91.447938 135.593598,89.6633376 138.445204,89.6633376 C140.346275,89.6633376 141.95783,90.138286 143.27987,91.0881828" id="Path-485"></path>
                            <line x1="105.501348" y1="116.883951" x2="112.602094" y2="120" id="Path-486"></line>
                            <line x1="110.501348" y1="109.883951" x2="117.602094" y2="113" id="Path-486"></line>
                            <line x1="116.501348" y1="102.883951" x2="124.602094" y2="106" id="Path-486"></line>
                            <line x1="123.501348" y1="95.8839512" x2="131.602094" y2="99" id="Path-486"></line>
                            <line x1="132.501348" y1="90.8839512" x2="140.602094" y2="94" id="Path-486"></line>
                            <path d="M76.1562754,73.6183783 C61.3981109,72.8174552 51.6181335,70.3821071 46.8163431,66.3123338 C39.6136575,60.207674 31.5010679,48.0338163 28.9858581,46.8981662 C27.3090516,46.1410661 24.2708488,45.7670735 19.8712498,45.7761883" id="Path-487"></path>
                            <path d="M80.8802893,68.4578734 C64.5037043,68.3567003 53.9145166,66.2712271 49.1127262,62.2014539 C42.214724,56.3550295 32.3821649,43.6379627 32.2757681,43.5899232 C30.5989615,42.8328231 26.1307888,42.2283004 18.8712498,41.7763549" id="Path-487"></path>
                            <path d="M6.56195841,38.9197468 C15.0091869,36.4640854 19.4456174,39.6986422 19.8712498,48.6234171 C20.5096984,62.0105794 2.65849292,55.0601259 7.58944759,53.3794573 C12.5204023,51.6987887 18.4398186,51.9712721 14.1677201,44.9448923 C9.89562153,37.9185125 7.26232569,49.0294388 1.3421998,47.4028135 C-0.907243425,46.7847522 -0.329241646,44.7345146 3.07620514,41.2521008" id="Path-488"></path>
                            <line x1="69.5200574" y1="68.4578734" x2="69.5200574" y2="75.4422016" id="Path-489"></line>
                            <line x1="62.5200574" y1="67.4578734" x2="60.3231052" y2="73.6183783" id="Path-489"></line>
                            <line x1="54.5200574" y1="64.4578734" x2="52.3231052" y2="70.6183783" id="Path-489"></line>
                            <line x1="46.5200574" y1="58.4578734" x2="44.3231052" y2="64.6183783" id="Path-489"></line>
                            <line x1="39.1649511" y1="50.6949131" x2="35.3231052" y2="55.6183783" id="Path-489"></line>
                            <line x1="30.0659614" y1="41.7763549" x2="27.3231052" y2="46.6183783" id="Path-489"></line>
                            <path d="M118.07466,58.6178517 C145.712102,54.896181 164.403884,58.93359 174.150005,70.7300787 C180.559052,78.4874469 183.637771,87.1855886 183.386162,96.8245036" id="Path-490"></path>
                            <path d="M116.629457,66.5998734 C137.126326,60.6842179 152.542679,61.6210474 162.878517,69.4103617 C173.214354,77.1996761 178.335062,86.210214 178.24064,96.4419756" id="Path-491"></path>
                            <path d="M170.942947,101.206311 C175.417467,96.9395702 179.942883,95.872885 184.519192,98.0062554 C191.383657,101.206311 189.89893,112.835223 188.641652,113.51584 C187.384375,114.196458 184.519192,114.533971 184.519192,109.904126 C184.519192,105.274281 183.179414,100.462658 179.614694,101.615377 C176.049973,102.768096 175.726845,110.029596 173.334896,112.306101 C170.942947,114.582607 169.174337,112.446754 169.174337,109.904126 C169.174337,108.209041 169.412863,106.553392 169.889916,104.937179" id="Path-492"></path>
                            <line x1="125.597384" y1="58.5314272" x2="125.597384" y2="64.4197088" id="Path-493"></line>
                            <line x1="137.597384" y1="57.5314272" x2="137.597384" y2="63.4197088" id="Path-493"></line>
                            <line x1="150.737539" y1="58.5314272" x2="149.597384" y2="63.4197088" id="Path-493"></line>
                            <line x1="165.412132" y1="63.4197088" x2="162.597384" y2="69.4197088" id="Path-493"></line>
                            <line x1="175.412132" y1="73.4197088" x2="172.597384" y2="79.4197088" id="Path-493"></line>
                            <line x1="182.289895" y1="88.4197088" x2="177.597384" y2="91.4197088" id="Path-493"></line>
                        </g>
                    </g>
                    <path d="M45.6145975,104.170393 C47.5117184,103.923946 48.9731958,103.776032 49.9990297,103.726652 C51.0248636,103.677271 52.6361447,103.677271 54.8328729,103.726652 L50.3178382,112.966792 L48.7389633,112.966792 C49.1223998,109.956769 48.6537617,108.19965 47.3330489,107.695434 C46.0123361,107.191219 45.2897153,106.720707 45.1651865,106.283898 L45.6145975,104.170393 Z" id="Path-505" fill="#73819C"></path>
                    <path d="M39.4637312,54.9829371 C38.1946093,53.4990591 37.0425565,52.7571201 36.0075729,52.7571201 C34.9725892,52.7571201 32.5937763,53.3186802 28.8711342,54.4418004 C25.826158,56.1312094 24.3036699,57.4277502 24.3036699,58.3314226 C24.3036699,59.6869312 18.4021456,61.9068584 16.8961127,60.7968948 C15.8920908,60.0569191 15.3161415,58.7670942 15.1682647,56.9274202 L16.8961127,56.0427979 C16.4725864,50.7149619 17.0919746,47.7918533 18.7542773,47.2734721 C20.4165799,46.7550908 21.8080853,46.4959002 22.9287934,46.4959002 C23.9324078,44.6770886 24.7575041,43.5357752 25.4040823,43.0719601 C27.2623234,41.738973 29.4906524,41.9135895 30.6461143,42.4499154 C32.4046436,43.2661646 33.2839082,43.8883255 33.2839082,44.316398 L34.0622997,47.2734721 C36.4333674,46.7749397 38.0142904,47.1967961 38.8050684,48.5390414 C39.5958464,49.8812866 39.8154007,52.0292519 39.4637312,54.9829371 Z" id="Path-513" fill="#151D2A"></path>
                    <path d="M31.9944732,216.827395 C31.329672,223.255661 30.2509877,226.469793 28.7584204,226.469793 C27.2658531,226.469793 26.0413909,226.060889 25.0850337,225.24308 C23.8403395,220.770954 23.5291659,217.605497 24.151513,215.746709 C24.7738602,213.88792 26.0291579,212.364199 27.9174063,211.175546 L31.9944732,216.827395 Z" id="Path-4" fill="#E1E7F5"></path>
                    <path d="M55.1756195,233.030051 L64.1218939,234.793462 L69.5244912,241.866076 C67.2280869,245.373475 65.1307763,246.540215 63.2325595,245.366295 C61.3343427,244.192375 58.4329524,241.585513 54.5283886,237.54571 L55.1756195,233.030051 Z" id="Path-5" fill="#E1E7F5"></path>
                    <polyline id="Path-301" fill="#B89575" points="172.291833 55.5461342 174.392711 52.24525 180.079242 56.4049071 177.75307 59.385012 180.079242 62.1575995 183.274833 60.5207334 185.871134 67.3734619 182.076253 68.0631179 182.076253 72.2507025 185.871134 73.5590318 182.076253 79.7263712 179.081484 78.7147723 175.358151 81.7243564 176.499567 85.14626 169.975375 86.6869312 168.76708 82.6634211 164.121087 81.7243564 162.890002 85.14626 157.18068 82.6634211 159.044308 79.7263712 157.18068 75.5639989 153.247185 76.5038394 151.871134 71.4342088 155.160112 69.4660906 156.012737 65.049655 152.597879 63.3666308 155.160112 57.5642893 159.044308 59.385012 162.890002 57.5642893 161.370869 53.9949901 165.862914 51.6869312 167.855068 55.5461342 169.975375 55.5461342"></polyline>
                </g>
                <g id="Line" transform="translate(0.000000, 27.686931)">
                    <path d="M364.662608,103.727024 C381.443207,108.781724 390.333948,112.676055 391.334832,115.410019 C392.335716,118.143983 391.835274,120.471017 389.833506,122.391123 L385.497424,119.485858 L382.03037,126.981148 C384.057908,130.178249 383.435321,134.424318 380.162608,139.719357 C375.253539,147.661915 370.711336,146.075082 370.045958,144.917702 C369.38058,143.760322 361.46447,122.623127 360.74032,118.736647 C360.257553,116.145661 359.73165,110.35107 359.162608,101.352874 L364.662608,103.727024 Z" id="Path-2" fill="#E1E7F5"></path>
                    <g id="Group" transform="translate(18.032221, 13.918799)" stroke="#151D2A" stroke-width="1.5">
                        <path d="M41.696901,20.9185081 C42.5650504,23.938597 42.2759629,26.1562049 40.8296385,27.5713316 C38.1181959,30.2242875 35.2047792,31.0412815 32.0893886,30.0223135 L32.0893886,35.6846042 L28.3169975,39.0199048 L24.7676357,34.5959721 L24.7676357,28.9586357 C22.3681221,28.799032 21.1683652,27.9281004 21.1683652,26.3458406 C21.1683652,24.7635809 22.3681221,23.7019826 24.7676357,23.1610458 C22.6948677,18.5234418 23.4889869,15.3624315 27.1499933,13.678015 C30.8109997,11.9935986 34.0151601,11.1513903 36.7624745,11.1513903 C37.5744322,12.4244627 38.1553383,13.3598073 38.5051928,13.9574243" id="Path"></path>
                        <circle id="Oval" cx="40.7917682" cy="18.0812014" r="3"></circle>
                        <circle id="Oval" cx="31.7917682" cy="20.0812014" r="3"></circle>
                        <path d="M23.7286903,31.4658914 C22.7612526,30.7707374 21.9078109,31.4897552 21.1683652,33.6229448 C20.0591968,36.8227292 19.5372727,41.7744646 21.1683652,41.7744646 C22.2557603,41.7744646 24.6386377,40.856278 28.3169975,39.0199048" id="Path-414"></path>
                        <path d="M35.0087713,33.3296024 C36.9099149,38.0515076 37.4711835,41.0030953 36.6925771,42.1843653 C35.9139707,43.3656353 33.4755013,42.1341646 29.377169,38.4899533" id="Path-415"></path>
                        <path d="M21.7632492,32.0363491 C18.7401827,33.3369707 16.3445246,34.526326 14.5762749,35.6044147 C12.8080253,36.6825035 10.4123672,38.4143784 7.38930066,40.8000396" id="Path-416"></path>
                        <path d="M4.31240441,44.5787248 C0.874274258,55.1243388 -0.508029639,64.7860745 0.165492718,73.5639321 C1.17577625,86.7307186 7.10075818,84.9756747 12.6530002,84.319782 C18.2052422,83.6638892 34.8968675,75.608605 35.6927177,74.8609664 C36.2232844,74.3625406 36.6696837,72.6569076 37.0319154,69.7440674" id="Path-417"></path>
                        <path d="M34.4546519,65.5711037 C27.5401001,64.9524768 22.227202,65.5412453 18.5159577,67.3374092 C14.8047134,69.133573 12.4675304,70.4747908 11.5044086,71.3610624" id="Path-418"></path>
                        <line x1="16.3502085" y1="68.3472221" x2="9.37506117" y2="68.3472221" id="Path-419"></line>
                        <path d="M14.1462566,43.7092379 C15.1905534,49.4484966 15.7127018,54.378133 15.7127018,58.4981471 C15.7127018,62.6181612 15.7127018,65.9011862 15.7127018,68.3472221" id="Path-420"></path>
                        <path d="M28.3169975,39.2985273 C27.6267624,48.1637584 28.0934188,52.8632221 29.7169667,53.3969183 C31.3405147,53.9306146 32.9197431,54.0949561 34.4546519,53.8899431" id="Path-421"></path>
                        <path d="M36.6737325,66.0094741 C38.7335265,63.9073278 41.2767258,63.4635592 44.3033304,64.6781683 C47.329935,65.8927774 48.7794435,67.8574367 48.6518559,70.5721462" id="Path-422"></path>
                        <line x1="37.5657601" y1="72.9675374" x2="76.0813019" y2="68.94663" id="Path-423"></line>
                        <path d="M50.2384722,71.3610624 C58.8048316,54.184691 64.7659601,44.9594985 68.1218579,43.685485 C71.4777556,42.4114714 80.1026333,41.8679508 93.996491,42.0549232 C96.0980615,41.3383724 96.6234542,42.8657006 95.5726689,46.6369079 C94.5218836,50.4081152 90.6950831,56.7883914 84.0922674,65.7777364" id="Path-424"></path>
                        <path d="M76.3309464,52.4425642 C73.5136418,52.4998214 72.2052159,53.4982362 72.4056686,55.4378088 C72.6061214,57.3773814 74.0908002,57.5425624 76.859705,55.933352" id="Path-425"></path>
                        <path d="M21.1683652,25.5849905 C15.2477709,24.5991219 12.6158516,22.3914445 13.2726072,18.9619583 C13.9293628,15.5324722 15.228928,13.9284806 17.1713029,14.1499835 C15.4323846,10.3773483 15.8252384,7.69083946 18.3498642,6.09045714 C20.87449,4.49007483 23.3768586,4.49007483 25.8569699,6.09045714" id="Path-426"></path>
                        <path d="M22.3653133,5.17325497 C24.5291368,1.35937438 26.8070235,-0.345724812 29.1989732,0.0579574058 C31.590923,0.461639624 33.1995026,1.30452965 34.024712,2.58662749 C37.6892012,1.51252004 40.1536161,2.96487933 41.4179565,6.94370535 C42.238178,9.52490787 41.4891278,11.8325471 39.1708059,13.8666232" id="Path-427"></path>
                        <path d="M38.7257024,34.4464014 C42.7401529,36.3125244 44.9224567,40.3760266 45.2726137,46.6369079 C45.6227708,52.8977893 45.6227708,59.1299472 45.2726137,65.3333817" id="Path-428"></path>
                        <line x1="38.7257024" y1="46.6369079" x2="45.2726137" y2="46.6369079" id="Path-429"></line>
                        <path d="M10.0903912,85.0812014 C9.2804492,93.0692492 10.2045304,98.4559104 12.8626348,101.241185 C16.8497915,105.419096 22.5271785,102.186703 25.2676576,101.241185 C28.0081367,100.295667 35.0105548,94.9066679 41.3686724,94.2038704 C47.72679,93.5010729 51.4007399,91.2711405 51.4007399,85.0812014 C51.4007399,80.9545753 50.4870257,77.6950335 48.6595973,75.3025759" id="Path-430"></path>
                        <path d="M16.9368888,103.326539 C19.9349339,113.874004 25.4332527,123.131262 33.431845,131.098311 C41.4304373,139.065361 51.5996082,148.438158 63.9393579,159.216701" id="Path-431"></path>
                        <line x1="56.8751764" y1="152.433248" x2="65.8526395" y2="155.229271" id="Path-432"></line>
                        <path d="M58.2092115,153.831259 C55.7297156,165.533513 54.6920629,174.336942 55.0962534,180.241548 C55.500444,186.146154 55.500444,189.873744 55.0962534,191.424321" id="Path-433"></path>
                        <path d="M59.3626852,192.876257 C63.580463,194.289963 67.312973,190.891333 70.560215,182.680366 C73.807457,174.469399 76.158147,164.387027 77.6122851,152.433248 C77.3199584,146.158942 74.6626445,139.747896 69.6403435,133.20011 C64.6180425,126.652324 56.6034872,117.069532 45.5966777,104.451733" id="Path-434"></path>
                        <path d="M50.1173316,90.7902468 C62.8111968,107.043702 70.1369936,117.853961 72.0947221,123.221025 C74.0524506,128.588088 74.0524506,133.153854 72.0947221,136.918323" id="Path-435"></path>
                        <path d="M57.5821865,154.51453 L37.0962748,173.952893 C35.3672026,175.048834 33.6401467,175.434785 31.9151072,175.110747" id="Path-436"></path>
                        <path d="M45.5966777,142.859838 C34.7475074,154.062869 29.006831,161.1222 28.3746486,164.03783 C27.7424663,166.953459 27.5760588,169.183296 27.8754262,170.727339" id="Path-437"></path>
                        <path d="M63.5340823,193.187732 C70.5599348,199.828558 72.9018856,204.3142 70.5599348,206.644658 C68.2179839,208.975116 62.5785382,205.387721 53.6415976,195.882473" id="Path-438"></path>
                        <line x1="66.9852839" y1="196.973326" x2="64.0425279" y2="199.297255" id="Path-439"></line>
                        <line x1="64.9132934" y1="194.906634" x2="61.3930937" y2="196.973326" id="Path-440"></line>
                        <path d="M32.4382181,175.221665 C32.8509964,185.568912 31.8870701,190.742536 29.5464391,190.742536 C26.0354927,190.742536 24.072147,180.793901 24.072147,177.326499 C24.072147,175.014899 24.2195224,173.181129 24.5142733,171.82519" id="Path-441"></path>
                        <line x1="32.5310408" y1="181.764014" x2="28.6790544" y2="181.764014" id="Path-442"></line>
                        <line x1="32.5310408" y1="178.764014" x2="28.6790544" y2="178.764014" id="Path-442"></line>
                        <line x1="34.7917682" y1="19.191165" x2="37.7917682" y2="18.7365502" id="Path-413"></line>
                        <line x1="27.8327696" y1="20.0812014" x2="19.5156052" y2="22.1232813" id="Path-443"></line>
                        <path d="M42.130467,98.5652904 C35.7721091,99.9787188 31.133503,101.940866 28.2146485,104.451733 C25.295794,106.962599 22.0628971,108.456761 18.5159577,108.934219" id="Path-444"></path>
                        <path d="M45.5352315,59.2916592 C47.9006161,58.585913 49.6875874,58.2330398 50.8961454,58.2330398 C52.1047033,58.2330398 53.8916746,58.585913 56.2570592,59.2916592" id="Path-445"></path>
                    </g>
                    <g id="Group-9" transform="translate(158.604299, 12.309180)">
                        <path d="M23.8727781,0.813923578 C19.0788273,-0.918372901 15.7339871,0.114502166 13.8382575,3.91254878 C11.942528,7.71059539 7.55426512,16.3049786 0.673468985,29.6956985 C-0.716291888,33.0129891 0.0448650921,35.7476443 2.95693993,37.8996642 C7.32505218,41.1276939 36.0835622,55.4108401 39.3262326,56.4734687 C41.4880129,57.1818879 43.4920519,57.6365355 45.3383495,57.8374117" id="Path-446" stroke="#151D2A" stroke-width="1.5"></path>
                        <path d="M49.9558253,57.0406763 C53.2163105,53.493598 55.8510786,49.7665263 57.8601296,45.8594613 C59.8691807,41.9523963 62.5039488,35.4316345 65.7644339,26.2971759 C65.6458185,22.3137524 64.2987806,19.6888156 61.7233202,18.4223656 C59.1478598,17.1559155 48.1793957,11.6624013 28.817928,1.94182298" id="Path-447" stroke="#151D2A" stroke-width="1.5"></path>
                        <g id="Group-11" transform="translate(17.219690, 12.690820)">
                            <polyline id="Path-301" stroke="#151D2A" stroke-width="1.5" points="19.5894097 3.5659923 21.6047648 0.515899417 27.0598076 4.35951822 24.8283295 7.11320372 27.0598076 9.67513838 30.1253122 8.16263638 32.6159227 14.4947152 28.9755239 15.1319732 28.9755239 19.0013977 32.6159227 20.2103241 28.9755239 25.9090875 26.1026662 24.9743469 22.5309035 27.7552718 23.6258546 30.9171895 17.3672504 32.3408051 16.2081434 28.6229892 11.7512803 27.7552718 10.5703101 30.9171895 5.09340422 28.6229892 6.88116724 25.9090875 5.09340422 22.0629598 1.32003432 22.931394 -2.21557777e-14 18.2469388 3.15508921 16.4283522 3.97300583 12.3474642 0.697160498 10.7923111 3.15508921 5.43081407 6.88116724 7.11320372 10.5703101 5.43081407 9.11301792 2.13269953 13.4222007 2.23820962e-14 15.3332578 3.5659923 17.3672504 3.5659923"></polyline>
                            <ellipse id="Oval" fill="#FFFFFF" cx="16.6760342" cy="16.6213588" rx="3.85" ry="3.5"></ellipse>
                            <ellipse id="Oval" stroke="#151D2A" stroke-width="1.5" cx="16.6760342" cy="16.6213588" rx="4.85" ry="4.5"></ellipse>
                        </g>
                    </g>
                    <circle id="Oval" stroke="#151D2A" stroke-width="1.5" cx="249.323989" cy="7.5" r="3.5"></circle>
                    <circle id="Oval" stroke="#151D2A" stroke-width="1.5" cx="426.323989" cy="95.5" r="3.5"></circle>
                    <circle id="Oval" stroke="#151D2A" stroke-width="1.5" cx="337.323989" cy="208.5" r="3.5"></circle>
                    <circle id="Oval" stroke="#151D2A" stroke-width="1.5" cx="570.323989" cy="205.5" r="3.5"></circle>
                    <path d="M266.823989,93 C264.062565,93 261.823989,95.2385763 261.823989,98 C261.823989,100.761424 264.062565,103 266.823989,103 C269.585413,103 271.823989,100.761424 271.823989,98" id="Path" stroke="#151D2A" stroke-width="1.5"></path>
                    <path d="M575.323989,0 C573.390993,0 571.823989,1.56700338 571.823989,3.5 C571.823989,5.43299662 573.390993,7 575.323989,7 C577.256986,7 578.823989,5.43299662 578.823989,3.5" id="Path" stroke="#151D2A" stroke-width="1.5"></path>
                    <circle id="Oval" stroke="#151D2A" stroke-width="1.5" cx="162.323989" cy="167.5" r="3.5"></circle>
                    <path d="M468.627885,205.922068 L509.649284,216.037713 C516.268177,199.788146 519.577624,189.661253 519.577624,185.657033 C519.577624,181.652814 519.290465,178.03107 518.716147,174.791802 C521.895603,182.951934 522.888025,190.063534 521.693413,196.126601 C520.498801,202.189668 518.537036,209.222114 515.808119,217.22394 C514.648286,221.053916 511.295178,222.645936 505.748797,222 C497.429225,221.031096 476.10506,214.458779 473.685117,212.470359 C472.071822,211.144745 470.386078,208.961982 468.627885,205.922068 Z" id="Path-3" fill="#E1E7F5"></path>
                    <g id="Group-4" transform="translate(216.099825, 136.732251)" stroke="#151D2A" stroke-width="1.5">
                        <path d="M29.9996983,56.2885135 C15.9646224,53.5278946 7.84171624,51.4798442 5.63097978,50.1443621 C2.3148751,48.141139 -0.754679042,46.1267091 0.165402723,38.9078215 C0.778790566,34.0952298 3.25643665,22.7735172 7.59834097,4.94268379 C7.86805232,0.83164042 11.6690397,-0.714903838 19.0013032,0.303051018 C29.9996983,1.8299833 78.2070518,10.2395979 83.2232345,12.3459239 C88.2394171,14.4522499 91.6563834,20.2446005 89.9479003,28.1442567 C88.2394171,36.0439129 84.041334,59.1950081 75.1313339,61.1326711 C69.1913338,62.4244465 56.0935235,61.1171683 35.8379029,57.2108366" id="Path-449"></path>
                        <line x1="0.165402723" y1="38.9078215" x2="51.631706" y2="48.819153" id="Path-450"></line>
                        <line x1="58.9424896" y1="50.0675952" x2="81.7248796" y2="53.8902492" id="Path-451"></line>
                        <path d="M29.8394405,31.9450103 L22.0271721,24.8486753 C21.2095586,24.1059897 21.1488175,22.8411173 21.8915031,22.0235038 C22.0059692,21.8974895 22.1360562,21.7866058 22.2786087,21.6935422 L32.4248516,15.0696985 L32.4248516,15.0696985" id="Path-452"></path>
                        <path d="M58.251682,40.2282606 L70.3336846,33.1318696 C72.2304864,31.4221844 72.1939795,29.8344357 70.224164,28.3686234 C68.2543485,26.902811 64.7606664,24.7102731 59.7431177,21.7910094" id="Path-453"></path>
                        <line x1="38.0993377" y1="36.1170588" x2="53.1998829" y2="19.1851495" id="Path-454"></line>
                        <line x1="44.4945456" y1="59.042952" x2="45.1964682" y2="76.0841691" id="Path-455"></line>
                        <path d="M49.622406,76.0841691 L54.4986181,77.0463186 C56.0976189,79.4144556 55.1419815,80.7701936 51.631706,81.1135324 C46.3662927,81.6285406 28.7103689,78.7078583 24.7170281,77.6045695 C22.0548008,76.8690437 18.8456338,75.4916844 15.0895271,73.4724918 C12.9454112,71.0927433 12.9454112,69.5880584 15.0895271,68.9584371 C17.2336431,68.3288157 24.1782964,70.0200848 35.9234872,74.0322442" id="Path-456"></path>
                        <line x1="22.4464874" y1="69.307982" x2="29.4977459" y2="56.1781248" id="Path-457"></line>
                    </g>
                    <g id="Group-3" transform="translate(289.653970, 8.000000)" stroke="#151D2A" stroke-width="1.5">
                        <path d="M52.4719081,46.021163 C37.7941348,51.0486274 28.3167519,53.5623596 24.0397595,53.5623596 C17.6242709,53.5623596 17.7124227,49.7427881 16.4850531,43.7771774 C15.6668067,39.8001036 14.6674158,32.7628243 13.4868803,22.6653394 C13.2146569,19.2860764 14.6749587,17.2535199 17.8677859,16.56767 C22.6570267,15.5388951 41.6133686,11.6480592 45.1228891,11.6480592 C48.6324096,11.6480592 50.7480516,12.8956936 51.6099799,17.3468504 C52.1845987,20.3142883 53.0717453,28.3041244 54.2714197,41.3163587" id="Path-458"></path>
                        <line x1="26.0797464" y1="53.5623596" x2="28.5864986" y2="65.1818413" id="Path-459"></line>
                        <line x1="34.0797464" y1="52.5623596" x2="36.5864986" y2="64.1818413" id="Path-459"></line>
                        <line x1="42.0797464" y1="49.5623596" x2="44.5864986" y2="61.1818413" id="Path-459"></line>
                        <line x1="50.0797464" y1="47.5623596" x2="52.5864986" y2="59.1818413" id="Path-459"></line>
                        <line x1="17.1700188" y1="4" x2="19.676771" y2="15.6194817" id="Path-459"></line>
                        <line x1="26.1700188" y1="3" x2="28.676771" y2="14.6194817" id="Path-459"></line>
                        <line x1="35.1700188" y1="1" x2="36.4233949" y2="12.6528541" id="Path-459"></line>
                        <line x1="44.1700188" y1="0" x2="45.1228891" y2="11.6480592" id="Path-459"></line>
                        <line x1="13.4548004" y1="24.424997" x2="0" y2="26.0792778" id="Path-460"></line>
                        <line x1="14.4548004" y1="31.424997" x2="1" y2="33.0792778" id="Path-460"></line>
                        <line x1="15.4548004" y1="39.424997" x2="2" y2="41.0792778" id="Path-460"></line>
                        <line x1="17.4548004" y1="48.424997" x2="3.86584273" y2="51.3224269" id="Path-460"></line>
                        <line x1="52.0058525" y1="16.7845265" x2="63.5957546" y2="13.57246" id="Path-461"></line>
                        <line x1="53.0058525" y1="23.7845265" x2="66.1734163" y2="21.6250847" id="Path-461"></line>
                        <line x1="54.0058525" y1="30.7845265" x2="67.1734163" y2="28.6250847" id="Path-461"></line>
                        <line x1="54.0058525" y1="37.7845265" x2="67.1734163" y2="37.7845265" id="Path-461"></line>
                        <g id="Group-2" transform="translate(25.182131, 21.625085)">
                            <polyline id="Path-462" points="15.6075504 -7.10542736e-15 15.6075504 4.87540675 10.6145757 4.87540675"></polyline>
                            <path d="M15.1383146,4.47804062 C11.5555481,1.35570733 8.29409115,0.0763213852 5.35394366,0.639882779 C2.41379617,1.20344417 0.62914828,3.58356357 2.27373675e-13,7.78024097" id="Path-463"></path>
                        </g>
                        <g id="Group-2" transform="translate(34.182131, 36.625085) scale(-1, -1) translate(-34.182131, -36.625085) translate(26.182131, 32.625085)">
                            <polyline id="Path-462" points="15.6075504 -7.10542736e-15 15.6075504 4.87540675 10.6145757 4.87540675"></polyline>
                            <path d="M15.1383146,4.47804062 C11.5555481,1.35570733 8.29409115,0.0763213852 5.35394366,0.639882779 C2.41379617,1.20344417 0.62914828,3.58356357 2.27373675e-13,7.78024097" id="Path-463"></path>
                        </g>
                    </g>
                    <g id="Group-5" transform="translate(359.162608, 100.227024)" stroke="#151D2A" stroke-width="1.5">
                        <path d="M0,1.12585043 L24.0520865,28.7123661 C25.2650683,31.3369848 25.2650683,33.8078683 24.0520865,36.1250164 C22.8391047,38.4421645 20.0139037,41.5859549 15.5764835,45.5563874 C12.3828811,46.4405507 10.2345898,45.0896963 9.13160947,41.5038243 C7.47713902,36.1250164 1.27287484,17.1611827 0.636437422,11.9670794 C0.212145807,8.5043438 0,4.89060083 0,1.12585043 Z" id="Path-464"></path>
                        <path d="M2.54458496,7.10542736e-15 C21.3487412,4.88643092 32.7755331,8.26751679 36.8249608,10.1432576 C42.8991023,12.9568688 41.9395066,14.9069022 40.924628,16.4146719 C40.2480423,17.4198518 37.0642293,19.3363274 31.373189,22.1640988 L5.60667851,3.35974859" id="Path-465"></path>
                        <line x1="27.0180563" y1="19.2588343" x2="22.8677615" y2="27.1226885" id="Path-466"></line>
                    </g>
                    <g id="Group-6" transform="translate(463.882818, 161.037713)" stroke="#151D2A" stroke-width="1.5">
                        <path d="M8.2434315,2.06703952 C2.7478105,19.1455278 0,29.9117079 0,34.3655799 C0,41.0463878 0.423610856,43.1979556 4.74506717,44.8843558 C7.62603805,46.0086226 19.9996754,48.9366613 41.8659792,53.668472" id="Path-467"></path>
                        <path d="M11.398008,7.10542736e-15 C32.4989476,1.48993775 45.2673633,4.1303643 49.7032552,7.92127965 C56.3570931,13.6076527 57.2451609,19.8329867 53.4742081,33.0609169 C50.9602395,41.8795369 48.4280958,49.0820553 45.877777,54.668472" id="Path-468"></path>
                        <path d="M8.66389854,33.2760589 C14.6973731,25.0268848 19.0719866,21.2102751 21.7877388,21.8262298 C25.8613671,22.7501619 26.9942568,28.621755 31.5203319,27.0020929 C34.5377153,25.9223181 38.7304239,22.2424813 44.0984578,15.9625824" id="Path-469"></path>
                        <polyline id="Path-470" points="35.446465 15.1167848 44.9927282 15.1167848 44.9927282 24.6193207"></polyline>
                    </g>
                    <polyline id="Path-494" stroke="#151D2A" stroke-width="1.5" points="121.225301 15.7545973 121.225301 10.3091799 116.380964 14.398752 113.252768 10.3091799 109.1832 15.7545973 103.654922 14.398752 105.113523 19.9187986"></polyline>
                    <path d="M154.644075,25.1889558 C146.563288,27.9129652 140.813174,30.5570996 137.393734,33.1213588 C133.974294,35.685618 130.061356,40.287865 125.654922,46.9280996" id="Path-495" stroke="#151D2A" stroke-width="1.5" stroke-dasharray="4"></path>
                    <g id="Group-8" transform="translate(140.809378, 95.853464)" stroke="#151D2A" stroke-width="1.5">
                        <line x1="7.3877693" y1="-1.42337919e-14" x2="7.3877693" y2="16.6772812" id="Path-496"></line>
                        <line x1="13.7755386" y1="13.6986155" x2="1" y2="2.97866575" id="Path-496"></line>
                        <line x1="7.3877693" y1="2.41561593e-13" x2="7.3877693" y2="16.6772812" id="Path-496" transform="translate(7.387769, 8.338641) scale(-1, 1) rotate(130.000000) translate(-7.387769, -8.338641) "></line>
                    </g>
                    <line x1="11.4458195" y1="36.0420799" x2="5.11470593" y2="31" id="Path-497" stroke="#151D2A" stroke-width="1.5"></line>
                    <line x1="10.4458195" y1="47.0420799" x2="3.78188302" y2="50.3369929" id="Path-497" stroke="#151D2A" stroke-width="1.5"></line>
                    <path d="M10.625175,158.422115 L4.32859491,165.433328 C3.14649725,163.604351 2.31326363,162.190367 1.82889405,161.191375 C1.34452448,160.192384 0.734893126,158.630523 0,156.505791 L9.09357443,155.218517" id="Path-498" stroke="#151D2A" stroke-width="1.5"></path>
                    <path d="M225.652441,58.3813496 C232.616031,69.473291 230.559318,83.3982725 219.482303,100.156294 C208.405288,116.914316 207.815189,132.369971 217.712006,146.52326" id="Path-499" stroke="#151D2A" stroke-width="1.5" stroke-dasharray="6" transform="translate(220.195688, 102.452305) rotate(10.000000) translate(-220.195688, -102.452305) "></path>
                    <path d="M287.314292,131.722771 C307.23597,121.935052 321.773003,127.300283 330.92539,147.818465 C344.65397,178.595738 360.26041,187.022572 381.272429,183.551404 C395.280443,181.237291 398.891796,166.452744 392.106491,139.19776" id="Path-500" stroke="#151D2A" stroke-width="1.5" stroke-dasharray="6"></path>
                    <polyline id="Path-501" stroke="#151D2A" stroke-width="1.5" points="402.926494 212.037713 408.349214 202.307842 419.720346 208.5 413.230066 216.732251"></polyline>
                    <path d="M528.770209,123.391123 C528.222597,132.51677 527.383981,139.035455 526.254363,142.947178 C525.124745,146.858901 522.96336,150.72883 519.770209,154.556965" id="Path-502" stroke="#151D2A" stroke-width="1.5" stroke-dasharray="6"></path>
                    <polyline id="Path-503" stroke="#151D2A" stroke-width="1.5" points="566.137196 148.114596 576.922058 145.1236 573.319089 151.631198 584.392824 156.104752 573.319089 163.507402 580.296768 169.154498 573.319089 171.36467"></polyline>
                    <line x1="10.4458195" y1="41.0420799" x2="2.53586599" y2="41.0420799" id="Path-497" stroke="#151D2A" stroke-width="1.5"></line>
                </g>
            </g>
        </g>
    </g>
</svg>