<svg xmlns="http://www.w3.org/2000/svg" width="1720.68" height="1200" viewBox="0 0 1720.68 1200"><title>00-Contact-Header</title><rect x="-11.53" y="763.49" width="412.73" height="294.27" transform="translate(1105.46 715.79) rotate(90)" fill="#f7e0df"/><rect x="1228.67" y="687.02" width="560.22" height="319.45" transform="translate(2355.52 -662.03) rotate(90)" fill="#e6f2e8"/><g opacity="0.97"><rect x="1395.58" y="-82.36" width="78.06" height="412.87" transform="translate(1558.68 -1310.54) rotate(90)" fill="#fbefd8"/></g><g opacity="0.97"><rect x="95.79" y="124.78" width="273.13" height="193.64" transform="translate(453.96 -10.75) rotate(90)" fill="#fbefd8"/></g><path d="M1089.05,1028.48h-74a1.5,1.5,0,0,1-1.49-1.39c-.25-3.48-24.42-349-16.43-428.56a1.5,1.5,0,0,1,3,.3c-7.7,76.69,14.66,402.46,16.34,426.65h71.15l5-406a1.5,1.5,0,0,1,2.94-.4c25,86.48,12.36,375.27,11.25,399.32h81.56c5.74-53.84,3.76-158.69,1.07-237.5-2.93-86.14-7.33-160.57-7.37-161.32a1.5,1.5,0,0,1,1.41-1.58,1.48,1.48,0,0,1,1.58,1.41c0,.74,4.44,75.21,7.38,161.38,2.71,79.57,4.7,185.67-1.24,239.27a1.5,1.5,0,0,1-1.49,1.34H1105.2a1.48,1.48,0,0,1-1.08-.47,1.41,1.41,0,0,1-.41-1.1c.14-3,13.63-287.42-8.27-388.69L1090.55,1027A1.5,1.5,0,0,1,1089.05,1028.48Z" fill="#212121"/><path d="M687.52,992.59H637.09a1.5,1.5,0,0,1-1.47-1.23c-.12-.67-12.6-67.78-24.32-143.7-10.82-70.12-23.19-162.32-20.66-203.35a1.5,1.5,0,1,1,3,.19c-2,32.26,5.15,102.35,20.63,202.7,10.85,70.24,22.34,132.93,24.08,142.39h47.79c7-94.26-13.19-419.57-13.39-422.86a1.5,1.5,0,1,1,3-.19c.21,3.31,20.62,332.05,13.28,424.66A1.5,1.5,0,0,1,687.52,992.59Z" fill="#212121"/><path d="M662.35,1027.48a18.35,18.35,0,0,1-11.29-4.25,17.94,17.94,0,0,1-6.82-14.15V991a1.5,1.5,0,0,1,3,0v18a14.93,14.93,0,0,0,5.65,11.78c3.41,2.62,6.87,3.82,10.33,3.59,8.54-.6,11.26-8.1,11.64-9.32V991a1.5,1.5,0,0,1,3,0v24.31a1.58,1.58,0,0,1-.05.38c0,.11-3,10.92-14.38,11.71C663.07,1027.47,662.71,1027.48,662.35,1027.48Z" fill="#212121"/><path d="M680.15,1058.13c-19.64,0-37.34-2-41-6.46-4.35-5.36,3.48-36.73,5.09-43a1.5,1.5,0,1,1,2.91.75c-4.56,17.63-7.93,37.53-5.67,40.32,5.47,6.74,68.36,7.72,91.62-.53,3.9-1.39,6.23-3,6.23-4.33,0-3.24-4.06-10.06-31.21-19.22-15.87-5.35-31.95-8.85-32.12-8.88a1.5,1.5,0,0,1,.64-2.94c6.72,1.46,65.69,14.67,65.69,31,0,2.85-2.69,5.19-8.22,7.15C723.24,1055.94,700.64,1058.13,680.15,1058.13Z" fill="#212121"/><path d="M528.28,990.54H484a1.51,1.51,0,0,1-1.49-1.35C468.29,850.13,514.6,549.06,515.07,546a1.5,1.5,0,0,1,3,.46c-.46,3-46.42,301.78-32.7,441.05H527l63.63-343.41a1.46,1.46,0,0,1,.56-.91L610,628.61a1.5,1.5,0,0,1,1.84,2.37l-18.35,14.26L529.75,989.31A1.5,1.5,0,0,1,528.28,990.54Z" fill="#212121"/><path d="M473.55,395.53s-17.81,35.19-24.76,35.62c0,0-30.84-85.59-33.89-106.86,0,0,8.59-42.59,5.65-44-5.65-2.77-10,14.49-10,14.49s-4.78-40.91-8.69-40.87S398,283.46,398,283.46s-5.21-34.9-10.42-35,0,36.78,0,36.78-10-29.4-13.47-26.65,6.08,29.69,6.08,29.69-11.72-14.77-13.46-11.3,8.69,20.85,15.2,29.11,11.73,22.59,11.73,22.59-1.74,106.42,16.94,133.79,55.17,23,93.83-33.89" fill="#fff"/><path d="M439,480.25c-11.84,0-22.1-5.87-29.68-17-18.43-27-17.31-127-17.2-134.38-.73-1.94-5.59-14.54-11.41-21.91-4-5.05-17.94-25.55-15.36-30.71a2.38,2.38,0,0,1,1.91-1.34c2.19-.23,5.76,2.93,9.06,6.49-.64-2-1.32-4.29-2-6.59-3.67-13.32-2.68-16.3-1.22-17.45a2.27,2.27,0,0,1,2.13-.4c2.66.78,6.27,8.26,9.26,15.71-1-10.08-1.51-22,1-24.85a2.55,2.55,0,0,1,2.05-.92c2.3.06,4.93,2.38,8.59,18.75.24,1.07.47,2.14.69,3.2,1.05-16.45,3.92-16.48,5-16.49,1.54,0,3.73,0,7.3,21.68.83,5,1.53,10,2,13.84,1.46-3.69,3.6-7.78,6.28-9a4.15,4.15,0,0,1,3.73,0c1.33.65,2.84,1.39-.9,24.14-1.61,9.81-3.55,19.58-3.88,21.27,3,19.8,29.32,93.89,33.28,105,3.79-2.32,12.62-14.89,22.5-34.42a1.5,1.5,0,1,1,2.68,1.36c-3,6-18.58,36-26,36.44a1.5,1.5,0,0,1-1.5-1c-1.27-3.5-30.93-86-34-107.16a1.74,1.74,0,0,1,0-.51c3.74-18.54,7-39.09,6.13-42.51a1.21,1.21,0,0,0-.82.12c-2.74,1.26-5.58,9-6.72,13.52a1.5,1.5,0,0,1-2.95-.19c-2-16.84-5.09-35.17-7.21-39.07-1.49,3.2-2.4,16.22-2.4,27.6a1.5,1.5,0,0,1-3,.22c-2.54-17-6.53-32.07-8.86-33.67-1.82,2.6-.72,19.92,1.4,35a1.5,1.5,0,0,1-2.9.69c-3.74-11-8.92-23.31-11.29-25.53-.75,3,2.71,16.24,6.74,27.59a1.5,1.5,0,0,1-2.59,1.43c-4.39-5.53-9.18-10.33-11-11.14-.14,3.44,7.87,17.91,15.12,27.09,6.59,8.34,11.74,22.41,12,23a1.65,1.65,0,0,1,.09.54c0,1.06-1.52,106.26,16.68,132.92,7,10.25,16.4,15.67,27.2,15.67h0c19.65,0,42.42-17.62,64.11-49.55a1.5,1.5,0,1,1,2.48,1.69c-22.27,32.77-45.91,50.83-66.59,50.86Z" fill="#212121"/><path d="M648.26,326.36s39.88-.33,54.64,13.14S727,387.58,727,387.58L679.76,439.4s-33.42,38.4-31.42,54.82,33.77,28.07,33.77,28.07l-.06,61.87S537.4,563.74,500.48,565.21c0,0,3.47-106.69,10.42-138l-3.47,6.52s-33-18.68-37.79-39.53c0,0,24.32-51.69,49.86-64.87,18-9.27,76.87-3,76.87-3Z" fill="#3aab97"/><path d="M648.26,326.36l-6.82-2.59a21.76,21.76,0,0,1-13.91-17.84h0l-42.89-6.54h0A24.76,24.76,0,0,1,570.33,326l-.78.35s6.17,25.48,39.36,24.61S648.26,326.36,648.26,326.36Z" fill="#fff"/><path d="M607.28,352.49c-16.68,0-26.38-6.73-31.61-12.49a33.47,33.47,0,0,1-7.58-13.29,1.49,1.49,0,0,1,.84-1.72l.79-.35a23.3,23.3,0,0,0,13.44-25,1.51,1.51,0,0,1,.42-1.3,1.46,1.46,0,0,1,1.29-.42l42.89,6.53a1.49,1.49,0,0,1,1.26,1.31,20.21,20.21,0,0,0,13,16.62l6.82,2.58a1.51,1.51,0,0,1,.93,1.78c-.07.25-6.85,24.85-40.78,25.74Zm-35.92-25.31c1.65,4.91,9.63,23,37.51,22.29,27.57-.72,35.73-17.38,37.52-22.22l-5.48-2.08a23.15,23.15,0,0,1-14.7-17.93l-39.83-6.07A26.29,26.29,0,0,1,571.36,327.18Z" fill="#212121"/><path d="M780.41,563.88a1.39,1.39,0,0,1-.44-.07C775.08,562.15,660.08,523,648.23,499c-9.43-19.11,32.56-63.91,63.22-96.62,8.65-9.24,16.13-17.21,20.34-22.48,18.13-22.66,42.21-23.11,44-23.11h.07a1.39,1.39,0,0,1,0,2.78h0c-.49,0-24.42.21-41.91,22.07-4.28,5.35-11.79,13.36-20.48,22.64-26.68,28.46-71.33,76.1-62.76,93.49,11.34,23,128.95,63,130.14,63.42a1.38,1.38,0,0,1,.87,1.76A1.39,1.39,0,0,1,780.41,563.88Z" fill="#212121"/><path d="M787.74,547.65a1.41,1.41,0,0,1-1-.45c-33.87-37.32-78.88-65.94-79.33-66.22a1.4,1.4,0,0,1-.09-2.3c33.28-24.39,77.55-72.47,78-73a1.39,1.39,0,0,1,2.05,1.88c-.44.48-43.49,47.23-76.77,72.13,8.57,5.61,47.83,32.13,78.21,65.6a1.38,1.38,0,0,1-.09,2A1.35,1.35,0,0,1,787.74,547.65Z" fill="#212121"/><path d="M777.47,1068.1v6s-48.41,6-89.08,1.68v-6" fill="#fff"/><path d="M721.09,1078.72a315.63,315.63,0,0,1-32.85-1.56,1.38,1.38,0,0,1-1.24-1.38v-6a1.39,1.39,0,0,1,2.78,0v4.75c36.22,3.65,78.62-.8,86.3-1.67v-4.76a1.39,1.39,0,0,1,2.78,0v6a1.39,1.39,0,0,1-1.22,1.38A523.78,523.78,0,0,1,721.09,1078.72Z" fill="#212121"/><path d="M770.41,1038.61s8.37,10.21,7.06,29.49c0,0-48.41,6-89.08,1.68,0,0-4.42-20.2,6.66-22.16s51.72-.22,51.72-8.58" fill="#fff"/><path d="M721.09,1072.72a315.63,315.63,0,0,1-32.85-1.56,1.38,1.38,0,0,1-1.21-1.08c-.12-.53-2.81-13.15,1.69-19.85a9,9,0,0,1,6.09-4c3.36-.59,9.19-.84,15.94-1.14,12.1-.53,34.63-1.51,34.63-6.07a1.39,1.39,0,0,1,2.78,0c0,6.71-15.46,7.9-37.29,8.85a154.07,154.07,0,0,0-15.58,1.1,6.16,6.16,0,0,0-4.26,2.79c-3.2,4.76-2,13.76-1.47,16.73,36.38,3.69,79.09-.8,86.59-1.66.85-17.69-6.74-27.27-6.81-27.36a1.39,1.39,0,1,1,2.15-1.76c.35.43,8.69,10.86,7.37,30.46a1.42,1.42,0,0,1-1.22,1.29A523.78,523.78,0,0,1,721.09,1072.72Zm56.38-4.62h0Z" fill="#212121"/><path d="M770.41,1019.93v18.68s-1.73,12.16-10.42,12.16c-13.22,0-13.22-11.73-13.22-11.73v-17.53" fill="#fff"/><path d="M760,1052.16c-14.44,0-14.61-13-14.61-13.12v-17.53a1.39,1.39,0,0,1,2.78,0V1039c0,.42.2,10.34,11.83,10.34,7,0,8.86-9.84,9-10.88v-18.57a1.39,1.39,0,0,1,2.78,0v18.68a1.21,1.21,0,0,1,0,.19C771.71,1039.35,769.77,1052.16,760,1052.16Z" fill="#212121"/><path d="M734.14,1046v9.27a2.28,2.28,0,0,1-2.28,2.28h0a2.28,2.28,0,0,1-2.28-2.28v-9.87" fill="#fff"/><path d="M731.86,1058.89a3.67,3.67,0,0,1-3.67-3.67v-9.87a1.39,1.39,0,0,1,2.78,0v9.87a.89.89,0,1,0,1.78,0V1046a1.39,1.39,0,1,1,2.78,0v9.27A3.67,3.67,0,0,1,731.86,1058.89Z" fill="#212121"/><path d="M722.63,1046v7.27a2.28,2.28,0,0,1-2.28,2.28h0a2.28,2.28,0,0,1-2.28-2.28v-5.87" fill="#fff"/><path d="M720.35,1056.89a3.67,3.67,0,0,1-3.67-3.67v-5.87a1.39,1.39,0,0,1,2.78,0v5.87a.89.89,0,1,0,1.78,0V1046a1.39,1.39,0,1,1,2.78,0v7.27A3.67,3.67,0,0,1,720.35,1056.89Z" fill="#212121"/><path d="M905,1078.72a524,524,0,0,1-56.55-3.24,1.39,1.39,0,0,1-1.21-1.38v-6a1.39,1.39,0,1,1,2.77,0v4.76c7.77.88,51.07,5.42,87.55,1.54a1.39,1.39,0,0,1,.3,2.76A315.69,315.69,0,0,1,905,1078.72Z" fill="#212121"/><path d="M905,1072.72a524,524,0,0,1-56.55-3.24,1.4,1.4,0,0,1-1.21-1.29c-1.33-19.6,7-30,7.37-30.46a1.39,1.39,0,1,1,2.15,1.76c-.1.12-7.66,9.7-6.81,27.36,7.5.86,50.21,5.36,86.59,1.66.51-3,1.72-12-1.47-16.74a6.17,6.17,0,0,0-4.26-2.78,154.3,154.3,0,0,0-15.58-1.1c-21.84-1-37.29-2.14-37.29-8.85a1.39,1.39,0,0,1,2.78,0c0,4.56,22.53,5.54,34.63,6.07,6.75.3,12.58.55,15.94,1.14a9,9,0,0,1,6.09,4c4.49,6.7,1.81,19.32,1.69,19.85a1.39,1.39,0,0,1-1.21,1.08A315.69,315.69,0,0,1,905,1072.72Z" fill="#212121"/><path d="M855.71,1019.93v18.68s1.74,12.16,10.43,12.16c13.22,0,13.22-11.73,13.22-11.73v-17.53" fill="#fff"/><path d="M866.14,1052.16c-9.78,0-11.72-12.81-11.8-13.36a1.23,1.23,0,0,1,0-.19v-18.68a1.39,1.39,0,1,1,2.78,0v18.57c.18,1,2,10.88,9,10.88,11.62,0,11.82-9.92,11.83-10.34v-17.53a1.39,1.39,0,0,1,2.78,0V1039C880.75,1039.17,880.58,1052.16,866.14,1052.16Z" fill="#212121"/><path d="M894.27,1058.89a3.67,3.67,0,0,1-3.67-3.67V1046a1.39,1.39,0,1,1,2.78,0v9.27a.89.89,0,1,0,1.78,0v-9.87a1.39,1.39,0,1,1,2.78,0v9.87A3.67,3.67,0,0,1,894.27,1058.89Z" fill="#212121"/><path d="M905.78,1056.89a3.67,3.67,0,0,1-3.67-3.67V1046a1.39,1.39,0,1,1,2.78,0v7.27a.89.89,0,1,0,1.78,0v-5.87a1.39,1.39,0,1,1,2.78,0v5.87A3.67,3.67,0,0,1,905.78,1056.89Z" fill="#212121"/><path d="M811.07,500.22S760.24,543.42,746.56,696s-13.68,326.56-13.68,326.56,34.57,7.82,53.93,0c0,0,33.32-361.79,65.28-431.47,0,0,7.38,309.3-13.73,427.56,0,0,36.24,15.64,59.37,1,0,0,64.58-374.26,16.58-515.6Z" fill="#325187"/><path d="M920.53,312.57s-17.36-50-17.58-79.5-36.28-45.67-55.83-41.73-44.74,15.23-50.39,41.73-9.12,69.15-23,82.14c0,0,34.75,19.51,68.2,6.91C841.91,322.12,899.68,331.69,920.53,312.57Z" fill="#f7e0df"/><path d="M955.84,445.84a1.51,1.51,0,0,1-1.06-2.56c10.75-10.81,38.14-27,39.3-27.73a1.5,1.5,0,0,1,1.53,2.59c-.28.16-28.22,16.71-38.7,27.25A1.48,1.48,0,0,1,955.84,445.84Z" fill="#212121"/><path d="M1138.16,350.46s60.6,29,76.89,51.15c0,0-27.84,43-29.23,56.69,0,0-18.61-13.68-22.06-20.85v25.41l-122.37-8.47s.31-18.89,0-22.8l.31,3.91s-16.26,15-23.43,15.63c0,0-24.11-22.15-28.67-52.78,0,0,62.1-41,90.35-45.28,0,0,9,14.66,29.36,16.29S1138.16,350.46,1138.16,350.46Z" fill="#5b6def"/><rect x="999.26" y="916.59" width="12.63" height="82.84" transform="translate(-354.67 677.48) rotate(-31.96)" fill="#fff"/><path d="M1021.7,998.41l-45.33-72.64,13.08-8.16,45.32,72.64Zm-41.5-71.75,42.38,67.92,8.36-5.21-42.38-67.93Z" fill="#212121"/><circle cx="1022.92" cy="992.04" r="18.94" fill="#3aab97"/><circle cx="1022.92" cy="992.04" r="7.89" fill="#f9d285"/><path d="M918.64,1068.75c0,71.94,65.7,69.18,103.91,69.18s34.44-31,34.44-69.18,4.13-68.82-34.07-68.82S918.64,1001.11,918.64,1068.75Z" fill="#212121"/><circle cx="1022.55" cy="1068.75" r="69.18" fill="#fff"/><path d="M1022.55,1139.32a70.57,70.57,0,1,1,70.56-70.57A70.65,70.65,0,0,1,1022.55,1139.32Zm0-138.36a67.79,67.79,0,1,0,67.78,67.79A67.87,67.87,0,0,0,1022.55,1001Z" fill="#212121"/><path d="M1022.55,1133.29a64.54,64.54,0,1,1,64.53-64.54A64.61,64.61,0,0,1,1022.55,1133.29Zm0-126.29a61.76,61.76,0,1,0,61.75,61.75A61.82,61.82,0,0,0,1022.55,1007Z" fill="#5b6def"/><polygon points="1029.73 1071.39 1094.08 993.67 1047.81 919.53 1037.1 926.21 1078.55 992.63 1020.01 1063.34 1029.73 1071.39" fill="#fff"/><path d="M1029.92,1073.35l-11.87-9.83,58.79-71-41.66-66.75,13.08-8.16,47.53,76.18-.64.77Zm-8-10.2,7.59,6.28,62.82-75.87-45-72.12-8.36,5.22,41.25,66.09Z" fill="#212121"/><circle cx="1082.89" cy="992.14" r="18.94" fill="#3aab97"/><circle cx="1082.89" cy="992.14" r="7.89" fill="#f9d285"/><circle cx="1025.79" cy="1067.36" r="18.94" fill="#3aab97"/><circle cx="1025.79" cy="1067.36" r="7.89" fill="#f9d285"/><path d="M1014.52,675.05a145.61,145.61,0,0,0,3.54,18.12,27.76,27.76,0,0,0,18-4.25,123.27,123.27,0,0,1-3-14.45A43.29,43.29,0,0,1,1014.52,675.05Z" fill="#fff"/><path d="M1021,694.69c-1.1,0-2.13-.05-3.08-.14l-1-.09-.25-.94a149.79,149.79,0,0,1-3.57-18.29l-.25-1.89,1.88.34a41.72,41.72,0,0,0,18-.55l1.5-.4.22,1.54a122.47,122.47,0,0,0,3,14.28l.26,1-.82.56A28.23,28.23,0,0,1,1021,694.69Zm-1.86-2.83a26.21,26.21,0,0,0,15.35-3.57c-1-3.93-1.89-8-2.55-12.11a44.15,44.15,0,0,1-15.8.53A148.15,148.15,0,0,0,1019.15,691.86Z" fill="#212121"/><path d="M1013.48,643.2c-.3,4.7-.42,9.86-.26,15.36a28.34,28.34,0,0,0,18.5-.23c-.12-4.64,0-9,.26-13A44.11,44.11,0,0,1,1013.48,643.2Z" fill="#fff"/><path d="M1022.47,661.41a32.71,32.71,0,0,1-9.67-1.53l-.95-.29,0-1c-.15-5.15-.06-10.36.26-15.47l.11-1.81,1.72.57a42.33,42.33,0,0,0,17.92,2.08l1.64-.17-.11,1.65c-.28,4.32-.37,8.64-.26,12.85l0,1-.91.35A26.8,26.8,0,0,1,1022.47,661.41Zm-7.89-3.9a26.72,26.72,0,0,0,15.73-.15c-.07-3.45,0-7,.19-10.49a45.07,45.07,0,0,1-15.74-1.81C1014.55,649.19,1014.49,653.36,1014.58,657.51Z" fill="#212121"/><path d="M1029.23,609.63a9.47,9.47,0,0,0-11.72,6.48,109.58,109.58,0,0,0-2.24,10.91c4.15,1.88,11.1,4,18.73,2,.8-4.29,1.54-7,1.72-7.64A9.46,9.46,0,0,0,1029.23,609.63Z" fill="#fff"/><path d="M1027.57,631.19a31.57,31.57,0,0,1-12.87-2.9l-1-.44.17-1.05a108.61,108.61,0,0,1,2.27-11.08,10.88,10.88,0,0,1,13.45-7.43h0a10.88,10.88,0,0,1,7.44,13.42c-.14.5-.89,3.19-1.69,7.52l-.16.86-.85.23A26.53,26.53,0,0,1,1027.57,631.19Zm-10.75-5a26.75,26.75,0,0,0,16,1.66c.77-3.94,1.45-6.41,1.58-6.89a8.08,8.08,0,0,0-15.53-4.46S1017.84,620.1,1016.82,626.18Z" fill="#212121"/><path d="M1015.27,627c-.71,4.36-1.4,9.84-1.79,16.18a44.11,44.11,0,0,0,18.5,2.15,139.5,139.5,0,0,1,2-16.38C1026.37,631,1019.42,628.9,1015.27,627Z" fill="#fff"/><path d="M1027.66,647a45.93,45.93,0,0,1-14.62-2.44l-1-.34.07-1.06c.34-5.54.95-11,1.81-16.32l.28-1.79,1.66.75a26.84,26.84,0,0,0,17.81,1.87l2.12-.56-.4,2.16a138.07,138.07,0,0,0-2,16.21l-.08,1.17-1.16.12A44.45,44.45,0,0,1,1027.66,647Zm-12.73-4.75a42.33,42.33,0,0,0,15.75,1.86c.33-4.54.86-9,1.59-13.29a29.53,29.53,0,0,1-15.9-1.79C1015.72,633.3,1015.24,637.74,1014.93,642.21Z" fill="#212121"/><path d="M1013.22,658.56a158,158,0,0,0,1.3,16.49,43.29,43.29,0,0,0,18.58-.58,134.29,134.29,0,0,1-1.38-16.14A28.34,28.34,0,0,1,1013.22,658.56Z" fill="#fff"/><path d="M1022.68,677.18a47.67,47.67,0,0,1-8.41-.77l-1-.18-.13-1a162.79,162.79,0,0,1-1.31-16.64l-.06-1.94,1.86.58a26.82,26.82,0,0,0,17.59-.2l1.84-.71,0,2a135,135,0,0,0,1.36,16l.18,1.23-1.2.32A42.9,42.9,0,0,1,1022.68,677.18Zm-6.91-3.33a41.62,41.62,0,0,0,15.77-.43c-.59-4.3-1-8.72-1.15-13.17a29.43,29.43,0,0,1-15.72.16C1014.85,664.93,1015.22,669.44,1015.77,673.85Z" fill="#212121"/><path d="M1021.86,705.1c-1.46-4-2.77-8-3.8-11.93a27.76,27.76,0,0,0,18-4.25,113.55,113.55,0,0,0,4.82,13.89C1034.54,703.28,1028.2,704.15,1021.86,705.1Z" fill="#fff"/><path d="M1020.94,706.64l-.39-1.06c-1.62-4.47-2.88-8.41-3.84-12.06l-.5-1.92,2,.18a26.27,26.27,0,0,0,17.15-4l1.61-1.08.51,1.87a113.17,113.17,0,0,0,4.76,13.72l.74,1.78-1.92.14c-6,.45-11.94,1.24-19,2.29Zm-1-12c.78,2.75,1.72,5.68,2.87,8.89,5.87-.87,11-1.55,16.14-2-1.41-3.53-2.63-7.05-3.64-10.5A28.78,28.78,0,0,1,1019.91,694.67Z" fill="#212121"/><rect x="870.6" y="446.41" width="332.27" height="188.39" rx="14.93" transform="translate(2011.46 1186.36) rotate(-174.01)" fill="#212121"/><circle cx="883.73" cy="524.56" r="3.16" fill="#212121"/><circle cx="1185.82" cy="556.23" r="7.06" fill="#cfd8e5"/><rect x="894.12" y="457.67" width="273.75" height="164.67" rx="4.1" transform="translate(2000.06 1184.56) rotate(-174.01)" fill="#fff"/><path d="M1154.9,637.14l-.59,0-264.1-27.69a5.48,5.48,0,0,1-4.88-6l16.31-155.61a5.49,5.49,0,0,1,6-4.89l264.1,27.69a5.49,5.49,0,0,1,4.89,6l-16.32,155.61a5.49,5.49,0,0,1-5.45,4.92ZM890.5,606.66l264.1,27.69a2.71,2.71,0,0,0,3-2.42l16.32-155.61a2.67,2.67,0,0,0-.59-2,2.72,2.72,0,0,0-1.82-1l-264.1-27.69a2.7,2.7,0,0,0-3,2.42L888.09,603.68a2.71,2.71,0,0,0,2.41,3Z" fill="#212121"/><rect x="863.26" y="682.64" width="296.33" height="249.7" rx="15.19" transform="translate(2022.85 1614.99) rotate(-180)" fill="#fff"/><path d="M1144.4,933.73h-266a16.59,16.59,0,0,1-16.57-16.58V697.83a16.59,16.59,0,0,1,16.57-16.58h266A16.6,16.6,0,0,1,1161,697.83V917.15A16.6,16.6,0,0,1,1144.4,933.73ZM878.44,684a13.81,13.81,0,0,0-13.79,13.8V917.15A13.81,13.81,0,0,0,878.44,931h266a13.81,13.81,0,0,0,13.8-13.8V697.83a13.81,13.81,0,0,0-13.8-13.8Z" fill="#212121"/><circle cx="1146.58" cy="907.94" r="2.69" fill="#d7d7d7"/><circle cx="1125.89" cy="907.94" r="2.69" fill="#d7d7d7"/><path d="M862.76,700.64h54.95a14.13,14.13,0,0,1,14.13,14.13V901.34a14.13,14.13,0,0,1-14.13,14.13H862.76a0,0,0,0,1,0,0V700.64A0,0,0,0,1,862.76,700.64Z" fill="#fff"/><path d="M917.71,916.86H861.37V699.25h56.34a15.53,15.53,0,0,1,15.52,15.52V901.34A15.53,15.53,0,0,1,917.71,916.86Zm-53.56-2.78h53.56a12.75,12.75,0,0,0,12.74-12.74V714.77A12.76,12.76,0,0,0,917.71,702H864.15Z" fill="#212121"/><path d="M1090.09,700.64H1145a14.13,14.13,0,0,1,14.13,14.13V901.34A14.13,14.13,0,0,1,1145,915.47h-54.95a0,0,0,0,1,0,0V700.64A0,0,0,0,1,1090.09,700.64Z" transform="translate(2249.25 1616.11) rotate(-180)" fill="#fff"/><path d="M1160.55,916.86h-56.33a15.53,15.53,0,0,1-15.52-15.52V714.77a15.53,15.53,0,0,1,15.52-15.52h56.33ZM1104.22,702a12.75,12.75,0,0,0-12.74,12.74V901.34a12.75,12.75,0,0,0,12.74,12.74h53.55V702Z" fill="#212121"/><circle cx="1099.8" cy="867.94" r="2.69" fill="#3e3e3f"/><circle cx="1099.8" cy="888.29" r="2.69" fill="#3e3e3f"/><circle cx="1099.8" cy="827.25" r="2.69" fill="#3e3e3f"/><circle cx="1099.8" cy="847.59" r="2.69" fill="#3e3e3f"/><circle cx="1099.8" cy="766.21" r="2.69" fill="#3e3e3f"/><circle cx="1099.8" cy="786.56" r="2.69" fill="#3e3e3f"/><circle cx="1099.8" cy="806.9" r="2.69" fill="#3e3e3f"/><circle cx="1099.8" cy="725.52" r="2.69" fill="#3e3e3f"/><circle cx="1099.8" cy="745.87" r="2.69" fill="#3e3e3f"/><circle cx="1105.2" cy="904.78" r="2.69" fill="#3e3e3f"/><circle cx="1146.58" cy="904.78" r="2.69" fill="#3e3e3f"/><circle cx="1125.89" cy="904.78" r="2.69" fill="#3e3e3f"/><circle cx="1146.58" cy="709.03" r="2.69" fill="#3e3e3f"/><circle cx="1125.89" cy="709.03" r="2.69" fill="#3e3e3f"/><circle cx="1105.2" cy="709.03" r="2.69" fill="#3e3e3f"/><path d="M742,549.56A38,38,0,0,1,756.14,522a7.9,7.9,0,0,1,9.78,12.4,22.78,22.78,0,0,0-3.28,31.74,18.64,18.64,0,0,0,10.51,6.51v16a34,34,0,0,1-22.69-12.46A38,38,0,0,1,742,549.56Z" fill="#fff"/><path d="M774.54,590.21,773,590a35.6,35.6,0,0,1-23.62-12.95,40,40,0,0,1,5.9-56.16,9.28,9.28,0,0,1,11.5,14.58,21.41,21.41,0,0,0-3.07,29.77,17.26,17.26,0,0,0,9.73,6l1.1.23ZM761,521.71a6.51,6.51,0,0,0-4,1.4,36.6,36.6,0,0,0-13.65,26.54h0a36.64,36.64,0,0,0,8.18,25.67,32.87,32.87,0,0,0,20.23,11.75V573.76a20,20,0,0,1-10.19-6.71,24.17,24.17,0,0,1,3.49-33.72,6.5,6.5,0,0,0-3.27-11.57A6.64,6.64,0,0,0,761,521.71Z" fill="#212121"/><path d="M812.08,549.56A38,38,0,0,0,797.9,522a7.9,7.9,0,0,0-9.78,12.4,22.78,22.78,0,0,1,3.28,31.74,18.64,18.64,0,0,1-10.51,6.51v16a34,34,0,0,0,22.69-12.46A38,38,0,0,0,812.08,549.56Z" fill="#fff"/><path d="M779.5,590.21V571.54l1.1-.23a17.26,17.26,0,0,0,9.73-6,21.41,21.41,0,0,0-3.07-29.77,9.28,9.28,0,0,1,11.5-14.58,39.33,39.33,0,0,1,14.7,28.54h0a39.43,39.43,0,0,1-8.8,27.62A35.6,35.6,0,0,1,781,590Zm2.78-16.45v13.31a32.87,32.87,0,0,0,20.23-11.75,36.64,36.64,0,0,0,8.18-25.67h0A36.59,36.59,0,0,0,797,523.11a6.5,6.5,0,0,0-8,10.22,24.17,24.17,0,0,1,3.49,33.72A20,20,0,0,1,782.28,573.76Z" fill="#212121"/><path d="M767.91,589.77a9.46,9.46,0,0,1,6.36-8.1,9.34,9.34,0,0,1,3.93-.47,9.46,9.46,0,0,1,8.57,10.29c-.23,2.55-.38,5-.5,7.5a42.68,42.68,0,0,0-19,2.06Q767.39,595.55,767.91,589.77Z" fill="#fff"/><path d="M765.76,603l.07-2c.12-3.79.35-7.61.69-11.35h0a10.86,10.86,0,0,1,19.16-6,10.78,10.78,0,0,1,2.48,7.93c-.21,2.27-.37,4.64-.5,7.44l-.07,1.5-1.49-.18a41.13,41.13,0,0,0-18.44,2Zm3.53-13.11c-.27,3-.48,6.14-.61,9.22A43.69,43.69,0,0,1,785,597.45c.12-2.22.26-4.19.43-6.09a8.08,8.08,0,1,0-16.1-1.46Z" fill="#212121"/><path d="M769.56,634.82a149.76,149.76,0,0,1-2.07-16.8c4-2.13,11-4.68,18.81-3q.41,7.18,1.44,13.79A41.93,41.93,0,0,0,769.56,634.82Z" fill="#fff"/><path d="M768.55,637.05l-.36-2a152.33,152.33,0,0,1-2.09-16.95l-.06-.9.8-.42c3.71-1.95,11.2-4.95,19.74-3.18l1,.22.06,1.07a136.36,136.36,0,0,0,1.43,13.64l.23,1.47-1.49.13A40.45,40.45,0,0,0,770.28,636Zm.39-18.21c.34,4.61.89,9.23,1.65,13.78a43,43,0,0,1,15.56-5.1c-.54-3.67-.93-7.49-1.17-11.38A26.85,26.85,0,0,0,768.94,618.84Z" fill="#212121"/><path d="M824.36,719.49A145.87,145.87,0,0,1,809.94,708a27.75,27.75,0,0,1,12.13-14,122.13,122.13,0,0,0,11.41,9.37A43,43,0,0,0,824.36,719.49Z" fill="#fff"/><path d="M825.12,721.72l-1.56-1.09A149.37,149.37,0,0,1,809,709l-.72-.66.37-.9a29.09,29.09,0,0,1,12.76-14.72l.88-.48.73.68a121.78,121.78,0,0,0,11.27,9.26l1.26.91-1,1.15a41.57,41.57,0,0,0-8.81,15.68ZM811.61,707.6a146.92,146.92,0,0,0,12,9.67,44.13,44.13,0,0,1,7.79-13.75,122.63,122.63,0,0,1-9.55-7.88A26.24,26.24,0,0,0,811.61,707.6Z" fill="#212121"/><path d="M852.09,735.17c-4.29-1.91-8.92-4.2-13.72-6.88A28.26,28.26,0,0,1,847.14,712c4.06,2.25,8,4.16,11.63,5.78A44.24,44.24,0,0,0,852.09,735.17Z" fill="#fff"/><path d="M853.18,737.18l-1.65-.74c-4.68-2.09-9.34-4.42-13.84-6.94l-.87-.48.18-1A29.58,29.58,0,0,1,846.22,711l.74-.64.86.47c3.69,2.05,7.56,4,11.51,5.73l1.51.66-.91,1.38a42.33,42.33,0,0,0-6.46,16.84Zm-13.25-9.62c3.63,2,7.36,3.89,11.11,5.61a45.27,45.27,0,0,1,5.69-14.78c-3.2-1.46-6.35-3-9.38-4.69A26.65,26.65,0,0,0,839.93,727.56Z" fill="#212121"/><path d="M889.15,736.77A9.48,9.48,0,0,1,878,744.15a109.39,109.39,0,0,1-10.71-3.07c.27-4.55,1.64-11.68,7-17.51,4.18,1.29,6.94,1.89,7.57,2A9.48,9.48,0,0,1,889.15,736.77Z" fill="#fff"/><path d="M879.87,745.73a10.65,10.65,0,0,1-2.17-.22,109.22,109.22,0,0,1-10.88-3.11l-1-.34.06-1.06a29.59,29.59,0,0,1,7.32-18.36l.59-.65.84.25c4.25,1.31,7,1.89,7.44,2A10.88,10.88,0,0,1,890.51,737l-1.36-.27,1.36.27A10.88,10.88,0,0,1,879.87,745.73Zm-11.14-5.63c5.93,1.93,9.49,2.68,9.52,2.69a8.11,8.11,0,0,0,9.54-6.3h0A8.1,8.1,0,0,0,881.5,727c-.48-.1-3-.63-6.83-1.79A26.68,26.68,0,0,0,868.73,740.1Z" fill="#212121"/><path d="M773.56,651.24a27.77,27.77,0,0,1,17.71-6.84,110,110,0,0,0,5,13.6,42.82,42.82,0,0,0-15.8,10.77A126.42,126.42,0,0,1,773.56,651.24Z" fill="#fff"/><path d="M780.11,671.2l-.89-1.82a130.21,130.21,0,0,1-7-17.72l-.28-.89.71-.59A29.09,29.09,0,0,1,791.24,643h1.07l.29,1a111.72,111.72,0,0,0,4.95,13.43l.59,1.34-1.36.52a41.06,41.06,0,0,0-15.29,10.42Zm-4.94-19.48a126.23,126.23,0,0,0,5.71,14.65,43.61,43.61,0,0,1,13.55-9.12,114.73,114.73,0,0,1-4.19-11.44A26.33,26.33,0,0,0,775.17,651.72Z" fill="#212121"/><path d="M788.83,683.44c2.6-3.78,7.45-9.13,15-11.35a109.88,109.88,0,0,0,7.25,10.08A42.31,42.31,0,0,0,798.34,696,126.51,126.51,0,0,1,788.83,683.44Z" fill="#fff"/><path d="M798.55,698.4l-1.27-1.49a130.63,130.63,0,0,1-9.61-12.7l-.51-.78.53-.78a29.49,29.49,0,0,1,15.74-11.89l1-.3.57.89a108,108,0,0,0,7.15,9.95l1,1.17-1.25.85a40.76,40.76,0,0,0-12.31,13.39Zm-8-14.94c2.36,3.5,4.92,6.91,7.63,10.18a43.37,43.37,0,0,1,10.92-11.75c-2.06-2.62-4-5.35-5.84-8.15A26.77,26.77,0,0,0,790.52,683.46Z" fill="#212121"/><path d="M867.26,741.08c-4.18-1.39-9.36-3.32-15.17-5.91a44.24,44.24,0,0,1,6.68-17.39,139.94,139.94,0,0,0,15.44,5.79C868.9,729.4,867.53,736.53,867.26,741.08Z" fill="#fff"/><path d="M868.54,743l-1.72-.57c-5.07-1.69-10.22-3.7-15.29-6l-1-.44.17-1A45.23,45.23,0,0,1,857.61,717l.65-1,1.07.48a140.17,140.17,0,0,0,15.29,5.73l2.1.65-1.48,1.62a26.89,26.89,0,0,0-6.59,16.65Zm-14.89-8.63c4.11,1.8,8.26,3.43,12.37,4.85a29.66,29.66,0,0,1,5.79-14.92c-4.14-1.35-8.34-2.94-12.51-4.74A42.23,42.23,0,0,0,853.65,734.34Z" fill="#212121"/><path d="M838.37,728.29a160.05,160.05,0,0,1-14-8.8,43,43,0,0,1,9.12-16.19,135.61,135.61,0,0,0,13.66,8.7A28.26,28.26,0,0,0,838.37,728.29Z" fill="#fff"/><path d="M839.39,730.45l-1.7-1a162.71,162.71,0,0,1-14.13-8.87l-.83-.59.3-1a44.37,44.37,0,0,1,9.42-16.72l.83-.92,1,.73a132.87,132.87,0,0,0,13.53,8.61l1.72,1-1.48,1.3a26.75,26.75,0,0,0-8.32,15.5ZM826,718.94c3.65,2.53,7.47,4.94,11.4,7.2a29.38,29.38,0,0,1,7.42-13.86c-3.86-2.21-7.59-4.6-11.13-7.12A41.52,41.52,0,0,0,826,718.94Z" fill="#212121"/><path d="M809.94,708a134.39,134.39,0,0,1-11.6-12,42.31,42.31,0,0,1,12.73-13.84,113.89,113.89,0,0,0,11,11.76A27.75,27.75,0,0,0,809.94,708Z" fill="#fff"/><path d="M810.47,710.32,809,709a136.37,136.37,0,0,1-11.72-12.08l-.64-.75.49-.85A43.67,43.67,0,0,1,810.29,681l1.06-.72.8,1A112.14,112.14,0,0,0,823,692.91l1.42,1.32-1.7.92a26.35,26.35,0,0,0-11.52,13.34ZM800,695.86a133.44,133.44,0,0,0,9.42,9.76,29,29,0,0,1,10.31-11.94,114.28,114.28,0,0,1-8.95-9.63A40.74,40.74,0,0,0,800,695.86Z" fill="#212121"/><path d="M788.83,683.44a124.11,124.11,0,0,1-8.35-14.67A42.82,42.82,0,0,1,796.28,658a108,108,0,0,0,7.54,14.09C796.28,674.31,791.43,679.66,788.83,683.44Z" fill="#fff"/><path d="M788.81,685.93l-1.13-1.72a127.94,127.94,0,0,1-8.46-14.83l-.41-.86.65-.7a43.7,43.7,0,0,1,16.32-11.11l1.23-.48.54,1.21A107.1,107.1,0,0,0,805,671.35l1,1.55-1.77.53A26.77,26.77,0,0,0,790,684.23ZM782.15,669a123.56,123.56,0,0,0,6.75,12,29.29,29.29,0,0,1,12.81-9.67,110.59,110.59,0,0,1-6.15-11.54A41.07,41.07,0,0,0,782.15,669Z" fill="#212121"/><path d="M773.56,651.24a136.86,136.86,0,0,1-4-16.42,41.93,41.93,0,0,1,18.18-6.06,121.55,121.55,0,0,0,3.53,15.64A27.77,27.77,0,0,0,773.56,651.24Z" fill="#fff"/><path d="M772.85,653.65l-.62-2a139.79,139.79,0,0,1-4-16.6l-.17-.94.82-.49a43.15,43.15,0,0,1,18.78-6.26l1.3-.11.2,1.28A119.86,119.86,0,0,0,792.6,644l.53,1.79h-1.89a26.3,26.3,0,0,0-16.79,6.52Zm-1.75-18.13a136.68,136.68,0,0,0,3.2,13.37,28.82,28.82,0,0,1,15.14-5.82,123.86,123.86,0,0,1-2.86-12.8A40.56,40.56,0,0,0,771.1,635.52Z" fill="#212121"/><path d="M767.49,618a169.36,169.36,0,0,1-.27-17,42.68,42.68,0,0,1,19-2.06,157.4,157.4,0,0,0,0,16C778.46,613.34,771.53,615.89,767.49,618Z" fill="#fff"/><path d="M766.24,620.25l-.14-2.14c-.37-5.51-.46-11.27-.27-17.11l0-1,.91-.31a43.85,43.85,0,0,1,19.67-2.12l1.28.16-.06,1.28a154.92,154.92,0,0,0,0,15.85l.1,1.8-1.77-.36c-7.31-1.53-13.76.74-17.89,2.91Zm2.34-18.19c-.13,4.69-.07,9.32.17,13.8a29.94,29.94,0,0,1,16.08-2.55c-.18-4.23-.18-8.61,0-13.08A41.16,41.16,0,0,0,768.58,602.06Z" fill="#212121"/><circle cx="776.71" cy="584.16" r="18.94" fill="#3aab97"/><circle cx="776.71" cy="584.16" r="7.89" fill="#f9d285"/><path d="M1190.13,966.72a7.93,7.93,0,0,0,3.3-.72,37.82,37.82,0,0,0,20.46-24.46c5.45-19.74-5.33-40-24-45.17a34,34,0,0,0-27.11,4,38.57,38.57,0,0,0-12.24,53.09,7.89,7.89,0,1,0,13.27-8.55,22.79,22.79,0,0,1,7.22-31.08,18.39,18.39,0,0,1,14.66-2.24c10.32,2.84,16.16,14.4,13,25.75a22,22,0,0,1-11.85,14.32,7.89,7.89,0,0,0,3.31,15.06Z" fill="#fff"/><path d="M1190.13,968.11a9.28,9.28,0,0,1-3.89-17.71A20.65,20.65,0,0,0,1197.33,937c2.93-10.61-2.47-21.4-12-24.05a17.05,17.05,0,0,0-13.56,2.09,21.41,21.41,0,0,0-6.78,29.15,9.28,9.28,0,1,1-15.61,10.05,40,40,0,0,1,12.68-55,35.27,35.27,0,0,1,50.15,13.65A39.9,39.9,0,0,1,1194,967.26,9.17,9.17,0,0,1,1190.13,968.11Zm-9.22-58.56a19,19,0,0,1,5.11.7c11.06,3,17.33,15.37,14,27.46a23.41,23.41,0,0,1-12.61,15.21,6.5,6.5,0,0,0,2.73,12.41,6.37,6.37,0,0,0,2.71-.6,37.11,37.11,0,0,0,16.86-50.59,32.5,32.5,0,0,0-46.24-12.59,37.19,37.19,0,0,0-11.79,51.16,6.5,6.5,0,0,0,10.94-7,24.18,24.18,0,0,1,7.66-33A20.3,20.3,0,0,1,1180.91,909.55Z" fill="#212121"/><path d="M1200.89,899.14a9.48,9.48,0,0,1-8.65,5.59,9.33,9.33,0,0,1-3.87-.83,9.47,9.47,0,0,1-4.77-12.52c1.05-2.34,2-4.64,2.92-6.93a42.59,42.59,0,0,0,18.68,4.25Q1203.25,893.85,1200.89,899.14Z" fill="#fff"/><path d="M1192.24,906.12a10.87,10.87,0,0,1-9.91-15.31c.94-2.09,1.86-4.28,2.89-6.87l.56-1.4,1.35.66a41,41,0,0,0,18.08,4.11h2l-.72,1.88c-1.34,3.53-2.8,7.07-4.34,10.51h0A10.88,10.88,0,0,1,1192.24,906.12Zm-5-19.79c-.83,2.06-1.6,3.87-2.39,5.62a8.08,8.08,0,0,0,14.75,6.62h0c1.25-2.79,2.45-5.65,3.58-8.53A43.5,43.5,0,0,1,1187.26,886.33Z" fill="#212121"/><path d="M1214,856a152.88,152.88,0,0,1-3.5,16.56c-4.52.7-11.9.86-18.79-3.24a134.32,134.32,0,0,0,3.12-13.5A41.85,41.85,0,0,0,1214,856Z" fill="#fff"/><path d="M1205.56,874.32a28.46,28.46,0,0,1-14.59-3.8l-.92-.55.3-1a136.81,136.81,0,0,0,3.08-13.37l.26-1.47,1.45.36a40.36,40.36,0,0,0,18.53.17l2-.42-.31,2a153.6,153.6,0,0,1-3.53,16.71l-.24.87-.89.14A33.4,33.4,0,0,1,1205.56,874.32Zm-12.24-5.67a27.32,27.32,0,0,0,16,2.66c1.18-4.46,2.16-9,2.92-13.56a43.26,43.26,0,0,1-16.37-.24C1195.22,861.16,1194.35,864.89,1193.32,868.65Z" fill="#212121"/><path d="M1189.67,758.11a146.47,146.47,0,0,1,9.89,15.6,27.83,27.83,0,0,1-16,9.32,125.62,125.62,0,0,0-7.74-12.57A43.09,43.09,0,0,0,1189.67,758.11Z" fill="#fff"/><path d="M1182.77,784.56l-.47-.88a123.14,123.14,0,0,0-7.65-12.42l-.89-1.27,1.36-.74a41.74,41.74,0,0,0,13.43-12l1.13-1.53,1.12,1.54a150.26,150.26,0,0,1,10,15.74l.47.85-.65.73a29.08,29.08,0,0,1-16.84,9.78Zm-5-13.64c2.35,3.43,4.52,7,6.48,10.55a26.24,26.24,0,0,0,13.59-8,142.73,142.73,0,0,0-8.23-13.06A44.27,44.27,0,0,1,1177.79,770.92Z" fill="#212121"/><path d="M1168.54,734.27c3.44,3.21,7.08,6.87,10.74,11a28.21,28.21,0,0,1-13.59,12.55c-3.1-3.45-6.18-6.53-9.11-9.24A44.22,44.22,0,0,0,1168.54,734.27Z" fill="#fff"/><path d="M1165.31,759.45l-.65-.73c-2.82-3.13-5.86-6.21-9-9.15l-1.21-1.13,1.31-1a42.46,42.46,0,0,0,11.59-13.83l.85-1.59,1.32,1.23c3.74,3.49,7.39,7.22,10.83,11.06l.66.74-.48.87a29.57,29.57,0,0,1-14.28,13.16Zm-6.61-10.82c2.56,2.43,5,4.94,7.35,7.49a26.66,26.66,0,0,0,11.52-10.7c-2.78-3.08-5.7-6.07-8.68-8.92A45.22,45.22,0,0,1,1158.7,748.63Z" fill="#212121"/><path d="M1134,720.71a9.48,9.48,0,0,1,13-3.35c.19.12,3.74,2.27,9.13,6.39-1.73,4.21-5.34,10.51-12.27,14.29-3.53-2.57-5.94-4-6.5-4.37A9.47,9.47,0,0,1,1134,720.71Z" fill="#fff"/><path d="M1143.75,739.69l-.72-.52c-3.59-2.61-6-4-6.39-4.3a10.87,10.87,0,0,1-3.82-14.86h0a10.87,10.87,0,0,1,14.87-3.84,104.69,104.69,0,0,1,9.27,6.48l.85.64-.4,1a29.6,29.6,0,0,1-12.89,15Zm-8.54-18.27a8.1,8.1,0,0,0,2.85,11.06c.43.25,2.6,1.56,5.88,3.91a26.65,26.65,0,0,0,10.47-12.19c-5-3.73-8.09-5.62-8.13-5.64a8.1,8.1,0,0,0-11.07,2.86Z" fill="#212121"/><path d="M1215.53,839.17a27.78,27.78,0,0,1-19,.71,111.7,111.7,0,0,0-.31-14.49,42.65,42.65,0,0,0,18.44-5A127.26,127.26,0,0,1,1215.53,839.17Z" fill="#fff"/><path d="M1204.78,842.64a26.45,26.45,0,0,1-8.68-1.45l-1-.34.05-1a111.85,111.85,0,0,0-.32-14.31l-.12-1.46,1.46,0a41.14,41.14,0,0,0,17.84-4.88l1.79-1,.24,2a129.81,129.81,0,0,1,.86,19l0,.92-.86.34A31.81,31.81,0,0,1,1204.78,842.64Zm-6.8-3.76a26.31,26.31,0,0,0,16.18-.69,126.53,126.53,0,0,0-.64-15.71,43.44,43.44,0,0,1-15.78,4.22A112.33,112.33,0,0,1,1198,838.88Z" fill="#212121"/><path d="M1211.55,803.75c-3.69,2.73-10,6.21-17.87,5.86a109.74,109.74,0,0,0-3.57-11.89,42.25,42.25,0,0,0,16.54-8.94A128,128,0,0,1,1211.55,803.75Z" fill="#fff"/><path d="M1194.8,811l-1.18,0-1,0-.25-1a107.92,107.92,0,0,0-3.53-11.74l-.52-1.42,1.46-.4a40.8,40.8,0,0,0,16-8.65l1.48-1.28.72,1.82a129.11,129.11,0,0,1,5,15.13l.24.91-.75.56A29.84,29.84,0,0,1,1194.8,811Zm0-2.78h0a26.72,26.72,0,0,0,15.17-5.07,127.12,127.12,0,0,0-3.91-12.1,43.06,43.06,0,0,1-14.14,7.56C1193,801.79,1194,805,1194.78,808.25Z" fill="#212121"/><path d="M1156.12,723.75c3.5,2.68,7.78,6.18,12.42,10.52a44.22,44.22,0,0,1-12,14.28A140.61,140.61,0,0,0,1143.85,738C1150.78,734.26,1154.39,728,1156.12,723.75Z" fill="#fff"/><path d="M1156.49,750.36l-.86-.79a136,136,0,0,0-12.6-10.4l-1.77-1.29,1.92-1a26.82,26.82,0,0,0,11.65-13.61l.69-1.68,1.44,1.11c4.26,3.25,8.48,6.82,12.53,10.6l.78.73-.5.94a45.21,45.21,0,0,1-12.35,14.73Zm-10.14-12.19c3.48,2.62,6.94,5.48,10.3,8.55a42.46,42.46,0,0,0,10.15-12.17c-3.29-3-6.69-5.92-10.13-8.61A29.61,29.61,0,0,1,1146.35,738.17Z" fill="#212121"/><path d="M1179.28,745.24a158.87,158.87,0,0,1,10.39,12.87,43.09,43.09,0,0,1-13.88,12.35,135.91,135.91,0,0,0-10.1-12.67A28.21,28.21,0,0,0,1179.28,745.24Z" fill="#fff"/><path d="M1175.36,772.28l-.71-1a134.85,134.85,0,0,0-10-12.54l-1.32-1.46,1.82-.75a26.79,26.79,0,0,0,12.91-12l1-1.7,1.3,1.45a163.59,163.59,0,0,1,10.48,13l.59.82-.6.82a44.33,44.33,0,0,1-14.33,12.74Zm-7.38-14c2.93,3.35,5.68,6.82,8.21,10.35a41.52,41.52,0,0,0,11.75-10.53c-2.63-3.58-5.46-7.1-8.44-10.52A29.45,29.45,0,0,1,1168,758.28Z" fill="#212121"/><path d="M1199.56,773.71a135.82,135.82,0,0,1,7.09,15.07,42.25,42.25,0,0,1-16.54,8.94,113.83,113.83,0,0,0-6.58-14.69A27.83,27.83,0,0,0,1199.56,773.71Z" fill="#fff"/><path d="M1189.24,799.4l-.44-1.2a113.06,113.06,0,0,0-6.5-14.52l-.91-1.71,1.91-.31a26.39,26.39,0,0,0,15.22-8.87l1.31-1.49,1,1.74a136.26,136.26,0,0,1,7.16,15.23l.36.92-.74.64a43.47,43.47,0,0,1-17.09,9.23ZM1185.62,784a116.55,116.55,0,0,1,5.34,12,40.89,40.89,0,0,0,14-7.66c-1.7-4.18-3.62-8.3-5.73-12.3A29,29,0,0,1,1185.62,784Z" fill="#212121"/><path d="M1211.55,803.75a126.21,126.21,0,0,1,3.13,16.59,42.65,42.65,0,0,1-18.44,5,108.28,108.28,0,0,0-2.56-15.78C1201.54,810,1207.86,806.48,1211.55,803.75Z" fill="#fff"/><path d="M1195,826.83l-.12-1.32a107.29,107.29,0,0,0-2.52-15.57l-.43-1.8,1.85.08a26.7,26.7,0,0,0,17-5.58l1.66-1.23.51,2a126.54,126.54,0,0,1,3.17,16.78l.11,1-.84.44a43.8,43.8,0,0,1-19,5.21Zm.46-15.81a111.24,111.24,0,0,1,2.07,12.91,40.85,40.85,0,0,0,15.68-4.38,122.43,122.43,0,0,0-2.49-13.51A29.28,29.28,0,0,1,1195.43,811Z" fill="#212121"/><path d="M1215.53,839.17A137,137,0,0,1,1214,856a41.85,41.85,0,0,1-19.17-.18,121.45,121.45,0,0,0,1.75-15.94A27.78,27.78,0,0,0,1215.53,839.17Z" fill="#fff"/><path d="M1204.62,858.42a41.76,41.76,0,0,1-10.16-1.25l-1.25-.31.22-1.28a122.11,122.11,0,0,0,1.74-15.76l.07-1.86,1.77.6a26.31,26.31,0,0,0,18-.69l2-.75-.06,2.09a138.18,138.18,0,0,1-1.58,17l-.14.95-.94.2A45,45,0,0,1,1204.62,858.42Zm-8.23-3.65a40.7,40.7,0,0,0,16.35.07,136.42,136.42,0,0,0,1.32-13.69,28.81,28.81,0,0,1-16.21.58A124.44,124.44,0,0,1,1196.39,854.77Z" fill="#212121"/><path d="M1210.47,872.56c-1.43,5.25-3.17,10.64-5.27,16.14a42.59,42.59,0,0,1-18.68-4.25,156.62,156.62,0,0,0,5.16-15.13C1198.57,873.42,1206,873.26,1210.47,872.56Z" fill="#fff"/><path d="M1206.16,890.09h-1a43.82,43.82,0,0,1-19.29-4.39l-1.16-.57.47-1.19a157.53,157.53,0,0,0,5.13-15l.49-1.74,1.55.92c6.76,4,14.09,3.64,17.86,3.06l2.12-.33-.56,2.06c-1.44,5.33-3.23,10.81-5.31,16.28Zm-17.87-6.34a41.15,41.15,0,0,0,16,3.55c1.64-4.4,3.09-8.8,4.32-13.11a30,30,0,0,1-16-2.81C1191.33,875.43,1189.91,879.58,1188.29,883.75Z" fill="#212121"/><circle cx="1190.73" cy="901.58" r="18.94" fill="#3aab97"/><circle cx="1190.73" cy="901.58" r="7.89" fill="#f9d285"/><path d="M1078.08,784.19a66.66,66.66,0,1,0-133.31,0Z" fill="#f9d285"/><path d="M1009.21,773s-8-10.44-9.92-13.32.58-3.45,1.68-2.77a74.55,74.55,0,0,1,13.55,11.87" fill="#212121"/><circle cx="1011.42" cy="771.64" r="5.23" fill="#212121"/><path d="M983.76,737.14a1.41,1.41,0,0,1-1.15-.61L977,728.24a1.39,1.39,0,0,1,2.3-1.57l5.63,8.29a1.39,1.39,0,0,1-1.15,2.18Z" fill="#212121"/><path d="M973.86,747.6a1.41,1.41,0,0,1-.86-.3L963.64,740a1.39,1.39,0,1,1,1.71-2.19l9.36,7.31a1.39,1.39,0,0,1,.25,1.95A1.42,1.42,0,0,1,973.86,747.6Z" fill="#212121"/><path d="M965.25,757.32a1.52,1.52,0,0,1-.42-.06L954.24,754a1.39,1.39,0,1,1,.82-2.66l10.6,3.27a1.39,1.39,0,0,1-.41,2.72Z" fill="#212121"/><path d="M1039.89,737.14a1.39,1.39,0,0,1-1.15-2.18l5.63-8.29a1.39,1.39,0,0,1,2.3,1.57l-5.63,8.29A1.4,1.4,0,0,1,1039.89,737.14Z" fill="#212121"/><path d="M1049.79,747.6a1.39,1.39,0,0,1-.85-2.49l9.36-7.31A1.39,1.39,0,0,1,1060,740l-9.36,7.31A1.41,1.41,0,0,1,1049.79,747.6Z" fill="#212121"/><path d="M1058.41,757.32a1.39,1.39,0,0,1-.41-2.72l10.6-3.27a1.39,1.39,0,1,1,.82,2.66l-10.6,3.27A1.51,1.51,0,0,1,1058.41,757.32Z" fill="#212121"/><rect x="944.77" y="784.19" width="133.31" height="5.5" fill="#5b6def"/><circle cx="1030.81" cy="826.15" r="6.22" fill="#5b6def"/><circle cx="1049.75" cy="826.15" r="6.22" fill="#f8bf3b"/><circle cx="1068.7" cy="826.15" r="6.22" fill="#f7e0df"/><rect x="946.26" y="828.96" width="19.95" height="19.95" transform="translate(1912.47 1677.87) rotate(-180)" fill="#f7e0df"/><rect x="968.33" y="828.96" width="19.95" height="19.95" transform="translate(1956.61 1677.87) rotate(-180)" fill="#5b6def"/><rect x="990.39" y="828.96" width="19.95" height="19.95" transform="translate(2000.74 1677.87) rotate(-180)" fill="#212121"/><rect x="946.23" y="807.15" width="19.95" height="19.95" transform="translate(1912.4 1634.24) rotate(-180)" fill="#3aab97"/><rect x="968.33" y="807.15" width="19.95" height="19.95" transform="translate(1956.61 1634.24) rotate(-180)" fill="#f9d285"/><rect x="990.39" y="807.15" width="19.95" height="19.95" transform="translate(2000.74 1634.24) rotate(-180)" fill="#325187"/><rect x="945.21" y="855.95" width="65.79" height="59.25" rx="6.31" transform="translate(1956.2 1771.15) rotate(-180)" fill="#5b6def"/><rect x="1021.23" y="855.95" width="56.32" height="59.25" rx="6.31" transform="translate(2098.78 1771.15) rotate(-180)" fill="#5b6def"/><circle cx="922.41" cy="867.94" r="2.69" fill="#3e3e3f"/><circle cx="922.41" cy="888.29" r="2.69" fill="#3e3e3f"/><circle cx="922.41" cy="827.25" r="2.69" fill="#3e3e3f"/><circle cx="922.41" cy="847.59" r="2.69" fill="#3e3e3f"/><circle cx="922.41" cy="766.21" r="2.69" fill="#3e3e3f"/><circle cx="922.41" cy="786.56" r="2.69" fill="#3e3e3f"/><circle cx="922.41" cy="806.9" r="2.69" fill="#3e3e3f"/><circle cx="922.41" cy="725.52" r="2.69" fill="#3e3e3f"/><circle cx="922.41" cy="745.87" r="2.69" fill="#3e3e3f"/><circle cx="917" cy="904.78" r="2.69" fill="#3e3e3f"/><circle cx="875.63" cy="904.78" r="2.69" fill="#3e3e3f"/><circle cx="896.32" cy="904.78" r="2.69" fill="#3e3e3f"/><circle cx="875.63" cy="709.03" r="2.69" fill="#3e3e3f"/><circle cx="896.32" cy="709.03" r="2.69" fill="#3e3e3f"/><circle cx="917" cy="709.03" r="2.69" fill="#3e3e3f"/><rect x="1048.6" y="518.1" width="18.34" height="31.32" rx="9.17" transform="matrix(0.99, 0.17, -0.17, 0.99, 105.94, -171.79)" fill="#212121"/><path d="M1083.55,513.16a1.5,1.5,0,0,1-1.44-1.09c-4.38-15.37-17.58-14.18-18.14-14.12a1.52,1.52,0,0,1-1.65-1.33,1.49,1.49,0,0,1,1.33-1.65c.16,0,16.26-1.57,21.35,16.28a1.51,1.51,0,0,1-1,1.85A1.4,1.4,0,0,1,1083.55,513.16Z" fill="#212121"/><rect x="1005.42" y="510.66" width="18.34" height="31.32" rx="9.17" transform="translate(104.05 -164.57) rotate(9.77)" fill="#212121"/><path d="M998.59,499.87a1.49,1.49,0,0,1-1.31-2.22c.07-.15,8.08-14.2,25.6-8.08a1.5,1.5,0,1,1-1,2.83c-15.16-5.3-21.72,6.2-22,6.7A1.49,1.49,0,0,1,998.59,499.87Z" fill="#212121"/><path d="M1035.32,572.23c-14.65,0-25.53-8.43-25.7-8.56a1.52,1.52,0,0,1-.24-2.11,1.5,1.5,0,0,1,2.11-.24c.92.73,22.93,17.68,46.07,0a1.5,1.5,0,1,1,1.83,2.38C1051,570.09,1042.68,572.23,1035.32,572.23Z" fill="#212121"/><path d="M1125.76,242s-33,31.21-62,33.16c0,0-27.07-38.43,14.74-67.48,52-36.14,97.4,36.64,70.69,64.67C1149.24,272.36,1132.6,265.47,1125.76,242Z" fill="#212121"/><ellipse cx="1108.41" cy="191.34" rx="29.76" ry="28.24" fill="#212121"/><path d="M1133.41,206.64s-4-6.66-25-6.79c-9,0-25.94,5.32-25.94,5.32l-2.52-5.58s14.09-6,28.46-6.25c19.33-.32,28.29,6.74,28.29,6.74Z" fill="#f9d285"/><path d="M1108.09,338.36c-36.81,0-42.87-37.84-43.7-45.25-6.69-1.16-12-7-13.87-12.55-1.42-4.15-.91-7.75,1.42-9.88a6.36,6.36,0,0,1,4.92-1.73c5.06.37,9.87,6.21,10.07,6.46a1.5,1.5,0,0,1-2.33,1.89c-1.15-1.41-4.84-5.13-8-5.36a3.42,3.42,0,0,0-2.68,1c-1.38,1.26-1.6,3.77-.6,6.69,1.69,4.94,6.54,10.2,12.53,10.69a1.49,1.49,0,0,1,1.37,1.4,64.15,64.15,0,0,0,6.21,22.11c7.2,14.31,18.84,21.57,34.62,21.57h.23c30.37-.14,39.36-47.38,39.44-47.86a1.49,1.49,0,0,1,1.36-1.22c6-.49,10.83-5.75,12.52-10.69,1-2.92.78-5.43-.6-6.69a3.39,3.39,0,0,0-2.67-1c-3.13.23-6.81,3.95-8,5.36a1.5,1.5,0,1,1-2.33-1.89c.21-.25,5-6.09,10.07-6.46a6.38,6.38,0,0,1,4.93,1.73c2.32,2.13,2.83,5.73,1.41,9.88-1.9,5.56-7.24,11.46-14,12.57a102.54,102.54,0,0,1-8.39,23.81c-8.42,16.57-20.1,25.36-33.78,25.42Z" fill="#212121"/><path d="M1088.68,266.39a1.54,1.54,0,0,1-.85-.26,1.51,1.51,0,0,1-.39-2.09c3-4.45,8.87-3.05,11.52-1.68a1.5,1.5,0,0,1-1.37,2.67c-.22-.11-5.37-2.67-7.67.7A1.52,1.52,0,0,1,1088.68,266.39Z" fill="#212121"/><path d="M1128,266.68a1.5,1.5,0,0,1-1.42-1c-1.3-3.91-7.13-2.8-7.19-2.78a1.5,1.5,0,0,1-.59-2.95c2.93-.58,8.92-.34,10.63,4.78a1.52,1.52,0,0,1-1,1.9A1.59,1.59,0,0,1,1128,266.68Z" fill="#212121"/><path d="M1108,298.59a5.57,5.57,0,0,1-2.51-.58,1.5,1.5,0,0,1,1.37-2.67,3.14,3.14,0,0,0,3.47-.73c1-1.26-.13-3.16-.93-4.18-4.89-6.29-3.44-17.58-3.38-18.06a1.5,1.5,0,0,1,3,.4c0,.1-1.34,10.53,2.77,15.82,3.25,4.18,1.69,6.94.87,7.93A6.09,6.09,0,0,1,1108,298.59Z" fill="#212121"/><ellipse cx="1121.6" cy="276.43" rx="3.53" ry="6.13" fill="#212121"/><ellipse cx="1092.58" cy="276.43" rx="3.53" ry="6.13" fill="#212121"/><path d="M1108.75,316.71a17.86,17.86,0,0,1-11.47-4.36,1.5,1.5,0,0,1,2-2.24h0c.41.36,10,8.67,20-1.25a1.5,1.5,0,1,1,2.12,2.13C1117.14,315.23,1112.71,316.71,1108.75,316.71Z" fill="#212121"/><path d="M1109.31,370.86c-22.34,0-30.39-16.45-30.72-17.15a1.5,1.5,0,0,1,.12-1.49,37.7,37.7,0,0,0,5.33-21.77,1.5,1.5,0,0,1,3-.18,40.79,40.79,0,0,1-5.36,22.87c1.74,3.06,9.54,14.72,27.63,14.72s25.63-14,27.15-17.25c-5.61-8.86-6.29-24.1-6.31-24.77a1.5,1.5,0,1,1,3-.12c0,.16.71,15.88,6.25,23.89a1.47,1.47,0,0,1,.17,1.39C1139.49,351.2,1131.74,370.86,1109.31,370.86Z" fill="#212121"/><path d="M1253.38,474.2a3.7,3.7,0,0,1-.9-.11c-13.16-3.29-57.13-34.68-59-36a1.5,1.5,0,0,1,1.74-2.44c.45.32,45.37,32.39,58,35.54,1.12.28,7.84-1.24,28.19-59.65,10.78-30.93,20.09-62.68,20.18-63a37.41,37.41,0,0,1,5.68-11.25,29.66,29.66,0,0,0,4.24-8.05c.57-1.68,1.15-3.4,1.73-5.13,2.36-7,4.79-14.23,6.79-19a10.69,10.69,0,0,0,1.1-4,5,5,0,0,0-1.64,1.15,36.51,36.51,0,0,0-6.47,9,1.5,1.5,0,0,1-2.77-1.14c.06-.18,1.61-4.46,4.45-10.4,1-2.12,4-8.26,3.14-10.07-2.47,1.73-9.33,12.78-11.4,17.59-.27.62-.89,2.06-2.3,1.53-1.58-.59-1.86-.7,5.38-23.06a8,8,0,0,0,.55-3.92c-.58.3-2,1.5-3.82,5-4.26,8.19-9.53,22.57-9.85,23.46l0,.05a1.5,1.5,0,0,1-2.82-1v0a71.44,71.44,0,0,0,3.36-19.47,17.27,17.27,0,0,0-.16-3.94,18.71,18.71,0,0,0-2.16,3.79c-1.7,3.71-3.13,9.58-4.39,14.76-2.24,9.22-3.33,13.31-5.79,13.79a1.42,1.42,0,0,1-.71,0c-2-.56-2.3-3-2.75-6.31a33.28,33.28,0,0,0-2.77-10.66q-.2-.41-.36-.69a50.41,50.41,0,0,0,.22,11.36,64.43,64.43,0,0,1,.08,8.85c-.27,7.67-.58,16.37,4.06,25.07a1.51,1.51,0,0,1,0,1.34l-39.1,83.94a1.47,1.47,0,0,1-1,.82,1.51,1.51,0,0,1-1.28-.28l-29.91-23.62a1.5,1.5,0,1,1,1.86-2.35l28.42,22.44,38-81.54c-4.66-9.2-4.33-18.46-4.07-25.93a61,61,0,0,0-.06-8.4c-.74-6.65-1-14.74,1.85-15.58,2-.61,3.39,2.08,4,3.23a36.45,36.45,0,0,1,3.05,11.6c.12.89.26,1.91.41,2.7a88,88,0,0,0,3-10.45c1.29-5.32,2.75-11.34,4.58-15.32,2.13-4.63,3.83-6.41,5.71-6s2.53,2.68,2.33,7.49c-.06,1.36-.15,2.67-.26,3.92,1.28-3,2.64-5.95,3.92-8.41,2.63-5.07,5.44-7.43,7.71-6.48,1,.4,3,1.94,1.08,7.73-.76,2.33-1.79,5.59-2.79,8.85,2.75-4.32,5.82-8.38,7.82-8.93a2.17,2.17,0,0,1,1.91.3c3.06,2.21,1.35,7.14-1.19,12.64,1.43-1.17,3.31-2,4.77-1,2.22,1.47,1,5.17-.1,7.82-2,4.72-4.38,11.9-6.71,18.85l-1.74,5.13a32.44,32.44,0,0,1-4.67,8.87,34.35,34.35,0,0,0-5.21,10.32c-.09.31-9.42,32.12-20.22,63.12C1265.76,465.52,1257.92,474.2,1253.38,474.2Z" fill="#212121"/><path d="M1284.12,318.08a1.43,1.43,0,0,1-.46-.07,1.5,1.5,0,0,1-1-1.89l5.75-17.86a1.5,1.5,0,1,1,2.85.92L1285.54,317A1.48,1.48,0,0,1,1284.12,318.08Z" fill="#212121"/><path d="M1292,319.17a1.34,1.34,0,0,1-.52-.1,1.49,1.49,0,0,1-.89-1.92l5.91-16a1.5,1.5,0,0,1,2.82,1l-5.92,16A1.5,1.5,0,0,1,1292,319.17Z" fill="#212121"/><path d="M1298.78,321.34a1.57,1.57,0,0,1-.64-.14,1.51,1.51,0,0,1-.72-2l6.26-13.3a1.5,1.5,0,1,1,2.72,1.28l-6.27,13.3A1.49,1.49,0,0,1,1298.78,321.34Z" fill="#212121"/><path d="M1306.27,323.78a1.49,1.49,0,0,1-1.36-2.12l5.37-11.76a1.49,1.49,0,1,1,2.72,1.24l-5.37,11.77A1.49,1.49,0,0,1,1306.27,323.78Z" fill="#212121"/><path d="M1289.86,336.32a1.5,1.5,0,0,1-1.25-2.32,15.08,15.08,0,0,1,13.42-6.21,1.5,1.5,0,0,1-.24,3,12.07,12.07,0,0,0-10.68,4.88A1.49,1.49,0,0,1,1289.86,336.32Z" fill="#212121"/><path d="M863.1,321.58c-.08,22.05,17.9,25.3,17.9,25.3s-10,21.28-34.31,21.28-35.62-17.7-35.62-17.7,13.9-7.92,13.9-32.68-1-33.61-1-33.61-8.95,0-10.47-13.44c-1.34-11.91,7.23-16.84,13.68-8.12a34,34,0,0,1,22.15-18.25c16.51-4.34,27.37-9.55,31.71-20,0,0,7.82,13.9,21.94,22.16,0,0,1.19,60.14-27.31,73.3-15.29,7.06-33.29-7.27-33.29-7.27" fill="#fff"/><path d="M846.69,369.67c-24.86,0-36.41-17.65-36.89-18.4a1.51,1.51,0,0,1-.19-1.17,1.53,1.53,0,0,1,.71-.94,23.36,23.36,0,0,0,6.57-6.76c3-4.44,6.58-12.32,6.58-24.62,0-19.58-.66-29.21-.92-32.3-2.87-.62-9.3-3.25-10.58-14.58-.76-6.71,1.46-12.1,5.64-13.74,3-1.19,6.34-.16,9.2,2.75a35.55,35.55,0,0,1,22.1-17c15.34-4,26.43-8.83,30.71-19.1a1.49,1.49,0,0,1,1.3-.92,1.47,1.47,0,0,1,1.39.76c.08.13,7.81,13.65,21.39,21.59a1.49,1.49,0,0,1,.74,1.27,172.18,172.18,0,0,1-3,32c-4.44,22.64-12.91,37-25.19,42.66a23.77,23.77,0,0,1-11.63,2c.76,19,16,22.06,16.64,22.18a1.55,1.55,0,0,1,1.07.79,1.52,1.52,0,0,1,0,1.33C882.26,347.74,871.68,369.67,846.69,369.67Zm-33.5-18.84a42.52,42.52,0,0,0,33.5,15.84c19.27,0,29.26-14.08,32.1-18.86-4.78-1.61-16.67-7.37-17.17-24.93a39.24,39.24,0,0,1-9-2.65,52.41,52.41,0,0,1-11.26-6.49,1.5,1.5,0,0,1-.24-2.11,1.51,1.51,0,0,1,2.11-.24c.17.14,17.46,13.67,31.72,7.09,25.51-11.78,26.44-63.87,26.45-71.09C890.92,241,884,231.78,881.16,227.48c-5.79,10.3-18.48,14.91-31.49,18.33a32.73,32.73,0,0,0-21.14,17.37,1.5,1.5,0,0,1-2.6.32c-2.29-3.1-5-4.43-7.22-3.55-2.37.93-4.44,4.57-3.76,10.61,1.34,11.84,8.68,12.1,9,12.11a1.51,1.51,0,0,1,1.48,1.32c0,.36,1.05,9.22,1.05,33.79C826.47,338.73,816.85,348,813.19,350.83Z" fill="#212121"/><path d="M847.12,261.9a1.46,1.46,0,0,1-.7-.18,1.5,1.5,0,0,1-.62-2c3.52-6.65,11.27-6.81,14.88-6a1.5,1.5,0,0,1-.68,2.92h0c-.34-.07-8.24-1.8-11.55,4.46A1.5,1.5,0,0,1,847.12,261.9Z" fill="#212121"/><path d="M898.38,261.9a1.49,1.49,0,0,1-1.31-.77c-3.12-5.59-9.94-4.79-10.23-4.76a1.5,1.5,0,0,1-.39-3c.37-.05,9.11-1.12,13.24,6.26a1.52,1.52,0,0,1-.58,2A1.59,1.59,0,0,1,898.38,261.9Z" fill="#212121"/><path d="M877.19,288.65a14.19,14.19,0,0,1-5.46-1.24,1.5,1.5,0,1,1,1.17-2.77,10.82,10.82,0,0,0,4.6,1,2.52,2.52,0,0,0,2.08-1.3,2.68,2.68,0,0,0,0-2.59c-3.33-6.31-4-14.39-4-14.73a1.49,1.49,0,0,1,1.37-1.61,1.51,1.51,0,0,1,1.62,1.37c0,.08.66,7.81,3.7,13.58a5.66,5.66,0,0,1-.11,5.47,5.5,5.5,0,0,1-4.54,2.8Z" fill="#212121"/><path d="M870.13,301a9.86,9.86,0,0,1-1.53-.12c-4.91-.76-7.83-5-8-5.14a1.5,1.5,0,0,1,2.48-1.7c0,.05,2.35,3.33,6,3.88,2.21.34,4.53-.42,6.88-2.26a1.5,1.5,0,0,1,1.84,2.37A12.48,12.48,0,0,1,870.13,301Z" fill="#212121"/><ellipse cx="857.59" cy="268.47" rx="3.3" ry="5.49" fill="#212121"/><ellipse cx="888.22" cy="266.91" rx="3.3" ry="5.49" fill="#212121"/><path d="M915.32,440.91a1.49,1.49,0,0,1-.73-.2,1.5,1.5,0,0,1-.58-2c4.77-8.55,14.45-32.59,1.34-71.14-3.88-11.41-8.12-18.25-9.56-19.13-5.27.82-24,0-24.85,0a1.51,1.51,0,0,1-1.44-1.57,1.48,1.48,0,0,1,1.57-1.43c.2,0,19.87.85,24.43,0,1.31-.23,2.62.69,4.27,3,4.5,6.3,10.55,21.25,13.4,37.64,2.56,14.74,3.51,36.09-6.54,54.1A1.5,1.5,0,0,1,915.32,440.91Z" fill="#212121"/><path d="M888.22,491h-.06L811,487.82a1.53,1.53,0,0,1-1-.4c-12-11-26.11-56.35-25.24-80.81.84-23.85-10.17-47.56-10.29-47.8a1.52,1.52,0,0,1,.05-1.36,1.49,1.49,0,0,1,1.13-.76c10.21-1.28,34.75-7.61,35-7.68a1.5,1.5,0,1,1,.75,2.91c-1,.24-22.2,5.73-33.38,7.46,2.62,6.13,10.49,26.39,9.75,47.34-.82,23.08,12.69,67.07,23.88,78.12L886.85,488,890,451.87a1.51,1.51,0,0,1,1.63-1.36,1.5,1.5,0,0,1,1.36,1.62l-3.3,37.52A1.5,1.5,0,0,1,888.22,491Z" fill="#212121"/><path d="M878.4,503.63h0L811,501.72a1.49,1.49,0,0,1-1.45-1.5v-13.9a1.5,1.5,0,0,1,3,0v12.44l65.87,1.87a1.5,1.5,0,0,1,0,3Z" fill="#212121"/><rect x="917.33" y="1073.08" width="2.78" height="6" fill="#212121"/><path d="M985.7,423.86a1.41,1.41,0,0,1-1.05-.47c-.28-.32-28.24-32.23-43.1-53.23-14.43-20.39-35.66-21.88-35.87-21.89a1.39,1.39,0,0,1,.17-2.78c.92.06,22.77,1.59,38,23.07,14.77,20.87,42.64,52.67,42.92,53a1.39,1.39,0,0,1-.13,2A1.37,1.37,0,0,1,985.7,423.86Z" fill="#212121"/><path d="M970.66,452.28a1.32,1.32,0,0,1-.51-.1c-29.35-11.51-48-39.75-48.15-40a1.39,1.39,0,1,1,2.33-1.52c.17.28,18.33,27.78,46.84,39a1.39,1.39,0,0,1,.79,1.8A1.41,1.41,0,0,1,970.66,452.28Z" fill="#212121"/><path d="M573.89,205.49c26.72-11.73,47.1,20.2,74.37,13,0,0,.56,22.15,4.47,26.71,0,0,10.43-15.63,10.43-33.88,0,0,9.12.65,15.64-4.56,0,0-12.38-3.26-15-8.47,0,0,8.47,0,15-3.91,0,0-18.9-3.91-20.2-7.82,0,0,13,.65,17.59-3.26a226.62,226.62,0,0,1-37.79-16.94c-19.55-11.08-57.34-.8-60.6,24.36,0,0-26.06,8.87-24.76,33.63S570,254.89,570,254.89C567.38,232.2,573.89,205.49,573.89,205.49Z" fill="#f9d285"/><path d="M652.08,249.14l-3.82-30.62c-27.27,7.17-47.65-24.76-74.37-13,0,0-6.51,26.71-3.91,49.4,0,0-4-11.6-9.66-8s-4.67,24.1,8,22.47c0,0,9.12,39.42,40.73,41.7s44-46.91,44-46.91,9.12,3.47,11.4-7.93S658.31,236.49,652.08,249.14Z" fill="#fff"/><path d="M611.15,312.62c-.72,0-1.45,0-2.18-.08-29.08-2.1-39.81-34.76-41.75-41.61-4.87.1-8.62-2.75-10.52-8-2.15-6-1.4-14.65,2.82-17.32a5.26,5.26,0,0,1,4.68-.62,8.68,8.68,0,0,1,3.76,3c-.81-20.85,4.41-42.57,4.47-42.81a1.52,1.52,0,0,1,.86-1c14.63-6.42,27.5-.29,39.94,5.64,10.91,5.21,22.2,10.59,34.65,7.32a1.51,1.51,0,0,1,1.87,1.26L653,244.74c3.21-4,6.32-3.62,7.68-3.16,4.3,1.46,6.59,8,5.21,14.91-.83,4.16-2.62,7-5.33,8.53a9.8,9.8,0,0,1-6.48.92,106.25,106.25,0,0,1-9.91,23.26C635.2,304.57,623.81,312.62,611.15,312.62Zm-42.8-44.78a1.51,1.51,0,0,1,1.46,1.16c.09.39,9.26,38.37,39.37,40.55s42.3-45.31,42.42-45.79a1.54,1.54,0,0,1,.77-1,1.49,1.49,0,0,1,1.22-.07,7.45,7.45,0,0,0,5.58-.35c1.89-1.05,3.17-3.23,3.82-6.48,1.16-5.81-.73-10.63-3.23-11.48-2-.67-4.34,1.35-6.33,5.39a1.52,1.52,0,0,1-1.6.81,1.5,1.5,0,0,1-1.24-1.29l-3.61-29c-12.82,2.7-24.11-2.69-35-7.9-12.17-5.8-23.67-11.28-36.76-5.89-1,4.41-6,28.05-3.71,48.14a1.5,1.5,0,0,1-2.91.67c-.87-2.51-3.09-6.78-5.35-7.57a2.28,2.28,0,0,0-2.08.32c-2.36,1.49-3.59,8.28-1.6,13.77,1.1,3.08,3.5,6.61,8.63,6Z" fill="#212121"/><path d="M637.09,252a1.53,1.53,0,0,1-.83-.26,9,9,0,0,0-10.59-.09,1.5,1.5,0,1,1-1.91-2.31,12,12,0,0,1,14.17-.09,1.5,1.5,0,0,1-.84,2.75Z" fill="#212121"/><path d="M596.37,252a1.51,1.51,0,0,1-1.06-.44c-3.37-3.37-9.87.21-9.93.24a1.5,1.5,0,0,1-1.48-2.61c.35-.2,8.55-4.74,13.53.25a1.49,1.49,0,0,1,0,2.12A1.51,1.51,0,0,1,596.37,252Z" fill="#212121"/><path d="M606.8,265.33a3.11,3.11,0,0,1-2.16-.79c-3.57-3.24,2.28-16,5-21.29a1.5,1.5,0,0,1,2.68,1.35c-4.1,8.13-6.77,16.58-5.62,17.72h0s.79.28,3.48-1.42a1.5,1.5,0,1,1,1.59,2.54C610.87,264,608.74,265.33,606.8,265.33Z" fill="#212121"/><path d="M610.94,289.74c-9.49,0-15.63-11.06-15.89-11.54a1.5,1.5,0,0,1,.25-1.76,1.49,1.49,0,0,1,1.75-.29c.55.28,13.33,6.52,26.68-5a1.5,1.5,0,0,1,2.41,1.59C625.92,273.42,620.62,289.74,610.94,289.74Zm-10.76-9.4c2.33,2.86,6.15,6.4,10.76,6.4,4.44,0,8.15-5.46,10.39-10.11A28,28,0,0,1,605.1,281,26.91,26.91,0,0,1,600.18,280.34Z" fill="#212121"/><path d="M621.17,230.9s17.54-.7,21.83,1.93l1.3-1.71s-14.11-5.69-22.48-3.63Z" fill="#212121"/><path d="M643,234.33a1.52,1.52,0,0,1-.79-.22c-2.83-1.75-14.37-2-21-1.71a1.53,1.53,0,0,1-1.19-.52,1.49,1.49,0,0,1-.34-1.26l.65-3.41a1.51,1.51,0,0,1,1.11-1.18c8.74-2.15,22.81,3.45,23.4,3.69a1.53,1.53,0,0,1,.89,1,1.51,1.51,0,0,1-.25,1.3l-1.31,1.72A1.51,1.51,0,0,1,643,234.33Zm-16.63-5c2.25,0,5,.06,7.58.24-3.62-.81-7.62-1.32-10.84-.78l-.11.58C623.9,229.32,625.06,229.3,626.37,229.3Z" fill="#212121"/><path d="M599.3,230.9s-17.54-.7-21.83,1.93l-1.3-1.71s14.12-5.69,22.48-3.63Z" fill="#212121"/><path d="M577.48,234.33a1.51,1.51,0,0,1-1.2-.59L575,232a1.45,1.45,0,0,1-.25-1.3,1.52,1.52,0,0,1,.88-1c.6-.24,14.67-5.84,23.4-3.69a1.51,1.51,0,0,1,1.11,1.18l.66,3.41a1.52,1.52,0,0,1-.34,1.26,1.58,1.58,0,0,1-1.2.52c-6.6-.27-18.14,0-21,1.71A1.49,1.49,0,0,1,577.48,234.33Zm17-5.79a37.35,37.35,0,0,0-7.93,1c4.17-.29,8.49-.25,11-.2l-.11-.58A17.13,17.13,0,0,0,594.45,228.54Z" fill="#212121"/><path d="M679.76,440.91a1.23,1.23,0,0,1-.42-.07,1.5,1.5,0,0,1-1-1.86c4.95-16.89,1-54.21.94-54.58a1.5,1.5,0,0,1,3-.32c.17,1.55,4.08,38.29-1,55.75A1.51,1.51,0,0,1,679.76,440.91Z" fill="#212121"/><path d="M516.55,381.2s-14.39,163.47-15.78,175.91" fill="#fff"/><path d="M500.77,558.61h-.17a1.51,1.51,0,0,1-1.32-1.66c1.37-12.29,15.63-174.25,15.78-175.88a1.5,1.5,0,1,1,3,.26c-.15,1.63-14.42,163.63-15.79,176A1.49,1.49,0,0,1,500.77,558.61Z" fill="#212121"/><line x1="380.15" y1="288.24" x2="382.49" y2="292.15" fill="#fff"/><path d="M382.49,293.65a1.5,1.5,0,0,1-1.29-.73L378.87,289a1.5,1.5,0,1,1,2.57-1.54l2.34,3.91a1.51,1.51,0,0,1-.52,2.06A1.54,1.54,0,0,1,382.49,293.65Z" fill="#212121"/><line x1="387.54" y1="285.2" x2="389.17" y2="290.19" fill="#fff"/><path d="M389.17,291.69a1.51,1.51,0,0,1-1.43-1l-1.63-5a1.51,1.51,0,0,1,1-1.89,1.49,1.49,0,0,1,1.89,1l1.63,5a1.5,1.5,0,0,1-1,1.89A1.47,1.47,0,0,1,389.17,291.69Z" fill="#212121"/><line x1="397.39" y1="279.89" x2="398.62" y2="287.69" fill="#fff"/><path d="M398.61,289.19a1.5,1.5,0,0,1-1.48-1.26l-1.22-7.81a1.5,1.5,0,0,1,3-.46l1.23,7.8a1.5,1.5,0,0,1-1.25,1.72Z" fill="#212121"/><path d="M503.85,1028.48c-.36,0-.72,0-1.09,0-11.36-.79-14.34-11.6-14.37-11.71a1.2,1.2,0,0,1-.05-.38V989a1.5,1.5,0,0,1,3,0v27.1c.39,1.26,3,8.71,11.63,9.31,3.45.24,6.93-1,10.34-3.59a14.93,14.93,0,0,0,5.65-11.78V989a1.5,1.5,0,0,1,3,0v21a17.94,17.94,0,0,1-6.82,14.15A18.35,18.35,0,0,1,503.85,1028.48Z" fill="#212121"/><path d="M481.05,1060.07c-18.13,0-37.08-1.8-47.78-5.6-6.26-2.22-9.44-5.1-9.44-8.55,0-16.37,59-29.58,65.69-31a1.5,1.5,0,0,1,.63,2.94c-.16,0-16.24,3.53-32.11,8.88-27.16,9.16-31.21,16-31.21,19.22,0,2,2.64,4,7.45,5.72,23.21,8.24,84.53,6.36,90.4-.86,2.26-2.79-1.11-22.69-5.67-40.32a1.5,1.5,0,1,1,2.9-.75c1.62,6.23,9.45,37.6,5.1,43C523.08,1057.51,502.64,1060.07,481.05,1060.07Z" fill="#212121"/><path d="M1148,1048.29a18.38,18.38,0,0,1-11.28-4.25,17.92,17.92,0,0,1-6.83-14.15v-8.05a1.5,1.5,0,0,1,3,0v8.05a14.9,14.9,0,0,0,5.66,11.77c3.4,2.63,6.88,3.84,10.33,3.6,8.58-.6,11.24-8,11.64-9.32v-14.1a1.5,1.5,0,1,1,3,0v14.32a1.65,1.65,0,0,1,0,.38c0,.11-3,10.91-14.38,11.71C1148.76,1048.28,1148.4,1048.29,1148,1048.29Z" fill="#212121"/><path d="M1159,1077.72c-15.32,0-28-1.41-31.15-5.25-4.31-5.3,1-36.62,2.07-42.84a1.5,1.5,0,1,1,3,.52c-2.64,14.92-5.22,37.32-2.69,40.43.84,1,4.7,3.5,22.36,4,29.11.83,68.59-4.08,72.48-7.21-.52-27.57-62.42-29.71-63-29.72a1.51,1.51,0,0,1-1.45-1.55,1.45,1.45,0,0,1,1.54-1.45,168.1,168.1,0,0,1,32.59,4.69c21.83,5.66,33.37,15.48,33.37,28.38,0,1.69-1.86,2.58-3.68,3.22C1215.81,1074,1184,1077.72,1159,1077.72Z" fill="#212121"/><path d="M1182.79,1054.53a1.4,1.4,0,0,1-.49-.08,1.5,1.5,0,0,1-.93-1.91l4.33-12.52a1.5,1.5,0,1,1,2.84,1l-4.33,12.52A1.51,1.51,0,0,1,1182.79,1054.53Z" fill="#212121"/><path d="M1171.79,1054.53a1.4,1.4,0,0,1-.49-.08,1.5,1.5,0,0,1-.93-1.9l5.33-15.52a1.5,1.5,0,1,1,2.84,1l-5.33,15.52A1.51,1.51,0,0,1,1171.79,1054.53Z" fill="#212121"/><path d="M389.17,304.53s15.31-1.64,19.87,6.59" fill="#fff"/><path d="M409,312.62a1.49,1.49,0,0,1-1.31-.77c-4-7.28-18.26-5.85-18.4-5.83a1.5,1.5,0,1,1-.32-3c.66-.08,16.36-1.65,21.34,7.35a1.5,1.5,0,0,1-.58,2A1.47,1.47,0,0,1,409,312.62Z" fill="#212121"/></svg>