<svg version="1.1" id="Слой_1" xmlns="http://www.w3.org/2000/svg" x="0" y="0" width="742.9" height="862.3" xml:space="preserve"><style>.st0{fill:#d5e0ea}.st1{fill:#fff}.st2{fill:#ff0036}.st3{fill:#1f0d60}.st4{fill:#003fff}.st5{fill:#00b7ea}.st6{fill:#f73d9e}</style><g id="background"><path id="semicircle" class="st0" d="M700.8 349.3c-19 48-74 71.8-122 52.9s-71.8-74-52.9-122c58.3 23 116.6 46 174.9 69.1z"/><g id="window1"><path class="st1" d="M8.5 13h330.8v237H8.5z"/><path class="st2" d="M339.2 251.5H8.5c-.8 0-1.5-.7-1.5-1.5V13c0-.8.7-1.5 1.5-1.5h330.8c.8 0 1.5.7 1.5 1.5v237c-.1.9-.7 1.5-1.6 1.5zm-329.2-3h327.8v-234H10v234z"/><path class="st2" d="M339.2 54H8.5c-.8 0-1.5-.7-1.5-1.5S7.7 51 8.5 51h330.7c.8 0 1.5.7 1.5 1.5s-.6 1.5-1.5 1.5zM33.6 44.5c-6.3 0-11.5-5.2-11.5-11.5s5.2-11.5 11.5-11.5S45.1 26.7 45.1 33 40 44.5 33.6 44.5zm0-19.9c-4.7 0-8.5 3.8-8.5 8.5s3.8 8.5 8.5 8.5 8.5-3.8 8.5-8.5-3.8-8.5-8.5-8.5zM66.7 44.5c-6.3 0-11.5-5.2-11.5-11.5s5.2-11.5 11.5-11.5S78.2 26.7 78.2 33s-5.1 11.5-11.5 11.5zm0-19.9c-4.7 0-8.5 3.8-8.5 8.5s3.8 8.5 8.5 8.5 8.5-3.8 8.5-8.5-3.8-8.5-8.5-8.5zM99.8 44.5c-6.3 0-11.5-5.2-11.5-11.5s5.2-11.5 11.5-11.5 11.5 5.2 11.5 11.5-5.1 11.5-11.5 11.5zm0-19.9c-4.7 0-8.5 3.8-8.5 8.5s3.8 8.5 8.5 8.5 8.5-3.8 8.5-8.5-3.8-8.5-8.5-8.5zM99.8 251.5c-.5 0-1-.3-1.3-.8l-23.1-41.9c-.4-.7-.2-1.5.4-1.9l48.2-35H66.7c-.5 0-.9-.2-1.2-.6-.3-.4-.4-.8-.3-1.3l14-66-42.8 46.2c-.3.4-.8.5-1.3.5-.5-.1-.9-.4-1.1-.8L7.2 97c-.4-.7-.1-1.6.7-2 .7-.4 1.6-.1 2 .7l25.9 50.9 45-48.6c.5-.5 1.2-.6 1.8-.3.6.3.9 1 .8 1.6l-14.6 69.6h60.1c.6 0 1.2.4 1.4 1s0 1.3-.5 1.7l-50.9 36.9 22.5 40.7c.4.7.1 1.6-.6 2-.5.3-.7.3-1 .3z"/></g><path id="line" class="st2" d="M579.7 440.2c-.8 0-1.5-.7-1.5-1.5v-58.1H208.7c-.8 0-1.5-.7-1.5-1.5V250c0-.8.7-1.5 1.5-1.5s1.5.7 1.5 1.5v127.6h369.5c.8 0 1.5.7 1.5 1.5v59.6c0 .9-.7 1.5-1.5 1.5z"/><g id="window2"><path class="st1" d="M447.3 438.7h277.4v198.8H447.3z"/><path class="st2" d="M724.7 639H447.3c-.8 0-1.5-.7-1.5-1.5V438.7c0-.8.7-1.5 1.5-1.5h277.4c.8 0 1.5.7 1.5 1.5v198.8c0 .8-.7 1.5-1.5 1.5zm-275.9-3h274.4V440.2H448.8V636z"/><path class="st2" d="M724.7 473.3H447.3c-.8 0-1.5-.7-1.5-1.5s.7-1.5 1.5-1.5h277.4c.8 0 1.5.7 1.5 1.5s-.7 1.5-1.5 1.5zM468.4 465.4c-5.4 0-9.9-4.4-9.9-9.9 0-5.4 4.4-9.9 9.9-9.9 5.4 0 9.9 4.4 9.9 9.9s-4.4 9.9-9.9 9.9zm0-16.7c-3.8 0-6.9 3.1-6.9 6.9s3.1 6.9 6.9 6.9 6.9-3.1 6.9-6.9c0-3.9-3.1-6.9-6.9-6.9zM496.2 465.4c-5.4 0-9.9-4.4-9.9-9.9 0-5.4 4.4-9.9 9.9-9.9s9.9 4.4 9.9 9.9-4.5 9.9-9.9 9.9zm0-16.7c-3.8 0-6.9 3.1-6.9 6.9s3.1 6.9 6.9 6.9 6.9-3.1 6.9-6.9c0-3.9-3.1-6.9-6.9-6.9zM523.9 465.4c-5.4 0-9.9-4.4-9.9-9.9 0-5.4 4.4-9.9 9.9-9.9 5.4 0 9.9 4.4 9.9 9.9s-4.4 9.9-9.9 9.9zm0-16.7c-3.8 0-6.9 3.1-6.9 6.9s3.1 6.9 6.9 6.9c3.8 0 6.9-3.1 6.9-6.9 0-3.9-3.1-6.9-6.9-6.9z"/><path class="st2" d="M698.2 625c-.7-.1-1.2-.5-1.4-1.1l-7.2-26.9c-2.9-10.9-5.9-21.9-8.8-32.8-17.5 11.8-35 23.6-52.4 35.4-.5.4-1.3.3-1.8-.1s-.7-1.1-.5-1.7l11.7-29.3c4-9.9 7.9-19.8 11.9-29.7l-58.1-8.2c-.7-.1-1.2-.6-1.3-1.3s.3-1.3.9-1.6c12.4-5.4 24.8-10.9 37.2-16.3L652 501l-.5-1c-4.2-9.2-8.3-18.4-12.5-27.7-.3-.8 0-1.6.7-2 .8-.3 1.6 0 2 .7 4.2 9.2 8.3 18.4 12.5 27.7l1.1 2.4c.2.4.2.8 0 1.2s-.4.7-.8.8l-25 11c-10.8 4.7-21.6 9.5-32.4 14.2l54.7 7.7c.5.1.9.3 1.1.7.2.4.3.9.1 1.3l-12.6 31.5-9.9 24.7 50.1-33.9c.4-.3.9-.3 1.4-.2.5.2.8.5.9 1 3.1 11.6 6.3 23.2 9.4 34.8l6.2 23 24.7-50.2c.4-.7 1.3-1 2-.7.7.4 1 1.3.7 2l-26.5 53.8c-.1.9-.6 1.2-1.2 1.2z"/></g><g id="lines"><path class="st0" d="M634.4 861.8c35.7-21.6 71.4-43.3 107.2-64.9 3.3-2 .3-7.2-3-5.2-35.7 21.6-71.4 43.3-107.2 64.9-3.4 2.1-.3 7.2 3 5.2zM592 851.9l69.3-86.1c2.4-3-1.8-7.3-4.2-4.2l-69.3 86.1c-2.5 3 1.8 7.2 4.2 4.2z"/></g><path class="st0" d="M158.6 583.4h-.1c-19.4-.9-35.9-11-42.9-26.3-2.9-6.4-4.2-13.8-3.9-21-11.2.8-24.3-1.1-34.6-7.4-20.7-12.7-28.4-43.6-27.2-71-3.4-.6-5.8-1.4-6.5-1.6-13.5-4.5-24.5-17.5-31.8-37.6-7.1-19.5-10.2-44.2-9-71.6.1-1.7 1.5-2.9 3.1-2.9 1.7.1 2.9 1.5 2.9 3.1-2.3 53.7 12.4 95.2 36.7 103.2.2.1 2.1.7 5 1.3 0-.5.1-1.1.2-1.6 1.8-16.5 7.4-35.4 18.1-39.2 4.2-1.5 9.7-.7 14.9 2.2 6.1 3.3 10.5 8.5 11.8 14 2.3 9.5-4.9 19.1-11.7 24.3-6.7 5.1-15.5 7.6-25.6 7.2-.7 0-1.5-.1-2.2-.1-1 25.5 5.8 53.7 24.3 65.1 9.2 5.6 21.5 7.3 32.1 6.5 1.6-10 6.1-18.7 12.8-22.4 1.8-1 7.8-3.9 12.1-.8 4.8 3.3 4.3 11.8 2.2 16.4-2.1 4.6-7.3 8.3-15 10.6-2 .6-4.2 1.1-6.6 1.5-.3 6.8.8 13.8 3.3 19.2 6.1 13.3 20.6 22.1 37.8 22.8 1.7.1 2.9 1.5 2.9 3.1-.2 1.8-1.5 3-3.1 3zm-26.1-71.9c-1.3 0-3.2.6-4.7 1.4-4.9 2.7-8.1 9-9.4 16.2 1.4-.3 2.8-.6 4.1-1 5.8-1.8 10-4.5 11.3-7.4 1.4-2.9 1.2-8-.2-9-.2-.1-.6-.2-1.1-.2zm-76.4-59c7.1.6 16.4-.2 23.7-5.8 5.7-4.4 11.1-11.9 9.5-18.2-.9-3.8-4.3-7.6-8.9-10.1-3.7-2-7.5-2.7-10.1-1.8-6.4 2.3-12.3 16.3-14.2 34.1.2.6.1 1.2 0 1.8z"/></g><g id="general"><g id="woman"><g id="head"><path id="hair" class="st3" d="M413.8 51.1c-3.9-2.1-23.2-12.7-44.7-8.6-1.4.3-2.8.6-4.2 1 1.3-4.1 2.1-8.4-.2-8.3-2.2.2-2.9 4-2.9 7.9-3.1-3.8-7.7-8.6-9-6.1-1.3 2.5 3.8 5.8 7.7 7.9-31.3 11.8-56.1 53.4-56.2 106.6 20.4 4.2 54.4 8.5 94.5-.4 24.3-5.4 43.8-14 58.1-21.7 0-2.8-1.4-55.4-43.1-78.3z"/><g id="face"><path class="st2" d="M419.5 69.7c-.5-1-1-1.9-1-1.9-4.8 1.2-12.2 2.1-20.3-.9-9.2-3.5-14.1-10.3-15.8-12.8.2 2.5 1.9 22.9-13.6 37.1-9 8.3-19.4 10.3-24.1 10.9.2.6.3 1.2.5 1.9.5 1.9 1.2 3.6 1.2 3.6s1.6 4 4.5 7.6c.2.2 2.4 2.8 6 6.2-.3 9.6-.6 19.2-1 28.8 0 .1.1.1.1.2l4.8 11.1c6.7 15.6 13.4 31.1 20.1 46.7 2.9-7.3 15.5-46.4 18-57v-9.5c.7-.1 1.4-.3 2-.5 15.2-4.8 21.8-24.5 23-28-.1-.1 7.1-21.4-4.4-43.5z"/><path d="M393.1 143.1c-2.4 0-5.1-.3-7.9-.9-8.8-2.1-14.5-7.3-17.1-10.3-.2-.2-.2-.5 0-.7s.5-.2.7 0c2.5 2.8 8.1 7.9 16.6 10 7.1 1.7 13.2.7 17.1-.5.3-.1.5.1.6.3.1.3-.1.5-.3.6-2.4.8-5.8 1.5-9.7 1.5z"/></g><path id="nose" d="M397.3 108.1c-.2 0-.4-.1-.5-.3-.1-.3 0-.5.3-.6l10.6-3.8-5.9-21.6c-.1-.3.1-.5.4-.6s.5.1.6.4l6 22c.1.3-.1.5-.3.6l-11 4c0-.1-.1-.1-.2-.1z"/><g id="eyes"><circle cx="392.3" cy="88.6" r="2.5"/><circle cx="419.3" cy="88.6" r="2.5"/></g><g id="brows"><ellipse transform="rotate(-76.232 389.474 78.869)" cx="389.5" cy="78.9" rx="2.5" ry="8.7"/><ellipse transform="rotate(-19.622 417.497 78.91)" cx="417.5" cy="78.9" rx="8.7" ry="2.5"/></g><g id="glasses"><path class="st4" d="M402.8 88.1c0 7.4-6.1 13.5-13.5 13.5s-13.5-6.1-13.5-13.5h27zM433.8 88.1c0 7.4-6.1 13.5-13.5 13.5s-13.5-6.1-13.5-13.5h27z"/><path class="st1" d="M386.6 101.8h-.1c-.3-.1-.4-.3-.4-.6.4-1.7 1.1-3.2 2.2-4.3.7-.7 1.2-1 3-1.8.5-.3 1.1-.6 1.9-1 3.5-1.8 4.3-2.3 5-3.4.4-.7.7-1.4.8-2.3 0-.3.3-.5.6-.4.3 0 .5.3.4.6-.1 1-.4 1.9-.9 2.7-.8 1.3-1.9 2-5.4 3.7-.8.4-1.4.7-1.9 1-1.7.9-2.1 1.1-2.7 1.6-.9 1-1.6 2.2-1.9 3.8-.2.3-.4.4-.6.4zM418.6 101.8h-.1c-.3-.1-.4-.3-.4-.6.4-1.7 1.1-3.2 2.2-4.3.7-.7 1.2-1 3-1.8.5-.3 1.1-.6 1.9-.9 3.5-1.8 4.3-2.3 5-3.4.4-.7.7-1.4.8-2.3 0-.3.3-.5.6-.4.3 0 .5.3.4.6-.1 1-.4 1.9-.9 2.7-.8 1.3-1.9 2-5.4 3.7-.8.4-1.4.7-1.9 1-1.7.9-2.1 1.1-2.7 1.6-.9 1-1.6 2.2-1.9 3.8-.2.2-.4.3-.6.3z"/><path d="M434.8 88.6c0 .3-.2.5-.5.5h-58.9l-16.3 9.2c-.3-.2-.6-.5-.9-.7l16.9-9.5c.1 0 .2-.1.2-.1h59c.3.1.5.4.5.6z"/></g><path id="mouth" d="M400.4 117.5c-.2 0-.4-.1-.5-.3-.1-.2-3-6.1-11.7-5.5-.3 0-.5-.2-.5-.5s.2-.5.5-.5c9.4-.7 12.6 6 12.6 6.1.1.3 0 .5-.2.7h-.2z"/><g id="ear"><path class="st2" d="M364.8 108.5c-.4-3.7-2.1-6.9-4.6-9.3-.3-.3-.7-.6-1-.9-.3-.2-.6-.5-.9-.7-1.8-1.2-3.9-2-6-2.4-1.3-.2-2.6-.2-3.9-.1-8.2.9-14.2 8.3-13.3 16.5.9 8.2 8.3 14.2 16.5 13.3s14.1-8.1 13.2-16.4z"/><path d="M354.3 117.1c-.1 0-.2 0-.3-.1-1.9-1.3-2.9-2.7-2.9-4.3 0-2 1.6-3.5 2.4-4.2L343 99c-.2-.2-.2-.5 0-.7s.5-.2.7 0l11 10c.1.1.2.3.2.4s-.1.3-.2.4c0 0-2.4 1.7-2.4 3.7 0 1.2.8 2.4 2.4 3.4.2.2.3.5.1.7-.1.2-.3.2-.5.2z"/></g><path id="earring" class="st5" d="M347.7 142.6c-.1 0-.2 0-.3-.1-4.2-3.2-6.1-8.4-4.9-13.2.2-.6.4-1.3.6-1.8.7-1.7 1.7-2.8 2-3.2 1.3-1.5 3.1-2.8 5.1-3.6.3-.1.5 0 .7.3.1.3 0 .5-.3.7-1.9.8-3.5 2-4.7 3.4-.4.4-1.2 1.4-1.9 2.9-.2.5-.4 1.1-.6 1.7-1 4.3.5 8.8 4 11.8.9-2.7 1.9-5.4 2.9-8.1.8-2.3 1.7-4.5 2.5-6.7.1-.3.4-.4.6-.3.3.1.4.4.3.6-.8 2.2-1.7 4.4-2.5 6.7-1.1 2.9-2.1 5.8-3.1 8.7-.1.2-.2.3-.3.3 0-.2 0-.1-.1-.1z"/></g><g id="shoes"><path class="st6" d="M310 772.7c-1.5 10.4-3 20.9-4.6 31.3-.1.6-.2 1.2-.3 1.9-.4 2.8-.8 5.5-1.2 8.2-5.3.9-10.7 1.8-16 2.7-.3-2.3-.8-5-1.3-7.7-.1-.7-.3-1.4-.5-2.2-1.5-6.5-3.7-12.2-6.6-10.9-2.6 1.1-6.3 7-9.7 13.4-.5.9-1 1.9-1.5 2.8-1.5 2.9-2.9 5.9-4 8.5l-85.8 14.4c0-2.1 0-4.6.3-7.4.2-1.5.4-3 .8-4.5 1-4.5 2.8-9.2 6-13.7 14.7-20.3 43.8-11.7 63.2-30.7 1.9-1.8 3.9-4.1 5.8-7.1 18.5.4 37 .7 55.4 1z"/><path transform="rotate(-8.708 295.849 805.493)" class="st3" d="M286.1 805h19.5v1h-19.5z"/><path transform="rotate(-8.708 224.705 816.409)" class="st3" d="M179.1 815.9h91.2v1h-91.2z"/><path class="st6" d="M577.9 835.2l-85.8-14.4c-1.2-2.6-2.6-5.5-4-8.5-.5-1-1-1.9-1.5-2.8-3.4-6.5-7.1-12.3-9.7-13.4-3-1.3-5.1 4.5-6.6 10.9-.2.7-.3 1.4-.5 2.2-.5 2.7-1 5.4-1.3 7.7-5.3-.9-10.7-1.8-16-2.7-.4-2.8-.8-5.5-1.2-8.2-.1-.6-.2-1.2-.3-1.9-1.6-11-3.2-22.1-4.8-33.1 17.9-.8 35.7-1.6 53.6-2.5 2.5 4.6 5.3 8 7.8 10.5 19.5 19 48.5 10.4 63.2 30.7 3.2 4.4 5 9.2 6 13.7.3 1.5.6 3.1.8 4.5.3 2.7.3 5.2.3 7.3z"/><path transform="rotate(-81.292 460.69 805.433)" class="st3" d="M460.2 795.7h1v19.5h-1z"/><path transform="rotate(-81.309 531.667 816.375)" class="st3" d="M531.2 770.8h1V862h-1z"/></g><g id="pants_1_"><path id="pants" class="st5" d="M487.7 521.4c-.4-1.5-.8-3.1-1.2-4.6-2-7.8-3.9-15.5-5.9-23.3-.3-1-.5-2-.8-3.1L457.9 404c-.3-1.3-.6-2.5-1-3.8-6-23.7-12-47.4-18.1-71.1-43.3 1.7-86.7 3.3-130 5-28.2 120.1-56.4 240.1-84.5 360.2-.2.9-.4 1.9-.7 2.8-5.8 24.7-11.6 49.3-17.4 74 4 .1 8 .1 12.1.2h2.4c11.3.2 22.6.3 33.9.5 18.4.3 36.9.6 55.4.9 3.1.1 6.2.1 9.3.2h2c4.8.1 9.6.2 14.5.2 5.1-40.9 10.1-81.9 15.2-122.8.1-1.2.3-2.5.5-3.7 8.2-66.5 16.4-132.9 24.7-199.4 3.3 24.8 6.7 49.7 10 74.5l.9 6.9c10.9 81.1 21.8 162.3 32.7 243.4 3.3-.2 6.7-.3 10-.5.7 0 1.3-.1 2-.1 4.8-.2 9.5-.4 14.3-.7 17.9-.8 35.7-1.6 53.6-2.5 16.7-.8 33.4-1.5 50.1-2.3-20.7-81.3-41.4-162.9-62.1-244.5z"/><g id="pattern_1_"><path class="st3" d="M316.6 361.6c-.3 0-.5-.1-.7-.3-.4-.4-.4-1 0-1.4l12.5-12.5c.4-.4 1-.4 1.4 0s.4 1 0 1.4l-12.5 12.5c-.2.2-.5.3-.7.3zM366.7 357.4c-.4 0-.8-.2-.9-.6l-6.3-16.5c-.2-.5.1-1.1.6-1.3.5-.2 1.1.1 1.3.6l6.3 16.5c.2.5-.1 1.1-.6 1.3h-.4zM399.8 370.4c-.6 0-1-.5-1-1l.1-17.6c0-.6.4-1 1-1s1 .5 1 1l-.1 17.6c0 .6-.5 1-1 1zM430.5 352.3c-.4 0-.7-.2-.9-.6l-7.3-16.1c-.2-.5 0-1.1.5-1.3.5-.2 1.1 0 1.3.5l7.3 16.1c.2.5 0 1.1-.5 1.3-.1 0-.2.1-.4.1zM457.9 404l-9.5-9.5c-.4-.4-.4-1 0-1.4s1-.4 1.4 0l7.1 7.1c.3 1.3.6 2.6 1 3.8zM299.6 409.3c-.1 0-.2 0-.4-.1-.5-.2-.8-.8-.6-1.3l6.3-16.5c.2-.5.8-.8 1.3-.6.5.2.8.8.6 1.3l-6.3 16.5c-.1.4-.5.7-.9.7zM377.5 407.9c-.6 0-1-.4-1-1l-.1-17.6c0-.6.4-1 1-1 .5 0 1 .4 1 1l.1 17.6c0 .5-.4 1-1 1zM429.3 395.4c-.4 0-.8-.3-1-.7l-4.7-17c-.1-.5.2-1.1.7-1.2s1.1.2 1.2.7l4.7 17c.1.5-.2 1.1-.7 1.2h-.2zM336.9 407.1c-.1 0-.3 0-.4-.1-.5-.2-.7-.8-.5-1.3l7.3-16.1c.2-.5.8-.7 1.3-.5s.7.8.5 1.3l-7.3 16.1c-.2.4-.5.6-.9.6zM306.9 450.1c-.3 0-.5-.1-.7-.3-.4-.4-.4-1 0-1.4l12.5-12.5c.4-.4 1-.4 1.4 0s.4 1 0 1.4l-12.5 12.5c-.2.2-.5.3-.7.3zM366.7 447.8c-.4 0-.8-.2-.9-.6l-6.3-16.5c-.2-.5.1-1.1.6-1.3.5-.2 1.1.1 1.3.6l6.3 16.5c.2.5-.1 1.1-.6 1.3h-.4zM403.8 441.9c-.6 0-1-.5-1-1l.1-17.6c0-.6.5-1 1-1 .6 0 1 .5 1 1l-.1 17.6c0 .6-.4 1-1 1zM452.7 441.1c-.4 0-.7-.2-.9-.6l-7.3-16.1c-.2-.5 0-1.1.5-1.3.5-.2 1.1 0 1.3.5l7.3 16.1c.2.5 0 1.1-.5 1.3-.1.1-.3.1-.4.1zM435.5 528.8c-.3 0-.5-.1-.7-.3L422.3 516c-.4-.4-.4-1 0-1.4s1-.4 1.4 0l12.5 12.5c.4.4.4 1 0 1.4-.2.2-.5.3-.7.3zM282.8 487.6c-.1 0-.2 0-.4-.1-.5-.2-.8-.8-.6-1.3l6.3-16.5c.2-.5.8-.8 1.3-.6.5.2.8.8.6 1.3l-6.3 16.5c-.1.4-.5.7-.9.7zM400.4 491c-.4 0-.7-.2-.9-.6l-7.6-15.9c-.2-.5 0-1.1.5-1.3.5-.2 1.1 0 1.3.5l7.6 15.9c.2.5 0 1.1-.5 1.3-.1.1-.3.1-.4.1zM341 487.4c-.1 0-.3 0-.4-.1-.5-.2-.7-.8-.5-1.3l7.3-16.1c.2-.5.8-.7 1.3-.5s.7.8.5 1.3l-7.3 16.1c-.1.4-.5.6-.9.6zM231.5 690l-6.9 6.9c-.2.2-.4.3-.7.3h-.2c.2-.9.4-1.9.7-2.8l5.8-5.8c.4-.4 1-.4 1.4 0s.3 1-.1 1.4zM332.3 712.6c-.4 0-.7-.2-.9-.6l-7.3-16.1c-.2-.5 0-1.1.5-1.3s1.1 0 1.3.5l7.3 16.1c.2.5 0 1.1-.5 1.3-.2 0-.3.1-.4.1zM269.1 712.5c-.6 0-1-.4-1-1l-.1-17.6c0-.6.4-1 1-1s1 .4 1 1l.1 17.6c0 .6-.5 1-1 1zM302.9 734.2c-.4 0-.8-.3-1-.7l-4.7-17c-.1-.5.2-1.1.7-1.2.5-.2 1.1.2 1.2.7l4.7 17c.1.5-.2 1.1-.7 1.2h-.2zM227.1 748.2c-.1 0-.3 0-.4-.1-.5-.2-.7-.8-.5-1.3l7.3-16.1c.2-.5.8-.7 1.3-.5s.7.8.5 1.3l-7.3 16.1c-.1.3-.5.6-.9.6zM221.8 770.3l-1 1.1h-2.4c0-.3.1-.5.3-.7l1.8-1.7c.4-.4 1-.4 1.4 0 .3.3.3.9-.1 1.3zM269 761.8c-.4 0-.8-.2-.9-.6l-6.3-16.5c-.2-.5.1-1.1.6-1.3s1.1.1 1.3.6l6.3 16.5c.2.5-.1 1.1-.6 1.3h-.4zM321.4 755.5l-.1 17.4h-2l.1-17.4c0-.5.4-1 1-1s1 .5 1 1zM276.6 535c-.3 0-.5-.1-.7-.3-.4-.4-.4-1 0-1.4l12.5-12.5c.4-.4 1-.4 1.4 0s.4 1 0 1.4l-12.5 12.5c-.2.2-.5.3-.7.3zM317.2 512.5c-.4 0-.8-.2-.9-.6l-6.3-16.5c-.2-.5.1-1.1.6-1.3.5-.2 1.1.1 1.3.6l6.3 16.5c.2.5-.1 1.1-.6 1.3-.2-.1-.3 0-.4 0zM353.3 535.6c-.6 0-1-.5-1-1l.1-17.6c0-.5.4-1 1-1s1 .5 1 1l-.1 17.6c0 .6-.4 1-1 1zM390.9 534.7c-.1.1-.3.1-.4.1-.4 0-.7-.2-.9-.6l-2.5-5.5-.9-6.9 5.2 11.6c.3.5 0 1.1-.5 1.3zM421.5 572.5c-.3 0-.5-.1-.7-.3l-12.5-12.5c-.4-.4-.4-1 0-1.4s1-.4 1.4 0l12.5 12.5c.4.4.4 1 0 1.4-.2.2-.4.3-.7.3zM259.6 574.4c-.1 0-.2 0-.4-.1-.5-.2-.8-.8-.6-1.3l6.3-16.5c.2-.5.8-.8 1.3-.6s.8.8.6 1.3l-6.3 16.5c-.2.5-.5.7-.9.7zM344.8 573c-.6 0-1-.4-1-1l-.1-17.6c0-.6.4-1 1-1s1 .4 1 1l.1 17.6c0 .6-.5 1-1 1zM296.9 572.2c-.1 0-.3 0-.4-.1-.5-.2-.7-.8-.5-1.3l7.3-16.1c.2-.5.8-.7 1.3-.5s.7.8.5 1.3l-7.3 16.1c-.2.4-.5.6-.9.6zM270.3 621.5c-.3 0-.5-.1-.7-.3-.4-.4-.4-1 0-1.4l12.5-12.5c.4-.4 1-.4 1.4 0s.4 1 0 1.4L271 621.3c-.2.1-.4.2-.7.2zM326.7 613c-.4 0-.8-.2-.9-.6l-6.3-16.5c-.2-.5.1-1.1.6-1.3s1.1.1 1.3.6l6.3 16.5c.2.5-.1 1.1-.6 1.3h-.4zM408.3 610.9c-.4 0-.7-.2-.9-.6l-7.3-16.1c-.2-.5 0-1.1.5-1.3s1.1 0 1.3.5l7.3 16.1c.2.5 0 1.1-.5 1.3-.1 0-.3.1-.4.1zM439.5 649.8c-.1 0-.2 0-.4-.1l-16.4-6.6c-.5-.2-.8-.8-.6-1.3.2-.5.8-.8 1.3-.6l16.4 6.6c.5.2.8.8.6 1.3-.1.5-.5.7-.9.7zM253.3 665.5c-.1 0-.2 0-.4-.1-.5-.2-.8-.8-.6-1.3l6.3-16.5c.2-.5.8-.8 1.3-.6s.8.8.6 1.3l-6.3 16.5c-.2.5-.5.7-.9.7zM351.5 646.6c-.2 1.2-.3 2.4-.5 3.7l-6.9-14.3c-.2-.5 0-1.1.5-1.3s1.1 0 1.3.5l5.6 11.4zM302.2 660.6c-.1 0-.3 0-.4-.1-.5-.2-.7-.8-.5-1.3l7.3-16.1c.2-.5.8-.7 1.3-.5s.7.8.5 1.3l-7.3 16.1c-.1.4-.5.6-.9.6zM435.5 487.2c-.2 0-.3 0-.5-.1-.5-.2-.7-.9-.4-1.3l8-15.7c.2-.5.9-.7 1.3-.4.5.2.7.9.4 1.3l-8 15.7c-.1.3-.4.5-.8.5zM487.7 521.4l-7.1-8.8-.5-.6c-.3-.4-.3-1.1.2-1.4.1-.1.2-.1.3-.2.4-.1.8 0 1.1.3l4.8 5.9c.4 1.7.8 3.3 1.2 4.8zM469.2 558c-.4 0-.8-.2-.9-.6l-7.1-16.1c-.2-.5 0-1.1.5-1.3s1.1 0 1.3.5l7.1 16.1c.2.5 0 1.1-.5 1.3-.1.1-.2.1-.4.1zM484.5 589.8h-.1c-.5-.1-.9-.6-.9-1.1l1.9-17.5c.1-.5.6-.9 1.1-.9.5.1.9.6.9 1.1l-1.9 17.5c0 .5-.5.9-1 .9zM448.3 604.4c-.2 0-.3 0-.5-.1-.5-.2-.7-.9-.4-1.3l8-15.7c.2-.5.9-.7 1.3-.4.5.2.7.9.4 1.3l-8 15.7c-.1.3-.4.5-.8.5zM469.7 649.1c-.6 0-1-.5-1-1.1l.9-17.6c0-.6.5-1 1-.9.6 0 1 .5.9 1l-.9 17.6c.1.6-.4 1-.9 1zM506.3 643h-.1c-.5-.1-.9-.6-.9-1.1l1.9-17.5c.1-.5.6-.9 1.1-.9.5.1.9.6.9 1.1l-1.9 17.5c0 .5-.5.9-1 .9zM470.6 710.6c-.2 0-.3 0-.5-.1-.5-.2-.7-.9-.4-1.3l8-15.7c.2-.5.9-.7 1.3-.4.5.2.7.9.4 1.3l-8 15.7c-.1.3-.4.5-.8.5zM421.7 708.2c-.2 0-.3 0-.5-.1-.5-.2-.7-.9-.4-1.3l8-15.7c.3-.5.9-.7 1.3-.4.5.2.7.9.4 1.3l-8 15.7c-.1.3-.5.5-.8.5zM508.3 691.9c-.3 0-.6-.1-.8-.4l-11.1-13.7c-.3-.4-.3-1.1.1-1.4.4-.3 1.1-.3 1.4.1l11.1 13.7c.3.4.3 1.1-.1 1.4-.2.2-.4.3-.6.3zM446.6 751.3c-.4 0-.8-.2-.9-.6l-6.3-16.5c-.2-.5.1-1.1.6-1.3s1.1.1 1.3.6l6.3 16.5c.2.5-.1 1.1-.6 1.3h-.4zM432.3 762.1l-.5 9.5c-.7 0-1.3.1-2 .1l.5-9.6c0-.5.5-1 1-.9.6-.1 1.1.4 1 .9zM536.4 723.3c-.4 0-.8-.3-.9-.7l-5.5-16.7c-.2-.5.1-1.1.6-1.3s1.1.1 1.3.6l5.5 16.7c.2.5-.1 1.1-.6 1.3-.2.1-.3.1-.4.1zM481.1 762.4h-.1c-.5-.1-.9-.6-.9-1.1l1.9-17.5c.1-.5.6-.9 1.1-.9.5.1.9.6.9 1.1l-1.9 17.5c0 .5-.5.9-1 .9zM524 748.5c-.3 0-.6-.1-.8-.4l-11.1-13.7c-.3-.4-.3-1.1.1-1.4.4-.3 1.1-.3 1.4.1l11.1 13.7c.3.4.3 1.1-.1 1.4-.1.2-.3.3-.6.3z"/></g></g><g id="blouse"><g id="pattern"><circle class="st6" cx="369.3" cy="230.7" r="18.9"/><path class="st6" d="M409.2 301.8c-3.4 3.4-8.2 5.5-13.4 5.5-10.5 0-18.9-8.5-18.9-18.9s8.5-18.9 18.9-18.9c4.3 0 8.2 1.4 11.4 3.8.7 9.5 1.4 19 2 28.5zM360.8 322c0 3.6-1 6.9-2.7 9.7-.1.2-.2.4-.3.5-2.2.1-4.5.2-6.7.3-5.9.2-11.9.4-17.8.7 1.2-9.8 2.4-19.6 3.5-29.5 1.6-.5 3.3-.7 5.1-.7 10.4 0 18.9 8.5 18.9 19zM360.7 161.5c-2 1.1-4.3 1.9-6.8 2.2.6-4.4 1.2-8.9 1.8-13.3h.1c1.7 3.7 3.3 7.4 4.9 11.1z"/></g><path class="st3" d="M380.8 208.6c-.2 0-.4-.1-.5-.3l-21.1-48.9c-.1-.3 0-.5.3-.7.3-.1.5 0 .7.3l20.6 47.7 14-42.9c.1-.3.4-.4.6-.3.3.1.4.4.3.6l-14.4 44.2c0 .2-.2.3-.5.3.1 0 0 0 0 0zM351.5 333c-.3 0-.5-.2-.5-.5s.2-.5.5-.5l59.4-2.4c.3 0 .5.2.5.5s-.2.5-.5.5l-59.4 2.4z"/></g><g id="gown"><path class="st4" d="M355.8 150.4c-.4 3.3-1.3 10-1.7 13.3-7.1 56.2-14.1 112.5-20.8 168.8-2.3 18.6-4 33.6-5.2 43.1 0 0-11.7 84.3-25.3 224.8 0 .3-.1.6-.1.9l-3 27.9-94-21 6.8-28.9.2-1 69.9-296.2c-4.6 6-36 45.7-70 39-10.3-2-17.2-7.7-20-10-28.8-23.7-37-94-39.3-140.4v-1c-1-20.2-.8-35.7-.7-40.6h.3c16.9 1.2 33.8 2.3 50.7 3.5.9 14 1.9 26.4 3.1 37.3 0 .3.1.7.1 1 6.2 58.1 15.7 72.8 23.9 73.9 14.9 1.9 24.1-41.1 69.8-71.5 21.1-14 41.6-20 55.3-22.9zM618.7 175.7c-9.8-2.5-18.9-5.2-27.3-8.1h-.1c-8.6 28.5-17.2 51.8-24.1 68.9-8.5 21-11.8 26.7-17.3 27.7-11.7 2.1-19.6-19.1-50-54-17.5-20-30.6-34.8-51.5-45.6-19-9.8-37.1-12.6-49.5-13.4v.1c4.1 59.7 8.2 119.3 12.3 179l14.7 298.9c32.7-7.3 65.3-14.7 98-22-21.7-114-43.3-228-65-342 8.1 12.5 16.8 23.6 25.7 33.2 8.5 9.1 16.2 17 27.5 23.8 6.6 3.9 30.1 18 52.1 13 29.7-6.7 43.6-45.5 58.7-87.6 10.1-28 14.7-52 17-67.2-6.9-1.3-13.9-2.9-21.2-4.7z"/><path class="st3" d="M321.5 348.2c-.2 0-.4-.2-.5-.4L298.8 242c0-.1 0-.3.1-.4.1-.1.2-.2.4-.2 1.1 0 19.2-.1 23.9-.1l-19.4-49c-.1-.2 0-.4.1-.6l38.6-31.4c.2-.2.5-.1.7.1.2.2.1.5-.1.7l-38.3 31.1 19.5 49.3c.1.2 0 .3-.1.5-.1.1-.2.2-.4.2-2.8 0-20.4.1-24 .1L322 347.6c.1.3-.1.5-.4.6h-.1zM423.2 347.3s-.1 0 0 0c-.4-.1-.5-.3-.5-.6L444.3 240l-22.3-4.5c-.2 0-.3-.1-.4-.3s0-.3 0-.5c4.1-6.2 8.3-12.6 12.5-18.8 5.1-7.6 10.3-15.3 15.5-22.9-9-7.3-36.3-29.5-39.5-32.1-.2-.2-.2-.5-.1-.7.2-.2.5-.2.7-.1 3.3 2.6 31.3 25.4 39.9 32.4.2.2.2.5.1.7-5.3 7.7-10.6 15.5-15.8 23.3-4 6-8.1 12.1-12 18.2l22 4.5c.3.1.4.3.4.6l-21.6 107.1c-.1.2-.3.4-.5.4zM208.7 170.9c-.1 0-.1 0 0 0-4.1 0-40.8-.4-55.1-.2-.3 0-.5-.2-.5-.5s.2-.5.5-.5c14.3-.2 51 .2 55.1.2.3 0 .5.2.5.5-.1.3-.3.5-.5.5zM631.4 216c-6.3-1.4-37.9-8.7-52.1-11.6-.3-.1-.4-.3-.4-.6.1-.3.3-.4.6-.4 14.2 2.9 45.8 10.2 52 11.6.3.1.4.3.4.6-.1.2-.3.4-.5.4zM302.7 601.3h-.1l-89.9-22c-.3-.1-.4-.3-.4-.6.1-.3.3-.4.6-.4l89.9 22c.3.1.4.3.4.6-.1.2-.3.4-.5.4zM424.5 601.3c-.2 0-.4-.1-.5-.4-.1-.3.1-.5.4-.6 25.6-6.7 51.3-13.4 76.9-20.1l16.6-4.3c.3-.1.5.1.6.4s-.1.5-.4.6l-16.6 4.3c-25.6 6.7-51.3 13.4-77 20.1z"/></g><g id="hands"><g id="hand_l"><path class="st2" d="M203.9 132.6c-16.9-1.2-33.8-2.3-50.7-3.5-3.1-1.2-6.3-2.6-9.7-4.2-11.8-5.8-20.6-12.6-26.6-18.1-2.2-2.1-2.3-5.6-.2-7.8.6-.7 1.4-1.1 2.2-1.4.6-.2 1.2-.3 1.8-.3l-3.3-2.9c-1.2-1.1-1.9-2.6-1.9-4.2 0-1.3.4-2.6 1.4-3.6 1.4-1.5 3.4-2.2 5.3-1.8l-1.4-1.2c-2.3-2-2.5-5.5-.5-7.8s5.5-2.5 7.8-.5l.7.6c-.9-1.9-.7-4.3.8-6 2-2.3 5.5-2.5 7.8-.5l28 24.4 11.9 2.7-9-11.7c-1.8-2.4-1.4-5.9 1-7.8.5-.4 1-.6 1.5-.8 2.2-.8 4.7-.1 6.2 1.9 4.9 4.6 11.6 11.9 17.1 22.3 6.9 12.8 9 24.8 9.8 32.2z"/><path d="M177.8 120.5c-.1 0-.3-.1-.4-.2-9.1-9.4-.1-19.8 0-19.9.2-.2.5-.2.7 0s.2.5 0 .7c0 0-2.2 2.5-3.2 6-1.4 4.6-.3 8.8 3.2 12.5.2.2.2.5 0 .7 0 .1-.1.2-.3.2zM154.7 97.7c-.1 0-.2 0-.3-.1l-26-21.3c-.2-.2-.2-.5-.1-.7.2-.2.5-.2.7-.1l26 21.3c.2.2.2.5.1.7s-.3.2-.4.2zM148.4 105c-.1 0-.2 0-.3-.1l-26.3-19.7c-.2-.2-.3-.5-.1-.7.2-.2.5-.3.7-.1l26.3 19.7c.2.2.3.5.1.7-.1.2-.2.2-.4.2zM145.7 115.4c-.1 0-.2 0-.3-.1l-25.1-17.6c-.2-.2-.3-.5-.1-.7.2-.2.5-.3.7-.1l25.1 17.6c.2.2.3.5.1.7-.1.1-.3.2-.4.2z"/></g><g id="hand_r"><path class="st2" d="M665.4 164.2c-.3-.7-.6-1.4-1.1-1.9-.1-.1-.2-.3-.4-.4-1.3-1.2-3.1-1.9-4.9-1.7 1.4-.6 2.5-1.7 3.1-3.1.6-1.3.7-2.9.2-4.4-.9-2.6-3.6-4.3-6.4-4h-.4c.1 0 .2-.1.3-.2 2.4-1.3 3.6-4.1 2.9-6.8 0-.1-.1-.3-.1-.4-.6-1.8-2-3.1-3.7-3.7-1.1-.4-2.3-.5-3.5-.2.7-.5 1.2-1.1 1.7-1.7 1.1-1.6 1.3-3.8.4-5.7-.9-2-2.8-3.2-4.8-3.5-.7-.1-1.3-.1-2 .1-.3.1-.7.2-1 .3-.1 0-.2.1-.3.1l-.4.2-3.5 1.6-.1.1-6.1 2.7-2 .9-6.1 2.7-3 1.3-3.6 1.6-1.1.5-3.6 1.6 1.9-4.1c1.4-3 .1-6.6-2.9-8-.8-.4-1.7-.5-2.5-.5-2.3 0-4.5 1.3-5.5 3.5 0 0-15.5 36-15.7 36.6h.1c5.2 1.8 10.6 3.5 16.3 5.1 3-2.6 6.7-5 11.1-6.8 0 .5.2.9.3 1.4 1.1 3.1 4.6 4.8 7.8 3.7l5.3-1.8c-2.3 1.5-3.4 4.3-2.5 7 .3.9.8 1.7 1.5 2.3l.3.3c.1.1.2.2.3.2.1.1.2.2.3.2.1.1.2.1.3.2.4.3.9.5 1.4.6.2.1.4.1.6.1.6.1 1.2.1 1.8 0 .4 0 .8-.1 1.2-.3l.2-.1 5.3-1.8 12.2-4 6.6-2.2h.1c.3-.1.6-.2.9-.4 2.6-1.3 3.9-4.4 2.8-7.2z"/><path d="M622.1 160.5c-.2 0-.4-.1-.5-.3-.1-.3 0-.5.3-.6l29-10.4c.3-.1.5 0 .6.3s0 .5-.3.6l-29.1 10.4c.1 0 0 0 0 0zM632.1 169.8c-.2 0-.4-.1-.5-.3-.1-.3 0-.5.3-.6l23.8-8.7c.3-.1.5 0 .6.3s0 .5-.3.6l-23.9 8.7c.1 0 0 0 0 0zM647.4 138.8c-.1-.2-.4-.4-.7-.2-6.5 3-13.2 6-20 9-5.7 2.5-10.6 4.6-13.2 2.6-1-.8-1.7-2.2-1.9-4.1 0-.3-.3-.5-.5-.5-.3 0-.5.3-.4.5.2 2 .8 3.5 1.9 4.5.1.1.2.2.4.3.1.1.3.2.4.3.8.5 1.8.7 2.8.7 2.9 0 6.7-1.7 10.9-3.5 6.8-3 13.5-6 20-9 .3 0 .4-.3.3-.6z"/></g></g></g><path id="star" class="st6" d="M652.7 67.7c-6.1 12.4-12.2 24.9-18.2 37.3l-5.7-32.4c-9.8 5.4-19.7 10.8-29.5 16.3l15.3-30c-10.1-2.4-20.2-4.7-30.4-7.1 11.1-3.7 22.1-7.4 33.2-11.1-3.6-10.3-7.2-20.7-10.8-31 9.3 6.8 18.5 13.7 27.8 20.5 6.1-10 12.2-20 18.2-30 .6 11 1.3 22 1.9 33 10.3-1.3 20.6-2.6 30.9-3.8-7.7 7.8-15.4 15.7-23.1 23.5 7.6 6.8 15.1 13.5 22.7 20.3-10.7-2-21.5-3.8-32.3-5.5z"/><g id="test_tube"><circle class="st3" cx="638.5" cy="114.9" r="2.3"/><circle class="st3" cx="629" cy="120.7" r="2.1"/><circle class="st3" cx="637.1" cy="122.9" r="1.4"/><circle class="st3" cx="630" cy="129.9" r="1"/><circle class="st3" cx="641" cy="105.8" r="1.4"/><circle class="st3" cx="629.3" cy="111.9" r=".7"/><circle class="st3" cx="642.4" cy="122.9" r=".7"/><path class="st3" d="M641.5 128.8l-.1.1-6.1 2.7c-.2-.5-.4-1-.4-1.6 0-1.9 1.5-3.4 3.4-3.4 1.4 0 2.7.9 3.2 2.2zM627.2 135.1l-3 1.3v-.3c0-.9.8-1.7 1.7-1.7.5.1 1 .3 1.3.7z"/><path class="st3" d="M645.3 95.8h-20.4c-2.8 0-5.1 2.5-5.1 5.5 0 2.6 1.7 4.8 4 5.4l-4.2 31.8 1.1-.5 4.2-31.7c0-.3-.2-.5-.4-.6-2.1-.3-3.6-2.2-3.6-4.5 0-2.5 1.8-4.5 4.1-4.5h20.4c2.3 0 4.1 2 4.1 4.5 0 2.2-1.4 4.1-3.4 4.5-.2 0-.4.2-.4.5V127c.3-.1.7-.2 1-.3v-20.1c2.2-.6 3.8-2.8 3.8-5.3-.1-3-2.4-5.5-5.2-5.5zM675 194l-12.4-22.6c-.3.2-.5.3-.9.4h-.1l12.1 22h-93l32.7-42.5c-.2-.1-.3-.2-.4-.3-.1-.1-.3-.2-.4-.3L579.3 194c-.1.2-.1.4 0 .5.1.2.2.3.4.3h94.9c.2 0 .3-.1.4-.2v-.6z"/><path class="st3" d="M655 174l-12.1 4.1-5.3 1.8-.2.1-1.2.3c-.6.1-1.2.1-1.8 0-.2 0-.4-.1-.6-.1-.5-.1-1-.3-1.4-.6-.1-.1-.2-.1-.3-.2-.1-.1-.2-.2-.3-.2-.1-.1-.2-.1-.3-.2l-.3-.3c-.7-.6-1.2-1.4-1.5-2.3-.9-2.7.1-5.5 2.5-7l-5.3 1.8c-3.2 1.1-6.7-.6-7.8-3.7-.2-.5-.3-.9-.3-1.4-4.4 1.7-8.1 4.2-11.1 6.8-6.6 5.7-9.9 12.3-11 14.5h64.5c-.4-1.3-1.8-7.5-6.2-13.4z"/></g></g></svg>