<svg xmlns="http://www.w3.org/2000/svg" xmlns:xlink="http://www.w3.org/1999/xlink" width="1200" height="630" viewBox="0 0 1200 630"><defs><style>.cls-1{isolation:isolate;}.cls-2{fill:url(#Degradado_sin_nombre_22);}.cls-3{fill:url(#Degradado_sin_nombre_61);}.cls-4{fill:#332316;mix-blend-mode:screen;}.cls-5{fill:url(#Degradado_sin_nombre_26);}.cls-6,.cls-61{fill:#fff;}.cls-7{fill:#3a4d57;}.cls-8{fill:#848484;}.cls-9{fill:#f9f8f7;}.cls-10{fill:#d3d3d3;}.cls-11{fill:#6b6b6b;}.cls-12,.cls-15,.cls-88{mix-blend-mode:multiply;}.cls-13{fill:#e9e5d9;}.cls-14{fill:url(#Degradado_sin_nombre_60);}.cls-15{fill:#d8d8d8;}.cls-16{fill:url(#Degradado_sin_nombre_41);}.cls-17{fill:url(#Degradado_sin_nombre_41-2);}.cls-18{fill:#467a6a;}.cls-19{fill:url(#Gradient_bez_nazwy_7);}.cls-20{fill:url(#Degradado_sin_nombre_41-3);}.cls-21{fill:url(#Degradado_sin_nombre_41-4);}.cls-22{fill:url(#Degradado_sin_nombre_41-5);}.cls-23{fill:url(#Degradado_sin_nombre_41-6);}.cls-24{fill:url(#Degradado_sin_nombre_41-7);}.cls-25{fill:url(#Degradado_sin_nombre_41-8);}.cls-26{fill:url(#Degradado_sin_nombre_41-9);}.cls-27{fill:url(#Degradado_sin_nombre_41-10);}.cls-28{fill:url(#Gradient_bez_nazwy_7-2);}.cls-29{fill:url(#Gradient_bez_nazwy_7-3);}.cls-30{fill:url(#Degradado_sin_nombre_22-2);}.cls-31{fill:url(#Degradado_sin_nombre_22-3);}.cls-32{fill:url(#Degradado_sin_nombre_22-4);}.cls-33{fill:url(#Degradado_sin_nombre_22-5);}.cls-34{fill:url(#Degradado_sin_nombre_22-6);}.cls-35{fill:url(#Degradado_sin_nombre_22-7);}.cls-36{fill:url(#Degradado_sin_nombre_22-8);}.cls-37{fill:url(#Degradado_sin_nombre_22-9);}.cls-38{fill:url(#Degradado_sin_nombre_22-10);}.cls-39{fill:url(#Degradado_sin_nombre_22-11);}.cls-40{fill:url(#Gradient_bez_nazwy_14);}.cls-41{fill:url(#Degradado_sin_nombre_22-12);}.cls-42{fill:#ffca55;opacity:0.3;}.cls-43{fill:#f99569;}.cls-43,.cls-57{opacity:0.4;}.cls-44,.cls-53,.cls-92{opacity:0.6;}.cls-44{fill:url(#Gradient_bez_nazwy_7-4);}.cls-45{fill:#57afff;}.cls-46{fill:#164dd6;}.cls-46,.cls-58{opacity:0.7;}.cls-47{fill:#f9f4ea;}.cls-48{fill:url(#Gradient_bez_nazwy_9);}.cls-49{fill:#33333d;}.cls-50{fill:url(#Gradient_bez_nazwy_9-2);}.cls-51{fill:url(#Gradient_bez_nazwy_9-3);}.cls-52{fill:#f2f2f2;}.cls-54,.cls-61{opacity:0.9;}.cls-54{fill:url(#Gradient_bez_nazwy_7-5);}.cls-55{fill:url(#Gradient_bez_nazwy_7-6);}.cls-56{fill:url(#Gradient_bez_nazwy_7-7);}.cls-57{fill:url(#Gradient_bez_nazwy_7-8);}.cls-59{fill:url(#Gradient_bez_nazwy_10);}.cls-60{fill:url(#Gradient_bez_nazwy_9-4);}.cls-62{fill:url(#Gradient_bez_nazwy_5);}.cls-63{fill:#e8b128;}.cls-64{fill:url(#Degradado_sin_nombre_22-13);}.cls-65{fill:url(#Degradado_sin_nombre_22-14);}.cls-66{fill:url(#Gradient_bez_nazwy_7-9);}.cls-67{fill:url(#Degradado_sin_nombre_65);}.cls-68{fill:url(#Degradado_sin_nombre_65-2);}.cls-69{fill:url(#Gradient_bez_nazwy_5-2);}.cls-70{fill:url(#Degradado_sin_nombre_22-15);}.cls-71{fill:url(#Degradado_sin_nombre_22-16);}.cls-72{fill:#091238;}.cls-73{fill:url(#Degradado_sin_nombre_65-3);}.cls-74{fill:url(#Degradado_sin_nombre_54);}.cls-75{fill:url(#Degradado_sin_nombre_44);}.cls-76{fill:url(#Degradado_sin_nombre_44-2);}.cls-77{fill:url(#Degradado_sin_nombre_55);}.cls-78{fill:url(#Degradado_sin_nombre_44-3);}.cls-79{fill:url(#Degradado_sin_nombre_44-4);}.cls-80{fill:url(#Degradado_sin_nombre_55-2);}.cls-81{fill:url(#Degradado_sin_nombre_44-5);}.cls-82{fill:url(#Degradado_sin_nombre_55-3);}.cls-83{fill:url(#Degradado_sin_nombre_44-6);}.cls-84{fill:url(#Degradado_sin_nombre_55-4);}.cls-85{fill:url(#Degradado_sin_nombre_44-7);}.cls-86{fill:url(#Degradado_sin_nombre_55-5);}.cls-87{fill:url(#Degradado_sin_nombre_44-8);}.cls-88{fill:#cecece;}.cls-89{fill:url(#Degradado_sin_nombre_54-2);}.cls-90{fill:url(#Degradado_sin_nombre_54-3);}.cls-91{fill:none;}.cls-92{fill:url(#Gradient_bez_nazwy_7-10);}</style><linearGradient id="Degradado_sin_nombre_22" x1="-2" y1="225.88" x2="1200" y2="225.88" gradientUnits="userSpaceOnUse"><stop offset="0" stop-color="#005894"/><stop offset="1" stop-color="#0077bf"/></linearGradient><linearGradient id="Degradado_sin_nombre_61" x1="705.57" y1="224.76" x2="1199.62" y2="224.76" gradientUnits="userSpaceOnUse"><stop offset="0" stop-color="#fff" stop-opacity="0"/><stop offset="1" stop-color="#fff" stop-opacity="0.3"/></linearGradient><linearGradient id="Degradado_sin_nombre_26" y1="541" x2="1202" y2="541" gradientUnits="userSpaceOnUse"><stop offset="0" stop-color="#6ac2ff"/><stop offset="1" stop-color="#0077bf"/></linearGradient><linearGradient id="Degradado_sin_nombre_60" x1="705.58" y1="538.95" x2="1199.62" y2="538.95" gradientUnits="userSpaceOnUse"><stop offset="0" stop-color="#fff" stop-opacity="0"/><stop offset="1" stop-color="#fff" stop-opacity="0.4"/></linearGradient><linearGradient id="Degradado_sin_nombre_41" x1="799.09" y1="325.18" x2="849.59" y2="283.14" gradientUnits="userSpaceOnUse"><stop offset="0" stop-color="#3edd9c"/><stop offset="1" stop-color="#3e9f9c"/></linearGradient><linearGradient id="Degradado_sin_nombre_41-2" x1="791.32" y1="372.2" x2="770.06" y2="245.59" xlink:href="#Degradado_sin_nombre_41"/><linearGradient id="Gradient_bez_nazwy_7" x1="791.19" y1="409.15" x2="791.19" y2="308.82" gradientUnits="userSpaceOnUse"><stop offset="0" stop-color="#36078b"/><stop offset="1" stop-color="#16b1ff"/></linearGradient><linearGradient id="Degradado_sin_nombre_41-3" x1="1016.44" y1="510.53" x2="1044.65" y2="480.31" gradientTransform="matrix(-1, -0.01, -0.01, 1, 1408.46, -3.39)" xlink:href="#Degradado_sin_nombre_41"/><linearGradient id="Degradado_sin_nombre_41-4" x1="923.3" y1="620.05" x2="951.5" y2="589.82" gradientTransform="matrix(-0.93, -0.37, -0.37, 0.93, 1486.57, 269.18)" xlink:href="#Degradado_sin_nombre_41"/><linearGradient id="Degradado_sin_nombre_41-5" x1="769.76" y1="699.2" x2="795.29" y2="671.84" gradientTransform="matrix(-0.66, -0.75, -0.75, 0.66, 1438.96, 614.28)" xlink:href="#Degradado_sin_nombre_41"/><linearGradient id="Degradado_sin_nombre_41-6" x1="605.26" y1="701.3" x2="628.2" y2="676.72" gradientTransform="matrix(-0.27, -0.96, -0.96, 0.27, 1246.87, 893.97)" xlink:href="#Degradado_sin_nombre_41"/><linearGradient id="Degradado_sin_nombre_41-7" x1="454.22" y1="513.45" x2="385.78" y2="408.68" xlink:href="#Degradado_sin_nombre_41"/><linearGradient id="Degradado_sin_nombre_41-8" x1="453.81" y1="419.97" x2="414.15" y2="381.63" xlink:href="#Degradado_sin_nombre_41"/><linearGradient id="Degradado_sin_nombre_41-9" x1="404.38" y1="398.39" x2="297.94" y2="295.53" xlink:href="#Degradado_sin_nombre_41"/><linearGradient id="Degradado_sin_nombre_41-10" x1="363.6" y1="450.09" x2="284.62" y2="373.76" xlink:href="#Degradado_sin_nombre_41"/><linearGradient id="Gradient_bez_nazwy_7-2" x1="925.82" y1="495.3" x2="925.82" y2="538.38" gradientTransform="matrix(-1, 0, 0, 1, 1321.21, 0)" xlink:href="#Gradient_bez_nazwy_7"/><linearGradient id="Gradient_bez_nazwy_7-3" x1="925.82" y1="506.29" x2="925.82" y2="487.53" gradientTransform="matrix(-1, 0, 0, 1, 1321.21, 0)" xlink:href="#Gradient_bez_nazwy_7"/><linearGradient id="Degradado_sin_nombre_22-2" x1="776.64" y1="411.36" x2="776.64" y2="271.64" gradientTransform="matrix(-1, 0, 0, 1, 1405.21, 0)" xlink:href="#Degradado_sin_nombre_22"/><linearGradient id="Degradado_sin_nombre_22-3" x1="724.91" y1="391.49" x2="852.47" y2="391.49" xlink:href="#Degradado_sin_nombre_22"/><linearGradient id="Degradado_sin_nombre_22-4" x1="827.78" y1="482.51" x2="842.19" y2="482.51" xlink:href="#Degradado_sin_nombre_22"/><linearGradient id="Degradado_sin_nombre_22-5" x1="735.24" y1="482.52" x2="749.65" y2="482.52" xlink:href="#Degradado_sin_nombre_22"/><linearGradient id="Degradado_sin_nombre_22-6" x1="666.36" y1="412.02" x2="666.36" y2="264.97" gradientTransform="matrix(-1, 0, 0, 1, 1405.21, 0)" xlink:href="#Degradado_sin_nombre_22"/><linearGradient id="Degradado_sin_nombre_22-7" x1="414.96" y1="482.52" x2="429.38" y2="482.52" xlink:href="#Degradado_sin_nombre_22"/><linearGradient id="Degradado_sin_nombre_22-8" x1="890.51" y1="412.03" x2="890.51" y2="264.98" gradientTransform="matrix(-1, 0, 0, 1, 1405.21, 0)" xlink:href="#Degradado_sin_nombre_22"/><linearGradient id="Degradado_sin_nombre_22-9" x1="986.64" y1="412.02" x2="986.64" y2="264.97" gradientTransform="matrix(-1, 0, 0, 1, 1405.21, 0)" xlink:href="#Degradado_sin_nombre_22"/><linearGradient id="Degradado_sin_nombre_22-10" x1="570.22" y1="411.36" x2="570.22" y2="271.67" gradientTransform="matrix(-1, 0, 0, 1, 1405.21, 0)" xlink:href="#Degradado_sin_nombre_22"/><linearGradient id="Degradado_sin_nombre_22-11" x1="662.77" y1="411.36" x2="662.77" y2="271.67" gradientTransform="matrix(-1, 0, 0, 1, 1405.21, 0)" xlink:href="#Degradado_sin_nombre_22"/><linearGradient id="Gradient_bez_nazwy_14" x1="890.51" y1="380.68" x2="890.51" y2="350.95" gradientTransform="matrix(-1, 0, 0, 1, 1405.21, 0)" gradientUnits="userSpaceOnUse"><stop offset="0" stop-color="#fe4500"/><stop offset="1" stop-color="#efdb29"/></linearGradient><linearGradient id="Degradado_sin_nombre_22-12" x1="983.05" y1="411.36" x2="983.05" y2="271.67" gradientTransform="matrix(-1, 0, 0, 1, 1405.21, 0)" xlink:href="#Degradado_sin_nombre_22"/><linearGradient id="Gradient_bez_nazwy_7-4" x1="634.96" y1="410.22" x2="750.03" y2="230.35" xlink:href="#Gradient_bez_nazwy_7"/><linearGradient id="Gradient_bez_nazwy_9" x1="638.55" y1="298.72" x2="652.02" y2="298.72" gradientUnits="userSpaceOnUse"><stop offset="0" stop-color="#fea600"/><stop offset="1" stop-color="#efdb29"/></linearGradient><linearGradient id="Gradient_bez_nazwy_9-2" x1="707.22" y1="301.11" x2="768.57" y2="301.11" xlink:href="#Gradient_bez_nazwy_9"/><linearGradient id="Gradient_bez_nazwy_9-3" x1="742.17" y1="284.61" x2="752.35" y2="284.61" xlink:href="#Gradient_bez_nazwy_9"/><linearGradient id="Gradient_bez_nazwy_7-5" x1="733.5" y1="254.22" x2="742.94" y2="239.46" gradientTransform="translate(-7.11 531.58) rotate(-38.53)" xlink:href="#Gradient_bez_nazwy_7"/><linearGradient id="Gradient_bez_nazwy_7-6" x1="733.48" y1="263.27" x2="738.16" y2="247.23" gradientTransform="translate(-7.11 531.58) rotate(-38.53)" xlink:href="#Gradient_bez_nazwy_7"/><linearGradient id="Gradient_bez_nazwy_7-7" x1="673.8" y1="402.18" x2="696.57" y2="366.58" xlink:href="#Gradient_bez_nazwy_7"/><linearGradient id="Gradient_bez_nazwy_7-8" x1="685.24" y1="375.98" x2="685.24" y2="368.54" xlink:href="#Gradient_bez_nazwy_7"/><linearGradient id="Gradient_bez_nazwy_10" x1="659.24" y1="272.5" x2="734.43" y2="190.64" gradientUnits="userSpaceOnUse"><stop offset="0" stop-color="#27a48b"/><stop offset="0.54" stop-color="#29d47d"/><stop offset="1" stop-color="#168d68"/></linearGradient><linearGradient id="Gradient_bez_nazwy_9-4" x1="670.95" y1="279.63" x2="703.82" y2="230.94" xlink:href="#Gradient_bez_nazwy_9"/><linearGradient id="Gradient_bez_nazwy_5" x1="683.02" y1="241.78" x2="691.29" y2="226.07" gradientUnits="userSpaceOnUse"><stop offset="0" stop-color="#ff664f"/><stop offset="1" stop-color="#9e005d"/></linearGradient><linearGradient id="Degradado_sin_nombre_22-13" x1="590.96" y1="430.35" x2="596.1" y2="547.23" xlink:href="#Degradado_sin_nombre_22"/><linearGradient id="Degradado_sin_nombre_22-14" x1="561.68" y1="409.63" x2="567.74" y2="488.66" xlink:href="#Degradado_sin_nombre_22"/><linearGradient id="Gradient_bez_nazwy_7-9" x1="506.58" y1="348.45" x2="524.98" y2="261.53" gradientTransform="translate(-54.28 98.69) rotate(-9)" xlink:href="#Gradient_bez_nazwy_7"/><linearGradient id="Degradado_sin_nombre_65" x1="548.6" y1="464.87" x2="586.75" y2="284.73" gradientTransform="matrix(0.79, 0.62, -0.62, 0.79, 331.15, -337.49)" gradientUnits="userSpaceOnUse"><stop offset="0" stop-color="#be1622"/><stop offset="1" stop-color="#1d1d1b"/></linearGradient><linearGradient id="Degradado_sin_nombre_65-2" x1="721.33" y1="382.64" x2="757.67" y2="211.04" gradientTransform="matrix(-1, 0, 0, 1, 1261.3, 0)" xlink:href="#Degradado_sin_nombre_65"/><linearGradient id="Gradient_bez_nazwy_5-2" x1="553.14" y1="505.34" x2="566.47" y2="576.8" xlink:href="#Gradient_bez_nazwy_5"/><linearGradient id="Degradado_sin_nombre_22-15" x1="620.95" y1="492.7" x2="634.27" y2="564.16" xlink:href="#Degradado_sin_nombre_22"/><linearGradient id="Degradado_sin_nombre_22-16" x1="606.18" y1="495.45" x2="619.5" y2="566.91" xlink:href="#Degradado_sin_nombre_22"/><linearGradient id="Degradado_sin_nombre_65-3" x1="558.73" y1="318.13" x2="634.22" y2="259.18" gradientTransform="translate(-64.6 326.99) rotate(-25.73)" xlink:href="#Degradado_sin_nombre_65"/><linearGradient id="Degradado_sin_nombre_54" x1="623.65" y1="507.76" x2="352.71" y2="667.77" gradientUnits="userSpaceOnUse"><stop offset="0" stop-color="#575756"/><stop offset="1"/></linearGradient><linearGradient id="Degradado_sin_nombre_44" x1="549.62" y1="482.92" x2="549.62" y2="371.34" gradientUnits="userSpaceOnUse"><stop offset="0" stop-color="#3d3d3b"/><stop offset="1"/></linearGradient><linearGradient id="Degradado_sin_nombre_44-2" x1="592.94" y1="463.12" x2="314.16" y2="627.76" xlink:href="#Degradado_sin_nombre_44"/><linearGradient id="Degradado_sin_nombre_55" x1="549.62" y1="495.09" x2="549.62" y2="542.48" gradientUnits="userSpaceOnUse"><stop offset="0" stop-color="#b2b2b2"/><stop offset="1"/></linearGradient><linearGradient id="Degradado_sin_nombre_44-3" x1="549.62" y1="183.16" x2="549.62" y2="360.66" xlink:href="#Degradado_sin_nombre_44"/><linearGradient id="Degradado_sin_nombre_44-4" x1="549.62" y1="183.15" x2="549.62" y2="360.65" xlink:href="#Degradado_sin_nombre_44"/><linearGradient id="Degradado_sin_nombre_55-2" x1="529.81" y1="183.17" x2="529.81" y2="360.66" xlink:href="#Degradado_sin_nombre_55"/><linearGradient id="Degradado_sin_nombre_44-5" x1="621.17" y1="503.56" x2="350.23" y2="663.57" xlink:href="#Degradado_sin_nombre_44"/><linearGradient id="Degradado_sin_nombre_55-3" x1="572.78" y1="183.17" x2="572.78" y2="360.66" xlink:href="#Degradado_sin_nombre_55"/><linearGradient id="Degradado_sin_nombre_44-6" x1="632.28" y1="522.37" x2="361.34" y2="682.38" xlink:href="#Degradado_sin_nombre_44"/><linearGradient id="Degradado_sin_nombre_55-4" x1="503.35" y1="183.17" x2="503.35" y2="360.66" xlink:href="#Degradado_sin_nombre_55"/><linearGradient id="Degradado_sin_nombre_44-7" x1="614.32" y1="491.98" x2="343.4" y2="651.97" xlink:href="#Degradado_sin_nombre_44"/><linearGradient id="Degradado_sin_nombre_55-5" x1="599.24" y1="183.17" x2="599.24" y2="360.66" xlink:href="#Degradado_sin_nombre_55"/><linearGradient id="Degradado_sin_nombre_44-8" x1="639.12" y1="533.96" x2="368.19" y2="693.96" xlink:href="#Degradado_sin_nombre_44"/><linearGradient id="Degradado_sin_nombre_54-2" x1="549.62" y1="192.6" x2="549.62" y2="370.08" xlink:href="#Degradado_sin_nombre_54"/><linearGradient id="Degradado_sin_nombre_54-3" x1="549.76" y1="427.13" x2="629.45" y2="427.13" xlink:href="#Degradado_sin_nombre_54"/><linearGradient id="Gradient_bez_nazwy_7-10" x1="685.33" y1="373.07" x2="685.33" y2="303.66" xlink:href="#Gradient_bez_nazwy_7"/></defs><title>bootstrapping</title><g class="cls-1"><g id="Capa_1" data-name="Capa 1"><rect class="cls-2" x="-2" width="1202" height="451.77"/><rect class="cls-3" x="705.57" y="0.69" width="494.04" height="448.13"/><polygon class="cls-4" points="562.22 61.43 361.7 451.58 610.5 451.58 859.31 451.58 658.79 61.43 562.22 61.43"/><rect class="cls-5" y="452" width="1202" height="178"/><path class="cls-6" d="M702.79,200a.37.37,0,0,1-.14,0,84.63,84.63,0,0,0-49.34-12.87.29.29,0,0,1-.22-.1.27.27,0,0,1-.06-.24c1.17-4.5,2.42-9.28,3.67-14.07,1.29-5,2.58-9.9,3.8-14.56a.26.26,0,0,1,.26-.2,117.27,117.27,0,0,1,24.72,3.48,113.78,113.78,0,0,1,24.89,9.47.28.28,0,0,1,.14.31c-1,3.74-2,7.69-3,11.66-1.49,5.75-3,11.57-4.42,17a.28.28,0,0,1-.17.18Zm-45.15-13.56a85.78,85.78,0,0,1,21.46,2.76,84.66,84.66,0,0,1,23.53,10.11c1.38-5.29,2.87-11,4.33-16.61l3-11.46a114,114,0,0,0-24.58-9.32,116.23,116.23,0,0,0-24.4-3.46l-3.74,14.35c-1.21,4.66-2.42,9.32-3.57,13.72C655,186.44,656.31,186.41,657.64,186.41Z"/><path class="cls-6" d="M681.8,179.18a.26.26,0,0,1-.19-.07l-21-20.75a.27.27,0,0,1,0-.38.26.26,0,0,1,.38,0l20.93,20.64,28.31-7.8a.28.28,0,0,1,.33.18.26.26,0,0,1-.19.33l-28.46,7.84Z"/><path class="cls-6" d="M671.05,154.62a.41.41,0,1,1,0-.58A.4.4,0,0,1,671.05,154.62Z"/><path class="cls-6" d="M693.21,206.23a.4.4,0,0,1-.58,0,.41.41,0,0,1,0-.58.41.41,0,1,1,.56.6Z"/><path class="cls-6" d="M679.67,167.13a.41.41,0,0,1-.58,0,.41.41,0,0,1,.6-.56A.41.41,0,0,1,679.67,167.13Z"/><path class="cls-6" d="M651.35,179a.41.41,0,0,1-.56-.6.41.41,0,0,1,.58,0A.42.42,0,0,1,651.35,179Z"/><path class="cls-6" d="M696,183.84a.4.4,0,0,1-.58,0,.41.41,0,1,1,.6-.56A.42.42,0,0,1,696,183.84Z"/><path class="cls-6" d="M689.15,173.91a.62.62,0,1,1,0-.87A.61.61,0,0,1,689.15,173.91Z"/><path class="cls-6" d="M701.31,163a1,1,0,0,1-1.4,0,1,1,0,1,1,1.44-1.36A1,1,0,0,1,701.31,163Z"/><path class="cls-6" d="M664.48,181.7a.62.62,0,0,1-.87,0,.62.62,0,1,1,.9-.84A.61.61,0,0,1,664.48,181.7Z"/><path class="cls-6" d="M658.9,170.2a1.24,1.24,0,1,1-.89-1.5A1.24,1.24,0,0,1,658.9,170.2Z"/><path class="cls-6" d="M707,188.46a1.24,1.24,0,1,1-2.4-.62,1.24,1.24,0,0,1,2.4.62Z"/><path class="cls-6" d="M690.44,162.94a1.23,1.23,0,1,1-.88-1.51A1.23,1.23,0,0,1,690.44,162.94Z"/><circle class="cls-6" cx="669.72" cy="166.82" r="1.45"/><path class="cls-6" d="M698.22,174.77a.84.84,0,0,1-1,.59.82.82,0,0,1-.59-1,.81.81,0,0,1,1-.59A.84.84,0,0,1,698.22,174.77Z"/><path class="cls-6" d="M654.89,187.21a1.65,1.65,0,1,1-1.18-2A1.64,1.64,0,0,1,654.89,187.21Z"/><path class="cls-6" d="M683,179.05a1.23,1.23,0,1,1-.88-1.51A1.23,1.23,0,0,1,683,179.05Z"/><path class="cls-6" d="M711.45,171.4a1.23,1.23,0,1,1-.88-1.51A1.24,1.24,0,0,1,711.45,171.4Z"/><path class="cls-6" d="M704.77,200.23a2.06,2.06,0,1,1-1.47-2.52A2.06,2.06,0,0,1,704.77,200.23Z"/><path class="cls-6" d="M662.77,158.69a2.06,2.06,0,1,1-4-1,2.06,2.06,0,0,1,4,1Z"/><rect class="cls-6" x="685.16" y="185.97" width="3.96" height="24.95"/><path class="cls-6" d="M676.59,189.7a2.28,2.28,0,0,1,.7-1.66,2.48,2.48,0,0,1,1.81-.71,2.6,2.6,0,0,1,1.82.68,2.29,2.29,0,0,1,0,3.39,2.6,2.6,0,0,1-1.82.68,2.48,2.48,0,0,1-1.81-.71A2.28,2.28,0,0,1,676.59,189.7Z"/><rect class="cls-6" x="677.14" y="195.08" width="3.96" height="15.84"/><path class="cls-6" d="M673,198.91a5.48,5.48,0,0,0-1.11-2.14,5.54,5.54,0,0,0-2.16-1.55,8.7,8.7,0,0,0-3.48-.6,10.84,10.84,0,0,0-3.58.63,8.89,8.89,0,0,0-3.12,1.89l2.05,2.4a6.66,6.66,0,0,1,1.91-1.29,5.74,5.74,0,0,1,2.41-.52,4.57,4.57,0,0,1,2.56.71,2.46,2.46,0,0,1,1.07,2.2V201a37.52,37.52,0,0,0-3.78.19,14.33,14.33,0,0,0-3.52.74,6.37,6.37,0,0,0-2.59,1.62,3.94,3.94,0,0,0-1,2.84,4.32,4.32,0,0,0,.58,2.32,4.69,4.69,0,0,0,1.45,1.52,5.91,5.91,0,0,0,1.91.82,8.42,8.42,0,0,0,2,.25,6.5,6.5,0,0,0,3-.68,4.39,4.39,0,0,0,1.91-1.73h.1v2h3.7V201.3A9.22,9.22,0,0,0,673,198.91Zm-3.45,5.34a4.08,4.08,0,0,1-1,3,4.17,4.17,0,0,1-3.11,1.09,4.75,4.75,0,0,1-1-.1,3,3,0,0,1-.89-.33,1.7,1.7,0,0,1-.64-.61,1.63,1.63,0,0,1-.25-.94,1.77,1.77,0,0,1,.59-1.4,4.15,4.15,0,0,1,1.49-.79,8.88,8.88,0,0,1,2-.37c.7-.05,1.37-.08,2-.08h.89Z"/><path class="cls-6" d="M650.12,194.62a6,6,0,0,1,2.65.54,5.22,5.22,0,0,1,1.82,1.44,5.62,5.62,0,0,1,1,2A8.66,8.66,0,0,1,656,201v9.9h-4v-8.78a10.61,10.61,0,0,0-.1-1.45,4.07,4.07,0,0,0-.43-1.37,2.73,2.73,0,0,0-.91-1,2.59,2.59,0,0,0-1.53-.4,2.94,2.94,0,0,0-1.58.4,3.46,3.46,0,0,0-1.1,1,4.53,4.53,0,0,0-.62,1.4,6.38,6.38,0,0,0-.2,1.54v8.65h-4v-9.57a4.09,4.09,0,0,0-.71-2.46,2.55,2.55,0,0,0-2.22-1,3.07,3.07,0,0,0-1.55.38,3.23,3.23,0,0,0-1.07,1,4.36,4.36,0,0,0-.63,1.38,5.89,5.89,0,0,0-.21,1.57v8.71h-4V195.1H635v2.54a8,8,0,0,1,.78-1.12,5.4,5.4,0,0,1,1.06-1,4.8,4.8,0,0,1,1.4-.68,6,6,0,0,1,1.75-.25,5.39,5.39,0,0,1,3.07.83,5.45,5.45,0,0,1,1.88,2.18,5.68,5.68,0,0,1,2.11-2.23A5.8,5.8,0,0,1,650.12,194.62Z"/><path class="cls-6" d="M627.1,198.91a5.38,5.38,0,0,0-3.27-3.69,8.7,8.7,0,0,0-3.48-.6,10.89,10.89,0,0,0-3.58.63,9,9,0,0,0-3.12,1.89l2.05,2.4a7,7,0,0,1,1.91-1.29,5.78,5.78,0,0,1,2.41-.52,4.57,4.57,0,0,1,2.56.71,2.44,2.44,0,0,1,1.07,2.2V201a37.67,37.67,0,0,0-3.78.19,14.15,14.15,0,0,0-3.51.74,6.47,6.47,0,0,0-2.6,1.62,3.94,3.94,0,0,0-1,2.84,4.32,4.32,0,0,0,.58,2.32,4.8,4.8,0,0,0,1.45,1.52,6,6,0,0,0,1.91.82,8.42,8.42,0,0,0,2,.25,6.54,6.54,0,0,0,3-.68,4.44,4.44,0,0,0,1.91-1.73h.1v2h3.7V201.3A9.23,9.23,0,0,0,627.1,198.91Zm-3.44,5.34a4.08,4.08,0,0,1-1.06,3,4.15,4.15,0,0,1-3.1,1.09,4.68,4.68,0,0,1-1-.1,3.21,3.21,0,0,1-.9-.33,1.78,1.78,0,0,1-.64-.61,1.71,1.71,0,0,1-.25-.94,1.74,1.74,0,0,1,.6-1.4,4,4,0,0,1,1.49-.79,8.79,8.79,0,0,1,1.94-.37c.7-.05,1.37-.08,2-.08h.9Z"/><path class="cls-6" d="M610.32,199.67a8,8,0,0,0-1.58-2.64,7.33,7.33,0,0,0-2.44-1.77,7.43,7.43,0,0,0-3.11-.64,7.2,7.2,0,0,0-1.94.24,7.44,7.44,0,0,0-1.5.61,5.72,5.72,0,0,0-1.86,1.62h-.11V186h-3.95v24.94h3.76v-2.37h.06a5.45,5.45,0,0,0,2.3,2.11,7,7,0,0,0,3.15.72,7.56,7.56,0,0,0,3.25-.68,7.48,7.48,0,0,0,2.44-1.81,8,8,0,0,0,1.55-2.68,9.77,9.77,0,0,0,.54-3.28A9.1,9.1,0,0,0,610.32,199.67Zm-3.74,5.11a5.3,5.3,0,0,1-.84,1.66,4.32,4.32,0,0,1-1.42,1.18,4.49,4.49,0,0,1-4,0,4.77,4.77,0,0,1-1.46-1.17,5.08,5.08,0,0,1-.93-1.63,5.58,5.58,0,0,1-.31-1.83,5.75,5.75,0,0,1,.31-1.85,5.26,5.26,0,0,1,.93-1.65,5,5,0,0,1,1.46-1.19,4.16,4.16,0,0,1,1.95-.46,4.38,4.38,0,0,1,2,.44,4.3,4.3,0,0,1,1.42,1.18,5.25,5.25,0,0,1,.84,1.63,6.35,6.35,0,0,1,.28,1.83A6.23,6.23,0,0,1,606.58,204.78Z"/><path class="cls-6" d="M584.13,194.62a5.93,5.93,0,0,1,2.65.54,5.22,5.22,0,0,1,1.82,1.44,5.8,5.8,0,0,1,1,2A9,9,0,0,1,590,201v9.9h-4v-8.78a10.68,10.68,0,0,0-.11-1.45,3.86,3.86,0,0,0-.43-1.37,2.7,2.7,0,0,0-.9-1,2.65,2.65,0,0,0-1.54-.4,3,3,0,0,0-1.58.4,3.33,3.33,0,0,0-1.09,1,4.33,4.33,0,0,0-.63,1.4,6.38,6.38,0,0,0-.2,1.54v8.65h-4v-9.57a4.09,4.09,0,0,0-.71-2.46,2.55,2.55,0,0,0-2.22-1,3.1,3.1,0,0,0-1.55.38,3.23,3.23,0,0,0-1.07,1,4.85,4.85,0,0,0-.63,1.38,5.89,5.89,0,0,0-.21,1.57v8.71h-4V195.1H569v2.54a8,8,0,0,1,.78-1.12,5.4,5.4,0,0,1,1.06-1,4.8,4.8,0,0,1,1.4-.68,6.11,6.11,0,0,1,1.75-.25,5.36,5.36,0,0,1,3.07.83,5.52,5.52,0,0,1,1.88,2.18,5.68,5.68,0,0,1,2.11-2.23A5.8,5.8,0,0,1,584.13,194.62Z"/><path class="cls-6" d="M561.29,210.92h-3.76v-2.54h-.07a5.11,5.11,0,0,1-1.82,2.09,5.24,5.24,0,0,1-3.09.91,5.93,5.93,0,0,1-2.65-.54,5.22,5.22,0,0,1-1.82-1.44,5.62,5.62,0,0,1-1-2,8.66,8.66,0,0,1-.33-2.38v-9.9h4v8.78a10.61,10.61,0,0,0,.1,1.45,4.07,4.07,0,0,0,.43,1.37,2.73,2.73,0,0,0,.91,1,2.59,2.59,0,0,0,1.53.4,3.44,3.44,0,0,0,1.63-.38,3.34,3.34,0,0,0,1.15-1,4.09,4.09,0,0,0,.68-1.37,5.28,5.28,0,0,0,.23-1.57v-8.71h4v15.85Z"/><path class="cls-6" d="M542.39,199.47a3.6,3.6,0,0,0-1.39-1.11,4.21,4.21,0,0,0-1.88-.44,4,4,0,0,0-1.91.44,4.15,4.15,0,0,0-1.38,1.18,5,5,0,0,0-.8,1.63,6.39,6.39,0,0,0-.27,1.83,6.45,6.45,0,0,0,.28,1.83,5.37,5.37,0,0,0,.84,1.63,4.25,4.25,0,0,0,1.41,1.17,4.08,4.08,0,0,0,2,.44,5,5,0,0,0,1.85-.36,3.47,3.47,0,0,0,1.49-1.06l2.48,2.51a6.53,6.53,0,0,1-2.53,1.64,9.44,9.44,0,0,1-3.31.58,9.85,9.85,0,0,1-3.32-.56,7.8,7.8,0,0,1-4.59-4.3,8.74,8.74,0,0,1-.67-3.52,8.63,8.63,0,0,1,.67-3.47,8.2,8.2,0,0,1,1.83-2.64,8.4,8.4,0,0,1,2.69-1.69,9.17,9.17,0,0,1,3.28-.59,9,9,0,0,1,3.39.66,6.41,6.41,0,0,1,2.59,1.82Z"/><path class="cls-6" d="M520.22,187.56h-3.6l-10.16,23.36h4.65l2.11-5.34h10.14l2.17,5.34h4.75ZM514.64,202l3.66-9.51,3.6,9.51Z"/><rect class="cls-7" x="607.18" y="-1" width="4.64" height="34.4"/><rect class="cls-7" x="605.43" y="6.23" width="8.15" height="27.18"/><path class="cls-8" d="M605.3,14.29h8.41a2.45,2.45,0,0,1,2.45,2.45V33.41a0,0,0,0,1,0,0h-13.3a0,0,0,0,1,0,0V16.73A2.45,2.45,0,0,1,605.3,14.29Z"/><rect class="cls-7" x="604.5" y="10.34" width="10" height="2.17"/><circle class="cls-9" cx="609.5" cy="68.51" r="15.23" transform="translate(7.2 184.37) rotate(-17.3)"/><rect class="cls-8" x="593.01" y="19.02" width="32.99" height="19.12"/><path class="cls-10" d="M669.51,74.42h-120l9.84-19.51a46.19,46.19,0,0,1,41.25-25.4h17.83a46.19,46.19,0,0,1,41.25,25.4Z"/><path class="cls-11" d="M637.81,33.78V31.67A7.82,7.82,0,0,0,630,23.85H589a7.82,7.82,0,0,0-7.82,7.82v2.11Z"/><g class="cls-12"><rect class="cls-13" x="602.85" y="14.29" width="0.07" height="4.73"/><path class="cls-13" d="M659.67,54.91a46.17,46.17,0,0,0-21.91-21.13h0V31.67A7.82,7.82,0,0,0,630,23.85h-4V19h-9.84V16.73a2.45,2.45,0,0,0-2.45-2.44h-4.89V19h4.37v4.83H615c1.92,0,3.47,3.5,3.47,7.82v2.11h0c4.13,4.29,7.59,11.64,9.72,21.13l4.36,19.51h37Z"/></g><path class="cls-8" d="M668.94,68.51H550.06a3,3,0,0,0-2.95,3h0a3,3,0,0,0,2.95,3H668.94a3,3,0,0,0,3-3h0A3,3,0,0,0,668.94,68.51Z"/><rect class="cls-7" x="604.5" y="6.23" width="10" height="2.17"/><rect class="cls-14" x="705.58" y="450.58" width="494.04" height="176.73"/><ellipse class="cls-15" cx="627.45" cy="566.35" rx="226.16" ry="5.24"/><path class="cls-15" d="M362.27,542.48c0,1.51,15.23,2.73,34,2.73s34-1.22,34-2.73-15.23-2.73-34-2.73S362.27,541,362.27,542.48Z"/><path class="cls-16" d="M809.45,284c6.86-2.14,9.6,2.83,8.94,6.65-.93,5.41-3.87,6,3.34,10.69,5.33,3.45,6.59,10.59.58,14.18-8.4,5,.55,8.87,2.51,13.16,4,8.86-2.58,11-13.27,15.43-11,4.52-19.19,2.32-26.85-4.66-5.65-5.16-9-11-5.63-16.24,4.88-7.56,12.87-2.42,9.77-9.78-1.86-4.41-2-12.61,8-13.33S799.58,287.13,809.45,284Z"/><path class="cls-17" d="M768.72,269.93c-8.63-1.81-11.38,4.59-10.13,9.17,1.79,6.5,5.45,6.9-2.81,13.47-6.09,4.84-6.78,13.72,1,17.38,10.85,5.12.38,10.91-1.5,16.38-3.87,11.3,4.46,13.16,18.05,17.27,13.94,4.21,23.71.55,32.24-8.89,6.3-7,9.72-14.48,4.94-20.51-6.85-8.65-16-1.43-13.1-10.79,1.75-5.6,1-15.65-11.33-15.33S781.15,272.52,768.72,269.93Z"/><path class="cls-18" d="M783.74,330c-8.94,13.05-11.83,22-.52,23.06s25.87-27.95,17.48-33.54C794.78,315.6,788,323.79,783.74,330Z"/><path class="cls-19" d="M778.37,384.3H804a6.52,6.52,0,0,0,6.44-5.48l5.64-34.49a1.3,1.3,0,0,0-1.28-1.51H767.58a1.31,1.31,0,0,0-1.29,1.51l5.64,34.49A6.54,6.54,0,0,0,778.37,384.3Z"/><path class="cls-18" d="M769.43,306.73c8,2.43,14.62,5.76,9.45,8.11s-23.1-5.11-20.6-8.32C760.05,304.26,765.62,305.58,769.43,306.73Z"/><path class="cls-18" d="M768.91,281.24c1.83,5,3.71,7.58,6.24,4.69s-2.59-12.63-5.78-11.42C767.12,275.36,768,278.84,768.91,281.24Z"/><path class="cls-18" d="M811,291.15c-2,5-2.24,8.14,1.57,7.65s6.42-11.18,3.23-12.39C813.52,285.56,811.91,288.78,811,291.15Z"/><path class="cls-18" d="M820.25,314.86c3.48-3.09,4.93-5.42,1.79-6.54s-9.37,6.14-7.37,8.32C816.08,318.19,818.59,316.33,820.25,314.86Z"/><path class="cls-18" d="M781.51,305.25c-3.15-1.06-5.12-1.13-4.7,1.22s7.13,3.63,7.78,1.61C785.05,306.66,783,305.76,781.51,305.25Z"/><path class="cls-20" d="M390.16,498.29c7.94-5.06-2.22-20.52-20.7-22,0,0-2,8.13-.16,15.36C370.85,497.81,379.05,505.36,390.16,498.29Z"/><path class="cls-21" d="M400.81,499.52c9.23-1.79,5.44-19.9-11.2-28.06,0,0-4.82,6.85-5.78,14.25C383,492,387.88,502,400.81,499.52Z"/><path class="cls-22" d="M407.26,500.76c8.2,2.3,12.48-13.89,2.33-27.25,0,0-6.68,3.59-10.46,9.18C395.91,487.46,395.78,497.55,407.26,500.76Z"/><path class="cls-23" d="M410.83,498.69c5.72,5.08,15.55-6.31,12.61-21.09,0,0-6.81.27-12.06,3.3C406.9,483.48,402.82,491.57,410.83,498.69Z"/><path class="cls-24" d="M427.37,460.58c31.41-12.32,6.28-73.74-57.72-91.73,0,0-12.55,27.29-11.14,54C359.7,445.63,383.37,477.84,427.37,460.58Z"/><path class="cls-18" d="M376,376.6A56.86,56.86,0,0,1,390.67,392a42.94,42.94,0,0,1,2.85,4.44c.87,1.54,1.9,2.95,2.62,4.57s1.53,3.17,2.3,4.74l1.16,2.35.92,2.48a134.65,134.65,0,0,1,6.2,20.1c.65,3.47,1.41,6.91,2.12,10.36l1.25,10.55c.2,1.75.55,3.49.64,5.27l.27,5.33c.19,3.55.33,7.11.58,10.67-.1,7.14,0,14.3-.21,21.49-.2,3.59-.46,7.18-.6,10.79l-.22,5.42-.11,2.71-.26,2.7-.86,10.86-.43,5.45-.27,5.5.52.1,3.78-21.51.47-2.69.3-2.71.59-5.43,1.2-10.86.29-2.72.1-2.73.22-5.46.42-10.92L416.1,462l-.21-5.47c-.07-1.82-.4-3.62-.59-5.43l-1.42-10.86-2.36-10.69a120.79,120.79,0,0,0-7.24-20.63l-1.1-2.51L401.85,404l-2.68-4.78c-.86-1.61-2.05-3-3.06-4.54a41,41,0,0,0-3.29-4.38,53.36,53.36,0,0,0-16.57-14.16Z"/><path class="cls-25" d="M407.52,430.45c-23.91-9.38-4.78-56.14,43.94-69.83,0,0,9.55,20.77,8.48,41.1C459,419.07,441,443.59,407.52,430.45Z"/><path class="cls-18" d="M446.36,366.22c-4.95,5.72-8.94,12.15-12.92,18.58-1.86,3.28-3.7,6.59-5.36,10l-2.56,5.07L423.16,405a253.24,253.24,0,0,0-14.67,42.92c-.84,3.69-1.56,7.41-2.35,11.11L405,464.6l-.86,5.61-1.58,11.23c-.37,3.76-.65,7.53-.91,11.29l-.4,5.65c-.09,1.88-.09,3.77-.14,5.66l-.21,11.3c0,3.76.37,7.53.54,11.29s.47,7.51.8,11.25h.4c.14-7.48,0-15,.36-22.44l.71-11.2c.13-1.87.22-3.74.38-5.6l.65-5.57L406,481.91l1.83-11.07.92-5.53,1.17-5.48c.81-3.65,1.55-7.32,2.42-11A313.22,313.22,0,0,1,426,406.18c5.65-13.82,12.2-27.39,20.64-39.73Z"/><path class="cls-26" d="M394.37,403.15C439.54,389.31,411,300.9,323.62,269c0,0-20.43,36.75-21.32,74.17C301.53,375.06,331.12,422.54,394.37,403.15Z"/><path class="cls-18" d="M331.65,280.34q2.49,3.45,4.72,7.08c1.59,2.34,3.06,4.76,4.52,7.19s2.88,4.86,4.22,7.34,2.8,4.89,4,7.46c2.56,5,5.25,9.95,7.49,15.12,1.16,2.56,2.39,5.08,3.59,7.61l3.25,7.77,3.24,7.76,2.92,7.88,2.93,7.87c1,2.62,1.7,5.34,2.56,8s1.71,5.33,2.57,8l1.31,4c.4,1.34.72,2.7,1.08,4.06l4.28,16.23c1.29,5.45,2.37,10.95,3.57,16.42.56,2.74,1.23,5.46,1.7,8.22s.81,5.55,1.28,8.31c.87,5.54,1.9,11.07,2.65,16.63.51,5.59,1.14,11.17,1.78,16.76l.95,8.4.45,8.43,1.05,16.92c.68,11.3.25,22.62.9,34.06l.63.06,1-17,.5-8.52c.17-2.84.37-5.68.27-8.52l-.13-17.07-.08-8.53-.62-8.51-1.26-17c-.62-5.65-1.52-11.27-2.26-16.92l-1.18-8.45c-.45-2.81-1.1-5.59-1.64-8.38-1.17-5.57-2.21-11.17-3.48-16.72a362.77,362.77,0,0,0-22.48-64.38c-9.63-20.59-21-40.52-35.81-57.92Z"/><path class="cls-27" d="M368.7,444.27c27.61-20-12.47-73.71-79.61-75.14,0,0-5.38,29.85,2.74,55.62C298.75,446.74,330,472.26,368.7,444.27Z"/><path class="cls-18" d="M297.24,375a140.12,140.12,0,0,1,19,15.37l4.45,4.14,4.23,4.36c2.88,2.84,5.46,6,8.09,9a274.14,274.14,0,0,1,27.64,39.65l5.81,10.62a54.94,54.94,0,0,1,2.71,5.43l2.57,5.49,2.63,5.47c.43.92.9,1.82,1.3,2.75l1.13,2.82c1.47,3.78,3,7.52,4.64,11.26s2.91,7.59,4.26,11.43l4,11.56c2.58,7.75,4.63,15.66,7.34,23.49l.44-.09c-1.84-8-3.52-16.05-5.48-24L388.49,502c-1.18-3.94-2.23-7.91-3.77-11.73l-4.28-11.55-1.07-2.89c-.39-.95-.84-1.88-1.25-2.82l-2.53-5.62-2.53-5.62a56.66,56.66,0,0,0-2.7-5.54l-5.81-10.87a229.67,229.67,0,0,0-29-39.79c-2.82-3-5.58-6-8.63-8.8l-4.49-4.22-4.71-4a122.21,122.21,0,0,0-20.32-13.92Z"/><path class="cls-18" d="M360.56,361.29A41.67,41.67,0,0,0,350,355.62c-1.83-.77-3.73-1.27-5.61-1.86s-3.84-.9-5.76-1.33a61.62,61.62,0,0,0-11.84-.92,34.85,34.85,0,0,0-11.9,2.21v.42a119.28,119.28,0,0,1,23,2.39,226.11,226.11,0,0,1,22.57,5.16Z"/><path class="cls-18" d="M353.34,336a30.76,30.76,0,0,0-7.93-6.31,42.52,42.52,0,0,0-4.4-2.27c-1.51-.66-3.06-1.21-4.61-1.79a46.21,46.21,0,0,0-9.75-2,26.24,26.24,0,0,0-10.18.92l0,.41a98.86,98.86,0,0,1,18.68,4.62,185.09,185.09,0,0,1,18.06,6.78Z"/><path class="cls-18" d="M385,355.83a32.77,32.77,0,0,0,3.07-5.94c.77-1.91,1.48-3.74,2.08-5.51.22-.93.61-1.75.89-2.63l.45-1.29a11,11,0,0,0,.48-1.26,29.11,29.11,0,0,1,2.83-5.42l-.15-.36a11.91,11.91,0,0,0-5.11,4,20.56,20.56,0,0,0-3,5.74,39,39,0,0,0-1.92,12.72Z"/><path class="cls-18" d="M370.17,328.22a23.58,23.58,0,0,0,1.25-5c.26-1.58.37-3.09.54-4.55s.22-2.88.37-4.26a18,18,0,0,1,1.06-4.56l-.16-.23a8.9,8.9,0,0,0-3,3.95,16.26,16.26,0,0,0-1.14,4.85,35.54,35.54,0,0,0,.81,9.87Z"/><path class="cls-28" d="M376,543.62h38.83a3.8,3.8,0,0,0,3.78-3.36l5.36-45a3.81,3.81,0,0,0-3.79-4.26H370.63a3.81,3.81,0,0,0-3.78,4.26l5.35,45A3.81,3.81,0,0,0,376,543.62Z"/><path class="cls-29" d="M365.61,499.92h59.57a2.52,2.52,0,0,0,2.49-2.13l1.17-7.65a2.52,2.52,0,0,0-2.49-2.89H364.44a2.51,2.51,0,0,0-2.48,2.89l1.17,7.65A2.51,2.51,0,0,0,365.61,499.92Z"/><path class="cls-30" d="M411.88,398.69H845.27a7.2,7.2,0,0,0,7.2-7.2h0a7.21,7.21,0,0,0-7.2-7.2H411.88a7.2,7.2,0,0,0-7.2,7.2h0A7.2,7.2,0,0,0,411.88,398.69Z"/><path class="cls-31" d="M732.11,398.69H845.27a7.2,7.2,0,0,0,7.2-7.2h0a7.21,7.21,0,0,0-7.2-7.2H732.11a7.2,7.2,0,0,0-7.2,7.2h0A7.2,7.2,0,0,0,732.11,398.69Z"/><rect class="cls-32" x="827.78" y="398.69" width="14.41" height="167.63"/><rect class="cls-33" x="735.24" y="398.71" width="14.41" height="167.61"/><rect class="cls-34" x="735.24" y="398.71" width="7.22" height="167.61"/><rect class="cls-35" x="414.96" y="398.71" width="14.41" height="167.61"/><rect class="cls-36" x="507.5" y="398.69" width="14.39" height="167.63"/><rect class="cls-37" x="414.96" y="398.71" width="7.22" height="167.61"/><polygon class="cls-38" points="842.19 398.69 842.19 403.32 827.79 413.6 827.79 398.69 842.19 398.69"/><polygon class="cls-39" points="735.25 398.69 749.64 398.69 749.64 403.32 735.25 413.6 735.25 398.69"/><polygon class="cls-40" points="507.51 398.69 521.9 398.69 521.9 403.32 507.51 413.6 507.51 398.69"/><polygon class="cls-41" points="429.36 398.69 429.36 403.32 414.96 413.6 414.96 398.69 429.36 398.69"/><polygon class="cls-42" points="757.6 341.4 624.5 341.4 634.27 254.77 767.38 254.77 757.6 341.4"/><polygon class="cls-43" points="637.59 261 636.18 273.49 626.4 360.13 759.51 360.13 769.29 273.49 770.7 261 637.59 261"/><polygon class="cls-44" points="757.6 358.23 624.5 358.23 634.27 271.59 767.38 271.59 757.6 358.23"/><polygon class="cls-6" points="754.43 353.31 628.78 353.31 633.52 311.35 759.16 311.35 754.43 353.31"/><polygon class="cls-45" points="668.16 348.39 632.3 348.39 636.14 314.33 672.01 314.33 668.16 348.39"/><polygon class="cls-46" points="679.19 335.25 650.34 335.25 653.43 307.84 682.29 307.84 679.19 335.25"/><polygon class="cls-47" points="661.81 305.68 634.16 305.68 635.19 296.54 662.85 296.54 661.81 305.68"/><polygon class="cls-48" points="651.88 299.35 638.55 299.35 638.69 298.09 652.02 298.09 651.88 299.35"/><polygon class="cls-45" points="754.74 328.03 718.88 328.03 721.05 308.77 756.91 308.77 754.74 328.03"/><polygon class="cls-49" points="754.25 332.4 718.39 332.4 718.54 331.02 754.4 331.02 754.25 332.4"/><polygon class="cls-49" points="753.92 335.25 718.06 335.25 718.22 333.87 754.08 333.87 753.92 335.25"/><polygon class="cls-47" points="694.48 302.46 666.82 302.46 667.85 293.31 695.51 293.31 694.48 302.46"/><polygon class="cls-50" points="767.54 305.68 707.22 305.68 708.25 296.54 768.57 296.54 767.54 305.68"/><polygon class="cls-47" points="733.19 299.35 710.18 299.35 710.32 298.09 733.34 298.09 733.19 299.35"/><polygon class="cls-47" points="732.92 301.75 709.91 301.75 710.05 300.48 733.07 300.48 732.92 301.75"/><polygon class="cls-6" points="753.06 290.92 627.41 290.92 628.84 278.31 754.48 278.31 753.06 290.92"/><polygon class="cls-51" points="751.32 289.19 742.17 289.19 743.21 280.04 752.35 280.04 751.32 289.19"/><polygon class="cls-45" points="738.22 289.19 729.08 289.19 730.11 280.04 739.25 280.04 738.22 289.19"/><polygon class="cls-45" points="725.12 289.19 715.98 289.19 717.01 280.04 726.15 280.04 725.12 289.19"/><polygon class="cls-45" points="662.12 282.25 632.07 282.25 632.27 280.49 662.32 280.49 662.12 282.25"/><polygon class="cls-45" points="661.77 285.38 631.71 285.38 631.91 283.62 661.97 283.62 661.77 285.38"/><polygon class="cls-45" points="644.69 288.52 631.36 288.52 631.56 286.76 644.88 286.76 644.69 288.52"/><polygon class="cls-45" points="712.55 340.58 676.69 340.58 678.86 321.32 714.72 321.32 712.55 340.58"/><polygon class="cls-49" points="712.05 344.95 676.19 344.95 676.35 343.57 712.21 343.57 712.05 344.95"/><polygon class="cls-49" points="711.73 347.8 675.87 347.8 676.03 346.42 711.89 346.42 711.73 347.8"/><polygon class="cls-46" points="711.46 330.39 697.71 330.39 699.07 318.4 712.82 318.4 711.46 330.39"/><polygon class="cls-10" points="767.38 271.59 634.27 271.59 635.69 259.09 768.79 259.09 767.38 271.59"/><polygon class="cls-52" points="765.22 268.97 637.03 268.97 637.5 264.85 765.68 264.85 765.22 268.97"/><polygon class="cls-47" points="639.8 263.46 637.65 263.46 637.9 261.31 640.04 261.31 639.8 263.46"/><polygon class="cls-47" points="643.61 263.46 641.46 263.46 641.71 261.31 643.85 261.31 643.61 263.46"/><polygon class="cls-47" points="647.42 263.46 645.27 263.46 645.51 261.31 647.66 261.31 647.42 263.46"/><g class="cls-53"><path class="cls-54" d="M732.47,255.94l3.85,9.63a1,1,0,0,1-.58,1.35l-18.55,7.41a1,1,0,0,1-1.35-.57L712,264.13a1.09,1.09,0,0,1,0-.85,1.06,1.06,0,0,1,.55-.51l18.55-7.41a1,1,0,0,1,.75,0A1.05,1.05,0,0,1,732.47,255.94Z"/><path class="cls-55" d="M731.87,255.35l-5.34,9.37a3.61,3.61,0,0,1-4.18,1.67L712,263.28a1.06,1.06,0,0,1,.55-.51l18.55-7.41A1,1,0,0,1,731.87,255.35Z"/></g><path class="cls-56" d="M691.9,373.61H678.57a21.59,21.59,0,0,0-17.88,9.47l-.83,1.21h50.76l-.83-1.21A21.63,21.63,0,0,0,691.9,373.61Z"/><path class="cls-57" d="M693.47,375.27c0,.43-2.69.79-7.23.79s-9.23-.36-9.23-.79,3.68-.78,8.23-.78S693.47,374.84,693.47,375.27Z"/><g class="cls-58"><path class="cls-59" d="M693.05,243.87a16.86,16.86,0,0,0-24.59,7.53L684,258.06Z"/><path class="cls-60" d="M699.91,252.65l-16,5.41-16.84-.56a5.33,5.33,0,0,0,0,.56,16.86,16.86,0,1,0,33.72,0A16.46,16.46,0,0,0,699.91,252.65Z"/><path class="cls-61" d="M699.91,252.65a16.84,16.84,0,0,0-6.86-8.78L684,258.06Z"/><path class="cls-62" d="M668.46,251.4a16.36,16.36,0,0,0-1.35,6.1l16.84.56Z"/></g><path class="cls-63" d="M579.51,550c.87,1.45,1,3.73,6.32,5.74s16.56,2.52,10.47,4.82a29.48,29.48,0,0,1-14.55,1.53c-3.68-.39-5.86.19-10.17.38-5.69.24-5.75-.1-5.28-6.32C566.93,547.56,576.71,545.28,579.51,550Z"/><path class="cls-64" d="M566.93,549.78c9.27-31.83,13.58-91.37,29.56-114.64,10.15-14.78,29.86-8.95,22.56,10.88-7.81,21.19-27.61,60.76-38.69,103C579.27,553.15,565.9,553.51,566.93,549.78Z"/><path class="cls-65" d="M613.35,453.37c8.49-3.13,15.83-32.13-15.39-28.22-13.85,1.73-62.81,5.43-70.19,6.33s-18.12,2.69-19.3,6.47c-5.89,18.86,17,35.84,44.57,29.67C571.46,463.49,595.76,459.86,613.35,453.37Z"/><path class="cls-66" d="M530,381.21c-4.54,3.45-9.38,3.39-22.68,5-19.15,2.29-23.85,1.61-36-1.18-7.95-1.82-1.69-19.16,9.31-19.64,9.3-.4,41.7,9.4,47.36,9.13C531.68,374.32,533.66,378.41,530,381.21Z"/><path class="cls-67" d="M468.57,376.08c.83-4.37,4.18-13.83,17.95-33.92a157.81,157.81,0,0,1,15.94-20.29c5.5-6,13.69-4,15.59-.14,3.07,6.2,3,16.67.35,20-15.17,18.87-28,32.45-30.87,37.66C483.35,387,467.59,381.27,468.57,376.08Z"/><path class="cls-63" d="M603.44,552.68c.86,1.45,4.82,4.71,10.19,6.71s16.56,2.53,10.47,4.82-13.37,1.44-17.05,1a77.21,77.21,0,0,0-11.55-.11c-5.68.25-5.74-.09-5.28-6.31C590.86,550.29,600.64,548,603.44,552.68Z"/><path class="cls-6" d="M514.39,287.12c1.15,11.51,1.49,14.06,6.52,18.77s12.88,5.4,18.33,5.4c5.89,0,9.78-7.11,11.11-12,1.38-5,2.8-14.51,1.15-27.11-.84-6.39-8.72-14.14-16.85-14.14S511.59,259,514.39,287.12Z"/><path class="cls-6" d="M520.25,307.39c-.31,4-.6,8.58-.73,12.77a11,11,0,0,0,9.58,11.15l.63,0c5,0,10.82-4.5,10.38-9.48-.28-3.23-.39-6.49-.41-9.35a12.92,12.92,0,0,0-8.62-12.14h0A8.14,8.14,0,0,0,520.25,307.39Z"/><path class="cls-68" d="M497.23,356.58c9.24,30.36,12.27,48.52,10.46,69.72h69.55s-.41-51.61-5.07-87.28c-1.08-8.3-5.85-15.77-14.68-20.46-5.23-2.78-14.69-4.11-18.53-4.11H526.1a48.75,48.75,0,0,0-13.57,1.69C493.57,322,491.88,339,497.23,356.58Z"/><path class="cls-69" d="M508,468.85s-6-14.6-.28-42.55h69.55a395.36,395.36,0,0,1,2.53,42.55Z"/><path class="cls-70" d="M590.74,553.07c11.84-31,21-90,38.82-111.84,11.33-13.91,30.5-6.48,21.6,12.69-9.52,20.48-32.48,58.29-47,99.47C602.76,557.44,589.41,556.71,590.74,553.07Z"/><path class="cls-71" d="M644.88,460.78c8.71-2.42,18.4-30.73-13-29.39-14,.6-63.05.29-70.47.58s-18.28,1.2-19.77,4.87c-7.4,18.32,14,37.11,42,33.21C602.31,467.45,626.82,465.81,644.88,460.78Z"/><path class="cls-6" d="M548.47,284.71c-1.63,4-1.26,7.89.83,8.74s5.09-1.68,6.72-5.66,1.25-7.9-.83-8.75S550.1,280.72,548.47,284.71Z"/><path class="cls-6" d="M518.5,284.71c1.63,4,1.25,7.89-.83,8.74s-5.09-1.68-6.72-5.66-1.25-7.9.83-8.75S516.87,280.72,518.5,284.71Z"/><path class="cls-72" d="M517.94,264.45c4.48,6.69,26.13,7.31,33.2,4.85s6.58-16.13-3.53-17.07c-5.69,0-1.57,1.35-6.18,3.23C539.09,256.4,513.15,257.31,517.94,264.45Z"/><path class="cls-6" d="M643.27,333.76c2.9-1.81,27.68-17.54,27.39-11.38-.33,6.81-8.84,14.15-11.91,16.25-5.62,3.84-11.68,5.09-14,2.07C643.12,338.56,640.52,335.48,643.27,333.76Z"/><path class="cls-73" d="M648.17,332.46c-5.25,1.15-36.84,10.66-46.72,15.63-5.71-3.13-18.06-15.88-38.14-27.94-7.46-4.48-14.25-3-20.3.39-3.75,2.07-5.43,10.34.85,15.56,3.53,2.93,8.37,7.18,21,15,20.69,12.84,30.29,15.76,34.7,16.39a3.26,3.26,0,0,0,.54,0h.17a3.58,3.58,0,0,0,.45-.09,5.38,5.38,0,0,0,.85-.18c8.24-2.82,18.66-7,34.19-16.12,12.71-7.48,14.07-6.81,16.65-11.8C654.49,335.21,651,331.84,648.17,332.46Z"/><path class="cls-72" d="M542.3,263.29c6.67,4,8.22,7.56,8,15.8s-3.72,22.32-18.9,25.46-18.77-11.92-19.68-22.32-.32-18.16,7.35-20C530.51,259.44,538.26,260.85,542.3,263.29Z"/><path class="cls-74" d="M597.56,557.67a5,5,0,0,1-4.93-4h-86a5,5,0,0,1-10-1,9.08,9.08,0,0,1,9.07-9.06h87.83a9.08,9.08,0,0,1,9.06,9.06A5,5,0,0,1,597.56,557.67Z"/><path class="cls-75" d="M623.1,468.79H596.56c-14,0-22.94-7.41-25.08-20.85-2.62-16.47-7.49-70.35-7.54-70.89a6.28,6.28,0,0,0-7.7-5.58h-80a8,8,0,0,0-6.45,8.3c.2,2.23,4.95,54.87,7.65,71.79,3.12,19.63,17.19,31.36,37.62,31.36H621.6a8,8,0,0,0,7.81-7.07A6.23,6.23,0,0,0,623.1,468.79Z"/><path class="cls-76" d="M537.7,482.92h23.84a0,0,0,0,1,0,0v10.77a1.4,1.4,0,0,1-1.4,1.4h-21a1.4,1.4,0,0,1-1.4-1.4V482.92A0,0,0,0,1,537.7,482.92Z"/><rect class="cls-77" x="541.62" y="495.09" width="16" height="47.39"/><path class="cls-78" d="M540.24,533.83H559a1.38,1.38,0,0,1,1.38,1.38v13.39a0,0,0,0,1,0,0H538.86a0,0,0,0,1,0,0V535.22A1.38,1.38,0,0,1,540.24,533.83Z"/><path class="cls-79" d="M571.1,557.67a5,5,0,0,1-4.93-4h-33.1a5,5,0,0,1-10-1,9.08,9.08,0,0,1,9.07-9.06h34.9a9.08,9.08,0,0,1,9.07,9.06A5,5,0,0,1,571.1,557.67Z"/><path class="cls-80" d="M536.67,559.49a6.86,6.86,0,1,1-6.86-6.86A6.86,6.86,0,0,1,536.67,559.49Z"/><path class="cls-81" d="M533.32,559.49a6.86,6.86,0,1,1-6.86-6.86A6.86,6.86,0,0,1,533.32,559.49Z"/><path class="cls-82" d="M579.63,559.49a6.86,6.86,0,1,1-6.85-6.86A6.85,6.85,0,0,1,579.63,559.49Z"/><path class="cls-83" d="M576.29,559.49a6.86,6.86,0,1,1-6.86-6.86A6.86,6.86,0,0,1,576.29,559.49Z"/><path class="cls-84" d="M510.21,559.49a6.86,6.86,0,1,1-6.86-6.86A6.86,6.86,0,0,1,510.21,559.49Z"/><path class="cls-85" d="M506.86,559.49a6.86,6.86,0,1,1-6.86-6.86A6.86,6.86,0,0,1,506.86,559.49Z"/><path class="cls-86" d="M606.09,559.49a6.86,6.86,0,1,1-6.85-6.86A6.86,6.86,0,0,1,606.09,559.49Z"/><path class="cls-87" d="M602.74,559.49a6.86,6.86,0,1,1-6.85-6.86A6.86,6.86,0,0,1,602.74,559.49Z"/><polygon class="cls-88" points="557.62 500.75 541.62 496.29 541.62 495.09 557.62 495.09 557.62 500.75"/><polygon class="cls-89" points="561.54 488.57 537.7 484.11 537.7 482.92 561.54 482.92 561.54 488.57"/><path class="cls-90" d="M621.6,482.92H595.06c-20.43,0-34.5-11.73-37.62-31.36-2.7-16.92-7.45-69.56-7.65-71.79a8,8,0,0,1,6.45-8.3,6.28,6.28,0,0,1,7.7,5.57c0,.55,4.92,54.43,7.54,70.9,2.14,13.44,11,20.85,25.08,20.85H623.1a6.23,6.23,0,0,1,6.31,7.06A8,8,0,0,1,621.6,482.92Z"/><path class="cls-91" d="M499.52,364.33c.43,1.5.85,3,1.25,4.42l-4.2-.95Z"/><path class="cls-91" d="M615.71,468.79h-6q.42-1,.84-2,3.09-.37,6.17-.78C616.37,466.94,616,467.86,615.71,468.79Z"/><path class="cls-91" d="M557.62,533.89v-38.8h.52a3.4,3.4,0,0,0,3.4-3.4v-8.77h18.92c-4.3,20.92-7.61,43.6-11.86,60.65h-8.22v-6.39A3.35,3.35,0,0,0,557.62,533.89Z"/><path class="cls-91" d="M585.83,555.7a13,13,0,0,1-3.79-2.06h8.63a1.4,1.4,0,0,0,.47.92,6.75,6.75,0,0,0-1.53,2.2A31.62,31.62,0,0,1,585.83,555.7Z"/><path class="cls-91" d="M594,543.62c-.17,0-.33,0-.49,0H581.86c6.14-21.86,14.39-42.82,21.85-60.65h7.36C604.88,503.29,599.65,526.09,594,543.62Z"/><polygon class="cls-92" points="673 359.5 677 373.77 693.47 373.77 697.67 359.17 673 359.5"/></g></g></svg>