<svg fill="none" height="755" viewBox="0 0 835 755" width="835" xmlns="http://www.w3.org/2000/svg" xmlns:xlink="http://www.w3.org/1999/xlink"><linearGradient id="a" gradientUnits="userSpaceOnUse" x1="184.5" x2="414.5" y1="51.5" y2="462.5"><stop offset="0" stop-color="#007bff"/><stop offset="1" stop-color="#007bff" stop-opacity="0"/></linearGradient><linearGradient id="b" gradientUnits="userSpaceOnUse" x1="278" x2="332.653" y1="61.5" y2="290.444"><stop offset="0" stop-color="#85a1c1"/><stop offset="1" stop-color="#dce3ec" stop-opacity="0"/></linearGradient><circle cx="357.5" cy="296.5" fill="url(#a)" opacity=".2" r="225.5"/><path d="m242 753h593v2h-593z" fill="#161d25"/><path d="m448.5 452.5h21v19h-21z" fill="#f4f6f9" stroke="#000"/><circle cx="120" cy="492" fill="#007bff" opacity=".1" r="55"/><circle cx="685.5" cy="296.5" fill="#007bff" opacity=".1" r="20.5"/><circle cx="695.5" cy="173.5" fill="#007bff" opacity=".1" r="15.5"/><circle cx="86.5001" cy="374.5" fill="#007bff" opacity=".08" r="15.5"/><circle cx="23.5" cy="23.5" fill="#007bff" opacity=".08" r="23.5"/><path d="m486.433 192.051c-32.438 26.277-69.971 43.169-110.453 52.017l7.52 19.432-69.717 29.367c-6.434-14.478-13.404-28.689-20.643-42.9-7.506-15.015-15.817-29.762-25.2-43.705-9.383-13.407-19.839-26.277-32.439-36.734-12.332-10.457-26.541-16.356-42.09-20.377-26.93-6.958-55.363-8.655-83.411-8.709l-3.183-48.1347c20.375-1.3407 41.018-1.3407 61.393.5362 39.141 3.4857 78.551 14.4785 110.721 37.8065 15.818 11.529 29.49 25.74 39.946 42.364 4.826 8.044 9.115 16.356 12.868 24.936.268.536.804 2.949 1.341 3.217.536.537 3.217-.536 4.021-.536 2.413-.536 5.094-.804 7.507-1.34 5.093-1.073 10.187-2.145 15.281-3.486 39.409-10.189 76.674-30.567 106.164-58.72 14.208-13.675 26.809-28.958 36.996-45.5821 5.362-8.8483 8.924-14.1184 12.945-23.5029l48.5 18c-14 38-46.164 80.043-78.067 106.051z" fill="#fff"/><path d="m416.163 477.329v-53.357h146.914v152.297h-146.914v-62.742" stroke="#161d25" stroke-linecap="round" stroke-linejoin="round" stroke-miterlimit="10" stroke-width="1.5"/><path d="m416.163 513.527v62.742l-35.12-26.545v-42.632" stroke="#161d25" stroke-linecap="round" stroke-linejoin="round" stroke-miterlimit="10" stroke-width="1.5"/><path d="m381.043 467.677v-69.982l35.12 26.277v53.357" stroke="#161d25" stroke-linecap="round" stroke-linejoin="round" stroke-miterlimit="10" stroke-width="1.5"/><path d="m459.862 397.695 34.852 26.277" stroke="#161d25" stroke-linecap="round" stroke-linejoin="round" stroke-miterlimit="10" stroke-width="1.5"/><path d="m563.077 423.972h-146.914l-35.12-26.277h146.914z" stroke="#161d25" stroke-linecap="round" stroke-linejoin="round" stroke-miterlimit="10" stroke-width="1.5"/><path d="m517.77 368.737h20.106l36.997 63.279h-65.682l-36.997-63.279h33.511" fill="#fff"/><path d="m517.77 368.737h20.106l36.997 63.279h-65.682l-36.997-63.279h33.511" stroke="#161d25" stroke-linecap="round" stroke-linejoin="round" stroke-miterlimit="10" stroke-width="1.5"/><path d="m503.292 389.115h29.759" stroke="#161d25" stroke-linecap="round" stroke-linejoin="round" stroke-miterlimit="10" stroke-width="1.5"/><path d="m508.654 397.695h29.758" stroke="#161d25" stroke-linecap="round" stroke-linejoin="round" stroke-miterlimit="10" stroke-width="1.5"/><path d="m710.311 321.41-93.141-75.833-46.881 57.598 93.141 75.833z" stroke="#161d25" stroke-linecap="round" stroke-linejoin="round" stroke-miterlimit="10" stroke-width="1.5"/><path d="m710.27 321.504-93.141-75.833-6.77 8.317 93.142 75.833z" stroke="#161d25" stroke-linecap="round" stroke-linejoin="round" stroke-miterlimit="10" stroke-width="1.5"/><path d="m658.785 329.053-38.605-31.371" stroke="#161d25" stroke-linecap="round" stroke-linejoin="round" stroke-miterlimit="10" stroke-width="1.5"/><path d="m666.56 319.4-38.605-31.371" stroke="#161d25" stroke-linecap="round" stroke-linejoin="round" stroke-miterlimit="10" stroke-width="1.5"/><path d="m496.59 753.771h58.98s-.804-28.153 0-41.828c.804-13.674-42.626 8.044-42.626 8.044v17.16s-16.354 2.682-16.354 16.624z" fill="#161d25"/><path d="m794.975 746.799 24.128-53.894s-26.005-10.993-38.069-17.16-10.187 42.096-10.187 42.096l15.817 6.971c-.268 0-4.558 16.088 8.311 21.987z" fill="#161d25"/><path d="m789.077 676.012c-60.857-24.132-75.602-99.208-73.993-158.732.536-18.233-17.158-25.204-30.563-20.646-4.289-1.609-9.383-1.877-14.208-1.073-100.802 16.892-158.442 129.238-158.978 224.424h45.575c1.073-72.395 39.41-157.123 112.866-177.501 3.754 72.395 32.171 148.007 102.411 176.161 5.362-14.479 10.724-28.69 16.89-42.633z" style="fill:#fff;stroke:#161d25;stroke-width:1.5;stroke-miterlimit:10;stroke-linecap:round;stroke-linejoin:round"/><path d="m512.943 731.783h9.384" stroke="#fff" stroke-linecap="round" stroke-linejoin="round" stroke-miterlimit="10" stroke-width="1.5"/><path d="m777.817 721.058 4.826-10.189" stroke="#fff" stroke-linecap="round" stroke-linejoin="round" stroke-miterlimit="10" stroke-width="1.5"/><path d="m659.321 399.037c-1.877 5.631 6.166 10.993 10.187 12.87 2.949 1.341 1.073 5.631-1.608 5.899-2.413.268 1.34 6.167 2.681 6.972l1.608.804c3.485-2.145 5.898-5.899 6.971-12.334 2.949-12.602-11.528-18.233-19.839-14.211z" fill="#161d25"/><path d="m679.428 413.249c2.681-13.406-13.405-18.769-21.448-13.406-8.042 5.363-10.723 10.725-10.723 10.725l2.681 2.681s-2.413 9.385 6.166 12.871l5.898 28.689 16.085-2.681-5.362-26.813c3.217-2.145 5.63-5.899 6.703-12.066z" stroke="#161d25" stroke-linecap="round" stroke-linejoin="round" stroke-miterlimit="10" stroke-width="1.5"/><path d="m655.3 443.01c-12.333 4.558-27.882 8.044-38.873-1.34-10.992-9.653-13.137-35.662-17.694-50.141-8.043-25.74-24.397-13.674-26.541 10.189-2.413 25.473-.537 51.749 20.911 69.178 20.643 16.624 48.256 17.696 72.116 8.58 22.52-8.849 12.6-45.046-9.919-36.466z" style="fill:#fff;stroke:#161d25;stroke-width:1.5;stroke-miterlimit:10;stroke-linecap:round;stroke-linejoin:round"/><path d="m655.299 443.01c-12.332 4.558-27.881 8.044-38.873-1.34-10.187-8.849-12.6-31.64-16.621-46.387-9.115 6.972-18.499 13.407-28.418 19.305-.536 21.183 3.753 41.829 21.715 56.308 20.643 16.624 48.257 17.696 72.117 8.58 22.519-8.849 12.6-45.046-9.92-36.466z" fill="#161d25"/><path d="m663.61 439.524c37.533 0 38.605 4.827 43.967 28.958 5.362 24.132 8.579 44.778 8.579 44.778l-72.384-10.457s-3.217-23.327-5.898-36.734c-2.681-13.406-3.754-26.545 25.736-26.545z" fill="#161d25"/><path d="m642.699 501.193s-3.217-23.327-5.898-36.734c-1.608-8.043-2.68-15.551 2.949-20.646" stroke="#fff" stroke-miterlimit="10" stroke-width="1.5"/><path d="m658.248 472.234c-16.353 45.314-88.201 50.409-120.372 20.378-17.426-16.624-44.235 9.921-26.541 26.545 53.618 50.676 157.101 35.393 183.106-36.734 8.31-22.791-28.15-32.712-36.193-10.189z" style="fill:#fff;stroke:#161d25;stroke-width:1.5;stroke-miterlimit:10;stroke-linecap:round;stroke-linejoin:round"/><path d="m658.249 472.234c-15.282 42.633-79.623 49.604-113.939 25.473-7.775 9.652-14.209 20.377-21.715 30.566 55.763 39.415 147.718 21.451 171.846-45.85 8.311-22.791-28.15-32.712-36.192-10.189z" fill="#161d25"/><path d="m594.979 382.949c-12.064-21.451-39.409-5.631-50.937 4.826-9.115 8.044 9.383 2.145 9.383 2.145s-12.868 5.631-10.187 9.385c2.681 3.753 13.136-5.095 13.136-5.095s-15.549 8.58-13.672 12.066c1.876 3.486 18.498-7.508 18.498-7.508s-5.094 10.725-2.145 12.871c2.949 1.876 4.826-6.704 7.507-7.24 2.949-.536 4.289-1.072 4.825 10.457" fill="#fff"/><path d="m594.979 382.949c-12.064-21.451-39.409-5.631-50.937 4.826-9.115 8.044 9.383 2.145 9.383 2.145s-12.868 5.631-10.187 9.385c2.681 3.753 13.136-5.095 13.136-5.095s-15.549 8.58-13.672 12.066c1.876 3.486 18.498-7.508 18.498-7.508s-5.094 10.725-2.145 12.871c2.949 1.876 4.826-6.704 7.507-7.24 2.949-.536 4.289-1.072 4.825 10.457" stroke="#161d25" stroke-linecap="round" stroke-linejoin="round" stroke-miterlimit="10" stroke-width="1.5"/><path d="m571.119 381.071-24.664 30.031c-1.073 1.34-3.217 6.167-2.413 7.239 1.072 1.073 5.362-2.413 6.434-3.754l24.664-30.03c2.413-2.681-1.876-6.167-4.021-3.486z" fill="#161d25"/><path d="m511.603 519.158c-12.332-12.602-28.954-24.131-26.541-28.689 2.145-4.827 14.745 5.898 14.745 5.898s-13.941-11.529-11.528-15.015c2.413-3.485 16.086 6.435 16.086 6.435s-12.333-8.848-9.652-13.674c2.681-4.827 10.724 5.899 17.962 5.63 7.239-.268-4.021-12.87 2.413-13.942 3.485-.537 23.056 26.813 23.056 26.813" fill="#fff"/><path d="m511.603 519.158c-12.332-12.602-28.954-24.131-26.541-28.689 2.145-4.827 14.745 5.898 14.745 5.898s-13.941-11.529-11.528-15.015c2.413-3.485 16.086 6.435 16.086 6.435s-12.333-8.848-9.652-13.674c2.681-4.827 10.724 5.899 17.962 5.63 7.239-.268-4.021-12.87 2.413-13.942 3.485-.537 23.056 26.813 23.056 26.813" stroke="#161d25" stroke-linecap="round" stroke-linejoin="round" stroke-miterlimit="10" stroke-width="1.5"/><path d="m637.874 495.026c16.621-9.652 26.54-33.784 26.54-33.784" stroke="#fff" stroke-linecap="round" stroke-miterlimit="10" stroke-width="1.5"/><path d="m566.026 259.339c20.911-8.58 41.554-17.161 62.465-25.741 4.825-1.877 17.962-11.529 16.353-15.283-1.608-3.754-17.694-1.609-22.519.268-20.911 8.58-41.554 17.16-62.465 25.74-9.384 4.29-3.217 19.038 6.166 15.016z" fill="#161d25"/><g stroke-linecap="round" stroke-linejoin="round" stroke-miterlimit="10" stroke-width="1.5"><path d="m600.878 252.101-31.367 13.138-4.826-11.798" stroke="#161d25"/><path d="m579.966 256.66-8.31-20.646" stroke="#fff"/><path d="m631.172 236.014-8.311-20.378" stroke="#fff"/><path d="m649.402 216.44-12.332 5.095" stroke="#161d25"/><path d="m262.815 403.327c-7.774-5.363-17.425-8.849-27.881-8.849-26.541-.536-48.792 16.088-48.792 48.8 0 10.457 3.217 20.378 8.578 28.153z" stroke="#161d25"/><path d="m271.5 524.992-16.375 13.006 86.197 108.555 16.375-13.006z" stroke="#161d25"/><path d="m754.493 394.209 5.63 12.334" stroke="#161d25"/><path d="m259.866 87.7383 5.63 12.3337" stroke="#161d25"/><path d="m221.529 305.996 5.63 12.602" stroke="#161d25"/><path d="m404.903 615.415 5.362 12.602" stroke="#161d25"/><path d="m666.292 185.337-3.485 13.138" stroke="#161d25"/><path d="m500.343 245.667-10.991 8.312" stroke="#161d25"/><path d="m197.133 509.773-10.991 8.044" stroke="#161d25"/><path d="m656.64 623.995-10.991 8.044" stroke="#161d25"/><path d="m601.146 698.535-12.333-5.362" stroke="#161d25"/><path d="m247.266 665.02-6.702 12.065" stroke="#161d25"/><path d="m550.744 382.681c-.536-33.516-11.527-65.96-37.264-88.751-26.541-23.595-64.878-31.907-99.462-28.957-4.557.536-9.383 1.072-13.94 1.876-2.145.537-4.29 1.073-6.703 1.609-1.072.268-2.144.536-3.217.805-.804.268-2.413 1.072-3.217 1.072-1.072 0-2.145-4.29-2.681-5.631-.804-2.413-1.608-4.558-2.681-6.971-1.608-4.558-3.485-9.116-5.093-13.406 40.481-8.849 78.014-25.741 110.453-52.017 31.903-26.009 57.103-60.061 73.725-97.8673 2.145-4.8263 4.021-9.6526 5.63-14.4789.804-2.1451 1.608-4.2901 2.144-6.7033.269-.8043.537-1.3406.537-2.145.268-1.3406 0-1.0725 1.34-1.6088 2.413-1.0725 4.826-1.6087 7.238-2.9494 2.145-1.3406 4.022-2.6813 5.898-4.29 2.949-2.4132 5.362-5.3626 7.507-8.5801-16.89-4.5582-33.779-9.3846-50.669-13.9427-4.021-1.0726-8.311-2.4132-12.332-3.4857-2.145 9.6526-6.166 19.3052-10.188 28.4216-4.021 9.3845-8.847 18.2328-14.208 27.081-10.188 16.6236-22.788 31.9076-36.997 45.5816-29.49 28.154-66.754 48.532-106.164 58.72-5.094 1.341-10.187 2.414-15.281 3.486-2.413.536-5.094.805-7.506 1.341-.805 0-3.486 1.072-4.022.536-.536-.268-1.072-2.681-1.34-3.218-3.754-8.58-8.043-16.892-12.869-24.935-10.455-16.624-24.128-30.835-39.945-42.365-32.171-23.327-71.58-34.3203-110.721-37.8059-20.375-1.8769-41.018-1.8769-61.393-.5363-5.362.2681-10.4557.8044-15.8175 1.3406-.8042 0-4.2894.8044-4.8256.2682-.2681-.2682-.2681-.8044-.2681-1.0725-2.4128-4.2901-4.5575-7.7758-9.3832-9.9208-3.7532-1.6088-7.7746-2.4132-11.7959-2.4132 1.3404 12.8702 2.6809 25.7399 4.2894 38.3429.8043 6.703 1.6086 13.674 2.1447 20.377.2681 1.877-.2681 2.413 1.6086 2.145 6.9703-.536 13.9407-.804 20.911-.804 33.2436-.536 67.5586.268 99.7296 8.58 15.549 4.022 29.758 9.921 42.09 20.378 12.601 10.457 23.056 23.327 32.439 36.733 9.383 13.943 17.694 28.69 25.201 43.705 7.238 14.211 14.208 28.422 20.643 42.901 1.608 3.754 3.217 7.239 4.557 10.993.804 1.877 1.341 3.754 2.145 5.363.536 1.609 2.145 4.022 2.413 5.631 0 1.34-1.877 3.217-2.681 4.558-1.072 1.609-2.145 3.217-2.949 4.826-1.877 2.949-3.485 6.167-5.094 9.385-6.434 13.138-10.723 27.349-12.064 41.559-2.681 25.205 1.341 51.749 12.6 74.54 9.652 19.574 24.933 35.661 43.967 46.655 19.303 11.261 41.554 16.624 63.806 17.16 7.238.268 14.477-.268 21.447-1.341 4.021-.536 8.579-1.072 12.064-2.949 2.145-1.073 2.413-2.681 0-3.754-3.485-1.609-8.043-1.609-11.528-1.609-2.681 0-5.094 0-7.775 0 3.754-.804 7.239-1.609 10.992-2.413 1.877-.536 10.724-2.145 10.724-4.826 0-2.95-9.115-2.681-10.992-2.95-3.485 0-7.238 0-10.724.268 5.094-.536 9.92-1.34 14.745-2.681 1.609-.536 5.63-1.072 6.167-2.949.536-1.877-1.609-2.413-2.949-2.95-5.362-1.34-11.26-.536-16.622-1.072-.804 0-3.753 0-3.485-1.341 0-1.072 4.825-1.877 5.898-2.413 2.144-.804 4.825-1.609 6.434-3.217 2.145-1.877 0-3.754-2.145-4.022-3.485-.269-6.97 1.072-10.455 1.876-2.681.537-5.63 1.609-8.311 1.877-2.145.269-4.558 0-6.702-.268-4.29-.268-8.847-.804-13.137-1.609-16.085-2.949-31.098-10.188-43.162-21.45-28.418-27.081-33.512-74.54-14.477-108.324 12.064-21.45 32.707-37.27 56.567-42.9 21.983-5.363 47.72-2.414 67.827 8.044 10.723 5.63 20.106 13.674 26.809 23.863 3.217 5.094 5.898 10.457 8.042 16.088 1.073 2.949 2.145 5.899 2.681 8.848.268.536.537 1.341.537 1.877.268 1.609.268.536-.537 1.609-.804 1.34-2.412 2.681-3.485 4.29-1.608 2.145-7.238 10.457-4.021 13.138 1.608 1.341 4.825-1.877 5.898-2.681 5.094-4.29 9.651-9.385 14.209-14.211 1.072-1.073 1.876-2.145 2.949-3.218" stroke="#161d25"/></g><path d="m423.669 300.633c-1.608 0-3.217 0-4.825.268-.804 0-1.609.268-2.413.268-1.072 0-2.145.268-3.217.268h-.268c-1.072 0-2.145.269-3.485.537h-.268c-.805.268-1.877.268-2.681.536-.536 0-1.073.268-1.341.268-.536 0-1.34.268-1.876.536-1.609.537-3.217.805-4.826 1.341-.804.268-1.609.536-2.413.804-.804.269-1.608.537-2.413.805-.536.268-1.34.536-1.876.804-2.413 1.073-4.826 2.145-7.239 3.218-2.144 1.072-4.557 2.413-6.702 3.754-.804.536-1.877 1.072-2.681 1.876-1.608 1.073-3.217 2.414-4.826 3.486-1.072.804-2.144 1.877-3.217 2.681-.804.537-1.34 1.341-2.144 1.877-1.341 1.073-2.413 2.413-3.754 3.486-1.34 1.341-2.681 2.949-4.021 4.29-.536.804-1.34 1.609-1.877 2.145-.536.804-1.072 1.609-1.876 2.413-.536.805-1.073 1.341-1.609 2.145-2.145 2.95-4.021 5.899-5.63 9.117l-.268.268c-.536.804-.804 1.608-1.072 2.413-.536 1.072-.804 1.877-1.341 2.949-.536.805-.804 1.877-1.072 2.682-.268.268-.268.804-.536 1.072-.804 1.877-1.341 3.754-1.877 5.631-.268.804-.536 1.34-.536 2.145-.268 1.34-.804 2.413-1.072 3.754-7.775-2.145-15.55-4.827-23.324-7.24-.804-.268-1.877-.536-2.681-.804-2.681-.805-5.63-1.877-8.311-2.95 0-.268 0-.536.268-.804.268-1.073.536-2.413 1.073-3.486 0-.268.268-.804.268-1.072 0 0 0-.268 0-.536.536-1.609 1.072-2.95 1.608-4.559 0-.268.268-.804.536-1.072.268-1.073.805-1.877 1.073-2.681.268-.805.536-1.609.804-2.145 0-.269.268-.537.268-.805.268-.804.804-1.609 1.072-2.413.537-1.073 1.073-2.145 1.609-3.218.268-.804.536-1.34 1.072-1.876.268-.805.805-1.341 1.073-1.877.268-.537.536-.805.804-1.341.804-1.341 1.609-2.949 2.413-4.29.536-1.073 1.34-2.145 1.876-3.218.537-.804 1.073-1.877 1.609-2.681.804-1.341 1.877-2.413 2.681-3.754-2.145-5.094-4.29-10.993-6.97-17.16-.537-1.072-.805-2.145-1.341-2.949-.268-.537-.536-1.073-.536-1.341-.804-1.877-1.877-4.022-2.681-5.899 0-.268-.268-.536-.268-.804-.536-.805-.804-1.609-1.341-2.413-1.34-2.414-2.412-5.363-3.753-8.044 1.877-.536 3.485-1.073 5.362-1.609.804-.268 1.877-.536 2.681-.804 9.115-2.414 18.766-5.095 28.686-7.776.804-.268 1.876-.536 2.681-.804 8.846-2.414 17.693-4.559 26.004-6.704 2.949-.804 5.898-1.34 8.579-2.145.268.805.536 1.341.804 2.145 1.609 4.022 2.949 7.776 4.29 11.262 1.34-.537 2.681-.805 4.021-1.341 1.341-.536 2.681-.804 4.29-1.072 1.34-.269 2.681-.805 4.289-1.073.804-.268 1.341-.268 2.145-.536 1.072-.268 1.877-.536 2.949-.536.804 0 1.608-.269 2.681-.269.268 0 .804-.268 1.072-.268.536 0 1.072-.268 1.609-.268.804 0 1.876-.268 2.681-.268 1.34 0 2.949-.268 4.557-.268 1.609 0 2.949-.268 4.558-.268.268 7.775.804 15.551 1.608 23.327 0 .804.268 1.877.268 2.681 0 3.486.268 6.972.536 10.189z" fill="#161d25"/><path d="m397.933 367.935s5.63-9.385-3.753-15.284c-1.341-.804-2.681-1.34-3.754-1.877l-9.651-38.074c1.34-.804 2.681-1.609 4.021-2.145-2.144-4.558-6.166-7.776-12.868-7.776-14.209 0-17.962 16.892-10.455 24.936 1.072-1.072 2.144-1.877 3.217-2.949 1.608 6.167 6.166 23.059 8.042 30.03h.268c-1.072 1.341-2.144 2.95-3.217 4.827-6.434 12.065 7.239 21.986 16.622 19.037 9.383-2.682 13.404-7.24 13.404-7.24z" stroke="#161d25" stroke-linecap="round" stroke-linejoin="round" stroke-miterlimit="10" stroke-width="1.5"/><path d="m384.797 378.658c3.485-4.827-2.681-12.334-6.166-15.284-2.413-2.413.536-5.63 3.217-5.094 2.412.536.536-6.435-.537-7.508-.536-.536-.804-.804-1.34-1.34-3.753 1.072-9.919 3.217-12.868 8.848-6.166 11.261 10.723 37.538 17.694 20.378z" fill="#161d25"/><path d="m516.161 68.7021 7.238 2.4132 8.579 3.2175 2.681.8044 28.686 10.1889.804.5363" stroke="#161d25" stroke-linecap="round" stroke-linejoin="round" stroke-miterlimit="10" stroke-width="1.5"/><path d="m106.519 92.5654.536 7.2395v2.6811l2.413 28.69v2.681l.536 6.972" stroke="#161d25" stroke-linecap="round" stroke-linejoin="round" stroke-miterlimit="10" stroke-width="1.5"/><path d="m101.425 93.9062-3.4852 5.8989-.8043 1.8769-4.0214-4.2901-2.9489-3.4857" stroke="#161d25" stroke-linecap="round" stroke-linejoin="round" stroke-miterlimit="10" stroke-width="1.5"/><path d="m568.439 74.0645h-8.58l4.29 8.8482" stroke="#161d25" stroke-linecap="round" stroke-linejoin="round" stroke-miterlimit="10" stroke-width="1.5"/><path d="m77.5647 140.831v-.537l-1.3405-11.797-5.0937-46.9228" stroke="#161d25" stroke-linecap="round" stroke-linejoin="round" stroke-miterlimit="10" stroke-width="1.5"/><path d="m77.5647 140.292c0 .536 0 1.073-.2681 1.341-3.217.268-5.0937.268-5.0937.268l-6.7022-61.1334c1.6085 0 2.949 0 4.2894.2681 2.1447 15.8196 4.2895 31.6393 6.4342 47.1903.2681 2.682.8042 5.363 1.0723 8.044.2681 1.341.2681 2.682.2681 4.022z" fill="#161d25"/><path d="m587.473 58.7816c1.34-1.6088 3.485-4.8263 3.485-4.8263l-24.932-6.9714-2.681-.8044-23.056-6.435-9.651-2.6813-2.413-.8044c0 .2681 0 .5362-.268.8044-.268.8044-1.073 3.7538-1.341 4.5582 20.107 7.2394 40.214 11.5295 60.857 17.1602z" fill="#161d25"/><path d="m534.659 75.137-2.681-1.0725v25.4722h-28.686v-6.7032c-.804 1.3406-1.608 2.6812-2.681 4.29v2.9495h-1.876c-.536.804-1.341 1.877-1.877 2.681h3.753v28.69h-27.613c-1.34 1.341-2.413 2.413-3.753 3.754v27.349h-28.686v-3.754c-.804.536-1.876 1.341-2.681 1.877v1.877h-2.681c-1.34.804-2.68 1.877-4.021 2.681h6.702v28.69h-28.685v-16.356c-.805.536-1.877.804-2.681 1.341v15.015h-28.686v-2.949c-.804.268-1.877.536-2.681.804v2.145h-6.702c-3.217 1.072-6.434 1.877-9.919 2.681h16.621v28.69h-28.686v-26.008c-.804.268-1.876.268-2.68.536v25.472h-28.686v-28.69h16.353c-.268-.804-.804-1.877-1.072-2.681h-15.013v-26.545c-1.072-1.609-2.145-3.217-3.485-4.826h-27.882v-28.154c-1.34-1.072-2.681-2.145-4.021-3.217h-27.345v-16.356c-.804-.536-1.877-.804-2.681-1.341v17.697h-28.686v-28.154c-3.485-1.072-7.238-2.145-11.26-2.949h-20.106v-4.022c-.805-.2681-1.877-.2681-2.681-.5363v4.5583h-28.686v-7.5077c-.804 0-1.877 0-2.681-.2681v7.7758h-28.686v-8.3121c-.804 0-1.876 0-2.68 0v8.0439h-17.694l.268 2.6812h17.426v28.69h-15.282l.269 2.681h15.013v7.24h2.68v-7.24h28.686v9.117c.804 0 1.877.268 2.681.268v-9.385h28.686v13.675c.804.268 1.876.268 2.681.536v-14.211h28.685v23.864c.805.536 1.877.804 2.681 1.34v-25.204h28.686v28.69h-22.788c.804.536 1.341.804 1.877 1.341.536.536 1.34.804 1.876 1.34h19.035v17.16c.804 1.073 1.877 1.877 2.681 2.95v-20.11h28.685v28.69h-21.447c.805.804 1.341 1.877 2.145 2.681h19.571v28.69h-.537c1.073 1.877 2.145 3.754 3.217 5.631v-2.95h28.686v28.69h-15.281c.536.804.804 1.877 1.34 2.681h13.941v28.69c.268.804.804 1.609 1.073 2.413 1.876-.804 3.753-1.609 5.629-2.413h-4.021v-28.69h28.686v20.11c.804-.268 1.876-.536 2.681-.804v-19.038h28.685v10.189c.805-.268 1.877-.536 2.681-.804v-9.653h4.022c-.268-.804-.537-1.34-.805-2.145 0-.268 0-.268-.268-.536h-2.949v-28.69h28.686v8.312c.804-.268 1.877-.536 2.681-.804v-7.24h18.766c2.145-.804 4.022-1.876 5.898-2.681h-24.932v-28.958h28.685v26.813c.805-.268 1.877-.804 2.681-1.341v-25.472h28.686v8.848c.804-.536 1.877-1.34 2.681-1.876v-6.972h9.383c1.072-.804 2.145-1.877 3.485-2.681h-12.868v-28.69h28.686v15.015c.804-.804 1.876-1.608 2.681-2.681v-12.334h11.795c.805-.804 1.609-1.877 2.413-2.681h-14.208v-28.69h28.685v10.457c.804-1.34 1.877-2.413 2.681-3.754v-6.703h4.558c.536-.804 1.072-1.877 1.876-2.681h-6.434v-28.69h22.252c.536-.804.804-1.877 1.34-2.6812h-23.592v-24.6678zm-378.812 56.039h-28.686v-28.69h28.686zm31.367 0h-28.686v-28.69h28.686zm31.366 0h-28.685v-28.69h28.685zm62.733 31.371h-28.685v-28.69h28.685zm31.367 62.742h-28.686v-28.69h28.686zm0-31.371h-28.686v-28.69h28.686zm31.367 62.742h-28.686v-28.69h28.686zm31.098 0h-28.686v-28.69h28.686zm31.367-31.371h-28.686v-28.69h28.686zm62.733-31.371h-28.686v-28.69h28.686zm31.366-31.371h-28.685v-28.69h28.685zm31.367-31.371h-28.686v-28.69h28.686z" fill="url(#b)"/><path d="m587.473 58.7821c-20.375-5.6307-40.75-10.4571-61.125-16.0878" stroke="#161d25" stroke-linecap="round" stroke-linejoin="round" stroke-miterlimit="10" stroke-width="1.5"/><circle cx="457.5" cy="581.5" fill="#c3ddfa" opacity=".6" r="34.5"/></svg>