<?xml version="1.0" encoding="UTF-8"?>
<svg width="624px" height="626px" viewBox="0 0 624 626" version="1.1" xmlns="http://www.w3.org/2000/svg" xmlns:xlink="http://www.w3.org/1999/xlink">
    <!-- Generator: Sketch 63.1 (92452) - https://sketch.com -->
    <title>Hero image</title>
    <desc>Created with Sketch.</desc>
    <defs>
        <linearGradient x1="40.5191371%" y1="62.2156896%" x2="77.2174745%" y2="-8.92147628%" id="linearGradient-1">
            <stop stop-color="#965CF2" offset="0%"></stop>
            <stop stop-color="#FF8ADC" offset="100%"></stop>
        </linearGradient>
        <linearGradient x1="50.0045435%" y1="17.636517%" x2="49.9950293%" y2="91.4558296%" id="linearGradient-2">
            <stop stop-color="#324179" offset="0%"></stop>
            <stop stop-color="#0C124D" offset="100%"></stop>
        </linearGradient>
        <linearGradient x1="50.0046317%" y1="17.6306263%" x2="49.9932416%" y2="91.4582939%" id="linearGradient-3">
            <stop stop-color="#324179" offset="0%"></stop>
            <stop stop-color="#0C124D" offset="100%"></stop>
        </linearGradient>
        <linearGradient x1="49.3206253%" y1="29.4854523%" x2="42.6917273%" y2="87.9411781%" id="linearGradient-4">
            <stop stop-color="#D1E8FF" offset="0%"></stop>
            <stop stop-color="#EAEFFF" offset="100%"></stop>
        </linearGradient>
        <linearGradient x1="57.7194837%" y1="18.0478671%" x2="40.2792535%" y2="90.2448772%" id="linearGradient-5">
            <stop stop-color="#6D6AFE" offset="0%"></stop>
            <stop stop-color="#3FB0F7" offset="100%"></stop>
        </linearGradient>
        <linearGradient x1="43.8046148%" y1="66.2859462%" x2="63.3969146%" y2="14.7618343%" id="linearGradient-6">
            <stop stop-color="#965CF2" offset="0%"></stop>
            <stop stop-color="#FF8ADC" offset="100%"></stop>
        </linearGradient>
        <linearGradient x1="43.9726304%" y1="64.3229525%" x2="76.5218165%" y2="16.5798488%" id="linearGradient-7">
            <stop stop-color="#965CF2" offset="0%"></stop>
            <stop stop-color="#FF8ADC" offset="100%"></stop>
        </linearGradient>
        <linearGradient x1="44.5949502%" y1="67.5462534%" x2="62.676537%" y2="15.7711895%" id="linearGradient-8">
            <stop stop-color="#965CF2" offset="0%"></stop>
            <stop stop-color="#FF8ADC" offset="100%"></stop>
        </linearGradient>
        <linearGradient x1="53.1656183%" y1="41.6889493%" x2="46.6388399%" y2="58.8341461%" id="linearGradient-9">
            <stop stop-color="#1C8EF4" offset="0%"></stop>
            <stop stop-color="#00CFDD" offset="100%"></stop>
        </linearGradient>
        <linearGradient x1="47.016923%" y1="73.9712634%" x2="58.0600574%" y2="-0.376682008%" id="linearGradient-10">
            <stop stop-color="#965CF2" offset="0%"></stop>
            <stop stop-color="#FF8ADC" offset="100%"></stop>
        </linearGradient>
        <linearGradient x1="57.8105298%" y1="16.2723466%" x2="40.2118993%" y2="92.2693001%" id="linearGradient-11">
            <stop stop-color="#6D6AFE" offset="0%"></stop>
            <stop stop-color="#3FB0F7" offset="100%"></stop>
        </linearGradient>
        <linearGradient x1="46.9544784%" y1="54.4007728%" x2="59.7769996%" y2="35.9117119%" id="linearGradient-12">
            <stop stop-color="#965CF2" offset="0%"></stop>
            <stop stop-color="#FF8ADC" offset="100%"></stop>
        </linearGradient>
        <linearGradient x1="78.6823765%" y1="21.3531065%" x2="52.9378383%" y2="71.8328972%" id="linearGradient-13">
            <stop stop-color="#FF66BC" offset="0%"></stop>
            <stop stop-color="#FF8ADC" offset="56%"></stop>
            <stop stop-color="#FFBBA8" offset="100%"></stop>
        </linearGradient>
        <linearGradient x1="66.3073566%" y1="49.0991098%" x2="27.9766705%" y2="51.2158588%" id="linearGradient-14">
            <stop stop-color="#FF66BC" offset="0%"></stop>
            <stop stop-color="#FF8ADC" offset="56%"></stop>
            <stop stop-color="#FFBBA8" offset="100%"></stop>
        </linearGradient>
        <linearGradient x1="55.3450199%" y1="59.0869439%" x2="67.7308538%" y2="16.186876%" id="linearGradient-15">
            <stop stop-color="#965CF2" offset="0%"></stop>
            <stop stop-color="#FF8ADC" offset="100%"></stop>
        </linearGradient>
        <linearGradient x1="50.86957%" y1="70.984413%" x2="48.285236%" y2="8.63778552%" id="linearGradient-16">
            <stop stop-color="#965CF2" offset="0%"></stop>
            <stop stop-color="#FF8ADC" offset="100%"></stop>
        </linearGradient>
        <linearGradient x1="49.980464%" y1="8.08359157%" x2="50.0466459%" y2="83.6518737%" id="linearGradient-17">
            <stop stop-color="#5A2D68" offset="0%"></stop>
            <stop stop-color="#22043D" offset="100%"></stop>
        </linearGradient>
        <linearGradient x1="52.2961092%" y1="50.9341446%" x2="48.4798325%" y2="46.9095122%" id="linearGradient-18">
            <stop stop-color="#FF8A78" offset="0%"></stop>
            <stop stop-color="#FFA799" offset="100%"></stop>
        </linearGradient>
        <linearGradient x1="50.1079952%" y1="84.3584991%" x2="49.9695096%" y2="13.4496656%" id="linearGradient-19">
            <stop stop-color="#965CF2" offset="0%"></stop>
            <stop stop-color="#FF8ADC" offset="100%"></stop>
        </linearGradient>
        <linearGradient x1="60.6361814%" y1="75.120165%" x2="43.2407442%" y2="28.4981342%" id="linearGradient-20">
            <stop stop-color="#965CF2" offset="0%"></stop>
            <stop stop-color="#FF8ADC" offset="100%"></stop>
        </linearGradient>
        <linearGradient x1="42.3617557%" y1="53.5013111%" x2="59.1761458%" y2="75.9040021%" id="linearGradient-21">
            <stop stop-color="#FF8A78" offset="0%"></stop>
            <stop stop-color="#FFA799" offset="100%"></stop>
        </linearGradient>
        <linearGradient x1="54.6398945%" y1="77.0128299%" x2="39.7079198%" y2="-9.86753546%" id="linearGradient-22">
            <stop stop-color="#965CF2" offset="0%"></stop>
            <stop stop-color="#FF8ADC" offset="100%"></stop>
        </linearGradient>
        <linearGradient x1="62.618574%" y1="38.8352108%" x2="48.8588538%" y2="53.8878595%" id="linearGradient-23">
            <stop stop-color="#6D6AFE" offset="0%"></stop>
            <stop stop-color="#3FB0F7" offset="100%"></stop>
        </linearGradient>
        <linearGradient x1="55.7403816%" y1="39.2966612%" x2="48.5940298%" y2="52.6336793%" id="linearGradient-24">
            <stop stop-color="#6D6AFE" offset="0%"></stop>
            <stop stop-color="#3FB0F7" offset="100%"></stop>
        </linearGradient>
        <linearGradient x1="73.2570229%" y1="28.5628512%" x2="29.1905097%" y2="69.1659272%" id="linearGradient-25">
            <stop stop-color="#6D6AFE" offset="0%"></stop>
            <stop stop-color="#3FB0F7" offset="100%"></stop>
        </linearGradient>
        <linearGradient x1="53.6246206%" y1="35.1315047%" x2="45.4515507%" y2="68.6503991%" id="linearGradient-26">
            <stop stop-color="#6D6AFE" offset="0%"></stop>
            <stop stop-color="#3FB0F7" offset="100%"></stop>
        </linearGradient>
        <linearGradient x1="46.9268611%" y1="63.1362201%" x2="57.0869515%" y2="19.6954891%" id="linearGradient-27">
            <stop stop-color="#965CF2" offset="0%"></stop>
            <stop stop-color="#FF8ADC" offset="100%"></stop>
        </linearGradient>
        <linearGradient x1="40.5330268%" y1="72.3876417%" x2="59.2494747%" y2="28.1256131%" id="linearGradient-28">
            <stop stop-color="#6D6AFE" offset="0%"></stop>
            <stop stop-color="#3FB0F7" offset="100%"></stop>
        </linearGradient>
        <linearGradient x1="54.4479517%" y1="55.6193028%" x2="49.7167264%" y2="51.2563515%" id="linearGradient-29">
            <stop stop-color="#FF8A78" offset="0%"></stop>
            <stop stop-color="#FFA799" offset="100%"></stop>
        </linearGradient>
        <linearGradient x1="50.9002683%" y1="83.0699427%" x2="48.7060439%" y2="15.0033455%" id="linearGradient-30">
            <stop stop-color="#965CF2" offset="0%"></stop>
            <stop stop-color="#FF8ADC" offset="100%"></stop>
        </linearGradient>
        <linearGradient x1="51.4239299%" y1="22.0822985%" x2="48.2779654%" y2="77.9316369%" id="linearGradient-31">
            <stop stop-color="#40457F" offset="0%"></stop>
            <stop stop-color="#1E2353" offset="100%"></stop>
        </linearGradient>
        <linearGradient x1="64.4269846%" y1="34.7420462%" x2="21.7014359%" y2="91.0769635%" id="linearGradient-32">
            <stop stop-color="#3773B9" offset="0%"></stop>
            <stop stop-color="#003C76" offset="100%"></stop>
        </linearGradient>
        <linearGradient x1="56.2884668%" y1="22.0420672%" x2="40.0537026%" y2="74.2343044%" id="linearGradient-33">
            <stop stop-color="#40457F" offset="0%"></stop>
            <stop stop-color="#1E2353" offset="100%"></stop>
        </linearGradient>
        <linearGradient x1="58.6796189%" y1="47.605026%" x2="5.16523407%" y2="53.0930932%" id="linearGradient-34">
            <stop stop-color="#3773B9" offset="0%"></stop>
            <stop stop-color="#003C76" offset="100%"></stop>
        </linearGradient>
        <linearGradient x1="32.4042758%" y1="85.3455326%" x2="59.4022953%" y2="35.0699753%" id="linearGradient-35">
            <stop stop-color="#FF8A78" offset="0%"></stop>
            <stop stop-color="#FFA799" offset="100%"></stop>
        </linearGradient>
        <linearGradient x1="49.8643809%" y1="49.1648406%" x2="60.0586201%" y2="76.2394498%" id="linearGradient-36">
            <stop stop-color="#A77EF7" offset="0%"></stop>
            <stop stop-color="#5E65D6" offset="100%"></stop>
        </linearGradient>
        <linearGradient x1="50.6671387%" y1="16.8778577%" x2="45.4774605%" y2="90.5823519%" id="linearGradient-37">
            <stop stop-color="#A77EF7" offset="0%"></stop>
            <stop stop-color="#5E65D6" offset="100%"></stop>
        </linearGradient>
        <linearGradient x1="60.3137427%" y1="34.3787878%" x2="47.9847752%" y2="62.7846555%" id="linearGradient-38">
            <stop stop-color="#FF8A78" offset="0%"></stop>
            <stop stop-color="#FFA799" offset="100%"></stop>
        </linearGradient>
        <linearGradient x1="51.2551386%" y1="42.9177397%" x2="44.2863977%" y2="70.5650659%" id="linearGradient-39">
            <stop stop-color="#FFB89E" offset="0%"></stop>
            <stop stop-color="#FFA799" offset="100%"></stop>
        </linearGradient>
        <linearGradient x1="100.064945%" y1="33.0748524%" x2="28.4029863%" y2="60.1378931%" id="linearGradient-40">
            <stop stop-color="#8A4791" offset="0%"></stop>
            <stop stop-color="#562E65" offset="100%"></stop>
        </linearGradient>
        <linearGradient x1="41.4771489%" y1="70.4925551%" x2="61.7205728%" y2="27.1472969%" id="linearGradient-41">
            <stop stop-color="#FF8A78" offset="0%"></stop>
            <stop stop-color="#FFA799" offset="100%"></stop>
        </linearGradient>
        <linearGradient x1="49.4733928%" y1="36.9106676%" x2="53.6269428%" y2="87.0679266%" id="linearGradient-42">
            <stop stop-color="#A77EF7" offset="0%"></stop>
            <stop stop-color="#5E65D6" offset="100%"></stop>
        </linearGradient>
        <linearGradient x1="55.5401358%" y1="58.4121312%" x2="66.1135364%" y2="24.8551135%" id="linearGradient-43">
            <stop stop-color="#965CF2" offset="0%"></stop>
            <stop stop-color="#FF8ADC" offset="100%"></stop>
        </linearGradient>
    </defs>
    <g id="Symbols" stroke="none" stroke-width="1" fill="none" fill-rule="evenodd">
        <g id="Hero-image">
            <g>
                <rect id="Rectangle" fill="url(#linearGradient-1)" opacity="0.25" x="0" y="0" width="624" height="626" rx="312"></rect>
                <path d="M379.710292,196.580422 C380.018554,196.755472 380.43541,196.882469 380.92933,197.136464 C382.533698,200.912059 383.143217,202.031008 382.824446,202.408567 C382.568728,202.714047 382.596752,202.549294 382.474147,203.311277 C382.284986,204.340985 385.99815,208.837375 386.569137,210.261804 C387.09489,211.459689 387.141162,212.807604 386.698747,214.037399 C385.833339,216.459352 384.489463,218.690531 382.743877,220.603501 C381.272623,222.223575 379.650741,223.256715 378.239038,222.94437 C376.487545,222.563378 376.795808,221.032546 377.055029,219.512011 C377.149609,218.973131 378.197002,217.795832 378.105924,217.246654 C377.640027,214.215881 375.377099,211.572965 373.716683,208.947211 C372.290968,207.649779 369.894926,206.2837 368.563792,204.780327 C366.644156,202.607644 366.283348,200.31826 368.665379,198.99337 C369.425526,198.57119 371.341659,196.460289 372.318992,196.539233 C374.19309,196.703987 377.33877,195.217775 379.710292,196.580422 Z" id="Path" fill="#202249"></path>
                <path d="M315.5498,187.33502 C314.271108,190.761122 315.269112,193.824057 318.062137,195.136253 L318.117581,195.187645 C318.225005,195.228758 318.33936,195.266445 318.46411,195.304132 C318.762101,195.420468 319.067752,195.516621 319.378947,195.591925 C322.722954,196.57179 327.72337,197.462576 330.783222,198.041588 C342.977583,200.343928 361.149573,201.779464 369.684586,205 C373.032058,202.567468 374.023131,198.055292 371.833067,195.348672 C362.525293,190.963262 349.94975,185.262229 344.675576,183.333333 C343.251668,182.871397 341.766047,182.621975 340.267725,182.593295 C348.123541,175.590344 356.443707,168.004955 359.673358,161.536475 C361.960451,156.962629 362.331237,150.607211 363.921806,146.629507 C351.100227,150.339975 348.643335,142.68949 346.286937,140 C344.266672,142.925891 344.315186,142.398271 342.270664,145.516024 C335.340081,156.102678 325.159054,171.112429 318.225005,182.260964 C317.084924,183.860953 316.000288,185.728178 315.5498,187.33502 Z" id="Path" fill="url(#linearGradient-2)"></path>
                <path d="M358.443233,189.648192 C353.174837,187.249071 348.421791,185.18869 345.653532,184.161992 C344.224949,183.691831 342.734526,183.437608 341.231284,183.407683 C349.125172,176.269686 357.485659,168.53802 360.730963,161.944801 C363.02914,157.282753 363.401723,150.804776 365,146.750366 C361.371667,147.815478 358.568588,147.962149 356.360946,147.56055 L356.709154,150.085389 C346.7678,160.013631 328.681847,183.089895 327,198.158612 C333.079721,199.579926 349.682306,201.717134 352.346101,202 C353.042518,197.530021 355.95006,193.968007 358.443233,189.627239 L358.443233,189.648192 Z M349.38981,142.940408 C348.55411,141.812437 347.916888,140.726372 347.300559,140 C346.008705,141.899741 345.559516,142.3642 344.863099,143.275656 L349.38981,142.940408 Z" id="Shape" fill="#1E2353" opacity="0.3" style="mix-blend-mode: multiply;"></path>
                <path d="M356.589334,246.564575 C358.314178,249.059692 353.663732,261.580263 352.532632,264.213805 C351.53753,266.539351 351.849328,267.965132 354.214356,267.999738 C356.075198,268.030884 359.030652,265.27968 360.831788,263.47669 C364.21182,260.102573 364.404206,256.659243 365.386041,255.195395 L366.537043,254.811264 C367.376246,254.312933 369.854052,250.924973 370,249.641078 C369.649326,248.449431 369.221555,247.283982 368.719635,246.15276 C366.882012,242.612532 366.477337,244.162896 364.05592,242 C361.292852,244.090223 363.253204,244.924235 356.589334,246.564575 Z" id="Path" fill="#202249"></path>
                <path d="M333.089718,203.389376 C338.386662,213.590072 351.559327,236.594496 356.218547,246.822921 C360.323679,247.68251 364.484568,245.301308 364.843506,242.088245 C361.850036,232.286149 356.98521,216.141113 354.584161,210.993972 C352.998562,207.59374 350.032971,203.056632 347.35662,199.59401 C355.187037,188.700096 367.589554,171.549895 371.168476,161.494774 C376.047241,147.817592 370.450601,140.005031 362.940788,135.71748 C360.271407,134.188935 357.399905,136.639459 356.044306,135 C352.83826,141.221627 349.942365,149.678881 348.067525,157.29041 C345.453901,167.90357 332.985173,190.422742 332.037299,197.996144 C331.896641,199.465146 332.155408,200.944754 332.786537,202.280228 C332.870173,202.637235 332.964264,203.008106 333.089718,203.389376 Z" id="Path" fill="url(#linearGradient-3)"></path>
                <path d="M542.083501,608.053803 L184.364022,406.623553 C179.849841,404.547309 173.213372,402.626783 168.785604,405.332821 L157.455216,412.253634 C155.177387,413.637796 147.680251,418.274741 152.692167,420.99462 C167.444484,429.005461 497.743595,616.0335 512.72404,624.168915 C515.554909,625.708796 519.699245,626.245159 524.050971,625.899118 C528.402697,625.553078 532.878857,624.352317 536.318069,622.224167 L540.842619,619.424698 C544.043333,617.445346 545.816514,615.272211 545.985882,613.195967 C546.151794,611.192392 544.855609,609.316851 542.083501,608.053803 Z" id="Path" fill="#955CF1" opacity="0.3"></path>
                <path d="M225.140151,79.4308023 C222.673512,78.0457626 219.781353,77.5090598 217.072548,78.5305265 L211.011467,80.8989443 C208.814671,92.2943578 522.998001,615.101805 525.807132,618 L531.217823,615.957067 C534.767292,614.572027 536.628514,610.856658 537.150902,607.26248 L582.816581,295.337705 C582.818105,295.326213 582.818105,295.314571 582.816581,295.303079 C583.560378,290.057241 581.986296,284.596723 579.104515,280.213072 C577.55119,277.85158 575.513532,275.687455 573.005379,274.326654 L225.140151,79.4308023 Z" id="Path" fill="url(#linearGradient-4)"></path>
                <path d="M567.021721,276.155293 L219.759088,81.4437334 C213.197124,77.797605 206.935628,81.2984417 205.775196,89.2341329 L160.186809,400.863954 C159.026377,408.799645 163.39181,418.198631 169.960683,421.844759 L517.226769,616.552859 C523.788734,620.202447 530.064045,616.708529 531.224476,608.776297 L576.812864,297.143016 C577.976749,289.207325 573.590593,279.801421 567.021721,276.155293 Z" id="Path" fill="url(#linearGradient-5)"></path>
                <path d="M567.015342,275.350332 L219.530696,80.4451689 C212.964536,76.7954151 206.699037,80.2997328 205.537864,88.2433146 L204,98.7631932 L575.257601,307 L576.812744,296.358925 C577.977373,288.415343 573.588414,279.000086 567.015342,275.350332 Z" id="Path" fill="#4A9FF8"></path>
                <path d="M216.735997,89.0996128 C219.216409,89.7021837 221.123917,92.8286659 220.993712,96.0825488 C220.863506,99.3364318 218.744414,101.491914 216.264003,100.903116 C213.783591,100.314318 211.876083,97.174063 212.006288,93.9201801 C212.136494,90.6662971 214.25233,88.5004851 216.735997,89.0996128 Z" id="Path" fill="#5858F0"></path>
                <path d="M228.73429,95.1011247 C231.217056,95.7002162 233.123872,98.8265093 232.993714,102.083639 C232.863556,105.340768 230.745232,107.489234 228.262466,106.903914 C225.7797,106.318595 223.876138,103.164758 224.006296,99.9076283 C224.136454,96.6504991 226.254778,94.4985903 228.73429,95.1011247 Z" id="Path" fill="#5858F0"></path>
                <path d="M241.737543,104.100207 C244.217056,104.702748 246.123872,107.829074 245.993714,111.082795 C245.863556,114.336515 243.745232,116.491889 241.262466,115.903121 C238.7797,115.314353 236.876138,112.163925 237.006296,108.906761 C237.136454,105.649598 239.254777,103.50111 241.737543,104.100207 Z" id="Path" fill="#5858F0"></path>
                <path d="M524.429629,384.142589 L461.930171,349.814414 C458.303403,347.806513 454.752769,347.522638 451.786986,348.678911 C447.980264,350.160604 445.142525,354.006772 444.318889,359.615045 L437.234925,410.466857 C435.774528,420.447507 441.273511,432.276811 449.544481,436.853439 L512.054321,471.181614 C520.32529,475.768628 528.219048,471.37548 529.682906,461.398292 L536.76687,410.543019 C538.223806,400.562368 532.700598,388.729603 524.429629,384.142589 Z" id="Path" fill="url(#linearGradient-6)" opacity="0.5" style="mix-blend-mode: multiply;"></path>
                <path d="M432.132724,205 L569,271.651291 L565.3744,275.346665 L552.240671,367.016775 C550.899648,376.419103 543.734854,380.587181 536.252085,376.332843 L408.125651,303.184457 L397,278.400265 L432.132724,205 Z" id="Path" fill="url(#linearGradient-7)" opacity="0.5" style="mix-blend-mode: multiply;"></path>
                <path d="M260.969968,347.036314 L176.660768,300 L173.840935,304.33211 L160,399.239968 L247.314956,447.95714 C256.556018,453.110617 265.377032,448.175478 267.009023,436.957047 L274.735157,376.712997 C276.377477,365.494566 270.21103,352.193257 260.969968,347.036314 Z" id="Path" fill="url(#linearGradient-8)" opacity="0.5" style="mix-blend-mode: multiply;"></path>
                <path d="M257.377466,367.576658 L247.228675,433.807009 L248.838603,434 L253.234677,432.304437 C258.050582,430.419329 260.579973,425.439474 261.284316,420.587131 L268.751051,363.155098 C268.752712,363.14021 268.752712,363.125185 268.751051,363.110297 C269.760725,356.04545 267.623407,348.691117 263.713087,342.777324 C261.606996,339.59642 258.855546,336.684325 255.434449,334.850911 L79.3624718,237.924664 C76.0142383,236.03611 72.0969785,235.346857 68.4121868,236.725363 L64.5400328,238.227935 C62.5900771,238.955098 61.9863542,239.537517 62,239.658136 C63.8252804,256.568966 259.955432,350.217814 257.377466,367.576658 Z" id="Path" fill="#D0E7FF"></path>
                <path d="M250.469501,336.368712 L74.6794659,238.957094 C70.772251,236.792853 66.9481683,236.484665 63.7510411,237.731268 C59.6533148,239.324149 56.5912775,243.469103 55.7045337,249.504738 L48.2538073,307.212059 C46.6777587,317.946694 52.6043942,330.689744 61.5133985,335.627676 L237.306897,433.042758 C246.222829,437.98069 254.726564,433.250525 256.302613,422.505501 L263.742947,364.794718 C265.332851,354.049695 259.381969,341.306644 250.469501,336.368712 Z" id="Path" fill="url(#linearGradient-9)"></path>
                <path d="M249.764288,354.310015 L128.504042,287.460952 C127.721251,286.973505 126.760642,286.866406 125.890078,287.169519 C124.913736,287.551157 124.179749,288.557293 123.968554,289.990169 L123.300349,294.052877 C122.922969,296.623728 124.33901,299.673361 126.468266,300.856438 L247.731974,367.695093 C249.86123,368.874701 251.886619,367.743665 252.270924,365.169345 L252.939129,361.110107 C253.31651,358.539256 251.900468,355.486153 249.764288,354.303076 L249.764288,354.310015 Z M182.251303,370.030023 C184.380558,371.2131 185.800062,374.266202 185.422682,376.840522 L184.754476,380.896291 C184.377096,383.470612 182.330933,384.605117 180.215527,383.42204 L119.228797,350.524862 C117.099541,349.345254 115.683499,346.292152 116.06088,343.721301 L116.729085,339.665532 C116.940279,338.218778 117.674267,337.236928 118.654071,336.841412 C119.523836,336.537885 120.484071,336.646361 121.264573,337.136314 L182.237454,370.033492 L182.251303,370.030023 Z M246.153209,379.140757 C248.282464,380.323835 249.70543,383.376937 249.324588,385.947788 L248.656383,390.007026 C248.282464,392.581347 246.25015,393.712382 244.117433,392.532775 L122.843338,325.694119 C120.714082,324.514512 119.298041,321.461409 119.671959,318.890558 L120.343626,314.83132 C120.554821,313.384566 121.285346,312.402716 122.26515,312.01067 C123.134571,311.707649 124.094097,311.814769 124.875652,312.302102 L246.153209,379.140757 Z" id="Shape" fill="#FFFCF1" opacity="0.5"></path>
                <path d="M89.8395615,286.747328 C84.2131003,283.583006 78.2434793,287.85036 78.2876484,296.10931 C78.3148293,300.387004 80.1019783,304.78879 82.9254017,307.546369 C83.6086333,308.218518 84.3749698,308.797853 85.2052058,309.269856 C90.8214741,312.427284 96.7571189,308.163378 96.7199206,299.938898 C96.7199206,295.657756 94.9291985,291.235288 92.1227632,288.484603 C91.4335154,287.803881 90.6603708,287.216469 89.8225734,286.736987 L89.8395615,286.747328 Z M84.4033671,313.158043 C83.2894918,312.520801 82.2616564,311.739886 81.3455077,310.834782 C77.5469669,307.136179 75.1652342,301.207384 75.1108723,295.450938 C75.0429198,284.372363 83.0545114,278.615917 90.6176168,282.869483 C91.7500598,283.515189 92.7931516,284.31032 93.7196453,285.234107 C97.5079933,288.925816 99.8863283,294.854611 99.9137203,300.611058 C99.961076,311.641374 91.9596773,317.404715 84.4067647,313.158043 L84.4033671,313.158043 Z M110.167531,303.744357 C111.485808,304.485456 112.270659,306.42955 111.913908,308.104779 L110.537872,314.595431 C110.19811,316.249978 108.839061,317.008313 107.513989,316.249978 L106.834464,315.870811 C106.388244,315.59239 105.848101,315.514453 105.343061,315.655618 C104.83802,315.796783 104.413436,316.144373 104.170729,316.615358 C103.796211,317.252072 103.387896,317.867689 102.947585,318.459489 C102.268061,319.372937 102.149144,320.831007 102.672378,322.133963 L103.029128,323.012941 C103.708653,324.691618 103.300938,326.601241 102.132156,327.242378 L97.4978004,329.782798 C96.9040231,330.09528 96.1922435,330.069116 95.6223133,329.713859 C94.9303317,329.293217 94.3996462,328.646658 94.117167,327.880069 L93.7604167,327.021772 C93.4781405,326.265593 92.9541809,325.627223 92.2722585,325.208664 C91.9329338,325.013285 91.5479215,324.914443 91.1578387,324.922565 C90.5054953,324.922565 89.8395615,324.898436 89.1804229,324.836391 C88.120365,324.732981 87.2369834,325.494763 86.9685713,326.763249 L86.791895,327.611205 C86.4521329,329.262305 85.0930843,330.024086 83.7680119,329.265752 L78.6036272,326.359953 C77.28535,325.618854 76.5004995,323.678207 76.8538521,322.020213 L77.0305284,321.175704 C77.2777693,319.837336 76.901544,318.458162 76.011242,317.439184 C75.4574297,316.818729 74.9375936,316.177592 74.4211551,315.515773 C74.1584004,315.152337 73.8240166,314.848312 73.4392425,314.623007 C72.8743663,314.2715 72.1694139,314.24535 71.5807435,314.554067 L70.9725693,314.871189 C70.3777223,315.182595 69.6660615,315.157788 69.0936846,314.805696 C68.4057737,314.381162 67.8772532,313.735784 67.5919359,312.971906 L64.9078149,306.315799 C64.2282906,304.64057 64.6394028,302.7275 65.804787,302.086362 L66.4163588,301.741665 C67.3269214,301.245301 67.7754074,299.983708 67.5953335,298.577343 C67.4730191,297.688024 67.384681,296.79181 67.330319,295.895597 C67.2453785,294.516808 66.5250827,293.200064 65.5159891,292.63476 L64.8364648,292.255593 C63.5181877,291.514493 62.7333371,289.5704 63.0832921,287.915852 L64.4627265,281.4252 C64.8024886,279.749971 66.1615372,279.012319 67.4866096,279.749971 L68.1661339,280.129138 C68.6118426,280.409664 69.152712,280.488792 69.6583842,280.34745 C70.1640564,280.206109 70.5886637,279.857119 70.8298692,279.384592 C71.204338,278.747054 71.6138309,278.131372 72.0564105,277.540461 C72.7359348,276.647695 72.851454,275.189625 72.3248226,273.883221 L71.9680724,273.004243 C71.2885481,271.311779 71.6996603,269.415943 72.8718397,268.757571 L77.5027978,266.217151 C78.0977794,265.904743 78.8105001,265.930894 79.3816825,266.286091 C80.0718609,266.707953 80.6011178,267.354231 80.8834312,268.119881 L81.2231934,268.995412 C81.504315,269.752274 82.0285581,270.390989 82.7113516,270.808521 C83.0484316,271.006775 83.4328438,271.106958 83.8223738,271.098066 C84.4844755,271.078557 85.1471331,271.10043 85.8065848,271.163559 C86.8632451,271.284203 87.743229,270.525869 88.0116411,269.257382 L88.1917151,268.409427 C88.5314772,266.734197 89.8905258,265.996545 91.2155982,266.734197 L96.4309472,269.639996 C97.7492244,270.381096 98.5306773,272.325189 98.1739271,273.996972 L97.9972507,274.844927 C97.7454382,276.171495 98.114418,277.541526 98.9961515,278.553871 C99.5533614,279.174326 100.086788,279.824656 100.596431,280.504858 C100.862176,280.865878 101.197378,281.168425 101.581741,281.394178 C102.145365,281.745745 102.849376,281.771908 103.436843,281.463117 L104.051812,281.11842 C104.64559,280.805938 105.357369,280.832102 105.927299,281.187359 C106.617695,281.609876 107.147861,282.255802 107.432446,283.021149 L110.113169,289.673809 C110.792693,291.36972 110.384979,293.265556 109.216197,293.923928 L108.604625,294.268625 C107.694063,294.76499 107.245576,296.026582 107.429048,297.415713 C107.547965,298.308479 107.639701,299.201245 107.694063,300.097458 C107.779003,301.476248 108.499299,302.792992 109.508392,303.361743 L110.167531,303.744357 Z" id="Shape" fill="#FFFCF1" opacity="0.5"></path>
                <path d="M241.629341,127.389295 L203.835305,109 L188.918514,202.946897 L187,216.144125 L226.295031,237.485432 C233.123699,241.305682 239.641816,237.645188 240.846063,229.358718 L251.805057,149.314058 C253.016205,141.024115 248.458009,131.199126 241.629341,127.389295 Z" id="Path" fill="url(#linearGradient-10)" opacity="0.5" style="mix-blend-mode: multiply;"></path>
                <path d="M237.103699,149.857727 L225.317913,225.851823 L226.550707,226 L229.914127,224.697421 C233.598696,223.246666 235.535944,219.418187 236.074644,215.693087 L245.809226,146.473779 C245.809226,146.473779 245.809226,146.446211 245.809226,146.435873 C246.582744,141.005016 244.945925,135.35017 241.951997,130.811821 C240.342804,128.368624 238.222537,126.12874 235.618821,124.719336 L163.291459,85.4869059 C160.725729,84.0361503 157.721441,83.4951321 154.910533,84.5530466 L151.94423,85.7108943 C150.452446,86.2691423 149.99317,86.7171191 150,86.8101605 C151.398624,99.8221637 239.085838,136.508018 237.103699,149.857727 Z" id="Path" fill="#D0E7FF"></path>
                <path d="M231.63975,126.643927 L159.433241,87.4949822 C156.440868,85.8405592 153.513996,85.6066699 151.066318,86.5594249 C147.9326,87.7770252 145.588345,90.9414101 144.9092,95.5538451 L135.194331,164.647502 C133.987729,172.857705 138.524552,182.57787 145.343577,186.351055 L217.553534,225.5 C224.376006,229.283504 230.884762,225.658219 232.091364,217.451456 L241.806233,148.357799 C243.012835,140.147596 238.458775,130.417112 231.63975,126.643927 Z" id="Path" fill="url(#linearGradient-11)"></path>
                <path d="M218.676567,206.264193 L145.672565,167.292422 C143.990046,166.395251 142.380378,167.320028 142.054281,169.397326 C141.738592,171.409062 142.831362,173.776215 144.513882,174.676838 L217.514414,213.652059 C219.196934,214.552682 220.837824,213.652059 221.163921,211.560959 C221.47961,209.552674 220.355618,207.168266 218.676567,206.267644 L218.676567,206.264193 Z M221.937533,185.166849 C223.620052,186.064021 224.740576,188.451879 224.428356,190.456713 C224.102259,192.52711 222.461369,193.448436 220.77538,192.547814 L147.785255,153.576043 C146.102735,152.67542 145.009965,150.308267 145.325654,148.299982 C145.651751,146.229585 147.25795,145.294456 148.943938,146.195078 L221.944471,185.187553 L221.937533,185.166849 Z M229.448161,137.319977 L156.458036,98.3447556 C154.775516,97.4441329 153.165848,98.3723609 152.850159,100.380646 L152.038387,105.556638 C151.726167,107.564923 152.818937,109.932077 154.501456,110.832699 L227.501989,149.825174 C229.18104,150.722346 230.82193,149.825174 231.141088,147.803086 L231.945922,142.627094 C232.26508,140.62226 231.137619,138.237853 229.458569,137.33723 L229.448161,137.319977 Z M225.222782,164.235136 C226.901833,165.135759 228.032763,167.48566 227.720543,169.493945 C227.373632,171.6092 225.750087,172.482217 224.071037,171.585045 L151.070504,132.609824 C149.384516,131.712652 148.295214,129.376554 148.600496,127.37172 C148.947407,125.256464 150.53973,124.366194 152.22225,125.259915 L225.222782,164.235136 Z" id="Shape" fill="#FFFCF1"></path>
                <path d="M520.318397,407.825637 L511.708259,460.837757 L513.049919,461 L516.711821,459.581235 C520.726428,458.003678 522.83228,453.830229 523.420121,449.774148 L529.793006,404.132014 C529.794672,404.118257 529.794672,404.104349 529.793006,404.090591 C530.633273,398.17389 528.852461,392.008646 525.591674,387.072309 C523.838525,384.407377 521.532115,381.966825 518.696648,380.434144 L462.471412,349.621734 C459.67744,348.037273 456.406279,347.450436 453.342592,348.603399 L450.116384,349.863373 C448.491177,350.470922 447.989783,350.961104 448,351.061211 C449.528543,365.235058 522.455371,393.285881 520.318397,407.825637 Z" id="Path" fill="#D0E7FF"></path>
                <path d="M516.696601,381.395073 L460.439166,350.636551 C457.172851,348.83432 453.979198,348.568982 451.311476,349.602767 C447.885997,350.929456 445.328999,354.378849 444.588542,359.40304 L438.211615,404.965351 C436.896785,413.924813 441.844698,424.500424 449.28387,428.611439 L505.544764,459.369962 C512.990856,463.480977 520.077099,459.545705 521.409229,450.603473 L527.786156,405.03427 C529.111366,396.105821 524.139232,385.506088 516.696601,381.395073 Z" id="Path" fill="#FFFFFF"></path>
                <path d="M491.052248,384.407015 C491.459436,385.216074 491.618593,386.130846 491.509123,387.032954 C491.28168,388.184822 490.938943,389.309977 490.48627,390.390827 L478.675728,423.768356 C478.293863,424.885334 477.946093,425.73174 477.69038,426.342262 C477.505316,426.862307 477.119964,427.283177 476.623203,427.507805 C476.214062,427.695124 475.648083,427.566776 474.918448,427.108884 C473.145503,425.991906 472.364725,424.413567 472.586344,422.505685 C472.82355,421.325683 473.14955,420.165975 473.561463,419.036809 L485.344729,385.641935 C485.948212,383.869339 486.480096,382.721141 486.930151,382.190403 C487.380206,381.659665 488.099613,381.715167 489.09519,382.343033 C489.927971,382.829997 490.603288,383.553235 491.03861,384.424359 L491.052248,384.407015 Z M494.206045,393.079206 L493.121821,402.361919 L510.575101,422.956639 L491.011334,420.434766 L489.92711,429.759106 L518.076023,432 L519,424.097899 L494.206045,393.079206 L494.206045,393.079206 Z M445,385.99576 L469.800774,417.049142 L470.888408,407.724802 L453.499908,386.998266 L472.975028,389.690114 L474.07289,380.28599 L445.913749,378 L445,385.99576 Z" id="Shape" fill="url(#linearGradient-12)"></path>
                <path d="M299.958675,387.038787 C300.963727,380.135338 306.205826,377.090917 311.661327,380.245793 L392.777913,426.115761 C398.22653,429.263734 401.837142,437.427062 400.832091,444.32706 L390.041558,517.9627 C389.036506,524.866149 383.790965,527.907119 378.338906,524.755694 L297.22232,478.885726 C291.766819,475.734302 288.163091,467.574425 289.168142,460.677879 L299.958675,387.038787 Z" id="Path" fill="#FFFFFF"></path>
                <polygon id="Path" fill="url(#linearGradient-13)" points="310 462.181787 338.456917 423 343.974533 464.549142 357.837804 449.570805 366 494"></polygon>
                <path d="M356.883159,424.093656 C359.917742,424.719598 362.203174,428.317891 361.985678,432.136487 C361.768182,435.955083 359.134067,438.532286 356.116745,437.906344 C353.099423,437.280402 350.79673,433.682109 351.014226,429.863513 C351.231722,426.044917 353.862385,423.467714 356.883159,424.093656 Z" id="Path" fill="#FFDB59"></path>
                <path d="M307.197298,397.66968 C308.042139,391.946262 312.44018,389.415546 317.019011,392.032458 L385.099996,430.100083 C389.671874,432.716995 392.703567,439.488557 391.858726,445.215422 L382.819273,506.328423 C381.974432,512.055289 377.569437,514.582557 372.994083,511.969093 L304.902667,473.901469 C300.323837,471.284556 297.299097,464.509547 298.140461,458.786129 L307.197298,397.66968 Z" id="Path" fill="url(#linearGradient-14)" opacity="0.2"></path>
                <path d="M410.961777,451.041661 C411.970239,444.138184 417.208736,441.090298 422.66407,444.245187 L503.774728,490.115346 C509.22662,493.263332 512.837121,501.426694 511.832101,508.32672 L501.041898,581.962667 C500.036878,588.866145 494.791497,591.907126 489.339605,588.755689 L408.225505,542.888982 C402.76673,539.734093 399.163112,531.574182 400.168132,524.677608 L410.961777,451.041661 Z" id="Path" fill="#FFFFFF"></path>
                <polygon id="Path" fill="url(#linearGradient-15)" points="420 526.181787 448.456917 487 453.974533 528.549142 467.837804 513.570805 476 558"></polygon>
                <path d="M467.89285,488.093656 C470.921932,488.719598 473.199774,492.317891 472.986118,496.136487 C472.772463,499.955083 470.136231,502.532286 467.10715,501.906344 C464.078068,501.280402 461.800226,497.682109 462.013882,493.863513 C462.227537,490.044917 464.860322,487.467714 467.89285,488.093656 Z" id="Path" fill="#FFDB59"></path>
                <path d="M417.19824,461.673065 C418.043072,455.946196 422.441064,453.415479 427.019844,456.032393 L495.096601,494.100038 C499.671904,496.716951 502.703564,503.488517 501.858732,509.215386 L492.819379,570.32842 C491.974548,576.055289 487.573078,578.582558 482.997775,575.969092 L414.903635,537.901447 C410.321378,535.284534 407.296672,528.512968 408.141504,522.786099 L417.19824,461.673065 Z" id="Path" fill="url(#linearGradient-16)" opacity="0.2"></path>
                <path d="M287.054746,80.0800684 C279.777137,84.3143382 283.270389,94.1002826 289.872221,104.443458 C299.229147,119.117215 276.564592,135.634651 307.393932,144 C304.181387,135.056782 317.540999,131.76499 324.104709,119.536859 C331.680354,105.434092 327.480134,91.2694101 317.74893,79.2167038 C309.826733,69.3929227 295.330428,69.5201916 287.054746,80.0800684 Z" id="Path" fill="url(#linearGradient-17)"></path>
                <path d="M302.285679,172.81787 L303.868125,179.586266 C304.367682,181.03814 304.668657,181.430917 306.514844,180.48755 C307.523266,179.93696 307.206776,177.562761 306.927521,175.826825 C306.682687,174.411224 306.705952,172.953061 306.995784,171.548357 C307.202819,170.827851 307.609744,170.201915 308.156244,169.763324 C309.257751,168.760339 310.54853,168.09402 309.754204,164.909718 C309.341527,163.250934 309.443921,162.012984 309.40979,160.287569 L305.562273,160 C305.649153,163.878677 304.125661,166.494855 302.537009,169.759817 C301.779917,171.337941 301.94747,171.039851 302.285679,172.81787 Z" id="Path" fill="url(#linearGradient-18)"></path>
                <path d="M316.999558,130.006448 L316.967808,129.792813 C316.962114,129.482815 316.915879,129.174798 316.830226,128.87625 C315.718988,121.640229 313.461236,109.418244 311.700894,103.033317 C308.631761,91.910518 298.884619,95.7559465 299.001034,102.392412 C299.096283,108.673968 305.0758,122.270797 306.455146,128.162985 C305.96479,132.456358 304.130366,153.89221 304.765359,157.637713 C304.885302,158.350978 305.206327,158.816151 305.171049,159.601776 C305.142827,160.19444 304.977024,160.432195 304.797109,161.148906 C306.518645,161.372878 308.240182,161.610633 309.933497,162 C309.973214,161.438223 310.059335,160.880498 310.191022,160.332269 C310.483824,159.52597 311.249343,159.112483 311.584478,158.426784 C313.263682,155.070648 316.040013,137.449213 316.805532,131.712082 C316.940903,131.153347 317.006058,130.58058 316.999558,130.006448 L316.999558,130.006448 Z" id="Path" fill="url(#linearGradient-19)"></path>
                <path d="M315.621021,137 C316.271791,135.450005 317.006985,130.608877 317,128.464601 C317,124.009234 315.283324,120.321914 314.752155,117.493 L299,102 C299.098495,104.901897 302.517676,112.63102 303.924747,118.334028 C306.123295,127.241287 310.896781,134.907854 315.621021,137 Z" id="Path" fill="#3469C0" opacity="0.35" style="mix-blend-mode: multiply;"></path>
                <path d="M363,138.939335 C360.832467,146.098515 350.633728,151.744903 340.441859,149.501441 C338.00639,146.79488 337.28159,147.635321 335.055661,145.453606 C333.025531,143.467422 330.524796,140.754001 327.021019,137.22072 C325.073331,134.167692 317.402807,132.919038 314.005518,131.591485 C310.175409,130.092414 306.791859,126.967348 305.197984,120.895595 C304.428527,117.948908 301.075893,108.937328 299.883922,105.932325 C296.411061,97.2466309 303.947617,94.0015018 309.045269,97.2157576 C312.30859,98.5879051 319.508509,100.285938 323.063812,100.947999 C325.119616,101.365439 327.196186,101.673464 329.284734,101.870768 C333.520182,102.278982 338.116313,105.366314 341.40368,107.980255 C350.235259,114.99536 362.220238,129.118189 363,138.939335 Z" id="Path" fill="url(#linearGradient-20)"></path>
                <path d="M312.728911,93 C313.787773,96.8386821 315.960657,100.317729 319,103.040765 C317.885613,106.829224 310.269451,109.559341 307.849031,107.00112 C307.660934,106.495543 307.405405,105.359679 307.13923,104.978811 C306.741742,103.869911 306.340704,102.892462 306,102.113873 L312.728911,93 Z" id="Path" fill="url(#linearGradient-21)"></path>
                <path d="M290,88 C290.360948,90.8803488 291.295977,93.3121188 293.829491,95.7911075 C294.346985,96.2593371 294.716814,96.8633138 294.895149,97.5314588 C295.85424,100.975061 296.613951,101.676598 298.858706,103.265174 C301.04846,104.793041 301.86661,105.852092 303.11446,105.98363 C304.362311,106.115168 305.579223,105.430495 306.517689,104.772804 C308.439309,103.423695 310.594687,99.7305074 311.605343,97.2919919 C312.354741,95.4841851 311.890664,95.0288607 311.416275,93.3154916 C311.969729,90.1585752 309.745599,89.9595816 309.009952,90.3474506 C306.885512,91.4672115 308.322431,93.7775616 307.607409,95.1064345 C300.13062,96.7186203 292.406323,90.1484569 290,88 Z" id="Path" fill="#FFA698"></path>
                <path d="M290,88 C294.243359,95.1942739 303.584375,97.0089489 308,95.5164056 C300.360547,97.2523373 292.460938,90.2799764 290,88 Z" id="Path" fill="#FF9080"></path>
                <path d="M339,146.96207 C338.937018,146.97802 338.873236,146.990681 338.808917,147 C337.665895,146.251735 336.839027,146.158633 335.313839,144.672448 C333.260567,142.675925 330.731326,139.948378 327.187609,136.396705 C326.183555,134.834659 323.671685,133.741571 321,132.86917 C321.423856,125.700309 321.236248,109.324684 323.605675,107.190232 C326.871453,104.252344 331.367111,102.2972 335.119282,106.12473 C342.203243,113.321178 335.15055,140.072514 339,146.96207 Z" id="Path" fill="#3469C0" opacity="0.35" style="mix-blend-mode: multiply;"></path>
                <polygon id="Path" fill="#4A9FF8" points="329.424655 156.59102 325 139.753688 328.060586 137 356 152.85016 353.398673 155.794355 341.262576 164"></polygon>
                <polygon id="Path" fill="#D0E7FF" points="325.064085 140.698345 323 134 358 153.908185 353.489974 157"></polygon>
                <path d="M266.247386,179.53728 C268.0751,166.03224 278.300603,160.219593 289.093805,166.576742 L400.501249,231.747057 C411.273681,238.100738 418.546458,254.227711 416.718744,267.732751 L399.757009,396.46762 C397.929296,409.969192 387.689946,415.778371 376.910591,409.42469 L265.489301,344.275184 C254.69956,337.900694 247.444092,321.777189 249.285652,308.275617 L266.247386,179.53728 Z" id="Path" fill="url(#linearGradient-22)" opacity="0.5" style="mix-blend-mode: multiply;"></path>
                <path d="M270.96899,179.432726 C271.165422,177.976559 271.451456,171.458475 273.19178,170.130589 C275.538633,168.338116 279.822243,165.737817 281.09044,165.394577 C284.395333,164.507008 288.206815,165.092943 292.09756,167.395074 L395.738175,227.819096 C405.704547,233.713108 412.431503,248.701233 410.739425,261.245077 L395.031707,380.827642 C394.442409,385.206546 392.901964,388.718683 390.723974,391.176833 C389.252452,392.841024 385.806265,395.170893 382.935592,396.665198 C379.964979,398.208042 375.788201,393.981689 373.903137,392.851426 L270.265968,332.444739 C260.272027,326.550727 253.569194,311.559135 255.261271,299.018758 L270.96899,179.432726 Z" id="Path" fill="#D0E7FF"></path>
                <path d="M267.015382,182.349721 C268.710474,169.87728 278.206449,164.507823 288.224789,170.380451 L391.677294,230.561099 C401.681796,236.419942 408.434489,251.315186 406.739397,263.787627 L390.971582,382.656643 C389.27303,395.125638 379.766677,400.488202 369.758716,394.622467 L266.323508,334.445264 C256.291331,328.586422 249.566312,313.687731 251.261404,301.218736 L267.015382,182.349721 Z" id="Path" fill="#FFFFFF"></path>
                <path d="M267.629109,181.403746 C269.316769,168.884347 278.771111,163.494675 288.745528,169.389413 L391.744472,229.796635 C401.705112,235.677535 408.4282,250.628858 406.74054,263.148257 L405.132096,275 L266,193.418079 L267.629109,181.403746 Z" id="Path" fill="url(#linearGradient-23)"></path>
                <path d="M284.229564,182.098179 C286.436203,182.66714 288.120482,185.54477 287.99324,188.528168 C287.865998,191.511567 285.98416,193.462811 283.767475,192.904792 C281.550791,192.346772 279.876558,189.458201 280.007148,186.474803 C280.137738,183.491404 282.026273,181.529218 284.229564,182.098179 Z" id="Path" fill="#FFFFFF"></path>
                <path d="M296.230976,189.095952 C298.436789,189.665029 300.120437,192.543247 299.993242,195.527255 C299.866048,198.511263 297.984915,200.462906 295.769061,199.904772 C293.553206,199.346639 291.8796,196.457477 292.006794,193.477117 C292.133989,190.496758 294.025163,188.534171 296.230976,189.095952 Z" id="Path" fill="#FFFFFF"></path>
                <path d="M308.230983,197.097916 C310.433451,197.670544 312.120449,200.548278 311.993255,203.528136 C311.86606,206.507994 309.984924,208.462956 307.769067,207.904916 C305.553209,207.346877 303.8796,204.458202 304.006794,201.478344 C304.133989,198.498485 306.025166,196.528934 308.230983,197.097916 Z" id="Path" fill="#FFFFFF"></path>
                <path d="M289.098273,217.439215 C299.57351,219.978904 307.574903,232.810648 306.967593,246.098413 C306.360283,259.386178 297.360432,268.099696 286.90235,265.560007 C276.444268,263.020318 268.418857,250.188575 269.033029,236.911333 C269.647202,223.634092 278.623035,214.899526 289.098273,217.439215 Z" id="Path" fill="url(#linearGradient-24)" opacity="0.2"></path>
                <path d="M289.106732,228.231975 C294.896187,229.581782 299.306866,236.389503 298.983275,243.421615 C298.659685,250.453728 293.682723,255.124543 287.893268,253.764379 C282.103813,252.404216 277.693134,245.610304 278.016725,238.574739 C278.340315,231.539174 283.317277,226.885621 289.106732,228.231975 Z" id="Path" fill="url(#linearGradient-25)"></path>
                <path d="M313.793114,243.117866 C314.172569,240.384826 316.296119,239.219868 318.531068,240.552225 L386.578662,279.047094 C388.813612,280.379451 390.320984,283.693262 389.94153,286.443384 L389.203509,291.882134 C388.824055,294.615174 386.700505,295.780132 384.465556,294.447775 L316.417962,255.949489 C314.183012,254.617132 312.679121,251.303321 313.058575,248.5532 L313.793114,243.117866 Z" id="Path" fill="#955CF1" opacity="0.2"></path>
                <path d="M310.464672,262.871844 C310.685227,261.223161 311.925853,260.53245 313.221618,261.33423 L353.000913,284.426204 C354.307016,285.227984 355.189239,287.202933 354.965237,288.865499 L354.534465,292.128156 C354.313909,293.776839 353.073283,294.46755 351.777518,293.66577 L311.998223,270.573796 C310.69212,269.772016 309.813343,267.797067 310.033899,266.134501 L310.464672,262.871844 Z" id="Path" fill="#955CF1" opacity="0.2"></path>
                <path d="M265.398484,267.306746 C265.671575,265.274878 267.206416,264.425377 268.82422,265.410105 L385.534321,332.562313 C387.152126,333.550508 388.241033,335.998459 387.954114,338.030327 L387.60843,340.693254 C387.335339,342.725122 385.800498,343.574623 384.182693,342.589895 L267.465679,275.437687 C265.847874,274.449492 264.758967,272.001541 265.045886,269.969673 L265.398484,267.306746 Z" id="Path" fill="#955CF1" opacity="0.2"></path>
                <path d="M263.398532,287.308255 C263.671656,285.27639 265.206682,284.423423 266.824681,285.411617 L383.535017,352.563691 C385.14956,353.548417 386.238598,355.99983 385.955102,358.031695 L385.609376,360.691148 C385.332795,362.72648 383.797769,363.57598 382.17977,362.587786 L265.465976,295.435712 C263.847977,294.450986 262.758938,291.999573 263.045891,289.967708 L263.398532,287.308255 Z" id="Path" fill="#955CF1" opacity="0.2"></path>
                <path d="M261.391648,306.308214 C261.664793,304.276385 263.199937,303.423433 264.818061,304.41161 L381.533941,371.562516 C383.148608,372.547224 384.241188,374.998595 383.954213,377.030424 L383.60846,379.693299 C383.335315,381.725127 381.800171,382.574612 380.182046,381.589903 L263.466167,314.438997 C261.848042,313.450821 260.75892,311.002918 261.045895,308.971089 L261.391648,306.308214 Z" id="Path" fill="#955CF1" opacity="0.2"></path>
                <path d="M411.148903,167.696712 C411.519398,165.0899 409.791576,163.083593 410.920374,161.354975 C412.139198,159.490984 416.283892,158.154603 418.077502,157.508974 C420.619027,156.589127 423.617611,156.887644 426.664671,158.637088 L550.991646,229.895712 C558.263039,234.061056 563.08986,244.880537 561.787934,254.044294 L547.833784,351.825746 C547.193209,356.317375 545.19877,359.580228 542.477191,361.253308 C540.811696,362.273817 536.244568,364.228058 534.191265,363.978137 C532.740449,363.80111 533.845008,361.763563 532.314553,360.885369 L408.008354,289.626746 C400.736961,285.461402 395.91014,274.641921 397.212066,265.481635 L411.148903,167.696712 Z" id="Path" fill="#D0E7FF"></path>
                <path d="M408.168192,169.617474 C409.466519,160.522383 416.411702,156.48816 423.67887,160.625737 L547.992801,231.367627 C555.263432,235.501759 560.089745,246.240167 558.787956,255.335258 L544.83527,352.384008 C543.533481,361.479099 536.577911,365.509878 529.32113,361.375745 L405.007199,290.62352 C397.736568,286.489388 392.910255,275.75098 394.212044,266.659334 L408.168192,169.617474 Z" id="Path" fill="url(#linearGradient-26)"></path>
                <path d="M397.381436,271.912769 C397.496057,271.116625 398.100423,270.775917 398.729102,271.154868 L537.048932,350.539822 C537.725709,351.02622 538.08386,351.84314 537.983267,352.670985 L537.635931,355.087231 C537.52131,355.883375 536.916944,356.224083 536.288265,355.845132 L397.951068,276.460178 C397.274291,275.97378 396.91614,275.15686 397.016733,274.329015 L397.381436,271.912769 Z" id="Path" fill="#6D6AFD"></path>
                <path d="M397.367506,271.871529 C397.476336,271.108541 398.069632,270.785473 398.680482,271.149783 L455.068233,302.793192 C455.728948,303.256186 456.080021,304.034444 455.984507,304.824392 L455.633444,307.130542 C455.521104,307.890094 454.931318,308.213161 454.320468,307.852288 L397.929207,276.205442 C397.267981,275.743088 396.917817,274.963858 397.016443,274.174243 L397.367506,271.871529 Z" id="Path" fill="#B269EB"></path>
                <path d="M454.130082,225.540435 C454.43671,223.364986 456.061843,222.398505 457.761929,223.389234 L495.422757,245.29268 C497.12625,246.279946 498.253962,248.850301 497.950741,251.02575 L492.867517,287.461055 C492.564295,289.636504 490.935756,290.599522 489.235669,289.612256 L451.574842,267.70881 C449.871349,266.718081 448.743636,264.151189 449.050265,261.97574 L454.130082,225.540435 Z" id="Path" fill="url(#linearGradient-27)"></path>
                <path d="M475.116436,240.489269 C468.591809,236.701642 462.3605,240.392857 461.190637,248.680875 C460.020775,256.968893 464.355746,266.747859 470.883784,270.51827 C477.411822,274.288681 483.63972,270.614682 484.809582,262.319778 C485.979445,254.024873 481.637652,244.256237 475.116436,240.489269 Z" id="Path" fill="url(#linearGradient-28)"></path>
                <polygon id="Path" fill="#FFFFFF" points="469.127337 245 467 259.663451 480 260"></polygon>
                <path d="M320,168.140029 C318.951422,169.972469 319.505766,173.941589 319.161805,175.833478 C318.793402,177.719069 318.256739,179.56427 317.558883,181.344784 C317.338481,181.83087 310.385807,188.300361 309.985076,187.989126 C309.066735,187.247758 308.472318,182.142105 309.67451,180.64538 C310.876701,179.148655 311.895225,177.711378 312.09893,176.494415 C312.302634,175.277451 312.235846,171.248882 312.740098,170.619418 C313.88218,169.220609 315.077693,168.762499 315.581946,167 L320,168.140029 Z" id="Path" fill="url(#linearGradient-29)"></path>
                <path d="M334.185057,143.374677 C334.299268,142.95774 334.389088,142.534447 334.454054,142.10697 C336.323244,134.341395 338.223471,121.051247 337.978614,113.35841 C337.792385,107.470151 334.943768,102.499767 328.077428,104.418647 C325.966831,105.004009 323.52171,106.618085 323.211328,109.409813 C322.835421,112.752266 323.332032,118.301084 323.645863,123.957277 C323.897617,128.487772 323.876925,136.658598 324.04936,139.969878 C324.018322,140.073788 323.990732,140.174235 323.963143,140.281609 C321.766328,144.677022 316.645025,159.033983 315.575931,163.692635 C315.396599,164.4685 315.575931,165.306711 315.555239,165.843582 C315.505666,166.456153 315.31563,167.048894 315,167.575423 C316.33637,168.775394 317.957371,169.61029 319.70746,170 C319.985146,169.408506 320.306783,168.838851 320.669645,168.295869 C320.966232,167.838662 322.342259,167.409166 322.880254,166.764921 C325.725423,163.33934 333.226321,147.683498 334.154018,143.520152 L334.185057,143.374677 Z" id="Path" fill="url(#linearGradient-30)"></path>
                <path d="M222.91943,542.593594 L285.52647,506.787236 C292.352362,503.658525 302.118479,501.165986 309.075971,504.798767 C315.413557,508.108247 325.848064,514.880168 330.464459,517.525667 C333.969178,519.531518 346.138729,526.849226 338.557868,530.986077 C316.265495,543.153286 294.201691,556.839658 271.559539,569.205018 C267.279071,571.541122 261.017674,572.385874 254.44113,571.840088 C247.864585,571.294302 241.180683,569.378836 235.899361,566.277935 L224.796464,559.791075 C219.885701,556.919614 217.281403,553.533653 217.025129,550.38756 C216.751539,547.356187 218.711689,544.512537 222.91943,542.593594 Z" id="Path" fill="#955CF1" opacity="0.3"></path>
                <path d="M247.465905,540.573051 C248.70549,540.544578 252.894796,536.551281 256.862872,538.569284 C261.628076,540.985905 270.677398,538.843334 275.242443,539.957329 C276.057127,540.153079 277.644358,539.548034 277.9604,540.113929 C278.94364,541.893473 279.895276,544.537876 277.475803,546.271152 C275.695435,547.548865 271.885379,549.239432 269.399186,550.136322 C266.747949,551.090158 262.203974,552.592093 259.162952,553.07257 C255.791843,553.609993 254.246751,553.827097 252.989608,554.816524 C251.188171,555.734769 249.323526,556.129828 248.284101,555.96255 C246.061276,555.606642 243.469735,554.282661 242.282824,551.716558 C241.903574,550.894408 241.893039,547.310406 242.328474,544.982762 C242.679631,543.146272 243.662872,541.067764 244.452975,539.103148 L247.465905,540.573051 Z" id="Path" fill="#FFFFFF"></path>
                <path d="M257,532.351712 C255.460327,535.879852 255.923305,541.334609 252.280488,543.230429 C249.83998,544.496589 246.017714,544.506855 244.352427,540.889742 C243.42288,538.874151 244.65749,535.414452 244.384727,531 L257,532.351712 Z" id="Path" fill="#FFA495"></path>
                <path d="M257.480152,537.966039 C260.237517,538.734411 267.858323,538.223291 272.672209,538.59563 C274.742887,538.754721 276.601189,538.741181 277.567505,540.538564 C278.45949,542.190396 277.99226,543.60867 275.974676,544.972785 C274.180087,546.18458 271.136013,547.569005 268.615802,548.425385 C265.943388,549.329154 261.366657,550.757582 258.297805,551.217929 C254.899768,551.725664 253.342334,551.935528 252.078689,552.873146 C250.259324,553.749835 248.383324,554.125559 247.335596,553.963084 C244.719908,553.534346 242.473776,551.940664 241.286382,549.671029 C240.904103,548.889116 240.889945,545.734388 241.332397,543.520662 C241.423869,543.080073 241.542056,542.644942 241.68636,542.217475 C242.065099,538.751336 243.261491,537.349987 244.390631,537.945729 C245.933906,538.758106 246.514404,540.220383 247.105521,541.418638 C247.488649,542.313513 248.251912,543.01018 249.204516,543.334493 C251.052199,543.889617 252.744138,542.90461 253.830802,541.388174 C254.432605,540.284893 254.858528,539.101767 255.094447,537.878031 C255.094447,537.75956 255.094447,537.641088 255.094447,537.539541 C255.448409,534.493129 256.998763,534.774076 256.765148,535.410438 C256.531533,536.046799 256.644801,537.349987 257.480152,537.966039 Z" id="Path" fill="#193161"></path>
                <path d="M276.006158,540.43809 C275.962479,541.686743 278.277501,541.802226 277.609202,544 C278.723034,543.097794 277.172406,540.506658 276.477899,540.113296 C276.198349,539.954507 275.958111,539.88594 276.006158,540.43809 Z" id="Path" fill="#FFFFFF"></path>
                <path d="M277.577974,528.598382 C278.715757,528.162999 281.257615,523.225288 285.597793,523.704547 C287.351156,523.9003 290.166219,523.454792 293.026241,522.661654 C297.584293,521.396007 303.937207,517.420187 305.019658,518.071574 C307.381683,519.489098 307.568432,522.074393 305.911902,524.420059 C304.691119,526.144714 302.387885,528.439754 300.378607,530.066532 C298.24483,531.791187 295.215351,534.430483 292.562828,535.868258 C290.055554,537.218282 289.222101,537.10353 287.441072,539.459321 C286.078498,540.873471 284.487676,541.717235 283.470933,541.909614 C280.863367,542.405747 277.079977,540.775594 275.717403,539.067814 C274.852826,536.334017 273.348461,533.741971 274.309871,529.6379 L277.577974,528.598382 Z" id="Path" fill="#FFFFFF"></path>
                <path d="M283.993475,517 C283.923112,520.832599 286.417501,525.760717 283.803494,528.813746 C282.044404,530.853677 278.578996,532.210198 275.71168,529.421604 C274.100353,527.862464 273.924444,524.215314 272,520.176661 L283.993475,517 Z" id="Path" fill="#FFA495"></path>
                <path d="M291.370461,520.959483 C291.629369,520.892292 291.888278,520.825101 292.147186,520.751191 C296.697072,519.494717 302.779697,516.440883 303.860209,517.089277 C306.218002,518.500289 306.666777,520.166628 305.009763,522.501519 C303.794618,524.22161 301.492059,526.502748 299.48638,528.122053 C297.356426,529.838785 294.332374,532.469316 291.684603,533.897127 C289.181821,535.240948 288.353313,535.130083 286.572022,537.471692 C285.215342,538.879346 283.623917,539.719234 282.608996,539.910729 C280.009554,540.404583 276.11557,538.765121 274.755437,537.068546 C274.113344,535.052813 273.233055,533.110991 273.16056,530.561089 C272.780828,527.228411 273.015571,525.521758 274.506885,525.572151 C277.268576,525.65278 278.425034,527.073872 279.571136,527.7693 C282.039397,529.267661 283.69296,527.332558 284.096857,524.937195 C284.143489,523.878428 284.067058,522.817922 283.869017,521.775855 C283.831044,521.664989 283.789619,521.554124 283.741289,521.439899 C282.933495,518.517087 284.431712,518.224806 284.459329,518.893357 C284.424338,520.19402 285.419198,521.303855 286.74808,521.446618 C288.246298,521.675068 290.148412,521.06027 291.370461,520.959483 Z" id="Path" fill="#193161"></path>
                <path d="M303.132651,517.456517 C303.652793,518.556495 305.480719,517.865973 305.941416,520 C306.398398,518.837562 304.054045,517.1234 303.340708,517.015831 C303.065776,516.970722 302.850289,516.995012 303.132651,517.456517 Z" id="Path" fill="#FFFFFF"></path>
                <path d="M281.545127,412.850157 C282.566787,424.092168 288.320721,459.990151 286.720829,469.842115 C284.312123,484.660024 285.000325,502.567314 285.028704,518.295704 C284.62075,524.898431 275.344216,528.37355 272.644621,524.161706 C270.47714,510.104848 267.390875,497.789025 266.138631,489.980431 C264.719659,481.233556 265.198562,470.606641 267.461823,464.858794 C266.532396,458.579253 262.161961,442.378246 258.511654,431.150136 C257.195557,427.098146 249.728213,414.007372 257.447424,401 L281.545127,412.850157 Z" id="Path" fill="url(#linearGradient-31)"></path>
                <path d="M285,513 C285,514.178501 284.964779,515.970804 284.964779,517.128259 C284.563262,523.7924 275.236792,527.415587 272.556489,523.178597 C272.397995,522.126365 272.16906,521.095177 272,520.071003 C275.606611,523.939712 282.671905,518.913547 285,513 Z" id="Path" fill="url(#linearGradient-32)"></path>
                <path d="M287,461.829016 C284.06339,476.545902 275.749888,496.203973 271.21055,511 C268.849543,498.32359 262.938409,476.731712 268.049903,463.515075 C267.53634,459.97091 265.93706,453.243879 264,446.055763 C267.932714,438.613017 264.175783,432.670519 266.033568,422.185985 C276.446126,420.372612 260.729057,407.682438 282.763974,421.050476 C284.738948,436.844375 286.58984,446.774918 287,461.829016 Z" id="Path" fill="#1E2353" opacity="0.3" style="mix-blend-mode: multiply;"></path>
                <path d="M280.287493,476.416744 C274.215172,490.122217 263.011166,517.015517 257.053812,533.837292 C253.970619,538.308507 242.979127,537.842972 243,533.674007 C245.438713,519.607224 248.278037,497.914708 253.340046,485.578045 C254.890351,481.801658 260.610805,472.723736 262.66975,470.020857 C264.272313,463.812573 266.279001,447.046385 267.829307,437.971937 C266.435773,430.464326 260.366937,417.912266 272.034293,407 C276.740951,410.338646 291.296405,412.426603 297.898268,408.709276 C298.957353,438.364515 291.65524,450.732445 280.287493,476.416744 Z" id="Path" fill="url(#linearGradient-33)"></path>
                <path d="M258,531 C257.743993,531.715248 257.23198,533.155866 256.989447,533.84075 C253.920735,538.307676 242.979817,537.84209 243,533.675433 C243.114557,533.00067 243.226841,532.309039 243.336879,531.600538 C245.960948,534.269224 253.849997,534.299588 258,531 Z" id="Path" fill="url(#linearGradient-34)"></path>
                <path d="M317.360756,249.220773 C316.926264,250.137844 316.509293,251.061915 316.057282,251.968486 L314.186167,255.699774 C313.790219,253.869133 312.329068,253.169078 311.204296,254.09315 C310.807239,254.420336 310.494777,254.838114 310.293266,255.311244 C310.114564,254.814206 308.698964,253.687119 306.789305,256.403329 C305.594455,256.273819 304.967246,256.777858 304.462675,257.743932 C304.15003,258.376295 303.883049,259.030179 303.663772,259.700584 C303.324589,260.544689 303.134886,261.441272 303.103138,262.350289 C303.103138,264.149428 303.194241,266.102579 303.141682,268.251746 C303.089122,270.586426 300.436624,273.540655 299,275.252287 L307.672303,278 C308.996801,276.337371 309.711609,275.133278 311.046618,273.799675 C312.381627,272.466072 314.1266,272.259556 315.426569,271.195473 C316.151889,270.600427 316.572364,269.812866 317.802255,268.066231 C318.825411,266.620619 319.386045,265.055998 320.360146,263.473876 C321.30972,261.835749 321.253656,262.196277 321.348263,260.358635 C321.421846,258.958526 321.884369,257.537416 322,256.67985 C320.219988,255.762779 318.818403,257.946948 318.818403,260.099615 C317.798751,260.673659 317.129494,262.080768 316.898233,262.707317 C315.496648,260.855673 316.327087,260.082113 316.898233,257.705429 C317.749589,256.195147 318.433406,254.59656 318.937538,252.938061 C319.214351,252.206504 319.491164,251.446945 319.789001,250.627882 C320.191956,249.297779 319.676874,248.352706 319.273918,248.090185 C318.944546,247.873169 318.086076,247.974676 317.360756,249.220773 Z" id="Path" fill="url(#linearGradient-35)"></path>
                <path d="M320.992886,255.908417 C319.705202,256.089839 318.798133,257.8273 318.808804,259.529874 C317.841263,260.067161 317.183193,261.326646 316.909293,262 C317.435749,261.333624 318.783904,259.906672 319.221432,259.739206 C319.36016,258.099433 319.954202,256.752726 321,255.901439 L320.992886,255.908417 Z M314.266341,254.823375 L314.102712,255.144352 C314.018892,254.736813 313.857158,254.348524 313.626056,254 C313.572699,255.24553 312.871943,256.135194 312.370387,256.73877 C313.267118,256.417305 313.965244,255.71202 314.266341,254.823375 Z M310.140062,254.729176 C310.037035,254.531215 309.874327,254.369193 309.674077,254.265155 C309.500911,255.141914 309.165773,255.980235 308.685193,256.73877 C309.367511,256.229874 309.875105,255.52874 310.140062,254.729176 L310.140062,254.729176 Z M306.629169,255.77584 L306.59004,255.831662 C306.403107,255.814486 306.214946,255.814486 306.028012,255.831662 C305.940437,256.826743 305.585743,257.781329 305,258.598343 C305.928413,257.708679 306.401512,257.101614 306.629169,255.789795 L306.629169,255.77584 Z" id="Shape" fill="#FF8978"></path>
                <path d="M284.339361,297.339437 C288.698258,289.793322 292.109113,280.338073 298.199675,272.673723 C298.70693,272.033868 299.899855,271.547022 300.337144,270.872392 C300.973837,269.8987 301.607031,268.941236 302.236727,268 C305.087852,268.048685 308.593161,269.509223 311,271.926067 C310.650169,272.934534 310.321327,273.943001 309.992486,274.941036 C309.604173,276.109466 310.342317,278.599337 309.992486,279.767768 C307.21059,289.669652 303.641575,299.33615 299.319135,308.675999 C293.277549,316.416853 266.434998,366.120371 252.41726,348.086197 C251.154369,341.67026 252.865044,336.335817 256.107979,331.140472 C257.906112,328.26808 260.638294,325.760822 262.478406,323.865599 C266.90727,319.317065 277.717055,304.127464 284.339361,297.339437 Z" id="Path" fill="url(#linearGradient-36)"></path>
                <path d="M255.545223,371.859664 C256.521049,380.60369 253.868893,389.202615 256.56984,397.183137 C256.691819,398.008827 256.768491,401.245947 256.91835,402.126914 C258.695748,412.467044 280.759875,422.931546 299.164655,413.009443 C299.265722,411.727723 299.147229,410.387272 299.248297,408.010389 C298.899788,405.792426 299.875614,403.415544 299.868644,402.064728 C299.840763,396.436906 298.07382,393.559082 298.920698,387.295582 C300.663245,374.55784 307.765866,362.314131 303.82771,352.288385 C302.980832,350.139518 301.499667,349.096177 299.823337,347.75918 C295.473941,344.304409 272.988117,332.941667 266.164303,332.14016 C246.358516,329.597448 254.482269,362.372862 255.545223,371.859664 Z" id="Path" fill="url(#linearGradient-37)"></path>
                <path d="M300.901943,378 C303.465743,368.659873 306.809525,359.84362 303.826004,352.288801 C302.976067,350.145053 301.489553,349.104197 299.807169,347.770386 C295.442064,344.323844 296.019181,353.60538 289.177718,352.809229 C287.859093,365.223671 294.088462,376.517987 300.901943,378 Z" id="Path" fill="#6266D7" opacity="0.35" style="mix-blend-mode: multiply;"></path>
                <path d="M287.401364,328.297142 C287.169726,331.872104 287.334373,335.462039 287.892233,339 C281.585927,338.789802 272.821866,337.125449 271.870807,332.377047 C271.915121,331.808479 271.956027,331.23302 271.983297,330.654114 C271.90182,330.58022 271.815245,330.51228 271.724228,330.450808 C269.464184,328.931181 265.724715,327.804384 263.318092,325.02357 C259.476358,320.58185 257.434478,314.613611 260.451279,308.610914 C265.956514,297.642724 279.27816,297.456647 286.699148,306.322859 C288.147894,308.045792 287.087753,309.847979 287.912686,311.52267 C288.0729,311.867256 288.666034,311.994753 289.351206,312.556429 C290.302265,313.348978 293.070222,320.20625 292.998637,323.783059 C292.967958,325.22343 289.692087,327.256491 288.226297,328.052486 C287.960635,328.163248 287.684115,328.245258 287.401364,328.297142 L287.401364,328.297142 Z" id="Path" fill="#FFA698"></path>
                <path d="M286.503778,328.96461 C286.269615,332.650643 286.436056,336.352117 287,340 C280.624928,339.783271 271.765302,338.067208 270.803872,333.171275 C270.84867,332.585042 270.890021,331.991703 270.917589,331.394812 C270.83144,331.316647 270.734952,331.2598 270.655695,331.185189 C265.831316,326.509538 272.292537,321.151724 280.480197,325.766976 C281.810347,327.973343 283.874492,329.106727 286.503778,328.96461 Z" id="Path" fill="url(#linearGradient-38)"></path>
                <path d="M291.993023,323.25784 C291.961273,323.89547 289.290792,324.857143 288.176033,325 C288.93802,318.149826 282.334135,317.10453 283.328951,310.414634 C283.928663,306.397213 279.741263,304.944251 281.385179,302 C282.915421,302.996214 284.292429,304.204904 285.473802,305.58885 C286.973082,307.33101 285.875962,309.15331 286.72967,310.84669 C286.895472,311.195122 287.509295,311.324042 288.218366,311.891986 C289.202599,312.707317 292.162353,319.644599 291.993023,323.25784 Z" id="Path" fill="url(#linearGradient-39)"></path>
                <path d="M283.045302,320.792833 C282.927628,319.061438 282.345795,318.726965 281.862023,319.187358 C281.378252,319.647752 280.881406,321.190266 281.02523,322.972816 C281.260578,325.849291 283.473505,328.422772 285,326.097195 C283.329681,327.163577 282.545187,324.590095 282.473275,322.772131 C282.424244,321.536545 282.685742,320.501644 283.045302,320.792833 Z" id="Path" fill="#FFB49C"></path>
                <path d="M283.051863,323 C284.397459,323.68144 285.037983,324.137939 284.998261,324.521662 C284.998261,324.786299 284.65069,325.183255 283.468948,324.905386 C283.05673,324.310401 282.91187,323.648635 283.051863,323 L283.051863,323 Z" id="Path" fill="#FF9D8E"></path>
                <path d="M271.380348,332 C269.475308,332.583036 267.695646,334.52534 268.043916,335.77076 C269.941991,343.453728 284.158394,345.168337 292.9975,343.315731 C293.105464,343.295032 289.68893,338.830838 287.996335,338.275401 C282.430972,338.817038 273.097322,336.536642 271.380348,332 Z" id="Path" fill="#726CDE"></path>
                <path d="M271.055347,332.149503 C268.693727,329.632402 264.699556,328.429633 262.135612,325.501149 C259.571668,322.572666 256.840282,318.179941 258.528648,313.623361 C255.553077,304.26616 265.728622,296.84385 274.296033,295.146027 C280.428569,293.936284 284.098323,300.511426 281.429728,304.956445 C283.728557,307.525841 283.651813,310.924973 283.491348,311.796545 C283.002978,314.467043 283.069257,314.805213 283.927393,316.806343 C284.600646,318.385633 286.285524,322.20312 283.229721,319.783635 C281.258798,318.221777 279.884385,321.673203 280.550661,324.061312 C281.027643,325.554043 281.176383,327.132127 280.986706,328.687618 C280.414615,333.69393 272.36697,333.568423 271.055347,332.149503 Z" id="Path" fill="#562E65"></path>
                <path d="M260.236965,310 C258.149614,300.776267 270.408318,296.107639 275.203486,296.001211 C280.056039,295.887689 283.857744,303.784623 278.104976,306.445315 C274.18133,308.258133 266.412941,304.714091 260.236965,310 Z" id="Path" fill="url(#linearGradient-40)"></path>
                <path d="M354.595851,322.291201 C354.380849,322.880711 354.254371,323.500335 354.220748,324.128854 C353.841772,325.030276 353.551612,325.968359 353.354602,326.929086 C353.07157,328.399207 353.177281,329.561304 353.13295,331.521466 C353.10908,332.65556 353.286401,333.240108 353.525103,334.3462 C352.403205,336.589886 350.643632,337.972501 349,339.827654 L354.326459,344 C356.577076,342.477374 358.329828,340.877741 360.266723,339.554632 C361.838744,338.921079 362.391168,338.557049 362.861752,338.053007 C364.092771,336.733398 367.727857,332.802572 367.935869,331.265945 C368.16775,329.554303 367.724447,325.595475 367.345934,323.421795 C366.384307,317.877336 364.328062,312.056353 363.97342,314.625566 C363.458506,315.241617 363.877939,320.250532 363.553987,320.992594 C362.292277,322.483717 361.692113,323.092768 360.109861,324.874415 C359.131184,325.444963 358.486689,326.043512 358.012696,326.176523 C357.467092,326.327036 357.16701,325.935003 357.14655,325.444963 C357.12609,324.895417 357.487552,323.922336 357.750124,322.490718 C357.750124,320.114021 357.17724,318.769909 355.939401,318.89592 C355.339011,318.922681 354.846323,319.392816 354.776582,320.005512 C354.650411,320.551557 354.684512,321.321621 354.595851,322.291201 Z" id="Path" fill="url(#linearGradient-41)"></path>
                <path d="M300.024537,344.844202 C307.48199,346.001103 321.856299,354.252732 331.791483,358.720041 C337.336057,350.785514 344.589054,341.279414 349.069763,338.080514 C349.586101,337.711142 350.896007,336.965429 351.297989,336.47061 C351.949476,335.669143 352.582482,334.845606 353.197005,334 C355.997016,334.39028 360.051486,337.906282 360,339.575425 C359.549008,340.40477 359.088116,341.272445 358.613362,342.167998 C358.294549,342.781295 358.408905,344.126366 358.221776,344.81284 C356.700483,350.367357 348.321245,363.197805 344.415786,368.923069 C342.156372,372.229993 341.362805,374.170938 339.834581,375.160576 C337.381107,376.746088 334.092481,375.878412 327.750874,374.275477 C322.414222,372.926921 305.184457,369.776806 297.255715,365.563876 C291.666091,362.598446 287.375977,357.256492 289.597272,351.106101 C291.031931,347.154519 295.231946,344.101973 300.024537,344.844202 Z" id="Path" fill="url(#linearGradient-42)"></path>
                <path d="M504.543924,118.50764 C499.624085,115.836682 494.352828,119.440247 494.423112,126.393653 C494.447711,130.004076 496.015031,133.71736 498.489007,136.045448 C499.089552,136.615298 499.762776,137.107359 500.492085,137.509503 C505.411924,140.173604 510.633982,136.573468 510.595326,129.62349 C510.595326,126.00621 509.024492,122.275783 506.561058,119.954552 C505.95649,119.380481 505.278512,118.884941 504.543924,118.480211 L504.543924,118.50764 Z M499.785736,140.794199 C498.808633,140.256361 497.906319,139.598389 497.10091,138.836411 C493.765962,135.712864 491.678544,130.710388 491.629346,125.855347 C491.569605,116.505279 498.597947,111.646809 505.236215,115.226373 C506.224435,115.773783 507.135258,116.444609 507.945641,117.221877 C511.266533,120.335138 513.35395,125.341042 513.378708,130.196083 C513.417205,139.518722 506.399406,144.370335 499.77168,140.783913 L499.785736,140.794199 Z M522.392397,132.849898 C523.54856,133.477351 524.237337,135.11627 523.924576,136.528895 L522.715701,142.014817 C522.409968,143.410299 521.222179,144.034322 520.066016,143.410299 L519.475636,143.091429 C519.084416,142.855833 518.61039,142.789608 518.167128,142.908622 C517.723866,143.027635 517.351307,143.321164 517.138712,143.718882 C516.808865,144.256029 516.44991,144.775643 516.063376,145.275512 C515.462453,146.043541 515.360542,147.277874 515.824412,148.361343 L516.133659,149.105372 C516.727554,150.521425 516.372623,152.132915 515.346485,152.67465 L511.280589,154.817588 C510.759659,155.080132 510.135992,155.058028 509.635957,154.7593 C509.030718,154.402471 508.565505,153.858034 508.314629,153.212956 L508.001868,152.486071 C507.753389,151.84819 507.293172,151.309844 506.694596,150.95687 C506.398113,150.792637 506.06207,150.708598 505.721171,150.713433 C505.134594,150.719053 504.548113,150.69502 503.964086,150.64143 C503.036344,150.555712 502.259713,151.196879 502.024263,152.270063 L501.86964,152.983233 C501.560393,154.378714 500.372603,155.006167 499.216441,154.382143 L494.686675,151.930622 C493.526998,151.303169 492.841735,149.66425 493.147468,148.26534 L493.305605,147.555599 C493.523748,146.427189 493.197091,145.263635 492.420034,144.401193 C491.931565,143.876602 491.478237,143.334867 491.014366,142.775989 C490.782702,142.469901 490.488302,142.214188 490.14988,142.025103 C489.654401,141.728151 489.035727,141.706036 488.519305,141.966815 L487.988665,142.234254 C487.466962,142.49878 486.841224,142.47665 486.340519,142.175966 C485.733678,141.821867 485.268804,141.276377 485.022705,140.629622 L482.66821,135.013409 C482.074315,133.600784 482.429247,131.985865 483.455384,131.444131 L483.989538,131.162977 C484.787255,130.741247 485.194899,129.678349 485.026219,128.492019 C484.918451,127.737704 484.839968,126.98339 484.790769,126.229076 C484.716972,125.059889 484.087935,123.952418 483.19885,123.486115 L482.608469,123.163817 C481.452307,122.539793 480.767044,120.900874 481.072777,119.501964 L482.281651,114.016041 C482.590898,112.603416 483.778688,111.975964 484.93485,112.603416 L485.525231,112.922286 C485.916186,113.15893 486.390588,113.225749 486.834177,113.106647 C487.277767,112.987545 487.650338,112.693319 487.862155,112.294833 C488.192002,111.757686 488.550957,111.238072 488.937491,110.738203 C489.538414,109.983888 489.640325,108.752985 489.17294,107.652371 L488.863693,106.911772 C488.273313,105.482003 488.62473,103.8808 489.654382,103.32535 L493.720278,101.182412 C494.241208,100.919868 494.864875,100.941972 495.364909,101.2407 C495.970148,101.597529 496.435362,102.141966 496.686238,102.787044 L496.995485,103.527644 C497.242772,104.166204 497.703282,104.704893 498.302756,105.056844 C498.600057,105.222556 498.937327,105.307782 499.279696,105.303711 C499.860137,105.28773 500.441038,105.30605 501.01921,105.35857 C501.943437,105.461431 502.716555,104.816835 502.955519,103.747081 L503.113656,103.033911 C503.422903,101.621286 504.610693,100.993833 505.766855,101.621286 L510.300136,104.072807 C511.456298,104.696831 512.141561,106.33575 511.8288,107.748375 L511.674176,108.461545 C511.45296,109.581992 511.776083,110.739229 512.549205,111.595378 C513.036503,112.116541 513.505059,112.66399 513.954873,113.237726 C514.185371,113.54485 514.480018,113.800777 514.819359,113.988612 C515.314837,114.284653 515.93244,114.308029 516.449935,114.050328 L516.984089,113.765746 C517.505792,113.50122 518.13153,113.52335 518.632235,113.824034 C519.237474,114.180863 519.702687,114.725301 519.953563,115.370378 L522.304543,120.986591 C522.894924,122.41636 522.543507,124.017563 521.517369,124.569584 L520.979701,124.854166 C520.181984,125.272468 519.77434,126.338794 519.950049,127.51141 C520.055474,128.263439 520.132786,129.01661 520.181984,129.770924 C520.255782,130.940111 520.884818,132.047582 521.773903,132.513885 L522.392397,132.849898 Z" id="Shape" fill="#FFFFFF" opacity="0.5"></path>
                <polygon id="Path" fill="url(#linearGradient-43)" opacity="0.5" points="18 486.605299 42.8333507 445 55.3789189 491.199834 68.1204041 475.467558 84 525"></polygon>
                <path d="M63.8269487,449.158089 C67.3994721,449.999959 70.5942362,453.969752 70.9648001,458.025102 C71.3353639,462.080451 68.7378192,464.681351 65.1688935,463.842903 C61.5999679,463.004455 58.4016061,459.031239 58.0346399,454.97589 C57.6676738,450.92054 60.258023,448.316219 63.8269487,449.158089 Z" id="Path" fill="#FF89DB" opacity="0.5"></path>
            </g>
        </g>
    </g>
</svg>