<svg width="510" height="370" xmlns="http://www.w3.org/2000/svg" xmlns:xlink="http://www.w3.org/1999/xlink"><defs><circle id="b" cx="64" cy="64" r="64"/><filter x="-13.7%" y="-9.8%" width="127.3%" height="127.3%" filterUnits="objectBoundingBox" id="a"><feOffset dy="5" in="SourceAlpha" result="shadowOffsetOuter1"/><feGaussianBlur stdDeviation="5" in="shadowOffsetOuter1" result="shadowBlurOuter1"/><feComposite in="shadowBlurOuter1" in2="SourceAlpha" operator="out" result="shadowBlurOuter1"/><feColorMatrix values="0 0 0 0 0 0 0 0 0 0 0 0 0 0 0 0 0 0 0.5 0" in="shadowBlurOuter1"/></filter></defs><g fill="none" fill-rule="evenodd"><path d="M275 154L26.5 261M275 154L74.5 91.413M275 153.857L159 14M493 66l-218 88M285 285l-11-131M428.5 344.5L275 154M275 154L144 254M275 154l-149 19M275 158l-4-107.5M381 25c3.333-3.333-32 41-106 133M485.5 249.25L275 154M432.127 158L275 154M192 330c-2 8.333 25.333-50.333 82-176-56.667 125.667-84 184.333-82 176z" stroke="#5900CC" opacity=".5" stroke-linecap="square"/><path d="M448 351.5l-2.115-2.13-9.885 9.885-3.885-3.87L430 357.5l6 6 12-12zm1.5-9h-6.27c-.63-1.74-2.28-3-4.23-3-1.95 0-3.6 1.26-4.23 3h-6.27c-.21 0-.405.015-.6.06-.585.12-1.11.42-1.515.825-.27.27-.495.6-.645.96a2.89 2.89 0 0 0-.24 1.155v21c0 .405.09.81.24 1.17.15.36.375.675.645.96.405.405.93.705 1.515.825.195.03.39.045.6.045h21c1.65 0 3-1.35 3-3v-21c0-1.65-1.35-3-3-3zm-10.5-.375c.615 0 1.125.51 1.125 1.125s-.51 1.125-1.125 1.125-1.125-.51-1.125-1.125.51-1.125 1.125-1.125zm10.5 24.375h-21v-21h21v21zM301.5 274.675a13.537 13.537 0 0 1-3.888 1.066 6.791 6.791 0 0 0 2.976-3.746 13.554 13.554 0 0 1-4.299 1.643 6.761 6.761 0 0 0-4.942-2.138 6.77 6.77 0 0 0-6.77 6.77c0 .53.06 1.047.175 1.543-5.627-.282-10.615-2.978-13.954-7.074a6.738 6.738 0 0 0-.917 3.404 6.767 6.767 0 0 0 3.012 5.635 6.743 6.743 0 0 1-3.067-.847v.085a6.775 6.775 0 0 0 5.43 6.64 6.783 6.783 0 0 1-3.057.115 6.777 6.777 0 0 0 6.324 4.702 13.583 13.583 0 0 1-8.408 2.898c-.546 0-1.085-.032-1.615-.095a19.162 19.162 0 0 0 10.378 3.042c12.453 0 19.263-10.316 19.263-19.263 0-.293-.006-.585-.02-.876a13.754 13.754 0 0 0 3.379-3.504zM191 329c4.074 0 4.585.017 6.184.09 1.597.073 2.687.327 3.642.698a7.352 7.352 0 0 1 2.656 1.73 7.353 7.353 0 0 1 1.73 2.656c.371.955.625 2.045.698 3.642.073 1.6.09 2.11.09 6.184s-.017 4.585-.09 6.184c-.073 1.597-.327 2.687-.697 3.642a7.353 7.353 0 0 1-1.73 2.656 7.353 7.353 0 0 1-2.657 1.73c-.955.371-2.045.625-3.642.698-1.6.073-2.11.09-6.184.09s-4.585-.017-6.184-.09c-1.597-.073-2.687-.327-3.642-.697a7.353 7.353 0 0 1-2.656-1.73 7.352 7.352 0 0 1-1.73-2.657c-.371-.955-.625-2.045-.698-3.642-.073-1.6-.09-2.11-.09-6.184s.017-4.585.09-6.184c.073-1.597.327-2.687.698-3.642a7.352 7.352 0 0 1 1.73-2.656 7.352 7.352 0 0 1 2.656-1.73c.955-.371 2.045-.625 3.642-.698 1.6-.073 2.11-.09 6.184-.09zm0 2.703c-4.005 0-4.48.015-6.061.087-1.463.067-2.257.311-2.786.517-.7.272-1.2.597-1.724 1.122a4.647 4.647 0 0 0-1.122 1.724c-.206.529-.45 1.323-.517 2.786-.072 1.581-.087 2.056-.087 6.061s.015 4.48.087 6.061c.067 1.463.311 2.257.517 2.786.272.7.597 1.2 1.122 1.724.525.525 1.024.85 1.724 1.122.529.206 1.323.45 2.786.517 1.581.072 2.056.087 6.061.087s4.48-.015 6.061-.087c1.463-.067 2.257-.311 2.786-.517.7-.272 1.2-.597 1.724-1.122a4.647 4.647 0 0 0 1.122-1.724c.206-.529.45-1.323.517-2.786.072-1.581.087-2.056.087-6.061s-.015-4.48-.087-6.061c-.067-1.463-.311-2.257-.517-2.786-.272-.7-.597-1.2-1.122-1.724a4.647 4.647 0 0 0-1.724-1.122c-.529-.206-1.323-.45-2.786-.517-1.581-.072-2.056-.087-6.061-.087zM191 349a5 5 0 1 0 0-10 5 5 0 0 0 0 10zm0-12.703a7.703 7.703 0 1 1 0 15.406 7.703 7.703 0 0 1 0-15.406zm9.807-.304a1.8 1.8 0 1 1-3.6 0 1.8 1.8 0 0 1 3.6 0zM15 251c-8.28 0-15 6.72-15 15 0 8.28 6.72 15 15 15 8.28 0 15-6.72 15-15 0-8.28-6.72-15-15-15zm0 27c-6.615 0-12-5.385-12-12s5.385-12 12-12 12 5.385 12 12-5.385 12-12 12zm-8.25-3.75l11.265-5.235 5.235-11.265-11.265 5.235L6.75 274.25zm8.25-9.9c.915 0 1.65.735 1.65 1.65 0 .915-.735 1.65-1.65 1.65-.915 0-1.65-.735-1.65-1.65 0-.915.735-1.65 1.65-1.65zM134 246.5l-13.5 6v9c0 8.325 5.76 16.11 13.5 18 7.74-1.89 13.5-9.675 13.5-18v-9l-13.5-6zm10.5 15c0 6.78-4.47 13.035-10.5 14.895-6.03-1.86-10.5-8.115-10.5-14.895v-7.05l10.5-4.665 10.5 4.665v7.05zm-17.385.885L125 264.5l6 6 12-12-2.115-2.13-9.885 9.885-3.885-3.87zM123.565 183.565h-4.449V176.6c0-1.66-.03-3.795-2.313-3.795-2.314 0-2.667 1.81-2.667 3.677v7.082h-4.445v-14.318h4.263v1.957h.062c.595-1.125 2.045-2.312 4.21-2.312 4.507 0 5.339 2.964 5.339 6.82v7.853zm-18.891-16.273a2.581 2.581 0 1 1-.005-5.162 2.581 2.581 0 0 1 .005 5.162zm-2.23 16.273h4.455v-14.318h-4.455v14.318zM125.78 158h-25.568c-1.22 0-2.212.968-2.212 2.163v25.674c0 1.195.992 2.165 2.212 2.165h25.568c1.223 0 2.22-.97 2.22-2.165v-25.674c0-1.195-.997-2.163-2.22-2.163zM63.012 71C54.722 71 48 77.722 48 86.012c0 6.364 3.954 11.8 9.539 13.987-.136-1.186-.247-3.015.05-4.312.27-1.174 1.754-7.463 1.754-7.463s-.445-.902-.445-2.224c0-2.088 1.21-3.645 2.718-3.645 1.285 0 1.903.964 1.903 2.113 0 1.285-.816 3.212-1.248 5.004-.358 1.495.754 2.718 2.224 2.718 2.669 0 4.72-2.817 4.72-6.87 0-3.595-2.582-6.103-6.277-6.103-4.275 0-6.783 3.2-6.783 6.511 0 1.285.494 2.669 1.112 3.423a.447.447 0 0 1 .099.432c-.111.47-.371 1.495-.42 1.705-.062.272-.223.334-.507.198-1.878-.877-3.052-3.608-3.052-5.82 0-4.732 3.435-9.081 9.922-9.081 5.202 0 9.254 3.707 9.254 8.674 0 5.177-3.262 9.34-7.784 9.34-1.52 0-2.953-.79-3.435-1.73l-.939 3.572c-.333 1.31-1.248 2.94-1.865 3.941 1.408.433 2.89.667 4.448.667 8.29 0 15.012-6.721 15.012-15.012C78.025 77.722 71.303 71 63.012 71zM165 5l3.435 3.435-7.32 7.32-6-6L144 20.885 146.115 23l9-9 6 6 9.45-9.435L174 14V5zM270.985 23C262.705 23 256 29.72 256 38c0 8.28 6.705 15 14.985 15C279.28 53 286 46.28 286 38c0-8.28-6.72-15-15.015-15zm10.395 9h-4.425a23.474 23.474 0 0 0-2.07-5.34A12.044 12.044 0 0 1 281.38 32zM271 26.06a21.13 21.13 0 0 1 2.865 5.94h-5.73A21.13 21.13 0 0 1 271 26.06zM259.39 41c-.24-.96-.39-1.965-.39-3s.15-2.04.39-3h5.07c-.12.99-.21 1.98-.21 3s.09 2.01.21 3h-5.07zm1.23 3h4.425a23.474 23.474 0 0 0 2.07 5.34A11.98 11.98 0 0 1 260.62 44zm4.425-12h-4.425a11.98 11.98 0 0 1 6.495-5.34 23.474 23.474 0 0 0-2.07 5.34zM271 49.94a21.13 21.13 0 0 1-2.865-5.94h5.73A21.13 21.13 0 0 1 271 49.94zm3.51-8.94h-7.02c-.135-.99-.24-1.98-.24-3s.105-2.025.24-3h7.02c.135.975.24 1.98.24 3s-.105 2.01-.24 3zm.375 8.34c.9-1.665 1.59-3.465 2.07-5.34h4.425a12.044 12.044 0 0 1-6.495 5.34zM277.54 41c.12-.99.21-1.98.21-3s-.09-2.01-.21-3h5.07c.24.96.39 1.965.39 3s-.15 2.04-.39 3h-5.07zM408 23V.5h-30V23h-3v3h36v-3h-3zm-12 0h-6v-1.5h6V23zm9-4.5h-24v-15h24v15zM451.25 156.5a2.25 2.25 0 1 1 0-4.5 2.25 2.25 0 0 1 0 4.5zm-10.5 0a2.25 2.25 0 1 1 0-4.5 2.25 2.25 0 0 1 0 4.5zM446 164c2.22 0 4.125-1.215 5.175-3h2.505a8.243 8.243 0 0 1-15.36 0h2.505c1.05 1.785 2.955 3 5.175 3zm-.015-21c8.295 0 15.015 6.72 15.015 15 0 8.28-6.72 15-15.015 15-8.28 0-14.985-6.72-14.985-15 0-8.28 6.705-15 14.985-15zm.015 27c6.63 0 12-5.37 12-12s-5.37-12-12-12-12 5.37-12 12 5.37 12 12 12zM489.7 258.5v-9.9l8.573 4.95-8.573 4.95zm19.11-12.893a4.133 4.133 0 0 0-2.917-2.918C503.319 242 493 242 493 242s-10.32 0-12.893.69a4.133 4.133 0 0 0-2.917 2.917c-.69 2.574-.69 7.943-.69 7.943s0 5.37.69 7.943a4.132 4.132 0 0 0 2.917 2.917c2.574.69 12.893.69 12.893.69s10.32 0 12.893-.69a4.132 4.132 0 0 0 2.917-2.917c.69-2.574.69-7.943.69-7.943s0-5.37-.69-7.943zM478.75 76.5h28.5v3h-28.5v-3zm29.355-14.04a2.245 2.245 0 0 0-2.76-1.59L497.38 63l-10.35-9.645-2.895.765 6.21 10.755-7.455 1.995-2.955-2.31-2.175.585 3.885 6.735 24.855-6.645a2.283 2.283 0 0 0 1.605-2.775z" fill="#5900CC"/><g fill-rule="nonzero" transform="translate(211 90)"><use fill="#000" filter="url(#a)" xlink:href="#b"/><circle stroke="#5900CC" stroke-width="5" stroke-linejoin="square" fill="#FFF" fill-rule="evenodd" cx="64" cy="64" r="61.5"/><circle stroke="#FFF" stroke-width="2" stroke-linejoin="square" cx="64" cy="64" r="63"/></g><path d="M255 181.286l20-19.998 20 19.998-6.429 6.429L275 174.145l-13.571 13.57-6.429-6.429zM275 120l20 20-6.43 6.429L275 132.857l-13.57 13.572L255 140l20-20zm-20 40.715l20-20.142 20 20.142-6.429 6.428L275 153.572l-13.571 13.571-6.429-6.428z" fill="#5900CC"/></g></svg>