<?xml version="1.0" encoding="UTF-8"?> <svg xmlns="http://www.w3.org/2000/svg" xmlns:xlink="http://www.w3.org/1999/xlink" fill="none" height="559" viewBox="0 0 647 559" width="647"><linearGradient id="a"><stop offset="0" stop-color="#a7caec"></stop><stop offset="1" stop-color="#90b5e0"></stop></linearGradient><linearGradient id="b" gradientUnits="userSpaceOnUse" x1="556.754" x2="417.468" xlink:href="#a" y1="390.312" y2="390.312"></linearGradient><linearGradient id="c"><stop offset="0" stop-color="#f72c9e"></stop><stop offset="1" stop-color="#562eff"></stop></linearGradient><linearGradient id="d" gradientUnits="userSpaceOnUse" x1="246.071" x2="314.271" xlink:href="#c" y1="47.0049" y2="47.8168"></linearGradient><linearGradient id="e" gradientUnits="userSpaceOnUse" x1="-12443.1" x2="-13459.2" y1="23030.1" y2="22019.1"><stop offset="0" stop-color="#f72c9e"></stop><stop offset="1" stop-color="#3d6efe"></stop></linearGradient><linearGradient id="f"><stop offset="0" stop-color="#f72c9e"></stop><stop offset="1" stop-color="#30f7ff"></stop></linearGradient><linearGradient id="g" gradientUnits="userSpaceOnUse" x1="330.004" x2="330.004" xlink:href="#f" y1="43.6976" y2="112.289"></linearGradient><linearGradient id="h" gradientUnits="userSpaceOnUse" x1="309.072" x2="309.072" xlink:href="#f" y1="38.7346" y2="107.02"></linearGradient><linearGradient id="i" gradientUnits="userSpaceOnUse" x1="325.017" x2="353.853" xlink:href="#c" y1="62.1024" y2="62.1876"></linearGradient><linearGradient id="j" gradientUnits="userSpaceOnUse" x1="506.658" x2="402.752" xlink:href="#a" y1="151.735" y2="151.735"></linearGradient><linearGradient id="k" gradientUnits="userSpaceOnUse" x1="485.394" x2="445.789" xlink:href="#a" y1="144.693" y2="144.693"></linearGradient><linearGradient id="l" gradientUnits="userSpaceOnUse" x1="480.39" x2="412.135" xlink:href="#a" y1="133.792" y2="133.792"></linearGradient><linearGradient id="m" gradientUnits="userSpaceOnUse" x1="436.72" x2="453.754" y1="95.0433" y2="59.144"><stop offset="0" stop-color="#01113f"></stop><stop offset="1" stop-color="#5668c1"></stop></linearGradient><linearGradient id="n" gradientUnits="userSpaceOnUse" x1="464.715" x2="399.49" xlink:href="#a" y1="101.379" y2="101.379"></linearGradient><linearGradient id="o"><stop offset="0" stop-color="#a7caec"></stop><stop offset="1" stop-color="#5b8cd3"></stop></linearGradient><linearGradient id="p" gradientUnits="userSpaceOnUse" x1="35976.5" x2="38795" xlink:href="#o" y1="9973.08" y2="9973.08"></linearGradient><linearGradient id="q" gradientUnits="userSpaceOnUse" x1="452.566" x2="514.887" xlink:href="#c" y1="128.665" y2="130.244"></linearGradient><linearGradient id="r" gradientUnits="userSpaceOnUse" x1="508.812" x2="508.812" xlink:href="#f" y1="132.324" y2="190.121"></linearGradient><linearGradient id="s" gradientUnits="userSpaceOnUse" x1="11670.6" x2="12557.3" xlink:href="#o" y1="16467.2" y2="16467.2"></linearGradient><linearGradient id="t"><stop offset="0" stop-color="#f6a509"></stop><stop offset=".7491" stop-color="#ea977c"></stop></linearGradient><linearGradient id="u" gradientUnits="userSpaceOnUse" x1="511.421" x2="490.485" xlink:href="#t" y1="116.901" y2="116.834"></linearGradient><linearGradient id="v" gradientUnits="userSpaceOnUse" x1="440.437" x2="498.83" xlink:href="#c" y1="143.783" y2="145.086"></linearGradient><linearGradient id="w" gradientUnits="userSpaceOnUse" x1="516.954" x2="500.922" xlink:href="#t" y1="107.355" y2="107.301"></linearGradient><linearGradient id="x" gradientUnits="userSpaceOnUse" x1="435.558" x2="436.494" y1="83.0514" y2="94.5014"><stop offset="0" stop-color="#3d6efe"></stop><stop offset=".75" stop-color="#dd0561"></stop></linearGradient><linearGradient id="y"><stop offset="0" stop-color="#e3f1ff"></stop><stop offset="1" stop-color="#fff"></stop></linearGradient><linearGradient id="z" gradientUnits="userSpaceOnUse" x1="490.771" x2="503.228" xlink:href="#y" y1="64.5936" y2="64.5936"></linearGradient><linearGradient id="A" gradientUnits="userSpaceOnUse" x1="490.788" x2="503.244" xlink:href="#y" y1="58.5518" y2="58.5518"></linearGradient><linearGradient id="B" gradientUnits="userSpaceOnUse" x1="490.807" x2="503.262" xlink:href="#y" y1="52.5121" y2="52.5121"></linearGradient><linearGradient id="C" gradientUnits="userSpaceOnUse" x1="490.822" x2="503.279" xlink:href="#y" y1="46.4734" y2="46.4734"></linearGradient><linearGradient id="D" gradientUnits="userSpaceOnUse" x1="510.774" x2="523.234" xlink:href="#y" y1="70.0965" y2="70.0965"></linearGradient><linearGradient id="E" gradientUnits="userSpaceOnUse" x1="510.791" x2="523.252" xlink:href="#y" y1="64.0575" y2="64.0575"></linearGradient><linearGradient id="F" gradientUnits="userSpaceOnUse" x1="510.807" x2="523.27" xlink:href="#y" y1="58.0183" y2="58.0183"></linearGradient><linearGradient id="G" gradientUnits="userSpaceOnUse" x1="510.756" x2="523.218" xlink:href="#y" y1="76.1385" y2="76.1385"></linearGradient><linearGradient id="H" gradientUnits="userSpaceOnUse" x1="558.59" x2="558.59" xlink:href="#f" y1="326.475" y2="368.318"></linearGradient><linearGradient id="I" gradientUnits="userSpaceOnUse" x1="591.978" x2="591.978" xlink:href="#f" y1="323.525" y2="397.319"></linearGradient><linearGradient id="J" gradientUnits="userSpaceOnUse" x1="614.187" x2="614.187" xlink:href="#f" y1="333.085" y2="390.128"></linearGradient><linearGradient id="K" gradientUnits="userSpaceOnUse" x1="33.8602" x2="100.076" xlink:href="#c" y1="245.151" y2="246.743"></linearGradient><linearGradient id="L" gradientUnits="userSpaceOnUse" x1="47.152" x2="47.152" xlink:href="#f" y1="239.568" y2="305.85"></linearGradient><linearGradient id="M" gradientUnits="userSpaceOnUse" x1="64.0862" x2="64.0862" xlink:href="#f" y1="255.714" y2="302.811"></linearGradient><linearGradient id="N" gradientUnits="userSpaceOnUse" x1="-27849.2" x2="-29721.3" y1="35275.6" y2="35394.7"><stop offset="0" stop-color="#dd0561"></stop><stop offset="1" stop-color="#3d6efe"></stop></linearGradient><linearGradient id="O" gradientUnits="userSpaceOnUse" x1="104.855" x2="66.589" y1="160.252" y2="184.889"><stop offset="0" stop-color="#e3f1ff"></stop><stop offset="1" stop-color="#b1c7e8"></stop></linearGradient><linearGradient id="P" gradientUnits="userSpaceOnUse" x1="51.7773" x2="104.488" xlink:href="#c" y1="266.581" y2="267.171"></linearGradient><linearGradient id="Q" gradientUnits="userSpaceOnUse" x1="137.242" x2="80.1279" xlink:href="#o" y1="175.706" y2="175.706"></linearGradient><path d="m364.863 227.343-1.79-.21c-35.28-5.163-74.774.21-102.261 15.699-.737.421-1.474.842-2.317 1.264l-.842 168.896c.737-.421 1.474-.843 2.317-1.264 27.487-15.489 71.825-19.176 107-14.014z" fill="#ca0559"></path><path d="m390.666 172.345-27.382 57.528c-35.28-5.163-74.352-.106-101.839 15.383-.738.421-1.475.843-2.317 1.264l-74.774-42.566c.527-.317.948-.527 1.474-.843 55.396-30.977 133.961-41.197 204.838-30.766z" fill="#dd0561"></path><path d="m486.292 137.258-.948 234.537-75.09 42.04.948-234.432z" fill="#fe8926"></path><path d="m363.284 164.022-.948 234.537c17.483 2.529 34.122 7.691 47.813 15.383l.948-234.537c-13.691-7.692-30.225-12.854-47.813-15.383z" fill="#ea7e23"></path><path d="m486.292 137.258-75.09 42.145c-13.796-7.691-30.331-12.748-47.918-15.382l27.382-57.528c34.964 5.162 68.033 15.488 95.626 30.765z" fill="#f4a460"></path><path d="m259.232 246.625-.948 168.686-74.774-42.567.948-168.685z" fill="#e843c5"></path><path d="m230.692 286.874-.947 196.08c0-14.435 9.583-28.975 28.54-40.249l.948-196.08c-19.062 11.274-28.541 25.709-28.541 40.249z" fill="#dd5b5b"></path><path d="m411.202 224.079-.948 189.863c20.853 11.59 31.279 22.864 31.279 38.141l.948-185.859c0-15.278-10.426-30.556-31.279-42.145z" fill="#3568e8"></path><path d="m234.273 302.362-.948 157.095-102.998-34.875.947-107.259z" fill="#ed6363"></path><path d="m184.354 204.059 74.773 42.566c-25.802 15.383-34.122 36.667-24.854 55.843l-102.998 14.856c-18.536-39.09-.948-82.394 53.079-113.265z" fill="#f97d7d"></path><path d="m124.114 286.557-.947 107.259c0 10.326 2.316 20.757 7.161 30.871l.948-107.259c-4.739-10.115-7.162-20.545-7.162-30.871z" fill="#f56b6b"></path><path d="m541.477 297.515-.842 128.437-103.209 46.359.843-189.758z" fill="#4d9eff"></path><path d="m541.478 297.516-.948 128.437c4.95-10.115 7.372-20.546 7.477-30.977l.948-128.437c0 10.326-2.528 20.757-7.477 30.977z" fill="#3b73ff"></path><path d="m486.291 181.932c56.238 31.293 74.669 75.756 55.291 115.583l-103.209-14.962c10.321-20.124 1.264-42.672-27.171-58.476z" fill="#5a88fb"></path><path d="m521.677 324.7-.948 128.331c8.636-8.639 15.271-17.701 19.799-26.972l.948-128.332c-4.529 9.272-11.058 18.333-19.799 26.973z" fill="#562eff"></path><path d="m522.838 324.684-.948 128.226-92.993 32.136.948-189.548z" fill="#4125cf"></path><path d="m541.476 297.726c-4.528 9.377-11.163 18.438-19.799 26.972l-92.993-29.185c4.107-4.109 7.372-8.324 9.689-12.749z" fill="#6c49fe"></path><path d="m262.813 366.633-.948 131.387-75.195-19.281.948-69.961z" fill="#eacd50"></path><path d="m186.775 408.251c-27.697-15.382-46.443-33.505-55.816-53.208l-.632 69.54c9.373 19.702 27.908 38.246 55.501 53.735.21.105.526.316.842.421l.948-70.066c-.316-.105-.527-.211-.843-.422z" fill="#fa6868"></path><path d="m234.273 340.293c4.74 9.694 13.902 18.966 27.593 26.552.316.105.632.316.842.421l-75.195 42.04c-.315-.106-.526-.316-.842-.422-27.698-15.383-46.444-34.137-55.817-53.84z" fill="#f97d7d"></path><path d="m310.836 382.438-26.75 57.528c-35.28-5.057-68.665-15.277-96.468-30.555l75.195-42.039c13.796 7.586 30.541 12.643 48.023 15.066z" fill="#dae7ee"></path><path d="m187.513 409.305-.948 69.329c27.803 15.277 61.293 25.603 96.574 30.66l.842-69.434c-35.28-5.057-68.665-15.277-96.468-30.555z" fill="#bacdd8"></path><path d="m521.572 383.596c-9.163 9.061-20.642 17.596-34.438 25.392-54.975 30.766-132.697 41.092-203.153 30.977l26.75-57.528c34.965 4.952 73.51-.211 100.786-15.488 6.741-3.793 12.428-8.008 16.956-12.433z" fill="#6c49fe"></path><path d="m487.134 409.094c-54.974 30.766-132.697 40.986-203.152 30.871l-.948 69.645c70.455 10.115 148.178-.211 203.152-30.977 13.796-7.691 25.276-16.331 34.438-25.392l.948-69.539c-9.162 9.061-20.642 17.595-34.438 25.392z" fill="#562eff"></path><path d="m419.523 380.647c0 .632.21 1.159.421 1.264-.527-.316-.843-.632-1.053-.738-.105-.105-.316-.316-.421-.526-.211-.317-.316-.422-.422-.633-.105-.21-.316-.526-.421-1.159-.105-.421-.105-.843-.105-1.159 0 1.159.632 2.213 2.001 2.951z" fill="#719fd8"></path><path d="m419.523 380.647 85.831 49.836c2.739 1.58 7.267 1.58 10.111 0l39.282-22.653c0 .632-.21 1.159-.421 1.264-9.163 5.269-18.325 10.537-27.487 15.91l-3.897 2.318c-2.633 1.475-5.266 3.056-7.899 4.531-1.579.948-3.37 1.159-4.528 1.159-1.159 0-2.106-.211-2.422-.316-.632-.106-.843-.211-1.37-.422-.21-.105-.421-.211-.842-.421-5.687-3.372-11.479-6.638-17.166-10.01-22.854-13.275-45.707-26.551-68.666-39.932-.316-.105-.526-.527-.526-1.264z" fill="#719fd8"></path><path d="m554.642 407.83c1.369-.843 2.106-1.896 2.106-2.95 0 .948-.21 1.686-.632 2.423-.316.527-.737.843-.842.949-.106.105-.316.21-.421.316-.211.105-.422.316-.632.421.21 0 .421-.421.421-1.159z" fill="#719fd8"></path><path d="m419.523 380.225 85.831 49.837c2.739 1.58 7.267 1.58 10.111 0l39.282-22.653c1.369-.843 2.106-1.897 2.106-2.951v.422c0 1.053-.737 2.107-2.106 2.95l-39.282 22.653c-2.738 1.58-7.267 1.58-10.111 0l-85.831-49.837c-1.369-.842-2.106-1.896-2.106-2.844 0-.106 0-.316 0-.422.105 1.054.737 2.002 2.106 2.845z" fill="#91b2e2"></path><path d="m420.471 373.166c-2.212 1.264-2.317 3.477 0 4.741 28.645 16.647 57.186 33.295 85.831 49.837 2.212 1.264 5.898 1.264 8.215 0 13.059-7.586 26.223-15.173 39.282-22.653 2.212-1.265 2.317-3.477 0-4.742-28.645-16.647-57.186-33.294-85.831-49.836-2.212-1.264-5.898-1.264-8.215 0-13.059 7.481-26.118 15.067-39.282 22.653z" fill="#e3f1ff"></path><path d="m417.417 377.38c0 1.054.737 2.108 2.106 2.845l85.831 49.837c2.739 1.58 7.267 1.58 10.111 0l39.282-22.653c1.369-.843 2.106-1.897 2.106-2.951 0-.421 0-.421 0-.632 0-.316-.105-.527-.105-.527-.21-.632-.421-1.053-.421-1.158-.105-.211-.316-.633-.843-1.054-.421-.422-.842-.632-1.158-.843-20.01-11.59-40.02-23.285-60.03-34.875l-8.53-4.952c-5.687-3.372-11.479-6.638-17.166-10.01-.422-.21-.632-.316-.843-.421-.421-.211-.737-.316-1.369-.421-.316-.106-1.264-.317-2.422-.317-1.159 0-2.001.211-2.423.317-.315.105-1.263.316-2.211.842-9.163 5.269-18.325 10.537-27.487 15.91l-3.897 2.318-3.897 2.318c-1.158.632-2.738 1.581-3.896 2.318-.211.105-.422.316-.632.422-.106.105-.316.316-.527.421-.105.105-.421.421-.737.948-.737.949-.737 1.897-.842 2.318zm3.054-4.214 39.282-22.653c2.212-1.265 5.898-1.265 8.215 0l85.831 49.836c2.212 1.265 2.212 3.477 0 4.742l-39.282 22.653c-2.212 1.264-5.898 1.264-8.215 0l-85.831-49.837c-2.212-1.37-2.212-3.477 0-4.741z" fill="url(#b)"></path><path d="m423.104 375.8c-.843.527-.843 1.264 0 1.791l82.251 47.835c.842.526 2.211.526 3.054 0l41.494-24.023c.842-.527.842-1.264 0-1.791l-82.251-47.835c-.843-.527-2.212-.527-3.054 0z" fill="#fff"></path><path d="m484.291 386.968.211.106-.421.21-.211-.105-17.061-9.799.421-.21z" fill="#f1f1f1"></path><path d="m484.397 367.16-.211.105-16.956 9.904-.421.211-16.85 9.799-.211.105-.421-.21.211-.106 16.955-9.799.316-.316 16.956-9.798.211-.106z" fill="#f1f1f1"></path><path d="m449.643 366.949.21.106 16.956 9.798-.316.316-17.061-9.904-.21-.105z" fill="#f1f1f1"></path><path d="m466.704 356.729-35.07 20.335 35.281 20.335 35.069-20.335zm17.377 30.555-.211-.105-16.955 9.799-17.062-9.799-.21.105-.421-.21.21-.106-17.061-9.798 16.956-9.799-.211-.106.422-.21.21.105 16.956-9.799 17.061 9.799.211-.105.421.21-.211.106 17.061 9.799-16.956 9.798.211.106z" fill="#f1f1f1"></path><path d="m523.363 400.981 1.58.843 10.005-5.795-1.474-.842z" fill="#f1f1f1"></path><path d="m505.565 390.551 15.481 9.061 10.111-5.795-15.587-9.061z" fill="#dd0561"></path><path d="m497.351 400.771 10.847 6.321 10.11-5.795-10.847-6.321z" fill="#ef372c"></path><path d="m510.515 408.462 1.474.843 10.111-5.795-1.58-.948z" fill="#f1f1f1"></path><path d="m497.561 415.838 1.58.948 10.005-5.795-1.474-.948z" fill="#f1f1f1"></path><path d="m474.603 402.457 20.747 12.116 10.005-5.795-20.642-12.116z" fill="#ff8827"></path><path d="m466.388 398.98-3.265-13.381 9.795-5.69-2.423-15.067 2.001-.316 2.633 16.542-9.583 5.584 2.843 11.801z" fill="#e86969"></path><path d="m471.338 362.524 3.159 4.109-5.371-.21z" fill="#e86969"></path><path d="m115.793 199.422v1.792l-32.437-18.65v-1.791z" fill="#fff"></path><path d="m90.4117 162.756v19.598l-6.9508-3.899.1054-19.703z" fill="#66c8ff"></path><path d="m98.8373 170.237v17.069l-6.9508-4.004.1053-17.069z" fill="#5cfff7"></path><path d="m107.368 164.337-.106 27.815-6.845-4.003v-27.816z" fill="#ff76a7"></path><path d="m115.793 173.819-.105 23.18-6.846-4.004v-23.18z" fill="#fff"></path><path d="m249.334 196.051-.316-129.9116h-1.475l.211 107.7856-56.343 32.557-.211-107.048-1.474.1053.316 129.2797-13.06-6.532-.631 1.369 27.487 13.803.632-1.37-12.954-6.532-.105-21.389 56.343-32.557.105 19.703-12.743-6.322-.632 1.265 27.488 13.802.632-1.37z" fill="#244d91"></path><path d="m248.281.709206c.948-.526812 1.79 0 2.001 1.158984l24.433 142.97681c.21 1.159-.422 2.529-1.264 3.056l-72.667 41.618c-.948.527-1.791 0-2.001-1.159l-24.433-142.9771c-.211-1.159.421-2.5287 1.263-3.0555z" fill="#dad9e8"></path><path d="m243.963 2.71106 21.905 128.33194-64.031 36.771-21.906-128.3314z" fill="#fff"></path><path d="m244.805 56.5513-48.866 28.1318 10.532 61.9529 48.866-28.131zm10.11 61.6367-11.795 6.744-2.527-14.856 11.795-6.744zm-14.428-8.639-2.527-14.8564 11.795-6.7432 2.528 14.8556zm-15.06-8.113-11.795 6.743.105.527 11.796-6.743 2.527 14.856-11.795 6.743-2.528-14.856-.105-.527-2.528-14.8561 11.796-6.7432zm-2.211-15.0671 11.795-6.7432 2.528 14.8561-11.796 6.7432zm2.633 15.2771 11.795-6.7427 2.527 14.8557-11.795 6.744zm12.005-7.3749-2.527-14.8561 11.795-6.7432 2.528 14.8561zm6.635-36.9822 2.528 14.8561-11.795 6.7432-2.528-14.8561zm-12.111 6.9539 2.528 14.8561-11.796 6.7432-2.527-14.8561zm-12.111 6.9539 2.527 14.8561-11.795 6.7432-2.527-14.8561zm-12.217 6.9539 2.528 14.8562-11.795 6.7432-2.528-14.8561zm2.633 15.383 2.528 14.8564-11.796 6.743-2.527-14.856zm2.633 15.3834 2.528 14.856-11.796 6.743-2.527-14.856zm-6.529 36.982-2.528-14.856 11.795-6.744 2.528 14.857zm12.111-7.06-2.528-14.856 11.795-6.743 2.528 14.856zm12.111-6.953-2.528-14.857 11.796-6.743 2.527 14.856z" fill="#f1f1f1"></path><path d="m204.996 51.81c.737 4.4253-.842 9.4827-3.791 12.6435 1.158-1.1589 2.001-2.634 2.738-4.2145l-3.265-1.8965c.527-1.3697.843-2.8448.527-4.2145-.211-1.3697-.843-2.4233-1.79-2.8448l2.106-5.0574c1.685.8429 3.054 2.8448 3.475 5.5842z" fill="#e86969"></path><path d="m197.835 66.7712c.105 0 .105-.105.21-.105-.105 0-.21.105-.21.105z" fill="#4591ff"></path><path d="m200.573 58.2372 3.265 1.8965c-.948 2.1073-2.317 4.0038-3.897 5.3735-.105 0-.105.1054-.211.1054 0 0-.105 0-.105.1053 0 0-.105 0-.105.1054 0 0 0 0-.105 0 0 0 0 0-.106 0 0 0 0 0-.105 0 0 0 0 0-.105 0 0 0 0 0-.106 0l-.105.1053h-.105s-.106 0-.106.1054c-.316.2107-.632.3161-.948.4215-.526.2107-.947.316-1.474.4214h-.105-.106-.105c-1.158.1054-2.212-.1054-3.159-.6322l2.106-5.0574c.211.1054.527.2108.737.3161h.105.843c.105 0 .211-.1053.421-.1053h.106c.105 0 .105 0 .105-.1054.105 0 .105 0 .105-.1054h.106.105.105s.105 0 .105-.1053c1.475-.4215 2.317-1.5805 2.844-2.8448z" fill="#bd1622"></path><path d="m198.255 66.5607c-.105 0-.21.105-.315.105.21 0 .21-.105.315-.105z" fill="#4591ff"></path><path d="m198.466 66.4554c-.105 0-.105.105-.21.105.105 0 .105-.105.21-.105z" fill="#4591ff"></path><path d="m204.996 67.509.316 1.6858-10.742 6.1111-.316-1.6858z" fill="#f1f1f1"></path><path d="m196.992 61.8191c.105 0 .21 0 .21-.105-.105 0-.21 0-.21.105z" fill="#4591ff"></path><path d="m193.938 54.128c.316-.7376.737-1.3697 1.264-1.8966-.527.5269-.948 1.159-1.264 1.8966z" fill="#4591ff"></path><path d="m194.781 46.8576c.105 0 .105-.105.21-.105 0 0-.105 0-.21.105z" fill="#4591ff"></path><path d="m194.781 46.858c-.106.1053-.211.2107-.422.3161.211-.2108.316-.2108.422-.3161z" fill="#4591ff"></path><path d="m189.41 60.7658c-.843-4.7413 1.158-10.2202 4.423-13.1703-1.369 1.2643-2.528 2.9501-3.37 4.8466l3.265 1.8966c0-.1054.105-.1054.105-.2108-.632 1.3698-.948 2.9502-.632 4.4253.211 1.3697.948 2.4233 1.79 2.9501l-2.106 5.0574c.737.4215 1.474.6322 2.317.7376-2.844-.3161-5.16-2.6341-5.792-6.5325z" fill="#e86969"></path><path d="m195.518 46.3312c.105 0 .211-.1054.211-.1054.105 0 .105-.1054.21-.1054 2.001-.9482 4.002-.9482 5.582 0l-2.106 5.0574c-.843-.5268-2.001-.5268-3.055.1054 0 0 0 0-.105 0 0 0 0 0-.105 0 0 0 0 0-.106 0 0 0-.105 0-.105.1054-.21.2107-.421.3161-.632.5268-.632.6322-1.158 1.3697-1.474 2.2126l-3.265-1.8965c.948-2.1073 2.317-4.0038 3.897-5.3735.21-.2107.526-.4215.737-.5268 0 0 .105 0 .105-.1054h.106c0 .2107.105.2107.105.1054z" fill="#e86969"></path><path d="m194.464 47.0687s0 .1049 0 0c-.105.1049-.105.1049-.105.1049s0 0 .105-.1049z" fill="#4591ff"></path><path d="m194.149 47.3845.105-.105s-.105 0-.105.105z" fill="#4591ff"></path><path d="m193.938 47.4898.105-.105s0 0-.105.105z" fill="#4591ff"></path><path d="m193.833 47.5952.105-.105z" fill="#4591ff"></path><path d="m198.467 66.455c.105 0 .105-.105.21-.105-.105 0-.105.105-.21.105z" fill="#4591ff"></path><path d="m194.991 46.6469c.105 0 .105-.105.21-.105-.105.105-.105.105-.21.105z" fill="#4591ff"></path><path d="m194.359 47.1734s.104-.1038 0 0c.104-.1038 0 0 0 0z" fill="#4591ff"></path><path d="m217.95 55.1817.105-.1054c1.685-.9482 3.265-2.634 4.424-4.7413-1.159 2.2126-2.739 3.7931-4.424 4.7413 0 .1054 0 .1054-.105.1054z" fill="#4591ff"></path><path d="m224.48 56.2353.316 1.7912-10.637 6.111-.316-1.7912z" fill="#f1f1f1"></path><path d="m219.635 47.7009 3.054 2.318c0 .1054-.105.2107-.105.3161-1.159 2.2126-2.738 3.793-4.423 4.7413l-.106.1054c-1.053.6321-2.211.9482-3.37.9482l.843-5.3735c.632 0 1.158-.2107 1.79-.5268.843-.5268 1.58-1.2643 2.212-2.4233 0 0 .105-.1054.105-.1054z" fill="#e86969"></path><path d="m212.684 48.2277c.211.7376.632 1.4751 1.159 1.8965.526.3161 1.053.5269 1.579.5269l-.842 5.3735c-.948 0-1.896-.2108-2.633-.7376 0 0-.105 0-.105-.1053 0 0 0 0-.106 0-.105-.1054-.21-.2108-.316-.3161 0 0-.105 0-.105-.1054-.105-.1054-.21-.2107-.316-.3161 0 0 0 0-.105-.1054 0 0 0 0-.105-.1053-.738-.8429-1.37-2.0019-1.685-3.1609z" fill="#e86969"></path><path d="m211.947 55.3924c.843.5268 1.79.7375 2.633.7375 1.053 0 2.212-.3161 3.37-.9483-2.001 1.159-4.213 1.2644-6.003.2108z" fill="#ff76c8"></path><path d="m210.578 54.1281c0 .1049.105.1049.105.2099 0-.105-.105-.105-.105-.2099z" fill="#ff76c8"></path><path d="m221.636 35.5842c3.37 2.8448 3.791 9.3773.843 14.7508.105-.1054.105-.2108.105-.3161l-3.054-2.318c1.369-2.6341 1.158-5.9003-.527-7.3754-.421-.4214-.948-.6321-1.474-.6321l1.053-5.3735c-1.264-.1054-2.633.2107-3.897.9482 2.528-1.2643 5.055-1.2643 6.951.3161z" fill="#e86969"></path><path d="m214.79 35.3735c1.264-.7376 2.633-1.0537 3.897-.9483l-1.053 5.3735c-.632-.1054-1.369.1054-2.001.5268-.737.4215-1.474 1.159-2.001 2.1073l-2.738-2.9502c1.053-1.7912 2.422-3.0555 3.791-3.8984 0-.2107.105-.2107.105-.2107z" fill="#bd1622"></path><path d="m210.367 40.1148c1.159-2.1073 2.633-3.6877 4.213-4.636-1.369.8429-2.738 2.2126-3.791 3.8984l2.738 2.9502c-.105.1053-.106.2107-.211.3161-.948 1.7911-1.264 3.8984-.737 5.5842l-3.686 2.8448c.316 1.159.842 2.2126 1.58 3.0555-2.633-3.1609-2.739-9.0612-.106-14.0132z" fill="#bd1622"></path><path d="m238.17 37.27c-.315.5268-.631 1.0536-1.053 1.3697.422-.3161.738-.8429 1.053-1.3697z" fill="#4591ff"></path><path d="m241.531 25.4985c.842 1.0536 1.474 2.5287 1.79 4.2145.737 4.4252-.948 9.4826-3.896 12.6435-.843-1.159-1.791-2.5287-2.528-3.477.105-.1053.316-.2107.421-.3161.421-.4214.737-.8429 1.053-1.3697.843-1.4751 1.264-3.3716.948-5.0574-.105-.6322-.316-1.159-.526-1.5804l3.37-3.6877c-.106-.6322-.422-1.0536-.632-1.3697z" fill="#bd1622"></path><path d="m242.804 45.8044.316 1.6858-10.742 6.111-.316-1.6858z" fill="#f1f1f1"></path><path d="m236.591 39.1666c.737.9483 1.685 2.318 2.527 3.477-.737.7375-1.474 1.3697-2.211 1.7912-.737.4214-1.58.7375-2.317.8429-.843.1053-1.685.1053-2.422-.1054l1.474-5.2681c.737.2107 1.58.1053 2.422-.4215.211-.1053.422-.2107.527-.3161z" fill="#e86969"></path><path d="m227.323 35.3736c-.105.8429-.105 1.6858 0 2.4233l3.897-1.6858c0 .2108 0 .3161.105.5268.316 1.6858 1.264 2.8448 2.422 3.1609l-1.474 5.2681c.737.2108 1.58.2108 2.422.1054-3.37.6322-6.424-1.7912-7.161-6.3217-.316-1.0537-.316-2.2127-.211-3.477z" fill="#e86969"></path><path d="m233.537 24.5212c1.685-.9483 3.264-1.159 4.739-.8429-.632-.1054-1.264-.2107-2.001-.1054l-.527 5.3735c-.421 0-.948.2108-1.369.4215-.842.5268-1.685 1.3697-2.212 2.4233l-2.948-2.5287c-.422.7376-.738 1.5805-1.053 2.318 1.053-2.9502 2.948-5.5842 5.371-7.0593z" fill="#bd1622"></path><path d="m236.529 23.5421c.737-.1053 1.369 0 2.001.1054 1.158.3161 2.106.9482 2.949 2.0019.316.3161.526.7375.737 1.159l-3.37 3.6876c-.632-1.1589-1.685-1.7911-2.949-1.6858z" fill="#bd1622"></path><path d="m229.113 29.2625 2.949 2.5287c-.737 1.2644-1.053 2.8448-.948 4.4252l-3.896 1.6858c-.106-.8429-.106-1.6858 0-2.4233.105-1.2643.421-2.6341.842-3.793.316-.9483.737-1.6859 1.053-2.4234z" fill="#e86969"></path><path d="m208.156 146.215-2.949-.527 5.055-26.13 14.112 4.215v-24.2337l9.479-.1054-.948-12.7488 8.214-7.6915 2.001 2.2126-7.161 6.6378 1.158 14.54-9.794.105.105 25.287-14.849-4.425z" fill="#562eff"></path><path d="m239.329 77.94 4.634 5.3735 1.158-6.0057z" fill="#562eff"></path><path d="m529.892 512.455-6.424-3.793 16.218-29.185 6.319 3.688z" fill="#ff8827"></path><path d="m543.793 482.111-6.424-3.793 9.373-8.64 6.425 3.688z" fill="#ff8827"></path><path d="m529.576 519.199-6.424-3.688-13.375-13.697 6.424 3.793z" fill="#ff8827"></path><path d="m510.189 495.198-18.836 32.43 6.374 3.705 18.836-32.43z" fill="#ff8827"></path><path d="m497.455 537.848-6.424-3.688-14.323-13.276 6.424 3.688z" fill="#ff8827"></path><path d="m463.122 558.499-6.319-3.688-2.633-1.58 6.425 3.793z" fill="#ff8827"></path><path d="m543.793 482.111 9.373-8.745-2.211 12.327-2.212-1.159-19.167 34.665-13.375-13.592-18.746 32.241-14.323-13.276-20.01 33.927-2.527-1.475 22.958-38.984 14.218 13.275 18.851-32.451 13.27 13.591 16.113-29.29z" fill="#e8640a"></path><path d="m460.595 557.024-6.425-3.793 22.959-38.879 6.424 3.688z" fill="#ff8827"></path><path d="m212.145 47.3237-.521.9157 31.028 17.6696.521-.9157z" fill="#1d1d1b"></path><path d="m240.381 68.7738c-.21.1054-.526.1054-.631-.1053l-.106-.2107c-.21-.3161.211-.5269.211-.5269l-.105-.2107-.316.1054c-.211.1053-.527 0-.632-.3161l-.106-.2107c-.105-.2108 0-.5269.316-.6322l.316-.1054-.105-.2107-.527.2107c-.21.1054-.526 0-.632-.3161l-.105-.2107c-.105-.2107 0-.5268.316-.6322l.421-.2107-.105-.2107-1.58.5268c-.21.1054-.526 0-.632-.3161l-.105-.2107c-.105-.2107 0-.5268.316-.6322l.527-.2107s1.263-.5268 1.685-.7376c0 0 .316-2.8448 4.528-1.159 1.159.4215 3.686 2.1073 4.423 3.0556.211.3161-.105 2.0019-.105 2.0019s-2.422-2.318-3.37-1.4751c-1.158 1.0536-3.159 2.1072-3.159 2.1072z" fill="#ffe5d4"></path><path d="m313.259 50.23c.316-.4214.527-.9483.738-1.3697.21-.5268.315-.9483.421-1.4751.21-.9482.21-1.8965.105-2.8448-.211-1.7911-1.158-3.2662-2.633-4.0037-1.474-.8429-3.159-.8429-4.844-.2108-.843.3161-1.58.7376-2.317 1.3697-.316.3161-.632.6322-.948 1.0537-.316.3161-.632.7375-.843 1.159 0 0-.526 1.0536-1.579 2.8447-.527.9483-1.159 1.8966-1.791 3.1609-.316.6322-.737 1.2644-1.158 1.8965-.421.6322-.843 1.3698-1.369 2.1073-.948 1.4751-2.001 2.9501-3.16 4.5306-1.158 1.5804-2.422 3.1609-3.896 4.7413-2.844 3.1609-6.109 6.111-9.795 8.2183-1.895 1.0536-3.791 1.7911-5.792 2.318-2.001.5268-4.002.5268-6.003.4214-4.002-.3161-7.688-1.7912-10.742-3.477s-5.476-3.3716-7.267-4.6359c-1.79-1.2644-2.843-1.8965-2.843-1.8965l-1.791 2.5287s.843.7375 2.423 2.1072c1.579 1.3697 3.896 3.477 6.95 5.6896 1.58 1.0536 3.371 2.2126 5.372 3.1609 2.001 1.0536 4.317 1.7911 6.845 2.318 2.528.5268 5.266.7375 7.899.4214 2.738-.3161 5.371-.9483 7.898-2.0019 5.055-2.1072 9.479-5.2681 13.059-8.429 1.896-1.5804 3.476-3.2662 5.055-4.8467 1.475-1.6858 2.949-3.1608 4.108-4.6359 1.263-1.4751 2.317-2.8448 3.264-4.1092.948-1.2643 1.791-2.3179 2.423-3.2662 1.474-1.6858 2.211-2.7394 2.211-2.8448z" fill="url(#d)"></path><path d="m336.113 207.431-2.423-1.264v-1.475l2.423.421z" fill="#4591ff"></path><path d="m333.796 194.471c-.211 5.268-1.159 7.06-1.159 7.06.106.316 6.846 2.423 6.109-1.054-.211-.843-1.264-1.264-.948-6.111.21-4.004-4.002-.527-4.002.105z" fill="#ffe5d4"></path><path d="m338.64 200.161v.211c-.105.316-.316.632-.737.843-1.158.737-3.054.842-4.318.21-.421-.21-.526-.316-.737-.632 0 0-1.264 3.477-5.371 7.375-1.159 1.054-.527 2.002-.316 2.213.527.422 1.369.738 2.528.738 2.106 0 4.107-2.213 4.107-2.213.421-.527 1.895-2.739 2.211-3.688v2.318l3.265-2.107-.105-1.37c.316-.632.737-2.739-.527-3.898z" fill="#6869da"></path><path d="m310.837 199.845-2.422-1.159v-1.581l2.422.422z" fill="#4591ff"></path><path d="m308.52 186.885c-.21 5.268-1.158 7.06-1.158 7.06.105.316 6.845 2.423 6.108-1.054-.211-.843-1.264-1.264-.948-6.006.211-4.109-4.002-.632-4.002 0z" fill="#ffe5d4"></path><path d="m313.365 192.68v.211c-.106.316-.316.632-.738.843-1.158.737-3.054.843-4.317.211-.422-.211-.527-.316-.738-.633 0 0-1.263 3.477-5.371 7.376-1.158 1.053-.526 2.002-.316 2.212.527.422 1.369.738 2.528.738 2.106 0 4.107-2.213 4.107-2.213.421-.526 1.896-2.739 2.212-3.687v2.318l3.265-2.108-.106-1.369c.316-.632.737-2.845-.526-3.899z" fill="#6869da"></path><path d="m312.312 91.8482-3.265-.2107c-2.633-.1053-4.95 2.5287-5.055 5.9003 0 0 .105 5.7952.316 14.4342.21 8.64.526 20.23.947 31.82.422 11.59.948 23.18 1.58 31.819.106 1.054.106 2.108.211 3.161.105.949.21 1.897.21 2.845.211 1.791.316 3.266.422 4.636.316 2.529.526 4.004.526 4.004l4.529-.738s0-1.369-.105-3.898c-.106-1.159 0-2.74 0-4.425 0-.843 0-1.792 0-2.74s-.001-2.002.105-3.055c.105-8.535.632-20.019 1.264-31.504.631-11.484 1.369-22.863 2.001-31.503.631-8.534 1.053-14.3294 1.053-14.3294 0-3.1608-2.001-6.0056-4.739-6.2164z" fill="#4e2ae7"></path><path d="m332.743 93.2179h-3.265c-2.633 0-4.845 3.0555-4.739 6.6379 0 0 .316 6.1112.947 15.3832.527 9.272 1.37 21.494 2.317 33.821.948 12.327 2.001 24.55 3.054 33.821.106 1.159.211 2.213.422 3.267.105 1.053.316 2.002.421 2.95.211 1.896.421 3.477.632 4.847.421 2.739.737 4.214.737 4.214l4.529-.948s-.106-1.475-.316-4.109c-.106-1.265-.211-2.951-.211-4.742 0-.948-.105-1.896-.105-2.95 0-1.053-.106-2.107-.106-3.266-.21-9.167-.316-21.389-.21-33.611.105-12.222.316-24.549.526-33.716.106-9.061.316-15.2773.316-15.2773-.105-3.5824-2.317-6.4271-4.949-6.3218z" fill="#4e2ae7"></path><path d="m304.834 92.4804c0 2.4234 1.58 4.4252 3.476 4.4252 1.895 0 3.475-2.0018 3.475-4.4252v-35.8232c0-2.4234-1.58-4.4253-3.475-4.4253-1.896 0-3.476 2.0019-3.476 4.4253z" fill="#354998"></path><path d="m323.475 114.29c-14.534-.21-21.59-13.381-18.325-23.4954 4.318-13.381 32.332-4.4252 32.753 7.9022 0 1.159-.737 15.8042-14.428 15.5932z" fill="#4e2ae7"></path><path d="m330.426 50.3354c6.635 4.1091 8.214 12.6435 8.214 25.287 0 4.7413-.948 11.6952-3.159 16.2258 0 0-4.739 5.2682-8.741 6.0057-6.951 1.159-20.115 1.0536-20.537-9.3773-.421-13.2757-1.053-20.5457-3.475-38.4573-1.264-9.3773 7.583-12.1167 10.742-10.0094 4.634 2.8447 12.427 7.4807 16.956 10.3255z" fill="#fff"></path><path d="m311.785 39.167c.842 1.3697 4.318 2.3179 6.845-.5268 2.633-3.0556 3.792-3.8985 5.898-10.0095 1.053-2.8448-.948-5.4788-8.32-6.3217-6.424-.7376-9.057 9.2719-4.423 16.858z" fill="#ffe5d4"></path><path d="m315.576 44.8565c0 1.5805 1.264 2.6341 2.949 2.6341 1.58 0 2.949-.9483 2.949-2.6341l.211-16.4365c0-1.5805-1.264-2.8448-2.949-2.8448-1.58 0-2.949 1.2643-2.949 2.8448z" fill="#ffe5d4"></path><path d="m316.524 48.8603c-.948.6322-1.474.8429-2.422 1.4751.737 1.159 1.053 1.7911 1.685 3.0555-1.369 12.1167-3.475 23.1797-6.53 34.875.422 2.2126.632 3.3716 1.054 5.5842 1.158-.6322 1.79-.9483 2.948-1.5805 2.844-12.4327 4.108-25.287 3.897-38.0358.737-.4215 1.053-.6322 1.79-.9483-.947-1.7911-1.474-2.634-2.422-4.4252z" fill="url(#e)"></path><path d="m349.066 130.411c0 .211-.21.527-.421.527h-.21c-.211 0-.527-.211-.527-.422l-.316-3.582h-.211l.316 4.214c0 .211-.21.527-.421.527h-.211c-.21 0-.526-.21-.526-.421l-.316-4.215h-.211l.422 4.531c0 .211-.211.527-.422.527h-.21c-.211 0-.527-.211-.527-.422l-.421-4.53h-.316l.316 4.003c0 .211-.211.527-.421.527h-.211c-.211 0-.527-.21-.527-.421l-.316-4.004s-.316-2.634-.421-2.845c0 0-1.685.422-3.159.738-1.159.211-1.053-.843-1.053-.843 1.053-.316 2.843 0 4.528-2.529.737-1.053 1.159-2.529 2.317-5.268.105-.316 1.896.632 1.896.632s-1.685 2.845-.527 4.636c.843 1.265 1.264 3.583 1.264 3.583z" fill="#ffe5d4"></path><path d="m324.107 92.6912s4.634-42.2504-3.792-48.9936c1.896 1.159 5.056 2.2126 10.637 5.3735 7.056 4.1092 8.741 12.6435 8.741 25.287 0 4.7413-1.053 24.3388-1.053 30.9769 0 6.638-13.796 6.954-14.954 6.954 0-1.37.421-18.2281.421-19.5978z" fill="url(#g)"></path><path d="m301.569 101.752c-.21-12.1164.211-35.7176.737-53.1024.316-9.4826 7.583-11.4845 12.006-8.8504.738.4214 1.475.9482 2.317 1.475-10.321.6322-10.952 51.5223-9.267 65.7458 0 0-5.793-1.264-5.793-5.268z" fill="url(#h)"></path><path d="m334.638 51.2837c-.948-.5268-1.895-.9483-2.843-1.159s-1.896-.2107-2.738 0c-1.685.4215-3.055 1.4751-3.686 2.9502-.632 1.5804-.632 3.2662-.106 4.6359.211.7376.632 1.4751 1.053 2.0019.422.6322.948 1.159 1.685 1.5804 0 0 .211.1054.527.3161.316.2108.948.5269 1.58.9483 1.369.8429 3.264 2.318 5.265 4.3199s4.108 4.6359 6.003 7.7968c1.791 3.1609 3.476 6.8486 4.529 10.747 2.212 7.7968 2.212 16.2258 1.158 22.3368-.526 3.056-1.158 5.69-1.685 7.375-.526 1.792-.842 2.74-.842 2.74l2.843 1.264s.422-1.053 1.264-2.739c.737-1.791 1.791-4.32 2.844-7.586.948-3.267 1.79-7.06 2.211-11.3795.422-4.2145.422-8.8505-.316-13.4864-.632-4.636-1.895-9.1665-3.686-13.2757-1.79-4.1091-4.002-7.7968-6.213-10.747-2.212-2.9501-4.423-5.1627-6.109-6.5324-.842-.7376-1.474-1.2644-2.001-1.6858-.421-.2108-.631-.4215-.737-.4215z" fill="url(#i)"></path><path d="m324.949 19.8856c-3.37-3.6876-8.109-2.2126-10.742-1.2643-2.527.8429-6.845 3.6877-7.688 5.4788-.842 1.6858 4.107 7.0593 12.217 2.318 3.686-2.1072 3.159.1054 2.843 1.3697-.21.7376-.737 2.4234-1.158 3.477 0 0-2.001 4.952-5.161 5.4789-4.423.7375-4.844-.8429-5.055-1.0537-.105-.1053-.421 1.7912.527 3.477.737 1.3697 2.106 1.5804 4.107 1.6858s4.739-1.5804 5.582-3.477c.737-1.6858.526-3.0555 1.579-7.1646.316-1.7912 1.369-3.477 2.317-2.7395.422.3161-.21 2.5288-.842 4.1092-.421.9483 1.685-2.1073 2.106-3.1609-.211.2107 2.738-4.8467-.632-8.5344z" fill="#e86969"></path><path d="m403.619 143.581c-1.158.737-1.158 1.791 0 2.528l38.124 22.232c1.159.737 3.055.632 4.318 0l59.714-34.454c1.158-.737 1.158-1.791 0-2.528l-38.124-22.232c-1.159-.737-3.054-.737-4.318 0z" fill="#fff"></path><path d="m402.777 145.161c0 .106.105.211.105.316.105.106.106.211.211.316.105.106.105.106.21.106.106 0 .106.105.211.105l38.124 22.232c.105.105.316.105.421.21h.106c.105 0 .21.106.316.106.105 0 .21.105.316.105.105 0 .21 0 .421.105h.105.527.105.527.105c.211 0 .316 0 .526-.105h.106c.105 0 .316-.105.421-.105h.105c.211-.106.316-.106.422-.211l59.713-34.454c.632-.316.948-.842.948-1.264v2.213c0 .421-.316.948-.842 1.264l-59.714 34.454c-.105.105-.316.105-.421.21 0 0 0 0-.106 0-.105 0-.21.106-.316.106h-.105-.105-.106c-.105 0-.21 0-.315.105h-.106s0 0-.105 0h-.105c-.106 0-.211 0-.316 0h-.106s0 0-.105 0h-.105c-.106 0-.211 0-.316 0h-.106c-.105 0-.21 0-.21 0h-.105c-.106 0-.211 0-.316-.105 0 0-.106 0-.211 0h-.105-.106c-.105-.106-.316-.106-.421-.211l-38.124-22.232c-.105 0-.105-.105-.105-.105-.106-.105-.106-.105-.211-.211-.105-.105-.105-.105-.211-.21 0 0 0 0 0-.106 0 0 0-.105-.105-.105 0-.105-.105-.105-.105-.211v-.105-.105.105c0-.105 0-.105 0-.211 0-.737 0-1.475 0-2.212-.316 0-.316.105-.316.21z" fill="url(#j)"></path><path d="m445.956 147.058 23.801-13.803c.211-.105.527-.105.737 0l14.745 8.64c.21.105.21.316 0 .421l-23.802 13.803c-.21.105-.526.105-.737 0l-14.744-8.64c-.211-.105-.211-.21 0-.421z" fill="url(#k)"></path><path d="m417.521 140.315h.105l2.738 1.58v.105l-5.371 3.161h-.105l-2.738-1.58v-.106zm5.582.948 2.738 1.686h.105l2.738-1.581v-.105l-2.738-1.581h-.105zm10.952 6.322 2.739 1.685h.105l2.738-1.58v-.105l-2.738-1.581h-.105zm40.757-23.602 2.738 1.686h.106l2.738-1.58v-.106l-2.738-1.58h-.106zm-3.686 2.108 2.738 1.685h.106l2.738-1.58v-.105l-2.738-1.581h-.106zm-3.686 2.212 2.738 1.686h.106l2.738-1.58v-.106l-2.738-1.58h-.106zm-29.488 4.425 2.738 1.686h.106l2.738-1.58v-.106l-2.738-1.58h-.106zm17.588-14.434 2.738 1.686h.105l2.738-1.581v-.105l-2.738-1.581h-.105zm4.739 1.475 2.738 1.686h.105l2.739-1.581v-.105l-2.739-1.581h-.105zm-8.425.737 2.738 1.686h.105l2.738-1.58v-.106l-2.738-1.58h-.105zm13.901.316 2.738 1.686h.106l4.634-2.634v-.105l-2.739-1.581h-.105zm-9.268 1.159 2.739 1.686h.105l2.738-1.58v-.106l-2.738-1.58h-.105zm5.477 1.054 2.738 1.686h.105l2.739-1.581v-.105l-2.739-1.58h-.105zm5.476.948 2.738 1.686h.106l6.424-3.688v-.105l-2.738-1.58h-.106zm-14.639.106 2.739 1.685h.105l2.738-1.58v-.105l-2.738-1.581h-.105zm5.477 1.053 2.738 1.686h.105l2.738-1.58v-.106l-2.738-1.58h-.105zm5.476 1.054 2.738 1.686h.106l2.738-1.581v-.105l-2.738-1.58h-.106zm-14.639.105 2.739 1.686h.105l2.738-1.58v-.106l-2.738-1.58h-.105zm5.477.949 2.738 1.685h.105l2.738-1.58v-.105l-2.738-1.581h-.105zm5.371 1.053 2.738 1.686h.105l2.739-1.58v-.106l-2.739-1.58h-.105zm-14.639.106 2.738 1.685h.106l2.738-1.58v-.105l-2.738-1.581h-.106zm5.476 1.053 2.739 1.686h.105l2.738-1.58v-.106l-2.738-1.58h-.105zm5.477.948 2.738 1.686h.105l2.739-1.58v-.106l-2.739-1.58h-.105zm7.372 0 2.738 1.686h.105l2.739-1.58v-.106l-2.739-1.58h-.105zm-22.011.106 2.738 1.686h.106l2.738-1.581v-.105l-2.738-1.581h-.106zm5.476 1.053 2.739 1.686h.105l2.738-1.58v-.106l-2.738-1.58h-.105zm5.477 1.054 2.738 1.686h.105l2.738-1.581v-.105l-2.738-1.58h-.105zm-9.163 1.054 2.739 1.685h.105l2.738-1.58v-.105l-2.738-1.581h-.105zm5.477 1.053 2.738 1.686h.105l2.738-1.58v-.106l-2.738-1.58h-.105zm-3.792 2.213 2.739 1.686h.105l2.738-1.581v-.105l-2.738-1.581h-.105zm0 4.214 2.739 1.686h.105l17.588-10.22v-.105l-2.739-1.581h-.105zm-3.686 2.108 2.739 1.685h.105l2.738-1.58v-.105l-2.738-1.581h-.105zm-3.686 2.107 2.739 1.686h.105l2.738-1.581v-.105l-2.738-1.581h-.105zm-18.43 2.213 2.738 1.685h.106l4.634-2.634v-.105l-2.739-1.581h-.105zm10.953 2.107 2.738 1.686h.106l2.738-1.581v-.105l-2.738-1.581h-.106zm-3.686 2.212 2.738 1.686h.106l2.738-1.58v-.106l-2.738-1.58h-.106zm-3.686-2.212 2.738 1.686h.106l6.424-3.688v-.105l-2.738-1.581h-.106zm2.001-5.268 2.738 1.685h.105l2.739-1.58v-.105l-2.739-1.581h-.105zm5.476 1.053 2.739 1.686h.105l2.738-1.58v-.106l-2.738-1.58h-.105zm-1.79-3.266 2.738 1.686h.106l2.738-1.581v-.105l-2.738-1.58h-.106zm5.476 1.054 2.739 1.685h.105l2.738-1.58v-.105l-2.738-1.581h-.105zm.106-8.429 2.738 1.685h.105l2.738-1.58v-.105l-2.738-1.581h-.105zm5.476 1.053 2.738 1.686h.106l2.738-1.58v-.106l-2.738-1.58h-.106zm-9.057 1.054 2.738 1.686h.105l2.739-1.581v-.105l-2.739-1.581h-.105zm5.371 1.054 2.738 1.685h.106l2.738-1.58v-.105l-2.738-1.581h-.106zm5.476 1.053 2.739 1.686h.105l2.738-1.58v-.106l-2.738-1.58h-.105zm-9.057 1.054 2.739 1.686h.105l2.738-1.581v-.105l-2.738-1.581h-.105zm5.371 1.053 2.739 1.686h.105l2.738-1.58v-.106l-2.738-1.58h-.105zm-10.847-2.107 2.738 1.686h.105l2.739-1.58v-.106l-2.739-1.58h-.105zm-4.739-1.475 2.738 1.686h.105l2.738-1.581v-.105l-2.738-1.58h-.105zm-3.686 2.213 2.738 1.686h.105l2.738-1.581v-.105l-2.738-1.581h-.105zm7.477-4.32 2.738 1.686h.106l2.738-1.581v-.105l-2.738-1.581h-.106zm3.581-2.107 2.738 1.685h.105l2.739-1.58v-.105l-2.739-1.581h-.105zm3.686-2.108 2.738 1.686h.105l2.739-1.58v-.106l-2.739-1.58h-.105zm14.955-8.639 2.738 1.685h.105l2.738-1.58v-.105l-2.738-1.581h-.105zm-3.792 2.212 2.738 1.686h.106l2.738-1.58v-.106l-2.738-1.58h-.106zm-3.686 2.107 2.738 1.686h.106l2.738-1.58v-.106l-2.738-1.58h-.106zm-3.686 2.108 2.738 1.686h.106l2.738-1.581v-.105l-2.738-1.581h-.106zm-17.587 14.329 2.738 1.686h.105l2.738-1.581v-.105l-2.738-1.58h-.105zm-3.686 2.213 2.738 1.685h.105l2.738-1.58v-.105l-2.738-1.581h-.105zm43.6-29.397 2.738 1.686h.105l3.792-2.212v-.106l-2.738-1.58h-.106zm4.634 1.476 2.738 1.685h.105l2.739-1.58v-.105l-2.739-1.581h-.105z" fill="url(#l)"></path><path d="m403.514 94.6925c-1.158.6322-2.106 2.318-2.106 3.6877l.105 44.1468c0 1.37.948 1.897 2.106 1.264l59.714-34.453c1.158-.632 2.106-2.318 2.106-3.688l-.105-44.1467c0-1.3697-.948-1.8965-2.106-1.2643z" fill="url(#m)"></path><path d="m401.618 93.5336 59.714-34.4536c.632-.3161 1.158-.4214 1.58-.1053.632.3161 1.263.7375 1.895 1.0536-.421-.2107-.947-.2107-1.579.1054l-59.714 34.4535c-1.158.6322-2.106 2.318-2.106 3.6877l.105 44.1471c0 .632.211 1.159.632 1.37-.632-.317-1.264-.738-1.896-1.054-.421-.211-.632-.738-.632-1.37l-.105-44.1467c0-1.2644.948-2.9502 2.106-3.6877z" fill="url(#n)"></path><path d="m403.619 97.3266.211 42.4614 59.819-34.454-.105-42.461z" fill="#fff"></path><path d="m432.054 142.738c-.21 0-.316-.211-.316-.421v-.106c0-.211.211-.316.422-.316l2.738.422v-.211l-3.265-.527c-.21 0-.316-.211-.316-.421v-.106c0-.211.211-.316.421-.316l3.265.527v-.211l-3.475-.527c-.211 0-.316-.21-.316-.421v-.105c0-.211.211-.316.421-.316l3.476.526v-.21l-3.055-.527c-.21 0-.316-.211-.316-.422v-.105c0-.211.211-.316.422-.316l3.054.527s.737.105 1.474.21h.738l-2.001-1.475c-.211-.105-.211-.316-.106-.526 0 0 .211-.527.632-.211.105.105 2.001 1.37 2.422 1.686.527.421.843.948 1.054 1.264.631.737 1.895.527 3.58 2.739.211.211-1.053 1.054-1.053 1.054s-1.685-2.423-3.159-1.054c-.843.843-2.949.422-2.949.422z" fill="#ffe5d4"></path><path d="m445.429 130.937c-.21 0-.315.211-.315.422v.105c0 .211.21.316.421.316l.316-.105v.211l-.843.21c-.21 0-.316.211-.316.422v.105c0 .211.211.316.422.316l.842-.21v.21l-1.053.211c-.211 0-.316.211-.316.421v.106c0 .211.211.316.421.316l1.053-.211v.211l-3.054.632c-.21 0-.316.211-.316.422v.105c0 .211.211.316.422.316l3.054-.738s.737-.21 1.474-.316c.316-.105.527-.105.843 0l-2.001 1.581c-.211.105-.211.316-.106.527 0 0 .316.421.632.105l2.317-1.897c.421-.421.948-1.159 1.159-1.475.842-1.58 3.264-1.685 3.264-1.685l-.21-1.686s-2.633.737-3.37.421c-.948-.421-1.791-.316-2.423-.21-1.263.421-2.317.842-2.317.842z" fill="#ffe5d4"></path><path d="m483.132 216.07c.106 0 .106 0 0 0l1.896 5.584c-.105.211-.316.527-.737.738-1.053.527-2.633.527-3.686 0-.843-.421-.632-.738-.738-1.054 0 0 1.475-.737 0-4.214-1.263-3.372 3.371-1.475 3.265-1.054z" fill="#ffe5d4"></path><path d="m476.919 222.181c1.158.632 2.422 0 3.159-1.053 0 0 0 .632.632 1.053 1.053.527 2.633.527 3.581 0 .316-.21.526-.421.632-.632v-.105c1.474 2.107.21 3.371.105 3.477v2.739s-.105.948-1.896.738c-.632-.106-.948-.527-.948-.527v-2.634c-1.158 0-3.159 1.264-3.896 1.053-1.896-.632-2.317-1.264-3.054-1.791-1.159-1.159.526-2.95 1.685-2.318z" fill="#e95a0c"></path><path d="m519.993 176.454c4.212 3.056 5.055 8.534 2.211 12.011-2.843 3.477-8.214 3.899-12.006 1.054 0 0-1.053-.948-2.949-2.423-1.895-1.475-4.528-3.583-7.793-5.901-1.685-1.159-3.475-2.318-5.371-3.371-1.896-1.054-4.002-2.108-6.003-2.845-2.001-.738-4.002-1.054-5.371-1.054-.632 0-1.053.211-1.58.422-.421.21-.948.737-1.369 1.369-.948 1.476-1.474 3.794-1.685 6.217-.21 2.423-.21 4.952 0 7.481.316 5.057 1.264 9.798 2.212 13.907.948 4.11 1.895 7.481 2.527 9.799.316 1.159.632 2.107.843 2.74.21.632.316.948.316.948l-4.002 1.475s-.105-.316-.421-.948-.632-1.475-1.159-2.634c-.948-2.318-2.422-5.585-3.897-9.694-1.474-4.109-3.159-8.956-4.317-14.434-.632-2.74-1.054-5.69-1.159-8.851-.105-1.58 0-3.266.211-4.952.21-1.686.632-3.477 1.369-5.373.737-1.897 1.895-3.793 3.686-5.374 1.685-1.58 3.896-2.739 6.003-3.266 2.106-.632 4.107-.738 6.003-.632 1.895.105 3.58.316 5.16.632 3.16.632 6.003 1.686 8.531 2.634 2.527 1.054 4.844 2.107 6.95 3.161 4.108 2.107 7.372 4.004 9.689 5.373 1.159.738 2.001 1.265 2.633 1.686.422.527.738.738.738.843z" fill="#4e2ae7"></path><path d="m502.51 210.907v1.476l-23.38-13.487c-2.843-1.686-5.266-.316-5.266 2.95l-.21 26.657c0 3.266 2.317 7.27 5.16 8.956l23.38 13.381-1.264.737-22.116-12.643c-3.58-2.107-6.424-7.059-6.424-11.063l.211-26.657c0-4.109 2.948-5.689 6.529-3.688z" fill="#244d91"></path><path d="m502.51 210.907v1.476l-23.38-13.487c-2.843-1.686-5.266-.316-5.266 2.95l-.21 26.657c0 3.266 2.317 7.27 5.16 8.956l23.38 13.381-1.264.737-22.116-12.643c-3.58-2.107-6.424-7.059-6.424-11.063l.211-26.657c0-4.109 2.948-5.689 6.529-3.688z" fill="#244d91"></path><path d="m533.157 233.244s-.106-.105 0 0l-23.38-13.486c-2.844-1.686-5.161-5.69-5.161-8.956l.211-26.657c0-3.266 2.422-4.636 5.266-2.95l23.38 13.487v-1.475l-23.38-13.487c-3.581-2.107-6.53-.421-6.53 3.688l-.21 26.657c0 4.109 2.843 9.061 6.424 11.063l22.116 12.749c2.843 1.685 2.843 4.319-.105 6.005l-19.273 10.853c-2.843 1.685-7.583 1.58-10.426 0l-1.264.737c3.581 2.002 9.373 2.107 12.954 0l19.272-10.852c3.476-2.002 3.581-5.374.106-7.376z" fill="#244d91"></path><path d="m468.599 224.605 1.895 5.584c-.105.211-.316.527-.737.737-1.053.527-2.633.527-3.686 0-.842-.421-.632-.737-.737-1.053 0 0 1.369-.738 0-4.215-1.264-3.371 3.37-1.475 3.265-1.053z" fill="#ffe5d4"></path><path d="m462.28 230.716c1.158.632 2.422 0 3.159-1.054 0 0 0 .632.632 1.054 1.053.527 2.633.527 3.581 0 .316-.211.527-.422.632-.632v-.106c1.474 2.107.21 3.372.21 3.477v2.74s-.105.948-1.895.737c-.632-.105-.948-.527-.948-.527v-2.634c-1.159 0-3.159 1.265-3.897 1.054-1.895-.632-2.317-1.264-3.054-1.791-1.158-1.159.421-2.845 1.58-2.318z" fill="#e95a0c"></path><path d="m487.661 178.772c1.158 2.634 3.159 4.952 5.581 6.532.527.738 1.159 1.476 1.896 2.108 1.053.737 2.212 1.475 3.265 2.212 3.475 1.686 7.582 2.002 11.269.949 3.791-1.159 7.056-3.899 8.846-7.481 1.158-2.318 1.685-4.741 1.58-7.376-.106-.421-.106-.842-.211-1.159 1.053.527 2.106 1.054 3.16 1.686 4.001 2.318 8.003 5.058 11.374 8.429l-34.333 19.598c-3.37-3.266-7.477-6.111-11.374-8.429-7.899-4.531-14.85-6.849-15.271-6.954-1.158-.632-2.211-.738-2.949-.316z" fill="#e8e9ea"></path><path d="m473.443 188.781c.316.106 7.372 2.424 15.271 6.954 3.791 2.213 7.688 4.847 10.953 7.903l9.478 9.798v.422c0 2.634-1.896 3.582-4.107 2.318l-31.49-18.123c-2.316-1.264-4.107-4.425-4.107-7.059-.105-2.423 1.685-3.477 4.002-2.213z" fill="url(#p)"></path><path d="m513.358 134.204c1.053.737 1.579 1.896 1.79 3.055s-.105 2.423-.843 3.477c-.737 1.054-1.79 1.791-2.843 2.107s-2.212.316-3.16-.21c-.21-.106-.315-.106-.421-.211 0 0-.737-.527-2.001-1.265-1.264-.737-3.159-1.896-5.476-3.055-1.159-.632-2.528-1.054-3.897-1.686-.632-.316-1.474-.527-2.211-.843-.738-.21-1.475-.527-2.317-.737-1.58-.422-3.265-.949-4.95-1.37s-3.476-.738-5.161-1.054c-7.056-1.053-14.322-1.053-19.799-.632-2.738.316-4.95.527-6.529.843-1.58.211-2.528.422-2.528.422l-.737-3.477s.948-.211 2.527-.633c1.58-.421 3.897-.948 6.741-1.58 5.581-1.159 13.269-2.002 21.063-1.686 1.895.106 3.896.211 5.792.527 1.896.211 3.791.527 5.582.843.947.105 1.79.421 2.633.632.842.211 1.685.422 2.527.632 1.58.527 3.16.949 4.529 1.475 2.843.949 5.055 2.002 6.634 2.74 1.58.843 2.423 1.264 2.423 1.264.21.211.421.316.632.422z" fill="url(#q)"></path><path d="m505.248 183.935c4.213 3.055 5.055 8.639 2.212 12.116-2.844 3.583-8.215 3.899-12.006 1.159 0 0-1.053-.948-2.949-2.423-1.895-1.475-4.528-3.688-7.793-5.9-1.685-1.159-3.475-2.318-5.371-3.372-1.896-1.053-3.897-2.107-6.003-2.845-2.001-.737-4.002-1.159-5.371-1.053-.632.105-1.159.211-1.58.421-.421.211-.948.738-1.369 1.37-.948 1.475-1.474 3.793-1.685 6.216-.211 2.424-.211 5.058 0 7.586.316 5.058 1.264 9.905 2.212 14.119.947 4.109 1.895 7.586 2.527 10.009.316 1.159.632 2.108.843 2.74.21.632.316.948.316.948l-4.002 1.475s-.106-.316-.422-.948-.737-1.58-1.158-2.739c-1.053-2.318-2.422-5.69-3.897-9.799-1.474-4.109-3.159-9.061-4.318-14.646-.526-2.739-1.053-5.795-1.158-8.955-.105-1.581 0-3.267.211-4.952.21-1.686.631-3.583 1.369-5.479.737-1.897 2.001-3.793 3.686-5.479 1.685-1.581 3.896-2.74 6.003-3.372 2.106-.632 4.107-.737 6.003-.632 1.895.105 3.58.316 5.16.632 3.265.632 6.003 1.686 8.531 2.634 2.527 1.054 4.844 2.108 6.95 3.161 4.108 2.107 7.372 4.109 9.689 5.479 1.159.738 2.001 1.264 2.633 1.686.316.632.632.843.737.843z" fill="#4e2ae7"></path><path d="m493.558 140.104c-11.163 8.534 4.424 22.231 0 43.936-2.843 11.274 33.807 6.427 34.544-10.852.842-17.49-5.477-27.711-7.899-31.925-4.318-7.27-10.847-10.22-14.533-8.429-5.582 2.634-7.372 3.688-12.112 7.27z" fill="url(#r)"></path><path d="m543.688 150.113c-.632-.421-1.263-.526-1.79-.21l-34.333 19.597c.527-.316 1.159-.211 1.791.211 1.579.948 3.264 3.477 2.843 5.689-3.37 18.333-2.949 29.186-3.054 38.563 0 1.264-.421 2.213-1.264 2.634l34.333-19.597c.737-.422 1.158-1.37 1.264-2.634.105-9.378-.422-20.23 3.054-38.563.316-2.107-1.264-4.741-2.844-5.69z" fill="#e8e9ea"></path><path d="m499.983 204.059.105.105c.842-5.795 2.317-16.331 6.424-33.084.421-1.791 1.58-2.001 2.738-1.369 1.58.948 3.265 3.477 2.844 5.689-3.37 18.333-2.949 29.186-3.054 38.563 0 2.634-1.896 3.582-4.108 2.318l-5.265-3.056c0-2.739.105-5.794.316-9.166z" fill="url(#s)"></path><path d="m498.192 137.891c0 1.686 1.369 2.74 3.16 2.74 1.79 0 3.159-1.054 3.159-2.74l.106-17.701c0-1.685-1.369-3.055-3.16-3.055-1.79 0-3.159 1.37-3.159 3.055z" fill="#ffe5d4"></path><path d="m492.821 128.725c1.159 2.634 5.371 1.791 7.267.948 3.054-1.264 6.003-3.793 6.424-10.642.211-3.266-.948-7.375-8.846-6.743-7.583.527-7.267 10.642-4.845 16.437z" fill="#ffe5d4"></path><path d="m495.243 116.924s-4.423.738-4.739-4.32c-.316-5.057 7.899-10.431 16.535-3.371 9.794 3.371.526 18.227-2.949 18.649-4.845.527-7.899-7.376-8.847-10.958z" fill="url(#u)"></path><path d="m492.084 141.579c2.001-1.054 4.634-.211 6.108 1.896 1.475 2.108 1.159 4.953-.632 6.428-.105.105-.316.21-.421.316 0 0-.842.421-2.317 1.264-1.474.738-3.581 1.897-6.213 3.161-2.633 1.264-5.898 2.634-9.689 3.582-1.896.422-3.897.738-6.003.843-2.107.106-4.213-.105-6.319-.527-4.108-.843-7.794-2.528-10.953-4.32-3.159-1.791-5.898-3.687-8.109-5.268-2.317-1.58-4.108-3.055-5.371-4.003-1.264-.949-2.001-1.581-2.001-1.581l2.106-2.845s.737.527 2.106 1.37 3.265 2.002 5.687 3.372c2.317 1.369 5.161 2.844 8.11 4.109 3.054 1.264 6.318 2.318 9.478 2.634 3.159.316 6.213-.316 9.057-1.264 2.843-1.054 5.371-2.424 7.583-3.794 2.211-1.369 4.002-2.634 5.265-3.477 1.264-.948 2.001-1.369 2.001-1.369.211-.316.316-.422.527-.527z" fill="url(#v)"></path><path d="m508.934 115.344c4.421 0 8.004-3.585 8.004-8.008 0-4.422-3.583-8.0074-8.004-8.0074-4.42 0-8.004 3.5854-8.004 8.0074 0 4.423 3.584 8.008 8.004 8.008z" fill="url(#w)"></path><path d="m449.01 98.275c0 .1049-.105.1049-.105.2099 0-.105 0-.105.105-.2099z" fill="#ff76a7"></path><path d="m448.589 99.0125c0 .1053-.105.1053-.105.2107.105-.1054.105-.1054.105-.2107 0 .1053-.105.1053-.105.2107l2.948 1.1588c0-.105 0-.105.106-.211 0-.105.105-.105.105-.2102 0-.1054 0-.1054 0-.1054s0 0 0-.1054c0 0 0-.1053.105-.1053.106-.2108.106-.3161.211-.4215 2.528-5.6896 3.159-11.4845 1.685-15.3829-.105-.2108-.211-.4215-.211-.6322v.1054-.1054c-.105-.2107-.21-.5268-.421-.7375-.105-.2108-.211-.4215-.421-.6322-.105-.2107-.211-.3161-.421-.5268l-.106-.1054s0-.1054-.105-.1054l-.105-.1053-3.054 4.4252c.21.2107.315.4215.421.6322.21.3161.421.6322.526.9482.106.3161.211.5269.316.843.106.316.211.6321.211.9482 0 .1054 0 .3161.105.4215 0 .2107.106.4214.106.6321v.4215-.1054.3161.5268.4215.1053.1054.3161c0 .3161 0 .5268-.106.8429 0-.1054 0-.2107 0-.3161 0 .2107 0 .3161-.105.5268 0 .3161-.105.6322-.211.9483 0-.1054 0-.1054 0-.2107 0 .2107-.105.316-.105.5268v-.1054c-.105.3161-.105.5268-.211.8429 0 .1054 0 .2107-.105.3161-.105.2107-.105.4214-.211.7375-.21.7376-.526 1.4751-.842 2.2127v.1053.1054c0 .1053-.105.1053-.105.2107v.1054s0 .1053-.106.1053c0 0 0-.1053.106-.1053 0 0 0 .1053-.106.1053v.1054s0 .1053-.105.1053c.421-.2107.421-.2107.316-.1053.105 0 .105 0 0 0zm1.474-3.6877c0 .1054-.105.3161-.105.4214 0-.1053 0-.2107.105-.4214z" fill="#4958e3"></path><path d="m447.22 101.646s0 .106-.106.106c0 0 0 .105-.105.105v.106.105s0 .105-.105.105c0-.21.105-.421.316-.527z" fill="#ff76a7"></path><g fill="#5cfff7"><path d="m450.485 88.8976c0-.2107-.106-.5268-.211-.7376.105.2108.211.4215.211.7376z"></path><path d="m450.274 87.9494v.2108c-.105-.3161-.211-.6322-.316-.8429.105.1053.211.316.316.6321z"></path><path d="m450.59 89.2138c0-.1054 0-.2107-.105-.3161 0 .1054 0 .2107.105.3161z"></path><path d="m450.59 89.2137c0 .3161.105.6322.105 1.0536-.105-.4214-.105-.7375-.105-1.0536z"></path><path d="m448.378 99.5393c-.105.1053-.105.2107-.105.2107.105-.2107.211-.4215.316-.6322 0 0 0 .1054-.105.1054 0 .2107-.106.2107-.106.3161z"></path><path d="m448.588 105.018c-.105.105-.105.21-.21.21.105 0 .21-.105.21-.21z"></path><path d="m448.484 105.334c-.316.316-.527.738-.843 1.054.211-.316.527-.738.843-1.054z"></path><path d="m447.431 106.599c-.316.316-.632.737-.948 1.053.316-.316.632-.737.948-1.053z"></path><path d="m448.589 105.018c.316-.421.632-.948.948-1.37-.211.422-.527.949-.948 1.37z"></path><path d="m447.64 106.388c-.105.105-.105.105-.21.21.105-.105.105-.105.21-.21z"></path><path d="m449.642 86.4743c.105.1053.105.316.211.4214v.1054s0 .1053.105.1053c0-.1053-.105-.2107-.105-.3161 0 0-.106-.2107-.211-.316-.105-.1054-.211-.3161-.316-.4215.105.1054.211.2107.316.4215z"></path></g><path d="m441.743 107.231c-.105.105-.21.105-.316.21-.421.316-.947.527-1.369.738.422-.211.948-.422 1.369-.738.106-.105.211-.21.316-.21z" fill="#ff76a7"></path><path d="m435.425 108.284c.105.106.105.106 0 0l-2.317 4.952h-.106-.105c-2.633-1.159-4.213-4.214-4.423-8.323l3.791-2.424c.105 2.845 1.264 5.058 3.16 5.795z" fill="#dd0561"></path><path d="m423.208 104.702-7.583 4.531v-3.372l7.583-4.531z" fill="#dd0561"></path><path d="m423.208 113.236-7.583 4.636v-3.371l7.583-4.636z" fill="#4958e3"></path><path d="m444.587 109.654c-.948.843-2.001 1.686-3.054 2.318-1.369.843-2.738 1.37-4.107 1.686 1.369-.316 2.738-.843 4.107-1.686 1.053-.632 2.211-1.475 3.265-2.423.21-.211.421-.422.737-.633.316-.316.737-.737 1.053-1.053-.316.316-.527.632-.843.843-.526.316-.842.632-1.158.948z" fill="#5cfff7"></path><path d="m441.427 88.2655v-.7376c4.108-2.4233 7.478-.5268 7.478 4.4253 0 4.8466-3.265 10.8528-7.372 13.2758s-7.478.527-7.478-4.425l.632-.422c0 4.425 3.054 6.322 6.846 4.004 3.791-2.213 6.74-7.6915 6.74-12.2221 0-4.3199-3.054-6.111-6.846-3.8984z" fill="#dd0561"></path><path d="m428.79 107.547c-.106-.316-.106-.527-.211-.843.105.316.211.632.211.843.21 1.159.632 2.107 1.158 2.95.527.948 1.264 1.686 2.107 2.213-.843-.527-1.475-1.265-2.107-2.213-.526-.843-.842-1.791-1.158-2.95z" fill="#5cfff7"></path><path d="m431.423 92.3746c2.422-5.0574 6.108-9.1666 10.005-11.4845 3.054-1.7912 6.003-2.318 8.319-1.3697.843.316 1.58.8429 2.212 1.5804l-3.054 4.4252c-.421-.5268-.948-.8429-1.58-1.0536-1.685-.6322-3.791-.3161-5.897.9483-2.739 1.6858-5.266 4.6359-7.057 8.2182-1.474 3.0556-2.211 6.1111-2.106 8.8501l-3.791 2.424c-.211-3.899.842-8.2186 2.949-12.5384z" fill="url(#x)"></path><path d="m436.267 108.6c-.21-.105-.526-.105-.737-.21.211.105.527.105.737.21z" fill="#5cfff7"></path><path d="m438.584 108.6c-.843.211-1.58.211-2.317 0 .737.106 1.474.106 2.317 0z" fill="#5cfff7"></path><path d="m415.625 97.3266 7.583-4.5306v3.3716l-7.583 4.5304z" fill="#b0238e"></path><path d="m441.428 107.336c2.527-1.475 4.949-4.214 6.74-7.586 0-.1054.105-.2108.105-.2108 0-.1053.105-.2107.105-.3161l2.949 1.1589c-2.527 5.163-6.213 9.272-10.005 11.485-2.949 1.791-5.897 2.318-8.32 1.369l2.423-4.952c1.895.738 4.002.316 6.003-.948z" fill="#d5035c"></path><path d="m423.313 121.876-7.688 4.531v-3.372l7.688-4.53z" fill="#3d6efe"></path><path d="m494.296 79.0989 4.107-2.4234 1.264 18.8599-4.108 2.318z" fill="#c20858"></path><path d="m506.617 34.952c16.43 9.4826 29.805 29.1854 29.699 43.9362 0 14.7507-13.375 19.0706-29.909 9.4826-4.318-2.5287-8.425-5.6896-12.217-9.3773l1.264 18.8599-5.055-22.8637c-8.32-9.5879-13.796-21.0725-13.691-30.4497.105-14.8561 13.48-19.0706 29.909-9.588z" fill="#dd0561"></path><path d="m510.725 32.634c-9.584-5.5842-18.22-6.4271-23.591-3.2662-1.369.8429-2.738 1.5804-4.107 2.4233 5.476-3.1609 14.007-2.318 23.591 3.2662 16.429 9.4827 29.804 29.1855 29.698 43.9362 0 6.1111-2.317 10.4309-6.213 12.7489 1.369-.8429 2.738-1.5804 4.107-2.4233 3.897-2.318 6.214-6.6379 6.214-12.7489.105-14.7508-13.165-34.4536-29.699-43.9362z" fill="#c20858"></path><path d="m503.248 66.8768v2.6341l-12.428-7.1647v-2.634z" fill="url(#z)"></path><path d="m503.248 60.8712v2.6341l-12.428-7.27v-2.6341z" fill="url(#A)"></path><path d="m503.248 54.7601v2.6341l-12.428-7.1647v-2.634z" fill="url(#B)"></path><path d="m503.248 48.7545v2.6341l-12.428-7.1647v-2.6341z" fill="url(#C)"></path><path d="m523.257 72.3557v2.6341l-12.532-7.1646.105-2.6341z" fill="url(#D)"></path><path d="m523.257 66.35v2.6341l-12.427-7.1647v-2.634z" fill="url(#E)"></path><path d="m523.257 60.3444v2.6341l-12.427-7.27v-2.6341z" fill="url(#F)"></path><path d="m523.257 78.4667v2.6341l-12.532-7.27v-2.6341z" fill="url(#G)"></path><path d="m111.16 484.639v4.531l20.853-21.494v-4.426z" fill="#50a8ff"></path><path d="m132.644 463.461-20.431 21.073 37.282-10.431c-3.581-4.32-9.268-8.008-16.851-10.642z" fill="#ff76a7"></path><path d="m112.213 484.534v4.53l37.282-10.431v-4.53z" fill="#f25fc5"></path><path d="m80.3029 467.254v4.425l30.8571 17.491v-4.531z" fill="#50a8ff"></path><path d="m80.3029 467.254 30.8571 17.49 20.853-21.494c-.106 0-.211-.105-.316-.105-17.167-5.584-38.0191-3.582-51.3941 4.109z" fill="#76b4ff"></path><path d="m112.529 484.955 40.546 3.793c1.37-4.847.211-9.799-3.264-14.224z" fill="#dd58ad"></path><path d="m112.529 484.955v4.425l40.546 3.899v-4.531z" fill="#a436d8"></path><path d="m111.792 485.377v4.425l7.688 23.917v-4.531z" fill="#50a8ff"></path><path d="m119.48 509.188v4.426c8.004-.949 15.481-3.267 21.484-6.743 2.738-1.581 5.161-3.372 7.162-5.479 2.422-2.529 4.002-5.163 4.844-7.797v-4.531c-.842 2.634-2.422 5.268-4.844 7.797-2.001 2.002-4.424 3.898-7.162 5.479-6.003 3.582-13.48 5.9-21.484 6.848z" fill="#50a8ff"></path><path d="m111.792 485.377 7.688 23.917c8.004-.948 15.481-3.266 21.484-6.743 2.739-1.581 5.161-3.372 7.162-5.479 2.422-2.529 4.002-5.163 4.844-7.797z" fill="#76b4ff"></path><path d="m90.5184 506.871v4.425c8.9518 2.739 18.8516 3.477 28.2246 2.423v-4.531c-9.373 1.159-19.2728.422-28.2246-2.317z" fill="#2463ff"></path><path d="m111.055 485.693-20.5366 21.177c8.9518 2.74 18.8516 3.477 28.2246 2.424z" fill="#4591ff"></path><path d="m90.097 496.545v4.425l20.958-21.599v-4.425z" fill="#efda73"></path><path d="m67.8756 474.84v4.426c0 8.639 7.8986 17.068 21.9055 21.599.1053 0 .2107.105.316.105v-4.53c-.1053 0-.2107-.106-.316-.106-14.0069-4.425-21.9055-12.854-21.9055-21.494z" fill="#efda73"></path><path d="m79.9869 457.456c-2.5276 1.475-4.7392 3.266-6.6349 5.162-11.6899 12.012-4.3179 27.184 16.3238 33.927.1054 0 .2107.105.316.105l20.9572-21.599z" fill="#fcf1a6"></path><path d="m520.939 364.104c-.21 0-.316-.211-.316-.316v-.106c0-.21.211-.316.316-.316h.316v-.21h-.842c-.211 0-.316-.211-.316-.316v-.106c0-.211.21-.316.316-.316h.842v-.211h-1.053c-.21 0-.316-.21-.316-.316v-.105c0-.211.211-.316.316-.316h1.053v-.211l-3.054-.105c-.21 0-.316-.211-.316-.316v-.106c0-.21.211-.316.316-.316l3.054.106h1.369c.316 0 .527 0 .738-.106l-2.212-1.159c-.211-.105-.211-.316-.211-.527 0 0 .211-.421.632-.21l2.528 1.264c.526.316.948.948 1.264 1.159 1.579 1.054 4.949 1.37 4.949 1.37l-1.053 1.475s-2.527-1.265-3.791-.106c-.737.738-1.58.527-2.317.633-1.053-.106-2.212-.211-2.212-.211z" fill="#ffe5d4"></path><path d="m600.873 390.234c-2.738 0-5.792 3.582-5.371 7.481 3.581 37.93 21.485 57.211 41.389 78.916 2.212 2.318 2.317 3.688 3.054 5.374.527 1.159 5.055-2.845 3.897-3.477-1.159-.633-1.79-.949-3.16-2.529-10.11-11.485-33.806-43.409-33.806-78.39 0-3.161-1.579-7.375-6.003-7.375z" fill="#ffe5d4"></path><path d="m580.653 392.236c-2.422-1.265-7.161.316-8.32 4.004-9.268 30.555-5.792 62.69-.105 90.295.316 1.581.316 3.161-.211 4.742-.316 1.159 5.266 1.685 5.055.421 0-.211-1.053-2.423-1.579-6.111-2.001-14.962-4.95-54.156 6.95-83.974 1.264-3.055 2.212-7.375-1.79-9.377z" fill="#ffe5d4"></path><path d="m574.229 382.648s-6.951 20.545-8.531 40.354c14.112 13.065 33.912 12.116 48.34 2.318-3.265-5.269-5.266-13.908-4.634-33.822.842-20.651-32.858-20.862-35.175-8.85z" fill="#dd0561"></path><path d="m588.236 334.919c.316-.949.421-1.897.421-2.845s-.211-1.791-.527-2.529c-.632-1.475-1.79-2.634-3.264-2.95-1.475-.316-3.055 0-4.318.843-.632.421-1.159.948-1.685 1.686-.527.632-.948 1.369-1.159 2.212 0 0-.105.211-.21.738-.106.421-.316 1.053-.632 1.896-.106.422-.316.843-.422 1.37-.21.527-.421 1.054-.632 1.58-.421 1.159-.947 2.424-1.579 3.793-1.264 2.635-2.949 5.69-5.266 8.64-2.212 2.95-5.055 5.795-8.32 8.008-3.265 2.318-6.951 4.004-10.531 5.057-1.791.527-3.581.843-5.371 1.159-1.685.211-3.37.316-4.95.211-3.054-.106-5.582-.632-7.162-1.264-.421-.106-.737-.317-1.053-.422s-.526-.211-.737-.316c-.421-.211-.632-.316-.632-.316l-1.685 2.318s.211.211.737.527c.211.21.527.316.843.526.316.211.737.422 1.264.633 1.895.948 4.633 1.896 8.004 2.423 1.685.316 3.58.316 5.581.421 2.001 0 4.108-.21 6.214-.526 4.318-.738 8.846-2.213 12.954-4.426 2.106-1.053 4.107-2.423 5.897-3.793 1.791-1.475 3.581-2.95 5.161-4.53 3.159-3.161 5.581-6.533 7.477-9.588.948-1.475 1.79-2.95 2.422-4.215.316-.632.632-1.264.948-1.791s.527-1.053.737-1.58c.422-.949.737-1.686.948-2.213.421-.421.527-.737.527-.737z" fill="url(#H)"></path><path d="m603.296 331.231c2.211 1.37 4.95 4.004 5.265 6.638 1.37 10.22-3.58 23.39-3.37 26.867.527 8.113 4.634 11.379 4.95 18.649.105 3.267-6.635 10.537-23.064 4.426-14.112-5.269-11.584-11.801-11.163-13.276 1.79-5.69 4.634-1.791 6.951-19.281 1.053-7.903-3.686-19.176-3.476-23.286-.842-3.266 3.476-10.325 9.584-7.586z" fill="#fff"></path><path d="m607.93 363.683c-.211-3.477 3.475-15.489 2.001-25.92-.422-2.634-3.37-5.373-5.793-6.638l-15.586-6.953c-6.635-2.845-11.374 4.425-10.427 7.691-.316 4.215 2.212 14.962 1.054 22.864-1.37 9.377-5.056 13.17-7.162 26.551-.21 1.475.948 8.113 10.005 11.906.737-13.486 3.265-50.89 4.739-56.264 1.685-5.9 3.37-7.691 4.002-8.429 2.633-2.634 7.267-.105 5.477 2.108-.632 1.264-3.16 2.845-4.424 17.806-1.053 12.117-1.158 37.088-1.053 47.624 14.428 3.477 20.853-.843 21.063-3.899.948-17.595-3.37-20.229-3.896-28.447z" fill="url(#I)"></path><path d="m584.76 318.693c.632 2.002 2.317 2.423 8.425 1.369 3.265-.526 5.161-3.898 5.793-10.747.316-3.266-.737-7.48-8.847-7.059-6.108.316-6.951 7.797-8.004 12.96-.21.948 1.791.421 1.896.948.421.948.527 1.58.737 2.529z" fill="#ffe5d4"></path><path d="m603.19 396.029c-.105.105-.316.105-.526 0l-.106-.106c-.105-.105-.105-.316 0-.526l2.001-1.792-.105-.105-2.422 2.107c-.105.106-.316.106-.527 0l-.105-.105c-.105-.105-.105-.316 0-.527l2.317-2.107-.105-.105-2.528 2.318c-.105.105-.316.105-.527 0l-.105-.106c-.105-.105-.105-.421 0-.527l2.528-2.318-.106-.21-2.211 2.002c-.105.105-.316.105-.527 0l-.105-.106c-.105-.105-.105-.421 0-.527l2.212-2.002s1.474-1.369 1.474-1.475c0 0-.948-.843-1.896-1.58-.632-.527 0-1.054 0-1.054.737.527 1.264 1.686 3.581 1.581.948 0 2.212-.422 2.738-1.475.105-.211.843 1.159.843 1.159s-1.369.948-1.896 2.528c-.421 1.054-1.58 2.424-1.58 2.424z" fill="#ffe5d4"></path><path d="m608.772 334.181c-3.054-1.897-6.74-1.264-8.32 1.37-1.579 2.634-.421 6.216 2.317 8.007 0 0 .843.422 2.317 1.265 1.475.842 3.581 2.001 5.793 3.582 1.158.843 2.316 1.686 3.58 2.634 1.159.948 2.317 2.107 3.37 3.266 2.107 2.318 3.581 5.163 3.792 8.324.105 1.58 0 3.266-.527 4.847-.105.421-.211.842-.316 1.264-.105.421-.21.843-.421 1.264-.316.843-.632 1.581-1.053 2.424-1.58 3.16-3.581 5.9-5.371 8.218-1.791 2.318-3.476 4.109-4.634 5.373-1.159 1.265-1.896 2.002-1.896 2.002l1.896 2.107s.737-.632 2.211-1.791c1.369-1.159 3.265-2.739 5.477-4.952 2.211-2.212 4.739-4.846 6.951-8.113 1.158-1.685 2.211-3.477 3.054-5.584.842-2.002 1.474-4.425 1.579-6.848.211-2.424-.105-4.952-.842-7.27s-1.896-4.426-3.054-6.217c-.632-.948-1.264-1.791-1.896-2.529-.632-.737-1.264-1.58-2.001-2.212-1.264-1.37-2.633-2.634-3.791-3.688-2.422-2.212-4.529-3.793-6.003-4.847-.737-.526-1.369-.948-1.685-1.264-.316-.421-.527-.632-.527-.632z" fill="url(#J)"></path><path d="m590.342 328.913c-.105 1.686 1.369 2.845 3.159 2.95 1.791.105 3.265-.948 3.37-2.634l.632-17.806c.106-1.686-1.369-3.161-3.054-3.267-1.79-.105-3.265 1.265-3.37 2.951z" fill="#ffe5d4"></path><path d="m621.937 299.622c-3.055 0-4.95 4.952-8.32 5.268-3.16.316-5.161-3.582-9.795-.737 0-1.581-.526-3.161-1.79-4.636-5.476-6.533-21.695 2.002-17.904 8.639.527-1.264 1.054-2.001 1.896-2.739.737 5.373 8.215 5.268 9.478 4.636 1.37-.632 3.792-.421 3.265 1.37-.421 1.264-3.896 11.379.632 3.477 1.685-2.108 3.581-.316 8.847 8.113 5.581 8.85 13.585-.843 16.639-8.008 3.054-7.059.106-15.383-2.948-15.383z" fill="#ae6e79"></path><path d="m574.861 497.809-1.896-1.37.421-3.266 1.896 1.37z" fill="#7a4694"></path><path d="m577.178 491.487c-.316.527-1.475.843-2.633.738-1.264-.211-2.212-.738-2.528-1.159-.211.843-.842 3.371-2.738 4.847-3.581 2.844-2.949 3.16-2.949 3.266 0 0 1.053 2.212 5.371 0 .737-.422 3.16-4.32 3.476-4.425l-.422 3.16s1.685-.316 1.896-1.369c.105-.949.316-2.634.316-2.634.211-.527.737-1.792.211-2.424z" fill="#8484a5"></path><path d="m646.475 484.849-2.317.317-1.896-2.635 2.317-.316z" fill="#7a4694"></path><path d="m643.526 478.422c.105.633-.421 1.581-1.474 2.318-1.054.843-2.107 1.054-2.633.843.421.738 1.79 3.056 1.474 5.374-.526 4.53.105 4.32.211 4.32 0 0 2.317.842 3.791-3.793.211-.843-.737-5.269-.632-5.585l2.001 2.634s.948-1.475.421-2.212c-.631-.738-1.579-2.107-1.579-2.107-.211-.527-.737-1.792-1.58-1.792z" fill="#8484a5"></path><path d="m620.567 281.289 4.108-2.423-10.216 11.273-4.107 2.424z" fill="#30c5ca"></path><path d="m630.678 235.772c1.158.632 2.106 2.318 2.106 3.583l-.105 46.464c0 1.265-.948 1.897-2.107 1.159l-10.005-5.794-10.215 11.273 3.265-15.277-25.697-14.856c-1.159-.633-2.107-2.318-2.107-3.583l.106-46.465c0-1.264.948-1.896 2.106-1.159z" fill="#39dfe4"></path><path d="m634.785 233.349-42.547-24.549c-.527-.317-1.053-.317-1.475-.106l-4.107 2.423c.421-.21.948-.21 1.474.106l42.548 24.549c1.158.633 2.106 2.318 2.106 3.583l-.105 46.465c0 .632-.211 1.159-.632 1.369l4.107-2.423c.421-.211.632-.632.632-1.37l.105-46.465c0-1.264-.948-2.844-2.106-3.582z" fill="#30c5ca"></path><path d="m622.568 262.956v3.161l-26.012-15.067v-3.056z" fill="#fff"></path><path d="m622.568 256.845v3.055l-26.012-14.961v-3.056z" fill="#fff"></path><path d="m613.511 239.355v3.055l-16.85-9.799v-3.055z" fill="#fff"></path><path d="m622.568 250.734v3.055l-26.012-14.961.105-3.161z" fill="#fff"></path><path d="m35.649 243.253-1.4744 2.002c-1.2638 1.686-.5266 4.11 1.4744 5.585 0 0 .2106.105.6319.421.4212.211 1.0531.632 1.8956 1.054 1.5798.948 4.002 2.212 6.9508 3.582 1.4744.632 3.0542 1.37 4.8445 2.002.8425.316 1.7904.632 2.7382.948.9478.211 1.8957.527 2.9488.843.9478.316 2.001.421 3.0541.632 1.0532.211 2.1063.422 3.1595.527 1.0531.105 2.1063.211 3.2648.316 1.0531 0 2.2116.105 3.2647.105h.8425.8426l1.5797-.105c.5266 0 1.0531-.105 1.5797-.105s1.0532-.106 1.5797-.211c1.0532-.105 2.1063-.211 3.0542-.421 1.0531-.211 2.001-.422 2.9488-.633.5266-.105.9478-.21 1.4744-.316.4213-.105.9478-.21 1.3691-.421.9478-.211 1.7904-.527 2.6329-.738 1.685-.526 3.2647-1.053 4.7391-1.58 1.4745-.527 2.7382-1.054 3.8967-1.581 1.1585-.421 2.1063-.948 2.9488-1.264 1.6851-.737 2.5279-1.159 2.5279-1.159l-1.3694-3.266s-.9479.316-2.6329.843c-.8425.21-1.7904.632-2.9488.948-1.1585.316-2.4223.738-3.8967 1.054-5.687 1.475-13.5856 2.739-21.063 2.002-.9478-.106-1.8956-.211-2.8435-.317-.9478-.21-1.7903-.421-2.7382-.526-.9478-.106-1.7903-.422-2.6328-.738s-1.6851-.527-2.5276-.843-1.5797-.632-2.4222-.948c-.7372-.316-1.4744-.738-2.2116-1.054-1.4745-.632-2.8435-1.475-4.002-2.107-2.4223-1.475-4.4232-2.739-5.7923-3.793-.7372-.527-1.2638-.843-1.5798-1.159-.3159-.211-.5265-.421-.5265-.421-1.8957-1.159-4.3179-.843-5.5817.842z" fill="url(#K)"></path><path d="m41.7572 384.861c-1.0532.632-2.001.843-2.8435.316v.316c-.1053.843-.316 1.054-.6319 1.264-.9478.527-2.4223.527-3.2648 0-.3159-.21-.5265-.421-.6319-.632v-.105c-1.3691 2.107-.2106 4.004-.2106 4.109v1.159s.2106 1.053 1.8957 1.053c1.4744 0 2.5275-1.58 2.5275-1.58v-1.264c.9479-.422 2.1063-.106 2.4223-.211 1.685-.632 2.3169-1.054 2.7382-1.686 1.3691-2.212-.9479-3.371-2.001-2.739z" fill="#4e2ae7"></path><path d="m34.7012 382.121c.1053 1.37-.4213 4.004-.4213 4.004.6319 1.686 5.0551 1.686 4.5286-.948 0 0-.8426-.843-.8426-2.634.1053-1.265-3.37-1.686-3.2647-.422z" fill="#ffe5d4"></path><path d="m46.707 294.565c1.5797 22.758 3.4754 35.613-8.6358 87.872-.2106.949-3.4754 1.581-3.3701 0 2.2116-36.034 1.5797-59.845.1053-94.51-.1053-4.636 10.8475-8.218 11.9006 6.638z" fill="#4e2ae7"></path><path d="m60.082 394.554c-1.0531.632-2.001.843-2.8435.316v.316c-.1053.843-.3159 1.054-.6319 1.265-.9478.526-2.4222.526-3.2647 0-.316-.211-.5266-.422-.6319-.633v-.105c-1.3691 2.107-.2107 4.004-.2107 4.109v1.054s.2107 1.054 1.8957 1.054c1.4744 0 2.5276-1.581 2.5276-1.581v-1.264c.9478-.422 2.1063-.106 2.4222-.211 1.6851-.632 2.3169-1.054 2.7382-1.686 1.3691-2.107-.9478-3.266-2.001-2.634z" fill="#4e2ae7"></path><path d="m53.026 391.815c.1053 1.369-.4213 3.898-.4213 3.898.6319 1.686 5.0552 1.686 4.5286-.843 0 0-.8425-.843-.8425-2.634.1053-1.264-3.3701-1.791-3.2648-.421z" fill="#ffe5d4"></path><path d="m65.5584 293.406c1.5797 22.758 2.8435 46.36-9.2677 98.514-.2107.948-3.4754 1.58-3.3701 0 2.2116-36.034 1.5797-59.846.1053-94.51-.1053-4.425 11.4793-18.86 12.5325-4.004z" fill="#4e2ae7"></path><path d="m50.7089 312.371c-12.5324-.737-13.4803-9.482-14.6387-14.75-3.1595-15.383 31.5945-16.226 29.6988-1.265-.1053 1.37-3.1595 16.753-15.0601 16.015z" fill="#4e2ae7"></path><path d="m57.8704 252.631c7.3721 4.53 8.7412 22.021 7.688 30.66-.9478 7.376-4.4232 14.119-4.7392 14.646-11.058 14.224-25.1702 8.323-25.9074-10.115-.7372-18.544-5.7924-36.139-5.8977-37.298-2.8435-8.429 5.4764-12.644 8.9518-10.326 4.8445 3.372 14.9547 9.377 19.9045 12.433z" fill="url(#L)"></path><path d="m63.6628 281.079c.4213 3.582 1.3691 22.547 2.8435 21.704s3.2648-33.189-5.1604-46.465c-2.7382-4.425 1.3691 16.648 2.3169 24.761z" fill="url(#M)"></path><path d="m52.8153 233.771c.8425 2.845-2.9488 4.636-5.0551 5.163-3.1595.737-7.1615.527-12.0059-4.952-2.317-2.529-4.1073-6.638 2.4222-10.958 4.002-2.634 10.9528 1.264 13.9016 5.057.4212.527-1.2638 1.054-.8425 1.581 1.0531 1.791 1.0531 2.318 1.5797 4.109z" fill="#ffd8bd"></path><path d="m47.6548 247.468c-.2106 2.213-1.8956 3.266-3.5807 2.95-1.685-.316-2.8435-1.791-2.6329-3.582.7372-6.322-.4212-12.749-3.2647-18.439-.8425-1.685-.4213-3.687 1.0531-4.53 1.4744-.948 3.5807-.106 4.6339 1.791 3.2647 6.743 4.6338 14.329 3.7913 21.81z" fill="#ffd8bd"></path><path d="m43.4423 222.919c2.0009-4.11.7372-8.429-.7373-8.851-2.1063-.632-1.4744 5.9-3.2647 6.849-1.7904.948-7.688 3.898-7.0561 9.482.5266 5.585 7.2667 7.376 8.1092 7.797 1.4744.738-.3159.632 2.6329-1.264.4213-.211-.3159-1.791-1.685-2.318-2.001-.843-3.2648-2.95-2.2116-4.004.2106-.316.5265-.421.8425-.421 3.7913 3.898 6.9508 9.166 8.8464 9.166 2.001 0 3.7914-.843 5.7924-2.634 1.2637-1.159-3.1595-6.954-3.4754-6.743-3.1595 2.423 1.3691 5.057-3.4754 6.427-2.001.632-6.4242-6.427-8.004-8.956-.1053-1.475 1.6851-.527 3.6861-4.53z" fill="#d38884"></path><path d="m95.0466 301.624c-2.3169-1.264-3.3701-3.055-3.3701-4.741l.1053-62.164c0 1.686 1.1585 3.477 3.3701 4.741 4.5285 2.635 11.7951 2.635 16.3241 0 2.211-1.264 3.37-2.95 3.37-4.741 0 20.757-.106 41.408-.106 62.164 0 1.686-1.158 3.372-3.37 4.741-4.528 2.529-11.7949 2.529-16.3234 0z" fill="url(#N)"></path><path d="m95.1519 239.46c4.5285 2.635 11.7951 2.635 16.3241 0 4.528-2.634 4.423-6.848-.106-9.482-4.528-2.634-11.7949-2.634-16.3234 0-4.4233 2.634-4.4233 6.848.1053 9.482z" fill="#980e49"></path><path d="m99.8911 234.719c-.9479-.527-1.3691-1.264-1.3691-2.002l.1053-18.333c0 .738.4212 1.475 1.3691 2.002 1.8956 1.054 4.8446 1.054 6.7406 0 .947-.527 1.369-1.264 1.369-1.896 0 8.534-.106 9.798-.106 18.333 0 .737-.421 1.369-1.369 1.896-1.895 1.054-4.95 1.054-6.7399 0z" fill="#1d70b7"></path><path d="m99.9956 216.386c1.8954 1.054 4.8444 1.054 6.7404 0 1.895-1.053 1.79-2.845 0-3.898-1.896-1.054-4.845-1.054-6.7404 0-1.8957 1.159-1.8957 2.845 0 3.898z" fill="#1d70b7"></path><path d="m116.847 213.541c10.637-4.741 12.111-24.444 3.265-43.936-8.847-19.492-24.5389-31.398-35.1757-26.551-10.6368 4.741-12.1112 24.444-3.2647 43.936 8.8464 19.492 24.5384 31.398 35.1754 26.551z" fill="url(#O)"></path><path d="m113.477 213.647c1.369-.632 2.738-1.265 4.002-1.791-5.161 2.318-11.901 1.264-18.9571-3.794-14.0069-10.114-23.9065-32.03-22.1161-49.098.8425-8.429 4.4232-14.119 9.5836-16.437-1.369.632-2.7381 1.264-4.0019 1.791-5.0551 2.318-8.7412 8.008-9.5837 16.437-1.7903 17.068 8.2146 39.089 22.1162 49.099 7.056 5.057 13.796 6.111 18.957 3.793z" fill="#bbdbfd"></path><path d="m112.845 277.391c.211 0 .316-.211.316-.421v-.106c0-.211-.211-.316-.421-.316l-2.633.632v-.21l3.159-.738c.211 0 .316-.211.316-.421v-.106c0-.211-.21-.316-.421-.316l-3.16.738v-.211l3.371-.738c.21 0 .315-.21.315-.421v-.105c0-.211-.21-.317-.421-.317l-3.37.738v-.211l2.949-.737c.211 0 .316-.211.316-.422v-.105c0-.211-.211-.316-.421-.316l-2.949.737s-.737.211-1.369.316c-.316.106-.527.106-.737 0l1.895-1.58c.105-.105.211-.316.105-.527l-.315-.421h-.106l-.105.105-.421.316-.211.106s-1.369 1.053-1.79 1.475c-.527.526-.738 1.053-.948 1.369-.527.738-1.791.633-3.37 2.951-.211.21 1.158 1.053 1.158 1.053s1.58-2.529 3.054-1.264c.843.843 2.949.211 2.949.211z" fill="#ffd8bd"></path><path d="m57.1333 260.744-2.5275.316c-1.0532.105-1.8957.737-2.4223 1.686-.5266.948-.8425 2.107-.5266 3.371 0 0 .1054.316.2107.738.1053.527.3159 1.264.5265 2.212.2107.949.5266 2.108 1.0532 3.372.4213 1.264.9478 2.739 1.685 4.32 1.3691 3.161 3.2648 6.743 6.3189 10.115 1.5798 1.685 3.3701 3.266 5.4764 4.425 2.1063 1.264 4.5285 2.212 6.9508 2.529 2.4222.421 4.8445.316 7.1614 0 1.1585-.211 2.2116-.422 3.2648-.738 1.0531-.316 2.1063-.632 3.0541-1.159 3.8967-1.58 7.0561-3.793 9.5837-5.689 2.5275-2.002 4.4236-3.794 5.7926-5.058 1.263-1.37 2.001-2.107 2.001-2.107l-2.423-2.529s-.737.632-2.106 1.791c-1.369 1.054-3.3699 2.634-5.8975 4.215-2.5276 1.58-5.5817 3.161-8.8465 4.214-3.37 1.054-7.0561 1.37-10.2155.527-3.1595-.843-5.7923-2.95-7.688-5.479-1.8957-2.634-3.1595-5.584-4.002-8.218-.4212-1.37-.7372-2.529-.9478-3.688-.316-1.159-.4213-2.107-.6319-2.95s-.2106-1.475-.3159-1.896c-.1054-.422-.1054-.633-.1054-.633-.2106-1.053-.7372-2.001-1.5797-2.739s-1.7903-1.054-2.8435-.948z" fill="url(#P)"></path><path d="m115.162 217.44c1.369-.632 9.689-4.425 11.058-5.058 5.687-2.528 9.689-8.85 10.637-18.333 2.001-18.965-9.057-43.409-24.644-54.578-7.793-5.584-15.2707-6.848-21.063-4.214-1.3691.632-9.689 4.425-11.0581 5.057 5.7923-2.634 13.2697-1.369 21.0631 4.215 15.587 11.168 26.539 35.612 24.644 54.578-.948 9.482-4.95 15.804-10.637 18.333z" fill="url(#Q)"></path><path d="m125.799 199.212c2.001-18.965-9.057-43.409-24.644-54.578-15.5867-11.168-29.6989-4.846-31.6999 14.119s9.0571 43.409 24.6437 54.578c15.5862 11.168 29.8042 4.846 31.7002-14.119zm-31.2789 10.642c-14.0069-10.115-23.9065-32.031-22.1162-49.099 1.7904-17.069 14.5335-22.759 28.5401-12.644 14.007 10.115 23.907 32.03 22.116 49.099-1.79 17.069-14.533 22.758-28.5399 12.644z" fill="#5b8cd3"></path><path d="m30.9098 215.859-3.7913-2.212-9.5837-12.96 3.7913 2.213z" fill="#202ea8"></path><path d="m52.2886 147.69c2.317-1.37 4.2126-.316 4.2126 2.212l.1053 28.132c0 2.529-1.8956 5.69-4.2126 6.954l-25.3809 14.645 4.002 16.226-9.5837-12.959-8.4252 4.846c-2.3169 1.37-4.21255.316-4.21255-2.212l-.10532-28.132c0-2.529 1.89567-5.69 4.21257-6.954z" fill="#2d3cc2"></path><path d="m51.5515 145.161c-.7372-.421-1.8957-.421-3.0541.316l-39.38783 22.758c-2.31693 1.37-4.2126 4.426-4.2126 6.954l.10532 28.132c0 1.264.42126 2.107 1.15846 2.529l3.79134 2.212c-.7372-.421-1.15846-1.264-1.15846-2.528l-.10532-28.132c0-2.529 1.89569-5.69 4.21259-6.954l39.3878-22.758c1.1585-.738 2.3169-.738 3.0541-.316-1.2637-.738-2.5275-1.475-3.7913-2.213z" fill="#202ea8"></path><path d="m43.5477 161.176 3.686 4.741-2.3169 1.37v11.906l-2.7382 1.581v-11.906l-2.4223 1.369z" fill="#fff"></path><path d="m34.2799 173.082v2.423l-13.2696 7.692v-2.423z" fill="#fff"></path><path d="m34.2799 178.034v2.424l-13.2696 7.691v-2.423z" fill="#fff"></path><path d="m34.2799 168.235v2.318l-13.2696 7.692v-2.424z" fill="#fff"></path><path d="m34.2799 182.986v2.423l-13.2696 7.587v-2.424z" fill="#fff"></path></svg> 