<?xml version="1.0" encoding="UTF-8"?> <svg xmlns="http://www.w3.org/2000/svg" xmlns:xlink="http://www.w3.org/1999/xlink" width="540px" height="540px" viewBox="0 0 540 540" version="1.1"><!-- Generator: Sketch 59.1 (86144) - https://sketch.com --><title>linkedin-business</title><desc>Created with Sketch.</desc><defs><polygon id="path-1" points="0.227463137 0.0142923465 204.816362 0.0142923465 204.816362 234.495281 0.227463137 234.495281"></polygon><polygon id="path-3" points="0 344 426.463434 344 426.463434 0.0219882254 0 0.0219882254"></polygon><path d="M0.879209184,162.704936 C0.879209184,219.173142 67.7607959,264.949912 124.043444,264.949912 L124.043444,264.949912 L124.043444,294.857706 C151.080712,294.857706 225.952436,248.952235 225.952436,162.704936 L225.952436,162.704936 C225.952436,106.23673 180.326092,0.110480392 124.043444,0.110480392 L124.043444,0.110480392 C-17.2229872,0.110480392 0.879209184,20.6413235 0.879209184,162.704936 L0.879209184,162.704936 Z" id="path-5"></path><path d="M0.879209184,162.704936 C0.879209184,219.173142 67.7607959,264.949912 124.043444,264.949912 L124.043444,264.949912 L124.043444,294.857706 C151.080712,294.857706 225.952436,248.952235 225.952436,162.704936 L225.952436,162.704936 C225.952436,106.23673 180.326092,0.110480392 124.043444,0.110480392 L124.043444,0.110480392 C-17.2229872,0.110480392 0.879209184,20.6413235 0.879209184,162.704936 L0.879209184,162.704936 Z" id="path-7"></path><path d="M0.879209184,162.704936 C0.879209184,219.173142 67.7607959,264.949912 124.043444,264.949912 L124.043444,264.949912 L124.043444,294.857706 C151.080712,294.857706 225.952436,248.952235 225.952436,162.704936 L225.952436,162.704936 C225.952436,106.23673 180.326092,0.110480392 124.043444,0.110480392 L124.043444,0.110480392 C-17.2229872,0.110480392 0.879209184,20.6413235 0.879209184,162.704936 L0.879209184,162.704936 Z" id="path-9"></path><path d="M0.879209184,162.704936 C0.879209184,219.173142 67.7607959,264.949912 124.043444,264.949912 L124.043444,264.949912 L124.043444,294.857706 C151.080712,294.857706 225.952436,248.952235 225.952436,162.704936 L225.952436,162.704936 C225.952436,106.23673 180.326092,0.110480392 124.043444,0.110480392 L124.043444,0.110480392 C-17.2229872,0.110480392 0.879209184,20.6413235 0.879209184,162.704936" id="path-11"></path><path d="M0.879209184,162.704936 C0.879209184,219.173142 67.7607959,264.949912 124.043444,264.949912 L124.043444,264.949912 L124.043444,294.857706 C151.080712,294.857706 225.952436,248.952235 225.952436,162.704936 L225.952436,162.704936 C225.952436,106.23673 180.326092,0.110480392 124.043444,0.110480392 L124.043444,0.110480392 C-17.2229872,0.110480392 0.879209184,20.6413235 0.879209184,162.704936 L0.879209184,162.704936 Z" id="path-13"></path><path d="M0.879209184,162.704936 C0.879209184,219.173142 67.7607959,264.949912 124.043444,264.949912 L124.043444,264.949912 L124.043444,294.857706 C151.080712,294.857706 225.952436,248.952235 225.952436,162.704936 L225.952436,162.704936 C225.952436,106.23673 180.326092,0.110480392 124.043444,0.110480392 L124.043444,0.110480392 C-17.2229872,0.110480392 0.879209184,20.6413235 0.879209184,162.704936 L0.879209184,162.704936 Z" id="path-15"></path><path d="M0.879209184,162.704936 C0.879209184,219.173142 67.7607959,264.949912 124.043444,264.949912 L124.043444,264.949912 L124.043444,294.857706 C151.080712,294.857706 225.952436,248.952235 225.952436,162.704936 L225.952436,162.704936 C225.952436,106.23673 180.326092,0.110480392 124.043444,0.110480392 L124.043444,0.110480392 C-17.2229872,0.110480392 0.879209184,20.6413235 0.879209184,162.704936" id="path-17"></path><path d="M0.879209184,162.704936 C0.879209184,219.173142 67.7607959,264.949912 124.043444,264.949912 L124.043444,264.949912 L124.043444,294.857706 C151.080712,294.857706 225.952436,248.952235 225.952436,162.704936 L225.952436,162.704936 C225.952436,106.23673 180.326092,0.110480392 124.043444,0.110480392 L124.043444,0.110480392 C-17.2229872,0.110480392 0.879209184,20.6413235 0.879209184,162.704936" id="path-19"></path><path d="M0.879209184,162.704936 C0.879209184,219.173142 67.7607959,264.949912 124.043444,264.949912 L124.043444,264.949912 L124.043444,294.857706 C151.080712,294.857706 225.952436,248.952235 225.952436,162.704936 L225.952436,162.704936 C225.952436,106.23673 180.326092,0.110480392 124.043444,0.110480392 L124.043444,0.110480392 C-17.2229872,0.110480392 0.879209184,20.6413235 0.879209184,162.704936 L0.879209184,162.704936 Z" id="path-21"></path><path d="M0.879209184,162.704936 C0.879209184,219.173142 67.7607959,264.949912 124.043444,264.949912 L124.043444,264.949912 L124.043444,294.857706 C151.080712,294.857706 225.952436,248.952235 225.952436,162.704936 L225.952436,162.704936 C225.952436,106.23673 180.326092,0.110480392 124.043444,0.110480392 L124.043444,0.110480392 C-17.2229872,0.110480392 0.879209184,20.6413235 0.879209184,162.704936" id="path-23"></path><path d="M0.879209184,162.704936 C0.879209184,219.173142 67.7607959,264.949912 124.043444,264.949912 L124.043444,264.949912 L124.043444,294.857706 C151.080712,294.857706 225.952436,248.952235 225.952436,162.704936 L225.952436,162.704936 C225.952436,106.23673 180.326092,0.110480392 124.043444,0.110480392 L124.043444,0.110480392 C-17.2229872,0.110480392 0.879209184,20.6413235 0.879209184,162.704936" id="path-25"></path><path d="M0.879209184,162.704936 C0.879209184,219.173142 67.7607959,264.949912 124.043444,264.949912 L124.043444,264.949912 L124.043444,294.857706 C151.080712,294.857706 225.952436,248.952235 225.952436,162.704936 L225.952436,162.704936 C225.952436,106.23673 180.326092,0.110480392 124.043444,0.110480392 L124.043444,0.110480392 C-17.2229872,0.110480392 0.879209184,20.6413235 0.879209184,162.704936" id="path-27"></path><path d="M0.879209184,162.704936 C0.879209184,219.173142 67.7607959,264.949912 124.043444,264.949912 L124.043444,264.949912 L124.043444,294.857706 C151.080712,294.857706 225.952436,248.952235 225.952436,162.704936 L225.952436,162.704936 C225.952436,106.23673 180.326092,0.110480392 124.043444,0.110480392 L124.043444,0.110480392 C-17.2229872,0.110480392 0.879209184,20.6413235 0.879209184,162.704936" id="path-29"></path><path d="M124.043444,264.949912 L124.043444,294.857706 C135.495782,294.857706 156.586247,287.488069 175.87793,271.438477 C202.131042,249.597367 225.952436,212.419948 225.952436,162.704936 C225.952436,106.23673 180.326092,0.110480392 124.043444,0.110480392 C-17.2229872,0.110480392 0.879209184,20.6413235 0.879209184,162.704936 C0.879209184,219.173142 67.7607959,264.949912 124.043444,264.949912 Z" id="path-31"></path><path d="M124.043444,265.697754 L124.043444,264.949912 L124.043444,295.586114 C151.080712,295.586114 225.952436,248.952235 225.952436,162.704936 C225.952436,106.23673 180.326092,0.110480392 124.043444,0.110480392 C-17.2229872,0.110480392 0.879209184,20.6413235 0.879209184,162.704936 C0.879209184,219.173142 67.7607959,265.697754 124.043444,265.697754 Z" id="path-33"></path></defs><g id="linkedin-business" stroke="none" stroke-width="1" fill="none" fill-rule="evenodd"><rect id="background" fill="#BBB1CC" x="0" y="0" width="540" height="540"></rect><g id="Group-96" transform="translate(57.000000, 98.000000)"><g id="Group-37"><g id="Group-3" transform="translate(221.647072, 76.090833)"><mask id="mask-2" fill="white"><use xlink:href="#path-1"></use></mask><g id="Clip-2"></g><path d="M102.521927,204.57654 C46.0262298,204.57654 0.227463137,158.783746 0.227463137,102.295416 C0.227463137,45.806797 46.0262298,0.0142923465 102.521927,0.0142923465 C159.017624,0.0142923465 204.816391,45.806797 204.816391,102.295416 C204.816391,188.573451 129.661251,234.495281 102.521927,234.495281 L102.521927,204.57654 Z" id="Fill-1" fill="#FFFFFF" mask="url(#mask-2)"></path></g><mask id="mask-4" fill="white"><use xlink:href="#path-3"></use></mask><g id="Clip-5"></g><polygon id="Fill-4" fill="#FFFFFF" mask="url(#mask-4)" points="13.353802 288.093201 151.156069 288.093201 151.156069 98.5983852 13.353802 98.5983852"></polygon><path d="M139.628251,70.3473346 L24.8816199,70.3473346 C18.5149091,70.3473346 13.3539467,75.5079132 13.3539467,81.8737938 L13.3539467,98.5981537 L151.156214,98.5981537 L151.156214,81.8737938 C151.156214,75.5079132 145.994962,70.3473346 139.628251,70.3473346" id="Fill-6" fill="#183059" mask="url(#mask-4)"></path><path d="M31.987926,221.419462 L45.2343768,291.743883 C45.2343768,291.743883 124.373088,308.386944 136.647879,297.66942 C148.92296,286.951896 110.77912,227.210467 110.77912,227.210467 L31.987926,221.419462 Z" id="Fill-19" fill="#FBAA19" mask="url(#mask-4)"></path><path d="M24.8816199,316.343991 L139.628251,316.343991 C145.994962,316.343991 151.156214,311.183413 151.156214,304.817532 L151.156214,288.093172 L13.3539467,288.093172 L13.3539467,304.817532 C13.3539467,311.183413 18.5149091,316.343991 24.8816199,316.343991" id="Fill-7" fill="#183059" mask="url(#mask-4)"></path><path d="M96.9819367,86.9509618 L67.5280501,86.9509618 C66.9695921,86.9509618 66.5167492,86.4984673 66.5167492,85.9397928 L66.5167492,83.0058113 C66.5167492,82.4474261 66.9695921,81.9946422 67.5280501,81.9946422 L96.9819367,81.9946422 C97.5403947,81.9946422 97.9932376,82.4474261 97.9932376,83.0058113 L97.9932376,85.9397928 C97.9932376,86.4984673 97.5403947,86.9509618 96.9819367,86.9509618" id="Fill-8" fill="#DDD8E6" mask="url(#mask-4)"></path><path d="M114.005676,84.472802 C114.005676,86.3206809 112.507677,87.8181948 110.659847,87.8181948 C108.811727,87.8181948 107.313728,86.3206809 107.313728,84.472802 C107.313728,82.6252124 108.811727,81.1274093 110.659847,81.1274093 C112.507677,81.1274093 114.005676,82.6252124 114.005676,84.472802" id="Fill-9" fill="#DDD8E6" mask="url(#mask-4)"></path><path d="M152.476576,112.511869 L151.156243,112.511869 L151.156243,131.185369 L152.476576,131.185369 C152.979189,131.185369 153.386602,130.778008 153.386602,130.275172 L153.386602,113.422066 C153.386602,112.91923 152.979189,112.511869 152.476576,112.511869" id="Fill-10" fill="#72839B" mask="url(#mask-4)"></path><path d="M152.476576,139.489136 L151.156243,139.489136 L151.156243,158.162636 L152.476576,158.162636 C152.979189,158.162636 153.386602,157.755275 153.386602,157.252439 L153.386602,140.399333 C153.386602,139.896497 152.979189,139.489136 152.476576,139.489136" id="Fill-11" fill="#BBB1CC" mask="url(#mask-4)"></path><path d="M89.4355773,302.218524 C89.4355773,298.25341 86.2208267,295.039079 82.2549066,295.039079 C78.2892759,295.039079 75.0742359,298.25341 75.0742359,302.218524 C75.0742359,306.183637 78.2892759,309.397969 82.2549066,309.397969 C86.2208267,309.397969 89.4355773,306.183637 89.4355773,302.218524" id="Fill-12" fill="#988BB3" mask="url(#mask-4)"></path><polygon id="Fill-13" fill="#FBAA19" mask="url(#mask-4)" points="208.17093 2.97506476 191.188308 37.3814298 153.213452 42.8987384 180.692191 69.680397 174.205397 107.496962 208.17093 89.6422338 242.136463 107.496962 235.649669 69.680397 263.128408 42.8987384 225.153841 37.3814298"></polygon><path d="M11.0885748,206.497529 C11.0885748,206.497529 11.6259098,213.893674 12.3319396,216.261169 C13.0379694,218.628375 17.8496785,225.076133 17.8496785,225.076133 C18.7637557,226.536036 19.3311837,228.185731 19.509138,229.898788 L19.7594314,232.30997 L20.3835733,241.036113 C20.4394191,241.816116 19.5638264,242.321556 18.9234804,241.871955 C17.9156518,241.163703 16.6638956,239.177529 15.9841972,233.887336 C15.3042095,228.596275 12.8313689,235.712359 11.9829757,238.378142 C11.7989449,238.956779 11.6528199,239.546411 11.5448899,240.144143 L9.95429731,248.956214 C8.59750473,249.423753 6.9603257,248.182286 6.94730466,246.538377 L6.94122817,246.092537 C6.92213065,244.722323 5.8989661,243.585301 4.5415948,243.395507 C4.5349396,243.39435 4.52799504,243.393482 4.52133984,243.392614 L4.14633383,243.305529 C3.37809235,243.039356 3.1576027,242.51106 2.91656875,241.734818 L2.70041945,241.038138 C2.62402933,240.791639 2.48108723,240.569153 2.28027382,240.407423 C1.51781947,239.794357 1.08638894,238.859857 1.11358845,237.882539 L1.1199543,235.878138 C1.12053301,235.668671 1.05166617,235.465859 0.927242874,235.298054 C0.444017535,234.646219 0.239153139,233.888204 0.282556613,233.054966 L2.58467685,220.425045 C2.70562787,219.76048 1.88645964,208.969179 1.71429253,208.316187 L11.0885748,206.497529 Z" id="Fill-14" fill="#978AB2" mask="url(#mask-4)"></path><path d="M15.4845943,176.437745 C28.3398351,174.141711 36.8998682,161.860998 34.6035351,149.007433 L15.4845943,176.437745 Z" id="Fill-15" fill="#143059" mask="url(#mask-4)"></path><path d="M169.440448,128.219852 C175.730479,128.621716 181.343127,125.960272 181.28352,119.646469 L181.235197,115.978775 L170.144742,122.843731 L169.440448,128.219852 Z" id="Fill-16" fill="#143059" mask="url(#mask-4)"></path><path d="M165.077791,106.61671 C165.077791,106.61671 175.474659,100.799667 182.471299,90.7203802 C189.467939,80.6413827 192.425741,73.5455509 193.5007,73.2944222 C194.575949,73.0432935 200.849777,76.1743011 200.442941,78.9453961 C200.036106,81.7167805 192.57476,101.673988 188.983267,107.590846 C184.704263,114.640387 176.904659,126.668814 172.206378,128.011832 C167.508386,129.354849 157.171125,129.797796 155.703219,124.465073 C154.235603,119.13235 156.15722,111.974315 158.834346,110.552602 C161.511183,109.130311 165.077791,106.61671 165.077791,106.61671" id="Fill-17" fill="#988BB3" mask="url(#mask-4)"></path><path d="M105.146246,102.873099 C105.146246,102.873099 126.214581,112.543289 137.523212,111.566838 C148.832131,110.590387 164.111311,106.862515 165.077762,106.616594 C166.044213,106.370962 163.61275,112.371433 166.67067,118.479531 C169.728589,124.587918 179.872559,124.462354 179.872559,124.462354 C179.872559,124.462354 176.910996,129.263888 168.96845,134.004954 C161.687661,138.3511 150.78442,142.436571 139.735921,142.979911 C130.724202,143.422858 118.358553,143.446872 112.622639,140.996052 C99.1218437,135.226458 98.9271068,122.581492 97.3434587,118.540288 C95.0870568,112.782555 105.146246,102.873099 105.146246,102.873099" id="Fill-18" fill="#43597A" mask="url(#mask-4)"></path><path d="M9.61994589,159.757853 C9.61994589,159.757853 -2.16438655,182.005308 0.352436206,200.896376 C2.86954832,219.787444 4.50614863,220.293463 6.46306657,220.8721 C8.42027388,221.450738 10.6355872,216.80775 11.5499537,205.789335 C11.9978775,200.394408 15.9475936,185.572898 19.6866582,178.001715 C23.4254334,170.430822 33.7259458,162.121587 33.8955087,156.030849 C34.0647822,149.94011 24.52412,148.994617 19.7760693,151.217453 C15.0277293,153.440867 9.61994589,159.757853 9.61994589,159.757853" id="Fill-20" fill="#978AB2" mask="url(#mask-4)"></path><path d="M74.0664073,93.9965968 C64.8981469,98.7660165 52.7289703,105.478212 47.7086352,122.106518 C42.6880107,138.734824 28.8813658,171.677815 29.50898,196.149842 C30.1365942,220.621868 32.6467618,231.289051 42.3740589,235.054245 C52.1016454,238.818861 80.9695851,241.32899 97.2863976,235.054245 C113.60321,228.779211 110.779091,227.210235 110.779091,227.210235 C110.779091,227.210235 101.051794,209.327154 102.620684,184.227594 C104.189575,159.128035 115.172101,145.951012 115.486053,134.969919 C115.799715,123.988826 106.700032,101.085774 101.365745,96.0655152 C96.0311691,91.0458348 81.2739881,90.2473151 74.0664073,93.9965968" id="Fill-21" fill="#143059" mask="url(#mask-4)"></path><path d="M68.474622,94.0850415 C49.2752402,98.7937043 43.1099214,109.220174 31.862924,122.639067 C20.6162159,136.05796 9.62009056,159.757795 9.62009056,159.757795 C9.62009056,159.757795 17.8381043,154.426518 23.3263288,158.853385 C29.1319774,163.536009 27.7164455,170.215511 27.7164455,170.215511 C27.7164455,170.215511 31.5460786,166.764806 36.5539714,161.939548 C42.5751906,156.138128 50.3649567,148.457583 56.1225722,143.825011 C68.7946503,133.629418 90.5837728,124.561879 87.6323366,108.960944 C84.5952508,92.9078035 77.9218221,91.7678876 68.474622,94.0850415" id="Fill-22" fill="#43597A" mask="url(#mask-4)"></path><path d="M137.943126,56.5029692 C137.83346,56.3901349 137.723504,56.2712249 137.613838,56.1526042 C135.632325,53.9942863 134.842671,51.9673191 134.175126,48.3100407 C134.117254,47.9865823 134.053306,47.6726715 133.986176,47.3648363 L115.463888,49.1785756 C113.543429,50.248187 114.859712,48.620769 111.838251,49.1785756 C109.92329,49.5318338 109.860789,51.7297884 108.095714,51.2237699 L108.016431,51.2391038 C108.016431,51.2391038 106.345686,50.9341618 104.516664,51.717637 L104.644849,51.684076 C104.644849,51.684076 100.593279,52.8361433 103.035159,63.9312283 C104.843058,72.1516421 95.9873027,73.502182 91.2771577,73.6511812 C90.5335115,79.7170382 80.9506033,88.2918675 78.9352353,89.7248632 C76.919578,91.157859 73.6970148,93.2082611 73.6970148,93.2082611 C73.6970148,93.2082611 77.7714435,94.4375765 80.2118762,96.3357968 C82.6525982,98.2337278 95.6487556,110.121257 95.6487556,110.121257 L95.8012465,110.405079 C98.239943,107.018603 103.479321,110.728248 104.68044,105.983709 C104.68044,105.983709 105.744404,98.9952148 107.644318,92.4071374 C109.544233,85.8187707 115.498321,78.4000592 122.999599,78.7692299 C135.726655,79.3953157 134.431206,76.0959246 134.973749,73.6511812 C135.2116,72.5723115 135.33342,72.106219 135.33342,72.106219 L135.717685,70.9691963 C136.519492,69.1493813 136.949186,69.4543233 136.147669,68.0823738 L132.462714,66.3719213 L136.75416,65.7631946 C136.961339,65.5589356 137.022393,65.180796 136.885238,64.9218557 C134.431206,60.3069322 137.369911,59.4901854 138.11674,58.4356185 C138.534281,57.8410685 138.44921,57.0272148 137.943126,56.5029692" id="Fill-23" fill="#988BB3" mask="url(#mask-4)"></path><path d="M136.818542,46.0688619 C133.980244,36.8607139 124.914126,34.4130772 123.530134,34.1966668 L122.070041,33.9041655 C90.1192977,28.6188905 87.1499214,45.889195 88.3053219,58.4867122 C88.7167868,62.9795431 89.8386219,66.9084918 90.6768877,69.0636272 C90.7440184,69.234036 90.8079662,69.4047341 90.8661268,69.5754321 C91.3322801,70.8860461 91.4483121,72.2579956 91.2775918,73.6507761 C95.5513871,73.5165322 103.242772,72.389057 103.273154,66.0306987 C103.303826,65.8021369 103.303826,65.5278627 103.258108,65.1893598 C102.633098,60.699422 101.520522,56.0726365 105.660345,54.4023993 C108.474048,53.2685591 111.726704,57.16684 111.726704,57.16684 L111.744934,57.1029006 C112.686789,58.0570738 114.330913,59.0355499 115.525087,57.6392976 C116.718972,56.2430452 116.997911,53.5937534 123.459242,50.6658476 C128.53658,48.3648955 135.718119,48.4797551 135.718119,48.4797551 C136.635668,48.0625574 137.114264,47.032004 136.818542,46.0688619" id="Fill-24" fill="#231F20" mask="url(#mask-4)"></path><path d="M104.845373,25.1718022 C104.013184,38.2021403 92.7734201,48.0901874 79.7413825,47.2581066 C66.7090555,46.4257366 56.8200081,35.1877282 57.6521974,22.1571008 C58.4875696,9.12676266 69.7241502,-0.761284441 82.7561878,0.0707962994 C95.7882254,0.90287704 105.677562,12.1411748 104.845373,25.1718022" id="Fill-25" fill="#231F20" mask="url(#mask-4)"></path><path d="M107.430773,33.3699095 L88.9449444,47.9825319 C88.8413548,48.0646984 88.685681,48.0435781 88.6095802,47.9307438 C86.8505821,45.3977581 87.365926,41.9349019 89.7861037,40.0239516 L103.790958,28.9505655 C104.083497,28.7188212 104.513481,28.7827606 104.726737,29.0905958 L107.476491,33.0531055 C107.549699,33.1537884 107.528286,33.2938187 107.430773,33.3699095" id="Fill-26" fill="#FAA919" mask="url(#mask-4)"></path><path d="M104.582348,103.791049 C104.582348,103.791049 104.834377,111.226252 105.590755,115.889202 C106.346844,120.552153 106.965777,123.072698 103.253334,124.080684 C99.5408897,125.088671 89.7531171,125.592664 86.9585121,118.661455 C84.1641965,111.730245 85.1063412,105.52754 82.9037596,100.892365 C80.7008886,96.2574782 77.3579531,94.4654378 82.0215117,92.3227431 C86.6847809,90.1806271 104.582348,103.791049 104.582348,103.791049" id="Fill-27" fill="#978AB2" mask="url(#mask-4)"></path><path d="M202.872581,70.3317981 C202.872581,70.3317981 201.742065,52.3153406 201.081175,50.6520471 C200.420285,48.9884643 198.204971,48.021561 198.204971,48.021561 L198.939069,64.0573423 L202.872581,70.3317981 Z" id="Fill-28" fill="#766499" mask="url(#mask-4)"></path><path d="M200.97446,67.660113 C200.97446,67.660113 199.843944,49.6436555 199.183054,47.980362 C198.522164,46.3167791 196.306851,45.3498759 196.306851,45.3498759 L197.040948,61.3859465 L200.97446,67.660113 Z" id="Fill-29" fill="#766499" mask="url(#mask-4)"></path><path d="M189.719014,74.2384404 C189.659985,81.5116246 192.62097,87.4322436 196.332256,87.4621607 C200.043543,87.4924219 203.100015,81.6204084 203.159044,74.3472242 C203.217783,67.0737507 200.256798,61.1531317 196.545512,61.1232167 C192.834226,61.0932427 189.777753,66.9649669 189.719014,74.2384404" id="Fill-30" fill="#988BB3" mask="url(#mask-4)"></path><path d="M197.67461,64.8952094 C197.98017,65.1336081 198.424043,64.8995492 198.39858,64.51273 C198.150312,60.7078991 197.23826,47.2574701 196.6717,45.8311287 C196.254738,44.7814802 195.219131,44.0095778 194.511365,43.5825433 C194.203779,43.3968007 193.814884,43.6291236 193.831377,43.9878789 L194.672247,62.3520976 C194.678323,62.4828696 194.741114,62.6046728 194.844414,62.6851034 L197.67461,64.8952094 Z" id="Fill-31" fill="#988BB3" mask="url(#mask-4)"></path><path d="M195.415228,66.3327475 C195.714422,66.5665171 196.149036,66.3379553 196.12444,65.959237 C195.877909,62.1844952 194.963542,48.6848821 194.395825,47.2556474 C193.975968,46.1990553 192.928787,45.4233918 192.220732,44.9983825 C191.919223,44.817269 191.538719,45.0438056 191.554633,45.3953278 L192.396661,63.7812454 C192.402448,63.9094136 192.464081,64.0283236 192.565356,64.107597 L195.415228,66.3327475 Z" id="Fill-32" fill="#988BB3" mask="url(#mask-4)"></path><path d="M194.873523,69.8814156 C194.785559,69.8582701 193.27859,58.9037941 190.878378,57.0567832 C188.478166,55.2097722 188.529961,56.9942903 188.529961,56.9942903 L189.791845,76.3994779 L194.873523,69.8814156 Z" id="Fill-33" fill="#A297BB" mask="url(#mask-4)"></path><path d="M189.801451,78.4228286 C189.762678,83.2052676 191.709468,87.0980515 194.149901,87.1180893 C196.590333,87.1376881 198.599914,83.2767294 198.638688,78.4942903 C198.677462,73.7118513 196.730671,69.8190675 194.290239,69.7990296 C191.849806,69.7794308 189.840225,73.6403896 189.801451,78.4228286" id="Fill-34" fill="#A297BB" mask="url(#mask-4)"></path></g><g id="Group-95" transform="translate(200.000000, 15.000000)"><g id="Group-40"><mask id="mask-6" fill="white"><use xlink:href="#path-5"></use></mask><g id="Clip-39"></g><path d="M17.1163003,58.4661368 C17.2223819,58.4493623 20.3111446,45.730524 23.350614,43.8457054 C26.3903717,41.9608868 26.1147901,44.0562544 26.1147901,44.0562544 L22.2946982,66.7570828 L17.1163003,58.4661368 Z" id="Fill-38" fill="#143059" mask="url(#mask-6)"></path></g><g id="Group-43"><mask id="mask-8" fill="white"><use xlink:href="#path-7"></use></mask><g id="Clip-42"></g><path d="M17.9375969,52.8572034 C17.4305383,53.4743897 16.4377526,53.0038358 16.5937041,52.2194828 C17.7582959,46.355924 20.3137679,33.792973 21.097273,32.3789975 C21.6432474,31.3939289 22.6743724,30.7073309 23.5195663,30.2801593 C24.0845663,29.9949926 24.7314337,30.4765368 24.6213163,31.1015319 L21.5977015,48.2453701 C21.5746403,48.3758064 21.5181403,48.4981446 21.4342551,48.6002377 L17.9375969,52.8572034 Z" id="Fill-41" fill="#43597A" mask="url(#mask-8)"></path></g><g id="Group-46"><mask id="mask-10" fill="white"><use xlink:href="#path-9"></use></mask><g id="Clip-45"></g><path d="M19.2466097,54.9842402 C18.739551,55.6014265 17.7467653,55.1308725 17.9024286,54.3465196 C19.0673087,48.4829608 21.6227806,35.9200098 22.4062857,34.5060343 C22.9522602,33.5209657 23.9833852,32.8343676 24.8285791,32.4071961 C25.3935791,32.1220294 26.0404464,32.6035735 25.9303291,33.2285686 L22.0776633,54.730598 C22.054602,54.8610343 21.9983903,54.9833725 21.9142168,55.0857549 L19.2466097,54.9842402 Z" id="Fill-44" fill="#43597A" mask="url(#mask-10)"></path></g><g id="Group-49"><mask id="mask-12" fill="white"><use xlink:href="#path-11"></use></mask><g id="Clip-48"></g><path d="M23.1125934,63.161351 C22.1685245,70.9334441 18.1991112,76.8421206 14.2467056,76.3588412 C10.2945883,75.8755618 7.85586378,69.1831108 8.79993265,61.4110176 C9.7442898,53.6389245 13.7137031,47.7305373 17.6658204,48.2135275 C21.618226,48.6968069 24.0566622,55.3892578 23.1125934,63.161351" id="Fill-47" fill="#43597A" mask="url(#mask-12)"></path></g><g id="Group-52"><mask id="mask-14" fill="white"><use xlink:href="#path-13"></use></mask><g id="Clip-51"></g><path d="M15.6276694,52.4674275 C15.233899,52.7008245 14.7501898,52.3578147 14.8386872,51.9075059 C15.7086719,47.4790353 18.8233786,31.8278392 19.7034526,30.2397559 C20.3508964,29.0713245 21.6800878,28.3231235 22.5731337,27.929501 C22.961427,27.7585745 23.3808531,28.0908833 23.3070571,28.5096676 L19.5273224,49.9402608 C19.5005138,50.0929667 19.4085571,50.2262951 19.2753786,50.3049618 L15.6276694,52.4674275 Z" id="Fill-50" fill="#43597A" mask="url(#mask-14)"></path></g><g id="Group-55"><mask id="mask-16" fill="white"><use xlink:href="#path-15"></use></mask><g id="Clip-54"></g><path d="M13.4005316,54.500151 C13.0151209,54.7286314 12.5412128,54.3940088 12.6276923,53.9532441 C13.4904704,49.5594794 16.6155546,33.8510186 17.4973582,32.2600431 C18.1494143,31.0835137 19.4927306,30.3327098 20.3857765,29.9416902 C20.7662867,29.775102 21.1770648,30.0993127 21.1047102,30.5094206 L17.3206515,51.9654647 C17.2941311,52.1152784 17.2039041,52.2457147 17.0738964,52.3229353 L13.4005316,54.500151 Z" id="Fill-53" fill="#43597A" mask="url(#mask-16)"></path></g><g id="Group-58"><mask id="mask-18" fill="white"><use xlink:href="#path-17"></use></mask><g id="Clip-57"></g><path d="M22.987025,62.212926 C22.1793056,68.8614162 18.7835403,73.9163279 15.4027648,73.5027495 C12.021701,73.0891711 9.93581327,67.3644358 10.7435327,60.7156564 C11.551252,54.0674554 14.9467291,49.0125436 18.3275046,49.4261221 C21.7085684,49.8397005 23.7947444,55.564725 22.987025,62.212926" id="Fill-56" fill="#43597A" mask="url(#mask-18)"></path></g><g id="Group-61"><mask id="mask-20" fill="white"><use xlink:href="#path-19"></use></mask><g id="Clip-60"></g><path d="M189.895751,206.438079 L189.547526,217.724143 L189.428472,218.545804 C189.180853,220.235692 187.783631,221.474981 186.143113,221.463701 L186.095837,222.048496 C185.943921,223.970912 184.477228,225.485535 182.629735,225.627829 L181.817404,227.109192 C181.408643,227.853344 180.637534,228.301628 179.811942,228.270393 L178.037669,228.206187 L176.372072,230.711662 C175.900758,231.421398 175.017802,231.68603 174.251592,231.348226 C173.406975,230.976005 172.975154,229.991226 173.263419,229.08627 L174.365745,225.607005 C174.365745,225.607005 172.67334,226.931035 170.490307,226.60451 C170.059062,226.539148 169.822108,226.043143 170.047819,225.655594 C171.028498,223.972648 173.252753,219.658417 172.784898,215.906422 C172.189054,211.123951 176.426266,204.080971 178.869891,202.701412 C181.313516,201.322432 181.726888,198.109535 183.024947,195.731025 C184.323006,193.351937 191.670312,197.522138 191.670312,197.522138 L193.231557,198.175187 C193.231557,198.175187 190.971557,201.4815 189.895751,206.438079" id="Fill-59" fill="#43597A" mask="url(#mask-20)"></path></g><g id="Group-64"><mask id="mask-22" fill="white"><use xlink:href="#path-21"></use></mask><g id="Clip-63"></g><path d="M181.670071,188.302491 C181.670071,188.302491 181.412074,188.707682 180.879359,194.463364 C180.553043,197.984565 179.628288,201.328766 185.170189,202.367339 C189.318326,203.144462 190.965186,203.734462 192.703714,200.658653 C194.277931,197.873217 196.13753,191.426021 196.13753,191.426021 L181.670071,188.302491 Z" id="Fill-62" fill="#FDDDA3" mask="url(#mask-22)"></path></g><g id="Group-67"><mask id="mask-24" fill="white"><use xlink:href="#path-23"></use></mask><g id="Clip-66"></g><path d="M100.754922,33.7551147 C100.754922,33.7551147 100.853797,32.4984725 101.0478,30.2133794 L112.1267,28.8902176 C117.320088,28.3430216 120.184292,30.9456735 120.17132,35.2049529 L120.066968,43.824448 C120.033529,46.7735804 122.420366,46.5910853 125.360096,46.6275265 C125.365573,46.6263696 125.37105,46.625502 125.373932,46.6249235 C125.891945,46.6390951 126.333568,46.2509676 126.338756,45.7295118 L126.357205,44.1654333 L126.391221,44.1651441 C126.389779,44.1399824 126.387761,44.1119284 126.389203,44.0861882 C126.421777,41.4332127 128.590685,39.3115265 131.231483,39.3418941 C133.875741,39.3745755 135.99305,41.5500559 135.959899,44.2001392 C135.959323,44.2287716 135.957881,44.254801 135.956728,44.2805412 L135.959323,44.2799627 L135.896481,49.4974137 C135.833062,54.8114627 139.279851,59.3651637 144.083792,60.9032127 C143.37783,65.8548745 148.543545,77.5377422 148.543545,77.5377422 L124.603111,86.9089088 C124.46532,75.5864039 116.968404,69.990948 109.150937,69.2849725 C101.949205,68.6333696 103.092754,62.1482863 103.092754,62.1482863 L103.070557,61.2817961 C102.027325,60.5440069 101.222777,60.0101147 101.656616,58.8072667 L105.275499,56.5010608 L101.253333,56.4929627 C100.826412,56.1479284 100.649994,55.5749922 100.804504,55.0483304 L101.52142,51.0473206 C101.009749,50.7705412 100.565532,50.4908696 100.181562,50.2149578 C98.7255344,49.166551 98.1023048,47.2938794 98.6540446,45.5817225 C100.275825,40.5476343 100.754922,33.7551147 100.754922,33.7551147" id="Fill-65" fill="#43597A" mask="url(#mask-24)"></path></g><g id="Group-70"><mask id="mask-26" fill="white"><use xlink:href="#path-25"></use></mask><g id="Clip-69"></g><path d="M144.083533,60.9043985 C139.279015,59.3634574 135.832803,54.8129377 135.898528,49.4954181 L135.959352,44.2808593 L135.956469,44.2814377 C135.95791,44.2559868 135.961369,44.226776 135.959928,44.201325 C135.992502,41.5483495 133.875193,39.3728691 131.231512,39.3430799 C128.589849,39.3101093 126.421517,41.4343985 126.389232,44.087374 C126.390673,44.1125358 126.389232,44.138276 126.391249,44.1663299 L126.357234,44.1666191 L126.338785,45.7306975 C126.333596,46.2521534 125.894857,46.6397025 125.373673,46.6261093 C125.37079,46.6266877 125.365025,46.6249525 125.362431,46.6252417 C122.419818,46.5896681 120.032982,46.7377466 120.068727,43.7857221 L120.15463,36.5284328 L150.165931,36.8911093 C149.985765,45.4157417 146.272619,53.6980113 145.085255,56.9291289 C144.575313,58.3185211 144.260239,59.6546975 144.083533,60.9043985" id="Fill-68" fill="#A1ACBD" mask="url(#mask-26)"></path></g><g id="Group-73"><mask id="mask-28" fill="white"><use xlink:href="#path-27"></use></mask><g id="Clip-72"></g><path d="M99.6623679,23.5147971 C101.739896,20.4022578 97.3522097,19.6147235 100.740192,17.1433755 C101.731536,16.4197578 102.094174,15.6498657 102.113488,14.9271157 C102.138279,14.0698804 102.842799,13.392248 103.698082,13.3884882 L116.147108,13.3277529 C123.037513,13.2788755 127.461233,13.5429294 130.265766,14.3556255 C137.755475,16.5221402 141.197939,21.3523314 141.250692,23.8714 C141.250692,23.8714 148.529103,24.7092578 150.067286,33.7909196 C150.159819,34.8216843 150.187781,35.8576549 150.167314,36.8904441 L120.156013,36.5277676 L120.170427,35.206052 C120.18311,30.9467725 117.321501,28.3435422 112.128401,28.8907382 L101.101388,30.2702971 C101.081786,30.2708755 101.061608,30.268851 101.041717,30.2691402 C100.895279,26.4098461 97.7136944,26.4347186 99.6623679,23.5147971" id="Fill-71" fill="#143059" mask="url(#mask-28)"></path></g><g id="Group-76"><mask id="mask-30" fill="white"><use xlink:href="#path-29"></use></mask><g id="Clip-75"></g><path d="M154.165064,74.1134284 C154.165064,74.1134284 150.03797,68.6631588 147.828416,68.0260167 C145.618863,67.3888745 136.953607,69.0249676 133.047036,70.8030657 C129.140465,72.5808745 122.700329,78.4071245 121.433403,80.7373353 C120.166477,83.0678353 115.837597,88.4703843 115.837597,88.4703843 C115.837597,88.4703843 131.536814,87.0931392 138.468442,84.7626392 C145.400069,82.4324284 154.165064,74.1134284 154.165064,74.1134284" id="Fill-74" fill="#FDDDA3" mask="url(#mask-30)"></path></g><g id="Group-79"><mask id="mask-32" fill="white"><use xlink:href="#path-31"></use></mask><g id="Clip-78"></g><path d="M167.08745,257.430391 C167.606142,262.037016 169.630891,269.136594 171.159668,275.035645 C173.444004,283.850153 175.219458,291.400214 174.017348,295.325454 C172.010733,301.877925 146.136904,311.358994 139.992817,297.427763 C133.849019,283.496533 118.906787,236.873807 129.806386,222.014773 C140.705697,207.155739 160.488192,208.156714 160.488192,208.156714 C160.488192,208.156714 165.793715,245.940719 167.08745,257.430391 Z" id="Fill-77" fill="#43597A" mask="url(#mask-32)"></path></g><g id="Group-82"><mask id="mask-34" fill="white"><use xlink:href="#path-33"></use></mask><g id="Clip-81"></g><path d="M101.82577,220.785028 C101.82577,220.785028 93.4087115,282.968425 94.2123952,300.624175 C95.0160788,318.279925 138.104247,313.143165 143.219803,301.596229 C148.335359,290.049293 166.995061,247.9982 162.20928,209.899817 C160.026535,192.524317 101.82577,220.785028 101.82577,220.785028 L124.168999,265.667372" id="Fill-80" fill="#143059" mask="url(#mask-34)"></path></g><g id="Group-85" transform="translate(134.000000, 77.000000)" fill="#FCBB47"><path d="M27.3422936,4.79768676 C27.3422936,4.79768676 49.5467936,49.8840985 56.0189263,66.8451525 C62.4913472,83.8062064 67.2477247,113.634177 61.1483191,116.360902 C55.4072273,118.927402 49.4098676,118.422143 47.637036,114.992912 C45.5381763,110.931746 45.2406865,85.3361574 38.1257222,77.3914025 C31.0110462,69.4463583 27.6268115,71.6371672 15.207189,64.3949172 C2.85184974,57.1902652 -4.4977625,33.7071083 4.33382168,14.6122211 C13.1651176,-4.48324461 23.3979594,0.057152451 27.3422936,4.79768676" id="Fill-83"></path></g><g id="Group-88" transform="translate(99.000000, 69.000000)" fill="#FBAA19"><path d="M3.26817092,64.5136794 C0.0655433673,47.9236892 -1.23251531,35.1799784 7.58407908,25.0854833 C15.9423316,15.5150471 24.7767985,9.31946863 33.6317321,5.56371373 C42.8495918,1.65351765 58.5983903,-6.48067353 64.7589082,16.3343951 C70.919426,39.1497529 72.7421276,66.1662578 71.3498061,82.0034196 C69.9571964,97.8402922 64.3706148,132.163831 62.679074,140.72317 C60.9875332,149.282219 57.2423903,154.984684 29.8713112,159.635851 C2.50023214,164.287018 0.866344388,150.24791 1.5567398,140.782748 C2.24742347,131.317297 6.85880357,101.68339 5.36357143,89.6786255 C3.86833929,77.6735716 4.91503061,73.0449637 3.26817092,64.5136794" id="Fill-86"></path></g><g id="Group-91" transform="translate(8.000000, 65.000000)" fill="#FDDDA3"><path d="M19.4903344,9.37659902 C19.4903344,9.37659902 15.5116967,3.55844706 14.6575666,2.58812843 C13.8031482,1.61809902 9.20819923,-2.02283725 3.75681403,4.41973137 C1.19557679,7.44666275 0.151768112,9.39221667 0.910770663,12.6626676 C1.76749515,16.3542167 4.61584464,21.5522902 4.61584464,21.5522902 L19.4903344,9.37659902 Z" id="Fill-89"></path></g><g id="Group-94" transform="translate(11.000000, 74.000000)" fill="#FCBB47"><path d="M105.068036,13.7602152 C105.068036,13.7602152 61.9452763,29.1317397 43.6868401,20.9761466 C25.4284038,12.8202642 23.9103987,5.47360735 16.5045747,1.42024951 C9.09903903,-2.63310833 -0.300716071,8.05746029 0.342980357,14.1301221 C0.986676786,20.2027838 2.68628903,26.2095044 13.0280952,34.8625485 C23.3701895,43.5155926 47.137664,55.0466221 63.2349753,58.2881515 C79.3322865,61.5296809 115.451641,62.9818328 130.424718,39.7147201 C145.397794,16.4478966 116.644771,10.7789799 105.068036,13.7602152" id="Fill-92"></path></g></g></g></g></svg> 