<svg width="1780" height="660" viewBox="0 0 1780 660" fill="none" xmlns="http://www.w3.org/2000/svg">
<g clip-path="url(#clip0)">
<rect width="1780" height="660" fill="white"/>
<g clip-path="url(#clip1)">
<path d="M1781.77 -4H-35.35V977.75H1781.77V-4Z" fill="url(#paint0_linear)"/>
<path opacity="0.57" d="M257.95 749.92L204.45 696.42L628.53 272.34L682.03 325.84L257.95 749.92Z" fill="url(#paint1_linear)"/>
<path d="M637.45 281.26L477.51 441.19C475.05 443.65 475.05 447.64 477.51 450.11C479.97 452.57 483.96 452.57 486.43 450.11L517.32 419.22C519.78 416.76 523.77 416.76 526.24 419.22C528.7 421.68 528.7 425.67 526.24 428.14L428.37 526.01C425.91 528.47 425.91 532.46 428.37 534.93C430.83 537.39 434.82 537.39 437.29 534.93L562.74 409.48C565.2 407.02 569.19 407.02 571.66 409.48C574.12 411.94 578.11 411.94 580.58 409.48L673.13 316.93L637.45 281.26Z" fill="url(#paint2_linear)"/>
<path d="M646.36 290.17L587.5 349.03C585.04 351.49 585.04 355.48 587.5 357.95C589.96 360.41 589.96 364.4 587.5 366.87L580.69 373.68C578.23 376.14 578.23 380.13 580.69 382.6C583.15 385.06 587.14 385.06 589.61 382.6L664.2 308.01L646.36 290.17Z" fill="url(#paint3_linear)"/>
<path d="M578.41 367.48C580.553 367.48 582.29 365.743 582.29 363.6C582.29 361.457 580.553 359.72 578.41 359.72C576.267 359.72 574.53 361.457 574.53 363.6C574.53 365.743 576.267 367.48 578.41 367.48Z" fill="#ECAA43"/>
<path d="M677.98 327.53L626.85 276.4C625.75 275.3 626.11 273.44 627.54 272.83L650.36 263.01L691.39 304.04L681.57 326.86C680.94 328.27 679.08 328.62 677.98 327.53Z" fill="url(#paint4_linear)"/>
<path d="M690.17 315.33L639.04 264.2C637.94 263.1 638.3 261.24 639.73 260.63L662.55 250.81L703.58 291.84L693.76 314.66C693.13 316.08 691.27 316.43 690.17 315.33Z" fill="url(#paint5_linear)"/>
<path d="M732.8 165.85L788.52 221.57L794.04 216.05C799.27 210.82 803.2 204.44 805.51 197.42L824.57 139.59C825.49 136.81 824.76 133.75 822.69 131.68C820.62 129.61 817.56 128.88 814.78 129.8L756.95 148.86C749.93 151.17 743.55 155.1 738.32 160.33L732.8 165.85Z" fill="#D0D3D2"/>
<path d="M655.04 255.72L698.65 299.33C701.99 302.67 707.41 302.67 710.76 299.33L788.52 221.57L732.8 165.85L655.04 243.61C651.7 246.96 651.7 252.38 655.04 255.72Z" fill="#D0D3D2"/>
<path opacity="0.07" d="M681.55 326.84L687.61 312.77L690.17 315.33C691.27 316.43 693.13 316.07 693.74 314.64L699.89 300.35C703.22 302.62 707.8 302.28 710.75 299.32L788.51 221.56L794.03 216.04C799.26 210.81 803.19 204.43 805.5 197.41L824.56 139.58C825.48 136.8 824.75 133.74 822.68 131.67L652.41 301.96L677.98 327.53C679.08 328.62 680.94 328.27 681.55 326.84Z" fill="#383C3F"/>
<g opacity="0.32">
<path opacity="0.32" d="M704.4 268.38L686 249.98C684.32 248.3 684.32 245.58 686 243.9L710.48 268.38C708.8 270.06 706.08 270.06 704.4 268.38Z" fill="#383C3F"/>
<path opacity="0.32" d="M710.48 262.29L692.08 243.89C690.4 242.21 690.4 239.49 692.08 237.81L716.56 262.29C714.88 263.97 712.16 263.97 710.48 262.29Z" fill="#383C3F"/>
<path opacity="0.32" d="M716.56 256.21L698.16 237.81C696.48 236.13 696.48 233.41 698.16 231.73L722.64 256.21C720.96 257.89 718.24 257.89 716.56 256.21Z" fill="#383C3F"/>
</g>
<path opacity="0.32" d="M790.64 219.446L734.92 163.726L729.037 169.609L784.757 225.329L790.64 219.446Z" fill="#383C3F"/>
<path d="M813.2 213.88L731.55 295.53L722.81 286.79C716.66 280.64 716.66 270.67 722.81 264.52L782.19 205.14C788.34 198.99 798.31 198.99 804.46 205.14L813.2 213.88Z" fill="url(#paint6_linear)"/>
<path d="M406.33 751.94C444.841 751.94 476.06 720.721 476.06 682.21C476.06 643.699 444.841 612.48 406.33 612.48C367.819 612.48 336.6 643.699 336.6 682.21C336.6 720.721 367.819 751.94 406.33 751.94Z" fill="#E1EDF3"/>
<path d="M110.85 751.95C195.786 751.95 264.64 683.096 264.64 598.16C264.64 513.224 195.786 444.37 110.85 444.37C25.9141 444.37 -42.94 513.224 -42.94 598.16C-42.94 683.096 25.9141 751.95 110.85 751.95Z" fill="#E1EDF3"/>
<path d="M302.49 709.6C358.083 709.6 403.15 664.533 403.15 608.94C403.15 553.347 358.083 508.28 302.49 508.28C246.897 508.28 201.83 553.347 201.83 608.94C201.83 664.533 246.897 709.6 302.49 709.6Z" fill="#E1EDF3"/>
<path d="M-53.07 751.95C-12.2396 751.95 20.86 718.85 20.86 678.02C20.86 637.19 -12.2396 604.09 -53.07 604.09C-93.9004 604.09 -127 637.19 -127 678.02C-127 718.85 -93.9004 751.95 -53.07 751.95Z" fill="#E1EDF3"/>
<path d="M-57.5619 751.945L410.568 751.945L410.568 654.215L-57.5619 654.215L-57.5619 751.945Z" fill="#E1EDF3"/>
<path d="M981.388 90.4004L855.85 215.939L890.893 250.983L1016.43 125.444L981.388 90.4004Z" fill="#5C6266"/>
<path d="M985.254 86.5292L981.379 90.4041L1010.29 119.31L1014.16 115.435L985.254 86.5292Z" fill="#EBEBEB"/>
<path d="M1034.21 86.5199C1020.69 72.9999 998.78 72.9999 985.27 86.5199L1009.74 110.99L1034.21 86.5199Z" fill="#F5CE8D"/>
<path d="M577.99 505.52L580.97 541.17L577.99 546.95L554.8 601.32C553.71 603.88 551.2 605.54 548.42 605.54H539.85V505.52H577.99Z" fill="#383C3F"/>
<g opacity="0.8">
<path opacity="0.44" d="M539.85 523.27V505.52L579.03 544.78L571.85 561.35L539.85 523.27Z" fill="url(#paint7_linear)"/>
</g>
<path d="M708.69 336.794L539.849 505.636L588.738 554.525L757.579 385.683L708.69 336.794Z" fill="#383C3F"/>
<path opacity="0.36" d="M707.559 337.915L539.842 505.632L551.629 517.419L719.346 349.702L707.559 337.915Z" fill="#5C6266"/>
<path d="M684.92 337.94L745.15 398.17L885.68 257.64C900.57 242.75 902.17 217 887.28 202.11L880.98 195.81C866.09 180.92 840.34 182.52 825.45 197.41L684.92 337.94Z" fill="#383C3F"/>
<path d="M885.34 206.67L895.81 217.14L916.68 196.27C919.95 193 924.4 191.16 929.03 191.16H933.18L904.05 163.69L885.35 182.39C878.63 189.09 878.63 199.97 885.34 206.67Z" fill="#DFB680"/>
<g opacity="0.12">
<path opacity="0.12" d="M635.21 330.29L670.67 398.39L859.67 209.39C863.69 205.37 869.28 203.35 874.94 203.87L887.03 204.98L825.33 140.17L635.21 330.29Z" fill="#CED1D0"/>
</g>
<path d="M880.97 195.81L887.27 202.11C892.85 207.69 897.15 218.83 897.27 222.57C897.55 231.31 892.11 240.03 886.46 245.68L882.27 230.66C882.28 230.67 866.08 180.92 880.97 195.81Z" fill="#EBEBEB"/>
<path d="M899.98 219.87L892.42 227.44L885.41 227.52L895.8 217.13L899.98 219.87Z" fill="#3F9143"/>
<path d="M883.62 239.86L876.44 236.49L890.21 222.71L883.62 239.86Z" fill="#3F9143"/>
<path opacity="0.44" d="M720.49 422.8L671.58 373.88L696.22 349.24L745.13 398.16L720.49 422.8Z" fill="url(#paint8_linear)"/>
<path d="M887.41 180.22C885.85 181.78 885.29 184.09 885.98 186.2L896.05 216.9L882.28 230.67L868.01 187.15L880.89 179.14C883.07 177.98 885.76 178.38 887.5 180.12L887.41 180.22Z" fill="#EBEBEB"/>
<path d="M701.2 321.16L813.54 208.82C823.22 199.14 838.91 199.14 848.58 208.82C858.26 218.5 858.26 234.19 848.58 243.86L736.25 356.2L701.2 321.16Z" fill="#5C6266"/>
<path d="M732.385 360.069L736.259 356.194L707.353 327.288L703.478 331.163L732.385 360.069Z" fill="#EBEBEB"/>
<path d="M683.42 360.07C696.94 373.59 718.85 373.59 732.36 360.07L707.9 335.6L683.42 360.07Z" fill="#F5CE8D"/>
<path d="M945.03 107.76V183.62C945.03 187.78 941.66 191.15 937.5 191.15H916.56C911.86 191.15 907.35 193.02 904.03 196.34L892.95 207.44L884.89 182.83L880.68 175.57V129.17C880.68 117.34 890.27 107.75 902.1 107.75H945.03V107.76Z" fill="#F5CE8D"/>
<path d="M954.86 83.8899L952.84 85.9699C948.34 90.5999 942.17 93.2099 935.71 93.2099H896.98C881.77 93.2099 869.44 105.54 869.44 120.75V155.1C869.44 162.17 872.25 168.95 877.25 173.94L884.89 182.85V148.49C884.89 143.53 891.12 141.04 894.65 144.73C895.97 146.11 897.25 147.32 898.37 148.3C899.81 149.57 902.07 148.56 902.08 146.64C902.13 138.25 902.2 121.96 902.05 120.01H929.8C943.65 120.01 954.88 108.78 954.88 94.9299V83.8899H954.86Z" fill="#383C3F"/>
</g>
<g opacity="0.3" clip-path="url(#clip2)">
<path d="M1786.73 380.01C1763.45 380.01 1742.03 388.01 1725.07 401.4C1709.79 338.45 1653.07 291.7 1585.41 291.7C1572.46 291.7 1559.91 293.42 1547.98 296.63C1520.93 206.04 1436.98 140 1337.59 140C1216.32 140 1118.02 238.3 1118.02 359.57C1118.02 362.75 1118.1 365.92 1118.24 369.07C1113.44 368.4 1108.54 368.05 1103.55 368.05C1045.25 368.04 998 415.29 998 473.59C998 529.73 1041.83 575.63 1097.14 578.94V579.14H1585.42C1631.03 579.14 1671.66 557.89 1697.99 524.76C1714.46 557.04 1748.01 579.14 1786.73 579.14C1841.71 579.14 1886.29 534.57 1886.29 479.58C1886.29 424.59 1841.71 380.01 1786.73 380.01Z" fill="#C3E2EE"/>
<path d="M1337.59 496.48C1265.05 496.48 1206.03 437.46 1206.03 364.92C1206.03 292.38 1265.04 233.35 1337.59 233.35C1410.14 233.35 1469.15 292.37 1469.15 364.91C1469.15 437.45 1410.13 496.48 1337.59 496.48ZM1337.59 252.28C1275.48 252.28 1224.95 302.81 1224.95 364.92C1224.95 427.03 1275.48 477.56 1337.59 477.56C1399.7 477.56 1450.23 427.03 1450.23 364.92C1450.22 302.81 1399.69 252.28 1337.59 252.28Z" fill="#55AFD2"/>
<path d="M1336.04 353.71L1349.68 356.47C1361.26 358.74 1369.79 362.34 1375.26 367.27C1380.73 372.2 1383.46 378.99 1383.46 387.65C1383.46 396.74 1380.46 404.35 1374.45 410.47C1368.44 416.59 1360.19 420.46 1349.69 422.08V439.13H1330.04V422.08C1318.78 420.46 1309.69 416.32 1302.76 409.66C1295.83 403 1291.99 394.42 1291.23 383.92H1314.45C1315.31 389.55 1318.1 393.99 1322.81 397.24C1327.52 400.49 1333.5 402.11 1340.75 402.11C1346.6 402.11 1351.11 401.08 1354.31 399.02C1357.5 396.96 1359.1 394.04 1359.1 390.25C1359.1 384.51 1354.44 380.73 1345.14 378.88L1327.28 375.47C1306.17 371.47 1295.62 360.64 1295.62 342.99C1295.62 333.57 1298.73 325.72 1304.96 319.44C1311.18 313.16 1319.55 309.37 1330.05 308.07V290.7H1349.7V308.56C1359.33 310.29 1367.21 314.06 1373.33 319.85C1379.44 325.64 1382.99 333.63 1383.97 343.8H1360.59C1358.97 332.98 1351.98 327.56 1339.64 327.56C1333.79 327.56 1329.17 328.75 1325.76 331.13C1322.35 333.51 1320.65 336.81 1320.65 341.04C1320.65 344.51 1321.89 347.21 1324.39 349.16C1326.84 351.11 1330.74 352.63 1336.04 353.71Z" fill="#55AFD2"/>
</g>
<g opacity="0.3" clip-path="url(#clip3)">
<path d="M495.37 270.94C495.37 227.79 460.39 192.81 417.24 192.81C413.55 192.81 409.92 193.08 406.36 193.58C406.46 191.24 406.52 188.9 406.52 186.54C406.53 96.77 333.76 24 243.99 24C182.05 24 128.21 58.65 100.78 109.61C83.83 98.2 63.41 91.54 41.44 91.54C-17.32 91.54 -64.95 139.17 -64.95 197.93C-64.95 199.21 -64.92 200.49 -64.87 201.76C-66.01 201.71 -67.16 201.67 -68.31 201.67C-109.01 201.67 -142.01 234.67 -142.01 275.37C-142.01 314.57 -111.4 346.61 -72.79 348.92V349.07H421.97V348.91C462.92 346.46 495.37 312.49 495.37 270.94Z" fill="#C3E2EE"/>
<path d="M242.81 281.18C190.78 281.18 148.45 238.85 148.45 186.82C148.45 134.79 190.78 92.46 242.81 92.46C294.84 92.46 337.17 134.79 337.17 186.82C337.17 238.85 294.84 281.18 242.81 281.18ZM242.81 106.03C198.26 106.03 162.02 142.27 162.02 186.82C162.02 231.37 198.26 267.61 242.81 267.61C287.36 267.61 323.6 231.37 323.6 186.82C323.6 142.28 287.36 106.03 242.81 106.03Z" fill="#55AFD2"/>
<path d="M241.71 178.79L251.49 180.77C259.8 182.4 265.91 184.98 269.83 188.51C273.75 192.04 275.71 196.92 275.71 203.13C275.71 209.65 273.56 215.11 269.25 219.49C264.94 223.88 259.02 226.65 251.49 227.82V240.05H237.4V227.82C229.32 226.66 222.8 223.69 217.83 218.91C212.86 214.13 210.1 207.98 209.56 200.45H226.22C226.84 204.49 228.84 207.67 232.22 210C235.6 212.33 239.89 213.49 245.09 213.49C249.28 213.49 252.52 212.75 254.81 211.28C257.1 209.81 258.25 207.71 258.25 204.99C258.25 200.88 254.91 198.16 248.23 196.84L235.42 194.39C220.28 191.52 212.71 183.75 212.71 171.1C212.71 164.34 214.94 158.72 219.41 154.21C223.87 149.71 229.87 146.99 237.4 146.06V133.6H251.49V146.41C258.4 147.65 264.05 150.35 268.44 154.5C272.83 158.66 275.37 164.38 276.07 171.68H259.3C258.14 163.92 253.13 160.03 244.28 160.03C240.09 160.03 236.77 160.89 234.32 162.59C231.87 164.3 230.65 166.67 230.65 169.69C230.65 172.18 231.54 174.12 233.33 175.51C235.11 176.92 237.9 178.01 241.71 178.79Z" fill="#55AFD2"/>
</g>
</g>
<defs>
<linearGradient id="paint0_linear" x1="873.212" y1="977.753" x2="873.212" y2="-4" gradientUnits="userSpaceOnUse">
<stop offset="0.2542" stop-color="#BFE0ED"/>
<stop offset="1" stop-color="#55AFD2"/>
</linearGradient>
<linearGradient id="paint1_linear" x1="655.279" y1="299.084" x2="231.201" y2="723.163" gradientUnits="userSpaceOnUse">
<stop offset="0.377" stop-color="#E1EDF3" stop-opacity="0.5"/>
<stop offset="0.8307" stop-color="#E1EDF3" stop-opacity="0.2"/>
</linearGradient>
<linearGradient id="paint2_linear" x1="655.279" y1="299.084" x2="423.908" y2="530.455" gradientUnits="userSpaceOnUse">
<stop stop-color="#DE6E73"/>
<stop offset="0.3257" stop-color="#DB5758"/>
</linearGradient>
<linearGradient id="paint3_linear" x1="655.279" y1="299.084" x2="576.227" y2="378.136" gradientUnits="userSpaceOnUse">
<stop stop-color="#EDBF78"/>
<stop offset="0.5" stop-color="#ECAA43"/>
</linearGradient>
<linearGradient id="paint4_linear" x1="670.862" y1="283.502" x2="652.41" y2="301.954" gradientUnits="userSpaceOnUse">
<stop stop-color="#383C3F"/>
<stop offset="0.7206" stop-color="#4B5151"/>
</linearGradient>
<linearGradient id="paint5_linear" x1="683.053" y1="271.31" x2="664.601" y2="289.762" gradientUnits="userSpaceOnUse">
<stop stop-color="#383C3F"/>
<stop offset="0.7206" stop-color="#4B5151"/>
</linearGradient>
<linearGradient id="paint6_linear" x1="772.378" y1="254.705" x2="752.499" y2="234.827" gradientUnits="userSpaceOnUse">
<stop offset="0.0897" stop-color="#6D7173"/>
<stop offset="0.4693" stop-color="#7B7F80"/>
<stop offset="1" stop-color="#7B7F80"/>
</linearGradient>
<linearGradient id="paint7_linear" x1="549.896" y1="539.393" x2="561.809" y2="527.48" gradientUnits="userSpaceOnUse">
<stop stop-opacity="0"/>
<stop offset="0.9827"/>
</linearGradient>
<linearGradient id="paint8_linear" x1="696.03" y1="398.323" x2="720.67" y2="373.684" gradientUnits="userSpaceOnUse">
<stop stop-opacity="0"/>
<stop offset="0.9827"/>
</linearGradient>
<clipPath id="clip0">
<rect width="1780" height="660" fill="white"/>
</clipPath>
<clipPath id="clip1">
<rect width="1908.77" height="981.75" fill="white" transform="translate(-127 -4)"/>
</clipPath>
<clipPath id="clip2">
<rect width="888.29" height="439.13" fill="white" transform="translate(998 140)"/>
</clipPath>
<clipPath id="clip3">
<rect width="637.37" height="325.07" fill="white" transform="translate(-142 24)"/>
</clipPath>
</defs>
</svg>
