<?xml version="1.0" encoding="UTF-8" standalone="no"?>
<svg
   xmlns:dc="http://purl.org/dc/elements/1.1/"
   xmlns:cc="http://creativecommons.org/ns#"
   xmlns:rdf="http://www.w3.org/1999/02/22-rdf-syntax-ns#"
   xmlns:svg="http://www.w3.org/2000/svg"
   xmlns="http://www.w3.org/2000/svg"
   xmlns:sodipodi="http://sodipodi.sourceforge.net/DTD/sodipodi-0.dtd"
   xmlns:inkscape="http://www.inkscape.org/namespaces/inkscape"
   width="3600pt"
   height="2000pt"
   viewBox="0 0 3600 2000"
   version="1.2"
   id="svg225"
   sodipodi:docname="start-up.svg"
   inkscape:version="1.0.1 (3bc2e813f5, 2020-09-07)">
  <metadata
     id="metadata231">
    <rdf:RDF>
      <cc:Work
         rdf:about="">
        <dc:format>image/svg+xml</dc:format>
        <dc:type
           rdf:resource="http://purl.org/dc/dcmitype/StillImage" />
      </cc:Work>
    </rdf:RDF>
  </metadata>
  <defs
     id="defs229" />
  <sodipodi:namedview
     pagecolor="#ffffff"
     bordercolor="#666666"
     borderopacity="1"
     objecttolerance="10"
     gridtolerance="10"
     guidetolerance="10"
     inkscape:pageopacity="0"
     inkscape:pageshadow="2"
     inkscape:window-width="1920"
     inkscape:window-height="1029"
     id="namedview227"
     showgrid="false"
     inkscape:zoom="0.25041667"
     inkscape:cx="2241.3774"
     inkscape:cy="1333.3333"
     inkscape:window-x="1280"
     inkscape:window-y="27"
     inkscape:window-maximized="1"
     inkscape:current-layer="svg225" />
  <path
     style="fill:#ebf0f8;fill-opacity:1;fill-rule:nonzero;stroke:none"
     d="m 2738.8906,1793.2617 c 0,0 316.1094,30.7383 410.7813,-158.1015 137.6289,-274.5118 -135.6914,-490.211 -338.461,-450.8321 -210,40.793 -296.1523,-151.6875 -404.8828,-344.15623 -120.039,-212.5 -267.5781,-425 -639.6484,-323.61328 -61.7695,16.83203 -156.0899,-2.51953 -261.3281,-21.86718 -234.5313,-43.13282 -523.31644,-86.26172 -627.02348,270.98046 -35.72656,123.06641 -162.30859,136.61719 -346.0664,214.70704 -359.62891,152.83989 -195.19141,815.46089 61.77734,818.06249 256.96875,2.5977 2144.85154,-5.1797 2144.85154,-5.1797"
     id="path4" />
  <path
     style="fill:#abcaf8;fill-opacity:1;fill-rule:nonzero;stroke:none"
     d="m 1579.5117,956.98828 c -21.332,21.39063 -44.832,39.96094 -70.2109,55.62112 -61.461,-44.91799 -127.1211,-83.39065 -195.5391,-114.50784 9.4102,-17.24219 18.6797,-35.45312 27.7266,-54.46094 62.6406,8.30079 122.8515,13.28125 177.8203,14.57032 14.3516,0.41797 28.2812,0.41797 41.8008,0.30859 35.039,-0.41016 66.2304,-2.48828 92.9492,-6.23828 -18.707,38.78906 -43.7695,73.92969 -74.5469,104.70703 z m -122.582,82.66012 c -47.6211,20.1719 -98.0508,30.3633 -150.1406,30.3633 -40.1289,0 -79.3282,-6.0625 -116.9883,-18.0625 28.539,-14.9492 57.2187,-49.3086 79.3008,-80.96873 11.3867,-16.32031 22.7695,-34.39063 34.0078,-53.89063 64.7812,29.33203 127.0703,65.37891 185.582,107.37106 -10.3203,5.5196 -20.9023,10.5899 -31.7617,15.1875 z M 951.19922,834.30078 c -0.86719,-2.07031 -1.71485,-4.14062 -2.54688,-6.21094 29.69141,1.19922 84.72656,5.69141 155.03906,21.69141 5.0274,1.14844 10.0469,2.34766 15.0781,3.57031 -3.6211,21.10938 -6.289,41.27735 -7.9414,60.22656 -3.1172,35.91016 -3.3398,77.30079 6.6719,106.87108 -30.4883,-17.1601 -58.4492,-38.37889 -83.5391,-63.46092 C 998.50781,921.53125 970.64453,880.25 951.19922,834.30078 Z m -13.6211,-87.24219 c 9.98047,3.75 20.17188,7.49219 30.67188,11.13282 48.2695,16.73046 102.3906,32.26953 160.2695,46.07031 -2.0976,9.36719 -4.039,18.61719 -5.8203,27.71875 -4.7304,-1.15235 -9.4609,-2.26953 -14.1992,-3.35156 -80.0195,-18.21875 -140.07422,-21.91797 -167.91016,-22.55079 -6.89453,-20.76953 -11.96484,-42.00781 -15.17578,-63.69921 4.05469,1.5625 8.10938,3.12109 12.16406,4.67968 z m -55.9375,-44.1875 c -73.71875,-35.97265 -107.40625,-70.69922 -92.32812,-95.33984 12.16406,-19.96094 56.45703,-33.48047 124.25,-38.47266 -8.32031,28.07032 -13.41406,57.08203 -15.39063,86.51172 -0.62109,8.73047 -0.93359,17.46094 -1.03906,26.30078 v 2.28907 c 0,8.83984 0.3125,17.66796 0.83203,26.41015 -5.61328,-2.5 -11.01953,-5.10156 -16.32422,-7.69922 z m 69.5586,-168.85156 c 3.43359,-7.89844 6.96484,-15.69922 10.8125,-23.28906 l 0.0117,-0.0195 c 47.65628,59.55859 117.88678,120.44922 199.95708,173.25781 -11.6407,35.42187 -21.5586,70.22266 -29.5821,103.58203 -59.6992,-14.44141 -115.0273,-30.78906 -163.52342,-48.28906 -10.1875,-3.63281 -20.06641,-7.38281 -29.52734,-11.1211 -5.61719,-2.17968 -11.125,-4.46875 -16.53125,-6.76171 -0.83204,-8.32032 -1.45704,-16.73829 -1.66407,-25.16016 -0.10547,-4.05859 -0.21093,-8.00781 -0.21093,-12.05859 0,-4.67969 0.10546,-9.46094 0.21093,-14.14063 1.35157,-35.03906 7.27735,-69.25 17.67578,-102.30859 1.76563,-5.6211 3.63672,-11.13282 5.71875,-16.64063 2.07813,-5.71875 4.26172,-11.42969 6.65235,-17.05078 z m -21.3086,-187.42969 c 12.54297,-19.91015 40.57032,-30.17968 79.92968,-30.17968 18.8203,0 40.25,2.35156 63.8008,7.1289 8.9375,1.8125 18.0703,3.94141 27.3594,6.39063 h 0.02 c -30.5586,17.67968 -58.6211,39.30078 -83.8789,64.66015 -5.3008,5.19922 -10.4024,10.60938 -15.3906,16.21875 -6.23831,6.86328 -12.16409,14.04297 -17.88284,21.32032 -9.14844,11.64062 -17.57032,23.8125 -25.3711,36.28125 l -0.0156,0.0312 C 923.68359,416.80859 913.23047,373.03125 929.89062,346.58984 Z m 376.89848,-48.28125 c 26.7304,0 53.0117,2.69141 78.6992,8.03125 -30.2969,13.19141 -61.2383,49.91016 -84.7266,83.57032 -24.0429,34.46093 -48.0429,76.6289 -70.7109,123.83984 -15.3008,-8.30859 -29.7695,-17.28906 -43.3594,-26.92969 -64.4726,-45.74219 -92.8906,-95.05859 -103.2226,-117.33984 15.8203,-11.25 32.4531,-21.30078 49.832,-30.07031 l 0.02,0.0117 c 7.0781,-3.58203 14.3008,-6.92187 21.6289,-10.0625 0.5313,-0.23046 1.0625,-0.46093 1.6016,-0.6875 0.1211,-0.0508 0.25,-0.10156 0.3711,-0.15234 1.5586,-0.66016 3.1289,-1.30859 4.6992,-1.94141 0.4297,-0.16796 0.8594,-0.33984 1.2695,-0.50781 45.6407,-18.39844 94.0977,-27.76172 143.8985,-27.76172 z m 272.7226,113.01953 c 35.4571,35.46094 63.3164,76.73047 82.7696,122.69141 6.9296,16.42188 12.6796,33.19922 17.25,50.28125 -88.9297,6.5 -170.4219,4.46094 -243.2618,-6.08984 11.5586,-47.22266 19.3399,-91.65235 22.7618,-130.89063 3.7695,-43.33984 3.3085,-94.67187 -14.2618,-123.55078 4.0703,1.55859 8.1289,3.19141 12.1602,4.90234 45.9492,19.44922 87.2305,47.20704 122.582,82.65625 z m -211.832,176.13282 c 13.5508,3.14843 27.4687,5.9375 41.7109,8.41797 -10.0117,37.63281 -22.332,76.83203 -36.6797,116.41015 -5.5312,15.25 -11.2617,30.26953 -17.1523,44.99219 -53.918,-19.80078 -111.1484,-48.12109 -167.418,-83.08984 2.9102,-8.5 5.9102,-17.03125 9.0078,-25.58204 13.3321,-36.76953 27.8125,-72.16015 42.9922,-105.30078 38.2383,18.54297 80.8907,33.32032 127.5391,44.15235 z m 46.5,-263.38282 c 11.832,4.29297 17.832,21.28125 20.7891,34.76172 4.6718,21.32032 5.5117,51.26953 2.4414,86.60157 -3.3594,38.66796 -11.1094,82.58984 -22.6289,129.35937 -13.9219,-2.39062 -27.5196,-5.10156 -40.75,-8.14062 -45.75,-10.51954 -87.4532,-24.91016 -124.6915,-42.98829 22.2188,-46.34375 45.7188,-87.66015 69.211,-121.34375 20.289,-29.08984 40.1406,-51.52734 57.3906,-64.89843 9,-6.96875 21.1094,-14.44141 31.7188,-14.44141 2.25,0 4.4414,0.33984 6.5195,1.08984 z m -348.418,58.78125 c 3.5469,7.28125 8.4571,16.30079 15.0664,26.53125 28.2032,43.57813 65.4414,75.16797 91.7227,93.98829 15.0898,10.8125 31.1875,20.83203 48.2578,30.05078 -15.5781,33.9414 -30.418,70.17187 -44.0586,107.78125 -2.5391,7.01953 -5.0195,14.01953 -7.4297,21 -81.4922,-53.03907 -150.4805,-113.90235 -195.73046,-172.80078 l -0.0195,-0.0195 c 11.32813,-19.33203 24.32031,-37.62109 38.87106,-54.76953 6.0273,-7.07031 12.2695,-13.92968 18.8203,-20.58984 0.9297,-0.92969 1.7696,-1.76172 2.6992,-2.70313 10.1172,-10.11718 20.7383,-19.59765 31.8008,-28.46875 z m 136.2188,420.25 c -16.4024,-3.3789 -32.5821,-6.91015 -48.4688,-10.57031 7.4766,-31.1289 16.668,-63.58984 27.3985,-96.66015 55.7812,34.28125 112.5,62.17968 166.2109,81.97265 -6.7305,16.07813 -13.6602,31.76953 -20.7227,46.94922 -40.7968,-5.85156 -82.539,-13.10937 -124.4179,-21.69141 z m 91.8711,86.17969 c -48.9414,-21.08984 -99.2735,-38.51953 -150.0899,-51.98047 1.7891,-9.21875 3.75,-18.60937 5.8867,-28.13672 14.1329,3.21875 28.461,6.32813 42.9805,9.31641 42.4727,8.69141 84.832,16.0625 126.3125,22.03125 -8.2226,17 -16.6016,33.28906 -25.0898,48.76953 z m -138.1719,147.53124 c -11.8281,-4.3008 -17.8399,-21.2812 -20.7891,-34.7695 -4.6718,-21.32033 -5.5117,-51.26174 -2.4414,-86.58986 1.5508,-17.8711 4.0508,-36.85938 7.4102,-56.73047 48.4922,12.91797 96.5195,29.53906 143.2812,49.57031 -10.5312,18.16016 -21.1797,35 -31.832,50.26953 -20.2891,29.08985 -40.1367,51.53129 -57.3867,64.89059 -10.9102,8.461 -26.4102,17.6407 -38.2422,13.3594 z m 506.8008,-203.03905 c -27.7617,4.98828 -62.3789,7.89844 -102.8321,8.32031 -62.7578,0.75781 -134.8281,-4.20312 -210.789,-14.21094 6.3906,-13.91015 12.6523,-28.21093 18.7617,-42.83203 23.5781,7.88282 46.4492,14.13282 68.2695,18.5625 24.9883,5.07032 47.8008,7.57813 68.1602,7.57813 47.7187,0 81.9101,-13.77735 98.789,-40.57813 2.7813,-4.42187 5.0508,-9.10156 6.7891,-14.05078 h -24.3203 c -0.4102,0.73828 -0.8281,1.48047 -1.2773,2.19141 -12.5508,19.91015 -40.5704,30.1875 -79.9297,30.17969 -18.8203,0 -40.25,-2.33985 -63.8008,-7.13282 -20.5195,-4.16015 -42.0508,-10.00781 -64.2422,-17.36718 5.8516,-14.66016 11.5508,-29.58985 17.0508,-44.76172 14.832,-40.87891 27.5195,-81.41016 37.789,-120.32813 46.8008,6.89844 97.0313,10.35938 150.4024,10.35938 33.2305,0 67.6875,-1.33985 103.2773,-4.01953 5.2813,25.61718 7.9532,51.83984 7.9532,78.46875 0,51.8789 -10.0821,102.21093 -30.0508,149.62109 z m 97.8398,-67.07031 -31.7109,-0.72266 c 10.1914,13.20313 12.4804,25.37109 6.1406,35.66016 -6.3516,10.5 -21.5312,19.13281 -44.1914,25.67968 17.1523,-45.63671 25.7812,-93.77734 25.7812,-143.16796 0,-55.32032 -10.8085,-108.96875 -32.2304,-159.39063 C 1663.5195,476 1634,432.12891 1596.3594,394.58984 c -37.6406,-37.64062 -81.4102,-67.16797 -130.1797,-87.85937 -50.5313,-21.3086 -104.1797,-32.1211 -159.3906,-32.1211 -55.3086,0 -108.961,10.8125 -159.5,32.1211 -6.0274,2.59765 -12.0586,5.30859 -17.8789,8.10937 l -0.051,0.0312 c -17.6209,-5.37104 -34.7694,-9.7812 -51.3279,-13.14057 -83.56255,-16.94922 -142.86333,-5.23047 -166.95318,33.00781 -22.92187,36.36328 -10.4414,91.11328 35.04297,154.96094 l -0.0156,0.0312 c -6.13672,11.32812 -11.64453,22.98047 -16.74219,35.03906 -3.84375,9.03906 -7.27734,18.08984 -10.39453,27.33984 C 833.5,557.21094 787.75391,572.25 771.11719,599.48828 c -19.33985,31.71094 7.07031,74.27344 91.60156,115.65234 11.64453,5.71875 24.12109,11.33985 37.22266,16.94922 4.36718,38.3711 14.24218,75.69141 29.42187,111.46094 20.58984,48.75781 50.11719,92.64063 87.75782,130.27734 37.6406,37.53128 81.4102,67.06248 130.168,87.74998 50.539,21.3203 104.1914,32.1328 159.5,32.1328 55.2109,0 108.8593,-10.8125 159.3906,-32.1328 48.7695,-20.6875 92.5391,-50.2187 130.1797,-87.74998 36.6015,-36.59765 65.6015,-79.22656 86.0898,-126.42968 41.6914,-8.62891 69.1406,-22.14844 80.0625,-40.02735 7.5899,-12.38281 6.6485,-26.10156 -2.1914,-40.66015"
     id="path6" />
  <path
     style="fill:#abd199;fill-opacity:1;fill-rule:nonzero;stroke:none"
     d="m 2587.5195,1687.3008 c -8.7382,-33.8789 -67.8007,-7.6406 -116.4414,20.8008 -2.2695,-3.5899 -4.6172,-7.1407 -7.0273,-10.6524 34.8203,-21.5976 83.7187,-57.5195 65.0976,-79.3906 -18.3789,-21.5898 -54.3086,27.3125 -76.789,63.3711 -60.211,-78.1406 -149.5,-133.7578 -149.5,-133.7578 0,0 372.6094,-309.6016 94.1797,-472.9219 -278.4297,-163.32813 -489.961,411.3594 -489.961,411.3594 0,0 -190.2578,-176.1797 -371.9297,-111.1094 -186.5586,66.8203 -69.9687,190.6602 -231.9882,224.1484 -19.0704,-73.039 -54.3321,-176.039 -102.5508,-182.0781 -63.668,-7.9687 -36.8789,71.7188 59.8789,188.1406 -18.7578,1.6875 -40.1172,2.5508 -64.5391,2.4805 -259.85154,-0.7812 -193.168,186.3203 -193.168,186.3203 l 1502.3985,3.4571 c -2.0391,-18.4102 -7.3984,-36.5079 -15.1094,-54.0391 51.461,-8.0781 105.6797,-24.2109 97.4492,-56.1289"
     id="path8" />
  <path
     style="fill:#d76611;fill-opacity:1;fill-rule:nonzero;stroke:none"
     d="m 1810.1914,968.33984 -65.5117,779.01956 c 0,0 -6.8711,47.2304 28.2617,47.3125 57.75,0.1367 287.457,0 287.457,0 0,0 -43.4687,-9.8321 -42.9375,-31.9531 0.6172,-26.0704 76.5704,-801.75005 76.5704,-801.75005 l -283.8399,7.37109"
     id="path10" />
  <path
     style="fill:#ee9747;fill-opacity:1;fill-rule:nonzero;stroke:none"
     d="m 2079.0391,1780.5391 c -11.3594,0.031 -230.7578,0.7226 -287.0078,0 -24.5118,-0.3086 -28.8008,-21.8008 -29.0118,-35.6993 -0.098,-6.6679 0.75,-11.6015 0.75,-11.6015 l 1.6993,-20.25 4.3398,-51.6094 3.8398,-45.5898 4.9297,-58.5899 4.1524,-49.4492 46.5508,-553.55078 283.8476,-7.3711 c 0,0 -32,324.62108 -54.6172,560.92188 -2.5312,26.3281 -4.9336,51.5703 -7.1601,75.1406 -0.7227,7.5196 -1.4024,14.8789 -2.0821,22.0391 -2.0976,22.3594 -4.0195,42.8906 -5.6914,61.0117 -0.8789,9.5586 -1.6875,18.4297 -2.4179,26.5703 -2.8907,31.8594 -4.5821,52.2071 -4.6094,56.0781 -0.012,2.2618 0.1875,4.3594 0.5586,6.3086 4.6601,24.8321 37.6601,25.6407 41.9297,25.6407"
     id="path12" />
  <path
     style="fill:#f0a14c;fill-opacity:1;fill-rule:nonzero;stroke:none"
     d="m 1120.8711,544.42187 159.5898,641.03903 21.8477,87.8008 74.332,298.5781 h 1380.918 L 2483.6016,544.42187 H 1120.8711"
     id="path14" />
  <path
     style="fill:#ee9747;fill-opacity:1;fill-rule:nonzero;stroke:none"
     d="m 1120.8711,544.42187 -22.1211,7.36719 248.4883,1042.35154 29.4023,-22.3008 -255.7695,-1027.41793"
     id="path16" />
  <path
     style="fill:#d76611;fill-opacity:1;fill-rule:nonzero;stroke:none"
     d="m 1347.2383,1594.1406 h 1372.4219 l 37.8984,-22.3008 h -1380.918 l -29.4023,22.3008"
     id="path18" />
  <path
     style="fill:#f0a14c;fill-opacity:1;fill-rule:nonzero;stroke:none"
     d="m 1829.1914,1794.9688 h 297.1484 v -14.1172 h -297.1484 z m 0,0"
     id="path20" />
  <path
     style="fill:#d76611;fill-opacity:1;fill-rule:nonzero;stroke:none"
     d="m 2050.8008,1594.1289 -1.5313,10.8008 -279.4609,56.4492 3.8398,-45.5898 1.8321,-21.6602 h 275.3203"
     id="path22" />
  <path
     style="fill:#e38230;fill-opacity:1;fill-rule:nonzero;stroke:none"
     d="m 1926.75,1780.8516 h -65.2812 c -29.7305,-0.031 -54.9688,-0.1328 -69.4375,-0.3125 -24.5118,-0.3086 -28.8008,-21.8008 -29.0118,-35.6993 l 278.1407,-52.3281 c -2.8907,31.8594 -4.5821,52.2071 -4.6094,56.0781 0,0.07 0,0.1407 0,0.211 0.01,2.1797 0.1992,4.2109 0.5586,6.0976 4.6601,24.8321 37.6601,25.6407 41.9297,25.6407 -6.4375,0.02 -79.7578,0.25 -152.2891,0.3125"
     id="path24" />
  <path
     style="fill:#e68a35;fill-opacity:1;fill-rule:nonzero;stroke:none"
     d="m 1891.8906,1780.8711 c -10.4804,0 -20.6797,-0.012 -30.4218,-0.02 h 65.2812 c -11.7305,0.01 -23.4492,0.02 -34.8594,0.02"
     id="path26" />
  <path
     style="fill:#e68a35;fill-opacity:1;fill-rule:nonzero;stroke:none"
     d="m 1376.6406,1571.8398 -74.332,-298.5781 680.9531,90.5899 -606.6211,207.9882"
     id="path28" />
  <path
     style="fill:#689cee;fill-opacity:1;fill-rule:nonzero;stroke:none"
     d="m 1120.8711,544.42187 h 1362.7305 l 221.0976,825.71873 H 1326.4297 L 1120.8711,544.42187"
     id="path30" />
  <path
     style="fill:#d76611;fill-opacity:1;fill-rule:nonzero;stroke:none"
     d="m 2103.7109,1474.5195 c -3.9414,-20.25 -23.539,-36.6679 -43.789,-36.6679 -20.25,0 -33.4805,16.4179 -29.543,36.6679 3.9297,20.25 23.543,36.6719 43.793,36.6719 20.25,0 33.4765,-16.4219 29.539,-36.6719"
     id="path32" />
  <path
     style="fill:#e8f3fd;fill-opacity:1;fill-rule:nonzero;stroke:none"
     d="M 2640.4297,1334.3594 H 1364.5 l -144.4883,-575.62893 -11.082,-44.14063 -9.4492,-37.64843 -22.1602,-88.29297 h 1257.5313 l 24.3398,88.29297 10.3789,37.64843 12.168,44.14063 158.6914,575.62893"
     id="path34" />
  <path
     style="fill:#aeccfa;fill-opacity:1;fill-rule:nonzero;stroke:none"
     d="M 2459.1914,676.94141 H 1199.4805 l -22.1602,-88.29297 h 1257.5313 l 24.3398,88.29297"
     id="path36" />
  <path
     style="fill:#e8f3fd;fill-opacity:1;fill-rule:nonzero;stroke:none"
     d="m 1237.6211,617.51172 c -6.0898,0 -9.8008,4.94922 -8.2813,11.03906 1.5196,6.09766 7.6915,11.03906 13.7891,11.03906 6.0899,0 9.8008,-4.9414 8.2813,-11.03906 -1.5196,-6.08984 -7.6914,-11.03906 -13.7891,-11.03906"
     id="path38" />
  <path
     style="fill:#e8f3fd;fill-opacity:1;fill-rule:nonzero;stroke:none"
     d="m 1274.2891,617.51172 c -6.0899,0 -9.8008,4.94922 -8.2774,11.03906 1.5196,6.09766 7.6875,11.03906 13.7891,11.03906 6.0898,0 9.8008,-4.9414 8.2773,-11.03906 -1.5195,-6.08984 -7.6875,-11.03906 -13.789,-11.03906"
     id="path40" />
  <path
     style="fill:#e8f3fd;fill-opacity:1;fill-rule:nonzero;stroke:none"
     d="m 1327.5703,628.55078 c -1.5195,-6.08984 -7.6914,-11.03906 -13.789,-11.03906 -6.0899,0 -9.8008,4.94922 -8.2813,11.03906 1.5195,6.09766 7.6914,11.03906 13.7813,11.03906 6.0976,0 9.8085,-4.9414 8.289,-11.03906"
     id="path42" />
  <path
     style="fill:#faa368;fill-opacity:1;fill-rule:nonzero;stroke:none"
     d="m 693.42969,761.67969 c 0,0 3.90625,-12.28125 -2.22266,-23.33985 -6.12891,-11.05859 3.77344,-18.73047 1.27344,-22.07031 -2.4961,-3.33984 -18.79297,-3 -24.35547,13.05859 -5.5625,16.05079 3.83594,34.16016 3.83594,34.16016 l 21.46875,-1.80859"
     id="path44" />
  <path
     style="fill:#e38535;fill-opacity:1;fill-rule:nonzero;stroke:none"
     d="m 625.04297,850.01953 c 11.5625,3.44922 23.47265,-4.23047 25.08984,-15.92969 l 16.23047,-70.60156 c 0,0 3.38281,-5.46875 15.08203,-4.98828 12.73828,0.51953 16.1836,6.82812 16.1836,6.82812 0,0 7.8789,124.28125 -28.91407,141.82032 -36.79297,17.54297 -78.45312,-67.5 -43.67187,-57.12891"
     id="path46" />
  <path
     style="fill:#14335e;fill-opacity:1;fill-rule:nonzero;stroke:none"
     d="m 701.32031,1793.8906 h -103.6289 c -7.3711,-6.6718 -9.80079,-45.9101 -9.80079,-45.9101 0,0 32.12891,-28.9492 42.62891,-6.0391 9.98047,21.7695 37.55859,33.3477 54.03125,36.2188 14.1875,2.4687 16.42969,12.8789 16.76953,15.7304"
     id="path48" />
  <path
     style="fill:#14335e;fill-opacity:1;fill-rule:nonzero;stroke:none"
     d="m 575.78906,1793.8906 h -103.6289 c -7.3711,-6.6718 -9.8086,-45.9101 -9.8086,-45.9101 0,0 32.12891,-28.9492 42.62891,-6.0391 9.98047,21.7695 37.55859,33.3477 54.03125,36.2188 14.1875,2.4687 16.4375,12.8789 16.77734,15.7304"
     id="path50" />
  <path
     style="fill:#14335e;fill-opacity:1;fill-rule:nonzero;stroke:none"
     d="m 650.30859,1251.3789 c 0,0 -14.74218,94.2813 -69.73437,261.6406 -54.98828,167.3594 -62.48047,239.8321 -62.48047,239.8321 l -58.99219,-1.6524 c 0,0 -0.5039,-182.9101 24.83985,-267.0586 25.33984,-84.1601 5.46875,-303.4101 5.46875,-303.4101 l 160.89843,70.6484"
     id="path52" />
  <path
     style="fill:#19458a;fill-opacity:1;fill-rule:nonzero;stroke:none"
     d="m 679.01562,1185.8984 c 0,0 2.08594,142.0704 -22.49609,316.5118 -24.58203,174.4414 -16.24609,248.4804 -16.24609,248.4804 l -58.875,1.961 c 0,0 -35.1836,-174.5 -25.09375,-261.8125 10.08593,-87.3086 -48.17969,-299.5977 -48.17969,-299.5977 l 170.89062,-5.543"
     id="path54" />
  <path
     style="fill:#ffb07d;fill-opacity:1;fill-rule:nonzero;stroke:none"
     d="M 565.04687,853.42969 592.8125,874 l 40.12891,-8.44922 c -0.55469,-3.66016 -3.20313,-18.83203 -5.61719,-32.57031 -0.14453,-0.8086 -0.28906,-1.6211 -0.42578,-2.41016 -2.06641,-11.6914 -3.85157,-21.73047 -3.85157,-21.73047 l -37.48046,-18.67968 -13.97657,-6.96875 c 0.0391,0.25 1.08594,12.98046 1.23047,14.82812 2.6211,33 -7.77344,55.41016 -7.77344,55.41016"
     id="path56" />
  <path
     style="fill:#ee9747;fill-opacity:1;fill-rule:nonzero;stroke:none"
     d="m 630.13672,843.05859 c -0.88281,-0.3789 -54.59375,-16.23047 -60.42578,-14.29687 -5.83594,1.92969 -9.28907,13.21875 -9.28907,13.21875 l 87.85157,19.85937 c 0,0 -6.91407,-14.05859 -18.13672,-18.78125"
     id="path58" />
  <path
     style="fill:#ee9747;fill-opacity:1;fill-rule:nonzero;stroke:none"
     d="m 485.50391,1203.4414 c 9.10156,41.5274 160.62109,46.457 199.67968,8.7578 4.44141,-4.3008 4.66016,-24.289 2.98438,-51.25 -3.27735,-52.6679 -13.80078,-131.8906 -14.21094,-172.37108 -0.19922,-19.54687 -2.88672,-39.53906 -6.46484,-57.6875 -7.60938,-38.6914 -19.21875,-69.0625 -19.21875,-69.0625 0,0 -74.00782,-23.91796 -87.85157,-19.84765 -66.71484,19.59765 -84.02343,319.91793 -74.91796,361.46093"
     id="path60" />
  <path
     style="fill:#e38535;fill-opacity:1;fill-rule:nonzero;stroke:none"
     d="m 688.16797,1160.9492 c -3.27735,-52.6679 -13.80078,-131.8906 -14.21094,-172.37108 -0.19922,-19.54687 -2.88672,-39.53906 -6.46484,-57.6875 l -44.51953,-7.85937 c 0,0 -43.52735,177.78905 65.19531,237.91795"
     id="path62" />
  <path
     style="fill:#faa368;fill-opacity:1;fill-rule:nonzero;stroke:none"
     d="m 575.63281,798.60937 c 8.23047,15.75 38.90235,29.3711 51.69141,34.3711 -0.14453,-0.8086 -0.28906,-1.6211 -0.42578,-2.41016 -2.06641,-11.6914 -3.85157,-21.73047 -3.85157,-21.73047 l -37.48046,-18.67968 c -8.28516,-0.12891 -13.32813,1.96093 -9.9336,8.44921"
     id="path64" />
  <path
     style="fill:#ffb07d;fill-opacity:1;fill-rule:nonzero;stroke:none"
     d="m 641.26172,806.64844 c 0,0 -67.6211,21.08984 -80.10938,-21.21875 -12.48828,-42.32032 -29.625,-68.08985 13.01953,-83.35157 42.64454,-15.25781 55.83985,-1.59765 63.44141,11.51172 7.60547,13.10938 20.91406,86.48047 3.64844,93.0586"
     id="path66" />
  <path
     style="fill:#14335e;fill-opacity:1;fill-rule:nonzero;stroke:none"
     d="m 631.58203,713.89062 c 0,0 -4.3125,49.23829 -14.49219,47.09766 -10.18359,-2.12891 -19.41797,-3.71875 -17.92968,11.12109 1.49218,14.85157 15.61328,31.98047 -15.76954,34.60938 -31.38281,2.63281 -76.49609,-78.30859 -67.875,-93.62891 24.875,-44.21093 152.01954,-53.1289 116.06641,0.80078"
     id="path68" />
  <path
     style="fill:#abcaf8;fill-opacity:1;fill-rule:nonzero;stroke:none"
     d="m 726.6875,703.32031 -65.51563,17.5 2.02735,27.00781 66.79687,-0.45703 c 5.28907,-0.40234 8.83594,-10.58203 7.92188,-22.75 -0.91406,-12.16015 -5.94141,-21.69922 -11.23047,-21.30078"
     id="path70" />
  <path
     style="fill:#689cee;fill-opacity:1;fill-rule:nonzero;stroke:none"
     d="m 668.05469,733.89062 c -0.5586,-7.46093 -3.64063,-13.3125 -6.88282,-13.07031 -3.24609,0.25 -5.41796,6.48828 -4.85937,13.94922 0.55859,7.46094 3.64453,13.30859 6.88672,13.05859 3.24219,-0.23828 5.41797,-6.47656 4.85547,-13.9375"
     id="path72" />
  <path
     style="fill:#689cee;fill-opacity:1;fill-rule:nonzero;stroke:none"
     d="m 692.34375,733 -20.26172,0.37891 c -0.63672,4.26171 0.45703,6.08984 0.45703,6.08984 l 20.20313,1.35156 L 692.34375,733"
     id="path74" />
  <path
     style="fill:#abcaf8;fill-opacity:1;fill-rule:nonzero;stroke:none"
     d="m 764.84375,702.37109 -75.21875,20.08985 2.32812,31.00781 76.69141,-0.52734 c 6.07031,-0.46094 10.14063,-12.15235 9.08984,-26.11329 -1.04687,-13.96875 -6.82031,-24.91796 -12.89062,-24.45703"
     id="path76" />
  <path
     style="fill:#689cee;fill-opacity:1;fill-rule:nonzero;stroke:none"
     d="m 697.52734,737.46094 c -0.64062,-8.5625 -4.17968,-15.28125 -7.90625,-15 -3.72265,0.27734 -6.21875,7.44922 -5.57422,16.01953 0.64454,8.55859 4.1836,15.26953 7.90625,14.98828 3.72266,-0.27734 6.21875,-7.4375 5.57422,-16.00781"
     id="path78" />
  <path
     style="fill:#ffb07d;fill-opacity:1;fill-rule:nonzero;stroke:none"
     d="m 709.21094,761.57031 c 0,0 -7.10157,-10.76172 -4.20703,-23.07031 2.89062,-12.30859 -8.71875,-16.98828 -7.22266,-20.89063 1.49609,-3.89062 17.27344,-7.98828 26.98828,5.94922 9.71484,13.92969 5.59375,33.92188 5.59375,33.92188 l -21.15234,4.08984"
     id="path80" />
  <path
     style="fill:#ee9747;fill-opacity:1;fill-rule:nonzero;stroke:none"
     d="m 616.69922,864.78125 c 0,0 39.28125,-7.16016 75.57422,-6.63281 12.0625,0.17968 21.4375,-10.44922 19.8164,-22.14844 L 705.75,765 c 0,0 4.53906,-7.53906 15.92969,-10.26172 12.39843,-2.95703 16.38281,3.73047 16.38281,3.73047 0,0 42.40625,115.91016 11.76562,142.79297 C 719.18359,928.14062 603.15234,945 603.15234,945 l 13.54688,-80.21875"
     id="path82" />
  <path
     style="fill:#ee9747;fill-opacity:1;fill-rule:nonzero;stroke:none"
     d="m 3113.1719,383.14844 c -4.043,93.35156 -25.75,207.61328 -94.793,299.54297 -2.5391,3.3789 -5.0898,6.71875 -7.6484,10.02734 -7.7422,10.01172 -15.6289,19.74219 -23.6211,29.17187 -8.9297,10.51954 -24.5196,12.19922 -35.5508,3.91797 L 2645.1094,495.67187 c -3.5,-2.63281 -6.0899,-6.05078 -7.6797,-9.84375 -1.0703,-2.54687 -1.6914,-5.26953 -1.8399,-8.01953 -0.25,-4.91015 1.0118,-9.92968 3.8985,-14.32031 7.1914,-10.91016 14.7226,-21.77734 22.5898,-32.58984 2.4727,-3.38672 4.9727,-6.76953 7.5117,-10.13672 69.0313,-91.9336 172.7188,-144.64063 261.2383,-174.5625 46.7422,-15.78906 89.2617,-25.23047 120.2032,-30.73047 5.1406,-0.91016 10.1484,-1.09766 14.9179,-0.62891 7.2422,0.71094 13.961,2.92969 19.8516,6.41016 12.7187,7.51953 21.5586,20.94141 23.3789,37.89062 3.3516,31.25 6.1406,74.71094 3.9922,124.00782"
     id="path84" />
  <path
     style="fill:#578fde;fill-opacity:1;fill-rule:nonzero;stroke:none"
     d="m 2661.8711,431.17969 c -8.9414,12.28125 -17.4492,24.64062 -25.5,37.03906 -5.25,8.08203 -3.3125,18.83984 4.3906,24.63281 l 314.1992,235.95703 c 8.9883,6.75 21.6797,5.35157 29,-3.1875 9,-10.51172 17.8672,-21.39062 26.5508,-32.60937 L 2661.8711,431.17969"
     id="path86" />
  <path
     style="fill:#b54a3f;fill-opacity:1;fill-rule:nonzero;stroke:none"
     d="m 2934.5508,359.96094 c -3.3789,0 -6.7813,0.23828 -10.1914,0.73047 -18.8711,2.67968 -35.5586,12.54687 -47,27.78906 -11.4492,15.23828 -16.2696,34.01953 -13.5899,52.8789 2.6797,18.8711 12.5508,35.5625 27.7891,47.01172 15.2422,11.4375 34.0195,16.25782 52.8906,13.57813 18.8594,-2.67969 35.5625,-12.55078 47,-27.78906 11.4414,-15.23829 16.2696,-34.01954 13.5899,-52.89063 -2.6875,-18.85937 -12.5586,-35.55078 -27.7891,-47 -12.4883,-9.37109 -27.3594,-14.30859 -42.6992,-14.30859 z m -0.3399,164.32031 c -19.9921,0 -39.3515,-6.42969 -55.6211,-18.64063 -19.8515,-14.91015 -32.7109,-36.66015 -36.1992,-61.23046 -3.5,-24.58204 2.7891,-49.05079 17.6992,-68.89844 14.8985,-19.85156 36.6485,-32.71094 61.2305,-36.20313 24.5781,-3.5 49.0391,2.78125 68.8906,17.69141 19.8477,14.91016 32.711,36.66016 36.211,61.23047 3.4883,24.57812 -2.793,49.05078 -17.7031,68.89844 -14.9102,19.85156 -36.6485,32.71093 -61.2305,36.19921 -4.4375,0.63282 -8.8789,0.95313 -13.2774,0.95313"
     id="path88" />
  <path
     style="fill:#ffbf8c;fill-opacity:1;fill-rule:nonzero;stroke:none"
     d="m 3092.8203,242.78125 c -0.8594,-8.0625 -3.3086,-15.32031 -7.0195,-21.53125 -5.8906,-3.48047 -12.6094,-5.69922 -19.8516,-6.41016 0.062,0.41016 0.1094,0.82032 0.1524,1.21875 3.3476,31.25 6.1367,74.72266 4,124.01172 -4.0508,93.35156 -25.7618,207.60938 -94.8008,299.53906 -2.5313,3.37891 -5.0899,6.71875 -7.6524,10.03907 -1.707,2.20312 -3.4296,4.39062 -5.1484,6.57031 l 29.9805,22.5625 c 0.6289,-0.8125 1.2578,-1.60156 1.8906,-2.41016 2.5703,-3.32031 5.1094,-6.66015 7.6484,-10.04297 69.0391,-91.91796 90.75,-206.1875 94.8008,-299.53906 2.1406,-49.30078 -0.6484,-92.75781 -4,-124.00781"
     id="path90" />
  <path
     style="fill:#578fde;fill-opacity:1;fill-rule:nonzero;stroke:none"
     d="m 3109.1797,259.14062 c -3.2109,-29.99218 -28.4492,-48.94921 -58.1484,-43.67187 -30.9415,5.5 -73.461,14.94141 -120.211,30.74219 l 182.3594,136.9375 c 2.1406,-49.29688 -0.6484,-92.75782 -4,-124.00782"
     id="path92" />
  <path
     style="fill:#b54a3f;fill-opacity:1;fill-rule:nonzero;stroke:none"
     d="m 2687.3789,557.03906 c -29.8789,-19.84765 -76.9101,-1.58984 -105.0508,40.76953 -28.1367,42.36328 3.1602,112.64063 3.1602,112.64063 0,0 76.9101,1.58984 105.0508,-40.76953 28.1328,-42.3711 26.7226,-92.80078 -3.1602,-112.64063"
     id="path94" />
  <path
     style="fill:#b54a3f;fill-opacity:1;fill-rule:nonzero;stroke:none"
     d="m 2855.3516,680.42187 c -29.8828,-19.85156 -76.9102,-1.59375 -105.0508,40.76954 -28.1406,42.35937 3.1601,112.63671 3.1601,112.63671 0,0 76.9102,1.59375 105.0391,-40.76953 28.1406,-42.36718 26.7305,-92.79687 -3.1484,-112.63672"
     id="path96" />
  <path
     style="fill:#ee9747;fill-opacity:1;fill-rule:nonzero;stroke:none"
     d="m 2655.6211,604.53906 c -20.6211,-13.69922 -53.082,-1.09765 -72.5,28.14063 -19.4297,29.24218 2.168,77.74218 2.168,77.74218 0,0 53.0898,1.09766 72.5117,-28.14062 19.418,-29.24219 18.4375,-64.05078 -2.1797,-77.74219"
     id="path98" />
  <path
     style="fill:#ee9747;fill-opacity:1;fill-rule:nonzero;stroke:none"
     d="m 2823.9414,727.78125 c -20.6211,-13.70313 -53.082,-1.10156 -72.5,28.14062 -19.4219,29.23829 2.168,77.73829 2.168,77.73829 0,0 53.0898,1.10156 72.5117,-28.14063 19.418,-29.23828 18.4492,-64.03906 -2.1797,-77.73828"
     id="path100" />
  <path
     style="fill:#ffe6d1;fill-opacity:1;fill-rule:nonzero;stroke:none"
     d="m 2892.7188,477.55859 96.3593,-17.02734 c -10.6992,19.37891 -31.3398,32.51953 -55.0468,32.51953 -15.8204,0 -30.2696,-5.85156 -41.3125,-15.49219"
     id="path102" />
  <path
     style="fill:#ffe6d1;fill-opacity:1;fill-rule:nonzero;stroke:none"
     d="m 2996.8281,428.10937 -122.039,23.10938 c -2.3282,-6.57031 -3.5977,-13.64844 -3.5977,-21.01953 0,-34.69922 28.1289,-62.83985 62.8399,-62.83985 34,0 61.6992,27.01172 62.7968,60.75"
     id="path104" />
  <path
     style="fill:#ffb07d;fill-opacity:1;fill-rule:nonzero;stroke:none"
     d="m 1052.9609,1306.9609 c 0,0 20.4297,5.25 33.418,1.3399 12.9922,-3.9219 35.3516,2.5078 38.9492,7.25 3.6016,4.7305 2.2813,6.6211 -4.1484,8.25 -6.418,1.6289 -29.1797,11.3398 -44.1406,5.7187 -14.961,-5.6093 -34.4688,-5.8203 -34.4688,-5.8203 l 10.3906,-16.7383"
     id="path106" />
  <path
     style="fill:#4a73ca;fill-opacity:1;fill-rule:nonzero;stroke:none"
     d="m 876.35937,1129.4609 c 0,0 22.95313,163.1485 60.96485,177.7579 18.7539,7.2109 101.64458,23.5507 126.16408,25.2031 0,0 6,-4.8828 4.543,-24.711 0,0 -86.8438,-31.8828 -99.17974,-49.2226 -18.36328,-25.7969 11.39844,-105.418 -11.64062,-129.6485 -23.03907,-24.2382 -61.84375,-34.6484 -80.85157,0.6211"
     id="path108" />
  <path
     style="fill:#28458a;fill-opacity:1;fill-rule:nonzero;stroke:none"
     d="m 911.03516,1757.3906 v -35.5703 h 56.0039 c 1.51172,0 2.7461,-1.2422 2.7461,-2.75 v -5.6992 c 0,-1.5117 -1.23438,-2.75 -2.7461,-2.75 h -56.0039 v -202.4922 c 0,-5.6797 -4.64844,-10.3281 -10.33204,-10.3281 h -11.08203 c -5.67968,0 -10.32812,4.6484 -10.32812,10.3281 v 202.4922 h -56.00391 c -1.51172,0 -2.74609,1.2383 -2.74609,2.75 v 5.6992 c 0,1.5078 1.23437,2.75 2.74609,2.75 h 56.00391 v 35.5703 c -40.51953,3.0586 -72.98438,17.6485 -82.08985,36.5 H 993.125 c -9.10547,-18.8515 -41.57031,-33.4414 -82.08984,-36.5"
     id="path110" />
  <path
     style="fill:#14335e;fill-opacity:1;fill-rule:nonzero;stroke:none"
     d="m 884.09766,1473.1797 c 6.69531,11.3594 14.4375,22 22.42187,32.082 24.67188,31.1485 51.52734,56.8281 56.20703,81.0977 0.92578,4.8398 2.40625,10.0508 4.33594,15.539 1.95312,5.5625 4.36719,11.4024 7.15625,17.4532 10.46875,22.7382 26.12105,48.2187 41.76175,71.3789 27.0195,40.0508 52.4297,73.4609 52.4297,73.4609 l 46.6015,-1.9922 c -1.8711,-4.6679 -22.1914,-59.9609 -49.3828,-127.5195 -11.0391,-27.4297 -22.7773,-56.6016 -34.1094,-84.7383 -1.5078,-3.7617 -3.0195,-7.5 -4.5078,-11.2109 -3.4609,-8.6094 -6.8711,-17.0821 -10.2031,-25.3321 -25.52735,-63.4492 -45.86329,-113.9687 -45.86329,-113.9687 0,0 -102.03515,-38.6484 -112.63281,-13.6016 -8.73828,20.6524 -1.62109,40.8828 25.78516,87.3516"
     id="path112" />
  <path
     style="fill:#14335e;fill-opacity:1;fill-rule:nonzero;stroke:none"
     d="m 1069.8594,1754.8086 c 0,0 2.3906,38.4531 9.832,39 0.9883,0.082 37.7305,0.082 37.7305,0.082 h 46.9062 c 0,0 -0.3086,-11.582 -14.0195,-13.9687 -13.707,-2.3906 -36.6602,-12.0235 -44.9688,-30.1406 -8.7304,-19.0704 -35.4804,5.0273 -35.4804,5.0273"
     id="path114" />
  <path
     style="fill:#14335e;fill-opacity:1;fill-rule:nonzero;stroke:none"
     d="m 961.96094,1645.8594 c 0,0 -32.41407,20.832 -29.26953,27.5898 0.41796,0.9024 18.33203,32.9805 18.33203,32.9805 L 974.125,1747.25 c 0,0 9.71875,-5.7695 5.12109,-18.9102 -4.59765,-13.1289 -7.37109,-37.871 4.40235,-53.9609 12.38281,-16.918 -21.6875,-28.5195 -21.6875,-28.5195"
     id="path116" />
  <path
     style="fill:#19458a;fill-opacity:1;fill-rule:nonzero;stroke:none"
     d="m 1005.6719,1381 c 0,0 128.2187,79.8711 142.5195,133.4805 14.2891,53.6093 -170.37499,167.9883 -170.37499,167.9883 0,0 -20.25391,-17.8672 -23.82813,-30.9805 0,0 83.47262,-100 101.58202,-122.418 11.1211,-13.7695 -164.42577,-47.6601 -185.87499,-81.0195 -21.4414,-33.3594 -13.76562,-61.4297 -13.76562,-61.4297 L 1005.6719,1381"
     id="path118" />
  <path
     style="fill:#ee9747;fill-opacity:1;fill-rule:nonzero;stroke:none"
     d="M 1026.2305,1483.5313 H 764.10156 c -5.24219,0 -9.53125,4.289 -9.53125,9.5273 v 52.4297 c 0,5.2422 4.28906,9.5312 9.53125,9.5312 h 262.12894 c 5.2383,0 9.5312,-4.289 9.5312,-9.5312 v -52.4297 c 0,-5.2383 -4.2929,-9.5273 -9.5312,-9.5273"
     id="path120" />
  <path
     style="fill:#ffb07d;fill-opacity:1;fill-rule:nonzero;stroke:none"
     d="m 966.10156,1119.1719 c -30.67969,7.9375 -81.55078,-20.4922 -81.55078,-20.4922 0,0 19.75,-13.2695 27.07031,-42.4297 0.36719,-1.4687 0.70703,-2.9805 1,-4.5195 3.21875,-0.6914 9.27735,-1.9688 15.75782,-3.3399 l 23.4414,20.9883 c 0,0 -0.53125,8.7227 -3.46875,23.6992 -0.51172,2.6211 -1.08984,5.4219 -1.76172,8.4102 12.58203,7.793 19.51172,17.6836 19.51172,17.6836"
     id="path122" />
  <path
     style="fill:#7399f0;fill-opacity:1;fill-rule:nonzero;stroke:none"
     d="m 1009.6797,1376.8203 c -0.059,0.3086 -0.1602,0.6289 -0.2695,0.961 -2.961,8.289 -30.50004,19.4687 -55.76958,27.289 -9.0625,2.8086 -17.83984,5.1797 -25.08203,6.8399 -19.57031,4.4804 -68.59765,12.4687 -72.89843,-0.9688 -4.98047,-15.5625 0.80078,-105.4726 -3.60157,-164.582 -5.1875,-72.2578 14.82032,-138.0313 42.64063,-159.5 2.10156,-1.5391 6.26172,2.5625 18.3125,8.2812 11.1289,5.2696 23.42969,6.7813 33.83984,4.5 l 9.32813,8 c 12.89062,11.5977 27.05859,27.4297 33.49218,51.6992 3.92969,14.8907 6.89844,38.4297 9.09766,64.9102 0.85156,10.2617 1.58987,20.9688 2.21877,31.7813 1,17.207 1.8711,34.5703 2.2929,51.0781 0.01,0.3203 0.02,0.6289 0.02,0.9492 l 0.01,0.6016 c 0.1797,1.6601 0.2109,3.4804 0.2305,5.1484 0.4414,14.8008 0.3593,28.5703 0.8593,40.2617 0.012,0.3281 0.031,0.6485 0.051,0.961 0.6289,9.7968 4.2227,14.2187 5.1797,18.3085 0.2617,1.1485 0.3203,2.2813 0.051,3.4805"
     id="path124" />
  <path
     style="fill:#4a73ca;fill-opacity:1;fill-rule:nonzero;stroke:none"
     d="m 1009.6797,1376.8203 c -0.059,0.3086 -0.1602,0.6289 -0.2695,0.961 -2.961,8.289 -30.50004,19.4687 -55.76958,27.289 -51.33203,-64.3086 -45.83203,-141.2617 -45.83203,-141.2617 l 95.47261,43.3008 c 0.01,0.3203 0.02,0.6289 0.02,0.9492 l 0.01,0.6016 c 0.1797,1.6601 0.2109,3.4804 0.2305,5.1484 0.4414,14.8008 0.3593,28.5703 0.8593,40.2617 0.012,0.3281 0.031,0.6485 0.051,0.961 0.6289,9.7968 4.2227,14.2187 5.1797,18.3085 0.2617,1.1485 0.3203,2.2813 0.051,3.4805"
     id="path126" />
  <path
     style="fill:#e18f59;fill-opacity:1;fill-rule:nonzero;stroke:none"
     d="m 951.82031,1069.3789 c 0,0 -0.53125,8.7227 -3.46875,23.6992 -22.88281,-7.3867 -33.26172,-28.0586 -36.73047,-36.8281 0.36719,-1.4687 0.70703,-2.9805 1,-4.5195 3.21875,-0.6914 9.27735,-1.9688 15.75782,-3.3399 l 23.4414,20.9883"
     id="path128" />
  <path
     style="fill:#ffb07d;fill-opacity:1;fill-rule:nonzero;stroke:none"
     d="m 961.08594,1069.1484 c 0,0 -50.28125,5.6797 -53.33203,-25.6875 -3.05079,-31.3711 -11.59375,-51.76168 20.3789,-56.7109 31.97656,-4.94922 39.38672,6.42187 42.94922,16.6406 3.56641,10.2188 3.00391,63.4805 -9.99609,65.7578"
     id="path130" />
  <path
     style="fill:#28458a;fill-opacity:1;fill-rule:nonzero;stroke:none"
     d="m 907.96875,1045.6211 c 0,0 3.1875,-41.6328 48.96094,-45.94923 31.34765,-2.95312 13.87109,-29.93359 10.52734,-34.24218 0,0 -24.01953,3.30078 -48.64062,7.35937 -51.67188,8.53906 -15.92188,66.35154 -10.84766,72.83204"
     id="path132" />
  <path
     style="fill:#4a73ca;fill-opacity:1;fill-rule:nonzero;stroke:none"
     d="m 1188.8008,1232.6016 -35.4219,109.0195 -124.5898,-2.6602 -0.168,7.5977 127.1406,2.7227 37.4375,-115.25 -4.3984,-1.4297"
     id="path134" />
  <path
     style="fill:#ffb07d;fill-opacity:1;fill-rule:nonzero;stroke:none"
     d="m 1042.4414,1332.0391 c 0,0 19.7305,7.4726 33.0781,5.0195 13.3399,-2.457 34.8516,6.3906 37.9102,11.5 3.0508,5.1016 1.5312,6.8203 -5.0313,7.7422 -6.5703,0.918 -30.2578,8.0586 -44.5078,0.8203 -14.25,-7.2305 -33.6211,-9.582 -33.6211,-9.582 l 12.1719,-15.5"
     id="path136" />
  <path
     style="fill:#7399f0;fill-opacity:1;fill-rule:nonzero;stroke:none"
     d="m 886.48828,1136.1484 c 0,0 4.82813,164.6914 40.99609,183.4024 17.84766,9.2383 98.42583,34.6211 122.61723,38.9492 0,0 6.5078,-4.1797 7.2382,-24.0508 0,0 -82.79683,-41.2578 -93.14839,-59.8594 -15.40235,-27.6679 22.94921,-103.5117 2.72265,-130.1406 -20.22656,-26.6289 -57.64453,-41.2578 -80.42578,-8.3008"
     id="path138" />
  <path
     style="fill:#ffb07d;fill-opacity:1;fill-rule:nonzero;stroke:none"
     d="m 3135.2305,1262.9609 6.0508,9.8204 c 3.1484,3.6093 3.9882,5.6289 6.4804,6.8593 6.0196,2.961 17.1289,10.5586 17.9688,26.5196 0,0 -0.1914,9.0312 -6.2422,6.1015 -6.0586,-2.9336 -3.418,-2.6523 -12.0195,-6.6015 -8.6094,-3.9414 -11.7969,-16.4805 -12.5469,-20.7618 l -7.0313,-9.2187 7.3399,-12.7188"
     id="path140" />
  <path
     style="fill:#ffb07d;fill-opacity:1;fill-rule:nonzero;stroke:none"
     d="m 2957.1797,1786.3086 c -0.3281,3.5312 -2.2891,5.8125 -5.3984,7.1719 l -0.051,0.02 c -5.75,2.5195 -15.4024,1.9492 -25.8203,0.5391 -1.3399,-0.168 -2.5391,-0.3203 -3.6094,-0.418 -0.2813,-0.02 -0.5703,-0.051 -0.8399,-0.07 -0.2226,-0.012 -0.4414,-0.031 -0.6523,-0.039 -10.3789,-0.6914 -9.5703,2.5078 -29.3984,2.4102 -22.6094,-0.1211 -30.25,-7.7305 -31.2891,-10.9805 -0.8711,-2.75 9.0273,-4.8906 20.0898,-7.3516 0.5391,-0.121 1.0704,-0.2382 1.6172,-0.3593 1.4727,-0.3203 2.9532,-0.6719 4.4336,-1 13.1875,-3.1016 26.2578,-7.0117 30.5781,-19.6797 4.5821,-13.4492 3.4883,-53.3399 3.4883,-53.3399 h 40.043 c 0,0 -10.5117,44.0704 -9.4102,56.7696 0.5977,6.789 3.8399,8.7109 5.0977,14.5898 0.09,0.4102 0.1719,0.8203 0.2422,1.2383 0.6094,3.4297 1.2109,6.9531 0.8789,10.5"
     id="path142" />
  <path
     style="fill:#7fbdcc;fill-opacity:1;fill-rule:nonzero;stroke:none"
     d="m 3003.7695,1355.1289 c -3.3789,18.9727 -8.1992,38.5703 -12.3906,58.9609 -6.7305,32.7813 -11.8008,67.6094 -6.6094,105.1094 0.6719,4.8321 1.0313,10.1524 1.1094,15.8789 1.0117,66.2813 -28.6094,186.4024 -28.6094,186.4024 0,0 -8.039,3.4687 -21.5195,2.8008 -6.9414,-0.3399 -17.5898,-4.8204 -17.5898,-4.8204 0,0 -2.8086,-74.4726 -2.9688,-174.6328 -0.1328,-72.5898 -14.3828,-168.1797 -17.2617,-224.3476 -1.7383,-34 2.0391,-79.2813 2.0391,-79.2813 0,0 59.0429,-47.4687 80.2421,-23.1875 20.9493,24 36.1993,66.1485 23.5586,137.1172"
     id="path144" />
  <path
     style="fill:#5e99a6;fill-opacity:1;fill-rule:nonzero;stroke:none"
     d="m 2984.7695,1519.1992 c 0.6719,4.8321 1.0313,10.1524 1.1094,15.8789 -44.207,-64.0586 -53.9883,-203.7383 -53.9883,-203.7383 l 48.5586,23.5704 c 0,0 5.3321,26.1914 10.9297,59.1796 -6.7305,32.7813 -11.8008,67.6094 -6.6094,105.1094"
     id="path146" />
  <path
     style="fill:#ffb07d;fill-opacity:1;fill-rule:nonzero;stroke:none"
     d="m 3084.8984,1786.3086 c -0.3203,3.5312 -2.289,5.8125 -5.3984,7.1719 l -0.039,0.02 c -5.7617,2.5195 -15.4023,1.9492 -25.832,0.5391 -1.3281,-0.168 -2.5273,-0.3203 -3.6094,-0.418 -0.2812,-0.02 -0.5586,-0.051 -0.8398,-0.07 -0.2109,-0.012 -0.4297,-0.031 -0.6406,-0.039 -10.3789,-0.6914 -9.5703,2.5078 -29.3985,2.4102 -22.6093,-0.1211 -30.2617,-7.7305 -31.3008,-10.9805 -0.871,-2.75 9.0313,-4.8906 20.1016,-7.3516 0.5274,-0.121 1.0703,-0.2382 1.6094,-0.3593 1.4805,-0.3203 2.9609,-0.6719 4.4297,-1 13.1992,-3.1016 26.2578,-7.0117 30.5781,-19.6797 4.5898,-13.4492 -1.957,-52.7227 -1.957,-52.7227 l 37.0898,-3.0976 c 0,0 -2.3008,44.75 -1.2031,57.4492 0.6015,6.7812 4.043,10.5117 5.293,16.3906 0.09,0.4102 0.1796,0.8203 0.25,1.2383 0.6093,3.4297 1.207,6.9531 0.8671,10.5"
     id="path148" />
  <path
     style="fill:#7fbdcc;fill-opacity:1;fill-rule:nonzero;stroke:none"
     d="m 3079.6797,1724.8711 c 0,0 -9.5391,4.5078 -16.4102,5.8789 -6.8593,1.3789 -21.1211,-1.3008 -21.1211,-1.3008 -2.5781,-28.8476 -8.5468,-73.9375 -20.1679,-124.8398 -13.2188,-57.9375 -32.9024,-126.3985 -60.3399,-191.2383 -5.8593,-13.8516 -30.0312,-79.3906 -34.1289,-95.9297 -12.4023,-49.9805 0.047,-44.6016 0.047,-44.6016 l 108.3906,-12.7187 c 0,0 13.3594,6.8672 19.5117,77.4375 1.8399,21.1328 2.0586,112.3906 4.8399,129.6914 2.6211,16.3789 5.6992,30 9.3086,38.8594 20.1289,49.4219 10.0703,218.7617 10.0703,218.7617"
     id="path150" />
  <path
     style="fill:#b84a3f;fill-opacity:1;fill-rule:nonzero;stroke:none"
     d="m 3084.8984,1786.3086 c -0.3203,3.5312 -2.289,5.8125 -5.3984,7.1719 l -0.039,0.02 c -6.082,2.1719 -15.582,1.6992 -25.8007,0.4805 -1.3399,-0.1602 -2.5391,-0.2813 -3.6407,-0.3594 -0.2812,-0.02 -0.5586,-0.051 -0.8398,-0.07 -0.2109,-0.012 -0.4297,-0.031 -0.6406,-0.039 -10.3789,-0.6914 -9.5703,2.5078 -29.3985,2.4102 -22.6093,-0.1211 -30.2617,-7.7305 -31.3008,-10.9805 -0.871,-2.75 9.0313,-4.8906 20.1016,-7.3516 2.9102,1.4415 16.8399,7.7383 34.1602,6.0586 15.2187,-1.457 30.7578,-7.5586 41.6797,-9.0781 0.09,0.4102 0.1796,0.8203 0.25,1.2383 0.6093,3.4297 1.207,6.9531 0.8671,10.5"
     id="path152" />
  <path
     style="fill:#b84a3f;fill-opacity:1;fill-rule:nonzero;stroke:none"
     d="m 2957.1797,1786.3086 c -0.3281,3.5312 -2.2891,5.8125 -5.3984,7.1719 l -0.051,0.02 c -6.0821,2.1719 -15.5821,1.6992 -25.8008,0.4805 -1.3281,-0.1602 -2.5391,-0.2813 -3.6289,-0.3594 -0.2813,-0.02 -0.5703,-0.051 -0.8399,-0.07 -0.2226,-0.012 -0.4414,-0.031 -0.6523,-0.039 -10.3789,-0.6914 -9.5703,2.5078 -29.3984,2.4102 -22.6094,-0.1211 -30.25,-7.7305 -31.2891,-10.9805 -0.8711,-2.75 9.0273,-4.8906 20.0898,-7.3516 2.918,1.4415 16.8477,7.7383 34.1602,6.0586 15.2187,-1.457 30.7695,-7.5586 41.6875,-9.0781 0.09,0.4102 0.1719,0.8203 0.2422,1.2383 0.6094,3.4297 1.2109,6.9531 0.8789,10.5"
     id="path154" />
  <path
     style="fill:#b54a3f;fill-opacity:1;fill-rule:nonzero;stroke:none"
     d="m 2913.8203,935.55078 c -3.6719,-29.90234 5.668,-77.75 65.3516,-70.10156 59.6797,7.64062 78.4883,66.28906 66.4492,92.37109 -12.0313,26.07813 17.3281,32.3711 26.5508,60.41019 7.9179,24.0976 10.6797,54.0078 23.4883,67.4297 41.3086,43.289 -39.6602,109.8398 -88.4805,95.8086 -88.918,-25.5704 -100.3711,-29.379 -97.2188,-99.25 1.6172,-35.7891 29.4688,-49.6602 11.7891,-60.0196 -42.7187,-25.01951 0.3516,-18.9883 -7.9297,-86.64842"
     id="path156" />
  <path
     style="fill:#ffb07d;fill-opacity:1;fill-rule:nonzero;stroke:none"
     d="m 3001.5391,1013.8203 -16.4493,42.4805 -35.4804,1.7305 -17.6992,-26.4297 c 11.1679,-8.5 15.8906,-21.25 17.6211,-32.65238 1.4179,-9.12891 1.0195,-17.39063 0.6289,-21.87891 -0.2305,-2.28125 -0.4688,-3.60937 -0.4688,-3.60937 L 2993.9102,960 l 0.1484,-0.0781 c 0.5508,11.72657 1.1797,20.92969 1.8906,28.08985 2.5196,25.24995 5.5899,25.80855 5.5899,25.80855"
     id="path158" />
  <path
     style="fill:#ffb07d;fill-opacity:1;fill-rule:nonzero;stroke:none"
     d="m 2931.7617,1012.3203 c 2.2774,0 41.0274,-7.8906 106.4883,8.8594 0,0 -35.8516,164.2305 -23.6719,195.1797 12.1719,30.9492 16.8008,58.4297 16.8008,58.4297 l -132.0976,1.6328 c 0,0 1.8476,-106.2422 -4.2422,-143.8438 -6.0899,-37.6093 36.7226,-120.2578 36.7226,-120.2578"
     id="path160" />
  <path
     style="fill:#ffb83d;fill-opacity:1;fill-rule:nonzero;stroke:none"
     d="m 3100.3281,1184.1797 c -6.6093,-45.6484 -31.1367,-139.3984 -47.6093,-154.7305 -14.5704,-13.5586 -45.9883,-14.8008 -45.9883,-14.8008 h -0.012 c -6.5196,10.2227 -28.8672,35.6211 -56.5899,31.043 -14.9687,-2.4609 -18,-29.3711 -18.3398,-32.9609 l 0.1015,-0.4102 -0.1289,0.019 v -0.019 c -0.1133,0.019 -0.2226,0.051 -0.3203,0.07 -4.3711,0.6406 -39.1328,6.3008 -49.4531,24.0508 -15.2266,26.207 -31.8086,104.8672 -48.1094,103.6992 -7.4805,-0.5312 -82.75,-28.8203 -82.75,-28.8203 0,0 -12.5391,11.7383 -10.1406,26.1602 0,0 37.1601,24.8906 68.5898,40.7695 4.3633,2.1992 8.6133,4.2188 12.6328,5.9883 11.3282,4.9726 20.8672,7.8515 26.0899,6.6211 1.4883,-0.3477 3.0781,-1.0313 4.7305,-1.9883 6.8085,-3.9414 14.7695,-12.582 22.3984,-22.4414 5.0703,-6.5586 10,-13.6484 14.3516,-20.25 0.09,-0.1406 0.1796,-0.2695 0.2695,-0.4102 1.8594,25 3.7305,52.211 1.8008,73.5313 -1.4805,16.2305 -2.5508,51.3594 0.2265,60.4375 5.8125,18.9219 48.4532,23.9219 88.25,21.9531 18.7735,-0.9414 32.0235,-2.0117 41.6719,-4.2305 13.9883,-3.2226 20.3906,-8.8515 25,-19.9609 4.3906,-10.5781 -15.9219,-60.25 -17.8516,-81.9883 -1.7578,-19.7109 1.2618,-35.75 6.2305,-51.5234 14.0508,32.4609 28.3399,55.6719 30.2227,60.7031 3.9375,10.5899 63.9297,77.5391 63.9297,77.5391 0,0 4.8476,-0.9922 8.6875,-3.5117 3.9726,-2.5899 5.9531,-6.0196 5.9531,-6.0196 -10.5821,-25.1484 -43.8438,-88.5195 -43.8438,-88.5195"
     id="path162" />
  <path
     style="fill:#e38535;fill-opacity:1;fill-rule:nonzero;stroke:none"
     d="m 3047,1277.5 c -4.6094,11.1094 -11.0117,16.7383 -25,19.9609 -18.7109,-3.6015 -31.0508,-38.0312 -37.3984,-54.9726 -7.3203,-19.5195 30.8203,-119.9102 41.3398,-118.9883 7.8281,0.6719 9.1797,13.9609 9.4375,20.4883 -5.0586,15.9219 -8.0078,31.6133 -6.2305,51.5234 1.9297,21.7383 22.2422,71.4102 17.8516,81.9883"
     id="path164" />
  <path
     style="fill:#ffb07d;fill-opacity:1;fill-rule:nonzero;stroke:none"
     d="m 2751.6602,1119.2109 c 0,0 -6.4219,-15.7421 -13.4883,-16.3828 -7.0625,-0.6367 -29.543,-4.1679 -31.1524,-0.957 -1.6093,3.207 0,14.7695 4.8203,18.9492 4.8204,4.168 34.6797,10.918 34.6797,10.918 l 5.1407,-12.5274"
     id="path166" />
  <path
     style="fill:#e38535;fill-opacity:1;fill-rule:nonzero;stroke:none"
     d="m 2889.7813,1146.1797 c -4.3516,6.6016 -9.2813,13.6914 -14.3516,20.25 -7.2695,8.9492 -15.3008,17.6094 -22.3984,22.4414 -1.6524,0.957 -3.2422,1.6406 -4.7305,1.9883 -5.2227,1.2304 -14.7617,-1.6485 -26.0899,-6.6211 6.7383,0.4922 13.3594,0.25 19.8672,-0.2969 11.4024,-0.9726 14.7227,-13.3203 32.75,-31.832 10.7735,-11.0703 14.0508,-9.3594 14.9532,-5.9297"
     id="path168" />
  <path
     style="fill:#e18f59;fill-opacity:1;fill-rule:nonzero;stroke:none"
     d="m 2993.9102,960 c -6.6914,10.94141 -22.8204,33.44141 -44.3789,38.94922 1.4179,-9.12891 1.0195,-17.39063 0.6289,-21.87891 -0.2305,-2.28125 -0.4688,-3.60937 -0.4688,-3.60937 L 2993.9102,960"
     id="path170" />
  <path
     style="fill:#ffb07d;fill-opacity:1;fill-rule:nonzero;stroke:none"
     d="m 2938.0781,976.46094 c 0,0 53.1602,10.67968 59.3008,-22.53125 6.1406,-33.21094 17.1328,-54.19141 -16.5508,-62.41016 -33.6797,-8.21875 -42.6289,3.23047 -47.3789,13.80859 -4.7383,10.59375 -9.039,67.5 4.6289,71.13282"
     id="path172" />
  <path
     style="fill:#b54a3f;fill-opacity:1;fill-rule:nonzero;stroke:none"
     d="m 2964.0586,883.23047 c 0,0 -0.9297,11.25781 16.5508,30.37109 17.4804,19.10938 14.0703,57.75781 14.0703,57.75781 0,0 28.7109,-59.96093 12.9922,-77.64062 -15.7227,-17.67969 -43.6133,-10.48828 -43.6133,-10.48828"
     id="path174" />
  <path
     style="fill:#b54a3f;fill-opacity:1;fill-rule:nonzero;stroke:none"
     d="m 2985.4297,868.57031 c 0,0 -26.4297,-8.83984 -52.6484,17 -11.3008,11.14063 -9.5899,33.01953 -3.543,45.71875 0,0 9.3008,-27.21094 26.2109,-33.14844 16.9102,-5.92968 29.9805,-29.57031 29.9805,-29.57031"
     id="path176" />
  <path
     style="fill:#ffffff;fill-opacity:1;fill-rule:nonzero;stroke:none"
     d="m 2954.6406,960.12109 c 0,0 -1.4218,3.9375 -11.4297,2.14844 0,0 -8.4023,-1.5 -7.6328,-5.91797 0,0 8.5821,-2.22265 19.0625,3.76953"
     id="path178" />
  <path
     style="fill:#689cee;fill-opacity:1;fill-rule:nonzero;stroke:none"
     d="m 2133.0898,972.82812 c 14.4219,81.76168 -33.3085,148.03128 -106.5898,148.03128 -4.7695,0 -9.6602,-3.3008 -14.3984,-3.8477 65.25,-7.8633 106.2187,-67.75 92.75,-144.18358 -13.4805,-76.42968 -76.4922,-139.32812 -144.5235,-147.17968 4.543,-0.5586 9.1914,-0.83985 13.961,-0.83985 73.289,0 144.3906,66.26953 158.8007,148.01953"
     id="path180" />
  <path
     style="fill:#689cee;fill-opacity:1;fill-rule:nonzero;stroke:none"
     d="m 2025.5781,1117.7305 c -73.4883,0 -144.6289,-65.5821 -158.8867,-146.49222 -14.2695,-80.91016 33.7305,-146.50781 107.2188,-146.50781 73.5,0 144.6289,65.59765 158.8984,146.50781 14.2695,80.91012 -33.7383,146.49222 -107.2305,146.49222 z m 166.1133,-102.1797 c 20.8594,0 34.3789,-19.28127 30.1797,-43.07033 -4.1914,-23.78906 -24.5117,-43.08203 -45.3711,-43.08203 -1.0508,0 -2.0586,0.0898 -3.0703,0.17968 -3.1484,-8.78906 -6.75,-17.35937 -10.7383,-25.70703 10.5195,-7.28125 16.0274,-21.53125 13.1367,-37.91015 -4.0664,-23.08985 -23.3164,-41.92969 -43.5078,-43.03125 l -24.5703,0.30859 c -1.2383,0 -2.4492,0.0703 -3.6211,0.20313 -2.4883,-2.33985 -5,-4.6211 -7.5508,-6.85157 3.3828,-7.16015 4.6133,-15.98047 2.9219,-25.57031 -4.1992,-23.78906 -24.5195,-43.07031 -45.3789,-43.07031 -0.1602,0 -0.332,0 -0.4922,0.0117 v -0.0117 l -20.4805,0.39062 c -0.5781,-0.0312 -1.1601,-0.0508 -1.7382,-0.0508 -1.0391,0 -2.0508,0.0508 -3.0508,0.14063 l -0.01,0.0117 c -5.7735,0.53906 -10.8907,2.61718 -15.1133,5.85937 -4.2188,3.25 -7.5469,7.67969 -9.7383,12.92969 -0.5,-0.10938 -0.9805,-0.24219 -1.4805,-0.35156 -0.1211,-1.4375 -0.3086,-2.91016 -0.5781,-4.39063 -4.1914,-23.78906 -24.5,-43.07812 -45.3633,-43.07812 l -22.4179,0.37109 c -0.1016,0 -0.1914,-0.0117 -0.2891,-0.0117 -0.3594,0 -0.7109,0.0195 -1.0625,0.0312 l -0.418,0.008 h -0.012 c -1.6289,0.0703 -3.2187,0.26172 -4.75,0.58203 l -0.01,0.008 c -0.9922,0.33984 -33.9414,12.30078 -22.6797,53.82031 l -2.3008,1 c 0,0 -6.539,-13.21875 -18.2617,-20.39844 -14.5,-8.8789 -23.9492,-6.78125 -25.207,-6.62109 l -19.5508,0.0898 0.01,0.0312 c -20.3789,0.51953 -33.4687,19.58985 -29.3281,43.05078 1.9609,11.09766 7.4375,21.17969 14.8203,28.8086 -0.6797,0.91015 -1.3516,1.83984 -2.0195,2.76953 l -6.793,0.0703 c -1,-0.0898 -2.0195,-0.14062 -3.0195,-0.14062 -1.2774,0 -2.5196,0.0703 -3.7383,0.22265 l -17.2813,0.17969 c -0.098,0 -0.2109,-0.0117 -0.3007,-0.0195 -0.4688,-0.0117 -0.9375,-0.0234 -1.3985,-0.0234 -0.8203,0 -1.6211,0.0312 -2.4101,0.0898 h -0.051 c -0.668,0.0508 -1.3399,0.11329 -2,0.20313 -18.2891,2.53906 -29.6094,20.71875 -25.7188,42.77734 3.25,18.46094 16.2305,34.17188 31.6211,40.30078 -0.8633,7.5 -1.3203,15.19922 -1.3711,23.05079 l -7.5625,0.1289 c -0.3164,-0.008 -0.6484,-0.0273 -0.9765,-0.0273 -0.793,0 -1.5625,0.0391 -2.3203,0.0898 l -1.4415,0.0195 0.031,0.0977 c -18.7227,2.15234 -30.4023,20.51953 -26.4492,42.85937 4.1875,23.79297 24.5,43.08204 45.3672,43.08204 l 8.4922,-0.129 c 1.9882,5.5469 4.1484,11.0196 6.5,16.4102 -14.6094,5.3281 -23.0508,21.7695 -19.6211,41.25 4.0312,22.8672 22.9687,41.5703 42.9687,42.9688 v 0.012 h 0.062 c 0.7774,0.047 1.5586,0.09 2.3399,0.09 1.039,0 2.0468,-0.062 3.0468,-0.1523 l 19.1836,-0.1992 -0.012,-0.02 c 0.1602,0.01 0.3281,0.02 0.5,0.02 2.6406,0 5.1602,-0.3204 7.5391,-0.9102 3.1093,3.1406 6.2695,6.2109 9.5117,9.1797 -4.1524,7.4687 -5.7617,17.082 -3.9102,27.5703 4.1875,23.8008 24.5078,43.0781 45.3789,43.0781 l 22.2188,-0.3476 -0.01,-0.02 c 0.1601,0.01 0.3281,0.02 0.5,0.02 12.7187,0 22.6797,-7.1914 27.5781,-18.1914 2.5195,0.6797 5.0508,1.3203 7.5898,1.9023 0.1329,1.4297 0.3204,2.8984 0.5821,4.3789 4.1992,23.7891 24.5195,43.0781 45.3789,43.0781 l 22.6914,-0.3593 h 0.09 l 1.4492,-0.02 v -0.02 c 19.9883,-0.9102 32.75,-19.8281 28.6602,-43.0391 -0.2617,-1.4726 -0.5781,-2.9296 -0.9687,-4.3711 0.7304,-0.1914 1.4492,-0.3906 2.1796,-0.5781 8.7383,10.6367 21,17.5664 33.4805,17.5664 l 21.8594,-0.3867 c 0.289,0.01 0.5703,0.039 0.8476,0.039 20.8633,0 34.3829,-19.2891 30.1914,-43.0821 -1.5898,-8.9687 -5.4687,-17.2968 -10.8085,-24.1992 2.8281,-3.6211 5.4882,-7.3906 8.0078,-11.289 h 25.6406 v -0.012 c 0.1601,0 0.332,0.012 0.4922,0.012 20.8594,0 34.3789,-19.2891 30.1875,-43.0821 -3.0703,-17.3789 -14.75,-32.3086 -28.9492,-39.1172 0.5586,-6.0898 0.8593,-12.2812 0.8984,-18.582 1.043,0.09 2.082,0.1719 3.1328,0.1719"
     id="path182" />
  <path
     style="fill:#aeccfa;fill-opacity:1;fill-rule:nonzero;stroke:none"
     d="m 2025.5781,1117.7383 c -73.4883,0 -144.6289,-65.5977 -158.8867,-146.50783 -14.2695,-80.91016 33.7383,-146.5 107.2305,-146.5 73.4765,0 144.6172,65.58984 158.8867,146.5 14.2695,80.91013 -33.7383,146.50783 -107.2305,146.50783 z m 165.6211,-102.1797 c 20.8594,0 34.3789,-19.28907 30.1797,-43.07813 -4.1875,-23.78906 -24.5078,-43.08203 -45.3672,-43.08203 -1.0508,0 -2.0625,0.0898 -3.0703,0.17968 -3.1523,-8.77734 -6.75,-17.35937 -10.75,-25.70703 10.5274,-7.28125 16.0391,-21.53125 13.1484,-37.91015 -4.1914,-23.78907 -24.5117,-43.08203 -45.371,-43.08203 -7.7071,0 -14.3985,2.65234 -19.5782,7.17187 -4.6211,-4.69141 -9.3906,-9.17969 -14.3008,-13.46094 3.379,-7.16015 4.6016,-15.98047 2.9102,-25.57031 -4.1914,-23.78906 -24.5,-43.07812 -45.3711,-43.07812 -15.3281,0 -26.668,10.4375 -29.9375,25.41015 -7.3008,-2.61328 -14.6914,-4.78125 -22.1523,-6.47265 -0.1289,-1.44922 -0.3203,-2.91016 -0.5782,-4.39063 -4.1992,-23.78906 -24.5117,-43.06641 -45.3711,-43.06641 -20.871,0 -34.3789,19.27735 -30.1796,43.06641 0.2617,1.48047 0.5781,2.94141 0.9609,4.39063 -8.4492,2.08203 -16.543,4.88281 -24.2305,8.33984 -8.3515,-15.95703 -23.9687,-27.27734 -39.9297,-27.27734 -20.8711,0 -34.3828,19.28906 -30.1796,43.07812 1.9492,11.08984 7.4375,21.17188 14.8203,28.80859 -3.1016,4.13282 -6.0235,8.45313 -8.7422,12.94141 -7.6211,-6.17969 -16.6602,-9.89062 -25.8203,-9.89062 -20.8594,0 -34.3672,19.29296 -30.1797,43.08203 3.2617,18.46093 16.2422,34.16797 31.6289,40.28906 -0.9102,7.89062 -1.3789,15.96875 -1.3985,24.23828 -2.8007,-0.6875 -5.6484,-1.08984 -8.5195,-1.08984 -20.8594,0 -34.3711,19.29297 -30.1797,43.08203 4.1992,23.78906 24.5078,43.07813 45.3711,43.07813 2.8672,0 5.5781,-0.3984 8.1367,-1.0899 2.0899,5.8907 4.3829,11.6797 6.8516,17.3711 -14.6094,5.3321 -23.0508,21.7696 -19.6094,41.2383 4.1875,23.793 24.5,43.0821 45.3711,43.0821 9.0899,0 16.7774,-3.6719 22.2188,-9.7696 5.5976,6.211 11.4609,12.1094 17.539,17.6797 -4.1484,7.4805 -5.7578,17.0899 -3.8984,27.5781 4.1875,23.793 24.5,43.0821 45.3672,43.0821 15.3008,0 26.6133,-10.4024 29.9219,-25.3086 9.1679,3.6094 18.5117,6.5195 27.9687,8.6679 0.1328,1.4415 0.3203,2.8985 0.582,4.379 4.1875,23.7929 24.5079,43.0703 45.3672,43.0703 20.8633,0 34.3828,-19.2774 30.1836,-43.0703 -0.2617,-1.4805 -0.582,-2.9375 -0.9726,-4.379 7.1523,-1.7695 14.039,-4.039 20.6523,-6.8007 8.707,13.9101 23.0703,23.4414 37.7188,23.4414 20.8711,0 34.3789,-19.2891 30.1796,-43.0821 -1.5781,-8.9687 -5.4609,-17.2968 -10.8007,-24.1992 4.4922,-5.7383 8.6015,-11.8398 12.3125,-18.289 6.707,4.4101 14.2265,7 21.8281,7 20.8711,0 34.3789,-19.2891 30.1797,-43.0821 -3.0586,-17.3789 -14.7383,-32.3164 -28.9375,-39.1289 0.5586,-6.0781 0.8594,-12.2695 0.8984,-18.5703 1.0391,0.09 2.0781,0.1797 3.1289,0.1797"
     id="path184" />
  <path
     style="fill:#d76611;fill-opacity:1;fill-rule:nonzero;stroke:none"
     d="m 2380.1289,978.69922 c 11.0195,62.51168 -25.4687,113.17188 -81.4883,113.17188 -3.6523,0 -7.3906,-2.5195 -11.0117,-2.9414 49.8906,-6.0078 81.2109,-51.8008 70.9102,-110.23048 -10.3086,-58.42969 -58.4805,-106.50781 -110.4883,-112.51953 3.4687,-0.41797 7.0273,-0.64063 10.6797,-0.64063 56.0195,0 110.3789,50.67188 121.3984,113.16016"
     id="path186" />
  <path
     style="fill:#d76611;fill-opacity:1;fill-rule:nonzero;stroke:none"
     d="m 2297.9297,1089.4805 c -56.1797,0 -110.5586,-50.1407 -121.4688,-111.99222 -10.9101,-61.85937 25.7891,-112.00781 81.9805,-112.00781 56.1797,0 110.5703,50.14844 121.4688,112.00781 10.9101,61.85152 -25.7891,111.99222 -81.9805,111.99222 z m 126.9922,-78.1094 c 15.957,0 26.289,-14.75001 23.0781,-32.94141 C 2444.8008,960.25 2429.2617,945.5 2413.3086,945.5 c -0.7969,0 -1.5703,0.0703 -2.3398,0.14062 -2.4102,-6.71875 -5.1602,-13.28125 -8.2188,-19.65234 8.0508,-5.56641 12.2617,-16.46875 10.0508,-28.98828 -3.1094,-17.64844 -17.832,-32.05078 -33.2617,-32.89063 l -18.7891,0.23047 c -0.9414,0 -1.8711,0.0508 -2.7695,0.16016 -1.9024,-1.78906 -3.8086,-3.53906 -5.7696,-5.23828 2.5899,-5.48047 3.5274,-12.22266 2.2383,-19.55078 -3.2109,-18.17969 -18.75,-32.92969 -34.6992,-32.92969 -0.1211,0 -0.2383,0 -0.3711,0.008 v -0.008 l -15.6484,0.29687 c -0.4492,-0.0195 -0.9024,-0.0391 -1.3399,-0.0391 -0.789,0 -1.5625,0.0391 -2.332,0.10938 l -0.01,0.0117 c -4.4102,0.41015 -8.3203,2 -11.5508,4.48046 -3.2305,2.48047 -5.7695,5.8711 -7.4414,9.89063 -0.3867,-0.0898 -0.75,-0.19141 -1.1289,-0.26953 -0.1016,-1.11328 -0.25,-2.23047 -0.4492,-3.36328 -3.1992,-18.1875 -18.7305,-32.92969 -34.6797,-32.92969 l -17.1406,0.28125 -0.2188,-0.0117 c -0.2695,0 -0.543,0.0117 -0.8125,0.0234 l -0.3203,0.008 h -0.01 c -1.25,0.0508 -2.461,0.19922 -3.6289,0.44141 l -0.012,0.008 c -0.75,0.26172 -25.9493,9.41016 -17.3321,41.14062 l -1.7695,0.76954 c 0,0 -5,-10.10938 -13.9492,-15.58985 -11.0899,-6.78906 -18.3086,-5.1875 -19.2813,-5.05859 l -14.9375,0.0586 v 0.0312 c -15.5703,0.39063 -25.582,14.96875 -22.4218,32.91016 1.5,8.48047 5.6914,16.1914 11.332,22.01953 -0.5195,0.69922 -1.0313,1.41016 -1.5391,2.12109 l -5.2031,0.0586 c -0.7578,-0.0703 -1.5391,-0.10938 -2.3086,-0.10938 -0.9687,0 -1.9219,0.0508 -2.8516,0.16016 l -13.207,0.14062 -0.2305,-0.0117 c -0.3593,-0.008 -0.7226,-0.0195 -1.0703,-0.0195 -0.6289,0 -1.2422,0.0195 -1.8398,0.0703 h -0.039 c -0.5234,0.0391 -1.0312,0.0898 -1.5312,0.16015 -13.9805,1.94141 -22.6407,15.83985 -19.6719,32.69922 2.4922,14.10938 12.4219,26.12109 24.1797,30.80859 -0.6602,5.73047 -1.0078,11.6211 -1.0469,17.6211 l -5.7812,0.10156 c -0.25,-0.0117 -0.5,-0.0312 -0.75,-0.0312 -0.6016,0 -1.1914,0.0391 -1.7696,0.0703 l -1.1015,0.0195 0.019,0.082 c -14.3086,1.63671 -23.2383,15.67968 -20.2188,32.76953 3.1993,18.17968 18.7305,32.9297 34.6915,32.9297 l 6.4804,-0.1015 c 1.5274,4.2421 3.1797,8.4296 4.9688,12.539 -11.1602,4.0821 -17.6211,16.6407 -14.9922,31.543 3.082,17.4883 17.5625,31.7773 32.8515,32.8477 v 0.012 h 0.039 c 0.6016,0.039 1.1914,0.07 1.793,0.07 0.789,0 1.5664,-0.051 2.3281,-0.1211 l 14.6719,-0.1484 -0.012,-0.02 c 0.1211,0.01 0.25,0.02 0.3789,0.02 2.0195,0 3.9414,-0.2422 5.7695,-0.6915 2.3711,2.3985 4.793,4.7383 7.2617,7.0118 -3.1719,5.707 -4.3984,13.0586 -2.9922,21.0781 3.211,18.1914 18.75,32.9297 34.7032,32.9297 l 16.9882,-0.2578 -0.01,-0.024 c 0.1172,0.012 0.25,0.024 0.3789,0.024 9.7305,0 17.3399,-5.5 21.0899,-13.9102 1.9179,0.5195 3.8593,1.0078 5.8008,1.4492 0.098,1.0977 0.2382,2.2188 0.4375,3.3477 3.2109,18.1914 18.75,32.9336 34.7031,32.9336 l 17.3398,-0.2735 h 0.066 l 1.1133,-0.01 v -0.019 c 15.2774,-0.6992 25.0391,-15.1602 21.9102,-32.9023 -0.2032,-1.129 -0.4532,-2.25 -0.7422,-3.3477 0.5625,-0.1406 1.1015,-0.293 1.6601,-0.4414 6.6914,8.1289 16.0586,13.4297 25.6016,13.4297 l 16.707,-0.2891 c 0.2227,0 0.4336,0.031 0.6524,0.031 15.9492,0 26.289,-14.75 23.0781,-32.9297 -1.207,-6.8711 -4.1797,-13.2422 -8.2578,-18.5117 2.1601,-2.7696 4.1992,-5.6485 6.1211,-8.6289 h 19.6094 l -0.012,-0.012 c 0.1289,0 0.25,0.012 0.3789,0.012 15.9532,0 26.2813,-14.75 23.0821,-32.9297 -2.3516,-13.293 -11.2696,-24.711 -22.1407,-29.9102 0.4297,-4.6602 0.6602,-9.3906 0.6915,-14.2109 0.7968,0.07 1.5976,0.1406 2.3906,0.1406"
     id="path188" />
  <path
     style="fill:#f0a14c;fill-opacity:1;fill-rule:nonzero;stroke:none"
     d="m 2297.9414,1089.4805 c -56.1914,0 -110.5703,-50.1407 -121.4805,-112.00003 -10.9101,-61.85156 25.8008,-112 81.9805,-112 56.1797,0 110.5703,50.14844 121.4688,112 10.9101,61.85933 -25.7891,112.00003 -81.9688,112.00003 z m 126.6094,-78.1094 c 15.9492,0 26.2773,-14.75001 23.0781,-32.92969 -3.207,-18.19141 -18.7383,-32.92969 -34.6875,-32.92969 -0.8008,0 -1.582,0.0586 -2.3516,0.1289 -2.3984,-6.71093 -5.1484,-13.28125 -8.2109,-19.66015 8.043,-5.5586 12.2617,-16.44922 10.0508,-28.98047 -3.2109,-18.19141 -18.7383,-32.92969 -34.6914,-32.92969 -5.8867,0 -11.0078,2.01953 -14.9688,5.48047 -3.5312,-3.58984 -7.1797,-7.01953 -10.9297,-10.28906 2.5821,-5.47266 3.5196,-12.22266 2.2305,-19.55078 -3.2109,-18.19141 -18.7422,-32.92969 -34.6914,-32.92969 -11.7187,0 -20.3789,7.98047 -22.8906,19.41797 -5.5781,-1.98828 -11.2266,-3.64844 -16.9375,-4.94922 -0.09,-1.10156 -0.2422,-2.21875 -0.4414,-3.35156 -3.1992,-18.1875 -18.7305,-32.92969 -34.6797,-32.92969 -15.9492,0 -26.2813,14.74219 -23.0781,32.92969 0.1992,1.13281 0.4492,2.25 0.7382,3.35156 -6.4609,1.60156 -12.6406,3.73047 -18.5312,6.37891 -6.3789,-12.19922 -18.3203,-20.84766 -30.5195,-20.84766 -15.9493,0 -26.2774,14.73828 -23.0782,32.92969 1.5,8.48047 5.6875,16.1875 11.3399,22.01953 -2.3789,3.16015 -4.6016,6.46094 -6.6797,9.89844 -5.832,-4.71875 -12.7422,-7.5586 -19.7422,-7.5586 -15.9492,0 -26.2773,14.73828 -23.0703,32.92969 2.4805,14.12109 12.4023,26.12109 24.1719,30.80859 -0.6914,6.01953 -1.0508,12.21094 -1.0586,18.53125 -2.1524,-0.53125 -4.3321,-0.82812 -6.5235,-0.82812 -15.9492,0 -26.2773,14.73828 -23.0703,32.92969 3.211,18.17968 18.7422,32.92969 34.6836,32.92969 2.1992,0 4.2696,-0.3008 6.2266,-0.832 1.5898,4.5 3.3398,8.9218 5.2305,13.2812 -11.168,4.0703 -17.6172,16.6406 -14.9883,31.5313 3.1992,18.1797 18.7304,32.9297 34.6797,32.9297 6.9492,0 12.8281,-2.8008 16.9882,-7.4727 4.293,4.75 8.7735,9.2617 13.4102,13.5195 -3.168,5.711 -4.3984,13.0625 -2.9805,21.0821 3.211,18.1914 18.7305,32.9414 34.6836,32.9414 11.6992,0 20.3477,-7.9532 22.8789,-19.3516 7.0078,2.7617 14.1485,4.9805 21.3789,6.6211 0.1016,1.0977 0.25,2.2187 0.4493,3.3477 3.2031,18.1914 18.7304,32.9296 34.6796,32.9296 15.9532,0 26.2813,-14.7382 23.0821,-32.9296 -0.1992,-1.129 -0.4492,-2.25 -0.7422,-3.3477 5.4609,-1.3516 10.7226,-3.082 15.7812,-5.1914 6.6602,10.6289 17.6407,17.9219 28.8399,17.9219 15.9492,0 26.2812,-14.75 23.0703,-32.9414 -1.2109,-6.8594 -4.1797,-13.2305 -8.25,-18.5 3.4219,-4.3789 6.5703,-9.0508 9.3984,-13.9805 5.1328,3.3711 10.8828,5.3516 16.7032,5.3516 15.9492,0 26.2773,-14.75 23.0703,-32.9297 -2.3399,-13.293 -11.2735,-24.711 -22.1328,-29.9219 0.4296,-4.6406 0.6601,-9.3789 0.6914,-14.1992 0.8007,0.078 1.5898,0.1406 2.3906,0.1406"
     id="path190" />
  <path
     style="fill:#aeccfa;fill-opacity:1;fill-rule:nonzero;stroke:none"
     d="m 1343.1289,1026.6914 69.2305,258.3594 h 61.4922 l -69.2305,-258.3594 h -61.4922"
     id="path192" />
  <path
     style="fill:#aeccfa;fill-opacity:1;fill-rule:nonzero;stroke:none"
     d="m 1425.4688,1000.3086 76.3007,284.7422 h 61.4922 l -76.3008,-284.7422 h -61.4921"
     id="path194" />
  <path
     style="fill:#aeccfa;fill-opacity:1;fill-rule:nonzero;stroke:none"
     d="m 1501.7695,954.87891 88.4688,330.17189 h 61.4922 l -88.4688,-330.17189 h -61.4922"
     id="path196" />
  <path
     style="fill:#aeccfa;fill-opacity:1;fill-rule:nonzero;stroke:none"
     d="m 1647.4219,921.41016 h -61.4922 l 88.4805,330.17964 h 61.4882 l -88.4765,-330.17964"
     id="path198" />
  <path
     style="fill:#aeccfa;fill-opacity:1;fill-rule:nonzero;stroke:none"
     d="m 1352.2305,1001.4414 65.8984,-50.65234 4.9805,18.58985 c 0.8203,3.07031 3.3125,5.88281 6.4219,7.23046 3.1171,1.37891 6.3281,1.0625 8.2695,-0.80078 l 70.3789,-67.26953 9.8516,8.85156 c 1.1875,1.07032 2.7968,0.57813 2.6484,-0.80078 l -3.168,-28.16797 c -0.1133,-0.97265 -1.082,-1.85156 -2.0625,-1.89062 l -29.2304,-0.92969 c -1.4297,-0.0508 -1.7774,1.60938 -0.5782,2.67969 l 8.7891,7.91016 -59.5391,56.89843 -4.5625,-17.03125 c -0.789,-2.94922 -3.1172,-5.66015 -6.0898,-7.07812 -2.9492,-1.41016 -6.0899,-1.30078 -8.1485,0.26953 l -76.1914,58.55859 c -3.1171,2.40235 -2.8789,7.39063 0.5118,11.15235 2.1992,2.41796 5.1601,3.73826 7.8281,3.73826 1.4805,0 2.8828,-0.4101 3.9922,-1.2578"
     id="path200" />
  <path
     style="fill:#cadeff;fill-opacity:1;fill-rule:nonzero;stroke:none"
     d="m 1333.1289,1214.3906 2.6016,10.0586 c -1.461,-2.9179 -2.2696,-6.3281 -2.6016,-10.0586"
     id="path202" />
  <path
     style="fill:#cadeff;fill-opacity:1;fill-rule:nonzero;stroke:none"
     d="M 2640.5,1334.2891 H 1364.4414 l -28.7109,-109.8399 c 26.4414,56.7891 241.4179,-5.3476 289.5976,-39.9101 88.1016,-63.5977 88.75,-126.2305 179.9336,-168.7383 123.4688,-57.58986 246.9375,32.6211 346.2266,7.9492 304.543,-75.44141 556.9922,-322.21094 564.7812,-330 -85.5078,197.94141 -293.8281,302.10156 -133.6914,367 166.1328,67.3281 57.9219,273.5391 57.9219,273.5391"
     id="path204" />
  <path
     style="fill:#aeccfa;fill-opacity:1;fill-rule:nonzero;stroke:none"
     d="m 1360.3516,775.64844 c -3.6797,-2.23828 -11.1719,-5.32032 -22.4532,-9.23828 -5.3086,-1.83204 -9.0586,-3.32032 -11.25,-4.48829 -2.789,-1.5 -4.6171,-3.66015 -5.4882,-6.49218 -1.0391,-3.41016 -0.6602,-6.0586 1.1406,-7.92969 1.8086,-1.87109 4.4101,-2.80859 7.8281,-2.80859 2.3399,0 5.543,0.73046 9.6094,2.1875 4.0703,1.46093 6.8633,2.1914 8.3633,2.1914 2.0781,0 3.6289,-0.60156 4.6367,-1.80078 1.0117,-1.19922 1.1914,-2.83984 0.5625,-4.91016 -0.7617,-2.48046 -2.6797,-4.66796 -5.7617,-6.57812 -5.5703,-3.48047 -12.5586,-5.22266 -20.9805,-5.22266 -8.168,0 -14.3789,2.17188 -18.6367,6.5 -4.6602,4.66016 -5.7813,10.94141 -3.3711,18.85157 2.5976,8.48828 8.1797,14.89062 16.7578,19.21875 7.5898,2.75 15.1797,5.49218 22.7695,8.24218 8.1719,3 13.0703,7.16016 14.7032,12.48047 1.1171,3.66016 0.7187,6.8086 -1.1797,9.42969 -1.9102,2.61719 -4.7032,3.92969 -8.3711,3.92969 -3.4219,0 -6.8594,-0.5 -10.3321,-1.5 -0.1992,-0.082 -2.5195,-0.88282 -6.9765,-2.38282 -3.2813,-1.15625 -5.3711,-1.75 -6.293,-1.75 -2.168,0 -3.7695,0.63282 -4.8008,1.88282 -1.039,1.25 -1.2187,2.96093 -0.5586,5.11718 1.3516,4.42188 6.0196,7.84375 14.0118,10.26172 5.8984,1.83203 11.6406,2.75 17.2187,2.75 9.2617,0 16.1211,-2.5 20.5898,-7.48828 4.7891,-5.33203 5.8008,-12.53125 3.0313,-21.60156 -2.4727,-8.07031 -7.3906,-14.35156 -14.7695,-18.85156"
     id="path206" />
  <path
     style="fill:#aeccfa;fill-opacity:1;fill-rule:nonzero;stroke:none"
     d="m 1399.9102,745.94141 h 12.8203 c 6.6211,0 9.1914,-2.41016 7.7187,-7.25 -1.5078,-4.92188 -5.6406,-7.38282 -12.3906,-7.38282 h -41.0078 c -6.75,0 -9.3711,2.46094 -7.8711,7.38282 1.4805,4.83984 5.5508,7.25 12.2187,7.25 h 12.6329 l 20.5976,67.39843 c 2.0899,6.83203 5.7422,10.25 10.9492,10.25 5.3828,0 7.0235,-3.41797 4.9336,-10.25 l -20.6015,-67.39843"
     id="path208" />
  <path
     style="fill:#aeccfa;fill-opacity:1;fill-rule:nonzero;stroke:none"
     d="m 1451.5391,787.94922 1.4726,-38.5 c 0.059,-0.57813 0.1289,-1 0.2071,-1.25 l 25.6601,39.75 z m 59.289,23.8789 -48.3593,-72.25781 c -4.1602,-6.26172 -9.0274,-9.3789 -14.6172,-9.3789 -5.4219,0 -8.3399,3.36718 -8.7813,10.1289 l -4.7305,71.64063 c -0.09,1.32812 0.1211,2.82812 0.629,4.5 0.6601,2.16797 1.9218,3.89843 3.7812,5.1875 1.8594,1.29297 3.8711,1.9414 6.0508,1.9414 3.5,0 5.3789,-2.21093 5.6211,-6.60937 l 0.5898,-15.01953 h 36.8399 l 9.5,14.58984 c 3.0078,4.6875 6.4179,7.03906 10.2382,7.03906 2.1485,0 3.8008,-0.64843 4.9297,-1.9414 1.1407,-1.28907 1.4024,-2.97657 0.7618,-5.0586 -0.4102,-1.33984 -1.2305,-2.91797 -2.4532,-4.76172"
     id="path210" />
  <path
     style="fill:#aeccfa;fill-opacity:1;fill-rule:nonzero;stroke:none"
     d="m 1535.1094,773.32812 c -4.8594,0 -8.4102,-0.25 -10.6602,-0.75781 l -8.2187,-26.8789 h 11.6914 c 9.8789,0 16.1875,4.48046 18.9297,13.4375 2.8867,9.47265 -1.0235,14.19921 -11.7422,14.19921 z m 41.4492,35.13282 -30.4375,-25.13282 c 16.0586,-1.16796 21.7383,-9.45703 17.0195,-24.8789 -2.7187,-8.91797 -7.8593,-15.75781 -15.3906,-20.50781 -6.9414,-4.42188 -14.9492,-6.63282 -24.0391,-6.63282 h -17.8711 c -6.5898,0 -8.8203,3.47266 -6.6992,10.41016 l 21.961,71.83984 c 2.0976,6.85157 5.75,10.28125 10.957,10.28125 5.3828,0 7.0312,-3.39843 4.9531,-10.1914 l -9.1601,-29.94922 0.8203,0.6289 39.5469,34.63282 c 3.7617,3.25 6.9726,4.8789 9.6406,4.8789 2.0898,0 3.6523,-0.64843 4.6797,-1.9414 1.0195,-1.28907 1.2226,-2.97657 0.582,-5.0586 -0.8125,-2.66797 -3,-5.46093 -6.5625,-8.3789"
     id="path212" />
  <path
     style="fill:#aeccfa;fill-opacity:1;fill-rule:nonzero;stroke:none"
     d="m 1601.4609,745.94141 h 12.8204 c 6.6171,0 9.1875,-2.41016 7.707,-7.25 -1.5,-4.92188 -5.6289,-7.38282 -12.3789,-7.38282 h -41.0078 c -6.75,0 -9.3711,2.46094 -7.8711,7.38282 1.4804,4.83984 5.5508,7.25 12.2187,7.25 h 12.6289 l 20.6016,67.39843 c 2.0898,6.83203 5.7422,10.25 10.9492,10.25 5.3828,0 7.0195,-3.41797 4.9297,-10.25 l -20.5977,-67.39843"
     id="path214" />
  <path
     style="fill:#aeccfa;fill-opacity:1;fill-rule:nonzero;stroke:none"
     d="m 1698.1914,812.67969 c -0.7226,-2.35938 -2.2031,-4.39844 -4.4414,-6.10938 -2.2305,-1.71094 -4.5312,-2.57031 -6.8984,-2.57031 -2.3633,0 -4.1407,0.85937 -5.3321,2.57031 -1.1914,1.71094 -1.4179,3.75 -0.6992,6.10938 0.7305,2.37109 2.211,4.41015 4.4414,6.12109 2.2383,1.71094 4.5391,2.57031 6.8985,2.57031 2.3711,0 4.1406,-0.85937 5.3281,-2.57031 1.1914,-1.71094 1.4336,-3.75 0.7031,-6.12109"
     id="path216" />
  <path
     style="fill:#aeccfa;fill-opacity:1;fill-rule:nonzero;stroke:none"
     d="m 2459.1094,1334.2891 h -619.4492 c 26.4492,-21.7383 62.6289,-59.3789 81.7695,-113.4102 32.4492,-91.1797 143.2617,-53.5391 241.1016,-69.2773 97.9882,-15.7305 295.6601,-215.24223 302.4179,-192.26176 3.6211,12.3086 -40.5586,174.42186 24.3399,192.74996 64.082,18.0118 88.582,119.25 -30.1797,182.1993"
     id="path220" />
  <path
     style="fill:#26304f;fill-opacity:1;fill-rule:nonzero;stroke:none"
     d="M 3336.6484,1799.3711 H 264.49609 c -1.50781,0 -2.74218,-1.2305 -2.74218,-2.7422 0,-1.5078 1.23437,-2.7383 2.74218,-2.7383 H 3336.6484 c 1.5118,0 2.7422,1.2305 2.7422,2.7383 0,1.5117 -1.2304,2.7422 -2.7422,2.7422"
     id="path222" />
</svg>
