<?xml version="1.0" encoding="UTF-8"?> <svg xmlns="http://www.w3.org/2000/svg" xmlns:xlink="http://www.w3.org/1999/xlink" width="540px" height="540px" viewBox="0 0 540 540" version="1.1"><!-- Generator: Sketch 59.1 (86144) - https://sketch.com --><title>twitter-marketing</title><desc>Created with Sketch.</desc><defs><polygon id="path-1" points="0 0.0570677966 56.9933832 0.0570677966 56.9933832 129.85676 0 129.85676"></polygon><polygon id="path-3" points="0.123254096 0.153017566 235.99779 0.153017566 235.99779 62 0.123254096 62"></polygon><polygon id="path-5" points="0.0546224432 0.195739606 70.905928 0.195739606 70.905928 90.929997 0.0546224432 90.929997"></polygon></defs><g id="twitter-marketing" stroke="none" stroke-width="1" fill="none" fill-rule="evenodd"><rect id="background" fill="#ACC4D7" x="0" y="0" width="540" height="540"></rect><g id="Group-68" transform="translate(63.000000, 143.000000)"><path d="M213.047447,154.557883 C205.626054,146.823794 196.832253,145.48231 188.018475,148.472075 L141.068725,164.395436 L121,231.32328 L190.91092,202.243746 C193.046643,201.525882 195.401912,202.131455 196.92994,203.789762 L243.20647,247 L285,229.093488 L213.047447,154.557883 Z" id="Fill-1" fill="#143659"></path><polygon id="Fill-3" fill="#143659" points="277.978679 222 236 239.573502 242.004336 246 302 245.968517"></polygon><g id="Group-7" transform="translate(0.000000, 140.000000)"><mask id="mask-2" fill="white"><use xlink:href="#path-1"></use></mask><g id="Clip-6"></g><path d="M22.9627888,114.479102 C20.8282783,113.427484 19.5069147,111.212076 19.588628,108.824402 L23.1082783,52.1792558 C23.2617399,49.7014438 24.2403063,47.3478228 25.8845371,45.4949723 L40.8878937,28.5869599 L37.8067049,0.0570677966 L20.8980336,5.75984129 L1.86481678,39.5678536 C0.493627972,42.0196256 -0.143934965,44.8179307 0.0272643357,47.6242481 L4.37401259,118.066621 C4.78257902,124.692815 10.2493972,129.85676 16.8544217,129.85676 L54.657579,129.85676 L56.9933832,127.843663 L22.9627888,114.479102 Z" id="Fill-5" fill="#988BB3" mask="url(#mask-2)"></path></g><path d="M148.686083,37.0323124 L148.686083,37.0323124 C147.184564,39.9177011 143.775976,41.1646733 140.820416,39.9076124 L140.737328,39.8733105 L137.148716,47.4257651 C134.379114,53.2570751 136.790646,60.2748248 142.52372,63.0673968 L150.603043,67 L150.632717,66.4774016 C150.656457,66.0778863 150.969026,65.7590811 151.360727,65.7368858 L155.101667,65.5270393 C156.041353,65.4745777 156.844537,64.8188075 157.099736,63.8946761 L163.592473,40.4382818 C163.73491,40.0024468 163.871411,39.5726651 164,39.1489367 L151.236095,35.1174635 C149.835468,34.6715398 148.686083,35.5351387 148.686083,37.0323124" id="Fill-8" fill="#988BB3"></path><polygon id="Fill-10" fill="#FBAA1A" points="48 95 17 149 38.4874515 149"></polygon><path d="M83.740141,72.2349062 C83.740141,72.2349062 53.8183455,66.8648418 43.2880139,107.476079 C36.2897559,134.460702 27.6921814,171.836671 23.3215148,191.665218 C21.4686237,200.0701 27.8599,208.029983 36.4335147,208 L132.196838,207.667168 L139.237025,167.444804 L147,161.926407 L141.654968,107.163376 C141.091913,100.841173 137.12457,95.3388113 131.320308,92.8251641 L83.740141,72.2349062 Z" id="Fill-12" fill="#FBAA1A"></path><g id="Group-16" transform="translate(30.000000, 213.000000)"><mask id="mask-4" fill="white"><use xlink:href="#path-3"></use></mask><g id="Clip-15"></g><path d="M0.205883432,0.459497749 L0.205883432,14.7015556 C0.205883432,14.7015556 -4.94120238,64.7720379 66.011185,61.8793691 C136.963572,58.9867003 221.56867,47.8585974 233.208262,28.9436135 C233.208262,28.9436135 251.338356,0.124578135 195.157523,0.904063666 C195.157523,0.904063666 0.205883432,-0.431627653 0.205883432,0.459497749" id="Fill-14" fill="#445A7A" mask="url(#mask-4)"></path></g><path d="M385.390814,149 L294.222595,149 C293.968717,149 293.742825,149.157156 293.652868,149.396919 L271.507703,208.161061 C271.049922,209.373981 269.896276,210.175878 268.609095,210.175878 L211.794378,210.175878 C209.699184,210.175878 208,211.888472 208,214 L357.048425,214 C358.529713,214 359.863073,213.101392 360.4328,211.725272 L385.958542,149.834134 C386.112468,149.431171 385.818809,149 385.390814,149" id="Fill-17" fill="#FBAA1A"></path><path d="M333.5,172 C337.642077,172 341,175.357923 341,179.5 C341,183.642077 337.642077,187 333.5,187 C329.357923,187 326,183.642077 326,179.5 C326,175.357923 329.357923,172 333.5,172" id="Fill-19" fill="#FFFFFF"></path><g id="Group-23" transform="translate(95.000000, 0.000000)"><mask id="mask-6" fill="white"><use xlink:href="#path-5"></use></mask><g id="Clip-22"></g><path d="M45.3025858,39.5292252 L45.3870618,39.5630764 C48.3940023,40.8036234 51.8595263,39.5730326 53.3841156,36.725549 C54.0398096,35.2141923 54.5506878,34.3957897 55.9767218,34.8318729 L68.9538323,38.8103849 C76.9951354,13.0316978 57.5938323,4.90740897 57.5938323,4.90740897 C21.1645972,-11.1520002 7.75102776,17.7429888 5.22479547,33.2488313 C4.38204759,38.4220917 1.93626856,44.3181748 0.17434221,48.6889626 C-0.191720113,49.5969713 0.313124079,50.6184812 1.26046119,50.8912821 L16.5626708,55.3098597 L24.925787,40.7498597 C26.4081382,38.215002 29.5920759,37.6913039 32.2792147,38.915921 L32.2228975,38.4718729 C35.1151921,39.7900786 35.8231807,43.0099254 34.4675433,45.8633827 L20.659753,72.7591595 L22.3995547,73.0379341 C23.0351354,84.6887219 35.8714527,94.26463 44.6267785,89.8201661 C50.9182232,86.6262055 51.2702062,80.6464899 50.9685065,77.5361617 C48.3960136,77.0124637 46.4611127,74.7583718 46.4611127,72.0562492 C46.4611127,68.9658335 50.9001212,67.6476278 54.0196963,67.6476278 C54.4823025,67.6476278 54.8906028,67.6774965 55.2486198,67.7372339 L55.5442856,66.8610851 C55.6247388,66.6241267 55.5121042,66.3632733 55.2848238,66.255746 L47.1188181,62.4206037 C41.2879683,59.6667088 38.8361552,52.7411508 41.6540306,46.9844549 L45.3025858,39.5292252 Z" id="Fill-21" fill="#143659" mask="url(#mask-6)"></path></g><path d="M141,72.4572017 C141,75.190333 142.981689,77.4702922 145.616388,78 C145.536049,77.1822761 145.410391,76.5619339 145.336233,76.2356499 C145.303273,76.0886208 145.387732,75.9415916 145.533989,75.8952673 L145.709087,75.8388726 C146.844129,75.4662644 147.703136,74.2114812 147.377661,73.1943616 L146.963607,72.1349459 C146.833829,71.8026197 147.006867,71.4279975 147.350881,71.3071516 L149.066835,70.700908 C149.569467,70.4189343 149.892882,69.9073533 149.925841,69.3413917 L150,68.0906367 C149.631266,68.0302138 149.215152,68 148.74136,68 C145.546349,67.9979882 141,69.3313212 141,72.4572017" id="Fill-24" fill="#988BB3"></path><path d="M127.69889,37.5256342 L127.69889,37.5256342 C125.040822,36.2903482 121.887351,37.2990314 120.419047,39.8518221 L119.911706,40.8063613 C115.506793,49.0723498 105.696214,52.7581544 96.9997944,49.4112513 C94.5028816,57.2200235 92,62.5923144 92,62.5923144 L117.70527,73 L130.460416,45.1499156 C131.799398,42.2762714 130.559895,38.8531656 127.69889,37.5256342" id="Fill-26" fill="#988BB3"></path><path d="M123.73533,90 L80.9610189,76.24768 C79.3819804,75.7396578 78.5804379,74.0052383 79.2216719,72.4910939 L84.2232966,60.6835465 C84.4577478,60.1219438 85.1049933,59.8540415 85.6740884,60.0802701 L123.26242,75.0371584 C123.715292,75.2177444 124.007855,75.654326 124,76.1385346 L123.73533,90 Z" id="Fill-28" fill="#FFFFFF"></path><path d="M9.38711821,158 L30.6466719,158 L33,148 L14.0896923,148 C13.9406958,148 13.8039456,148.080107 13.7406731,148.207896 L9.03809904,157.485028 C8.91563618,157.723441 9.10341257,158 9.38711821,158" id="Fill-30" fill="#FFFFFF"></path><path d="M126,213 L31,213 L31,201.134582 C31,200.507416 31.5000211,200 32.1180471,200 L123.041875,200 L126,213 Z" id="Fill-32" fill="#FFFFFF"></path><path d="M146.655802,186.370641 L146.06243,166 L113,166.170491 C113,166.170491 113.511182,199.333958 125.29843,214.960944 C127.30106,217.614583 130.789123,218.66962 133.924371,217.56845 L190,197.871749 L189.889745,182.300925 L146.655802,186.370641 Z" id="Fill-34" fill="#988BB3"></path><path d="M261.842607,189.228054 L257.227647,184.255121 C256.994003,184.004554 256.700451,183.820671 256.374948,183.721657 L246.110606,181.506974 C245.87896,181.456457 245.906917,181.114959 246.142558,181.102835 L252.434958,180.791647 C252.552579,180.785585 252.672596,180.79973 252.786223,180.832061 C257.101839,182.020231 259.046872,180.977552 260.165166,180.379425 C260.442543,180.231915 260.392619,179.815651 260.089282,179.738865 L253.077778,177.944486 C252.97793,177.918217 252.874288,177.902052 252.770247,177.89599 L239.530644,177.007086 C239.354912,176.994759 239.17918,176.998801 239.003448,177.016987 L198,181.250548 L198.095654,194.980976 L203.781181,192.962301 C204.222507,192.804686 204.713758,192.895618 205.069016,193.204784 C206.664582,194.58492 212.112471,198.17792 224.411708,196.664216 L236.998507,194.877921 C237.675275,194.780927 238.304515,195.25377 238.41235,195.936766 L239.037397,199.941988 C239.037397,199.941988 236.215701,202.540401 237.811267,205.73108 C237.97302,206.054594 238.418341,206.092785 238.643997,205.809887 L242.234519,201.315859 C242.548041,200.921823 242.7058,200.424732 242.677643,199.919558 L242.254289,192.477334 C242.226532,192.00247 242.036621,191.551855 241.715311,191.202274 L240.591027,189.987836 C240.480994,189.870636 240.596818,189.682711 240.750783,189.729187 L249.369635,192.402568 C249.721098,192.511685 249.96273,192.832976 249.972715,193.204784 C250.022638,194.928438 250.399863,199.788213 253.045826,201.564405 C253.750751,202.037247 254.681531,201.461349 254.579687,200.612657 L253.615158,190.486948 C253.51531,189.444269 252.842337,188.5491 251.875811,188.175271 L245.827039,185.837326 C245.659095,185.772664 245.730985,185.520077 245.906717,185.552408 L254.1122,187.12653 C256.746182,187.567042 258.096122,191.145695 261.72259,190.020167 C262.042302,189.921153 262.090229,189.462455 261.842607,189.228054" id="Fill-36" fill="#988BB3"></path><polygon id="Fill-38" fill="#143659" points="190 182.688448 190.101209 198 197 195.404019 196.911672 182"></polygon><path d="M193.5,183 C195.432996,183 197,184.567004 197,186.5 C197,188.432996 195.432996,190 193.5,190 C191.567004,190 190,188.432996 190,186.5 C190,184.567004 191.567004,183 193.5,183" id="Fill-40" fill="#FFFFFF"></path><path d="M148.554278,169 L103.102322,169 C102.883184,169 102.696213,168.832898 102.662036,168.609399 L101.005436,157.532637 C100.963217,157.252742 101.172302,157 101.445722,157 L146.897678,157 C147.116816,157 147.303787,157.167102 147.337964,157.390601 L148.994564,168.467363 C149.036783,168.747258 148.827698,169 148.554278,169" id="Fill-42" fill="#FFFFFF"></path><path d="M271.260323,261.108132 C271.678046,270.294342 278.736963,270.143682 289.547755,269.079022 C299.872342,268.060564 301.908541,268.187118 305.925109,268.086678 C310.520062,267.972177 314.137182,268.546692 320.362861,269.898609 C336.13793,273.321592 342.074216,267.672867 342.074216,267.672867 C346.544857,267.815491 348.659379,266.461565 349.651672,265.031304 C350.559215,263.725589 349.58339,261.937763 347.992829,261.965886 L337.720458,262.140651 C323.071434,260.904842 310.237697,253.229646 301.171702,246 L269,246.030534 C270.48854,249.913129 270.938195,254.029346 271.260323,261.108132" id="Fill-44" fill="#988BB3"></path><path d="M387.376015,214 L268.583028,214 C268.261357,214 268,214.258044 268,214.575637 C268,214.659005 268.018295,214.740389 268.054282,214.815817 C268.2696,215.266402 268.468433,215.750731 268.647362,216.260865 L296.66689,216.260865 L325.482553,216.260865 C329.531583,216.260865 332.814634,219.502298 332.814634,223.5 C332.814634,227.497702 329.531583,230.739135 325.482553,230.739135 L296.66689,230.739135 L268.649373,230.739135 C268.468433,231.249269 268.27141,231.733598 268.056292,232.184183 C268.020104,232.259611 268.001809,232.340995 268.001809,232.424363 C268.001809,232.741956 268.263368,233 268.585039,233 L387.378025,233 C392.691422,233 397,228.746239 397,223.5 C396.99799,218.253761 392.691422,214 387.376015,214" id="Fill-46" fill="#143659"></path><path d="M269,216 L296.945156,216 L325.686602,216 C329.725404,216 333,219.35824 333,223.5 C333,227.64176 329.725404,231 325.686602,231 L296.945156,231 L269,231 C269.721895,228.875651 270.148816,226.29065 270.148816,223.5 C270.148816,220.70935 269.7237,218.124349 269,216" id="Fill-48" fill="#FFFFFF"></path><path d="M420.357646,268.739135 L392.556885,268.739135 L363.964154,268.739135 C359.94645,268.739135 356.688797,265.497702 356.688797,261.5 C356.688797,257.502298 359.94645,254.260865 363.964154,254.260865 L392.556885,254.260865 L420.357646,254.260865 C420.537186,253.750731 420.732685,253.266402 420.946138,252.815817 C420.982046,252.740389 421,252.659005 421,252.575637 C421,252.258044 420.740665,252 420.421482,252 L302.547534,252 C297.275245,252 293,256.253761 293,261.5 C293,266.746239 297.275045,271 302.547534,271 L420.421482,271 C420.740665,271 421,270.741956 421,270.424363 C421,270.340995 420.982046,270.259611 420.946138,270.184183 C420.732685,269.733598 420.537186,269.249269 420.357646,268.739135" id="Fill-50" fill="#445A7A"></path><path d="M421,254 L393.054643,254 L364.313197,254 C360.274596,254 357,257.35824 357,261.5 C357,265.64176 360.274596,269 364.313197,269 L393.054643,269 L421,269 C420.278105,266.875651 419.851184,264.29065 419.851184,261.5 C419.851184,258.70935 420.278105,256.124349 421,254" id="Fill-52" fill="#FFFFFF"></path><path d="M407.357646,249.73896 L379.556885,249.73896 L350.964154,249.73896 C346.94645,249.73896 343.688797,246.497561 343.688797,242.499901 C343.688797,238.502241 346.94645,235.260841 350.964154,235.260841 L379.556885,235.260841 L407.357646,235.260841 C407.537186,234.750713 407.732685,234.266389 407.946138,233.815808 C407.982046,233.740381 408,233.658999 408,233.575631 C408,233.258042 407.740665,233 407.421482,233 L289.547534,233 C284.275245,233 280,237.253717 280,242.499901 C280,247.746085 284.275045,252 289.547534,252 L407.421482,252 C407.740665,252 408,251.74176 408,251.424369 C408,251.341001 407.982046,251.259619 407.946138,251.184192 C407.732685,250.733413 407.535391,250.249088 407.357646,249.73896" id="Fill-54" fill="#D1D3D4"></path><path d="M408,235 L380.054643,235 L351.313197,235 C347.274596,235 344,238.35824 344,242.5 C344,246.64176 347.274596,250 351.313197,250 L380.054643,250 L408,250 C407.278105,247.875651 406.851184,245.29065 406.851184,242.5 C406.851184,239.70935 407.2763,237.124349 408,235" id="Fill-56" fill="#FFFFFF"></path><path d="M154.025332,55.8813229 C154.535624,52.7697183 157.511646,50.6084464 160.738731,50.9435121 L161,50.0578413 C157.211594,49.5816953 153.684457,52.095668 153.086396,55.7402426 C152.580186,58.8342121 154.343754,61.777304 157.189141,63 L157.450411,62.1123697 C155.062245,61.0209568 153.592605,58.5148219 154.025332,55.8813229" id="Fill-58" fill="#988BB3"></path><path d="M160.925732,49 L160.650641,49.8990893 C164.036533,50.4160153 166.489598,53.6664141 165.955963,56.959052 C165.424397,60.25169 162.237067,62.5084644 158.851175,61.9895269 C158.245148,61.8970032 157.79011,61.7622404 157.264749,61.5188628 L157,62.4300203 C157.566728,62.6774207 158.061064,62.8162063 158.702254,62.9147642 C162.611438,63.5121457 166.293105,60.9053902 166.907405,57.1038718 C167.523774,53.3023534 165.010727,49.772372 160.925732,49" id="Fill-60" fill="#143659"></path><path d="M146.025332,52.8813229 C146.535624,49.7697183 149.511646,47.6084464 152.738731,47.9435121 L153,47.0578413 C149.211594,46.5816953 145.684457,49.095668 145.086396,52.7402426 C144.580186,55.8342121 146.343754,58.777304 149.189141,60 L149.450411,59.1123697 C147.062245,58.0209568 145.594646,55.5148219 146.025332,52.8813229" id="Fill-62" fill="#143659"></path><path d="M158.913329,55.0629321 C159.520769,51.23309 156.870124,47.6281752 153.0046,47.0243165 C152.943243,47.0141846 152.881885,47.0081055 152.820528,47 L152.558736,47.9159199 C152.656908,47.9260518 152.757125,47.93821 152.855297,47.954421 C156.203372,48.4751984 158.498143,51.5978369 157.970469,54.915007 C157.444839,58.2321771 154.293108,60.5057659 150.945033,59.9829621 C150.345775,59.889749 149.783331,59.7114283 149.261792,59.4660347 L149,60.3841836 C149.560399,60.6334273 150.161702,60.8137744 150.797775,60.9130666 C154.665344,61.5189516 158.30589,58.8927742 158.913329,55.0629321" id="Fill-64" fill="#143659"></path><polygon id="Fill-66" fill="#143659" points="160.714683 51 138 42.9093211 138.311715 42 162 50.4448792"></polygon></g><g id="logo-twitter" transform="translate(321.000000, 202.000000)" fill="#445A7A" fill-rule="nonzero"><path d="M65,6.27398835 C62.608501,7.33812877 60.0384823,8.05749215 57.3407385,8.38084291 C60.0941927,6.7249865 62.2086969,4.10282776 63.2042938,0.978408111 C60.6277479,2.51173933 57.7737604,3.62525395 54.7360938,4.22536654 C52.3035229,1.62486506 48.8376958,0 45.002276,0 C37.6371667,0 31.6663479,5.99070488 31.6663479,13.3796209 C31.6663479,14.4283947 31.7842958,15.4494244 32.0115927,16.4287836 C20.928551,15.8708442 11.1023115,10.5440824 4.52501563,2.44907729 C3.37711563,4.42525462 2.71957292,6.72358706 2.71957292,9.17568061 C2.71957292,13.8175758 5.0739,17.9129444 8.65208229,20.3124029 C6.46609167,20.2429883 4.40985729,19.6410143 2.61182188,18.6388294 C2.6108875,18.6947388 2.61068438,18.7506618 2.61068438,18.8070332 C2.61068438,25.2898633 7.20743021,30.6977107 13.3080594,31.9267941 C12.188949,32.2324142 11.0108375,32.3959714 9.79467396,32.3959714 C8.93534688,32.3959714 8.09994792,32.3121004 7.28567396,32.156016 C8.98270208,37.4716095 13.9075625,41.3400796 19.7430458,41.4481757 C15.1790167,45.0366504 9.42898125,47.1756511 3.18115417,47.1756511 C2.10474063,47.1756375 1.04319583,47.1122826 0,46.9888063 C5.90164792,50.7850494 12.9112615,53 20.4421344,53 C44.9711573,53 58.3843948,32.6121363 58.3843948,14.931104 C58.3843948,14.3510318 58.3714083,13.7740031 58.3458552,13.2002352 C60.9511906,11.3137575 63.2122021,8.95716512 65,6.27398835 Z" id="Path"></path></g></g></svg> 