<svg width="1280" height="436" viewBox="0 0 1280 436" fill="none" xmlns="http://www.w3.org/2000/svg">
<g clip-path="url(#clip0)">
<g clip-path="url(#clip1)">
<path d="M992.552 165.696L992.349 384.061L1375.67 384.426L1375.99 48.225C1376 35.7528 1371.05 23.7876 1362.24 14.9581C1353.42 6.12855 1341.46 1.157 1328.98 1.13566L1294.12 1.10598C1284.43 1.09839 1274.84 3.00004 1265.89 6.70216C1256.93 10.4043 1248.8 15.8342 1241.95 22.6813L1186.05 78.4407C1174.34 90.1266 1158.47 96.6911 1141.93 96.6922L1061.85 96.6159C1023.63 96.5014 992.59 127.48 992.552 165.696Z" fill="#F2D8D8"/>
<path d="M524.204 373.59L524 591.955L907.325 592.32L907.643 256.119C907.651 243.647 902.704 231.682 893.89 222.852C885.076 214.023 873.116 209.051 860.636 209.03L825.775 209C816.085 208.992 806.49 210.894 797.536 214.596C788.583 218.298 780.448 223.728 773.597 230.575L717.699 286.335C705.993 298.021 690.126 304.585 673.581 304.586L593.503 304.51C555.281 304.395 524.242 335.374 524.204 373.59Z" fill="#F2D8D8"/>
<path d="M1401.41 199.583H1183.49V384.239H1401.41V199.583Z" fill="#C78982"/>
<path d="M817.29 139.847H1029.98V384.244H817.29" fill="#574191"/>
<path d="M1029.98 199.583H1183.49V384.244H1029.98" fill="white"/>
<path d="M942.499 318.131H904.774V384.244H942.499V318.131Z" fill="#2E224C"/>
<path d="M1158.34 214.786H1116.03V283.048H1158.34V214.786Z" fill="#F2D8D8"/>
<path d="M1097.29 214.786H1054.98V283.048H1097.29V214.786Z" fill="#F2D8D8"/>
<path d="M942.499 299.825H904.774V310.89H942.499V299.825Z" fill="#F2D8D8"/>
<path d="M886.865 299.825H817.29V384.244H886.865V299.825Z" fill="white"/>
<path d="M1029.98 299.825H960.405V384.244H1029.98V299.825Z" fill="white"/>
<path d="M1103.81 184.054L1029.98 199.583V118.106H1103.81V184.054Z" fill="#2E224C"/>
<path d="M969.857 157.904C979.707 157.904 989.154 161.814 996.119 168.775C1003.08 175.736 1007 185.177 1007 195.021V253.197H932.722V195.021C932.722 185.178 936.634 175.738 943.598 168.777C950.562 161.816 960.008 157.905 969.857 157.904V157.904Z" fill="white"/>
<path d="M877.587 157.904C887.437 157.904 896.883 161.814 903.848 168.775C910.814 175.736 914.726 185.177 914.726 195.021V253.197H840.447V195.021C840.447 190.147 841.408 185.32 843.274 180.817C845.141 176.314 847.876 172.222 851.325 168.775C854.774 165.329 858.868 162.594 863.374 160.729C867.88 158.864 872.71 157.904 877.587 157.904V157.904Z" fill="white"/>
<path d="M914.722 247.622H840.447V259.235H914.722V247.622Z" fill="#453473"/>
<path d="M1007 247.622H932.722V259.235H1007V247.622Z" fill="#453473"/>
<path d="M1029.98 273.781H817.29V285.274H1029.98V273.781Z" fill="#2E224C"/>
<path d="M1272.01 321.883H1368.16V387.678H1206.18C1206.18 370.228 1213.11 353.493 1225.46 341.154C1237.8 328.815 1254.55 321.883 1272.01 321.883Z" fill="white"/>
<path d="M817.405 358.433L793.861 319.819C792.994 318.396 792.416 316.817 792.16 315.171C791.904 313.526 791.975 311.846 792.369 310.228C792.763 308.609 793.472 307.085 794.456 305.741C795.44 304.396 796.679 303.259 798.103 302.394V302.394C806.553 297.247 817.388 303.322 817.392 313.213L817.405 358.433Z" fill="#7356BF"/>
<path d="M817.404 358.433L824.293 330.066C824.809 327.959 826.14 326.143 827.994 325.017C829.848 323.89 832.074 323.546 834.182 324.058V324.058C835.595 324.401 836.891 325.113 837.937 326.122C838.984 327.131 839.743 328.4 840.136 329.799C840.529 331.198 840.543 332.676 840.176 334.082C839.809 335.488 839.074 336.771 838.046 337.799L817.404 358.433Z" fill="#7356BF"/>
<path d="M798.132 358.433H837.219V364.856C837.219 370.036 835.16 375.004 831.494 378.667C827.829 382.33 822.858 384.388 817.675 384.388V384.388C815.109 384.388 812.567 383.883 810.196 382.901C807.825 381.919 805.671 380.481 803.856 378.667C802.041 376.853 800.602 374.7 799.619 372.33C798.637 369.961 798.132 367.421 798.132 364.856V358.433V358.433Z" fill="black"/>
<path d="M1401.41 157.904H1068L1029.98 199.583H1401.41V157.904Z" fill="#C78982"/>
<path d="M1029.98 118.106H808.916V139.847H1029.98V118.106Z" fill="#2E224C"/>
<path d="M989.294 92.3975H976.725V118.106H989.294V92.3975Z" fill="#574191"/>
<path d="M980.56 92.3975H858.341V150.565H980.56V92.3975Z" fill="#574191"/>
<path d="M961.457 103.777H877.438C874.702 103.777 872.483 105.994 872.483 108.728V127.484C872.483 130.219 874.702 132.436 877.438 132.436H961.457C964.194 132.436 966.412 130.219 966.412 127.484V108.728C966.412 105.994 964.194 103.777 961.457 103.777Z" fill="#2E224C"/>
<path d="M1089 134.7H1182.53C1184.78 134.7 1186.93 135.591 1188.51 137.175C1190.1 138.76 1190.99 140.909 1190.99 143.15V205.548H1080.55V143.15C1080.55 140.909 1081.44 138.76 1083.02 137.175C1084.61 135.591 1086.76 134.7 1089 134.7V134.7Z" fill="#C78982"/>
<path d="M1082.37 134.7H1175.03C1177.28 134.7 1179.43 135.591 1181.01 137.175C1182.6 138.76 1183.49 140.909 1183.49 143.15V209.207H1073.92V143.15C1073.92 140.909 1074.81 138.76 1076.39 137.175C1077.98 135.591 1080.13 134.7 1082.37 134.7V134.7Z" fill="white"/>
<path d="M1172.88 184.037V150.251C1172.88 147.516 1170.67 145.299 1167.93 145.299H1089.48C1086.74 145.299 1084.52 147.516 1084.52 150.251V184.037C1084.52 186.771 1086.74 188.988 1089.48 188.988H1167.93C1170.67 188.988 1172.88 186.771 1172.88 184.037Z" fill="#F2D8D8"/>
<path d="M1428.38 383.977H515.435V534.902H1428.38V383.977Z" fill="white"/>
<path d="M1036.12 431.948L1033.91 431.227C1032.93 430.909 1032.18 429.866 1031.92 428.556C1031.92 423.926 1031.98 418.462 1032.1 416.096H1028.55C1028.67 418.462 1028.72 423.926 1028.73 428.556C1028.47 429.866 1027.72 430.909 1026.74 431.227L1024.53 431.948C1023.14 432.401 1022.15 434.144 1022.15 436.153H1028.72H1031.93H1038.5C1038.5 434.144 1037.51 432.401 1036.12 431.948Z" fill="#263139"/>
<path d="M1024.54 436.166L1024.77 416.092H1036.11C1035.78 420.573 1035.87 436.162 1035.87 436.162L1024.54 436.166Z" fill="black"/>
<path d="M1061.59 416.096C1061.92 420.577 1062.97 436.166 1062.97 436.166H1083.66C1083.66 435.191 1083.33 434.244 1082.72 433.48C1082.12 432.716 1081.27 432.181 1080.32 431.96L1077.23 431.24C1076.4 431.046 1075.65 430.576 1075.12 429.907C1074.59 429.237 1074.3 428.407 1074.3 427.551L1072.92 416.104L1061.59 416.096Z" fill="black"/>
<path d="M1016.2 330.367L1015.99 337.477C1015.99 337.477 1015.15 344.561 1018.23 345.956C1019.73 346.661 1021.28 347.278 1022.85 347.804C1022.85 347.804 1024.7 348.419 1025.4 345.112L1025.98 342.293C1026.06 341.932 1026.08 341.56 1026.03 341.195C1025.92 340.248 1025.66 339.327 1025.23 338.473C1024.08 336.319 1024.77 325.695 1024.77 325.695L1016.2 330.367Z" fill="#99644C"/>
<path d="M1018.36 283.913C1017.08 300.448 1016.2 330.367 1016.2 330.367H1029.13L1030.86 275.973L1024.76 269.982L1024.46 270.224C1024.24 270.398 1024.03 270.593 1023.84 270.804C1020.65 274.468 1018.72 279.067 1018.36 283.913V283.913Z" fill="#F25138"/>
<path d="M1075.67 330.367L1075.87 337.477C1075.87 337.477 1076.72 344.561 1073.64 345.956C1072.14 346.661 1070.59 347.278 1069.02 347.804C1069.02 347.804 1067.17 348.419 1066.47 345.112L1065.88 342.293C1065.81 341.932 1065.79 341.561 1065.84 341.195C1065.94 340.255 1066.21 339.34 1066.62 338.49C1067.78 336.336 1067.09 325.712 1067.09 325.712L1075.67 330.367Z" fill="#99644C"/>
<path d="M1073.51 283.913C1074.79 300.448 1075.67 330.367 1075.67 330.367H1062.74L1061 275.973L1067.11 269.982L1067.41 270.224C1067.63 270.398 1067.84 270.593 1068.03 270.804C1071.22 274.47 1073.14 279.067 1073.51 283.913V283.913Z" fill="#F25138"/>
<path d="M1039.49 266.154L1039.25 260.532L1039.15 256.458L1052.6 256.407V260.646L1052.78 266.158L1039.49 266.154Z" fill="#99644C"/>
<path d="M1053.46 253.706C1054.67 253.706 1055.76 252.93 1056.38 251.68L1056.45 251.514C1056.55 251.311 1056.62 251.098 1056.66 250.878C1056.86 249.691 1056.1 248.517 1055.07 248.508C1054.15 248.508 1053.45 249.416 1053.46 250.514V253.706Z" fill="#99644C"/>
<path d="M1038.47 254.105C1037.26 254.105 1036.15 253.342 1035.5 252.065L1035.42 251.9C1035.33 251.702 1035.26 251.498 1035.2 251.29C1035.02 250.086 1035.77 248.915 1036.8 248.924C1037.71 248.924 1038.44 249.814 1038.41 250.921L1038.47 254.105Z" fill="#99644C"/>
<path d="M1055.08 245.829C1055.07 246.56 1055 247.288 1054.87 248.008C1054.78 248.526 1054.64 249.036 1054.47 249.534C1053.88 251.27 1052.83 252.814 1051.44 254.007C1049.9 255.346 1047.92 256.083 1045.88 256.083C1043.84 256.083 1041.86 255.346 1040.32 254.007C1038.93 252.81 1037.88 251.263 1037.29 249.526C1036.89 248.332 1036.68 247.078 1036.69 245.816C1036.69 240.135 1040.82 235.539 1045.92 235.556C1050.95 235.556 1055.07 240.177 1055.08 245.829Z" fill="black"/>
<path d="M1050.12 251.137C1048.85 251.963 1047.36 252.403 1045.85 252.403C1044.33 252.403 1042.84 251.963 1041.57 251.137L1037.04 248.928L1039.11 256.462L1045.86 256.415H1052.6L1053.24 254.024L1054.75 248.559L1050.12 251.137Z" fill="#263139"/>
<path d="M1025.02 311.53L1021.7 277.876C1021.27 273.564 1023.86 269.422 1028 268.172L1028.51 268.036L1036.57 266.09C1038.91 265.522 1039.26 263.343 1039.25 260.837V260.532H1052.6V260.837C1052.6 263.343 1052.94 265.501 1055.29 266.09L1063.38 268.036L1063.88 268.172C1068.03 269.444 1070.62 273.564 1070.19 277.876L1066.87 311.53H1025.02Z" fill="#F25138"/>
<path d="M1075.52 417.753L1066.87 311.53H1025.02L1021.88 417.753H1038.42L1046.28 339.448C1046.3 339.274 1046.38 339.112 1046.51 338.99C1046.63 338.869 1046.8 338.795 1046.97 338.782C1047.15 338.769 1047.32 338.817 1047.47 338.919C1047.61 339.02 1047.71 339.168 1047.76 339.338L1058.95 417.77L1075.52 417.753Z" fill="black"/>
<path d="M1120.96 249.784C1123.76 249.784 1126.02 247.52 1126.02 244.727C1126.02 241.933 1123.76 239.669 1120.96 239.669C1118.17 239.669 1115.9 241.933 1115.9 244.727C1115.9 247.52 1118.17 249.784 1120.96 249.784Z" fill="black"/>
<path d="M1116.86 270.452L1116.72 266.09L1116.65 259.12L1125.14 259.082V266.162L1125.25 270.452H1116.86Z" fill="#99644C"/>
<path d="M1125.89 260.795C1126.39 260.769 1126.88 260.61 1127.3 260.333C1127.71 260.056 1128.05 259.673 1128.27 259.222L1128.32 259.095C1128.39 258.935 1128.44 258.769 1128.47 258.599C1128.61 257.679 1128.07 256.767 1127.35 256.763C1126.71 256.763 1126.21 257.462 1126.22 258.315L1125.89 260.795Z" fill="#99644C"/>
<path d="M1116.02 261.091C1115.51 261.068 1115.02 260.908 1114.6 260.63C1114.18 260.352 1113.84 259.965 1113.62 259.51L1113.56 259.383C1113.5 259.229 1113.45 259.07 1113.41 258.908C1113.28 257.975 1113.81 257.068 1114.53 257.072C1115.17 257.072 1115.68 257.763 1115.66 258.62L1116.02 261.091Z" fill="#99644C"/>
<path d="M1128.04 254.681C1128.03 255.25 1127.98 255.817 1127.88 256.377C1127.8 256.779 1127.7 257.174 1127.56 257.56C1127.1 258.906 1126.29 260.105 1125.21 261.032C1124.01 262.07 1122.48 262.642 1120.9 262.642C1119.31 262.642 1117.78 262.07 1116.58 261.032C1115.5 260.102 1114.69 258.901 1114.23 257.551C1113.91 256.627 1113.76 255.655 1113.77 254.677C1113.77 250.264 1116.96 246.698 1120.93 246.711C1124.89 246.723 1128.03 250.289 1128.04 254.681Z" fill="black"/>
<path d="M1124.19 258.798C1123.2 259.439 1122.05 259.781 1120.87 259.781C1119.69 259.781 1118.54 259.439 1117.55 258.798L1114.14 257.238L1114.7 258.577C1115.87 261.368 1118.09 263.585 1120.89 264.75V264.75H1120.93C1123.7 263.561 1125.9 261.333 1127.04 258.543L1127.77 256.792L1124.19 258.798Z" fill="black"/>
<path d="M1132.77 272.856L1126.04 282.51L1145.39 289.811L1127.95 310.534L1133.6 308.978L1153.68 292.961C1154.34 292.318 1154.85 291.527 1155.16 290.652C1155.46 289.777 1155.56 288.842 1155.43 287.924C1155.31 287.005 1154.97 286.129 1154.44 285.366C1153.92 284.603 1153.22 283.975 1152.4 283.532L1132.77 272.856Z" fill="#99644C"/>
<path d="M1127.42 396.301C1127.42 396.301 1130.28 418.716 1128.89 428.403L1137.49 429.726L1137.11 397.687L1127.42 396.301Z" fill="#99644C"/>
<path d="M1128.87 423.078L1129.22 419.025L1137.44 418.902L1137.4 422.811C1137.4 423.998 1137.45 425.109 1138 426.021L1139.74 429.065C1140.9 431.076 1142.65 432.679 1144.75 433.652C1145.09 433.802 1145.37 434.062 1145.54 434.391C1145.71 434.719 1145.76 435.095 1145.69 435.458L1145.58 436.111L1139.41 436.149C1138.68 436.158 1137.97 435.892 1137.43 435.403L1132.13 430.896L1132.17 436.149L1129.4 436.179L1127.79 429.819C1127.69 429.453 1127.63 429.08 1127.58 428.704C1127.34 426.792 1127.98 424.762 1128.87 423.078Z" fill="#162D38"/>
<path d="M1115.78 306.892L1133.85 304.844C1134.51 306.697 1134.37 307.032 1137.49 315.57C1142.58 329.442 1140.64 355.126 1139.73 404.026H1125.18C1127.11 330.6 1126.99 351.34 1115.78 306.892Z" fill="#B83E2B"/>
<path d="M1100.05 397.31C1100.05 397.31 1097.41 418.657 1096.06 428.344L1104.5 429.663L1108.68 398.035L1100.05 397.31Z" fill="#99644C"/>
<path d="M1105.34 423.066L1105.95 418.941L1097.24 418.83L1096.87 422.697C1096.77 423.844 1096.43 424.957 1095.87 425.961L1094.17 429.001C1093.07 430.998 1091.37 432.602 1089.31 433.588C1088.98 433.744 1088.71 434.007 1088.55 434.335C1088.38 434.662 1088.33 435.035 1088.4 435.395L1088.51 436.052L1094.5 436.086C1095.21 436.094 1095.9 435.829 1096.42 435.344L1101.57 430.824L1101.53 436.077L1104.22 436.103L1105.79 429.764C1105.88 429.396 1105.94 429.022 1105.99 428.645C1106.27 426.761 1106.04 424.836 1105.34 423.066V423.066Z" fill="black"/>
<path d="M1131.66 272.216C1128.62 270.703 1125.24 268.591 1125.37 266.705L1125.41 265.768L1116.7 265.708L1116.61 268.774C1116.58 269.948 1113.44 271.101 1109.95 272.254C1107.4 273.102 1112.34 307.261 1112.34 307.261C1112.34 307.261 1133.83 304.815 1133.87 304.848C1132.97 300.109 1131.49 294.627 1131.92 290.434C1132.36 286.241 1134.09 282.022 1135.01 278.754C1135.92 275.485 1134.11 273.433 1131.66 272.216Z" fill="#C29233"/>
<path d="M1112.2 307.282L1133.86 304.832C1127.11 355.164 1118.81 332.147 1110.27 404.318H1096.08C1102.37 327.089 1115.79 320.005 1112.2 307.282Z" fill="#B83E2B"/>
<path d="M1138.16 301.448L1133.71 301.024C1133.1 300.973 1132.96 301.126 1132.39 301.253L1129.77 302.067C1129.73 302.073 1129.7 302.088 1129.67 302.111C1129.63 302.134 1129.61 302.164 1129.59 302.198C1129.57 302.233 1129.56 302.271 1129.56 302.31C1129.56 302.35 1129.57 302.388 1129.59 302.423C1129.71 302.682 1129.91 302.891 1130.17 303.019C1130.42 303.147 1130.71 303.185 1130.99 303.127L1132.57 302.962L1134.41 303.28C1134.41 303.28 1136.63 304.62 1137.25 304.67L1138.16 301.448Z" fill="#99644C"/>
<path d="M1110.92 272.102C1111.51 272.073 1112.1 272.165 1112.64 272.374C1113.19 272.582 1113.69 272.902 1114.11 273.312C1114.53 273.723 1114.86 274.216 1115.07 274.76C1115.29 275.304 1115.39 275.887 1115.37 276.473L1114.42 308.13L1109.01 336.535L1104.03 335.929L1107.79 308.346L1106.89 276.456C1106.86 275.347 1107.26 274.27 1108.02 273.456C1108.77 272.642 1109.82 272.156 1110.92 272.102V272.102Z" fill="#99644C"/>
<path d="M1104.03 335.929C1103.04 344.383 1103.95 350.267 1104.36 352.273C1104.38 352.368 1104.42 352.458 1104.48 352.537C1104.53 352.616 1104.6 352.683 1104.69 352.731C1104.77 352.78 1104.87 352.81 1104.96 352.819C1105.06 352.829 1105.16 352.817 1105.25 352.786L1105.42 352.726C1105.56 352.679 1105.68 352.586 1105.76 352.463C1105.85 352.34 1105.89 352.192 1105.88 352.044L1105.46 345.015L1106.52 351.904C1106.53 352.008 1106.57 352.107 1106.63 352.194C1106.69 352.28 1106.77 352.351 1106.87 352.401C1106.96 352.451 1107.06 352.479 1107.17 352.482C1107.27 352.486 1107.38 352.465 1107.48 352.421C1107.6 352.361 1107.71 352.262 1107.78 352.138C1107.85 352.014 1107.88 351.872 1107.87 351.73L1107.12 344.947L1108.27 350.369C1108.29 350.466 1108.33 350.556 1108.39 350.635C1108.45 350.714 1108.53 350.78 1108.61 350.827C1108.7 350.874 1108.79 350.902 1108.89 350.909C1108.99 350.915 1109.09 350.9 1109.18 350.865L1109.25 350.84C1109.4 350.782 1109.52 350.678 1109.59 350.544C1109.67 350.411 1109.7 350.255 1109.68 350.102L1108.8 344.167L1109.92 348.406C1109.94 348.505 1109.99 348.597 1110.06 348.674C1110.12 348.752 1110.21 348.813 1110.3 348.854C1110.39 348.895 1110.5 348.914 1110.6 348.91C1110.7 348.906 1110.8 348.878 1110.89 348.83V348.83C1111.02 348.762 1111.13 348.652 1111.19 348.517C1111.26 348.382 1111.27 348.229 1111.24 348.084C1110.76 345.871 1108.93 336.908 1109.76 332.694C1110.73 327.874 1104.03 335.929 1104.03 335.929Z" fill="#99644C"/>
<path d="M1104.03 335.929L1101.84 344.955C1101.81 345.066 1101.81 345.183 1101.83 345.294C1101.86 345.406 1101.91 345.509 1101.99 345.594C1102.07 345.679 1102.17 345.742 1102.28 345.779C1102.38 345.815 1102.5 345.824 1102.61 345.803C1102.77 345.777 1102.91 345.711 1103.04 345.61C1103.16 345.509 1103.25 345.379 1103.3 345.231L1105.3 339.719L1104.03 335.929Z" fill="#99644C"/>
<path d="M1133.26 301.902L1133.78 304.395L1136.6 302.521L1133.26 301.902Z" fill="#99644C"/>
<path d="M1559.62 372.699C1556 372.699 1552.53 371.262 1549.97 368.705L1539.16 357.903C1538.88 357.622 1538.67 357.279 1538.54 356.902C1538.42 356.525 1538.39 356.124 1538.45 355.733C1538.52 355.341 1538.67 354.97 1538.9 354.649C1539.14 354.329 1539.44 354.068 1539.8 353.888C1519.74 346.841 1499.15 341.429 1478.22 337.705L1463.19 335.034L1384.17 301.236C1363.91 292.569 1342.11 288.098 1320.08 288.094H1265.2C1248.31 288.089 1231.62 291.703 1216.25 298.693L1159.41 324.554H1138.01C1134.01 324.555 1130.13 325.887 1126.97 328.339C1123.81 330.79 1121.56 334.223 1120.57 338.095V338.095L1111.24 374.679L1114.09 386.758C1114.59 388.871 1115.27 390.94 1116.1 392.943H1347.36C1356.82 392.942 1365.95 396.455 1372.97 402.8L1387.32 415.782H1141.37L1157 421.361C1160.1 422.465 1163.36 423.03 1166.65 423.032H1555.31C1557.42 423.032 1559.44 422.196 1560.92 420.71C1562.41 419.223 1563.25 417.206 1563.25 415.104V372.699H1559.62Z" fill="white"/>
<path d="M1372.96 402.839C1365.94 396.493 1356.82 392.98 1347.35 392.981H1116.1C1118.23 398.098 1121.41 402.712 1125.44 406.528C1129.46 410.344 1134.24 413.278 1139.47 415.142V415.142L1141.37 415.82H1387.31L1372.96 402.839Z" fill="#EEEEEE"/>
<path d="M1204.14 322.015L1217.13 334.17H1384.31V325.394C1384.31 324.754 1384.43 324.12 1384.68 323.529C1384.92 322.938 1385.28 322.4 1385.73 321.948C1386.19 321.495 1386.72 321.137 1387.32 320.892C1387.91 320.647 1388.54 320.522 1389.18 320.522H1392.86C1395.34 320.525 1397.79 321.029 1400.07 322.002L1427.92 333.911C1428.32 334.083 1428.76 334.171 1429.19 334.17V334.17C1432.69 334.17 1433.67 329.383 1430.47 328.009L1382.14 307.337C1362.53 298.923 1341.41 294.595 1320.08 294.618H1265.21C1249.05 294.594 1233.09 298.054 1218.39 304.764L1206.05 310.39C1204.98 310.871 1204.06 311.607 1203.35 312.532C1202.64 313.457 1202.17 314.543 1201.98 315.693C1201.79 316.843 1201.89 318.021 1202.27 319.124C1202.65 320.227 1203.29 321.22 1204.14 322.015V322.015Z" fill="black"/>
<path d="M1139.46 415.142H1563.25C1563.25 417.245 1562.41 419.261 1560.93 420.748C1559.44 422.235 1557.42 423.07 1555.32 423.07H1166.65C1163.36 423.068 1160.1 422.503 1157 421.4L1139.46 415.142Z" fill="black"/>
<path d="M1238.74 418.991H1161.69V401.668C1161.69 391.456 1165.74 381.663 1172.97 374.442C1180.2 367.221 1189.99 363.164 1200.21 363.164V363.164C1210.43 363.164 1220.23 367.221 1227.46 374.442C1234.68 381.663 1238.74 391.456 1238.74 401.668V418.991Z" fill="black"/>
<path d="M1200.21 436.166C1219.27 436.166 1234.73 420.721 1234.73 401.668C1234.73 382.616 1219.27 367.171 1200.21 367.171C1181.14 367.171 1165.69 382.616 1165.69 401.668C1165.69 420.721 1181.14 436.166 1200.21 436.166Z" fill="black"/>
<path d="M1200.21 424.719C1212.95 424.719 1223.27 414.399 1223.27 401.668C1223.27 388.938 1212.95 378.618 1200.21 378.618C1187.47 378.618 1177.14 388.938 1177.14 401.668C1177.14 414.399 1187.47 424.719 1200.21 424.719Z" fill="white"/>
<path d="M1115.7 357.208H1136.15C1137.94 357.208 1139.72 356.855 1141.38 356.17C1143.03 355.485 1144.54 354.48 1145.8 353.214L1156.61 342.411C1156.96 342.061 1157.2 341.615 1157.3 341.129C1157.4 340.644 1157.35 340.14 1157.16 339.682C1156.97 339.224 1156.65 338.833 1156.23 338.557C1155.82 338.282 1155.34 338.134 1154.84 338.134H1120.57L1115.7 357.208Z" fill="#612016"/>
</g>
</g>
<defs>
<clipPath id="clip0">
<rect width="1280" height="436" fill="white"/>
</clipPath>
<clipPath id="clip1">
<rect width="1280" height="511" fill="white" transform="translate(-12 1)"/>
</clipPath>
</defs>
</svg>
