<svg width="588" height="383" viewBox="0 0 588 383" fill="none" xmlns="http://www.w3.org/2000/svg"><path d="M419.425 362.547l-10.297-3.331 3.387-18.026 10.298 3.331-3.388 18.026z" fill="#F4B994"/><path fill-rule="evenodd" clip-rule="evenodd" d="M418.9 356.528s-1.965-.152-3.11.283c-1.144.437-1.869 1.196-3.071 1.621-1.202.427-3.699-1.096-3.699-1.096s-1.243 1.139-1.783 2.56c-.538 1.422-.272 4.052-.213 4.754.058.704-.434 1.503-.402 2.013.032.509 7.457 1.961 8.827 1.943 1.373-.019 3.153.346 4.24.595 1.09.247 6.643 1.527 9.838 2.303 2.699.656 5.615.906 5.96.271.347-.633.992-4.606-1.174-5.856-2.165-1.251-6.951-2.664-8.597-3.825-1.646-1.164-4.88-4.921-6.816-5.566z" fill="#8F7E81"/><path d="M517.682 239.752l-4.193 9.977-17.673-4.906 4.193-9.977 17.673 4.906z" fill="#F4B994"/><path fill-rule="evenodd" clip-rule="evenodd" d="M512.577 238.44s-.584 1.882-.414 3.095c.172 1.213.75 2.088.898 3.354.15 1.267-1.89 3.364-1.89 3.364s.835 1.465 2.101 2.307c1.267.84 3.89 1.165 4.588 1.263.698.1 1.369.757 1.873.839.503.082 3.568-6.835 3.854-8.176.287-1.342 1.038-2.997 1.522-4.002a941.651 941.651 0 014.429-9.08c1.24-2.487 2.131-5.274 1.588-5.752-.539-.479-4.27-1.989-5.97-.155-1.701 1.833-4.141 6.186-5.639 7.532-1.5 1.348-5.881 3.667-6.94 5.411z" fill="#8F7E81"/><path d="M120.556 360.676l-1.658-16.113 12.923 1.759-.562 15.81-10.703-1.456zM167.923 360.711l2.014-16.147-13.924 1.85.394 15.828 11.516-1.531z" fill="#F4B994"/><path fill-rule="evenodd" clip-rule="evenodd" d="M168.549 359.089c.015-1.411-1.105-2.588-2.511-2.571-1.147.014-2.621.211-3.766.973-2.2 1.463-2.484 2.301-3.073 2.692-1.505.995-2.594.297-2.594.297s-.694.76-.936 2.353c-.243 1.592.554 5.926 1.07 6.895.516.97 5.23.496 7.717 1.075 2.489.578 6.375 3.869 8.575 4.454 2.2.586 10.097-4.236 11.413-5.448 1.318-1.214.289-5.058-2.663-5.829-2.954-.77-4.652.746-5.776.685-1.123-.061-5.516-3.864-6.541-4.562-.427-.291-.92-.629-.915-1.014zM119.006 360.768c-.454-1.332.232-2.804 1.559-3.235 1.081-.351 2.528-.633 3.841-.275 2.523.688 3.051 1.392 3.726 1.576 1.724.464 2.53-.543 2.53-.543s.889.5 1.612 1.932c.724 1.432 1.325 5.793 1.143 6.876-.183 1.083-4.76 2.132-6.917 3.471-2.158 1.34-4.784 5.694-6.669 6.948-1.885 1.254-10.806-.807-12.421-1.537-1.616-.731-1.847-4.703.687-6.372 2.536-1.668 4.604-.771 5.641-1.186 1.035-.415 3.978-5.415 4.724-6.403.31-.412.669-.889.544-1.252z" fill="#36323C"/><path d="M144 383c40.317 0 73-3.806 73-8.5s-32.683-8.5-73-8.5-73 3.806-73 8.5 32.683 8.5 73 8.5zM423.5 375c28.443 0 51.5-3.806 51.5-8.5s-23.057-8.5-51.5-8.5-51.5 3.806-51.5 8.5 23.057 8.5 51.5 8.5z" fill="#A6AAC7" opacity=".22"/><path d="M383.402 230.106h13.178l-28.189 130.937a1.789 1.789 0 01-2.057 1.36l-.439-.09a1.852 1.852 0 01-1.439-2.057l18.946-130.15zM462.785 230.106h-13.178l28.2 130.982a1.767 1.767 0 002.047 1.36l.438-.09a1.857 1.857 0 001.439-2.057l-18.946-130.195z" fill="#B7B9CD"/><path d="M472.107 214.005h-98.002c-5.949 0-10.772 4.823-10.772 10.772v5.015c0 5.949 4.823 10.772 10.772 10.772h98.002c5.949 0 10.772-4.823 10.772-10.772v-5.015c0-5.949-4.823-10.772-10.772-10.772z" fill="#999BB5"/><path d="M394.939 195.947l-11.48 23.68 82.227 6.095-6.51-29.943" fill="#ED3E44"/><path d="M458.168 147.534c7.779-4.793 10.168-15.529 8.151-24.743-1.396-6.35-5.019-11.909-6.073-18.326-.713-4.376-.191-12.237 0-16.669a85.295 85.295 0 00-.642-16.86c-1.737-11.435-8.462-21.743-18.278-25.938a25.204 25.204 0 00-11.342-1.951c-4.116.214-9.285.767-13.049 2.65a7.287 7.287 0 00-2.512 1.871 8.37 8.37 0 00-1.623 2.854c-6.454-.237-9.576 6.767-11.543 12.586-2.72 8.007-3.232 16.781-2.64 25.262.382 5.425 1.164 14.447-.532 19.544a53.05 53.05 0 01-3.332 6.925c-3.011 5.988-4.587 13.104-3.303 19.826 1.285 6.721 5.762 12.845 11.714 14.435" fill="#733C18"/><path d="M410.073 127.292h37.105a19.474 19.474 0 0119.474 19.475v16.866h-76.088v-16.866a19.472 19.472 0 0112.046-18.002 19.473 19.473 0 017.463-1.473z" fill="#ED3E44"/><path d="M422.004 113.462h14.695v15.449a5.902 5.902 0 01-5.903 5.903h-2.889a5.902 5.902 0 01-5.903-5.903v-15.449z" fill="#F4B994"/><path d="M106.924 230.106h13.178L91.914 361.043a1.789 1.789 0 01-2.058 1.36l-.439-.09a1.854 1.854 0 01-1.439-2.057l18.946-130.15zM186.307 230.106h-13.178l28.189 130.982a1.788 1.788 0 002.058 1.36l.438-.09a1.857 1.857 0 001.439-2.057l-18.946-130.195z" fill="#B7B9CD"/><path d="M118.551 81.454h49.533c4.018 0 7.871 2.299 10.712 6.39 2.842 4.092 4.438 9.64 4.438 15.427v4.044h-79.833v-4.044c0-5.786 1.596-11.335 4.438-15.427 2.841-4.091 6.694-6.39 10.712-6.39z" fill="#ED3E44"/><path d="M136.103 69.712h15.123V84.61a5.701 5.701 0 01-5.701 5.7h-3.733a5.7 5.7 0 01-5.701-5.7V69.712h.012z" fill="#F4B994"/><path d="M193.11 240.564h-92.988a13.277 13.277 0 01-13.28-13.279 13.279 13.279 0 0113.28-13.28h92.988a13.278 13.278 0 0112.298 8.19 13.27 13.27 0 01-2.887 14.491 13.275 13.275 0 01-9.411 3.878z" fill="#999BB5"/><path d="M186.607 200.641h-84.33v13.492h84.33v-13.492z" fill="#ED3E44"/><path d="M186.607 188.272h-82.081v5.622h82.081v-5.622z" fill="#8896BC"/><path d="M204.229 106.873c.787 1.799 19.115 68.296 19.115 68.296l-14.561-.405-22.87-58.468" fill="#ED3E44"/><path d="M207.098 185.412h17.462a7.04 7.04 0 002.867-5.408c0-4.498-5.195-8.231-11.593-8.231s-11.604 3.688-11.604 8.231a7.066 7.066 0 002.868 5.408z" fill="#F4B994"/><path d="M409.679 134.825l-8.995-.179a28.33 28.33 0 00-6.904.427c-4.857 1.124-7.23 4.7-9.22 8.916a210.654 210.654 0 00-11.39 29.898c-1.237 4.172-2.316 8.894-.877 13.144 1.372 4.037 6.015 5.128 9.76 5.476 5.336.5 10.708.5 16.045 0" fill="#ED3E44"/><path d="M199.181 91.85H91.464c-7.26 0-13.144 5.886-13.144 13.145v64.248c0 7.259 5.885 13.144 13.144 13.144h107.717c7.26 0 13.145-5.885 13.145-13.144v-64.248c0-7.26-5.885-13.144-13.145-13.144z" fill="#E3E3F5"/><path d="M442.928 134.825l8.995-.179a28.42 28.42 0 016.915.427c4.858 1.124 7.219 4.7 9.209 8.916a212.063 212.063 0 0111.401 29.898c1.226 4.172 2.249 8.894.866 13.144-1.36 4.037-6.015 5.128-9.748 5.476-5.337.5-10.709.5-16.046 0" fill="#ED3E44"/><path d="M419.997 353.796a5 5 0 004.84-3.745L455.967 230l-29.639 1.011-17.879 118.186a4 4 0 003.955 4.599h7.593z" fill="#3D4067"/><path d="M506.883 233.16a4.999 4.999 0 013.694 5.555l-.563 3.893a5 5 0 01-5.532 4.251l-113.665-13.374a14.794 14.794 0 01-12.821-12.034 14.79 14.79 0 01.194-6.226 14.796 14.796 0 0112.264-11.064 14.794 14.794 0 015.794.326l110.635 28.673z" fill="#3D4067"/><path d="M587.864 193.924H.062v11.39h587.802v-11.39z" fill="#F7F7FA"/><path d="M500.486 198.624h-17.462l37.24 173.022a2.364 2.364 0 002.721 1.81l.585-.123a2.443 2.443 0 001.889-2.71l-24.973-171.999zM87.427 198.624h17.417l-37.24 173.022a2.372 2.372 0 01-2.721 1.81l-.585-.123a2.445 2.445 0 01-1.9-2.71l25.03-171.999z" fill="#F7F7FA"/><path d="M118.445 350.526a5 5 0 004.765 4.587l5.758.251a5 5 0 005.215-4.809l4.816-129.303a15.547 15.547 0 00-16.062-15.691 15.545 15.545 0 00-14.21 10.534 15.562 15.562 0 00-.784 6.18l10.502 128.251zM170.543 350.52a5 5 0 01-4.765 4.587l-5.747.251a4.999 4.999 0 01-5.214-4.809L150 221.246c-.036-2.107.356-4.2 1.153-6.152a15.568 15.568 0 018.738-8.603 15.56 15.56 0 0112.256.404 15.546 15.546 0 018.153 9.16c.667 1.999.92 4.114.745 6.215l-10.502 128.25z" fill="#3D4067"/><path d="M136.102 81.54a46.753 46.753 0 0015.123.158V69.712h-15.123V81.54z" fill="#FCA596" opacity=".13"/><path d="M118.995 50.088a114.652 114.652 0 01-2.877-18.465c-.217-3.225-.234-6.629.836-9.485 1.071-2.856 3.647-4.942 5.855-3.867.268-3.742 2.083-6.956 4.065-9.59 2.827-3.753 6.247-6.851 10.095-8.095a10.134 10.134 0 015.911-.269c1.96.5 3.798 1.579 5.363 3.146 4.868-4.384 11.475-3.362 16.727.085 3.689 2.424 5.855 6.323 5.629 12.13-.182 3.159-.907 6.23-2.124 9 4.257 2.624 6.816 9.243 6.498 15.587-.2 3.105-.952 6.113-2.2 8.802-1.248 2.69-2.96 4.99-5.009 6.733-.151.126-.343.263-.51.168-.167-.095-.176-.527 0-.527" fill="#4A3421"/><path d="M143.877 76.957c-12.077 0-22.093-11.412-22.912-26.099l-.639-11.478c-.941-16.17 9.612-29.887 22.912-29.887h1.279c13.299 0 23.824 13.718 22.921 29.887l-.64 11.478c-.818 14.687-10.863 26.099-22.921 26.099z" fill="#F4B994"/><path d="M170.817 58.1c2.806-4.761 2.705-10.021-.226-11.748-2.93-1.727-7.581.733-10.387 5.494-2.806 4.762-2.705 10.022.226 11.749 2.931 1.727 7.581-.733 10.387-5.495z" fill="#F4B994"/><path d="M120.22 50a22.607 22.607 0 006.17-8.717 22.556 22.556 0 001.473-10.57 68.483 68.483 0 009.632-2.872 26.594 26.594 0 007.58-4.054 11.875 11.875 0 004.398-7.198 13.458 13.458 0 009.862-.22 2.834 2.834 0 001.445-1.044c.733-1.264-.502-2.758-1.706-3.605a27.689 27.689 0 00-19.244-4.46 16.864 16.864 0 00-7.434 2.465 22.838 22.838 0 00-5.234 5.62c-4.241 5.789-8.649 11.994-9.12 19.14-.282 4.388.974 8.839.189 13.164" fill="#4A3421"/><path d="M118.156 61.34c2.7 3.822 6.582 4.347 8.679 1.173 2.098-3.174 1.61-8.841-1.083-12.664-2.692-3.822-6.582-4.348-8.679-1.184-2.098 3.163-1.61 8.852 1.083 12.674z" fill="#F4B994"/><path d="M227.924 193.894a9.699 9.699 0 00.286-2.304c0-6.161-5.793-11.189-12.931-11.189-7.138 0-12.931 5.003-12.931 11.189.005.777.097 1.551.274 2.304h25.302z" fill="#8896BC"/><path d="M215.841 191.645v-11.244h-1.124v11.244h1.124z" fill="#fff"/><path d="M155.523 129.825a3.788 3.788 0 00-1.255-2.421 3.878 3.878 0 00-2.572-.974h-12.248a3.882 3.882 0 00-2.579.97 3.786 3.786 0 00-1.259 2.425l-6.348 64.069h32.608l-6.347-64.069z" fill="#D4D4E8"/><path d="M145.323 149.499a4.51 4.51 0 100-9.019 4.51 4.51 0 000 9.019z" fill="#fff"/><path d="M427.659 132.632H386.9a3.206 3.206 0 00-3.194 3.475l4.723 53.128a3.202 3.202 0 003.182 2.923h72.108a3.208 3.208 0 003.182-2.923l4.711-53.128a3.19 3.19 0 00-1.908-3.221 3.197 3.197 0 00-1.297-.265l-40.748.011z" fill="#3D4067"/><path d="M466.27 192.788h-77.909a1.654 1.654 0 010-3.306h77.909a1.652 1.652 0 110 3.306z" fill="#3D4067"/><path d="M434.81 161.148a7.15 7.15 0 11-14.3.001 7.15 7.15 0 0114.3-.001z" fill="#fff"/><path d="M421.993 120.872c4.867.713 9.805.804 14.695.27v-7.68h-14.695v7.41z" fill="#FCA596" opacity=".12"/><path d="M429.484 117.435c-12.086 0-22.103-11.601-22.922-26.534l-.639-11.657c-.941-16.44 9.622-30.397 22.921-30.397h1.279c13.3 0 23.815 13.957 22.912 30.396l-.639 11.715c-.819 14.876-10.836 26.477-22.912 26.477z" fill="#F4B994"/><path d="M456.096 95.297c-.889 3.678-4.058 6.509-7.1 6.298-3.041-.211-4.741-3.315-3.852-6.992.889-3.678 4.058-6.51 7.078-6.326 3.021.183 4.769 3.337 3.874 7.02zM402.405 94.544c.585 3.739 3.512 6.821 6.561 6.86 3.049.039 4.997-2.915 4.412-6.653-.585-3.739-3.512-6.821-6.537-6.886-3.026-.065-5.021 2.941-4.436 6.68z" fill="#F4B994"/><path d="M428.335 45.076c-8.308.552-16.663 5.113-21.101 12.344-.946 1.513-4.551 14.318-2.725 14.962a23.798 23.798 0 008.137 1.34c.921-2.782 1.833-5.56 2.735-8.335a29.914 29.914 0 00-.322 8.018c-.001.304.1.598.284.828.202.163.448.25.7.245 4.177.472 8.38.613 12.576.42.587-3.293 1.164-6.587 1.75-9.89l1.079 9.614 10.986.378c.151-2.69.151-5.389 0-8.08l2.214 7.998c3.444-.082 6.917 0 10.342-.388a56.366 56.366 0 00-.236-6.3 30.928 30.928 0 00-1.893-6.454c-1.691-3.737-4.037-7.085-6.907-9.858a25.047 25.047 0 00-4.476-3.743c-4.005-2.405-8.575-3.483-13.143-3.1zM420.2 90.164c-.107 1.543-.77 2.76-1.466 2.706-.697-.054-1.184-1.31-1.071-2.884.113-1.574.77-2.76 1.468-2.717.699.044 1.167 1.393 1.069 2.895zM441.607 89.44c-.071 1.545-.687 2.783-1.385 2.75-.698-.034-1.233-1.276-1.156-2.851.076-1.576.676-2.784 1.386-2.76.71.025 1.215 1.316 1.155 2.862zM423.125 103.787a6.491 6.491 0 006.45 3.681 6.491 6.491 0 005.685-4.778c.215-.762-.958-1.161-1.172-.399a5.25 5.25 0 01-7.708 3.282 5.254 5.254 0 01-2.15-2.345.643.643 0 00-1.187.081.642.642 0 00.033.492l.049-.014z" fill="#733C18"/><path fill-rule="evenodd" clip-rule="evenodd" d="M418.891 83.845c-.951.28-2.235 1.128-2.709.52-.474-.608 1.458-1.256 2.375-1.628.951-.279 2.604-.202 2.604.33 0 .533-1.354.406-2.27.778zM442.392 81.852c.77.325 1.746.893 1.589 1.47-.157.577-1.279-.246-2.08-.483-.767-.324-2.39-.43-2.11-1.052.279-.622 1.8-.166 2.601.065z" fill="#733C18"/><path d="M428.381 95.265c.04.91.758 1.193 1.596 1.27.785-.133 1.501-.66 2.072-1.513" stroke="#C58570" stroke-linecap="round"/><path d="M135.126 47.029c0 1.47-.567 2.658-1.261 2.658-.693 0-1.24-1.198-1.229-2.68.01-1.481.578-2.658 1.261-2.658.683 0 1.24 1.209 1.229 2.68zM156.49 45.904c0 1.471-.568 2.67-1.261 2.659-.694-.01-1.23-1.198-1.23-2.67 0-1.47.578-2.668 1.261-2.668.683 0 1.24 1.208 1.23 2.68z" fill="#4A3421"/><path d="M143.842 51.096c-.975 1.879-1.294 3.186-.957 3.922.336.736 1.328.902 2.976.496" stroke="#4A3421" stroke-opacity=".7" stroke-width=".7" stroke-linecap="round" stroke-linejoin="round"/><path fill-rule="evenodd" clip-rule="evenodd" d="M151.75 38.004s2.562.273 4.859.273c2.298 0 4.497 1.58 4.914.316.414-1.264-2.678-1.97-4.914-2.048 0 0-4.752-.54-4.859 1.459zM138.576 38.078s-1.647.136-4.094.136c-2.448 0-3.766 1.037-4.063 0-.336-1.175 2.074-1.743 3.947-1.717 0 0 3.944-.307 4.21 1.581z" fill="#4A3421"/><path d="M139.382 65.193s3.969 2.461 9.926.16" stroke="#4A3421" stroke-linecap="round" stroke-linejoin="round"/><path fill-rule="evenodd" clip-rule="evenodd" d="M251.822 193.894h19.115v-24.737h-19.115v24.737z" fill="#E3E3F5"/><path fill-rule="evenodd" clip-rule="evenodd" d="M265.315 193.894h5.622v-24.737h-5.622v24.737z" fill="#E3E3F5"/><path fill-rule="evenodd" clip-rule="evenodd" d="M270.3 191.64l-.997-1.278c.078-.06 7.616-6.031 7.908-11.136.127-2.297-.415-4.076-1.568-5.144a3.74 3.74 0 00-2.987-.965c-1.698.239-3.616 1.975-3.634 1.993l-1.091-1.195c.092-.088 2.302-2.094 4.502-2.402 1.532-.215 3.14.301 4.305 1.378 1.064.979 2.288 2.892 2.085 6.429-.33 5.838-8.188 12.056-8.523 12.32zM511.558 193.894h19.115v-24.737h-19.115v24.737z" fill="#E3E3F5"/><path fill-rule="evenodd" clip-rule="evenodd" d="M525.051 193.894h5.622v-24.737h-5.622v24.737z" fill="#E3E3F5"/><path fill-rule="evenodd" clip-rule="evenodd" d="M530.036 191.64l-.997-1.278c.078-.06 7.616-6.031 7.908-11.136.127-2.297-.415-4.076-1.568-5.144a3.74 3.74 0 00-2.987-.965c-1.698.239-3.616 1.975-3.634 1.993l-1.091-1.195c.092-.088 2.302-2.094 4.502-2.402 1.532-.215 3.14.301 4.305 1.378 1.064.979 2.288 2.892 2.085 6.429-.33 5.838-8.188 12.056-8.523 12.32z" fill="#E3E3F5"/></svg>