<svg width="342" height="300" viewBox="0 0 342 300" fill="none" xmlns="http://www.w3.org/2000/svg">
<path d="M341.489 275.106H322.688V275.323H341.489V275.106Z" fill="#EBEBEB"/>
<path d="M250.235 270.614H220.655V270.831H250.235V270.614Z" fill="#EBEBEB"/>
<path d="M333.875 267.059H295.259V267.275H333.875V267.059Z" fill="#EBEBEB"/>
<path d="M101.383 271.429H91.7222V271.646H101.383V271.429Z" fill="#EBEBEB"/>
<path d="M83.9958 271.429H50.7046V271.646H83.9958V271.429Z" fill="#EBEBEB"/>
<path d="M32.866 267.77H8.84497V267.986H32.866V267.77Z" fill="#EBEBEB"/>
<path d="M289.874 193.044C289.553 193.044 289.223 193.044 288.894 193.044C281.956 193.608 276.285 200.242 275.843 208.419C275.739 210.218 275.891 212.022 276.294 213.779C277.832 220.833 278.571 228.039 278.496 235.259V256.34C278.451 257.019 278.673 257.689 279.115 258.206C279.558 258.724 280.186 259.047 280.864 259.106H327.397V193.044H289.874Z" fill="#F0F0F0"/>
<path d="M341.463 209.529C341.463 200.042 334.63 192.428 326.418 193.053C319.48 193.616 313.809 200.25 313.41 208.428C313.306 210.227 313.458 212.031 313.861 213.787C315.399 220.842 316.138 228.047 316.063 235.267V256.349C316.018 257.028 316.24 257.698 316.683 258.215C317.125 258.732 317.753 259.055 318.431 259.115H336.46C337.136 259.053 337.762 258.729 338.202 258.212C338.643 257.695 338.864 257.026 338.818 256.349V234.053C338.764 227.285 339.497 220.533 341.004 213.935C341.326 212.489 341.48 211.011 341.463 209.529Z" fill="#FAFAFA"/>
<path d="M308.024 221.765H258.907V259.141H308.024V221.765Z" fill="#F5F5F5"/>
<path d="M264.96 136.261H210.986C209.511 136.236 208.047 136.526 206.692 137.11C205.337 137.695 204.122 138.56 203.127 139.65C202.132 140.74 201.38 142.029 200.922 143.432C200.463 144.835 200.308 146.319 200.467 147.786L207.474 228.087H284.497L277.491 147.786C277.173 144.665 275.722 141.768 273.413 139.644C271.104 137.521 268.097 136.317 264.96 136.261Z" fill="#E6E6E6"/>
<path d="M271.853 136.261H223.291C221.833 136.23 220.385 136.511 219.045 137.084C217.704 137.657 216.501 138.51 215.516 139.585C214.531 140.66 213.787 141.933 213.333 143.319C212.879 144.705 212.726 146.171 212.885 147.621L219.909 228.087H291.278L284.254 147.621C283.938 144.537 282.5 141.676 280.214 139.582C277.928 137.488 274.953 136.306 271.853 136.261Z" fill="#F5F5F5"/>
<path d="M262.081 220.421H307.989C308.645 220.421 309.273 220.682 309.737 221.145C310.2 221.609 310.461 222.237 310.461 222.893V226.873C310.461 227.528 310.2 228.157 309.737 228.621C309.273 229.084 308.645 229.344 307.989 229.344H262.081C261.984 229.344 261.888 229.325 261.798 229.288C261.709 229.251 261.628 229.197 261.559 229.129C261.491 229.06 261.437 228.979 261.4 228.889C261.362 228.8 261.343 228.704 261.343 228.607V221.167C261.342 221.069 261.36 220.973 261.397 220.882C261.434 220.792 261.488 220.709 261.556 220.64C261.625 220.571 261.706 220.516 261.796 220.478C261.886 220.44 261.983 220.421 262.081 220.421Z" fill="#EBEBEB"/>
<path d="M210.786 259.141H328.108V259.297C328.108 259.789 327.912 260.261 327.564 260.609C327.216 260.957 326.744 261.153 326.252 261.153H212.651C212.159 261.153 211.687 260.957 211.339 260.609C210.991 260.261 210.795 259.789 210.795 259.297V259.141H210.786Z" fill="#E6E6E6"/>
<path d="M211.498 193.044C211.177 193.044 210.847 193.044 210.518 193.044C203.58 193.608 197.909 200.242 197.467 208.419C197.363 210.218 197.515 212.022 197.918 213.779C199.456 220.833 200.195 228.039 200.12 235.259V256.34C200.075 257.019 200.297 257.689 200.74 258.206C201.182 258.724 201.81 259.047 202.488 259.106H259.583V193.044H211.498Z" fill="#F0F0F0"/>
<path d="M273.64 209.529C273.64 200.042 266.807 192.428 258.595 193.053C251.657 193.616 245.986 200.25 245.543 208.428C245.44 210.227 245.592 212.031 245.994 213.787C247.533 220.842 248.272 228.047 248.197 235.267V256.349C248.151 257.028 248.373 257.698 248.816 258.215C249.259 258.732 249.886 259.055 250.564 259.115H268.593C269.27 259.053 269.895 258.729 270.336 258.212C270.777 257.695 270.998 257.026 270.952 256.349V234.053C270.899 227.286 271.629 220.534 273.129 213.935C273.472 212.492 273.644 211.013 273.64 209.529Z" fill="#FAFAFA"/>
<path d="M333.666 234.938H288.798V261.153H333.666V234.938Z" fill="#F0F0F0"/>
<path d="M333.962 233.585H288.521C287.506 233.585 286.683 234.408 286.683 235.424V240.661C286.683 241.677 287.506 242.5 288.521 242.5H333.962C334.977 242.5 335.8 241.677 335.8 240.661V235.424C335.8 234.408 334.977 233.585 333.962 233.585Z" fill="#E6E6E6"/>
<path d="M52.5512 143.823H41.1044V188.197H52.5512V143.823Z" fill="#E6E6E6"/>
<path d="M128.569 188.197H45.5967L39.856 136.261H122.828L128.569 188.197Z" fill="#F0F0F0"/>
<path d="M132.687 188.197H48.4577L42.7169 136.261H126.947L132.687 188.197Z" fill="#F5F5F5"/>
<path d="M51.294 184.104L46.4637 140.354H124.112L128.95 184.104H51.294Z" fill="white"/>
<path d="M64.3446 173.498L64.1451 171.72C62.9311 160.742 69.7818 150.96 78.6878 150.96L78.8873 152.694C80.1013 163.673 73.2419 173.455 64.3446 173.455V173.498Z" fill="#F5F5F5"/>
<path d="M81.3247 173.498L81.1252 171.72C79.9112 160.742 86.7619 150.96 95.6679 150.96L95.8674 152.694C97.0815 163.673 90.222 173.455 81.3247 173.455V173.498Z" fill="#F5F5F5"/>
<path d="M98.3039 173.498L98.1044 171.72C96.8904 160.742 103.75 150.96 112.647 150.96L112.847 152.694C114.061 163.673 107.201 173.455 98.3039 173.455V173.498Z" fill="#F5F5F5"/>
<path d="M188.465 188.197H139.305V261.153H188.465V188.197Z" fill="#E6E6E6"/>
<path d="M183.514 261.153H188.457V247.087H178.328L183.514 261.153Z" fill="#F0F0F0"/>
<path d="M50.6865 188.197H1.52576V261.153H50.6865V188.197Z" fill="#E6E6E6"/>
<path d="M188.456 188.197H46.368V252.524H188.456V188.197Z" fill="#F0F0F0"/>
<path d="M51.311 261.153H46.368V247.087H56.4968L51.311 261.153Z" fill="#F0F0F0"/>
<path d="M184.623 192.22H50.2097V218.175H184.623V192.22Z" fill="#E6E6E6"/>
<path d="M126.383 200.285H108.45C104.597 200.285 100.784 199.5 97.2443 197.978C93.7047 196.456 90.5125 194.228 87.8625 191.431H146.97C144.32 194.228 141.128 196.456 137.588 197.978C134.049 199.5 130.236 200.285 126.383 200.285Z" fill="#F0F0F0"/>
<path d="M184.623 222.372H50.2097V248.327H184.623V222.372Z" fill="#E6E6E6"/>
<path d="M126.383 230.455H108.45C104.597 230.455 100.784 229.67 97.2443 228.148C93.7047 226.625 90.5125 224.398 87.8625 221.601H146.97C144.32 224.398 141.128 226.625 137.588 228.148C134.049 229.67 130.236 230.455 126.383 230.455Z" fill="#F0F0F0"/>
<path d="M322.107 0H5.78357V107.531H322.107V0Z" fill="#E6E6E6"/>
<path d="M325.255 0H7.24939V107.531H325.255V0Z" fill="#F0F0F0"/>
<path d="M322.107 107.531H5.78357V113.385H322.107V107.531Z" fill="#E6E6E6"/>
<path d="M330.502 107.531H12.4961V113.385H330.502V107.531Z" fill="#F0F0F0"/>
<path d="M320.85 103.134V4.41406L11.6636 4.41406V103.134L320.85 103.134Z" fill="#FAFAFA"/>
<path d="M276.571 103.126L283.629 4.40527H295.839L288.781 103.126H276.571Z" fill="white"/>
<path d="M34.3489 103.126L41.4078 4.40527H53.6177L46.5675 103.126H34.3489Z" fill="white"/>
<path d="M13.7015 52.8463C13.6567 52.8475 13.6122 52.8396 13.5707 52.823C13.5291 52.8064 13.4913 52.7816 13.4597 52.7499C13.428 52.7183 13.4032 52.6805 13.3866 52.6389C13.37 52.5974 13.3621 52.5529 13.3633 52.5081V7.2757C13.3633 7.18601 13.3989 7.09998 13.4623 7.03656C13.5258 6.97313 13.6118 6.9375 13.7015 6.9375C13.7905 6.9397 13.8752 6.97604 13.9382 7.03899C14.0011 7.10195 14.0375 7.1867 14.0397 7.2757V52.5081C14.0397 52.5978 14.004 52.6838 13.9406 52.7473C13.8772 52.8107 13.7912 52.8463 13.7015 52.8463Z" fill="#F0F0F0"/>
<path d="M291.409 103.126L298.467 4.40527H303.22L296.169 103.126H291.409Z" fill="white"/>
<path d="M320.85 103.126V4.40527H320.286V103.126H320.85Z" fill="#E6E6E6"/>
<path opacity="0.5" d="M326.296 12.4007H9.97289L9.56531 6.12231H325.889L326.296 12.4007Z" fill="#E0E0E0"/>
<path opacity="0.5" d="M326.296 22.7203H9.97289L9.56531 16.4419H325.889L326.296 22.7203Z" fill="#E0E0E0"/>
<path opacity="0.5" d="M326.296 33.0399H9.97289L9.56531 26.7615H325.889L326.296 33.0399Z" fill="#E0E0E0"/>
<path opacity="0.5" d="M326.296 43.3595H9.97289L9.56531 37.0811H325.889L326.296 43.3595Z" fill="#E0E0E0"/>
<path opacity="0.5" d="M326.296 53.6787H9.97289L9.56531 47.4003H325.889L326.296 53.6787Z" fill="#E0E0E0"/>
<path opacity="0.5" d="M326.296 63.9896H9.97289L9.56531 57.7198H325.889L326.296 63.9896Z" fill="#E0E0E0"/>
<g style="mix-blend-mode:multiply">
<path d="M168.139 300C260.999 300 336.277 295.605 336.277 290.183C336.277 284.762 260.999 280.367 168.139 280.367C75.2782 280.367 0 284.762 0 290.183C0 295.605 75.2782 300 168.139 300Z" fill="#F5F5F5"/>
</g>
<path d="M91.5315 23.9749H84.4032V24.842H91.5315V23.9749Z" fill="#58C5ED"/>
<path d="M78.2372 23.9749H53.7653V24.842H78.2372V23.9749Z" fill="#58C5ED"/>
<path d="M48.9703 160.479H223.535C224.453 160.493 225.364 160.311 226.207 159.947C227.049 159.582 227.805 159.042 228.423 158.363C229.042 157.684 229.509 156.881 229.793 156.008C230.077 155.135 230.173 154.211 230.073 153.298L219.459 34.1557C219.251 32.2155 218.345 30.4171 216.909 29.096C215.473 27.7748 213.605 27.0211 211.654 26.9754H37.0811C36.1629 26.9613 35.2522 27.1427 34.4093 27.5074C33.5665 27.8722 32.8109 28.412 32.1926 29.091C31.5743 29.77 31.1074 30.5727 30.8229 31.4459C30.5384 32.319 30.4429 33.2427 30.5426 34.1557L41.1569 153.264C41.3535 155.213 42.2566 157.023 43.696 158.352C45.1354 159.681 47.0115 160.438 48.9703 160.479Z" fill="#58C5ED"/>
<path d="M49.5334 160.479H224.089C225.008 160.494 225.919 160.314 226.763 159.949C227.606 159.585 228.362 159.045 228.981 158.366C229.6 157.687 230.066 156.883 230.35 156.01C230.634 155.136 230.729 154.212 230.628 153.298L220.022 34.1557C219.812 32.2162 218.905 30.4189 217.47 29.0981C216.034 27.7773 214.168 27.023 212.217 26.9754H37.6356C36.72 26.9665 35.8128 27.1515 34.9738 27.5184C34.1348 27.8852 33.3829 28.4255 32.7677 29.1038C32.1525 29.7821 31.6879 30.5829 31.4044 31.4536C31.121 32.3244 31.0251 33.2453 31.1231 34.1557L41.7374 153.264C41.9372 155.209 42.839 157.014 44.274 158.342C45.709 159.67 47.5788 160.43 49.5334 160.479Z" fill="#58C5ED"/>
<path opacity="0.2" d="M49.5334 160.479H224.089C225.008 160.494 225.919 160.314 226.763 159.949C227.606 159.585 228.362 159.045 228.981 158.366C229.6 157.687 230.066 156.883 230.35 156.01C230.634 155.136 230.729 154.212 230.628 153.298L220.022 34.1557C219.812 32.2162 218.905 30.4189 217.47 29.0981C216.034 27.7773 214.168 27.023 212.217 26.9754H37.6356C36.72 26.9665 35.8128 27.1515 34.9738 27.5184C34.1348 27.8852 33.3829 28.4255 32.7677 29.1038C32.1525 29.7821 31.6879 30.5829 31.4044 31.4536C31.121 32.3244 31.0251 33.2453 31.1231 34.1557L41.7374 153.264C41.9372 155.209 42.839 157.014 44.274 158.342C45.709 159.67 47.5788 160.43 49.5334 160.479Z" fill="black"/>
<path d="M212.521 30.6001H37.9569C37.7661 30.6001 37.5666 30.6001 37.3759 30.6001C32.9185 30.9643 33.9505 37.7544 38.4512 37.7544H213.31C217.811 37.7544 217.646 30.9643 213.111 30.6001C212.912 30.6088 212.721 30.6001 212.521 30.6001Z" fill="#58C5ED"/>
<path d="M41.0705 36.2715C40.515 36.2601 39.9826 36.0471 39.5725 35.6721C39.1625 35.2972 38.9028 34.7859 38.8419 34.2336C38.8167 33.963 38.8476 33.6901 38.9327 33.432C39.0177 33.1738 39.1551 32.936 39.3361 32.7334C39.5188 32.5341 39.7414 32.3754 39.9894 32.2679C40.2374 32.1603 40.5053 32.1062 40.7757 32.109C41.3321 32.119 41.8656 32.3329 42.2748 32.7102C42.684 33.0874 42.9405 33.6017 42.9957 34.1555C43.0252 34.4245 42.9972 34.6966 42.9136 34.9539C42.8299 35.2111 42.6925 35.4477 42.5104 35.6478C42.3283 35.8479 42.1058 36.007 41.8576 36.1145C41.6093 36.2221 41.341 36.2756 41.0705 36.2715ZM40.7757 32.9762C40.6265 32.9741 40.4785 33.0031 40.3412 33.0614C40.2038 33.1196 40.0801 33.2057 39.9779 33.3144C39.8745 33.4318 39.7971 33.5698 39.7507 33.7192C39.7044 33.8687 39.6902 34.0262 39.709 34.1816C39.7449 34.5198 39.903 34.8334 40.1537 35.0633C40.4044 35.2933 40.7304 35.4238 41.0705 35.4303C41.2197 35.4324 41.3676 35.4034 41.505 35.3451C41.6423 35.2869 41.7661 35.2007 41.8683 35.0921C41.9722 34.975 42.0499 34.837 42.0963 34.6875C42.1426 34.538 42.1566 34.3803 42.1372 34.2249C42.0995 33.8874 41.9409 33.5749 41.6906 33.3453C41.4402 33.1157 41.1152 32.9846 40.7757 32.9762Z" fill="#FAFAFA"/>
<path d="M46.6632 36.2715C46.1087 36.2598 45.5773 36.0465 45.1687 35.6714C44.7601 35.2963 44.5022 34.7851 44.4432 34.2336C44.4151 33.9638 44.4443 33.6911 44.529 33.4334C44.6136 33.1757 44.7517 32.9388 44.9343 32.7382C45.1169 32.5376 45.3398 32.3778 45.5884 32.2694C45.8371 32.161 46.1058 32.1063 46.3771 32.109C46.9324 32.1227 47.4638 32.3379 47.8723 32.7144C48.2807 33.0909 48.5383 33.6031 48.5971 34.1555C48.6264 34.4251 48.5975 34.6977 48.5122 34.9551C48.4269 35.2125 48.2873 35.4485 48.1028 35.6471C47.9201 35.8464 47.6975 36.005 47.4495 36.1126C47.2015 36.2202 46.9336 36.2743 46.6632 36.2715ZM46.3771 32.9762C46.2277 32.973 46.0794 33.0015 45.9419 33.0598C45.8044 33.1181 45.6808 33.2049 45.5792 33.3144C45.4729 33.4301 45.393 33.5677 45.345 33.7174C45.2971 33.8672 45.2823 34.0255 45.3017 34.1815C45.3394 34.5191 45.498 34.8316 45.7484 35.0612C45.9987 35.2908 46.3237 35.4219 46.6632 35.4303C46.8125 35.4334 46.9608 35.4049 47.0983 35.3466C47.2359 35.2883 47.3595 35.2016 47.461 35.0921C47.5685 34.9772 47.6485 34.8396 47.695 34.6894C47.7416 34.5392 47.7535 34.3804 47.7299 34.2249C47.6942 33.8881 47.5373 33.5757 47.2884 33.346C47.0396 33.1162 46.7156 32.9848 46.3771 32.9762Z" fill="#FAFAFA"/>
<path d="M52.2655 36.2715C51.7099 36.2601 51.1775 36.0471 50.7675 35.6721C50.3574 35.2972 50.0977 34.7859 50.0368 34.2336C50.0117 33.963 50.0426 33.6901 50.1276 33.432C50.2127 33.1738 50.35 32.936 50.5311 32.7334C50.7137 32.5341 50.9363 32.3754 51.1844 32.2679C51.4324 32.1603 51.7003 32.1062 51.9706 32.109C52.5275 32.1206 53.061 32.3349 53.4712 32.7116C53.8815 33.0883 54.1403 33.6017 54.1993 34.1555C54.2243 34.4248 54.1932 34.6963 54.1082 34.953C54.0231 35.2097 53.8858 35.446 53.705 35.6471C53.5223 35.8464 53.2997 36.005 53.0517 36.1126C52.8037 36.2202 52.5358 36.2743 52.2655 36.2715ZM51.9706 32.9762C51.8215 32.9741 51.6735 33.0031 51.5361 33.0614C51.3988 33.1196 51.2751 33.2057 51.1728 33.3144C51.0694 33.4318 50.992 33.5698 50.9457 33.7192C50.8994 33.8687 50.8851 34.0262 50.904 34.1816C50.9398 34.5198 51.098 34.8334 51.3486 35.0633C51.5993 35.2933 51.9254 35.4238 52.2655 35.4303C52.4146 35.4324 52.5626 35.4033 52.6999 35.3451C52.8373 35.2869 52.961 35.2007 53.0633 35.0921C53.1671 34.975 53.2448 34.837 53.2912 34.6875C53.3376 34.538 53.3515 34.3803 53.3321 34.2249C53.2937 33.8815 53.1301 33.5643 52.8725 33.3339C52.6149 33.1035 52.2815 32.9762 51.9359 32.9762H51.9706Z" fill="#FAFAFA"/>
<path d="M52.2476 148.624H219.302C219.635 148.63 219.966 148.564 220.272 148.433C220.578 148.301 220.852 148.105 221.077 147.859C221.302 147.613 221.472 147.322 221.575 147.006C221.679 146.689 221.714 146.354 221.678 146.023L212.902 48.0306C212.828 47.3257 212.499 46.6721 211.977 46.193C211.455 45.7138 210.775 45.4421 210.067 45.429H43.0554C42.7223 45.4234 42.3917 45.4887 42.0857 45.6206C41.7797 45.7525 41.5053 45.9479 41.2806 46.1939C41.0559 46.44 40.8861 46.7309 40.7824 47.0476C40.6788 47.3642 40.6436 47.6993 40.6793 48.0306L49.4119 146.023C49.4858 146.727 49.8149 147.381 50.3372 147.86C50.8595 148.339 51.5389 148.611 52.2476 148.624Z" fill="white"/>
<path d="M110.254 226.497C112.578 233.6 109.387 239.358 102.311 239.358H220.491C227.602 239.358 230.758 233.6 228.434 226.497H110.254Z" fill="#263238"/>
<path d="M59.6455 52.67C84.976 110.615 65.3863 168.569 84.5251 226.497C86.8578 233.6 95.2175 239.358 102.311 239.358C109.405 239.358 112.579 233.6 110.254 226.497H215.574C196.427 168.552 216.016 110.615 190.686 52.67H59.6455Z" fill="#58C5ED"/>
<path opacity="0.8" d="M59.6455 52.67C84.976 110.615 65.3863 168.569 84.5251 226.497C86.8578 233.6 95.2175 239.358 102.311 239.358C109.405 239.358 112.579 233.6 110.254 226.497H215.574C196.427 168.552 216.016 110.615 190.686 52.67H59.6455Z" fill="white"/>
<path d="M115.527 96.5928H83.6575C82.2374 85.7635 79.7955 75.0929 76.3645 64.7238H108.234C111.665 75.0929 114.106 85.7635 115.527 96.5928Z" fill="#A7D82F"/>
<path opacity="0.6" d="M201.369 217.635H130.26C127.319 206.229 125.384 194.587 124.476 182.843H195.585C196.493 194.587 198.429 206.229 201.369 217.635Z" fill="#58C5ED"/>
<g opacity="0.8">
<path opacity="0.8" d="M184.919 68.2796H113.81C113.446 67.1233 113.064 65.944 112.665 64.7415H183.774C184.173 65.9208 184.555 67.1002 184.919 68.2796Z" fill="#58C5ED"/>
<path opacity="0.8" d="M187.469 77.5152H116.36C116.065 76.3589 115.776 75.1795 115.492 73.9771H186.602C186.885 75.1391 187.174 76.3185 187.469 77.5152Z" fill="#58C5ED"/>
<path opacity="0.8" d="M173.463 86.6898H118.353C118.128 85.5105 117.894 84.3311 117.642 83.1517H172.76C173.003 84.3311 173.237 85.5105 173.463 86.6898Z" fill="#58C5ED"/>
</g>
<g opacity="0.2">
<path opacity="0.2" d="M192.359 108.092H121.25C121.181 107.32 121.111 106.539 121.033 105.759H192.142C192.22 106.539 192.29 107.32 192.359 108.092Z" fill="#58C5ED"/>
<path opacity="0.2" d="M192.845 114.162H121.736C121.684 113.382 121.623 112.601 121.562 111.829H192.671C192.732 112.601 192.793 113.382 192.845 114.162Z" fill="#58C5ED"/>
<path opacity="0.2" d="M173.463 120.224H122.099C122.099 119.443 122.021 118.671 121.969 117.891H173.341L173.463 120.224Z" fill="#58C5ED"/>
<path opacity="0.2" d="M193.486 126.285H122.377C122.377 125.514 122.316 124.733 122.282 123.953H193.391C193.426 124.733 193.46 125.514 193.486 126.285Z" fill="#58C5ED"/>
<path opacity="0.2" d="M193.695 132.356H122.585C122.585 131.575 122.542 130.795 122.516 130.023H193.625C193.651 130.795 193.677 131.575 193.695 132.356Z" fill="#58C5ED"/>
<path opacity="0.2" d="M138.984 138.417H122.75C122.75 137.637 122.75 136.865 122.69 136.084H138.923C138.949 136.865 138.967 137.645 138.984 138.417Z" fill="#58C5ED"/>
<path opacity="0.2" d="M193.99 144.487H122.881C122.881 143.707 122.881 142.926 122.837 142.155H193.947C193.964 142.926 193.973 143.707 193.99 144.487Z" fill="#58C5ED"/>
<path opacity="0.2" d="M194.154 150.549H123.045L122.993 148.216H194.102L194.154 150.549Z" fill="#58C5ED"/>
<path opacity="0.2" d="M194.268 156.611H123.158C123.158 155.839 123.158 155.058 123.098 154.278H194.207C194.224 155.058 194.242 155.839 194.268 156.611Z" fill="#58C5ED"/>
<path opacity="0.2" d="M194.449 162.681H123.34L123.262 160.348H194.371L194.449 162.681Z" fill="#58C5ED"/>
<path opacity="0.2" d="M194.684 168.743H123.574C123.574 167.971 123.505 167.19 123.479 166.41H194.588C194.614 167.19 194.649 167.971 194.684 168.743Z" fill="#58C5ED"/>
<path opacity="0.2" d="M153.908 174.813H123.912L123.781 172.48H153.795L153.908 174.813Z" fill="#58C5ED"/>
</g>
<path d="M270.736 70.5077C271.516 71.4529 272.175 72.3028 272.843 73.222C273.511 74.1412 274.161 75.0344 274.794 75.9623C276.069 77.8094 277.274 79.6912 278.41 81.6423C279.546 83.5935 280.639 85.5794 281.602 87.6606C282.611 89.7603 283.48 91.9243 284.203 94.1385L284.481 95.0057L284.55 95.2138L284.654 95.578C284.733 95.8394 284.794 96.106 284.836 96.3758C284.993 97.3074 285.014 98.2568 284.897 99.1942C284.698 100.644 284.292 102.057 283.692 103.391C282.697 105.591 281.461 107.674 280.006 109.6C277.297 113.209 274.212 116.52 270.805 119.478L267.284 116.243C269.639 112.833 271.813 109.302 273.797 105.663C274.712 104.005 275.467 102.262 276.052 100.46C276.27 99.7994 276.39 99.1097 276.407 98.4137C276.407 98.1796 276.407 98.0148 276.338 98.0148C276.268 98.0148 276.338 98.0148 276.338 98.0148C276.338 98.0148 276.338 98.0668 276.338 98.0148L276.268 97.85L275.982 97.1823C274.355 93.5134 272.435 89.9813 270.242 86.62C269.149 84.8856 267.987 83.1513 266.773 81.4949C265.559 79.8386 264.336 78.0869 263.183 76.5433L270.736 70.5077Z" fill="#FF8B7B"/>
<path d="M269.47 115.159L263.66 116.842L268.29 122.261C268.29 122.261 272.201 120.406 271.803 117.344L269.47 115.159Z" fill="#FF8B7B"/>
<path d="M259.498 121.498L264.761 125.696L268.291 122.261L263.66 116.842L259.498 121.498Z" fill="#FF8B7B"/>
<path d="M238.667 42.5585C238.667 43.0788 238.398 43.4951 238.06 43.4951C237.722 43.4951 237.453 43.0788 237.453 42.5585C237.453 42.0382 237.722 41.6306 238.06 41.6306C238.398 41.6306 238.667 42.0469 238.667 42.5585Z" fill="#263238"/>
<path d="M238.441 43.495C237.827 45.0625 237.001 46.5387 235.987 47.8829C236.338 48.1343 236.739 48.3064 237.163 48.3872C237.587 48.4681 238.023 48.4558 238.441 48.3512V43.495Z" fill="#A02724"/>
<path d="M240.488 39.7138C240.425 39.7146 240.364 39.6931 240.315 39.6531C240.011 39.4257 239.659 39.2721 239.286 39.2043C238.912 39.1366 238.528 39.1566 238.164 39.2629C238.089 39.2912 238.006 39.2889 237.933 39.2564C237.86 39.2239 237.803 39.1639 237.774 39.0894C237.748 39.0145 237.751 38.9325 237.784 38.86C237.816 38.7875 237.874 38.73 237.947 38.6992C238.404 38.5541 238.889 38.5209 239.362 38.6024C239.834 38.6839 240.28 38.8777 240.662 39.1675C240.695 39.1899 240.724 39.2191 240.746 39.253C240.767 39.287 240.782 39.3251 240.789 39.3649C240.795 39.4047 240.793 39.4455 240.783 39.4846C240.774 39.5237 240.756 39.5604 240.731 39.5924C240.703 39.6301 240.666 39.6607 240.624 39.6818C240.582 39.7028 240.535 39.7138 240.488 39.7138Z" fill="#263238"/>
<path d="M255.248 48.4813C254.337 53.1468 253.427 61.6886 256.687 64.7931C256.687 64.7931 255.413 69.5192 246.749 69.5192C237.21 69.5192 242.205 64.7931 242.205 64.7931C247.408 63.553 247.261 59.7027 246.359 56.0779L255.248 48.4813Z" fill="#FF8B7B"/>
<path d="M257.936 66.4147C258.621 64.9231 259.367 63.2061 257.815 62.6684C256.08 62.0787 246.741 61.4804 243.515 62.5904C243.089 62.7083 242.691 62.9095 242.344 63.1823C241.997 63.4551 241.707 63.7941 241.492 64.1796C241.276 64.5651 241.14 64.9896 241.089 65.4283C241.039 65.867 241.077 66.3113 241.199 66.7355L257.936 66.4147Z" fill="#58C5ED"/>
<path d="M288.036 271.764C287.853 271.967 287.632 272.131 287.384 272.246C287.137 272.36 286.869 272.424 286.596 272.432C286.432 272.432 286.223 272.276 286.145 271.886C286.123 271.787 286.124 271.684 286.146 271.585C286.169 271.486 286.213 271.393 286.276 271.313C286.839 270.542 288.964 270.325 289.05 270.316C289.079 270.311 289.109 270.314 289.135 270.327C289.162 270.339 289.184 270.36 289.198 270.386C289.214 270.41 289.223 270.439 289.223 270.468C289.223 270.497 289.214 270.526 289.198 270.55C288.856 270.996 288.466 271.403 288.036 271.764ZM286.648 271.357L286.518 271.487C286.481 271.534 286.455 271.589 286.441 271.647C286.428 271.706 286.428 271.766 286.44 271.825C286.492 272.103 286.622 272.129 286.666 272.137C287.099 272.233 288.097 271.4 288.721 270.663C287.986 270.743 287.278 270.986 286.648 271.374V271.357Z" fill="#58C5ED"/>
<path d="M289.163 270.594H289.102C288.365 270.75 286.501 270.507 286.137 269.882C286.081 269.784 286.06 269.668 286.079 269.556C286.098 269.444 286.155 269.342 286.241 269.267C286.32 269.183 286.416 269.116 286.522 269.07C286.627 269.024 286.741 269 286.856 268.998C287.819 268.998 289.12 270.281 289.172 270.342C289.193 270.36 289.208 270.383 289.216 270.409C289.224 270.435 289.223 270.463 289.215 270.489C289.215 270.51 289.21 270.529 289.201 270.547C289.192 270.565 289.179 270.581 289.163 270.594ZM286.518 269.458L286.466 269.51C286.327 269.648 286.379 269.735 286.397 269.77C286.605 270.134 287.906 270.42 288.73 270.368C288.223 269.848 287.575 269.489 286.865 269.336C286.739 269.334 286.616 269.377 286.518 269.458Z" fill="#58C5ED"/>
<path d="M240.271 284C239.456 284 238.667 283.887 238.398 283.523C238.33 283.427 238.293 283.312 238.293 283.194C238.293 283.076 238.33 282.961 238.398 282.864C238.507 282.687 238.681 282.559 238.883 282.509C239.941 282.222 242.17 283.489 242.257 283.549C242.286 283.562 242.309 283.585 242.323 283.613C242.338 283.642 242.342 283.674 242.335 283.705C242.329 283.735 242.314 283.763 242.292 283.784C242.271 283.806 242.243 283.821 242.213 283.827C241.572 283.939 240.922 283.997 240.271 284ZM239.248 282.769C239.153 282.755 239.056 282.755 238.962 282.769C238.901 282.781 238.843 282.806 238.792 282.841C238.741 282.877 238.698 282.923 238.667 282.977C238.554 283.168 238.597 283.263 238.667 283.315C238.962 283.723 240.574 283.731 241.763 283.567C240.984 283.14 240.13 282.869 239.248 282.769Z" fill="#58C5ED"/>
<path d="M242.197 283.827H242.136C241.364 283.48 239.838 282.092 239.959 281.381C239.959 281.208 240.107 281 240.523 280.956C240.678 280.937 240.834 280.951 240.984 280.996C241.133 281.04 241.271 281.116 241.39 281.216C242.205 281.884 242.37 283.601 242.379 283.671C242.382 283.697 242.378 283.724 242.367 283.748C242.357 283.773 242.34 283.794 242.318 283.809C242.281 283.831 242.238 283.837 242.197 283.827ZM240.644 281.225H240.549C240.28 281.225 240.263 281.355 240.254 281.39C240.185 281.824 241.217 282.908 241.988 283.376C241.909 282.649 241.606 281.964 241.121 281.416C240.985 281.309 240.818 281.248 240.644 281.243V281.225Z" fill="#58C5ED"/>
<path d="M249.203 283.679H242.829L242.196 268.928H248.561L249.203 283.679Z" fill="#FF8B7B"/>
<path d="M295.597 268.738L289.432 270.342L282.607 256.883L288.773 255.27L295.597 268.738Z" fill="#FF8B7B"/>
<path d="M288.955 269.614L294.409 264.983C294.506 264.901 294.629 264.856 294.756 264.856C294.883 264.856 295.006 264.901 295.103 264.983L299.725 268.452C299.837 268.538 299.927 268.649 299.989 268.776C300.052 268.903 300.084 269.043 300.084 269.184C300.084 269.326 300.052 269.465 299.989 269.592C299.927 269.719 299.837 269.83 299.725 269.917C297.791 271.495 296.768 272.172 294.375 274.21C292.892 275.458 288.443 279.76 286.405 281.494C284.367 283.228 282.39 281.433 283.067 280.54C286.119 276.551 288.105 272.657 288.391 270.559C288.455 270.185 288.656 269.848 288.955 269.614Z" fill="#263238"/>
<path d="M242.873 282.942H249.81C249.937 282.943 250.059 282.986 250.158 283.065C250.258 283.143 250.327 283.253 250.356 283.376L251.614 289.039C251.644 289.175 251.643 289.317 251.61 289.453C251.578 289.589 251.515 289.716 251.427 289.825C251.338 289.933 251.227 290.02 251.1 290.079C250.973 290.138 250.835 290.168 250.695 290.166C248.189 290.166 244.555 289.984 241.407 289.984C237.713 289.984 236.109 290.183 231.781 290.183C229.18 290.183 228.443 287.538 229.535 287.296C234.513 286.212 237.01 286.09 241.32 283.437C241.781 283.13 242.319 282.959 242.873 282.942Z" fill="#263238"/>
<path d="M233.984 78.9456C231.868 82.6918 229.649 86.2386 227.272 89.7768C224.896 93.3149 222.381 96.7142 219.624 100.088C219.286 100.513 218.921 100.955 218.566 101.336L218.037 101.961L217.768 102.273L217.317 102.741C216.273 103.809 215.053 104.689 213.71 105.343C211.555 106.383 209.281 107.152 206.937 107.632C202.638 108.505 198.253 108.874 193.868 108.733L193.4 103.973C197.262 102.979 201.069 101.781 204.804 100.382C206.475 99.7594 208.078 98.9692 209.59 98.0237C210.099 97.6984 210.553 97.2945 210.935 96.827L211.672 95.821C211.958 95.4221 212.253 95.0319 212.539 94.6157C214.837 91.355 217.048 87.9383 219.208 84.4869C221.367 81.0355 223.544 77.5494 225.616 74.0807L233.984 78.9456Z" fill="#FF8B7B"/>
<path d="M268.62 66.2413C274.595 67.6115 281.437 83.8886 281.437 83.8886L269.444 92.1095C266.463 87.8302 263.816 83.3278 261.526 78.6421C257.988 71.1843 262.515 64.8365 268.62 66.2413Z" fill="#263238"/>
<path opacity="0.3" d="M264.344 76.6476L270.016 91.7453L269.452 92.1355C269.452 92.1355 266.998 88.6668 264.344 84.0447V76.6476Z" fill="black"/>
<path d="M232.935 66.5623C232.935 66.5623 226.153 74.2195 232.553 121.629H266.625C266.859 116.425 263.573 90.8782 268.62 66.2328C264.853 65.5075 261.044 65.0267 257.216 64.7932C252.393 64.5155 247.557 64.5155 242.734 64.7932C239.427 65.1265 236.15 65.718 232.935 66.5623Z" fill="#263238"/>
<path opacity="0.3" d="M236.716 80.2723C235.83 85.6523 233.504 90.6922 229.987 94.8584C229.848 91.8059 229.796 89.0656 229.805 86.6115L236.716 80.2723Z" fill="black"/>
<path d="M239.656 71.7306C240.523 77.7575 228.608 93.1674 228.608 93.1674L216.702 84.9465C216.702 84.9465 220.006 76.4568 225.59 70.8894C231.921 64.507 238.737 65.166 239.656 71.7306Z" fill="#263238"/>
<path d="M193.781 103.955L187.104 103.149L187.286 111.283C187.286 111.283 192.541 111.734 195.403 108.074L193.781 103.955Z" fill="#FF8B7B"/>
<path d="M180.444 105.135L183.046 111.717L187.286 111.283L187.104 103.149L180.444 105.135Z" fill="#FF8B7B"/>
<path opacity="0.2" d="M242.196 268.928L242.552 277.219H248.925L248.57 268.928H242.196Z" fill="black"/>
<path opacity="0.2" d="M288.773 255.279L282.607 256.883L286.388 264.341L292.293 262.217L288.773 255.279Z" fill="black"/>
<path d="M255.803 41.4744C255.421 47.7788 255.516 51.499 252.334 54.7336C247.538 59.6072 239.751 56.7195 238.242 50.3977C236.889 44.7263 237.748 35.3607 243.931 32.8545C245.291 32.2957 246.771 32.094 248.231 32.2687C249.691 32.4433 251.082 32.9885 252.272 33.8523C253.461 34.7162 254.41 35.87 255.028 37.2041C255.646 38.5382 255.913 40.0082 255.803 41.4744Z" fill="#FF8B7B"/>
<path d="M244.451 44.4142C241.113 43.7464 242.327 39.74 243.151 38.5607C242.891 38.4827 242.657 38.3384 242.471 38.1421C242.285 37.9457 242.153 37.7041 242.089 37.4411C242.025 37.1782 242.031 36.9031 242.106 36.6431C242.181 36.3832 242.323 36.1474 242.517 35.9591C241.121 35.9591 237.592 35.7163 237.791 31.6232C237.991 27.5301 240.592 27.955 241.555 30.3224C241.98 28.925 242.931 27.7472 244.207 27.037C245.483 26.3269 246.986 26.1399 248.397 26.5155C252.013 27.3826 248.831 29.2558 248.831 29.2558C248.831 29.2558 256.722 27.6688 255.621 31.7186C259.037 31.9093 264.006 35.0659 261.5 37.7889C262.992 40.7199 262.758 42.7231 260.876 43.5036C260.225 47.0244 256.488 53.7711 253.643 53.7711C251.293 53.7624 244.607 50.5798 244.451 44.4142Z" fill="#263238"/>
<path d="M247.252 43.1915C246.968 44.7349 246.185 46.1423 245.023 47.1979C243.48 48.5681 242.136 47.4668 242.092 45.5937C242.092 43.9026 242.803 41.145 244.581 40.4859C246.359 39.8269 247.564 41.3184 247.252 43.1915Z" fill="#FF8B7B"/>
<path d="M244.642 121.629C244.642 121.629 251.875 170.304 255.838 188.515C260.174 208.46 282.304 261.931 282.304 261.931L293.404 258.358C293.404 258.358 277.405 210.142 274.951 190.362C272.262 168.899 266.626 121.629 266.626 121.629H244.642Z" fill="#58C5ED"/>
<path d="M279.945 259.624C279.902 259.624 282.495 263.509 282.495 263.509L294.965 259.398L293.482 255.678L279.945 259.624Z" fill="#263238"/>
<path opacity="0.3" d="M249.212 138.972C257.571 140.611 256.687 171.786 255.681 187.821C253.27 176.486 249.741 154.677 247.33 139.197C247.913 138.91 248.577 138.83 249.212 138.972Z" fill="black"/>
<path d="M232.553 121.629C232.553 121.629 229.536 169.263 230.229 188.688C230.949 208.893 240.15 275.06 240.15 275.06H250.938C250.938 275.06 249.203 210.073 249.672 190.232C250.201 168.552 254.953 121.629 254.953 121.629H232.553Z" fill="#58C5ED"/>
<path d="M238.068 270.758C238.025 270.758 238.684 275.242 238.684 275.242H251.805L252.16 271.244L238.068 270.758Z" fill="#263238"/>
</svg>
