<svg xmlns="http://www.w3.org/2000/svg" xmlns:xlink="http://www.w3.org/1999/xlink" width="555" height="250" viewBox="0 0 555 250">
    <defs>
        <path id="a" d="M0 0h555v250H0z"/>
    </defs>
    <g fill="none" fill-rule="evenodd">
        <mask id="b" fill="#fff">
            <use xlink:href="#a"/>
        </mask>
        <use fill="#FFF" xlink:href="#a"/>
        <g mask="url(#b)">
            <path stroke="#1D1D1B" stroke-linecap="round" stroke-linejoin="round" stroke-width=".8" d="M435.445 178.046c2.584-4.763 3.72-10.275 2.707-15.598-4.115-21.61-11.863-79.418-38.105-69.699M230.507 153.224l-53.598 10.055a16.16 16.16 0 0 0-11.242 10.38"/>
            <path fill="#FFF" d="M427.236 174.575a23.92 23.92 0 0 0 2.612-15.072c-3.088-19.86-14.23-71.465-28.603-67.346 1.461-.456 3.163-.646 4.955-.62 7.72.113 14.68 4.678 18.182 11.56 9.636 18.937 16.292 41.176 18.92 56.957 1.633 9.806-3.091 13.769-5.675 18.533"/>
            <path stroke="#1D1D1B" stroke-linecap="round" stroke-linejoin="round" stroke-width=".8" d="M427.236 174.575a23.92 23.92 0 0 0 2.612-15.072c-3.088-19.86-14.23-71.465-28.603-67.346 1.461-.456 3.163-.646 4.955-.62 7.72.113 14.68 4.678 18.182 11.56 9.636 18.937 16.292 41.176 18.92 56.957 1.633 9.806-3.091 13.769-5.675 18.533"/>
            <path fill="#FFF" d="M173.602 224.667c-15.289 0-21.24-7.778-18.661-19.887l10.727-31.121c.112-.32.232-.636.36-.948l-10.16 29.516c-2.932 8.52 3.388 17.396 12.388 17.396h6.19"/>
            <path stroke="#1D1D1B" stroke-linecap="round" stroke-linejoin="round" stroke-width=".8" d="M173.602 224.667c-15.289 0-21.24-7.778-18.661-19.887l10.727-31.121c.112-.32.232-.636.36-.948l-10.16 29.516c-2.932 8.52 3.388 17.396 12.388 17.396h6.19"/>
            <path fill="#1D1D1B" d="M292.166 224.667H173.602c-.467 0-.915-.197-1.225-.547a43.597 43.597 0 0 1-1.557-1.86c-.855-1.082-2.509-2.64-1.13-2.637h117.492c.169 0 .338.026.499.076 1.816.57 6.734-.29 8.31.34 1.682.67-2.016 4.628-3.825 4.628"/>
            <path fill="#FFF" d="M200.594 158.835l-3.995 12.976"/>
            <path stroke="#1D1D1B" stroke-linecap="round" stroke-linejoin="round" stroke-width=".8" d="M200.594 158.835l-3.995 12.976"/>
            <path fill="#1D1D1B" d="M292.409 223.904h-2.337l-11.359 12.934-32.422-12.934-6.942.694-5.295-1.982 45.519 17.043 14.238-17.043"/>
            <path fill="#EEF1F5" stroke="#1D1D1B" stroke-linecap="round" stroke-linejoin="round" stroke-width=".8" d="M292.409 223.904h-2.337l-11.359 12.934-32.422-12.934-6.942.694-5.295-1.982 45.519 17.043 14.238-17.043"/>
            <path stroke="#1D1D1B" stroke-linecap="round" stroke-linejoin="round" stroke-width=".8" d="M343.213 239.659l-14.238-17.043M302.136 222.616l-14.238 17.043M217.959 222.616l45.52 17.043h24.419M337.3 222.616l14.238 17.043h-8.325"/>
            <path fill="#1D1D1B" d="M340.086 229.535l-34.636-1.477c-6.522-.279-13.04-.759-13.04-7.286l1.374-4.888 53.558 5.966c0 5.184-4.388 7.807-7.256 7.685"/>
            <path stroke="#1D1D1B" stroke-linecap="round" stroke-linejoin="round" stroke-width=".8" d="M340.086 229.535l-34.636-1.477c-6.522-.279-13.04-.759-13.04-7.286l1.374-4.888 53.558 5.966c0 5.184-4.388 7.807-7.256 7.685z"/>
            <path fill="#FFF" d="M342.765 226.427h-45.779a4.59 4.59 0 0 1-4.577-4.576v-2.523a4.59 4.59 0 0 1 4.577-4.577h45.779a4.59 4.59 0 0 1 4.577 4.577v2.523a4.59 4.59 0 0 1-4.577 4.576"/>
            <path stroke="#1D1D1B" stroke-linecap="round" stroke-linejoin="round" stroke-width=".8" d="M342.765 226.427h-45.779a4.59 4.59 0 0 1-4.577-4.576v-2.523a4.59 4.59 0 0 1 4.577-4.577h45.779a4.59 4.59 0 0 1 4.577 4.577v2.523a4.59 4.59 0 0 1-4.577 4.576z"/>
            <path fill="#FFF" d="M429.613 142.338l-7.1-36.7c9.444-9.903 9.494-15.187 16.007-15.403 1.365-.045 10.397-.448 14.815 2.514 2.057 1.379 15.41 20.655 9.056 29.862-8.29 12.013-19.922 16.346-23.544 18.793-.37.25-9.078 1.352-9.234.934"/>
            <path stroke="#1D1D1B" stroke-linecap="round" stroke-linejoin="round" stroke-width=".8" d="M429.613 142.338l-7.1-36.7c9.444-9.903 9.494-15.187 16.007-15.403 1.365-.045 10.397-.448 14.815 2.514 2.057 1.379 15.41 20.655 9.056 29.862-8.29 12.013-19.922 16.346-23.544 18.793-.37.25-9.078 1.352-9.234.934z"/>
            <path fill="#FFF" d="M428.513 140.838l-10.225-24.47a8.78 8.78 0 0 1 1.088-8.657c7.776-10.342 12.537-16.563 17.737-17.476 4.768-.837 5.185 1.569 9.334 6.718 6.037 7.493 8.806 19.918 6.488 23.73-7.406 12.18-24.336 19.092-24.422 20.155"/>
            <path stroke="#1D1D1B" stroke-linecap="round" stroke-linejoin="round" stroke-width=".8" d="M428.513 140.838l-10.225-24.47a8.78 8.78 0 0 1 1.088-8.657c7.776-10.342 12.537-16.563 17.737-17.476 4.768-.837 5.185 1.569 9.334 6.718 6.037 7.493 8.806 19.918 6.488 23.73-7.406 12.18-24.336 19.092-24.422 20.155z"/>
            <path fill="#EEF1F5" d="M463.115 121.06c-3.495 8.338-11.883 13.668-18.14 17.918-2.173 1.476-3.754 2.35-6.222 3.111-8.14.782-8.706.582-12.64 1.082l-.366-.767c.067-.859 16.877-7.033 27.633-20.9 2.133.178 9.71-.444 9.735-.444"/>
            <path stroke="#1D1D1B" stroke-linecap="round" stroke-linejoin="round" stroke-width=".8" d="M463.115 121.06c-3.495 8.338-11.883 13.668-18.14 17.918-2.173 1.476-3.754 2.35-6.222 3.111-8.14.782-8.706.582-12.64 1.082l-.366-.767c.067-.859 16.877-7.033 27.633-20.9 2.133.178 9.71-.444 9.735-.444z"/>
            <path fill="#EEF1F5" stroke="#1D1D1B" stroke-linecap="round" stroke-linejoin="round" stroke-width=".8" d="M292.166 224.667H173.602c-.467 0-.915-.197-1.225-.547a43.597 43.597 0 0 1-1.557-1.86c-.855-1.082-2.509-2.64-1.13-2.637h117.492c.169 0 .338.026.499.076 1.816.57 6.734-.29 8.31.34 1.682.67-2.016 4.628-3.825 4.628z"/>
            <path fill="#FFF" d="M356.178 193.687s-4.337 3.703-10.886 12.454a6.243 6.243 0 0 1-3.999 2.423c-4.278.692-13.268 2.18-21.055 3.697-5.19 1.011-8.444.085-10.153-.753-2.074-1.016-4.31-1.653-6.595-1.993-4.65-.69-11.677-1.13-17.604 1.029a.736.736 0 0 0-.378 1.08c1.302 2.1 5.635 7.816 14.344 8.08 8.689.263 36.231.526 46.193.615a20.33 20.33 0 0 0 8.526-1.781c4.711-2.118 12.128-6.407 19.06-14.44"/>
            <path stroke="#1D1D1B" stroke-linecap="round" stroke-linejoin="round" stroke-width=".8" d="M356.178 193.687s-4.337 3.703-10.886 12.454a6.243 6.243 0 0 1-3.999 2.423c-4.278.692-13.268 2.18-21.055 3.697-5.19 1.011-8.444.085-10.153-.753-2.074-1.016-4.31-1.653-6.595-1.993-4.65-.69-11.677-1.13-17.604 1.029a.736.736 0 0 0-.378 1.08c1.302 2.1 5.635 7.816 14.344 8.08 8.689.263 36.231.526 46.193.615a20.33 20.33 0 0 0 8.526-1.781c4.711-2.118 12.128-6.407 19.06-14.44"/>
            <path fill="#FFF" d="M388.872 185.851c-4.416 9.748-12.868 18.212-12.868 18.212-14.452.756-20.172-11.004-20.172-11.004l1.528-2.208c-20.712 2.16-35.72 11.644-35.72 11.644-3.704.644-8.827-2.213-13.051-6.857-7.992-8.78-4.105-36.283-4.041-36.699.008.004.016.004.02.008 1.664.648 3.304 1.108 4.668 1.108 3.668 0 14.24-6.096 14.24-6.096s1.531-.977 3.157-2.038a912.079 912.079 0 0 0 7.353-4.841c2.641-1.755 6.742-4.07 10.298-7.225.296-.26.588-.52.872-.78 1.724-1.576 3.344-2.908 4.78-4.256 1.66-1.556 4.044-2.03 5.088-4.026 1.728-3.316 4.16-8.25 10.952-11.334 9.704-3.52 15.315 4.267 15.315 4.267l-5.395 27.913-5.392 3.916s3.044 14.88 18.296 11.416c1.536 2.032 2.34 4.268 2.6 6.604.444 3.972-.696 8.236-2.528 12.276"/>
            <path fill="#FC3" stroke="#1D1D1B" stroke-linecap="round" stroke-linejoin="round" stroke-width=".8" d="M388.872 185.851c-4.416 9.748-12.868 18.212-12.868 18.212-14.452.756-20.172-11.004-20.172-11.004l1.528-2.208c-20.712 2.16-35.72 11.644-35.72 11.644-3.704.644-8.827-2.213-13.051-6.857-7.992-8.78-4.105-36.283-4.041-36.699.008.004.016.004.02.008 1.664.648 3.304 1.108 4.668 1.108 3.668 0 14.24-6.096 14.24-6.096s1.531-.977 3.157-2.038a912.079 912.079 0 0 0 7.353-4.841c2.641-1.755 6.742-4.07 10.298-7.225.296-.26.588-.52.872-.78 1.724-1.576 3.344-2.908 4.78-4.256 1.66-1.556 4.044-2.03 5.088-4.026 1.728-3.316 4.16-8.25 10.952-11.334 9.704-3.52 15.315 4.267 15.315 4.267l-5.395 27.913-5.392 3.916s3.044 14.88 18.296 11.416c1.536 2.032 2.34 4.268 2.6 6.604.444 3.972-.696 8.236-2.528 12.276z"/>
            <path stroke="#1D1D1B" stroke-linecap="round" stroke-linejoin="round" stroke-width=".8" d="M366.404 156.393s0 4.383 2.805 7.323"/>
            <path fill="#FFF" d="M394.04 111.854c-10.377 3.39-12.475 9.617-13.593 12.086-.798 1.76-3.04 5.804-3.903 7.206-.684 1.112-4.212 2.77-5.647 3.411a.68.68 0 0 0-.35.886l1.035 1.798s-3.344 10.517-1.726 12.458c1.618 1.942 6.04 1.942 6.04 1.942l-5.393 3.913s3.045 14.883 18.296 11.418c0 0 .77-3.547 4.249-6.944 0 0 1.826 3.772 6.525 4.125 4.306.324 4.53-2.48 4.53-2.48"/>
            <path stroke="#1D1D1B" stroke-linecap="round" stroke-linejoin="round" stroke-width=".8" d="M394.04 111.854c-10.377 3.39-12.475 9.617-13.593 12.086-.798 1.76-3.04 5.804-3.903 7.206-.684 1.112-4.212 2.77-5.647 3.411a.68.68 0 0 0-.35.886l1.035 1.798s-3.344 10.517-1.726 12.458c1.618 1.942 6.04 1.942 6.04 1.942l-5.393 3.913s3.045 14.883 18.296 11.418c0 0 .77-3.547 4.249-6.944 0 0 1.826 3.772 6.525 4.125 4.306.324 4.53-2.48 4.53-2.48"/>
            <path fill="#FFF" d="M395.556 153.395c-3.4 2.992-7.688 2.184-7.688 2.184 5.016-2.912 5.247-11.561 2.592-16.504-5.347-9.952-3.89-18.391-2.236-22.167 1.263-2.88 4.008-4.785 7.084-5.425 12.688-2.656 21.15 2.626 26.205 5.622 5.716 3.384 11.955 16.812 8.639 28.496-2.944 10.375-15.936 18.362-21.84 21.926-.896.54-1.828 1.02-2.76 1.5-4.06 2.088-5.852 5.928-4.66 8.756 1.008 2.388 3.724 4.168 2.404 6.216-3.144 4.876-14.424 1.852-14.424 1.852 1.832-4.04 4.863-11.964-.072-18.88"/>
            <path stroke="#1D1D1B" stroke-linecap="round" stroke-linejoin="round" stroke-width=".8" d="M395.556 153.395c-3.4 2.992-7.688 2.184-7.688 2.184 5.016-2.912 5.247-11.561 2.592-16.504-5.347-9.952-3.89-18.391-2.236-22.167 1.263-2.88 4.008-4.785 7.084-5.425 12.688-2.656 21.15 2.626 26.205 5.622 5.716 3.384 11.955 16.812 8.639 28.496-2.944 10.375-15.936 18.362-21.84 21.926-.896.54-1.828 1.02-2.76 1.5-4.06 2.088-5.852 5.928-4.66 8.756 1.008 2.388 3.724 4.168 2.404 6.216-3.144 4.876-14.424 1.852-14.424 1.852 1.832-4.04 4.863-11.964-.072-18.88M393.532 156.549s7.497-2.956 10.571 2.868M423.513 144.818s3.674 8.818-7.895 15.21M406.315 161.645s1.456 2.185 6.957-2.265M396.067 158.054s3.883-.106 5.178 2.727"/>
            <path stroke="#1D1D1B" stroke-linecap="round" stroke-linejoin="round" stroke-width=".8" d="M396.607 168.036c-.216.324-5.177 2.805-2.481 6.472 2.696 3.668 4.854 4.746-1.726 7.767M365.434 179.902c-.648.108-9.6 13.159-9.6 13.159"/>
            <path fill="#1D1D1B" d="M372.711 151.226c-2.599 1.136-2.208 4.328-2.208 4.328l5.394-3.913"/>
            <path stroke="#1D1D1B" stroke-linecap="round" stroke-linejoin="round" stroke-width=".8" d="M372.711 151.226c-2.599 1.136-2.208 4.328-2.208 4.328l5.394-3.913M321.64 202.495s-7.55 6.06-36.242 1.603c-28.692-4.457-37.322-3.637-44.225-10.411"/>
            <path stroke="#1D1D1B" stroke-linecap="round" stroke-linejoin="round" stroke-width=".8" d="M296.831 176.558l-2.619-1.402a11.839 11.839 0 0 0-6.452-1.37c-8.83.65-32.477 2.42-44.052 3.635-12.22 1.28-37.065 5.204-44.305 6.362a3.505 3.505 0 0 0-2.804 2.432c-.715 2.338-1.467 6.24-.04 9.707a2.93 2.93 0 0 0 2.308 1.78c5.467.764 24.661 3.096 34.972-.218 8.507-2.735 11.965-.472 11.965-.472M202.004 183.37s-5.276 5.74-1.391 14.565"/>
            <path stroke="#1D1D1B" stroke-linecap="round" stroke-linejoin="round" stroke-width=".8" d="M276.026 174.668l-26.979-9.005-20.585 13.71-15.316 2.262s-4.764-2.057-4.656-8.637l34.26-29.471a13.189 13.189 0 0 1 13.132-2.388l48.685 17.808M210.929 170.9s1.15 8.139 6.651 10.08"/>
            <path fill="#1D1D1B" d="M247.08 166.974l-.79-10.156 2.757 8.846"/>
            <path stroke="#1D1D1B" stroke-linecap="round" stroke-linejoin="round" stroke-width=".8" d="M247.08 166.974l-.79-10.156 2.757 8.846M196.559 195.922s-9.852 1.84-14.544 2.65c-4.693.808-10.631-.43-13.22-4.885-2.588-4.455 12.466-7.005 15.874-7.203 4.622-.27 8.218-.197 11.93-.27M182.856 198.425s-11.61-5.916-2.74-11.308M197.284 184.97c-6.4-1.105-15.668-5.678-9.951-8.59 5.717-2.912 15.027.142 18.913-.142 2.526-.185 2.411-.991 2.411-.991M197.79 175.357s-6.743 3.014 3.123 8.012"/>
            <path fill="#FFF" d="M393.047 160.027s1.827 3.773 6.526 4.126c4.306.324 4.53-2.48 4.53-2.48"/>
            <path stroke="#1D1D1B" stroke-linecap="round" stroke-linejoin="round" stroke-width=".8" d="M393.047 160.027s1.827 3.773 6.526 4.126c4.306.324 4.53-2.48 4.53-2.48"/>
            <path fill="#FFF" d="M303.91 158.643l-52.598-15.362-7.604-37.051 51.458 19.38z"/>
            <path stroke="#1D1D1B" stroke-linecap="round" stroke-linejoin="round" stroke-width=".8" d="M303.91 158.643l-52.598-15.362-7.604-37.051 51.458 19.38z"/>
            <path fill="#FFF" d="M323.474 153.96s-7.072 6.094-14.238 6.094c-3.345 0-11.133-1.968-14.073-3.427a1.032 1.032 0 0 1-.183-1.732l23.022-8.502"/>
            <path stroke="#1D1D1B" stroke-linecap="round" stroke-linejoin="round" stroke-width=".8" d="M323.474 153.96s-7.072 6.094-14.238 6.094c-3.345 0-11.133-1.968-14.073-3.427a1.032 1.032 0 0 1-.183-1.732l23.022-8.502"/>
            <path fill="#FFF" d="M253.17 139.356l45.886 14.034-6.094-25.648-45.293-16.414z"/>
            <path stroke="#1D1D1B" stroke-linecap="round" stroke-linejoin="round" stroke-width=".8" d="M253.17 139.356l45.886 14.034-6.094-25.648-45.293-16.414z"/>
            <path fill="#FFF" d="M293.6 99.329s-8.336 14.723-10.71 16.664c-3.054 2.5-11.556 5.373-14.936 16.468-.439 1.44.938 2.782 2.374 2.333 3.838-1.197 18.392-7.395 21-10.629 2.26-2.802 1.715-4.41 5.163-9.327 3.85-5.49 8.496-10.746 8.496-10.746"/>
            <path stroke="#1D1D1B" stroke-linecap="round" stroke-linejoin="round" stroke-width=".8" d="M293.6 99.329s-8.336 14.723-10.71 16.664c-3.054 2.5-11.556 5.373-14.936 16.468-.439 1.44.938 2.782 2.374 2.333 3.838-1.197 18.392-7.395 21-10.629 2.26-2.802 1.715-4.41 5.163-9.327 3.85-5.49 8.496-10.746 8.496-10.746"/>
            <path fill="#FFF" d="M323.474 153.96s25.328-11.833 31.252-22.688c1.791-3.284 4.46-8.729 11.248-11.813 1.759-.8 3.2-2.09 4.503-3.517 2.712-2.97 5.42-5.838 11.082-11.977 6.14-6.658 22.36-24.02 22.32-33.08-.036-7.987-4.397-14.628-13.063-22.227"/>
            <path stroke="#1D1D1B" stroke-linecap="round" stroke-linejoin="round" stroke-width=".8" d="M323.474 153.96s25.328-11.833 31.252-22.688c1.791-3.284 4.46-8.729 11.248-11.813 1.759-.8 3.2-2.09 4.503-3.517 2.712-2.97 5.42-5.838 11.082-11.977 6.14-6.658 22.36-24.02 22.32-33.08-.036-7.987-4.397-14.628-13.063-22.227"/>
            <path fill="#FFF" d="M336.192 128.375c-1.004.937-18.19 18.019-18.19 18.019"/>
            <path stroke="#1D1D1B" stroke-linecap="round" stroke-linejoin="round" stroke-width=".8" d="M336.192 128.375c-1.004.937-18.19 18.019-18.19 18.019"/>
            <path fill="#FFF" d="M375.897 84.793s-16.098 16.443-24.27 25.511c-3.46 3.843-10.498 11.039-15.435 15.741-.156.15-.31.296-.463.44 0 0-1.092 1.034-1.043 2.638"/>
            <path stroke="#1D1D1B" stroke-linecap="round" stroke-linejoin="round" stroke-width=".8" d="M375.897 84.793s-16.098 16.443-24.27 25.511c-3.46 3.843-10.498 11.039-15.435 15.741-.156.15-.31.296-.463.44 0 0-1.092 1.034-1.043 2.638M335.913 127.971s5.127 1.915 8.833 13.267M340.844 121.502s9.514 4.85 10.53 13.862"/>
            <path fill="#FFF" stroke="#1D1D1B" stroke-linecap="round" stroke-linejoin="round" stroke-width=".8" d="M337.101 36.708s-3.89-1.561-9.729 5.342c-5.84 6.903-40.214 61.092-38.199 57.924 2.015-3.17 17.94 1.335 16.827 7.364l20.243-30.84"/>
            <path stroke="#1D1D1B" stroke-linecap="round" stroke-linejoin="round" stroke-width=".8" d="M294.105 92.231s11.14-1.426 16.44 8.183M318.189 75.812s1.833 1.186 2.48 3.343M289.173 99.974c-.459.616-.364 1.884 1.459 4.406M327.68 59.308s1.626 5.34-1.047 15.533c-2.674 10.193-.34 20.838 2.828 28.476 1.557 3.755 2.608 5.739 6.731 9.394M328.603 101.31s-1.231 7.217-9.875 15.706c-4.82 4.733-9.726 16.055-10.14 32.155M315.25 121.633s.134 6.817 6.498 8.22M348.18 113.273l-11.195-3.54 3.114-9.087 13.39 4.324-1.584 5.028M353.489 66.32l-6.512 36.518 19.742-30.956M345.237 58.197l-9.898 17.938 6.904 6.904-4.423 4.237 2.912 9.677M356.529 99.974l13.004-10.14v-6.795l7.119-.54s1.903-12.497 5.217-24.302"/>
            <path fill="#FFF" d="M348.93 55.467s-1.151 12.987 16.255 16.314a5.864 5.864 0 0 0 4.3-.868c3.992-2.606 12.675-9.253 15.005-19.02 0 0 .852-18.294-19.487-15.884-14.563 1.726-16.073 19.458-16.073 19.458"/>
            <path stroke="#1D1D1B" stroke-linecap="round" stroke-linejoin="round" stroke-width=".8" d="M348.93 55.467s-1.151 12.987 16.255 16.314a5.864 5.864 0 0 0 4.3-.868c3.992-2.606 12.675-9.253 15.005-19.02 0 0 .852-18.294-19.487-15.884-14.563 1.726-16.073 19.458-16.073 19.458z"/>
            <path fill="#FFF" d="M381.182 44.207c3.128 3.452 2.153 12.32 2.153 12.32s24.622-20.737 6.4-41.956c-6.492-7.56-15.847-10.07-23.03-9.491-16.584 1.333-28.508 15.026-29.604 31.628-.34 5.152.034 11.219 1.582 18.286 0 0 1.187 4.099-.431 7.227 0 0 1.941 0 9.267-5.765 5.417-4.264 15.434-5.67 18.346-13.759 0 0 11.974.216 13.483 11.218 0 0 4.645-6.607 1.834-9.708"/>
            <path stroke="#1D1D1B" stroke-linecap="round" stroke-linejoin="round" stroke-width=".8" d="M381.182 44.207c3.128 3.452 2.153 12.32 2.153 12.32s24.622-20.737 6.4-41.956c-6.492-7.56-15.847-10.07-23.03-9.491-16.584 1.333-28.508 15.026-29.604 31.628-.34 5.152.034 11.219 1.582 18.286 0 0 1.187 4.099-.431 7.227 0 0 1.941 0 9.267-5.765 5.417-4.264 15.434-5.67 18.346-13.759 0 0 11.974.216 13.483 11.218 0 0 4.645-6.607 1.834-9.708z"/>
            <path stroke="#1D1D1B" stroke-linecap="round" stroke-linejoin="round" stroke-width=".8" d="M346.234 33.097s-6.505 3.635-7.335 11.218c-.83 7.583 1.833 11.434-.647 17.906 0 0 3.343-2.266 3.667-10.032.323-7.766 4.315-10.57 4.315-10.57M384.31 42.05s2.847 2.121 2.449 6.608M379.672 34.392s-5.024-7.659-12.22-3.452M355.51 28.998s5.177-1.833 6.472-4.207M368.454 24.792c.216-.108 8.522-.432 12.944 4.206M356.529 61.771s.186 1.975 1.031 7.452l2.487-.76M142.904 67.679a2.795 2.795 0 0 1-.376.796l.376-.796zM128.844 45.023l-.272.512c.063-.184.152-.356.272-.512zM136.836 68.243l-1.288 2.628a2.008 2.008 0 0 1-.308-.304l-11.292-13.66a2.108 2.108 0 0 1-.008-2.708c.208-.248.484-.448.82-.576a9.15 9.15 0 0 1 3.264-.6c.988 0 1.972.16 2.912.468a2.325 2.325 0 0 0-.636.724l-2.336 4.176a2.02 2.02 0 0 1 2.804-.22c1.684 1.404 4.14 3.788 5.968 6.972.548.952.584 2.116.1 3.1z"/>
            <path stroke="#1D1D1B" stroke-linecap="round" stroke-linejoin="round" stroke-width=".8" d="M142.904 67.679l-.376.796c-.276.416-.668.76-1.16.992l-3.616 1.692a2.093 2.093 0 0 1-2.204-.288l3.492-3.812c1.284-1.328 1.924-2.588 2.028-3.68l1.256 1.52c.68.824.852 1.872.58 2.78z"/>
            <path stroke="#1D1D1B" stroke-linecap="round" stroke-linejoin="round" stroke-width=".8" d="M147.116 58.787l-.004.012-4.208 8.88c.272-.908.1-1.956-.58-2.78l-6.912-8.364c-1.876-2.264-4.612-3.512-7.388-3.512-1.1 0-2.204.196-3.264.6a1.982 1.982 0 0 0-.82.576l4.628-8.656.004-.008.272-.512c.216-.308.528-.556.916-.708a9.268 9.268 0 0 1 10.504 2.736l6.74 8.152a2.923 2.923 0 0 1 .112 3.584z"/>
            <path fill="#1D1D1B" d="M141.068 63.379c-.104 1.092-.744 2.352-2.028 3.68l-3.492 3.812 1.288-2.628a3.298 3.298 0 0 0-.1-3.1c-1.828-3.184-4.284-5.568-5.968-6.972a2.02 2.02 0 0 0-2.804.22l2.336-4.176a2.33 2.33 0 0 1 .636-.724 9.642 9.642 0 0 1 4.476 3.044l5.656 6.844z"/>
            <path stroke="#1D1D1B" stroke-linecap="round" stroke-linejoin="round" stroke-width=".8" d="M141.068 63.379c-.104 1.092-.744 2.352-2.028 3.68l-3.492 3.812 1.288-2.628a3.298 3.298 0 0 0-.1-3.1c-1.828-3.184-4.284-5.568-5.968-6.972a2.02 2.02 0 0 0-2.804.22l2.336-4.176a2.33 2.33 0 0 1 .636-.724 9.642 9.642 0 0 1 4.476 3.044l5.656 6.844z"/>
            <path fill="#FFF" d="M90 126.13l37.712-67.388a2.02 2.02 0 0 1 3.054-.571c1.684 1.405 4.142 3.79 5.97 6.97.546.953.584 2.117.1 3.103l-28.391 57.887"/>
            <path stroke="#1D1D1B" stroke-linecap="round" stroke-linejoin="round" stroke-width=".8" d="M90 126.13l37.712-67.388a2.02 2.02 0 0 1 3.054-.571c1.684 1.405 4.142 3.79 5.97 6.97.546.953.584 2.117.1 3.103l-28.391 57.887M199.86 12.603h-1.833l-3.02 7.335h1.726z"/>
            <path stroke="#1D1D1B" stroke-linecap="round" stroke-linejoin="round" stroke-width=".8" d="M195.007 19.938l14.885 18.984h5.717l-18.877-18.984zM199.86 12.603l17.583 18.121-1.834 8.198-18.876-18.984zM224.777 112.71c8.472 13.97 8.108 21.75-.666 23.701-7.846 1.745-15.298-12.164-15.298-26.18 0-14.017 4.36-23.293 7.066-24.914 1.749-1.049 1.032 14.42 8.898 27.394z"/>
            <path stroke="#1D1D1B" stroke-linecap="round" stroke-linejoin="round" stroke-width=".8" d="M229.63 92.393c5.594 9.56 3.255 22.762-5.519 24.712-7.846 1.745-20.249-17.438-20.249-31.455 0-14.016 14.163-19.029 16.87-20.65 1.749-1.049 1.237 14.298 8.899 27.393z"/>
            <path stroke="#1D1D1B" stroke-linecap="round" stroke-linejoin="round" stroke-width=".8" d="M228.192 101.31c10.662 13.934 11.794 25.553 0 21.976-7.692-2.333-24.934-23.957-22.83-36.01 2.41-13.808 8.044-8.402 10.537-10.336 1.611-1.25 3.073 12.32 12.293 24.37z"/>
            <path fill="#FFF" d="M213.064 45.415c-.609 1.504 1.716 3.968 5.664 6.356a43.719 43.719 0 0 0 4.72 2.456 49.459 49.459 0 0 0 2.98 1.228l-.384 1.716-.136.608c-.14-.064-.28-.124-.42-.184-.496-.216-1-.432-1.516-.64-7.66-3.084-14.596-3.784-15.492-1.564-.768 1.908 3.168 5.348 9.148 8.236l.004.004c.984.472 2.02.932 3.1 1.368.956.388 1.904.736 2.828 1.04.152.052.304.104.456.152l-.272 1.204-.664-.86-3.425 3.144c-8.116-2.148-15.063-2.024-15.74.356-.52 1.828 2.817 4.476 8.04 6.716a51.501 51.501 0 0 0 5.797 2.056l.336.096c.984.28 1.956.528 2.904.744l-1.068 4.74c-9.224 8.252-45.952 10.356-61.485 10.68-15.531.32-19.151-6.48-19.151-6.48l21.416-45.62s31.068-7.768 50.808-4.856l14.064 6.088 3.084 1.336-.308 1.364a48.19 48.19 0 0 0-4.008-1.4c-5.844-1.764-10.552-1.888-11.28-.084"/>
            <path stroke="#1D1D1B" stroke-linecap="round" stroke-linejoin="round" stroke-width=".8" d="M213.064 45.415c-.609 1.504 1.716 3.968 5.664 6.356a43.719 43.719 0 0 0 4.72 2.456 49.459 49.459 0 0 0 2.98 1.228l-.384 1.716-.136.608c-.14-.064-.28-.124-.42-.184-.496-.216-1-.432-1.516-.64-7.66-3.084-14.596-3.784-15.492-1.564-.768 1.908 3.168 5.348 9.148 8.236l.004.004c.984.472 2.02.932 3.1 1.368.956.388 1.904.736 2.828 1.04.152.052.304.104.456.152l-.272 1.204-.664-.86-3.425 3.144c-8.116-2.148-15.063-2.024-15.74.356-.52 1.828 2.817 4.476 8.04 6.716a51.501 51.501 0 0 0 5.797 2.056l.336.096c.984.28 1.956.528 2.904.744l-1.068 4.74c-9.224 8.252-45.952 10.356-61.485 10.68-15.531.32-19.151-6.48-19.151-6.48l21.416-45.62s31.068-7.768 50.808-4.856l14.064 6.088 3.084 1.336-.308 1.364a48.19 48.19 0 0 0-4.008-1.4c-5.844-1.764-10.552-1.888-11.28-.084z"/>
            <path fill="#FFF" d="M223.744 67.395l-.74 3.284a55.206 55.206 0 0 0-3.349-1l3.425-3.144.664.86z"/>
            <path stroke="#1D1D1B" stroke-linecap="round" stroke-linejoin="round" stroke-width=".8" d="M223.744 67.395l-.74 3.284a55.206 55.206 0 0 0-3.349-1l3.425-3.144.664.86z"/>
            <path stroke="#1D1D1B" stroke-linecap="round" stroke-linejoin="round" stroke-width=".8" d="M140.056 86.95l53.17-2.791c7.366-.387 14.748-.39 22.115-.009l4.583.237 8.736-38.852M211.51 38.113s-2.697 11.103-5.42 20.07"/>
            <path stroke="#1D1D1B" stroke-linecap="round" stroke-linejoin="round" stroke-width=".8" d="M222.544 72.735l-1.552 6.912a56.562 56.562 0 0 1-2.905-.744c-4.28-1.216-8.011-2.82-10.575-4.432.064.012.123.024.188.032 6.235.972 11.884.188 14.844-1.768z"/>
            <path fill="#FFF" d="M223.004 70.679l-.46 2.056c-2.96 1.956-8.608 2.74-14.844 1.768-.064-.008-.124-.02-.188-.032-2.548-1.6-3.948-3.204-3.596-4.436.704-2.476 8.188-2.512 16.72-.088.812.232 1.604.476 2.368.732"/>
            <path stroke="#1D1D1B" stroke-linecap="round" stroke-linejoin="round" stroke-width=".8" d="M223.004 70.679l-.46 2.056c-2.96 1.956-8.608 2.74-14.844 1.768-.064-.008-.124-.02-.188-.032-2.548-1.6-3.948-3.204-3.596-4.436.704-2.476 8.188-2.512 16.72-.088.812.232 1.604.476 2.368.732zM225.816 58.183l-1.8 8.008A47.786 47.786 0 0 1 220.732 65c-3.948-1.592-7.324-3.508-9.54-5.296l.14.024c5.992.932 11.444.244 14.484-1.544z"/>
            <path fill="#FFF" d="M225.908 57.779l-.092.404c-3.04 1.788-8.492 2.476-14.484 1.544l-.14-.024c-2.084-1.672-3.144-3.236-2.712-4.312.896-2.22 7.832-1.52 15.492 1.564.663.268 1.308.544 1.936.824"/>
            <path stroke="#1D1D1B" stroke-linecap="round" stroke-linejoin="round" stroke-width=".8" d="M225.908 57.779l-.092.404c-3.04 1.788-8.492 2.476-14.484 1.544l-.14-.024c-2.084-1.672-3.144-3.236-2.712-4.312.896-2.22 7.832-1.52 15.492 1.564.663.268 1.308.544 1.936.824zM228.192 47.603l-.928 4.136-.836 3.716c-.368-.136-.74-.28-1.112-.432-5.512-2.22-9.9-5.072-11.592-7.324.752.168 1.52.312 2.308.436 2.516.392 4.932.496 7.12.356h.003c1.88-.12 3.589-.424 5.037-.888z"/>
            <path fill="#FFF" d="M228.352 46.9l-.16.703c-1.448.464-3.156.768-5.036.888h-.004c-2.188.14-4.604.036-7.12-.356a37.126 37.126 0 0 1-2.308-.436c-.66-.876-.912-1.66-.66-2.284a.503.503 0 0 1 .032-.064c.992-2.124 7.752-1.436 15.256 1.548"/>
            <path stroke="#212121" stroke-linecap="round" stroke-linejoin="round" stroke-width=".8" d="M228.352 46.9l-.16.703c-1.448.464-3.156.768-5.036.888h-.004c-2.188.14-4.604.036-7.12-.356a37.126 37.126 0 0 1-2.308-.436c-.66-.876-.912-1.66-.66-2.284a.503.503 0 0 1 .032-.064c.992-2.124 7.752-1.436 15.256 1.548z"/>
            <path fill="#FFF" d="M219.656 84.373c1.413.077-1.656 1.496-2.937 2.138-12.303 6.169-44.294 8.268-57.263 8.556-8.122.179-16.79-3.336-17.159-3.583-3.01-2.014-3.058-4.215-2.028-4.534l7.336-.263c.1-.031.205-.05.31-.056l44.215-2.472c6.922-.388 11.8-.391 18.717-.007l8.809.221z"/>
            <path stroke="#1D1D1B" stroke-linecap="round" stroke-linejoin="round" stroke-width=".8" d="M219.656 84.373c1.413.077-1.656 1.496-2.937 2.138-12.303 6.169-44.294 8.268-57.263 8.556-8.122.179-16.79-3.336-17.159-3.583-3.01-2.014-3.058-4.215-2.028-4.534l7.336-.263c.1-.031.205-.05.31-.056l44.215-2.472c6.922-.388 11.8-.391 18.717-.007l8.809.221z"/>
            <path fill="#FFF" d="M235.224 54.26L223.56 66.04a44.702 44.702 0 0 1-2.828-1.04 53.413 53.413 0 0 1-3.1-1.369l-.004-.004 7.86-6.032.556-.424 7.564-5.804c-.088.228-.132.48-.132.74 0 1.06.748 1.944 1.748 2.152"/>
            <path stroke="#1D1D1B" stroke-linecap="round" stroke-linejoin="round" stroke-width=".8" d="M235.224 54.26L223.56 66.04a44.702 44.702 0 0 1-2.828-1.04 53.413 53.413 0 0 1-3.1-1.369l-.004-.004 7.86-6.032.556-.424 7.564-5.804c-.088.228-.132.48-.132.74 0 1.06.748 1.944 1.748 2.152z"/>
            <path fill="#FFF" d="M237.868 52.107a2.198 2.198 0 0 1-2.644 2.152 2.197 2.197 0 0 1-1.748-2.152c0-.26.044-.512.132-.74a2.19 2.19 0 0 1 2.064-1.456c1.212 0 2.196.984 2.196 2.196"/>
            <path stroke="#1D1D1B" stroke-linecap="round" stroke-linejoin="round" stroke-width=".8" d="M237.868 52.107a2.198 2.198 0 0 1-2.644 2.152 2.197 2.197 0 0 1-1.748-2.152c0-.26.044-.512.132-.74a2.19 2.19 0 0 1 2.064-1.456c1.212 0 2.196.984 2.196 2.196z"/>
            <path fill="#FFF" d="M241.117 35.013l-1.824-1.824a1.058 1.058 0 0 1 0-1.492l.338-.338c.41-.41 1.082-.41 1.493 0l1.823 1.824c.41.41.41 1.082 0 1.492l-.338.338a1.06 1.06 0 0 1-1.492 0"/>
            <path stroke="#1D1D1B" stroke-linecap="round" stroke-linejoin="round" stroke-width=".8" d="M241.117 35.013l-1.824-1.824a1.058 1.058 0 0 1 0-1.492l.338-.338c.41-.41 1.082-.41 1.493 0l1.823 1.824c.41.41.41 1.082 0 1.492l-.338.338a1.06 1.06 0 0 1-1.492 0z"/>
            <path fill="#FFF" d="M241.752 31.987c-.044.044-.096.092-.148.14a47.904 47.904 0 0 0-1.728 1.644c-2.904 2.9-3.888 4.728-4.184 5.788-.332 1.18-.96 2.256-1.784 3.164l-10.46 11.504a43.79 43.79 0 0 1-4.72-2.456c1.232-1.504 3.26-3.764 5.616-6.272.4-.428.812-.86 1.232-1.3 5.388-5.648 11.992-12.056 14.924-13.844.48-.292 1.12-.272 1.528.112.324.304.452.792-.276 1.52"/>
            <path stroke="#1D1D1B" stroke-linecap="round" stroke-linejoin="round" stroke-width=".8" d="M241.752 31.987c-.044.044-.096.092-.148.14a47.904 47.904 0 0 0-1.728 1.644c-2.904 2.9-3.888 4.728-4.184 5.788-.332 1.18-.96 2.256-1.784 3.164l-10.46 11.504a43.79 43.79 0 0 1-4.72-2.456c1.232-1.504 3.26-3.764 5.616-6.272.4-.428.812-.86 1.232-1.3 5.388-5.648 11.992-12.056 14.924-13.844.48-.292 1.12-.272 1.528.112.324.304.452.792-.276 1.52z"/>
            <path fill="#FFF" d="M226.256 70.651l-8.504 8.156a51.572 51.572 0 0 1-5.796-2.056l7.7-7.072 3.424-3.144.664.86 2.512 3.256z"/>
            <path stroke="#1D1D1B" stroke-linecap="round" stroke-linejoin="round" stroke-width=".8" d="M226.256 70.651l-8.504 8.156a51.572 51.572 0 0 1-5.796-2.056l7.7-7.072 3.424-3.144.664.86 2.512 3.256z"/>
            <path fill="#FFF" d="M226.792 66.689c.925 1.434.476 3.371-1.005 4.327-1.48.956-3.43.568-4.356-.866-.926-1.435-.476-3.372 1.004-4.328 1.48-.955 3.431-.567 4.357.867"/>
            <path stroke="#1D1D1B" stroke-linecap="round" stroke-linejoin="round" stroke-width=".8" d="M226.792 66.689c.925 1.434.476 3.371-1.005 4.327-1.48.956-3.43.568-4.356-.866-.926-1.435-.476-3.372 1.004-4.328 1.48-.955 3.431-.567 4.357.867z"/>
            <path fill="#FFF" d="M224.443 65.43c.708 1.096.515 2.479-.429 3.089-.944.61-2.283.215-2.99-.88-.708-1.097-.516-2.48.428-3.09.945-.609 2.283-.214 2.991.881"/>
            <path stroke="#1D1D1B" stroke-linecap="round" stroke-linejoin="round" stroke-width=".8" d="M224.443 65.43c.708 1.096.515 2.479-.429 3.089-.944.61-2.283.215-2.99-.88-.708-1.097-.516-2.48.428-3.09.945-.609 2.283-.214 2.991.881z"/>
            <path fill="#FFF" d="M224.063 64.841c.497.77.135 1.89-.81 2.5-.944.609-2.113.478-2.61-.292-.497-.77-.135-1.89.81-2.5.944-.609 2.112-.478 2.61.292"/>
            <path stroke="#1D1D1B" stroke-linecap="round" stroke-linejoin="round" stroke-width=".8" d="M224.063 64.841c.497.77.135 1.89-.81 2.5-.944.609-2.113.478-2.61-.292-.497-.77-.135-1.89.81-2.5.944-.609 2.112-.478 2.61.292z"/>
            <path fill="#FFF" d="M306 107.338s-.895 2.706-4.18 1.325"/>
            <path stroke="#1D1D1B" stroke-linecap="round" stroke-linejoin="round" stroke-width=".8" d="M306 107.338s-.895 2.706-4.18 1.325"/>
            <g>
                <path fill="#FFF" d="M393.047 160.027s-2.667 1.744-4.234 6.644"/>
                <path stroke="#1D1D1B" stroke-linecap="round" stroke-linejoin="round" stroke-width=".8" d="M393.047 160.027s-2.667 1.744-4.234 6.644"/>
            </g>
            <path stroke="#1D1D1B" stroke-linecap="round" stroke-linejoin="round" stroke-width=".8" d="M155.983 53.023L144.935 42.05s-3.029-1.284-5.648 3.485M146.906 59.234l3.874 3.737M145.795 61.578l4.278 4.033M379.07 121.502s7.462-18.072 20.976-28.753M394.572 88.93l-8.003 18.409M230.382 227.268l-1.751 11.82c-.257 1.727.634 3.448 2.226 4.168l.06.026c2.018.89 134.517 2.49 134.517 2.49s2.133-.89 2.373-2.312c.24-1.422-1.088-18.793-1.088-18.793"/>
            <path fill="#1D1D1B" d="M344.42 226.427l7.116 8.792.002 4.44-8.884-10.635z"/>
            <path fill="#EEF1F5" stroke="#1D1D1B" stroke-linecap="round" stroke-linejoin="round" stroke-width=".8" d="M344.42 226.427l7.116 8.792.002 4.44-8.884-10.635z"/>
            <g stroke-linecap="round" stroke-linejoin="round">
                <path stroke="#1D1D1B" stroke-width=".8" d="M385.765 191.606l2.713 16.63c.779 4.772 3.96 8.875 8.479 10.599.196.075.396.147.6.217"/>
            </g>
            <g>
                <path fill="#FFF" d="M381.317 197.935s3.511 17.214 2.944 21.356"/>
                <path stroke="#1D1D1B" stroke-linecap="round" stroke-linejoin="round" stroke-width=".8" d="M381.317 197.935s3.511 17.214 2.944 21.356"/>
            </g>
            <path fill="#EEF1F5" d="M414.81 211.034c19.091-26.52 22.817-32.447 22.817-32.447 1.574-2.902 4.508-8.043 5.655-11.093.698-1.857-6.977-1.43-10.769-1.79-2.16-.204-2.494.008-2.725 1.37a23.892 23.892 0 0 1-2.553 7.386s-4.315 7.735-22.5 35.58c-1.195 1.832-6.16 8.131-10.913 7.045 1.254.757 3.27 2.232 6.552 3.146 6.873 1.914 12.24-6.147 14.435-9.197"/>
            <path stroke="#1D1D1B" stroke-linecap="round" stroke-linejoin="round" stroke-width=".8" d="M414.81 211.034c19.091-26.52 22.817-32.447 22.817-32.447 1.574-2.902 4.508-8.043 5.655-11.093.698-1.857-6.977-1.43-10.769-1.79-2.16-.204-2.494.008-2.725 1.37a23.892 23.892 0 0 1-2.553 7.386s-4.315 7.735-22.5 35.58c-1.195 1.832-6.16 8.131-10.913 7.045 1.254.757 3.27 2.232 6.552 3.146 6.873 1.914 12.24-6.147 14.435-9.197z"/>
            <path fill="#1D1D1B" d="M384.17 218.806c-4.896.414-10.912.515-18.586.703l-19.539.81c-1.825 0 .54.05 1.297 1.712.008.016-.018 2.521 0 2.521 2.838.104 5.834 0 6.805 0h17.425c3.004-.076 5.698-.126 8.125-.167 2.89-.048 5.069-2.703 4.483-5.533l-.01-.046z"/>
            <path fill="#EEF1F5" stroke="#1D1D1B" stroke-linecap="round" stroke-linejoin="round" stroke-width=".8" d="M384.17 218.806c-4.896.414-10.912.515-18.586.703l-19.539.81c-1.825 0 .54.05 1.297 1.712.008.016-.018 2.521 0 2.521 2.838.104 5.834 0 6.805 0h17.425c3.004-.076 5.698-.126 8.125-.167 2.89-.048 5.069-2.703 4.483-5.533l-.01-.046z"/>
            <path fill="#EEF1F5" stroke="#200000" stroke-width=".8" d="M388.674 209.437c-2.514 3.114-5.027 3.067-5.027 3.067l-2.33-14.569s1.933-3.216 4.448-6.33l2.91 17.832z"/>
        </g>
    </g>
</svg>
