<?xml version="1.0" encoding="UTF-8"?> <svg xmlns="http://www.w3.org/2000/svg" xmlns:xlink="http://www.w3.org/1999/xlink" width="675.691" height="381.533" viewBox="0 0 675.691 381.533"><defs><clipPath id="clip-path"><rect id="Rectangle_5205" data-name="Rectangle 5205" width="69.482" height="53.601" transform="translate(75.506 252.571) rotate(-51.071)" fill="#fff"></rect></clipPath><clipPath id="clip-path-2"><path id="Path_24530" data-name="Path 24530" d="M123.848,186.124c.382-.793,2.157-.725,3.989.157l.341.164c1.833.883,2.9,2.182,2.519,2.975l-27.248,56.617L96.6,242.742Z" fill="#df596a" clip-rule="evenodd"></path></clipPath><clipPath id="clip-path-3"><path id="Path_24532" data-name="Path 24532" d="M96.6,242.742l6.848,3.3-7.934,8.457Z" fill="#eaeaf2" clip-rule="evenodd"></path></clipPath></defs><g id="graphic_design_companies_websites" data-name="graphic design companies websites" transform="translate(-1035.128 -1359.791)"><g id="Group_4774" data-name="Group 4774" transform="translate(793 -456)"><path id="Path_25549" data-name="Path 25549" d="M670.131,235.742H549.711q1.694,0,3.345-.162c-16.287-1.57-28.99-14.472-28.99-30.157h0c0-15.685,12.7-28.589,28.99-30.158q-1.65-.158-3.345-.16c17.858,0,32.335-13.575,32.335-30.32h0c0-16.744-14.477-30.319-32.335-30.319H134.93c-17.858,0-32.335,13.575-32.335,30.319h0c0,16.745,14.477,30.32,32.335,30.32h-8.251c17.858,0,32.335,13.574,32.335,30.319h0c0,16.745-14.477,30.319-32.335,30.319H91.817c-26.89,0-48.689,20.439-48.689,45.653h0c0,25.214,21.8,45.654,48.689,45.654h34.865c17.857,0,32.332,13.575,32.332,30.319h0c0,16.745-14.477,30.319-32.335,30.319h8.251c-17.858,0-32.335,13.574-32.335,30.319h0c0,16.745,14.477,30.319,32.335,30.319H549.711c17.858,0,32.335-13.574,32.335-30.319h0c0-16.745-14.477-30.319-32.335-30.319q1.694,0,3.345-.162c-16.287-1.57-28.99-14.472-28.99-30.157h0c0-15.687,12.7-28.589,28.99-30.158q-1.649-.158-3.342-.16H670.131c26.89,0,48.688-20.439,48.688-45.654h0C718.819,256.181,697.021,235.742,670.131,235.742Z" transform="translate(199 1749)" fill="#ecf3ff"></path><path id="Path_25550" data-name="Path 25550" d="M53.086,144.471s11.078-26.116,19.022-26.112,11.466,7.176,15.516,5.942,12.194-35.977,24.527-34.7,10.5,30.453,22.769,32.714,19.482-17.642,33.174-14.3,16.588,28.353,20.171,34.537,9.269,10.514,1.819,10.542S36.174,152.841,53.086,144.471Z" transform="translate(199 1749)" fill="#4c9bf1"></path><path id="Path_25551" data-name="Path 25551" d="M491.591,120.4s12.016-8.643,23.366-32.213,24.3-22.111,28.689-20.752S554.621,84.422,560.173,98.5s12.559,8.509,16.594-3.924,12.9-4.5,14.123.406,3.325,13.956,11.673,11.066,11.215-.871,12.083,3.644,5.941,7.028,24.1,8.4,25.939,8.875,13.158,11.148S450.466,130.42,491.591,120.4Z" transform="translate(199 1749)" fill="#4c9bf1"></path></g><g id="OBJECTS" transform="translate(1107 1330)"><g id="Group_4414" data-name="Group 4414"><g id="palette"><path id="Path_24519" data-name="Path 24519" d="M185.772,161.2c6.471-19.55.478-40.543-15.136-54.474C158.825,96.189,145.2,90.911,129.7,93.377c-26.176,4.165-46.666,17.231-59.645,41.01a54.006,54.006,0,0,0-6.868,27.269c.225,11.038,4.9,19.525,14.532,25.068,1.514.871,3.129,1.559,4.812,2.388a20.781,20.781,0,0,0,7.181,1.137c8.288-.068,14.9-3.674,20.364-9.6,3.786-4.1,7.3-8.462,11.072-12.58,4.248-4.64,10.827-5.191,15.445-1.238,4.065,3.482,5.157,8.069,4.343,13.226a31.658,31.658,0,0,0-.573,5.971c.23,6.536,4.605,10.572,11.018,10.258a23.388,23.388,0,0,0,13.805-5.2A63.239,63.239,0,0,0,185.772,161.2Zm-103.76,12.54c-2.535-3.88.86-10.637,7.581-15.094s14.225-4.925,16.759-1.045-.859,10.637-7.581,15.094S84.547,177.622,82.012,173.742Z" fill="#c2dfff" fill-rule="evenodd"></path><path id="Path_24520" data-name="Path 24520" d="M166.752,176.807a7.536,7.536,0,0,1-10.53,2.533,7.965,7.965,0,0,1-2.7-10.747,7.535,7.535,0,0,1,10.529-2.534A7.965,7.965,0,0,1,166.752,176.807Z" fill="#df596a"></path><path id="Path_24521" data-name="Path 24521" d="M175.71,148.766a7.536,7.536,0,0,1-10.529,2.534,7.966,7.966,0,0,1-2.7-10.748,7.535,7.535,0,0,1,10.529-2.533A7.963,7.963,0,0,1,175.71,148.766Z" fill="#b4592f"></path><path id="Path_24522" data-name="Path 24522" d="M160.9,120.424a7.535,7.535,0,0,1-10.529,2.534,7.964,7.964,0,0,1-2.7-10.747,7.535,7.535,0,0,1,10.529-2.534A7.965,7.965,0,0,1,160.9,120.424Z" fill="#67596c"></path><path id="Path_24523" data-name="Path 24523" d="M102.835,136.89a7.537,7.537,0,0,1-10.53,2.534,7.966,7.966,0,0,1-2.7-10.748,7.535,7.535,0,0,1,10.529-2.533A7.964,7.964,0,0,1,102.835,136.89Z" fill="#5193f4" stroke="#5092f4" stroke-width="1"></path><path id="Path_24524" data-name="Path 24524" d="M129.479,118.355a7.536,7.536,0,0,1-10.529,2.534,7.965,7.965,0,0,1-2.7-10.748,7.536,7.536,0,0,1,10.529-2.533A7.964,7.964,0,0,1,129.479,118.355Z" fill="#b7b1e0"></path></g><g id="tablet"><path id="Rectangle_5203" data-name="Rectangle 5203" d="M3.97,0H95.29a3.97,3.97,0,0,1,3.97,3.97V61.541a3.97,3.97,0,0,1-3.97,3.97H3.971A3.971,3.971,0,0,1,0,61.541V3.97A3.97,3.97,0,0,1,3.97,0Z" transform="translate(57.152 265.816) rotate(-51.071)" fill="#b1bce0"></path><g id="Group_4315" data-name="Group 4315"><rect id="Rectangle_5204" data-name="Rectangle 5204" width="69.482" height="53.601" transform="translate(75.506 252.571) rotate(-51.071)" fill="#fff"></rect><g id="Group_4314" data-name="Group 4314" clip-path="url(#clip-path)"><path id="Path_24525" data-name="Path 24525" d="M117.207,287.763l1.747-90.224,43.409,34.848Z" fill="#dedae0" fill-rule="evenodd" opacity="0.5"></path></g></g><g id="buttons"><rect id="Rectangle_5206" data-name="Rectangle 5206" width="11.911" height="5.955" transform="translate(102.592 294.864) rotate(-51.071)" fill="#fff"></rect><rect id="Rectangle_5207" data-name="Rectangle 5207" width="11.911" height="5.955" transform="translate(94.87 288.627) rotate(-51.071)" fill="#fff"></rect><rect id="Rectangle_5208" data-name="Rectangle 5208" width="11.911" height="5.956" transform="translate(74.793 272.41) rotate(-51.071)" fill="#fff"></rect><rect id="Rectangle_5209" data-name="Rectangle 5209" width="11.911" height="5.956" transform="translate(67.072 266.173) rotate(-51.071)" fill="#fff"></rect><path id="Path_24526" data-name="Path 24526" d="M91.26,286.067a7.384,7.384,0,0,1-4.651-1.643h0a7.421,7.421,0,1,1,4.651,1.643Zm-3.4-3.187a5.428,5.428,0,1,0-.813-7.633,5.433,5.433,0,0,0,.813,7.633Z" fill="#fff"></path></g></g><g id="Group_4323" data-name="Group 4323"><g id="Group_4322" data-name="Group 4322"><g id="Group_4317" data-name="Group 4317"><rect id="Rectangle_5210" data-name="Rectangle 5210" width="124.388" height="29.014" transform="matrix(0.627, -0.779, 0.779, 0.627, 339.968, 281.241)" fill="#eaeaf2"></rect><g id="Group_4316" data-name="Group 4316"><rect id="Rectangle_5211" data-name="Rectangle 5211" width="25.705" height="25.7" transform="matrix(0.627, -0.779, 0.779, 0.627, 367.591, 249.559)" fill="#df596a"></rect><rect id="Rectangle_5212" data-name="Rectangle 5212" width="25.702" height="25.703" transform="matrix(0.627, -0.779, 0.779, 0.627, 384.779, 228.177)" fill="#5193f4"></rect><rect id="Rectangle_5213" data-name="Rectangle 5213" width="25.704" height="25.702" transform="matrix(0.627, -0.779, 0.779, 0.627, 401.967, 206.806)" fill="#383948"></rect></g></g><g id="Group_4319" data-name="Group 4319"><rect id="Rectangle_5214" data-name="Rectangle 5214" width="124.391" height="29.009" transform="translate(341.737 277.472) rotate(-35.335)" fill="#eaeaf2"></rect><g id="Group_4318" data-name="Group 4318"><rect id="Rectangle_5215" data-name="Rectangle 5215" width="25.703" height="25.703" transform="matrix(0.816, -0.578, 0.578, 0.816, 376.963, 254.522)" fill="#d6d3ed"></rect><rect id="Rectangle_5216" data-name="Rectangle 5216" width="25.702" height="25.705" transform="matrix(0.816, -0.578, 0.578, 0.816, 399.339, 238.662)" fill="#b7b1e0"></rect><rect id="Rectangle_5217" data-name="Rectangle 5217" width="25.702" height="25.704" transform="matrix(0.816, -0.578, 0.578, 0.816, 421.718, 222.796)" fill="#4c9bf1"></rect></g></g><g id="Group_4321" data-name="Group 4321"><rect id="Rectangle_5218" data-name="Rectangle 5218" width="124.388" height="29.011" transform="matrix(0.947, -0.321, 0.321, 0.947, 344.22, 273.222)" fill="#eaeaf2"></rect><g id="Group_4320" data-name="Group 4320"><rect id="Rectangle_5219" data-name="Rectangle 5219" width="25.704" height="25.705" transform="matrix(0.947, -0.321, 0.321, 0.947, 384.528, 261.282)" fill="#a19fb8"></rect><rect id="Rectangle_5220" data-name="Rectangle 5220" width="25.704" height="25.699" transform="translate(410.505 252.477) rotate(-18.747)" fill="#47485c"></rect><rect id="Rectangle_5221" data-name="Rectangle 5221" width="25.703" height="25.699" transform="translate(436.482 243.66) rotate(-18.739)" fill="#383948"></rect></g></g></g><path id="Path_24527" data-name="Path 24527" d="M357.5,281.479a2.542,2.542,0,1,1-3.531.667A2.538,2.538,0,0,1,357.5,281.479Z" fill="#515155" fill-rule="evenodd"></path><path id="Path_24528" data-name="Path 24528" d="M356.688,282.672a1.046,1.046,0,0,1,.277,1.459l-12.349,18.048a1.056,1.056,0,0,1-1.744-1.191l12.351-18.048A1.057,1.057,0,0,1,356.688,282.672Z" fill="#b7b8b9" fill-rule="evenodd"></path></g><g id="pen"><g id="Group_4325" data-name="Group 4325"><path id="Path_24529" data-name="Path 24529" d="M123.848,186.124c.382-.793,2.157-.725,3.989.157l.341.164c1.833.883,2.9,2.182,2.519,2.975l-27.248,56.617L96.6,242.742Z" fill="#627fcc" fill-rule="evenodd"></path><g id="Group_4324" data-name="Group 4324" clip-path="url(#clip-path-2)"><rect id="Rectangle_5222" data-name="Rectangle 5222" width="15.083" height="22.457" transform="translate(111.061 191.22) rotate(-64.3)" fill="#eaeaf2"></rect></g></g><g id="Group_4327" data-name="Group 4327"><path id="Path_24531" data-name="Path 24531" d="M96.6,242.742l6.848,3.3-7.934,8.457Z" fill="#eaeaf2" fill-rule="evenodd"></path><g id="Group_4326" data-name="Group 4326" clip-path="url(#clip-path-3)"><rect id="Rectangle_5223" data-name="Rectangle 5223" width="5.363" height="7.744" transform="translate(91.226 253.865) rotate(-64.299)" fill="#b7b1e0"></rect></g></g></g><g id="Group_4335" data-name="Group 4335"><path id="Path_24533" data-name="Path 24533" d="M412.854,188.581a24.025,24.025,0,0,1,7.266-2.29c3.276-.3,6.525.751,9.546,2.056,1.831.791,3.941,2.3,3.486,4.239a3.831,3.831,0,0,1-1.326,1.888c-4.175,3.682-10.151,4.21-15.656,5.038-3.782.569-7.606,1.362-11.4.865a8,8,0,0,1-3.6-1.227,3.932,3.932,0,0,1-1.779-3.224c.106-2.888,3.7-4.36,6.059-4.926A41.887,41.887,0,0,0,412.854,188.581Z" fill="#5193f4"></path><path id="Path_24534" data-name="Path 24534" d="M380.894,196.131c2.432-2.971,4.43-15.975,6.478-19.223a25.374,25.374,0,0,1,16-11.145c7.867-1.666,16.153.507,24.039-1.062,3.625-.721,7.07-2.217,10.718-2.81s7.782-.093,10.336,2.578c3.681,3.848,2.275,10.631-1.634,14.246s-9.453,4.784-14.74,5.416-10.766.912-15.557,3.236c-7.759,3.763-12.367,12.221-20.019,16.2-2.937,1.526-11.233-5.237-14.488-4.636-3.7.682-8.557,1.545-12.2.635-5.116-1.277-5.778,4.99-1.55-.563C371.127,195.252,377.4,200.4,380.894,196.131Z" fill="#5193f4"></path><g id="Group_4328" data-name="Group 4328"><path id="Path_24535" data-name="Path 24535" d="M376.844,197.915l-.013-.38a37.557,37.557,0,0,0,24.206-10.121c.722-.683,1.435-1.413,2.124-2.118a27.09,27.09,0,0,1,6.439-5.354c3.713-1.958,8.03-2.064,12.206-2.167,1.093-.027,2.222-.055,3.317-.116,8.423-.47,15.435-3.337,19.743-8.074l.282.256c-4.376,4.811-11.48,7.723-20,8.2-1.1.062-2.233.09-3.329.117-4.132.1-8.4.207-12.036,2.123a26.764,26.764,0,0,0-6.346,5.284c-.691.707-1.407,1.439-2.135,2.128A37.943,37.943,0,0,1,376.844,197.915Z" fill="#96414c"></path></g><g id="Group_4329" data-name="Group 4329"><path id="Path_24536" data-name="Path 24536" d="M427.062,177.493a46.587,46.587,0,0,0,5.347-8.429l.342.167a46.993,46.993,0,0,1-5.388,8.5Z" fill="#96414c"></path></g><g id="Group_4330" data-name="Group 4330"><path id="Path_24537" data-name="Path 24537" d="M406.319,182.713l.127-.359c1.077.383,2.4.832,3.723,1.28s2.65.9,3.728,1.283l-.127.359c-1.076-.383-2.4-.832-3.723-1.281S407.4,183.1,406.319,182.713Z" fill="#96414c"></path></g><g id="Group_4331" data-name="Group 4331"><path id="Path_24538" data-name="Path 24538" d="M391.263,193.978c1.449-1.424,1.513-3.65,1.575-5.8l.018-.582a30.571,30.571,0,0,1,1.808-9.368l.358.13a30.18,30.18,0,0,0-1.786,9.251l-.018.58c-.06,2.123-.13,4.531-1.689,6.063Z" fill="#96414c"></path></g><g id="Group_4332" data-name="Group 4332"><path id="Path_24539" data-name="Path 24539" d="M417.132,178a65.369,65.369,0,0,1,5.1-7.11l.294.242a65.111,65.111,0,0,0-5.069,7.069Z" fill="#96414c"></path></g><g id="Group_4333" data-name="Group 4333"><rect id="Rectangle_5224" data-name="Rectangle 5224" width="0.381" height="6.827" transform="translate(435.058 176.071) rotate(-76.119)" fill="#96414c"></rect></g><g id="Group_4334" data-name="Group 4334"><path id="Path_24540" data-name="Path 24540" d="M398.72,189.961l.066-.375a60.781,60.781,0,0,1,6.664,1.573l-.108.365A60.3,60.3,0,0,0,398.72,189.961Z" fill="#96414c"></path></g></g><g id="Group_4343" data-name="Group 4343"><path id="Path_24541" data-name="Path 24541" d="M95.729,178.43a24.037,24.037,0,0,1-7.064-2.853c-2.721-1.85-4.558-4.729-6.06-7.657-.91-1.775-1.581-4.279.006-5.488a3.827,3.827,0,0,1,2.224-.615c5.563-.186,10.511,3.206,15.286,6.068,3.281,1.966,6.736,3.786,9.347,6.581a7.993,7.993,0,0,1,2,3.235,3.935,3.935,0,0,1-.677,3.62c-1.919,2.162-5.629,1.011-7.809-.052A41.99,41.99,0,0,0,95.729,178.43Z" fill="#5193f4"></path><path id="Path_24542" data-name="Path 24542" d="M125.2,192.927c-3.767.746-13.578,9.512-17.224,10.716a25.369,25.369,0,0,1-19.435-1.573c-7.131-3.716-12.144-10.663-19.228-14.468-3.256-1.748-6.867-2.784-10.059-4.646s-6.065-4.877-6.338-8.562c-.393-5.31,5.005-9.652,10.321-9.956s10.337,2.319,14.819,5.193,8.89,6.142,14.065,7.4c8.381,2.03,17.316-1.568,25.75.229,3.238.69,5.34,11.184,8.233,12.791,3.286,1.823,7.588,4.249,9.823,7.27,3.137,4.239,7.632-.176.839,1.421C132.174,199.816,130.606,191.855,125.2,192.927Z" fill="#5193f4"></path><g id="Group_4336" data-name="Group 4336"><path id="Path_24543" data-name="Path 24543" d="M129.456,194.125l-.232.3a37.556,37.556,0,0,0-25.117-7.582c-.992.068-2.005.178-2.986.284a27.031,27.031,0,0,1-8.374.037c-4.11-.85-7.51-3.513-10.8-6.089-.861-.674-1.75-1.371-2.634-2.02-6.8-4.993-14.034-7.239-20.371-6.323l-.055-.377c6.437-.93,13.771,1.34,20.651,6.393.889.653,1.781,1.351,2.644,2.027,3.253,2.549,6.618,5.185,10.639,6.016a26.783,26.783,0,0,0,8.258-.042c.983-.107,2-.217,3-.286A37.942,37.942,0,0,1,129.456,194.125Z" fill="#96414c"></path></g><g id="Group_4337" data-name="Group 4337"><path id="Path_24544" data-name="Path 24544" d="M77.713,177.952a46.651,46.651,0,0,0-9.487,3.106l-.157-.347a47.058,47.058,0,0,1,9.56-3.131Z" fill="#96414c"></path></g><g id="Group_4338" data-name="Group 4338"><path id="Path_24545" data-name="Path 24545" d="M97.041,187.114l-.327.2c-.587-.98-1.323-2.168-2.059-3.355s-1.473-2.379-2.061-3.361l.326-.2c.587.981,1.323,2.168,2.059,3.356S96.453,186.133,97.041,187.114Z" fill="#96414c"></path></g><g id="Group_4339" data-name="Group 4339"><path id="Path_24546" data-name="Path 24546" d="M115.825,187.994c-2.025.178-3.489,1.855-4.906,3.477l-.384.438a30.547,30.547,0,0,1-7.352,6.079l-.194-.327a30.206,30.206,0,0,0,7.261-6l.382-.436c1.4-1.6,2.982-3.414,5.16-3.606Z" fill="#96414c"></path></g><g id="Group_4340" data-name="Group 4340"><path id="Path_24547" data-name="Path 24547" d="M85.7,183.874a65.406,65.406,0,0,1-8.457,2.245l-.072-.374a64.884,64.884,0,0,0,8.407-2.232Z" fill="#96414c"></path></g><g id="Group_4341" data-name="Group 4341"><rect id="Rectangle_5225" data-name="Rectangle 5225" width="0.381" height="6.827" transform="matrix(0.802, -0.597, 0.597, 0.802, 66.258, 168.714)" fill="#96414c"></rect></g><g id="Group_4342" data-name="Group 4342"><path id="Path_24548" data-name="Path 24548" d="M107.515,186.353l-.289.247a60.672,60.672,0,0,1-4.144-5.451l.316-.213A60.375,60.375,0,0,0,107.515,186.353Z" fill="#96414c"></path></g></g><g id="Group_4351" data-name="Group 4351"><path id="Path_24549" data-name="Path 24549" d="M99.305,302.225A22.112,22.112,0,0,1,92.8,304.84a18.3,18.3,0,0,1-8.906-1.211c-1.736-.6-3.779-1.829-3.5-3.644a3.538,3.538,0,0,1,1.083-1.827c3.571-3.674,9.018-4.582,14.011-5.731,3.431-.789,6.885-1.787,10.4-1.6a7.372,7.372,0,0,1,3.389.871,3.624,3.624,0,0,1,1.861,2.834c.107,2.657-3.088,4.262-5.212,4.948A38.581,38.581,0,0,0,99.305,302.225Z" fill="#5193f4"></path><path id="Path_24550" data-name="Path 24550" d="M128.1,293.036c-2.022,2.9-2.936,14.974-4.586,18.1a23.349,23.349,0,0,1-13.895,11.359c-7.1,2.086-14.859.677-21.986,2.674-3.275.919-6.331,2.536-9.637,3.337s-7.135.636-9.668-1.634c-3.649-3.271-2.839-9.6.493-13.19s8.336-5.058,13.143-6.012,9.816-1.6,14.048-4.07c6.855-4,10.485-12.09,17.227-16.281,2.587-1.608,10.678,4.012,13.623,3.23,3.343-.887,7.744-2.023,11.154-1.446,4.786.81,4.951-4.987,1.463.408C137.126,293.152,131.006,288.872,128.1,293.036Z" fill="#5193f4"></path><g id="Group_4344" data-name="Group 4344"><path id="Path_24551" data-name="Path 24551" d="M131.691,291.112l.039.349a34.563,34.563,0,0,0-21.5,11c-.615.678-1.217,1.4-1.8,2.094a24.927,24.927,0,0,1-5.531,5.368c-3.269,2.06-7.224,2.462-11.048,2.852-1,.1-2.036.208-3.036.341-7.7,1.027-13.929,4.154-17.547,8.806l-.277-.215c3.675-4.725,9.989-7.9,17.777-8.938,1.007-.135,2.044-.24,3.047-.342,3.785-.386,7.7-.785,10.9-2.8a24.644,24.644,0,0,0,5.45-5.3c.584-.7,1.189-1.42,1.808-2.1A34.926,34.926,0,0,1,131.691,291.112Z" fill="#96414c"></path></g><g id="Group_4345" data-name="Group 4345"><path id="Path_24552" data-name="Path 24552" d="M87.05,313.4a42.887,42.887,0,0,0-4.311,8.114l-.325-.13a43.289,43.289,0,0,1,4.343-8.178Z" fill="#96414c"></path></g><g id="Group_4346" data-name="Group 4346"><path id="Path_24553" data-name="Path 24553" d="M105.717,307.148l-.092.338c-1.015-.275-2.261-.594-3.507-.912s-2.495-.637-3.512-.913l.092-.338c1.015.275,2.261.593,3.507.911S104.7,306.872,105.717,307.148Z" fill="#96414c"></path></g><g id="Group_4347" data-name="Group 4347"><path id="Path_24554" data-name="Path 24554" d="M118.737,295.745c-1.229,1.41-1.13,3.457-1.035,5.436l.025.535a28.151,28.151,0,0,1-1,8.725l-.338-.094a27.786,27.786,0,0,0,.985-8.616l-.025-.533c-.094-1.953-.2-4.167,1.122-5.684Z" fill="#96414c"></path></g><g id="Group_4348" data-name="Group 4348"><path id="Path_24555" data-name="Path 24555" d="M96.127,312.235a60.132,60.132,0,0,1-4.177,6.886l-.286-.2a59.881,59.881,0,0,0,4.151-6.846Z" fill="#96414c"></path></g><g id="Group_4349" data-name="Group 4349"><rect id="Rectangle_5226" data-name="Rectangle 5226" width="0.351" height="6.284" transform="matrix(0.165, -0.986, 0.986, 0.165, 73.557, 314.587)" fill="#96414c"></rect></g><g id="Group_4350" data-name="Group 4350"><path id="Path_24556" data-name="Path 24556" d="M112.178,299.958l-.034.349a55.9,55.9,0,0,1-6.227-.971l.073-.343A55.433,55.433,0,0,0,112.178,299.958Z" fill="#96414c"></path></g></g><g id="Group_4359" data-name="Group 4359"><path id="Path_24557" data-name="Path 24557" d="M196.392,120.823a24.026,24.026,0,0,1-1-7.553c.268-3.279,1.868-6.3,3.675-9.046,1.1-1.668,2.943-3.486,4.777-2.7a3.823,3.823,0,0,1,1.631,1.632c2.9,4.748,2.393,10.726,2.257,16.291-.094,3.823.026,7.727-1.119,11.377a8,8,0,0,1-1.831,3.332,3.932,3.932,0,0,1-3.483,1.2c-2.826-.6-3.654-4.4-3.8-6.819A41.939,41.939,0,0,0,196.392,120.823Z" fill="#5193f4"></path><path id="Path_24558" data-name="Path 24558" d="M198.3,153.607c-2.506-2.91-14.968-7.125-17.813-9.7a25.366,25.366,0,0,1-8.212-17.685c-.282-8.036,3.292-15.822,3.11-23.861-.084-3.695-.963-7.347-.916-11.042s1.253-7.681,4.325-9.736c4.427-2.959,10.865-.4,13.75,4.073s3.078,10.137,2.786,15.454-.962,10.762.5,15.882c2.365,8.293,9.9,14.293,12.494,22.518,1,3.156-7.1,10.158-7.07,13.468.032,3.758.043,8.7-1.484,12.13-2.142,4.819,3.915,6.554-.823,1.43C195.75,163.074,201.9,157.786,198.3,153.607Z" fill="#5193f4"></path><g id="Group_4352" data-name="Group 4352"><path id="Path_24559" data-name="Path 24559" d="M199.362,157.9l-.377-.053A37.561,37.561,0,0,0,193.2,132.26c-.549-.829-1.144-1.657-1.719-2.458a27.029,27.029,0,0,1-4.16-7.268c-1.287-3.995-.646-8.266-.025-12.4.162-1.081.33-2.2.459-3.287.993-8.378-.619-15.78-4.54-20.842l.3-.233c3.982,5.141,5.622,12.642,4.617,21.119-.13,1.1-.3,2.216-.461,3.3-.613,4.087-1.248,8.313.011,12.222a26.8,26.8,0,0,0,4.107,7.163c.577.8,1.175,1.635,1.727,2.47A37.944,37.944,0,0,1,199.362,157.9Z" fill="#96414c"></path></g><g id="Group_4353" data-name="Group 4353"><path id="Path_24560" data-name="Path 24560" d="M187.928,104.912a46.7,46.7,0,0,0-7.379-6.724l.224-.307a47,47,0,0,1,7.437,6.775Z" fill="#96414c"></path></g><g id="Group_4354" data-name="Group 4354"><path id="Path_24561" data-name="Path 24561" d="M189.483,126.245l-.331-.187c.563-.995,1.234-2.22,1.9-3.446s1.344-2.455,1.908-3.45l.331.187c-.563.994-1.234,2.22-1.9,3.446S190.048,125.249,189.483,126.245Z" fill="#96414c"></path></g><g id="Group_4355" data-name="Group 4355"><path id="Path_24562" data-name="Path 24562" d="M197.977,143.022c-1.153-1.674-3.334-2.121-5.443-2.555l-.57-.118a30.551,30.551,0,0,1-8.914-3.4l.189-.33a30.2,30.2,0,0,0,8.8,3.358l.568.118c2.081.426,4.44.911,5.681,2.711Z" fill="#96414c"></path></g><g id="Group_4356" data-name="Group 4356"><path id="Path_24563" data-name="Path 24563" d="M186.713,114.78a65.35,65.35,0,0,1-6.123-6.251l.29-.247a65.036,65.036,0,0,0,6.086,6.214Z" fill="#96414c"></path></g><g id="Group_4357" data-name="Group 4357"><rect id="Rectangle_5227" data-name="Rectangle 5227" width="6.827" height="0.381" transform="translate(187.56 96.637) rotate(-66.165)" fill="#96414c"></rect></g><g id="Group_4358" data-name="Group 4358"><path id="Path_24564" data-name="Path 24564" d="M195.309,134.983l-.358-.13a60.65,60.65,0,0,1,2.7-6.292l.341.169A60.2,60.2,0,0,0,195.309,134.983Z" fill="#96414c"></path></g></g><g id="Group_4360" data-name="Group 4360"><path id="Path_24565" data-name="Path 24565" d="M412.324,155.234l1.05-14.417a22.634,22.634,0,0,1,7.807-2.022,24.39,24.39,0,0,1,3.378-.005l-1.893,10.166A99.6,99.6,0,0,0,412.324,155.234Z" fill="#5f58a4"></path><path id="Path_24566" data-name="Path 24566" d="M425.473,138.877a11.633,11.633,0,0,1,7.7,3.557,9.063,9.063,0,0,1,.921,1.315,102.138,102.138,0,0,0-10.4,4.668Z" fill="#5f58a4"></path><path id="Path_24567" data-name="Path 24567" d="M423.082,149.769l9.926,5.579a16.2,16.2,0,0,1-2.462,2.95,22.922,22.922,0,0,1-8.246,4.778l-9.708-6.912A98.35,98.35,0,0,1,423.082,149.769Z" fill="#5f58a4"></path><path id="Path_24568" data-name="Path 24568" d="M434.523,144.564c1.455,3.212.75,6.9-1.035,10l-9.439-5.3A100.432,100.432,0,0,1,434.523,144.564Z" fill="#5f58a4"></path><path id="Path_24569" data-name="Path 24569" d="M396.4,169.863l-1.361-3.892,5.605-12.019c.183-.392.375-.779.573-1.164l1.646,10.147A77.92,77.92,0,0,0,396.4,169.863Z" fill="#5f58a4"></path><path id="Path_24570" data-name="Path 24570" d="M406.126,159.995q-1.284,1.092-2.464,2.185l-1.734-10.7a27.976,27.976,0,0,1,3.929-5.317,24.318,24.318,0,0,1,6.568-4.894l-1.067,14.645C409.6,157.179,407.841,158.537,406.126,159.995Z" fill="#5f58a4"></path><path id="Path_24571" data-name="Path 24571" d="M406.718,160.691c1.667-1.417,3.373-2.739,5.083-3.968l9.418,6.707a39.42,39.42,0,0,1-6.542,1.372,25.961,25.961,0,0,0-5.322,1.258l-5.244-3.048Q405.357,161.854,406.718,160.691Z" fill="#5f58a4"></path><path id="Path_24572" data-name="Path 24572" d="M399.267,172.205a37.118,37.118,0,0,0-7.873,10.224l-1.8-.84A64.606,64.606,0,0,1,396.4,171.3Z" fill="#5f58a4"></path><path id="Path_24573" data-name="Path 24573" d="M403.416,163.666l4.835,2.81a29.452,29.452,0,0,0-8.183,5.022l-3.048-.957A76.926,76.926,0,0,1,403.416,163.666Z" fill="#5f58a4"></path><path id="Path_24574" data-name="Path 24574" d="M388.762,181.2l-.682-.318,6.4-13.727,1.236,3.539A65.707,65.707,0,0,0,388.762,181.2Z" fill="#5f58a4"></path><path id="Path_24575" data-name="Path 24575" d="M396.4,169.863a77.92,77.92,0,0,1,6.463-6.928l-1.646-10.147c.227-.441.467-.875.715-1.3l1.734,10.7q1.182-1.092,2.464-2.185c1.715-1.458,3.472-2.816,5.232-4.078l1.067-14.645c.313-.16.63-.309.949-.455l-1.05,14.417a99.6,99.6,0,0,1,10.342-6.278l1.893-10.166q.456.033.914.087l-1.776,9.54a102.138,102.138,0,0,1,10.4-4.668,8.97,8.97,0,0,1,.43.815,100.432,100.432,0,0,0-10.474,4.7l9.439,5.3c-.152.265-.313.524-.48.78l-9.926-5.579a98.35,98.35,0,0,0-10.49,6.4l9.708,6.912q-.537.186-1.081.354l-9.418-6.707c-1.71,1.229-3.416,2.551-5.083,3.968q-1.363,1.161-2.607,2.321l5.244,3.048c-.375.131-.742.271-1.1.416l-4.835-2.81a76.926,76.926,0,0,0-6.4,6.875l3.048.957q-.411.351-.8.707l-2.866-.9a64.606,64.606,0,0,0-6.81,10.285l-.829-.387a65.707,65.707,0,0,1,6.956-10.506l-1.236-3.539.553-1.186Z" fill="#b7b1e0"></path></g><g id="Group_4361" data-name="Group 4361"><path id="Path_24576" data-name="Path 24576" d="M225.627,126.107l.221-1.485c1.918-1.829,4.127-4.035,6.665-6.692l-.5,3.787A75.966,75.966,0,0,0,225.627,126.107Z" fill="#47485c"></path><path id="Path_24577" data-name="Path 24577" d="M254.131,106.107a7.394,7.394,0,0,1,2.375.858,6.977,6.977,0,0,1,3.217,4.8,64.79,64.79,0,0,0-7.745,1.51Z" fill="#47485c"></path><path id="Path_24578" data-name="Path 24578" d="M232.779,121.256l.55-4.174a52.32,52.32,0,0,1,8.25-7.157l-.219,6.955A71.029,71.029,0,0,0,232.779,121.256Z" fill="#47485c"></path><path id="Path_24579" data-name="Path 24579" d="M251.295,113.451a73.615,73.615,0,0,0-9.227,3.13l.217-6.886-.346-.011a25.629,25.629,0,0,1,6.259-3.047,13.022,13.022,0,0,1,5.239-.646l-2.233,7.433Z" fill="#47485c"></path><path id="Path_24580" data-name="Path 24580" d="M259.824,112.453a7.842,7.842,0,0,1-.328,3.222,7.613,7.613,0,0,1-1.832,3.026l-5.6-4.733A63.528,63.528,0,0,1,259.824,112.453Z" fill="#47485c"></path><path id="Path_24581" data-name="Path 24581" d="M251.24,114.186l5.908,4.992c-2.437,2.07-6.082,2.738-9.488,3.079l-5.323-5.034A72.764,72.764,0,0,1,251.24,114.186Z" fill="#47485c"></path><path id="Path_24582" data-name="Path 24582" d="M224.83,126.726a54.048,54.048,0,0,0-9.378,9.311l-4.667,1.708A167.444,167.444,0,0,0,225.027,125.4Z" fill="#47485c"></path><path id="Path_24583" data-name="Path 24583" d="M232.327,122.345l3.4,2.4a66.554,66.554,0,0,0-7.2,3.488l-2.826-1.3A74.961,74.961,0,0,1,232.327,122.345Z" fill="#47485c"></path><path id="Path_24584" data-name="Path 24584" d="M227.772,128.653a115.192,115.192,0,0,0-11.6,7.591,53.4,53.4,0,0,1,8.912-8.829Z" fill="#47485c"></path><path id="Path_24585" data-name="Path 24585" d="M241.635,117.52l5.1,4.823c-1.011.088-1.988.155-2.89.231a27.651,27.651,0,0,0-7.338,1.867l-3.529-2.491A70.191,70.191,0,0,1,241.635,117.52Z" fill="#47485c"></path><path id="Path_24586" data-name="Path 24586" d="M225.027,125.4c.266-.25.543-.513.821-.778l-.221,1.485a75.966,75.966,0,0,1,6.387-4.39l.5-3.787c.107-.112.209-.216.317-.33.164-.172.332-.345.5-.518l-.55,4.174a71.029,71.029,0,0,1,8.581-4.376l.219-6.955c.12-.081.24-.162.36-.241l.392-.252-.263,7.149a73.615,73.615,0,0,1,9.227-3.13l-.091-.027,2.233-7.433c.234.025.463.073.694.116l-2.153,7.166a64.79,64.79,0,0,1,7.745-1.51c.043.229.078.458.1.69a63.528,63.528,0,0,0-7.76,1.515l5.6,4.733c-.165.167-.338.326-.516.477l-5.908-4.992a72.764,72.764,0,0,0-8.9,3.037l5.323,5.034c-.311.031-.619.059-.924.086l-5.1-4.823a70.191,70.191,0,0,0-8.656,4.43l3.529,2.491c-.26.1-.519.2-.779.3l-3.4-2.4a74.961,74.961,0,0,0-6.626,4.586l2.826,1.3c-.253.14-.506.279-.755.42l-2.688-1.238a53.4,53.4,0,0,0-8.912,8.829c-.238.179-.372.282-.372.282l-.348-.489a54.048,54.048,0,0,1,9.378-9.311Z" fill="#383948"></path></g><g id="Group_4362" data-name="Group 4362"><path id="Path_24587" data-name="Path 24587" d="M118.333,203.3l-.559,1.393c-2.29,1.334-4.95,2.968-8.036,4.963l1.364-3.568A76.211,76.211,0,0,0,118.333,203.3Z" fill="#47485c"></path><path id="Path_24588" data-name="Path 24588" d="M85.967,216.147a7.42,7.42,0,0,1-2.111-1.386,6.972,6.972,0,0,1-2.016-5.414,64.5,64.5,0,0,0,7.884.329Z" fill="#47485c"></path><path id="Path_24589" data-name="Path 24589" d="M110.251,206.364l-1.5,3.933a52.379,52.379,0,0,1-9.686,5.048l1.827-6.715A70.945,70.945,0,0,0,110.251,206.364Z" fill="#47485c"></path><path id="Path_24590" data-name="Path 24590" d="M90.43,209.661a73.524,73.524,0,0,0,9.7-.9L98.322,215.4l.334.091a25.672,25.672,0,0,1-6.794,1.512,13.032,13.032,0,0,1-5.247-.587l3.9-6.712Z" fill="#47485c"></path><path id="Path_24591" data-name="Path 24591" d="M81.9,208.653a7.851,7.851,0,0,1,1.067-3.057,7.607,7.607,0,0,1,2.484-2.519l4.35,5.9A63.741,63.741,0,0,1,81.9,208.653Z" fill="#47485c"></path><path id="Path_24592" data-name="Path 24592" d="M90.653,208.959l-4.588-6.227c2.85-1.448,6.551-1.252,9.943-.794l4.01,6.132A72.723,72.723,0,0,1,90.653,208.959Z" fill="#47485c"></path><path id="Path_24593" data-name="Path 24593" d="M119.253,202.887a53.991,53.991,0,0,0,11.281-6.881l4.936-.579a167.752,167.752,0,0,0-16.717,8.705Z" fill="#47485c"></path><path id="Path_24594" data-name="Path 24594" d="M110.943,205.41l-2.752-3.124a66.6,66.6,0,0,0,7.815-1.722l2.446,1.922A74.978,74.978,0,0,1,110.943,205.41Z" fill="#47485c"></path><path id="Path_24595" data-name="Path 24595" d="M116.837,200.33a114.9,114.9,0,0,0,13.045-4.693,53.387,53.387,0,0,1-10.717,6.522Z" fill="#47485c"></path><path id="Path_24596" data-name="Path 24596" d="M100.77,207.944l-3.843-5.875c1,.149,1.969.31,2.865.446a27.646,27.646,0,0,0,7.571-.114l2.855,3.242A70.235,70.235,0,0,1,100.77,207.944Z" fill="#47485c"></path><path id="Path_24597" data-name="Path 24597" d="M118.753,204.132c-.317.182-.647.373-.979.566l.559-1.393a76.211,76.211,0,0,1-7.231,2.788l-1.364,3.568-.385.248-.6.388,1.5-3.933a70.945,70.945,0,0,1-9.362,2.266l-1.827,6.715c-.135.051-.27.1-.406.151l-.44.154,1.915-6.893a73.524,73.524,0,0,1-9.7.9l.082.048-3.9,6.712c-.221-.079-.434-.178-.648-.274l3.757-6.471a64.5,64.5,0,0,1-7.884-.329c.011-.232.03-.463.061-.694a63.741,63.741,0,0,0,7.9.327l-4.35-5.9c.2-.125.4-.239.613-.345l4.588,6.227a72.723,72.723,0,0,0,9.365-.889l-4.01-6.132q.465.063.919.131l3.843,5.875a70.235,70.235,0,0,0,9.448-2.3l-2.855-3.242c.275-.036.551-.073.828-.115l2.752,3.124a74.978,74.978,0,0,0,7.509-2.924l-2.446-1.922c.278-.077.556-.154.831-.234l2.328,1.829a53.387,53.387,0,0,0,10.717-6.522c.273-.118.427-.187.427-.187l.225.556a53.991,53.991,0,0,1-11.281,6.881Z" fill="#383948"></path></g><g id="Group_4363" data-name="Group 4363"><path id="Path_24598" data-name="Path 24598" d="M404.439,308.507l1.071,10.978a17.285,17.285,0,0,0,5.993,1.4,18.5,18.5,0,0,0,2.576-.06l-1.634-7.718A76.177,76.177,0,0,1,404.439,308.507Z" fill="#5f58a4"></path><path id="Path_24599" data-name="Path 24599" d="M414.775,320.738a8.875,8.875,0,0,0,5.806-2.857,7,7,0,0,0,.678-1.021,77.848,77.848,0,0,1-8.017-3.366Z" fill="#5f58a4"></path><path id="Path_24600" data-name="Path 24600" d="M412.747,312.475l7.467-4.442a12.3,12.3,0,0,0-1.933-2.2,17.5,17.5,0,0,0-6.38-3.491l-7.276,5.455A75.311,75.311,0,0,0,412.747,312.475Z" fill="#5f58a4"></path><path id="Path_24601" data-name="Path 24601" d="M421.572,316.23a8.419,8.419,0,0,0-.977-7.612l-7.1,4.225A76.848,76.848,0,0,0,421.572,316.23Z" fill="#5f58a4"></path><path id="Path_24602" data-name="Path 24602" d="M392.014,297.646l-.964,2.995,4.5,9.063c.147.295.3.587.459.877l1.065-7.771A59.517,59.517,0,0,1,392.014,297.646Z" fill="#5f58a4"></path><path id="Path_24603" data-name="Path 24603" d="M399.621,304.992q-1-.81-1.92-1.621l-1.122,8.192a21.337,21.337,0,0,0,3.1,3.983,18.538,18.538,0,0,0,5.1,3.609L403.689,308C402.323,307.074,400.957,306.072,399.621,304.992Z" fill="#5f58a4"></path><path id="Path_24604" data-name="Path 24604" d="M400.06,304.45c1.3,1.049,2.625,2.025,3.952,2.931l7.058-5.292a30.029,30.029,0,0,0-5.016-.924,19.877,19.877,0,0,1-4.083-.86l-3.943,2.423C398.677,303.3,399.352,303.876,400.06,304.45Z" fill="#5f58a4"></path><path id="Path_24605" data-name="Path 24605" d="M394.161,295.806a28.3,28.3,0,0,1-6.2-7.651l-1.36.675a49.2,49.2,0,0,0,5.388,7.717Z" fill="#5f58a4"></path><path id="Path_24606" data-name="Path 24606" d="M397.486,302.242l3.635-2.234a22.474,22.474,0,0,1-6.336-3.677l-2.307.787A58.751,58.751,0,0,0,397.486,302.242Z" fill="#5f58a4"></path><path id="Path_24607" data-name="Path 24607" d="M385.979,289.14l-.514.256,5.14,10.35.877-2.722A50.093,50.093,0,0,1,385.979,289.14Z" fill="#5f58a4"></path><path id="Path_24608" data-name="Path 24608" d="M392.014,297.646a59.517,59.517,0,0,0,5.06,5.164l-1.065,7.771c.182.332.373.659.57.982l1.122-8.192q.923.811,1.92,1.621c1.336,1.08,2.7,2.082,4.068,3.012l1.088,11.151c.242.117.486.225.733.33l-1.071-10.978a76.177,76.177,0,0,0,8.006,4.6l1.634,7.718q.348-.033.7-.083l-1.533-7.244a77.848,77.848,0,0,0,8.017,3.366,6.706,6.706,0,0,0,.313-.63,76.848,76.848,0,0,1-8.078-3.387l7.1-4.225c-.121-.2-.249-.393-.381-.585l-7.467,4.442a75.311,75.311,0,0,1-8.122-4.682l7.276-5.455q-.412-.132-.831-.249l-7.058,5.292c-1.327-.906-2.654-1.882-3.952-2.931-.708-.574-1.383-1.148-2.032-1.722l3.943-2.423c-.288-.093-.571-.193-.85-.3l-3.635,2.234a58.751,58.751,0,0,1-5.008-5.124l2.307-.787c-.213-.174-.422-.348-.624-.525l-2.169.741a49.2,49.2,0,0,1-5.388-7.717l-.625.31a50.093,50.093,0,0,0,5.5,7.884l-.877,2.722.445.895Z" fill="#b7b1e0"></path></g><g id="Group_4364" data-name="Group 4364"><path id="Path_24609" data-name="Path 24609" d="M222.94,117.83l9.954-4.75a17.264,17.264,0,0,0-.73-6.109,18.544,18.544,0,0,0-.935-2.4l-6.7,4.167A76.262,76.262,0,0,1,222.94,117.83Z" fill="#5f58a4"></path><path id="Path_24610" data-name="Path 24610" d="M230.914,103.943a8.88,8.88,0,0,0-4.666-4.484,6.876,6.876,0,0,0-1.191-.289,77.982,77.982,0,0,1-.43,8.684Z" fill="#5f58a4"></path><path id="Path_24611" data-name="Path 24611" d="M223.837,108.667l-6.722-5.5a12.346,12.346,0,0,0-1.413,2.568,17.5,17.5,0,0,0-1.106,7.188l7.609,4.98A75.278,75.278,0,0,0,223.837,108.667Z" fill="#5f58a4"></path><path id="Path_24612" data-name="Path 24612" d="M224.358,99.09a8.418,8.418,0,0,0-6.822,3.514l6.392,5.235A76.669,76.669,0,0,0,224.358,99.09Z" fill="#5f58a4"></path><path id="Path_24613" data-name="Path 24613" d="M216.966,133.213l3.144-.114,6.985-7.321q.342-.358.668-.731l-7.668,1.648A59.51,59.51,0,0,1,216.966,133.213Z" fill="#5f58a4"></path><path id="Path_24614" data-name="Path 24614" d="M221.277,123.557q-.418,1.216-.868,2.358l8.083-1.738a21.337,21.337,0,0,0,2.688-4.269,18.542,18.542,0,0,0,1.655-6.027l-10.112,4.825C222.314,120.308,221.837,121.933,221.277,123.557Z" fill="#5f58a4"></path><path id="Path_24615" data-name="Path 24615" d="M220.618,123.329c.544-1.577,1.01-3.157,1.409-4.714l-7.382-4.831a29.964,29.964,0,0,0,.842,5.03,19.841,19.841,0,0,1,.583,4.133l3.622,2.88C220.011,125.021,220.321,124.191,220.618,123.329Z" fill="#5f58a4"></path><path id="Path_24616" data-name="Path 24616" d="M214.5,131.823a28.314,28.314,0,0,1-5.08,8.434l1.1,1.048a49.242,49.242,0,0,0,5.418-7.7Z" fill="#5f58a4"></path><path id="Path_24617" data-name="Path 24617" d="M219.421,126.5l-3.34-2.655a22.473,22.473,0,0,1-1.3,7.21l1.527,1.9A58.689,58.689,0,0,0,219.421,126.5Z" fill="#5f58a4"></path><path id="Path_24618" data-name="Path 24618" d="M211.027,141.786l.415.4,7.978-8.362-2.858.1A50.049,50.049,0,0,1,211.027,141.786Z" fill="#5f58a4"></path><path id="Path_24619" data-name="Path 24619" d="M216.966,133.213a59.51,59.51,0,0,0,3.129-6.518l7.668-1.648c.251-.284.493-.575.729-.87l-8.083,1.738q.447-1.143.868-2.358c.56-1.624,1.037-3.249,1.446-4.851l10.112-4.825c.026-.267.045-.533.059-.8l-9.954,4.75a76.262,76.262,0,0,0,1.59-9.094l6.7-4.167q-.15-.316-.315-.626l-6.287,3.911a77.982,77.982,0,0,0,.43-8.684,6.742,6.742,0,0,0-.7-.08,76.669,76.669,0,0,1-.43,8.749l-6.392-5.235c-.146.182-.285.368-.421.558l6.722,5.5a75.278,75.278,0,0,1-1.632,9.231l-7.609-4.98c.011.289.027.577.049.866l7.382,4.831c-.4,1.557-.865,3.137-1.409,4.714-.3.862-.607,1.692-.926,2.5l-3.622-2.88c.011.3.014.6.011.9l3.34,2.655a58.689,58.689,0,0,1-3.11,6.455l-1.527-1.9c-.09.259-.183.515-.28.766l1.436,1.786a49.242,49.242,0,0,1-5.418,7.7l.5.481a50.049,50.049,0,0,0,5.535-7.861l2.858-.1.69-.722Z" fill="#b7b1e0"></path></g><g id="Group_4365" data-name="Group 4365"><path id="Path_24620" data-name="Path 24620" d="M109.782,176.316l.7-1.329c-.468-2.608-.949-5.692-1.43-9.335L107.218,169A76.349,76.349,0,0,1,109.782,176.316Z" fill="#b7b1e0"></path><path id="Path_24621" data-name="Path 24621" d="M98.58,143.348a7.4,7.4,0,0,0-2.424-.71,6.975,6.975,0,0,0-5.429,1.974,64.694,64.694,0,0,1,5.361,5.79Z" fill="#b7b1e0"></path><path id="Path_24622" data-name="Path 24622" d="M106.872,168.179l2.02-3.693a52.372,52.372,0,0,0-2.434-10.648l-3.929,5.744A70.946,70.946,0,0,1,106.872,168.179Z" fill="#b7b1e0"></path><path id="Path_24623" data-name="Path 24623" d="M96.534,150.95a73.369,73.369,0,0,1,5.6,7.973l3.89-5.687.285.2a25.692,25.692,0,0,0-3.252-6.154,13.031,13.031,0,0,0-3.849-3.614l-2.585,7.318Z" fill="#b7b1e0"></path><path id="Path_24624" data-name="Path 24624" d="M90.238,145.109A7.846,7.846,0,0,0,88.6,147.9a7.606,7.606,0,0,0-.307,3.525l7.314-.515A63.568,63.568,0,0,0,90.238,145.109Z" fill="#b7b1e0"></path><path id="Path_24625" data-name="Path 24625" d="M96.144,151.575l-7.715.543c.745,3.108,3.292,5.8,5.841,8.085l7.268-.921A72.626,72.626,0,0,0,96.144,151.575Z" fill="#b7b1e0"></path><path id="Path_24626" data-name="Path 24626" d="M110.06,177.288a54.043,54.043,0,0,1,2.074,13.051l1.513,2.7s-.539-4.051-2.963-16.941Z" fill="#b7b1e0"></path><path id="Path_24627" data-name="Path 24627" d="M106.594,169.325l-4.162-.07a66.738,66.738,0,0,1,3.755,7.066l3.048.617A74.875,74.875,0,0,0,106.594,169.325Z" fill="#b7b1e0"></path><path id="Path_24628" data-name="Path 24628" d="M106.547,177.106a115.019,115.019,0,0,1,4.883,12.975,53.447,53.447,0,0,0-1.981-12.388Z" fill="#b7b1e0"></path><path id="Path_24629" data-name="Path 24629" d="M101.929,159.936l-6.964.882c.764.667,1.513,1.3,2.2,1.893a27.646,27.646,0,0,1,4.822,5.838l4.319.073A70.244,70.244,0,0,0,101.929,159.936Z" fill="#b7b1e0"></path><path id="Path_24630" data-name="Path 24630" d="M110.684,176.1c-.068-.359-.136-.734-.2-1.113l-.7,1.329A76.349,76.349,0,0,0,107.218,169l1.832-3.351c-.02-.154-.04-.3-.061-.453-.031-.237-.064-.475-.1-.713l-2.02,3.693a70.946,70.946,0,0,0-4.343-8.6l3.929-5.744c-.049-.136-.1-.272-.149-.407l-.167-.435-4.008,5.927a73.369,73.369,0,0,0-5.6-7.973l.089.031,2.585-7.318c-.2-.117-.416-.215-.628-.315L96.088,150.4a64.694,64.694,0,0,0-5.361-5.79c-.17.159-.333.324-.489.5a63.568,63.568,0,0,1,5.37,5.8l-7.314.515c.034.232.08.462.135.69l7.715-.543a72.626,72.626,0,0,1,5.394,7.707l-7.268.921c.232.209.464.413.695.615l6.964-.882a70.244,70.244,0,0,1,4.373,8.686l-4.319-.073c.15.234.3.467.449.706l4.162.07a74.875,74.875,0,0,1,2.641,7.613l-3.048-.617c.121.262.243.524.36.785l2.9.587a53.447,53.447,0,0,1,1.981,12.388c.086.284.134.447.134.447l.57-.189a54.043,54.043,0,0,0-2.074-13.051Z" fill="#5f58a4"></path></g><g id="Group_4366" data-name="Group 4366"><path id="Path_24631" data-name="Path 24631" d="M401.975,294.978l10.615,2.372a15.869,15.869,0,0,0,3.455-4.585,15.55,15.55,0,0,0,.87-2.167l-7.78-.933A77.534,77.534,0,0,1,401.975,294.978Z" fill="#4b4491"></path><path id="Path_24632" data-name="Path 24632" d="M417.088,289.993a7.011,7.011,0,0,0-.576-5.694,5.994,5.994,0,0,0-.708-.87,75.778,75.778,0,0,1-6.018,5.688Z" fill="#4b4491"></path><path id="Path_24633" data-name="Path 24633" d="M408.658,289.227l-1.456-7.551a13.583,13.583,0,0,0-2.748.957,17.679,17.679,0,0,0-5.546,4.284l2.468,7.693A76.463,76.463,0,0,0,408.658,289.227Z" fill="#4b4491"></path><path id="Path_24634" data-name="Path 24634" d="M415.33,282.981c-1.931-1.613-4.758-1.939-7.445-1.449l1.385,7.181A75,75,0,0,0,415.33,282.981Z" fill="#4b4491"></path><path id="Path_24635" data-name="Path 24635" d="M387.388,302.114l2.444,1.695,10.063-1.059c.329-.034.656-.076.983-.122l-6.859-3.2A65.369,65.369,0,0,1,387.388,302.114Z" fill="#4b4491"></path><path id="Path_24636" data-name="Path 24636" d="M396.967,297.952q-1.113.594-2.2,1.12l7.23,3.373a23.828,23.828,0,0,0,4.825-1.4,19.419,19.419,0,0,0,5.2-3.182l-10.783-2.41C399.879,296.318,398.454,297.159,396.967,297.952Z" fill="#4b4491"></path><path id="Path_24637" data-name="Path 24637" d="M396.62,297.424c1.444-.77,2.831-1.586,4.152-2.424l-2.395-7.464a27.149,27.149,0,0,0-2.664,3.91,18.066,18.066,0,0,1-2.269,3.151l.841,4.011C395.053,298.237,395.831,297.845,396.62,297.424Z" fill="#4b4491"></path><path id="Path_24638" data-name="Path 24638" d="M386.445,299.776a31.611,31.611,0,0,1-9.358,2.894l.141,1.335a55.3,55.3,0,0,0,9.128-2.2Z" fill="#4b4491"></path><path id="Path_24639" data-name="Path 24639" d="M393.637,298.916l-.775-3.7a22.927,22.927,0,0,1-5.7,4.193l-.1,2.159A64.573,64.573,0,0,0,393.637,298.916Z" fill="#4b4491"></path><path id="Path_24640" data-name="Path 24640" d="M377.292,304.619l.053.505,11.494-1.21-2.222-1.542A56.247,56.247,0,0,1,377.292,304.619Z" fill="#4b4491"></path><path id="Path_24641" data-name="Path 24641" d="M387.388,302.114a65.369,65.369,0,0,0,6.631-2.686l6.859,3.2c.374-.052.747-.115,1.119-.183l-7.23-3.373q1.086-.528,2.2-1.12c1.487-.793,2.912-1.634,4.269-2.5l10.783,2.41c.195-.168.384-.34.571-.514l-10.615-2.372a77.534,77.534,0,0,0,7.16-5.313l7.78.933c.063-.2.12-.4.173-.6l-7.3-.876a75.778,75.778,0,0,0,6.018-5.688,6.054,6.054,0,0,0-.474-.448,75,75,0,0,1-6.06,5.732l-1.385-7.181c-.229.042-.456.09-.683.144l1.456,7.551a76.463,76.463,0,0,1-7.282,5.383l-2.468-7.693q-.271.306-.531.619L400.772,295c-1.321.838-2.708,1.654-4.152,2.424-.789.421-1.567.813-2.335,1.184l-.841-4.011c-.19.213-.385.419-.582.621l.775,3.7a64.573,64.573,0,0,1-6.575,2.654l.1-2.159c-.239.126-.476.248-.713.365l-.089,2.03a55.3,55.3,0,0,1-9.128,2.2l.064.614a56.247,56.247,0,0,0,9.325-2.247l2.222,1.542.993-.105Z" fill="#5f58a4"></path></g><g id="Group_4367" data-name="Group 4367"><path id="Path_24642" data-name="Path 24642" d="M106.2,287.863l-2.771-10.518a15.843,15.843,0,0,0-5.659-.962,15.559,15.559,0,0,0-2.325.222l2.746,7.339A77.659,77.659,0,0,1,106.2,287.863Z" fill="#4b4491"></path><path id="Path_24643" data-name="Path 24643" d="M94.824,276.73a7.008,7.008,0,0,0-4.792,3.128,5.972,5.972,0,0,0-.447,1.028,75.845,75.845,0,0,1,7.817,2.732Z" fill="#4b4491"></path><path id="Path_24644" data-name="Path 24644" d="M98.017,284.569l-6.038,4.763a13.668,13.668,0,0,0,2.113,2,17.67,17.67,0,0,0,6.354,2.957l5.7-5.726A76.6,76.6,0,0,0,98.017,284.569Z" fill="#4b4491"></path><path id="Path_24645" data-name="Path 24645" d="M89.4,281.513c-.546,2.456.464,5.117,2.133,7.278l5.742-4.529A75.037,75.037,0,0,0,89.4,281.513Z" fill="#4b4491"></path><path id="Path_24646" data-name="Path 24646" d="M119.236,297.54l.383-2.95-5.564-8.451c-.182-.276-.369-.547-.56-.817l.309,7.563A65.158,65.158,0,0,1,119.236,297.54Z" fill="#4b4491"></path><path id="Path_24647" data-name="Path 24647" d="M111.138,290.944q1.04.717,2.006,1.44l-.326-7.972a23.827,23.827,0,0,0-3.459-3.642,19.425,19.425,0,0,0-5.215-3.154l2.815,10.684C108.349,289.109,109.751,289.988,111.138,290.944Z" fill="#4b4491"></path><path id="Path_24648" data-name="Path 24648" d="M110.83,291.495c-1.348-.929-2.711-1.785-4.062-2.574l-5.528,5.556a26.97,26.97,0,0,0,4.7.57,18.116,18.116,0,0,1,3.841.568l3.176-2.589Q111.931,292.258,110.83,291.495Z" fill="#4b4491"></path><path id="Path_24649" data-name="Path 24649" d="M117.593,299.452a31.573,31.573,0,0,1,6.87,6.982l1.122-.738a55.278,55.278,0,0,0-6.148-7.1Z" fill="#4b4491"></path><path id="Path_24650" data-name="Path 24650" d="M113.525,293.459l-2.928,2.387a22.927,22.927,0,0,1,6.344,3.141l1.962-.908A64.456,64.456,0,0,0,113.525,293.459Z" fill="#4b4491"></path><path id="Path_24651" data-name="Path 24651" d="M126.1,305.357l.424-.28-6.355-9.652-.348,2.681A56.225,56.225,0,0,1,126.1,305.357Z" fill="#4b4491"></path><path id="Path_24652" data-name="Path 24652" d="M119.236,297.54a65.158,65.158,0,0,0-5.432-4.655l-.309-7.563q-.329-.462-.677-.91l.326,7.972q-.967-.723-2.006-1.44c-1.387-.956-2.789-1.835-4.179-2.644l-2.815-10.684c-.238-.1-.477-.186-.718-.271l2.771,10.518a77.659,77.659,0,0,0-8.009-3.919l-2.746-7.339q-.311.055-.618.125l2.578,6.888a75.845,75.845,0,0,0-7.817-2.732,5.711,5.711,0,0,0-.18.627,75.037,75.037,0,0,1,7.875,2.749l-5.742,4.529c.142.185.29.364.441.541l6.038-4.763a76.6,76.6,0,0,1,8.128,3.995l-5.7,5.726c.264.068.528.13.794.187l5.528-5.556c1.351.789,2.714,1.645,4.062,2.574q1.1.762,2.124,1.531l-3.176,2.589c.276.071.549.149.819.231l2.928-2.387a64.456,64.456,0,0,1,5.378,4.62l-1.962.908q.333.23.652.465l1.844-.853a55.278,55.278,0,0,1,6.148,7.1l.515-.339a56.225,56.225,0,0,0-6.279-7.251l.348-2.681-.55-.835Z" fill="#5f58a4"></path></g><g id="Group_4368" data-name="Group 4368"><path id="Path_24653" data-name="Path 24653" d="M399.487,211.128,410.1,213.5a15.842,15.842,0,0,0,3.455-4.584,15.615,15.615,0,0,0,.871-2.168l-7.781-.932A77.441,77.441,0,0,1,399.487,211.128Z" fill="#dfeeff"></path><path id="Path_24654" data-name="Path 24654" d="M414.6,206.142a7.011,7.011,0,0,0-.577-5.694,5.914,5.914,0,0,0-.707-.869,76.146,76.146,0,0,1-6.018,5.688Z" fill="#dfeeff"></path><path id="Path_24655" data-name="Path 24655" d="M406.171,205.376l-1.456-7.551a13.622,13.622,0,0,0-2.748.957,17.679,17.679,0,0,0-5.546,4.284l2.468,7.693A76.6,76.6,0,0,0,406.171,205.376Z" fill="#dfeeff"></path><path id="Path_24656" data-name="Path 24656" d="M412.842,199.13c-1.931-1.612-4.757-1.938-7.444-1.449l1.384,7.181A74.482,74.482,0,0,0,412.842,199.13Z" fill="#dfeeff"></path><path id="Path_24657" data-name="Path 24657" d="M384.9,218.263l2.444,1.7,10.063-1.06c.328-.034.655-.076.982-.122l-6.858-3.2A65.361,65.361,0,0,1,384.9,218.263Z" fill="#dfeeff"></path><path id="Path_24658" data-name="Path 24658" d="M394.48,214.1q-1.113.594-2.2,1.12l7.23,3.373a23.782,23.782,0,0,0,4.825-1.4,19.425,19.425,0,0,0,5.2-3.182L398.749,211.6C397.392,212.467,395.966,213.308,394.48,214.1Z" fill="#dfeeff"></path><path id="Path_24659" data-name="Path 24659" d="M394.132,213.574c1.445-.771,2.831-1.587,4.153-2.425l-2.395-7.463a27.041,27.041,0,0,0-2.664,3.91,18.1,18.1,0,0,1-2.269,3.151l.84,4.01Q392.949,214.2,394.132,213.574Z" fill="#dfeeff"></path><path id="Path_24660" data-name="Path 24660" d="M383.957,215.925a31.564,31.564,0,0,1-9.357,2.894l.14,1.335a55.3,55.3,0,0,0,9.128-2.2Z" fill="#4b4491"></path><path id="Path_24661" data-name="Path 24661" d="M391.15,215.065l-.775-3.7a22.951,22.951,0,0,1-5.7,4.192l-.1,2.159A64.114,64.114,0,0,0,391.15,215.065Z" fill="#4b4491"></path><path id="Path_24662" data-name="Path 24662" d="M374.8,220.768l.053.5,11.493-1.21-2.222-1.541A56.215,56.215,0,0,1,374.8,220.768Z" fill="#4b4491"></path><path id="Path_24663" data-name="Path 24663" d="M384.9,218.263a65.361,65.361,0,0,0,6.631-2.686l6.858,3.2c.375-.052.748-.115,1.12-.183l-7.23-3.373q1.086-.528,2.2-1.12c1.486-.793,2.912-1.634,4.269-2.5l10.783,2.409c.195-.167.384-.339.57-.514l-10.615-2.371a77.441,77.441,0,0,0,7.16-5.313l7.781.932c.063-.2.12-.4.173-.6l-7.3-.875a76.146,76.146,0,0,0,6.018-5.688,6.082,6.082,0,0,0-.475-.449,74.482,74.482,0,0,1-6.06,5.732l-1.384-7.181c-.229.042-.456.091-.683.144l1.456,7.551a76.6,76.6,0,0,1-7.282,5.383l-2.468-7.693c-.181.2-.358.41-.531.62l2.395,7.463c-1.322.838-2.708,1.654-4.153,2.425q-1.182.63-2.335,1.183l-.84-4.01c-.191.213-.385.419-.582.621l.775,3.7a64.114,64.114,0,0,1-6.575,2.654l.1-2.159q-.357.189-.713.365l-.089,2.03a55.3,55.3,0,0,1-9.128,2.2l.065.614a56.215,56.215,0,0,0,9.324-2.246l2.222,1.541.994-.1Z" fill="#4c9bf1"></path></g><ellipse id="Ellipse_1296" data-name="Ellipse 1296" cx="143.011" cy="23.323" rx="143.011" ry="23.323" transform="translate(112.215 354.667)" fill="#eaeaf2"></ellipse><g id="Group_4371" data-name="Group 4371"><path id="Path_25600" data-name="Path 25600" d="M11.233,0h266.38a11.233,11.233,0,0,1,11.233,11.233V196.628a11.233,11.233,0,0,1-11.233,11.233H11.233A11.234,11.234,0,0,1,0,196.628V11.233A11.233,11.233,0,0,1,11.233,0Z" transform="translate(107.142 125.041)" fill="#626678"></path><path id="Path_24664" data-name="Path 24664" d="M384.291,136.739V321.2H118.839V136.739H384.291m0-11.7H118.839a11.7,11.7,0,0,0-11.7,11.7V321.2a11.7,11.7,0,0,0,11.7,11.7H384.29a11.7,11.7,0,0,0,11.7-11.7V136.739a11.7,11.7,0,0,0-11.7-11.7Z" fill="#c8dbfb"></path><path id="Rectangle_5229" data-name="Rectangle 5229" d="M7.948,0H199.013a7.949,7.949,0,0,1,7.949,7.949V157.621a7.949,7.949,0,0,1-7.949,7.949H7.949A7.949,7.949,0,0,1,0,157.621V7.948A7.948,7.948,0,0,1,7.948,0Z" transform="translate(147.634 150.237)" fill="#fff"></path><path id="Path_24665" data-name="Path 24665" d="M346.647,150.237H155.583a7.948,7.948,0,0,0-7.949,7.948v14.548H354.6V158.185A7.948,7.948,0,0,0,346.647,150.237Z" fill="#0056ec"></path><g id="Group_4369" data-name="Group 4369"><path id="Path_24666" data-name="Path 24666" d="M340.8,158.3H327.9a1.461,1.461,0,1,1,0-2.921h12.9a1.461,1.461,0,1,1,0,2.921Z" fill="#656278"></path><path id="Path_24667" data-name="Path 24667" d="M340.8,163.406H327.9a1.46,1.46,0,1,1,0-2.92h12.9a1.46,1.46,0,1,1,0,2.92Z" fill="#656278"></path><path id="Path_24668" data-name="Path 24668" d="M340.8,168.517H327.9a1.461,1.461,0,1,1,0-2.921h12.9a1.461,1.461,0,1,1,0,2.921Z" fill="#656278"></path></g><path id="Path_24669" data-name="Path 24669" d="M308.993,167.056H221.432a5.11,5.11,0,0,1-5.111-5.11h0a5.11,5.11,0,0,1,5.111-5.11h87.561a5.11,5.11,0,0,1,5.11,5.11h0A5.11,5.11,0,0,1,308.993,167.056Z" fill="#fff"></path><g id="Group_4370" data-name="Group 4370"><path id="Path_24670" data-name="Path 24670" d="M155.545,164.8a.975.975,0,0,1-.689-1.664l4.673-4.673a.975.975,0,0,1,1.379,1.379l-4.673,4.673A.974.974,0,0,1,155.545,164.8Z" fill="#fff"></path><path id="Path_24671" data-name="Path 24671" d="M160.219,164.8a.974.974,0,0,1-.69-.285l-4.673-4.673a.975.975,0,1,1,1.379-1.379l4.673,4.673a.975.975,0,0,1-.689,1.664Z" fill="#fff"></path></g><path id="Path_24672" data-name="Path 24672" d="M180.1,164.8a3.311,3.311,0,1,1,3.312-3.311A3.314,3.314,0,0,1,180.1,164.8Zm0-4.673a1.361,1.361,0,1,0,1.362,1.362A1.364,1.364,0,0,0,180.1,160.123Z" fill="#fff"></path><path id="Path_24673" data-name="Path 24673" d="M171.2,162.459h-5.007a.975.975,0,1,1,0-1.949H171.2a.975.975,0,1,1,0,1.949Z" fill="#fff"></path><rect id="Rectangle_5230" data-name="Rectangle 5230" width="97.544" height="22.196" transform="translate(206.454 332.903)" fill="#9894b7"></rect><path id="Path_24674" data-name="Path 24674" d="M334.35,368.3H174.705a13.2,13.2,0,0,1,13.2-13.2H321.152a13.2,13.2,0,0,1,13.2,13.2Z" fill="#b1bce0"></path></g><g id="Group_4372" data-name="Group 4372"><rect id="Rectangle_5231" data-name="Rectangle 5231" width="44.499" height="44.499" transform="translate(354.47 140.076) rotate(-35.078)" fill="#5193f4"></rect><path id="Path_24675" data-name="Path 24675" d="M373.842,145.969a2.8,2.8,0,1,0,.683-3.9A2.8,2.8,0,0,0,373.842,145.969Z" fill="#383948" fill-rule="evenodd"></path><path id="Path_24676" data-name="Path 24676" d="M385.838,137.545a2.8,2.8,0,1,0,.683-3.9A2.8,2.8,0,0,0,385.838,137.545Z" fill="#383948" fill-rule="evenodd"></path><path id="Path_24677" data-name="Path 24677" d="M397.477,138.967c-1.688-1.356-3.88.372-3.843,2.168-1.056,7.5-5.86,11.289-13.811,10.985-1.908-.162-2.6-.089-3.29.4a2.241,2.241,0,0,0-.9,2.611l.152.3a1.92,1.92,0,0,0,1.594.793c5.579.476,10.188-.534,13.7-3a16.929,16.929,0,0,0,5.6-6.966c1.145-3.122,1.564-5.169,1.316-6.439l-.048-.253Z" fill="#383948"></path></g><g id="ui"><rect id="Rectangle_5232" data-name="Rectangle 5232" width="167.086" height="112.465" transform="translate(170.739 184.873)" fill="#eaeaf2"></rect><rect id="Rectangle_5233" data-name="Rectangle 5233" width="167.086" height="8.435" transform="translate(170.739 184.873)" fill="#b1bae0"></rect></g><g id="Group_4379" data-name="Group 4379"><g id="Group_4378" data-name="Group 4378"><g id="Group_4373" data-name="Group 4373"><path id="Path_24678" data-name="Path 24678" d="M158.451,324.25l-3.923-10.309a17.278,17.278,0,0,1,4.746-3.915,18.369,18.369,0,0,1,2.335-1.093l1.969,7.64A76.206,76.206,0,0,0,158.451,324.25Z" fill="#5f58a4"></path><path id="Path_24679" data-name="Path 24679" d="M162.269,308.7a8.875,8.875,0,0,1,6.471-.023,6.889,6.889,0,0,1,1.061.613,77.915,77.915,0,0,0-5.684,6.58Z" fill="#5f58a4"></path><path id="Path_24680" data-name="Path 24680" d="M164.128,317l8.663.657a12.323,12.323,0,0,1-.751,2.834,17.489,17.489,0,0,1-4.161,5.964l-8.943-1.65A75.144,75.144,0,0,1,164.128,317Z" fill="#5f58a4"></path><path id="Path_24681" data-name="Path 24681" d="M170.361,309.712a8.42,8.42,0,0,1,2.511,7.252l-8.239-.625A76.99,76.99,0,0,1,170.361,309.712Z" fill="#5f58a4"></path><path id="Path_24682" data-name="Path 24682" d="M152.154,339.5l-2.2-2.253V327.131c0-.33.008-.66.021-.989l4.41,6.486A59.565,59.565,0,0,0,152.154,339.5Z" fill="#5f58a4"></path><path id="Path_24683" data-name="Path 24683" d="M155.7,329.541q-.535,1.169-1,2.305l-4.648-6.837a21.348,21.348,0,0,1,1-4.945,18.558,18.558,0,0,1,2.963-5.5L158,325.034C157.193,326.474,156.416,327.98,155.7,329.541Z" fill="#5f58a4"></path><path id="Path_24684" data-name="Path 24684" d="M156.335,329.831c.695-1.517,1.449-2.981,2.235-4.383l8.675,1.6a30,30,0,0,1-4.081,3.058,19.913,19.913,0,0,0-3.275,2.587l-4.609-.416C155.606,331.475,155.955,330.66,156.335,329.831Z" fill="#5f58a4"></path><path id="Path_24685" data-name="Path 24685" d="M154.9,340.2a28.319,28.319,0,0,0-2.147,9.609H151.23a49.289,49.289,0,0,1,1.393-9.308Z" fill="#5f58a4"></path><path id="Path_24686" data-name="Path 24686" d="M155.01,332.953l4.25.385a22.444,22.444,0,0,0-4.039,6.112l-2.416.32A58.815,58.815,0,0,1,155.01,332.953Z" fill="#5f58a4"></path><path id="Path_24687" data-name="Path 24687" d="M150.532,349.806h-.574V338.249l2,2.049A50.089,50.089,0,0,0,150.532,349.806Z" fill="#5f58a4"></path><path id="Path_24688" data-name="Path 24688" d="M152.154,339.5a59.565,59.565,0,0,1,2.235-6.875l-4.41-6.486c.015-.379.041-.756.074-1.133l4.648,6.837q.465-1.136,1-2.305c.716-1.561,1.493-3.067,2.3-4.507l-3.985-10.472c.165-.211.336-.417.51-.621l3.923,10.309a76.206,76.206,0,0,1,5.127-7.677l-1.969-7.64c.217-.083.438-.161.66-.235l1.848,7.17a77.915,77.915,0,0,1,5.684-6.58,6.471,6.471,0,0,1,.56.424,76.99,76.99,0,0,0-5.728,6.627l8.239.625c-.02.233-.048.464-.081.694L164.128,317a75.144,75.144,0,0,0-5.192,7.8l8.943,1.65q-.312.3-.634.593l-8.675-1.6c-.786,1.4-1.54,2.866-2.235,4.383-.38.829-.729,1.644-1.055,2.447l4.609.416c-.217.211-.425.426-.629.644l-4.25-.385a58.815,58.815,0,0,0-2.205,6.817l2.416-.32q-.171.375-.326.747l-2.272.3a49.289,49.289,0,0,0-1.393,9.308h-.7a50.089,50.089,0,0,1,1.423-9.508l-2-2.049v-1Z" fill="#b7b1e0"></path></g><g id="Group_4374" data-name="Group 4374"><path id="Path_24689" data-name="Path 24689" d="M145.974,338.788l-1.006-1.115c-.191-2.643-.489-5.75-.925-9.4l2.6,2.794A76.05,76.05,0,0,0,145.974,338.788Z" fill="#47485c"></path><path id="Path_24690" data-name="Path 24690" d="M148.667,304.072a7.415,7.415,0,0,1,2.173-1.287,6.97,6.97,0,0,1,5.748.569,64.7,64.7,0,0,0-3.76,6.937Z" fill="#47485c"></path><path id="Path_24691" data-name="Path 24691" d="M146.779,330.184l-2.872-3.079a52.376,52.376,0,0,1-.276-10.919l5.228,4.593A70.83,70.83,0,0,0,146.779,330.184Z" fill="#47485c"></path><path id="Path_24692" data-name="Path 24692" d="M152.531,310.931a73.658,73.658,0,0,0-3.453,9.111L143.9,315.5l-.228.259a25.7,25.7,0,0,1,1.628-6.767,13.026,13.026,0,0,1,2.834-4.454l4.316,6.45Z" fill="#47485c"></path><path id="Path_24693" data-name="Path 24693" d="M157.185,303.714a7.842,7.842,0,0,1,2.277,2.3,7.613,7.613,0,0,1,1.171,3.339l-7.214,1.312A63.617,63.617,0,0,1,157.185,303.714Z" fill="#47485c"></path><path id="Path_24694" data-name="Path 24694" d="M153.063,311.441l7.61-1.384c.048,3.2-1.755,6.434-3.658,9.28l-7.27.906A72.832,72.832,0,0,1,153.063,311.441Z" fill="#47485c"></path><path id="Path_24695" data-name="Path 24695" d="M145.945,339.8a53.985,53.985,0,0,0,1.221,13.158l-1.649,4.687a167.677,167.677,0,0,0-.471-18.842Z" fill="#47485c"></path><path id="Path_24696" data-name="Path 24696" d="M147.332,331.225l4.015-1.1a66.871,66.871,0,0,0-1.889,7.776l-2.8,1.352A75.057,75.057,0,0,1,147.332,331.225Z" fill="#47485c"></path><path id="Path_24697" data-name="Path 24697" d="M149.3,338.752a115.155,115.155,0,0,0-1.519,13.78,53.333,53.333,0,0,1-1.146-12.493Z" fill="#47485c"></path><path id="Path_24698" data-name="Path 24698" d="M149.528,320.974l6.965-.87c-.574.836-1.144,1.633-1.659,2.378a27.641,27.641,0,0,0-3.226,6.85l-4.167,1.139A70.216,70.216,0,0,1,149.528,320.974Z" fill="#47485c"></path><path id="Path_24699" data-name="Path 24699" d="M145.046,338.8c-.023-.364-.05-.744-.078-1.128l1.006,1.115a76.05,76.05,0,0,1,.674-7.72l-2.6-2.794c-.018-.154-.034-.3-.053-.454-.029-.237-.055-.476-.083-.715l2.872,3.079a70.83,70.83,0,0,1,2.08-9.4l-5.228-4.593c.014-.143.027-.287.043-.431l.055-.463,5.349,4.75a73.658,73.658,0,0,1,3.453-9.111l-.079.053-4.316-6.45c.168-.165.351-.312.531-.462l4.161,6.219a64.7,64.7,0,0,1,3.76-6.937c.2.112.4.231.6.36a63.617,63.617,0,0,0-3.766,6.953l7.214-1.312c.024.234.036.468.04.7l-7.61,1.384a72.832,72.832,0,0,0-3.318,8.8l7.27-.906c-.173.259-.348.515-.522.767l-6.965.87a70.216,70.216,0,0,0-2.087,9.5l4.167-1.139c-.088.263-.176.527-.261.8l-4.015,1.1a75.057,75.057,0,0,0-.675,8.03l2.8-1.352c-.052.283-.1.567-.155.849l-2.665,1.287a53.333,53.333,0,0,0,1.146,12.493c-.013.3-.019.466-.019.466l-.6-.042a53.985,53.985,0,0,1-1.221-13.158Z" fill="#383948"></path></g><g id="Group_4375" data-name="Group 4375"><path id="Path_24700" data-name="Path 24700" d="M124.127,324.25l3.923-10.309a17.263,17.263,0,0,0-4.746-3.915,18.355,18.355,0,0,0-2.334-1.093l-1.97,7.64A75.869,75.869,0,0,1,124.127,324.25Z" fill="#5f58a4"></path><path id="Path_24701" data-name="Path 24701" d="M120.31,308.7a8.875,8.875,0,0,0-6.471-.023,6.89,6.89,0,0,0-1.061.613,77.767,77.767,0,0,1,5.683,6.58Z" fill="#5f58a4"></path><path id="Path_24702" data-name="Path 24702" d="M118.451,317l-8.663.657a12.321,12.321,0,0,0,.75,2.834,17.491,17.491,0,0,0,4.162,5.964l8.942-1.65A75.145,75.145,0,0,0,118.451,317Z" fill="#5f58a4"></path><path id="Path_24703" data-name="Path 24703" d="M112.217,309.712a8.416,8.416,0,0,0-2.51,7.252l8.238-.625A76.626,76.626,0,0,0,112.217,309.712Z" fill="#5f58a4"></path><path id="Path_24704" data-name="Path 24704" d="M130.424,339.5l2.2-2.253V327.131q0-.5-.02-.989l-4.411,6.486A59.373,59.373,0,0,1,130.424,339.5Z" fill="#5f58a4"></path><path id="Path_24705" data-name="Path 24705" d="M126.878,329.541q.536,1.169,1,2.305l4.649-6.837a21.348,21.348,0,0,0-1-4.945,18.558,18.558,0,0,0-2.963-5.5l-3.986,10.472C125.385,326.474,126.163,327.98,126.878,329.541Z" fill="#5f58a4"></path><path id="Path_24706" data-name="Path 24706" d="M126.244,329.831c-.695-1.517-1.449-2.981-2.235-4.383l-8.676,1.6a30.013,30.013,0,0,0,4.082,3.058,19.863,19.863,0,0,1,3.274,2.587l4.609-.416C126.973,331.475,126.624,330.66,126.244,329.831Z" fill="#5f58a4"></path><path id="Path_24707" data-name="Path 24707" d="M127.684,340.2a28.348,28.348,0,0,1,2.147,9.609h1.518a49.287,49.287,0,0,0-1.393-9.308Z" fill="#5f58a4"></path><path id="Path_24708" data-name="Path 24708" d="M127.568,332.953l-4.249.385a22.49,22.49,0,0,1,4.039,6.112l2.416.32A58.637,58.637,0,0,0,127.568,332.953Z" fill="#5f58a4"></path><path id="Path_24709" data-name="Path 24709" d="M132.046,349.806h.574V338.249l-2,2.049A50.066,50.066,0,0,1,132.046,349.806Z" fill="#5f58a4"></path><path id="Path_24710" data-name="Path 24710" d="M130.424,339.5a59.373,59.373,0,0,0-2.235-6.875l4.411-6.486c-.015-.379-.041-.756-.074-1.133l-4.649,6.837q-.465-1.136-1-2.305c-.715-1.561-1.493-3.067-2.3-4.507l3.986-10.472c-.165-.211-.336-.417-.511-.621l-3.923,10.309A75.869,75.869,0,0,0,119,316.573l1.97-7.64q-.327-.125-.66-.235l-1.849,7.17a77.767,77.767,0,0,0-5.683-6.58,6.646,6.646,0,0,0-.561.424,76.626,76.626,0,0,1,5.728,6.627l-8.238.625q.03.35.081.694l8.663-.657a75.145,75.145,0,0,1,5.191,7.8l-8.942,1.65q.311.3.633.593l8.676-1.6c.786,1.4,1.54,2.866,2.235,4.383.38.829.729,1.644,1.054,2.447l-4.609.416c.217.211.426.426.63.644l4.249-.385a58.637,58.637,0,0,1,2.206,6.817l-2.416-.32q.169.375.326.747l2.272.3a49.287,49.287,0,0,1,1.393,9.308h.7a50.066,50.066,0,0,0-1.422-9.508l2-2.049v-1Z" fill="#b7b1e0"></path></g><g id="Group_4376" data-name="Group 4376"><path id="Path_24711" data-name="Path 24711" d="M136.772,335.241l.993-1.126c.162-2.645.426-5.756.821-9.409l-2.574,2.822A76,76,0,0,1,136.772,335.241Z" fill="#b7b1e0"></path><path id="Path_24712" data-name="Path 24712" d="M133.693,300.557a7.409,7.409,0,0,0-2.186-1.263,6.972,6.972,0,0,0-5.742.633,64.565,64.565,0,0,1,3.837,6.894Z" fill="#b7b1e0"></path><path id="Path_24713" data-name="Path 24713" d="M135.872,326.646l2.837-3.11a52.379,52.379,0,0,0,.155-10.921l-5.177,4.65A70.926,70.926,0,0,1,135.872,326.646Z" fill="#b7b1e0"></path><path id="Path_24714" data-name="Path 24714" d="M129.906,307.459a73.582,73.582,0,0,1,3.554,9.072l5.125-4.6.231.257a25.657,25.657,0,0,0-1.7-6.749,13.021,13.021,0,0,0-2.884-4.422l-4.243,6.5Z" fill="#b7b1e0"></path><path id="Path_24715" data-name="Path 24715" d="M125.172,300.294a7.84,7.84,0,0,0-2.252,2.327,7.6,7.6,0,0,0-1.133,3.352l7.228,1.231A63.586,63.586,0,0,0,125.172,300.294Z" fill="#b7b1e0"></path><path id="Path_24716" data-name="Path 24716" d="M129.379,307.974l-7.624-1.3c-.013,3.2,1.826,6.414,3.76,9.238l7.28.826A72.658,72.658,0,0,0,129.379,307.974Z" fill="#b7b1e0"></path><path id="Path_24717" data-name="Path 24717" d="M136.813,336.25a54.045,54.045,0,0,1-1.075,13.171l.83,2.984s.436-4.064,1.132-17.161Z" fill="#b7b1e0"></path><path id="Path_24718" data-name="Path 24718" d="M135.33,327.693,131.3,326.64a66.641,66.641,0,0,1,1.975,7.754l2.816,1.322A75.132,75.132,0,0,0,135.33,327.693Z" fill="#b7b1e0"></path><path id="Path_24719" data-name="Path 24719" d="M133.443,335.242A115.266,115.266,0,0,1,135.115,349a53.369,53.369,0,0,0,1.007-12.5Z" fill="#b7b1e0"></path><path id="Path_24720" data-name="Path 24720" d="M133.02,317.467l-6.974-.792c.584.829,1.162,1.62,1.685,2.359a27.657,27.657,0,0,1,3.3,6.814l4.179,1.093A70.267,70.267,0,0,0,133.02,317.467Z" fill="#b7b1e0"></path><path id="Path_24721" data-name="Path 24721" d="M137.7,335.244c.019-.365.042-.745.065-1.129l-.993,1.126a76,76,0,0,0-.76-7.713l2.574-2.822c.017-.154.031-.3.048-.455.026-.237.05-.476.075-.715l-2.837,3.11a70.926,70.926,0,0,0-2.185-9.381l5.177-4.65c-.016-.144-.031-.288-.048-.431l-.06-.462-5.3,4.809a73.582,73.582,0,0,0-3.554-9.072l.08.051,4.243-6.5c-.169-.163-.354-.308-.536-.456l-4.091,6.264a64.565,64.565,0,0,0-3.837-6.894q-.3.171-.593.367a63.586,63.586,0,0,1,3.843,6.91l-7.228-1.231c-.021.234-.031.468-.032.7l7.624,1.3a72.658,72.658,0,0,1,3.416,8.765l-7.28-.826q.266.387.531.762l6.974.792a70.267,70.267,0,0,1,2.193,9.474l-4.179-1.093c.091.263.181.525.269.792l4.027,1.053a75.132,75.132,0,0,1,.764,8.023l-2.816-1.322c.056.283.112.567.165.848l2.679,1.258a53.369,53.369,0,0,1-1.007,12.5c.016.3.024.466.024.466l.6-.049a54.045,54.045,0,0,0,1.075-13.171Z" fill="#5f58a4"></path></g><g id="Group_4377" data-name="Group 4377"><path id="Path_24722" data-name="Path 24722" d="M142.3,324.456l6.576-8.664a15.866,15.866,0,0,0-2.73-5.049,15.462,15.462,0,0,0-1.608-1.694l-4.087,6.685A77.562,77.562,0,0,1,142.3,324.456Z" fill="#4b4491"></path><path id="Path_24723" data-name="Path 24723" d="M144.062,308.64a7.006,7.006,0,0,0-5.417-1.847,5.954,5.954,0,0,0-1.085.281,75.992,75.992,0,0,1,2.666,7.84Z" fill="#4b4491"></path><path id="Path_24724" data-name="Path 24724" d="M139.855,315.985l-7.471-1.821a13.576,13.576,0,0,0-.274,2.9,17.676,17.676,0,0,0,1.586,6.826l8.022.959A76.412,76.412,0,0,0,139.855,315.985Z" fill="#4b4491"></path><path id="Path_24725" data-name="Path 24725" d="M136.955,307.319c-2.271,1.084-3.744,3.518-4.418,6.165l7.106,1.731A74.719,74.719,0,0,0,136.955,307.319Z" fill="#4b4491"></path><path id="Path_24726" data-name="Path 24726" d="M142.716,340.689l2.559-1.516c.9-2.659,1.962-5.828,3.227-9.59.106-.313.2-.628.3-.944l-5.766,4.9A65.2,65.2,0,0,1,142.716,340.689Z" fill="#4b4491"></path><path id="Path_24727" data-name="Path 24727" d="M142.921,330.247q.075,1.26.1,2.467l6.077-5.17a23.806,23.806,0,0,0,.737-4.969,19.424,19.424,0,0,0-.73-6.05l-6.679,8.8C142.647,326.919,142.819,328.565,142.921,330.247Z" fill="#4b4491"></path><path id="Path_24728" data-name="Path 24728" d="M142.3,330.343c-.1-1.634-.264-3.234-.475-4.785l-7.783-.929a27.1,27.1,0,0,0,2.446,4.05,18.121,18.121,0,0,1,1.92,3.375l4,.905C142.383,332.107,142.35,331.236,142.3,330.343Z" fill="#4b4491"></path><path id="Path_24729" data-name="Path 24729" d="M140.2,340.574a31.579,31.579,0,0,1-1.265,9.713l1.272.428a55.216,55.216,0,0,0,1.8-9.215Z" fill="#4b4491"></path><path id="Path_24730" data-name="Path 24730" d="M142.411,333.676l-3.685-.835a22.926,22.926,0,0,1,1.437,6.932l1.923.986A64.612,64.612,0,0,0,142.411,333.676Z" fill="#4b4491"></path><path id="Path_24731" data-name="Path 24731" d="M140.79,350.912l.481.161,3.686-10.953L142.63,341.5A56.189,56.189,0,0,1,140.79,350.912Z" fill="#4b4491"></path><path id="Path_24732" data-name="Path 24732" d="M142.716,340.689a65.2,65.2,0,0,0,.319-7.147l5.766-4.9c.108-.363.206-.728.3-1.1l-6.077,5.17q-.028-1.207-.1-2.467c-.1-1.682-.274-3.328-.493-4.921l6.679-8.8c-.07-.247-.148-.49-.229-.733l-6.576,8.664a77.562,77.562,0,0,0-1.849-8.722l4.087-6.685c-.156-.141-.316-.277-.478-.409l-3.836,6.274a75.992,75.992,0,0,0-2.666-7.84,6.169,6.169,0,0,0-.6.245,74.719,74.719,0,0,1,2.688,7.9l-7.106-1.731c-.057.226-.107.452-.153.68l7.471,1.821a76.412,76.412,0,0,1,1.863,8.862l-8.022-.959q.165.373.342.741l7.783.929c.211,1.551.376,3.151.475,4.785.054.893.087,1.764.1,2.616l-4-.905c.114.261.22.524.322.787l3.685.835a64.612,64.612,0,0,1-.325,7.083l-1.923-.986c.015.27.027.536.035.8l1.808.926a55.216,55.216,0,0,1-1.8,9.215l.585.2a56.189,56.189,0,0,0,1.84-9.414l2.327-1.378c.1-.308.21-.624.318-.947Z" fill="#5f58a4"></path></g></g><path id="Path_24733" data-name="Path 24733" d="M155.331,349.4H127.052l2.083,25.135h24.113Z" fill="#00ad9f" fill-rule="evenodd"></path><path id="Path_24734" data-name="Path 24734" d="M154.994,353.462H127.389l-.337-4.062h28.278Z" fill="#383948" fill-rule="evenodd"></path></g><g id="Group_4389" data-name="Group 4389"><g id="Group_4380" data-name="Group 4380"><path id="Path_24735" data-name="Path 24735" d="M322.116,326.671c1.545,21.077,1.543,38.256-.005,38.369s-4.055-16.881-5.6-37.958c-.952-12.994-1.316-24.505-1.093-31.451.139-4.322.505-6.876,1.1-6.919C318.064,288.6,320.571,305.593,322.116,326.671Z" fill="#b7b1e0" fill-rule="evenodd"></path><rect id="Rectangle_5234" data-name="Rectangle 5234" width="3.847" height="2.841" transform="translate(315.149 296.367) rotate(-4.192)" fill="#5193f4"></rect><path id="Path_24736" data-name="Path 24736" d="M316,281.624v0s-6.948,9.476-.848,14.743l1.918-.141.127-.009,1.792-.132C324.252,289.986,316,281.624,316,281.624Z" fill="#4b4491" fill-rule="evenodd"></path></g><g id="Group_4381" data-name="Group 4381"><path id="Path_24737" data-name="Path 24737" d="M316.756,315.119c2.579,20.976,3.421,38.134,1.881,38.323s-4.88-16.661-7.459-37.637c-1.59-12.931-2.52-24.411-2.639-31.359-.073-4.323.167-6.892.757-6.965C310.837,277.292,314.176,294.143,316.756,315.119Z" fill="#5193f4" fill-rule="evenodd"></path><rect id="Rectangle_5235" data-name="Rectangle 5235" width="3.847" height="2.841" transform="matrix(0.993, -0.122, 0.122, 0.993, 308.307, 285.194)" fill="#5f58a4"></rect><path id="Path_24738" data-name="Path 24738" d="M308.429,270.427l0,.017,0-.017s-6.474,9.806-.122,14.767l1.909-.235.126-.016,1.783-.219C317.086,278.373,308.429,270.427,308.429,270.427Z" fill="#383948" fill-rule="evenodd"></path></g><g id="Group_4382" data-name="Group 4382"><path id="Path_24739" data-name="Path 24739" d="M339.914,325.826c0,23.43-1.395,42.424-3.115,42.424s-3.115-18.994-3.115-42.424c0-14.443.53-27.2,1.339-34.863.5-4.767,1.116-7.561,1.776-7.561C338.519,283.4,339.914,302.4,339.914,325.826Z" fill="#5f58a4" fill-rule="evenodd"></path><rect id="Rectangle_5236" data-name="Rectangle 5236" width="4.265" height="3.15" transform="translate(334.666 291.755)" fill="#b7b1e0"></rect><path id="Path_24740" data-name="Path 24740" d="M336.8,272.895v0s-7.983,9.366-4.408,16.728a4.7,4.7,0,0,0,4.24,2.593h.336a4.7,4.7,0,0,0,4.24-2.593C344.782,282.261,336.8,272.895,336.8,272.895Z" fill="#47485c" fill-rule="evenodd"></path></g><g id="Group_4384" data-name="Group 4384"><path id="Path_24741" data-name="Path 24741" d="M330.528,313.851c1.056,21.107.655,38.281-.9,38.359s-3.662-16.971-4.717-38.079c-.651-13.012-.748-24.529-.364-31.467.239-4.317.665-6.862,1.259-6.892C327.361,275.7,329.473,292.743,330.528,313.851Z" fill="#5193f4" fill-rule="evenodd"></path><rect id="Rectangle_5237" data-name="Rectangle 5237" width="3.847" height="2.841" transform="translate(324.266 283.393) rotate(-2.862)" fill="#fff"></rect><g id="Group_4383" data-name="Group 4383"><path id="Path_24742" data-name="Path 24742" d="M327.988,271.752l-.409,4.734-.235-4.7-.328.016-2.8.14-.521.026.118,2.37-.676-2.342-1.722.086c.414,8.275,2.851,11.312,2.851,11.312l.521-.026,2.8-.14.52-.026s2.122-3.265,1.709-11.54Z" fill="#383948"></path></g></g><g id="Group_4386" data-name="Group 4386"><path id="Path_24743" data-name="Path 24743" d="M353.876,320.743c-4.274,20.7-8.971,37.221-10.49,36.908s.712-17.347,4.986-38.045c2.635-12.759,5.43-23.932,7.543-30.552,1.314-4.119,2.364-6.476,2.947-6.355C360.382,283.012,358.149,300.045,353.876,320.743Z" fill="#5193f4" fill-rule="evenodd"></path><rect id="Rectangle_5238" data-name="Rectangle 5238" width="2.841" height="3.847" transform="translate(354.88 292.471) rotate(-78.333)" fill="#fff"></rect><g id="Group_4385" data-name="Group 4385"><path id="Path_24744" data-name="Path 24744" d="M361.978,279.354l-1.584,4.479.952-4.61-.321-.066-2.746-.567-.51-.106-.48,2.324-.068-2.437-1.688-.348c-1.675,8.114-.078,11.665-.078,11.665l.511.105,2.746.568.511.105s2.873-2.628,4.548-10.742Z" fill="#383948"></path></g></g><g id="Group_4388" data-name="Group 4388"><g id="Group_4387" data-name="Group 4387"><path id="Path_24745" data-name="Path 24745" d="M340.037,279.474l-.252,2.358,8.369.9,8.369.9.252-2.358Z" fill="#fff"></path><path id="Path_24746" data-name="Path 24746" d="M348.154,282.728l-8.369-.895a5.73,5.73,0,0,0,1.775,5.111,8.457,8.457,0,0,1,2.911,7.651c-1.348,7.711-2.766,17.963-3.977,29.282-2.591,24.219-3.25,44.006-1.472,44.2s5.321-19.289,7.912-43.508c1.211-11.314,2-21.637,2.31-29.461a8.456,8.456,0,0,1,4.464-6.862,5.73,5.73,0,0,0,2.815-4.62Z" fill="#5193f4"></path></g><path id="Path_24747" data-name="Path 24747" d="M340.037,279.474l1.542-14.41,4.693.5.286,5.457.8-5.341,4.474.479-.108,8.6,1.2-8.485,5.392.577-1.542,14.41Z" fill="#4c9bf1" fill-rule="evenodd"></path></g><path id="Path_24748" data-name="Path 24748" d="M356.166,310.61H310.673l4.119,62.949h37.254Z" fill="#52d2bc" fill-rule="evenodd"></path><rect id="Rectangle_5239" data-name="Rectangle 5239" width="46.058" height="5.421" transform="translate(310.108 310.61)" fill="#383948"></rect></g><g id="Group_4405" data-name="Group 4405"><g id="Group_4404" data-name="Group 4404"><g id="Group_4391" data-name="Group 4391"><g id="Group_4390" data-name="Group 4390"><rect id="Rectangle_5240" data-name="Rectangle 5240" width="2.957" height="47.169" transform="translate(374.646 323.116)" fill="#5193f4"></rect><path id="Path_24749" data-name="Path 24749" d="M376.125,317.6l-1.478,5.512H377.6Z" fill="#4b4491" fill-rule="evenodd"></path></g><path id="Path_24750" data-name="Path 24750" d="M375.46,320.082h1.329l-.664-2.478Z" fill="#383948" fill-rule="evenodd"></path></g><g id="Group_4393" data-name="Group 4393"><g id="Group_4392" data-name="Group 4392"><rect id="Rectangle_5241" data-name="Rectangle 5241" width="2.957" height="47.169" transform="matrix(0.996, -0.089, 0.089, 0.996, 356.963, 321.347)" fill="#5f58a4"></rect><path id="Path_24751" data-name="Path 24751" d="M357.946,315.726l-.983,5.621,2.945-.263Z" fill="#4b4491" fill-rule="evenodd"></path></g><path id="Path_24752" data-name="Path 24752" d="M357.5,318.253l1.324-.118-.882-2.409Z" fill="#5f58a4" fill-rule="evenodd"></path></g><g id="Group_4395" data-name="Group 4395"><g id="Group_4394" data-name="Group 4394"><rect id="Rectangle_5242" data-name="Rectangle 5242" width="2.956" height="47.169" transform="matrix(-1, -0.011, 0.011, -1, 381.78, 368.317)" fill="#5f58a4"></rect><path id="Path_24753" data-name="Path 24753" d="M380.9,315.623l1.415,5.528-2.956-.034Z" fill="#4b4491" fill-rule="evenodd"></path></g><path id="Path_24754" data-name="Path 24754" d="M381.541,318.108l-1.329-.015.693-2.47Z" fill="#5f58a4" fill-rule="evenodd"></path></g><g id="Group_4397" data-name="Group 4397"><g id="Group_4396" data-name="Group 4396"><rect id="Rectangle_5243" data-name="Rectangle 5243" width="2.957" height="47.169" transform="translate(370.264 320.36)" fill="#383948"></rect><path id="Path_24755" data-name="Path 24755" d="M371.742,314.848l-1.478,5.511h2.957Z" fill="#4b4491" fill-rule="evenodd"></path></g><path id="Path_24756" data-name="Path 24756" d="M371.078,317.326h1.329l-.664-2.477Z" fill="#383948" fill-rule="evenodd"></path></g><g id="Group_4399" data-name="Group 4399"><g id="Group_4398" data-name="Group 4398"><rect id="Rectangle_5244" data-name="Rectangle 5244" width="2.957" height="47.169" transform="matrix(0.996, 0.084, -0.084, 0.996, 384.018, 320.989)" fill="#eaeaf2"></rect><path id="Path_24757" data-name="Path 24757" d="M385.954,315.622l-1.936,5.368,2.946.248Z" fill="#4b4491" fill-rule="evenodd"></path></g><path id="Path_24758" data-name="Path 24758" d="M385.084,318.035l1.324.112-.454-2.525Z" fill="#eaeaf2" fill-rule="evenodd"></path></g><g id="Group_4401" data-name="Group 4401"><g id="Group_4400" data-name="Group 4400"><rect id="Rectangle_5245" data-name="Rectangle 5245" width="2.957" height="47.169" transform="translate(366.626 319.121)" fill="#4b4491"></rect><path id="Path_24759" data-name="Path 24759" d="M368.1,313.61l-1.478,5.512h2.957Z" fill="#4b4491" fill-rule="evenodd"></path></g><path id="Path_24760" data-name="Path 24760" d="M367.44,316.087h1.329l-.665-2.478Z" fill="#4b4491" fill-rule="evenodd"></path></g><g id="Group_4403" data-name="Group 4403"><g id="Group_4402" data-name="Group 4402"><rect id="Rectangle_5246" data-name="Rectangle 5246" width="2.957" height="47.169" transform="matrix(0.993, -0.12, 0.12, 0.993, 360.681, 322.461)" fill="#5193f4"></rect><path id="Path_24761" data-name="Path 24761" d="M361.49,316.812l-.807,5.649,2.935-.354Z" fill="#4b4491" fill-rule="evenodd"></path></g><path id="Path_24762" data-name="Path 24762" d="M361.127,319.352l1.319-.159-.956-2.38Z" fill="#47485c" fill-rule="evenodd"></path></g></g><rect id="Rectangle_5247" data-name="Rectangle 5247" width="28.09" height="37.55" transform="translate(357.919 335.663)" fill="#00ad9f"></rect><rect id="Rectangle_5248" data-name="Rectangle 5248" width="28.09" height="15.094" transform="translate(357.919 346.7)" fill="#b7b1e0"></rect></g><g id="Group_4406" data-name="Group 4406"><path id="Path_24763" data-name="Path 24763" d="M173.273,215.022,198.737,239.5l13.429,4.663-1.19,5.909-19.327-2.255S166.8,231.039,166.8,230.192,173.273,215.022,173.273,215.022Z" fill="#619bff" fill-rule="evenodd"></path><path id="Path_24764" data-name="Path 24764" d="M224.179,252.3a3.723,3.723,0,1,1,1.378-5.08A3.724,3.724,0,0,1,224.179,252.3Z" fill="#dcaa90" fill-rule="evenodd"></path><path id="Path_24765" data-name="Path 24765" d="M212.166,244.163l10.866,3.334-.242,3.684-11.813-1.109Z" fill="#dcaa90" fill-rule="evenodd"></path></g><g id="Group_4409" data-name="Group 4409"><g id="Group_4407" data-name="Group 4407"><path id="Path_24766" data-name="Path 24766" d="M258.7,315.3l-.42.093c-3.2.711-7.914-3.43-8.625-6.628l-.36-6.438,6.213-1.38Z" fill="#383948" fill-rule="evenodd"></path><path id="Path_24767" data-name="Path 24767" d="M264.251,323.451H252.535l3.377-11.684,7.988.989Z" fill="#dcaa90" fill-rule="evenodd"></path><path id="Path_24768" data-name="Path 24768" d="M263.9,312.757l-7.987-.989-1.573,5.444c1.787,2.016,4.44,5.145,7.345,5.145a4.625,4.625,0,0,0,2.521-.739Z" fill="#c78f71" fill-rule="evenodd"></path><path id="Path_24769" data-name="Path 24769" d="M265.11,318.967a9.76,9.76,0,0,1-11.645-7.41l-2.358-10.611,16.337-3.634a84.874,84.874,0,0,1,1.895,14.14C269.378,315.845,267.791,318.369,265.11,318.967Z" fill="#dcaa90" fill-rule="evenodd"></path><rect id="Rectangle_5249" data-name="Rectangle 5249" width="3.145" height="1.428" transform="translate(251.139 305.21) rotate(-12.523)" fill="#383948"></rect><path id="Path_24770" data-name="Path 24770" d="M255.789,308.936c.46,2.07-.158,3.969-1.38,4.241s-3.174-2.144-3.635-4.214a2.485,2.485,0,0,1,1.968-3.285C253.964,305.406,255.329,306.865,255.789,308.936Z" fill="#dcaa90" fill-rule="evenodd"></path><path id="Path_24771" data-name="Path 24771" d="M264.724,293.652a6.83,6.83,0,0,0-1.856-.231c-3.372-1.17-4.154-1.687-6.759-.9-2.651.806-3.263,2.343-3.263,2.343s-5.773,1.018-5.234,7.786a14.346,14.346,0,0,0,2.277,6.481c-.037-.457-.015-.95-.015-1.412a6.43,6.43,0,0,1,.95-3.085l2.109,1.223,1.332,2.32.217-.047a2.029,2.029,0,0,0,1.565-2.293,3.2,3.2,0,0,1,2.3-3.807l1.662-.369a6.881,6.881,0,0,1,2.168,1.039c2.542,1.79,4.7,2.505,6.579,2.035l.133.948.157-1.03a5.733,5.733,0,0,0,2.356-1.542c2.053-2.132,2.1-11.1-3.183-12.891C268.221,290.223,267.1,293.268,264.724,293.652Z" fill="#383948" fill-rule="evenodd"></path><path id="Path_24772" data-name="Path 24772" d="M253.048,297.557c-.375,3.026,10.5,6.862,13.374,7.218a5.531,5.531,0,0,0,1.356-10.963C264.909,293.457,253.421,294.53,253.048,297.557Z" fill="#383948" fill-rule="evenodd"></path><path id="Path_24773" data-name="Path 24773" d="M256.143,320.759a36.8,36.8,0,0,1-5.642,2.094c-2.58.645-2.58,0-2.58,0s-1.612,12.093,3.225,14.672,12.254,4.192,12.254,4.192l6.611-3.708-2.26-12.575a47.272,47.272,0,0,0-4.674-3.226C261.3,321.241,256.143,320.759,256.143,320.759Z" fill="#dcaa90" fill-rule="evenodd"></path></g><path id="Path_24774" data-name="Path 24774" d="M268.753,321.945H247.642a3.391,3.391,0,0,0-3.392,3.389l-1.111,21.948L233.165,367.9l23.279,12.681,28.933-10.425-12.071-23.1-1.161-21.724A3.391,3.391,0,0,0,268.753,321.945Z" fill="#5193f4" fill-rule="evenodd"></path><path id="Path_24775" data-name="Path 24775" d="M284.466,370.855l6.874-5.276s17.783-2.817,18.551,9.083l-25.425,5.246Z" fill="#dcaa90" fill-rule="evenodd"></path><path id="Path_24776" data-name="Path 24776" d="M272.145,369.416c5.141,0,12.5-3.271,19.2-3.837,0,0-8.191,7.163-4.735,16.632a77.547,77.547,0,0,1-28.407,5.63V369.416Z" fill="#383948" fill-rule="evenodd"></path><path id="Path_24777" data-name="Path 24777" d="M297.862,390.013c-10.639,3.165-23.581,2.743-29.4,2.329-.32-.02-.62-.047-.9-.067a14.341,14.341,0,0,0-5.592.655,26.239,26.239,0,0,0-3.518,1.44c-.262.131-.529.253-.79.374a33.894,33.894,0,0,1-6.762,2.179,12.766,12.766,0,0,1,.262-3.317,9.579,9.579,0,0,1,2.173-4.481h7.257a12.95,12.95,0,0,0,7.152-2.2c27.635-18.68,42.145-12.26,42.145-12.26S312.064,385.8,297.862,390.013Z" fill="#dcaa90" fill-rule="evenodd"></path><path id="Path_24778" data-name="Path 24778" d="M285.758,377.078s4.1-3.191,11.787-4.481a25.786,25.786,0,0,0-11.366,1.535S285.34,376.075,285.758,377.078Z" fill="#c78f71" fill-rule="evenodd"></path><path id="Path_24779" data-name="Path 24779" d="M234.1,370.855l-6.872-5.276s-17.785-2.817-18.555,9.083l25.427,5.246Z" fill="#dcaa90" fill-rule="evenodd"></path><path id="Path_24780" data-name="Path 24780" d="M227.233,365.579s8.189,7.163,4.735,16.632a66.922,66.922,0,0,0,27.126,5.63V369.416H244.25C239.1,369.416,233.553,366.114,227.233,365.579Z" fill="#383948" fill-rule="evenodd"></path><path id="Path_24781" data-name="Path 24781" d="M268.46,392.342c-.32-.02-.62-.047-.9-.067a14.341,14.341,0,0,0-5.592.655,26.239,26.239,0,0,0-3.518,1.44c-.262.131-.529.253-.79.374-.481-.2-.982-.374-1.484-.543a12.925,12.925,0,0,0-4.012-.635c-.328,0-.677.014-1,.04a9.579,9.579,0,0,1,2.173-4.481h7.257a12.705,12.705,0,0,0,5.351-1.19l.236.241A10.43,10.43,0,0,1,268.46,392.342Z" fill="#c78f71" fill-rule="evenodd"></path><path id="Path_24782" data-name="Path 24782" d="M208.678,374.662s14.509-6.421,42.149,12.261a12.764,12.764,0,0,0,7.15,2.2h7.259a10.642,10.642,0,0,1,2.432,7.806,33.575,33.575,0,0,1-7.549-2.558,26.067,26.067,0,0,0-3.522-1.44,14.308,14.308,0,0,0-5.593-.657c-5.284.423-19.07,1.083-30.3-2.255C206.5,385.8,208.678,374.662,208.678,374.662Z" fill="#dcaa90" fill-rule="evenodd"></path><path id="Path_24783" data-name="Path 24783" d="M268.753,321.945s5.7-1.109,14.4,19.832c0,0-2.951,6.4-12.225,5.5Z" fill="#c13127" fill-rule="evenodd"></path><path id="Path_24784" data-name="Path 24784" d="M247.642,321.945s-5.694-1.109-14.4,19.832c0,0,2.955,6.4,12.226,5.5l.3-3.525Z" fill="#5193f4" fill-rule="evenodd"></path><path id="Path_24785" data-name="Path 24785" d="M243.139,347.281l4.1-15.979-5.152,15.979Z" fill="#383948" fill-rule="evenodd"></path><path id="Path_24786" data-name="Path 24786" d="M232.638,377.078s-4.1-3.191-11.79-4.481a25.8,25.8,0,0,1,11.369,1.535S233.056,376.075,232.638,377.078Z" fill="#c78f71" fill-rule="evenodd"></path><path id="Path_24787" data-name="Path 24787" d="M264.5,321.945c-6.745-1.655-11.325,0-11.325,0C256.239,327.055,260.938,327.055,264.5,321.945Z" fill="#dcaa90" fill-rule="evenodd"></path><path id="Path_24788" data-name="Path 24788" d="M233.908,342.836c-2.1,4.923-5.031,12.615-4.263,15.551,2.055,4.441,8.6,3.524,14.1.924,8.021-3.79,16.42-3.186,10.255-.827,0,0-11.482.043-14.86-2.937l3.3-8.233A11.389,11.389,0,0,1,233.908,342.836Z" fill="#dcaa90" fill-rule="evenodd"></path><path id="Path_24789" data-name="Path 24789" d="M282.829,342.34c2.1,4.923,5.183,13.111,4.415,16.047-2.055,4.441-8.6,3.524-14.1.924-8.022-3.79-16.421-3.186-10.255-.827,0,0,11.482.043,14.86-2.937l-3.3-8.233C279.461,345.647,281.734,343.833,282.829,342.34Z" fill="#dcaa90" fill-rule="evenodd"></path><g id="Group_4408" data-name="Group 4408"><path id="Path_24790" data-name="Path 24790" d="M278.978,354.262H237.419a2.19,2.19,0,0,0-2.166,2.512l3.2,21.542a1.818,1.818,0,0,0-1.386,1.758h0a1.819,1.819,0,0,0,1.814,1.814h38.371a1.82,1.82,0,0,0,1.815-1.814h0a1.816,1.816,0,0,0-1.742-1.807l3.808-21.432A2.19,2.19,0,0,0,278.978,354.262Z" fill="#5871a4"></path><path id="Path_24791" data-name="Path 24791" d="M260.812,366.056a2.617,2.617,0,1,1-3.7,0A2.616,2.616,0,0,1,260.812,366.056Z" fill="#fff"></path></g><path id="Path_24792" data-name="Path 24792" d="M268.753,321.945s5.7-1.109,14.4,19.832c0,0-2.951,6.4-12.225,5.5Z" fill="#5193f4" fill-rule="evenodd"></path><path id="Path_24793" data-name="Path 24793" d="M273.363,347.269,269.117,331.3l5.294,15.967Z" fill="#383948" fill-rule="evenodd"></path></g><g id="Group_4411" data-name="Group 4411"><g id="Group_4410" data-name="Group 4410"><rect id="Rectangle_5250" data-name="Rectangle 5250" width="8.18" height="52.782" transform="translate(225.548 213.67) rotate(19.445)" fill="#4c9bf1"></rect><path id="Path_24794" data-name="Path 24794" d="M231.458,209.217l-5.91,4.454,7.714,2.723Z" fill="#445991" fill-rule="evenodd"></path></g><path id="Path_24795" data-name="Path 24795" d="M228.8,211.218l3.467,1.224-.811-3.226Z" fill="#5f58a4" fill-rule="evenodd"></path></g><g id="Group_4413" data-name="Group 4413"><g id="Group_4412" data-name="Group 4412"><path id="Path_24796" data-name="Path 24796" d="M198.9,187.979l.491,11.491a4.624,4.624,0,0,1-4.443,4.817l-1.512.056-1.879,7.665-10.678-2.618,5.3-21.628Z" fill="#dcaa90" fill-rule="evenodd"></path><path id="Path_24797" data-name="Path 24797" d="M187.222,204.251s4.592-1.149,5.3-4.352c0,0-5.032-4.428-2.866-5.589s4.535,2.993,4.535,2.993-.814-5.279.132-6.366c0,0,7.817,1.907,7.684-3.01,0,0-1.691-2.505-6.54-3.99s-9.6,6.161-9.6,6.161Z" fill="#383948" fill-rule="evenodd"></path><path id="Path_24798" data-name="Path 24798" d="M194.132,184.133a6.265,6.265,0,0,0-3.969-2.07,12.824,12.824,0,0,0-15.048,13.118,7.2,7.2,0,0,0,.5,2.556c.889,2.09,3.039,3.307,5.046,4.371,1.752.931,4.808,2.628,6.634,1.854,0,0-1.168-8.14,1.21-12.5A31.252,31.252,0,0,1,194.132,184.133Z" fill="#383948" fill-rule="evenodd"></path></g><path id="Path_24799" data-name="Path 24799" d="M172.322,271.886,188.4,304.25l9.94,50.135s3.375,1.563,5.748,1.071-.635-60.443-.735-61.509-14.2-31.733-14.2-31.733-7.626,5.106-16.271,18.575C179.149,270.079,172.322,271.886,172.322,271.886Z" fill="#383948" fill-rule="evenodd"></path><path id="Path_24800" data-name="Path 24800" d="M188.395,265.008l-8.667,18.733L175.7,328.025l-2.709,53.448-5.755.522-5.874-65.527-5.116-43.751Z" fill="#47485c" fill-rule="evenodd"></path><path id="Path_24801" data-name="Path 24801" d="M183.016,206.24l-2.541,4.619-9.773,3.507a7.03,7.03,0,0,0-4.444,4.907l-12.839,54.312,10.159,2.794,23.507-4.506,1.8-2.262L193.126,220l-1.616-3.092,1.232-5Z" fill="#0056ec" fill-rule="evenodd"></path><path id="Path_24802" data-name="Path 24802" d="M168.62,223.818l19.656,30.963,23.779-7.908-.92-6.529L192.64,243l-10.672-24.49S171.337,210.884,168.62,223.818Z" fill="#0246bc" fill-rule="evenodd"></path><path id="Path_24803" data-name="Path 24803" d="M223.951,243.655l-11.9,3.219-.919-6.53,11.243-1.859Z" fill="#dcaa90" fill-rule="evenodd"></path><path id="Path_24804" data-name="Path 24804" d="M224.5,244.606a3.723,3.723,0,1,1,3.288-4.112A3.724,3.724,0,0,1,224.5,244.606Z" fill="#dcaa90" fill-rule="evenodd"></path><path id="Path_24805" data-name="Path 24805" d="M173.226,384.637c3.215.548,6.711,1.022,9.725-.387-.2-1.032-1.54-1.372-2.655-1.519q-3.243-.43-6.491-.857c-.929-.122-6.634-.853-6.3.46C167.891,383.875,171.9,384.411,173.226,384.637Z" fill="#dcaa90" fill-rule="evenodd"></path><path id="Path_24806" data-name="Path 24806" d="M210.145,352.5a9.763,9.763,0,0,1,4.628.439c.383.168.793.468.779.886-.018.493-.593.745-1.072.863a47.591,47.591,0,0,1-8.416,1.049q-3.4.225-6.8.443a.768.768,0,0,1-.468-.069,2.24,2.24,0,0,1-.472-2.136c.456-.661,2.777-.575,3.526-.668Q205.987,352.79,210.145,352.5Z" fill="#dcaa90" fill-rule="evenodd"></path><path id="Path_24807" data-name="Path 24807" d="M179.424,204.044a43.876,43.876,0,0,0-9.929,2.466,14.744,14.744,0,0,0-7.616,6.55,3.08,3.08,0,0,0-.371,2.473,2.788,2.788,0,0,0,.9,1.088c2.868,2.3,6.989,1.8,10.614,1.192,6.044-1.024,12.2-2.076,17.653-4.868.4-.206.858-.523.815-.972a1.157,1.157,0,0,0-.433-.674C188.269,208.643,182.492,206.367,179.424,204.044Z" fill="#47485c" fill-rule="evenodd"></path></g><path id="Path_24808" data-name="Path 24808" d="M267.922,278.511a20.224,20.224,0,0,1-10.726-2.693c-3.413-2.106-5.419-4.671-5.964-7.622-1.112-6.02,3.85-12.514,8.649-18.794,4.178-5.469,8.126-10.635,7.265-14.443-.368-1.629-1.634-2.978-3.872-4.125a14.356,14.356,0,0,0-3.082-1.174,31.49,31.49,0,0,1-3.777,4.554c-6.626,6.707-11.059,9.245-13.169,7.546-1.423-1.145-1.081-3.829.872-6.839,3.031-4.669,8.668-8.385,15.046-7.552,2.389-4.08,2.88-8.1,1.4-11.855-2.8-7.117-11.949-11.673-19.169-11.966-4.545-.186-7.922,1.3-9.289,4.086a1.041,1.041,0,1,1-1.869-.918c1.746-3.555,5.853-5.462,11.242-5.249,7.778.316,17.79,5.079,21.023,13.284,1.244,3.158,1.759,7.672-1.188,13.068a16.155,16.155,0,0,1,2.909,1.162c2.782,1.425,4.447,3.282,4.954,5.518,1.075,4.759-3.159,10.3-7.643,16.167-4.522,5.92-9.2,12.04-8.255,17.151.439,2.382,2.079,4.419,5.01,6.229,11.8,7.28,37.657-2.894,48.545-19.1,4.488-6.681,9.589-19.659-6.669-31.515a1.041,1.041,0,1,1,1.226-1.683c12.9,9.41,15.519,21.934,7.172,34.359C300.437,268.2,282.082,278.511,267.922,278.511ZM257.3,229.3c-5.409,0-9.525,3.82-11.431,6.756-1.517,2.339-1.555,3.889-1.313,4.084.366.292,3.185-.1,10.383-7.389a30.666,30.666,0,0,0,2.95-3.435C257.687,229.3,257.49,229.3,257.3,229.3Z" fill="#4c9bf1"></path></g></g></g></svg> 