<svg xmlns="http://www.w3.org/2000/svg" width="399.476" height="385" viewBox="0 0 399.476 385"><path d="M441.039,500.882H228.669s-149.681-96.548-86.377-190.5c27.475-40.774,167.259-138.433,249.2-138.433C662.225,171.954,441.039,500.882,441.039,500.882Z" transform="translate(-126.682 -121.15)" fill="rgba(0,102,193,0.05)"/><ellipse cx="106.185" cy="5.268" rx="106.185" ry="5.268" transform="translate(101.988 374.464)" fill="#d5d5d5"/><g transform="translate(143.888 183.039)"><g transform="translate(0 83.883)"><path d="M323.354,429.925h-4.449l-44.647-112.81h8.9Z" transform="translate(-198.431 -317.115)"/><path d="M223.328,429.925h4.449l44.647-112.81h-8.9Z" transform="translate(-223.328 -317.115)"/></g><g transform="translate(8.917)"><path d="M336.4,334.658s-17.3-73.536-53.448-73.881l-.1,0h-.094v0c-36.147.345-53.45,73.881-53.45,73.881s0,17.325,53.45,17.366h.189C336.4,351.984,336.4,334.658,336.4,334.658Z" transform="translate(-229.317 -260.773)" fill="#fff"/><path d="M336.4,312.058s0,17.325-53.448,17.366h-.191c-53.447-.04-53.448-17.366-53.448-17.366s.444-1.882,1.335-5.049c7.282,4.737,22.07,9.551,52.1,9.575h.21c14.79-.012,25.885-1.185,34.2-2.939,8.574-1.807,14.2-4.233,17.9-6.637C335.962,310.175,336.4,312.058,336.4,312.058Z" transform="translate(-229.317 -238.173)" fill="#d5d5d5"/></g></g><path d="M293.62,211.7a19.552,19.552,0,0,0-39.041,0,62.96,62.96,0,0,0-4.922,25.14c0,23.069,10.943,41.769,24.443,41.769s24.443-18.7,24.443-41.769A62.935,62.935,0,0,0,293.62,211.7Z" transform="translate(-66.57 -110.741)"/><path d="M276.3,227.436c-20.352,0-31.143,9.694-31.143,9.694a482.771,482.771,0,0,1,5.1,69.928l4.723,5.555,39.882-.5,7.487-5.056a482.774,482.774,0,0,1,5.1-69.928S296.651,227.436,276.3,227.436Z" transform="translate(-68.769 -94.029)" fill="#ff5063"/><g transform="translate(136.698 143.1)"><path d="M238.7,276.769l-3.747-2.047-1.609-8.2,3.552-3.485,5.093-.354C244.745,263.964,247.559,276.546,238.7,276.769Z" transform="translate(-211.244 -219.901)" fill="#ba2267"/><path d="M233.939,274.153s6.423-1.239,7.575-.337c0,0,2.457,1.962,7.562-.013s9.022-2.3,15.241-1.1-.637-9.726-11.272-8.318c-14.33,1.9-18.543,1.042-18.543,1.042S228.6,267.5,233.939,274.153Z" transform="translate(-212.043 -219.132)" fill="#f9ccda"/><path d="M233.916,272.5s6.423-1.239,7.575-.336c0,0,2.457,1.962,7.562-.013s9.022-2.3,15.241-1.1c-2.26-7.547-15.125.235-32.54-2.716A9.543,9.543,0,0,0,233.916,272.5Z" transform="translate(-212.019 -217.479)" fill="#e5a38c"/><path d="M241.168,278.442l20.675-19.99s9.586-9-3.655-24.5c0,0-44,35.8-39.345,56.868Z" transform="translate(-218.499 -233.947)" fill="#ff5063"/><path d="M235.938,275.176l20.675-19.99s5.561-5.22,2.361-14.559c0,0-16.8,8.992-29.778,31.508Z" transform="translate(-213.269 -230.682)" fill="#ba2267"/><path d="M245.837,277.378H218.73l.634-6.1,6.6-8.5,2.485-1.34,20.677,1.854C243.479,265.37,242.152,273.035,245.837,277.378Z" transform="translate(-218.386 -220.509)" fill="#ff5063"/><path d="M218.843,267.531a17.3,17.3,0,0,0,0,6.868H245.95A8.969,8.969,0,0,1,243.894,269C235.793,269,218.843,267.531,218.843,267.531Z" transform="translate(-218.499 -217.531)" fill="#ba2267"/><g transform="translate(87.028)"><path d="M297.185,276.769l3.746-2.047,1.609-8.2-3.551-3.485-5.095-.354C291.134,263.964,288.322,276.546,297.185,276.769Z" transform="translate(-269.999 -219.901)" fill="#ba2267"/><path d="M309.692,274.153s-6.421-1.239-7.575-.337c0,0-2.455,1.962-7.56-.013s-9.022-2.3-15.241-1.1.636-9.726,11.272-8.318c14.33,1.9,18.543,1.042,18.543,1.042S315.027,267.5,309.692,274.153Z" transform="translate(-276.953 -219.132)" fill="#f9ccda"/><path d="M308.916,272.5s-6.421-1.239-7.575-.336c0,0-2.455,1.962-7.56-.013s-9.022-2.3-15.241-1.1c2.26-7.547,15.123.235,32.539-2.716A9.549,9.549,0,0,1,308.916,272.5Z" transform="translate(-276.177 -217.479)" fill="#e5a38c"/><path d="M306.313,278.442l-20.674-19.99s-9.586-9,3.654-24.5c0,0,44,35.8,39.346,56.868Z" transform="translate(-274.347 -233.947)" fill="#ff5063"/><path d="M306.313,275.176l-20.674-19.99s-5.562-5.22-2.363-14.559c0,0,16.8,8.992,29.779,31.508Z" transform="translate(-274.347 -230.682)" fill="#ba2267"/><path d="M296.293,277.378H323.4l-.634-6.1-6.6-8.5-2.485-1.34L293,263.291C298.652,265.37,299.977,273.035,296.293,277.378Z" transform="translate(-269.107 -220.509)" fill="#ff5063"/><path d="M322.32,267.531a17.3,17.3,0,0,1,0,6.868H295.213A8.978,8.978,0,0,0,297.269,269C305.37,269,322.32,267.531,322.32,267.531Z" transform="translate(-268.027 -217.531)" fill="#ba2267"/></g></g><g transform="translate(189.711 94.872)"><path d="M278.591,225.794l-.453-5.662h-15.47l-.5,6.228a7.009,7.009,0,0,1-5.355,6.247l-.046.01s1.733,9.974,13.769,9.974,13.944-9.974,13.944-9.974l-.051-.012A7.643,7.643,0,0,1,278.591,225.794Z" transform="translate(-252.805 -192.471)" fill="#f9ccda"/><path d="M276.2,225.71s-2.013,6.941-7.514,6.941-7.956-7.5-7.956-7.5v-5.433H276.2Z" transform="translate(-250.868 -192.674)" fill="#e5a38c"/><path d="M285.312,202.1c0,26.635-6.484,36.661-14.482,36.661s-14.483-10.026-14.483-36.661Z" transform="translate(-253.011 -201.284)" fill="#f9ccda"/><path d="M258.435,209.86c5.765,5.55,19.658-.768,24.357,6.939l-.944-5.139-23.413-6.235Z" transform="translate(-251.99 -199.66)" fill="#e5a38c"/><path d="M286.416,201.614l-30.181-.061-.618,7.243,1.447,9.874,1.081.454a33.2,33.2,0,0,0,2.516-9.192c6.984,4.611,21.024,2.844,23.718,9.19l4.172-6.983Z" transform="translate(-253.368 -201.553)"/><path d="M275.077,209.451s1.645-2.674,3.7-1.029-.884,10.593-4.073,10.593Z" transform="translate(-244.037 -198.456)" fill="#f9ccda"/><path d="M258.461,209.451s-1.645-2.674-3.7-1.029,1.129,10.593,4.316,10.593Z" transform="translate(-254.106 -198.456)" fill="#f9ccda"/></g><g transform="translate(161.239 207.189)"><g transform="translate(0 5.839)"><g transform="translate(6.956 104.808)"><path d="M246.013,404.1h0a10.6,10.6,0,0,0,11.315-9.831l1.4-19.937a3.3,3.3,0,0,0-3.065-3.529l-12.177-.856-2.945,14.483-.868,12.369A6.837,6.837,0,0,0,246.013,404.1Z" transform="translate(-239.654 -342.204)"/><path d="M246.835,400.8h0a7.079,7.079,0,0,0,7.559-6.566l2.945-41.925-14.124-.993L240.27,393.24A7.079,7.079,0,0,0,246.835,400.8Z" transform="translate(-239.362 -351.313)" fill="#f9ccda"/><path d="M255.287,374.946l1.641-22.64-14.124-.993-1.711,24.354A34.606,34.606,0,0,0,255.287,374.946Z" transform="translate(-238.951 -351.313)" fill="#e5a38c"/></g><path d="M234.982,394.256a62.875,62.875,0,0,0,34.429.863s4.784-102.121-13.687-100.9C236.267,295.5,248.749,322.486,234.982,394.256Z" transform="translate(-234.982 -274.419)" fill="#5c79ff"/><path d="M300.671,280.916a126.2,126.2,0,0,1-27.227,3.024c-15.013,0-24.862-3.024-24.862-3.024l23.735,41.315,7.8,5.19C319.712,327.421,300.671,280.916,300.671,280.916Z" transform="translate(-228.334 -280.916)" fill="#5c79ff"/><path d="M264.9,324.658c-1.6-17.336-5.011-30.888-11.79-30.44-10.629.7-11.726,9.073-12.779,28.224Z" transform="translate(-232.367 -274.419)"/><path d="M293.264,280.916c7.636,47.5-29.528,38.668-29.528,38.668l8.97,7.837C312.3,327.421,293.264,280.916,293.264,280.916Z" transform="translate(-220.927 -280.916)"/></g><g transform="translate(0.948)"><path d="M285.126,335.2l2.71,3.591s-8.659,7.258-41.44,2.236l2.917-3.96Z" transform="translate(-230.351 -248.54)" fill="#1e1e69"/><g transform="translate(30.044 75.416)"><path d="M269.513,380.489h0a10.6,10.6,0,0,1-11.635-9.45l-2.061-19.879a3.3,3.3,0,0,1,2.946-3.628l12.143-1.26,3.423,14.378,1.279,12.333A6.837,6.837,0,0,1,269.513,380.489Z" transform="translate(-255.799 -318.545)"/><path d="M267.96,377.225h0a7.08,7.08,0,0,1-7.773-6.311l-4.334-41.8,14.084-1.461,4.334,41.8A7.079,7.079,0,0,1,267.96,377.225Z" transform="translate(-255.772 -327.649)" fill="#f9ccda"/><path d="M257.841,348.281l-1.988-19.171,14.084-1.461,2.139,20.634C265.941,347.106,257.841,348.281,257.841,348.281Z" transform="translate(-255.772 -327.649)" fill="#e5a38c"/></g><path d="M286.985,332.531c-3.838-22.067-8.156-68.442-32.462-52.131-34.473,26.1-11.257,41.1-11.257,41.1l9.774-1.711-1.871,49.694c28.259-5.593,41.935-2.236,41.935-2.236S290.823,354.6,286.985,332.531Z" transform="translate(-235.619 -276.994)" fill="#5c79ff"/></g></g><g transform="translate(71.844 160.753)"><rect width="269.009" height="4.903" transform="translate(0 39.215)" fill="#fff"/><g transform="translate(102.175)"><path d="M305.847,285.019h-59.9l-2.372-36.5a2.549,2.549,0,0,1,2.543-2.714h59.563a2.548,2.548,0,0,1,2.541,2.714Z" transform="translate(-243.566 -245.804)" fill="#d5d5d5"/><path d="M274.063,261.065a6.79,6.79,0,0,1-13.2,0c-.493-3.112,2.448-6.225,6.6-6.225S274.556,257.953,274.063,261.065Z" transform="translate(-235.136 -241.387)" fill="#fff"/></g><g transform="translate(27.344 9.47)"><path d="M210.534,280.558H196.708l-2.548-25.322h18.922Z" transform="translate(-192.886 -250.664)" fill="#5c79ff"/><rect width="21.47" height="2.286" transform="translate(0 2.286)" fill="#0066c1"/><path d="M213.082,254.451H194.16l1.274-2.286h16.374Z" transform="translate(-192.886 -252.165)" fill="#5c79ff"/><path d="M195.537,270.975,194.16,257.29h18.922l-1.377,13.685Z" transform="translate(-192.886 -249.66)" fill="#0066c1"/><circle cx="4.536" cy="4.536" r="4.536" transform="translate(6.199 9.942)" fill="#fff"/></g><g transform="translate(216.284 24.116)"><g transform="translate(0 7.55)"><path d="M353.814,270.309a2.144,2.144,0,0,1-2.142,2.142H321.188a2.14,2.14,0,1,0,0-4.28h30.483A2.142,2.142,0,0,1,353.814,270.309Z" transform="translate(-319.732 -266.536)" fill="#fff"/><path d="M359.236,267.073H320.21v1.635h31.94a2.14,2.14,0,1,1,0,4.28H320.21v1.635h39.026a3.775,3.775,0,1,0,0-7.55Z" transform="translate(-320.21 -267.073)"/></g><path d="M326.066,265.238a2.144,2.144,0,0,0,2.142,2.142h30.484a2.14,2.14,0,1,1,0-4.28H328.208A2.143,2.143,0,0,0,326.066,265.238Z" transform="translate(-317.348 -261.465)" fill="#fff"/><path d="M323.984,262h39.028v1.635H331.071a2.14,2.14,0,1,0,0,4.28h31.941v1.635H323.984a3.775,3.775,0,0,1,0-7.55Z" transform="translate(-320.21 -262.002)" fill="#5c79ff"/></g></g><g transform="translate(36.177 26.534)"><g transform="translate(21.505 15.609)"><g transform="translate(0 9.733)"><rect width="18.683" height="1.393" transform="translate(14.321 13.067) rotate(-140.043)" fill="#0066c1"/></g><g transform="translate(13.08 1.169) rotate(9)"><path d="M0,0,1.244.1,3.535,28.692l-1.244-.1Z" transform="matrix(-0.667, -0.745, 0.745, -0.667, 0.599, 21.78)" fill="#0066c1"/></g></g><g transform="translate(34.035)"><rect width="1.394" height="9.911" fill="#0066c1"/></g><g transform="translate(59.553 34.035)"><rect width="9.911" height="1.394" fill="#0066c1"/></g><g transform="translate(34.035 59.553)"><rect width="1.394" height="9.911" fill="#0066c1"/></g><g transform="translate(0 34.035)"><rect width="9.911" height="1.394" fill="#0066c1"/></g><g transform="translate(7.488 7.514)"><g transform="translate(39.08 0.065)"><rect width="6.143" height="1.394" transform="matrix(0.5, -0.866, 0.866, 0.5, 0, 5.319)" fill="#0066c1"/></g><g transform="translate(48.437 11.173)"><rect width="6.143" height="1.394" transform="translate(0 3.068) rotate(-29.96)" fill="#0066c1"/></g><g transform="translate(48.408 39.12)"><rect width="1.394" height="6.143" transform="translate(0 1.206) rotate(-59.915)" fill="#0066c1"/></g><g transform="translate(39.032 48.467)"><rect width="1.393" height="6.143" transform="translate(0 0.695) rotate(-29.895)" fill="#0066c1"/></g><g transform="translate(11.07 48.41)"><rect width="6.143" height="1.394" transform="matrix(0.502, -0.865, 0.865, 0.502, 0, 5.312)" fill="#0066c1"/></g><g transform="translate(0 39.024)"><rect width="6.143" height="1.394" transform="translate(0 3.056) rotate(-29.833)" fill="#0066c1"/></g><g transform="translate(0.098 11.057)"><rect width="1.394" height="6.143" transform="matrix(0.503, -0.864, 0.864, 0.503, 0, 1.204)" fill="#0066c1"/></g><g transform="translate(11.244 0)"><rect width="1.394" height="6.143" transform="translate(0 0.692) rotate(-29.77)" fill="#0066c1"/></g></g></g><g transform="translate(12.728 197.805)"><path d="M178.058,394.739h3.454c7.788-38.749-29.275-53.176-42.963-92.467C122.735,348.506,168.033,348.506,178.058,394.739Z" transform="translate(-135.231 -255.254)" fill="#5c79ff"/><path d="M172.922,410.177h3.067c26.61-43.231-17.742-72.127-6.521-139.486C131.032,330.537,170.835,344.652,172.922,410.177Z" transform="translate(-126.641 -270.691)"/><path d="M169.384,399.843c36.262-40.942,3.226-58.306,25.463-108.011-39.665,31.146-7.935,63.747-28.53,108.011Z" transform="translate(-120.036 -260.357)" fill="#5c79ff"/><g transform="translate(21.351 136.804)"><path d="M151.719,362.579v26.587a18.562,18.562,0,0,0,18.563,18.561H178.3a18.562,18.562,0,0,0,18.563-18.561V362.579Z" transform="translate(-148.522 -362.579)" fill="#5c79ff"/><path d="M151.719,362.579l45.148,18.051V362.579Z" transform="translate(-148.522 -362.579)"/><rect width="51.541" height="4.355" transform="translate(0 0.001)" fill="#5c79ff"/></g></g><g transform="translate(234.784)"><path d="M405.725,145.843h-109.5v71.432a4.7,4.7,0,0,0,4.7,4.7h42.893v19.014l19.014-19.014h42.894a4.7,4.7,0,0,0,4.7-4.7V150.539A4.7,4.7,0,0,0,405.725,145.843Z" transform="translate(-278.588 -133.913)" fill="#d5d5d5"/><path d="M401.982,142.1h-104.8a4.7,4.7,0,0,0-4.7,4.7v66.736a4.7,4.7,0,0,0,4.7,4.7h42.894v19.014l19.012-19.014h42.894a4.7,4.7,0,0,0,4.7-4.7V146.8A4.7,4.7,0,0,0,401.982,142.1Z" transform="translate(-280.418 -135.743)" fill="#fff"/><g transform="translate(43.881 25.616)"><rect width="50.566" height="7.089" rx="0.374" fill="#5c79ff"/><rect width="50.566" height="2.369" rx="0.374" transform="translate(0 13.925)" fill="#d5d5d5"/><rect width="50.566" height="2.369" rx="0.374" transform="translate(0 18.662)" fill="#d5d5d5"/><rect width="50.566" height="2.369" rx="0.374" transform="translate(0 23.399)" fill="#d5d5d5"/><rect width="25.283" height="2.369" rx="0.374" transform="translate(0 28.137)" fill="#d5d5d5"/><g transform="translate(32.422 30.505)"><path d="M336.57,175.525a.938.938,0,0,0-.939.939v5.227a.939.939,0,0,0,.939.939h16.265a.939.939,0,0,0,.939-.939v-5.227a.938.938,0,0,0-.939-.939Z" transform="translate(-335.631 -175.525)" fill="#0066c1"/></g></g><path d="M317.914,138.769v20.479a.942.942,0,0,1-.939.939H285.318a.941.941,0,0,1-.938-.939V138.769a.917.917,0,0,1,.051-.3.948.948,0,0,1,.85-.639h31.731a.948.948,0,0,1,.85.639A.917.917,0,0,1,317.914,138.769Z" transform="translate(-284.38 -137.83)" fill="#5c79ff"/><path d="M317.845,138.469l-16.718,11.139-16.713-11.139a.948.948,0,0,1,.85-.639l15.863,10.579L317,137.83A.948.948,0,0,1,317.845,138.469Z" transform="translate(-284.363 -137.83)" fill="#fff"/></g></svg>