<?xml version="1.0" encoding="UTF-8"?> <svg xmlns="http://www.w3.org/2000/svg" width="730" height="576.053" viewBox="0 0 730 576.053"><g transform="translate(0 -54.953)"><g transform="translate(0 54.953)"><rect width="730" height="0.387" transform="translate(0 506.231)" fill="#d1e3ff"></rect><rect width="53.188" height="0.387" transform="translate(498.983 522.604)" fill="#d1e3ff"></rect><rect width="29.929" height="0.387" transform="translate(133.537 522.797)" fill="#d1e3ff"></rect><rect width="60.663" height="0.387" transform="translate(307.621 521.891)" fill="#d1e3ff"></rect><rect width="27.118" height="0.387" transform="translate(281.498 516.394)" fill="#d1e3ff"></rect><rect width="81.915" height="0.387" transform="translate(538.705 516.587)" fill="#d1e3ff"></rect><path d="M345.563,492.234H47.032a8.835,8.835,0,0,1-8.825-8.825V63.776a8.834,8.834,0,0,1,8.825-8.823H345.563a8.834,8.834,0,0,1,8.823,8.823V483.41A8.835,8.835,0,0,1,345.563,492.234ZM47.032,55.34a8.446,8.446,0,0,0-8.438,8.437V483.41a8.447,8.447,0,0,0,8.438,8.438H345.563A8.447,8.447,0,0,0,354,483.41V63.776a8.447,8.447,0,0,0-8.436-8.437Z" transform="translate(20.861 -54.953)" fill="#d1e3ff"></path><path d="M561.857,492.234H263.328a8.834,8.834,0,0,1-8.823-8.825V63.776a8.833,8.833,0,0,1,8.823-8.823H561.857a8.834,8.834,0,0,1,8.826,8.823V483.41A8.836,8.836,0,0,1,561.857,492.234ZM263.328,55.34a8.446,8.446,0,0,0-8.437,8.437V483.41a8.446,8.446,0,0,0,8.437,8.438H561.857a8.448,8.448,0,0,0,8.44-8.438V63.776a8.448,8.448,0,0,0-8.44-8.437Z" transform="translate(95.96 -54.953)" fill="#d1e3ff"></path><g transform="translate(101.53 43.928)"><path d="M344.022,108.861c6.892-14.893,1.421-25.494-15.426-25.494-10.564,0-23.665,4.173-36.421,10.966-1.441-3.873-5.5-6.193-12.029-6.193-11.493,0-27.333,7.172-39.762,17.292-3.007-2.257-7.357-3.639-12.949-3.86-11-.456-24.319,3.664-35.9,10.367-1-1.122-2.724-1.826-5.1-1.931-6.339-.26-14.917,3.9-19.178,9.285-.266.339-.5.665-.737.991H347.368C347.909,115.589,346.783,111.665,344.022,108.861Z" transform="translate(-27.728 -83.367)" fill="#f3f8ff"></path><path d="M492.29,127.66a16.066,16.066,0,0,0-1.713-.091c.532-5.938-2.546-9.731-9.118-9.731-4.743,0-10.562,1.98-16.494,5.331,1.7-11.529-3.738-19.02-16.044-19.02-9.928,0-22.5,4.873-34.912,12.823-1.087-4.524-4.745-7.234-10.89-7.234-10.8,0-26.138,8.375-38.44,20.192,0,0,0,.015-.015,0-2.658-2.634-6.651-4.264-11.9-4.522-10.281-.533-23.045,4.278-34.363,12.121a5.55,5.55,0,0,0-4.67-2.254c-5.623-.289-13.37,4.037-17.869,9.823H501.34C506.162,136.325,502.32,128.651,492.29,127.66Z" transform="translate(17.01 -72.021)" fill="#f3f8ff"></path><g transform="translate(132.299 125.786)"><rect width="13.055" height="59.637" transform="translate(13.055 59.637) rotate(180)" fill="#f3f8ff"></rect></g><g transform="translate(0 41.979)"><rect width="20.481" height="43.529" transform="translate(445.492 218.231) rotate(180)" fill="#f3f8ff"></rect><path d="M371.863,188.46a1.409,1.409,0,0,0,.031-.141,1.572,1.572,0,0,0,.065-.567,1.315,1.315,0,0,0,0-.134,1.674,1.674,0,0,0-.062-.175,1.47,1.47,0,0,0-.036-.164c-.014-.032-.039-.056-.054-.087a1.522,1.522,0,0,0-.186-.277c-.036-.043-.056-.1-.1-.139l-37.9-37.9,0,0a1.345,1.345,0,0,0-.589-.349,1.507,1.507,0,0,0-.2-.071l-189.512-37.9a1.408,1.408,0,0,0-.241-.019c-.022,0-.04-.012-.062-.012s-.019.006-.028.006-.04,0-.06,0a.364.364,0,0,0-.04.006,1.5,1.5,0,0,0-.419.1c-.034.012-.065.025-.1.039-.015.008-.031.006-.046.014s-.02.019-.032.025a1.568,1.568,0,0,0-.368.263l0,0-37.9,37.9h0l-37.9,37.9a1.561,1.561,0,0,0-.334.5,1.532,1.532,0,0,0-.119.591v12.915a1.547,1.547,0,0,0,1.546,1.546h36.356v49.322a5.1,5.1,0,1,0,3.092,0V202.331h34.81V504H121.49v26.842h55.259v-25.3h4.177A1.546,1.546,0,0,0,182.472,504V253.964h26.514V202.331H326.223v80.251c-3.316,1.257-10.367,5.1-13.246,8.14H289.741V366.78H365.8V340.039a15.869,15.869,0,1,1,0-22.576V290.722H342.563c-2.88-3.039-9.93-6.883-13.248-8.14V202.331h3.219a1.523,1.523,0,0,0,.5-.083l37.9-12.914a.326.326,0,0,0,.04-.023c.017-.006.036-.006.053-.014a12.968,12.968,0,0,0,.441-.292,1.387,1.387,0,0,0,.153-.176,1.569,1.569,0,0,0,.182-.271C371.82,188.522,371.848,188.5,371.863,188.46ZM105.121,258.5a2.01,2.01,0,1,1,2.01-2.01A2.012,2.012,0,0,1,105.121,258.5Zm212.674,32.223c3.457-2.378,8.709-5.315,9.919-5.479,1.286.164,6.563,3.1,10.027,5.479ZM106.667,153.7l32.624,32.624H106.667Zm224.321,30.438-32.625-32.624h32.625Zm-2.188,2.186H296.177V153.7Zm-35.716-2.186-32.624-32.624h32.624Zm-2.186,2.186H258.275V153.7Zm-35.716-2.186L222.56,151.514h32.624ZM253,186.323H220.373V153.7Zm-35.716-2.186-32.624-32.624h32.624Zm-2.186,2.186H182.472V153.7Zm-70.527,0V118.615l33.854,67.709Zm-3.092-2.186-32.624-32.624h32.624Zm192.6,2.186V153.7L366.7,186.323Zm-39.449-37.9H180.926a1.569,1.569,0,0,0-.592.119,1.553,1.553,0,0,0-.954,1.427v31.353L145.819,114.2l171.1,34.219Zm-153.155,0H108.853L141.476,115.8Zm-37.9,37.9H70.951L103.575,153.7Zm75.8,278.231H146.755l32.625-32.625ZM144.568,316.038h32.625l-32.625,32.624Zm0,37.9h32.625l-32.625,32.624Zm0,37.9h32.625l-32.625,32.624Zm0,37.9h32.625l-32.625,32.624Zm34.811-3.092H146.755l32.625-32.624Zm0-37.9H146.755l32.625-32.624Zm0-37.9H146.755l32.625-32.624Zm0-37.9H146.755L179.38,280.32Zm-34.811-2.186V278.134h32.625Zm0-70.527h32.625l-32.625,32.624Zm34.811-3.092H146.755l32.625-32.624ZM144.568,467.646h32.625L144.568,500.27Zm2.186-192.6,32.625-32.624v32.624Zm30.439-72.711-32.625,32.624V202.331ZM146.755,502.456l32.625-32.624v32.624Z" transform="translate(-65.673 -110.52)" fill="#d1e3ff"></path><rect width="25.709" height="26.843" transform="translate(128.052 420.324) rotate(180)" fill="#f3f8ff"></rect><path d="M514.923,239.983a1.149,1.149,0,0,0-.244-.369l-55.325-55.327-.006,0a1.225,1.225,0,0,0-.164-.111,1.09,1.09,0,0,0-.125-.1c-.011,0-.022,0-.032-.008a.747.747,0,0,0-.1-.037,1.05,1.05,0,0,0-.142-.029,1.015,1.015,0,0,0-.189-.037c-.014,0-.025-.008-.037-.008a1.236,1.236,0,0,0-.131.026.907.907,0,0,0-.091,0L320.01,211.642a1.156,1.156,0,0,0-.145.053,1.013,1.013,0,0,0-.431.257l-27.663,27.663c-.028.029-.042.068-.068.1a1.113,1.113,0,0,0-.139.209c-.011.022-.028.039-.039.062a.953.953,0,0,0-.025.116,1,1,0,0,0-.046.13c-.006.034,0,.066,0,.1a1,1,0,0,0,0,.181,1.09,1.09,0,0,0,.045.235c.011.032.009.066.022.1s.031.045.043.07a1.1,1.1,0,0,0,.136.2,1.061,1.061,0,0,0,.108.127,1.208,1.208,0,0,0,.2.136.907.907,0,0,0,.122.077.283.283,0,0,0,.039.011c.011,0,.017.012.028.017l27.666,9.424a1.119,1.119,0,0,0,.363.06h2.35v98.525c-2.413.914-7.538,3.706-9.652,5.921H302.064V370a8.655,8.655,0,1,1,0,12.311V396.9h41.485V382.311a8.656,8.656,0,1,0,0-12.312V355.414h-9.06c-2.115-2.215-7.24-5.007-9.653-5.921V250.967H400.88v37.688h9.53V250.967h19.353V277.5h0V471.156h-14.59v19.591h40.334V472.283h3.049a.973.973,0,0,0,.686-.255,1.3,1.3,0,0,0,.113-.074,1.008,1.008,0,0,0,.083-.128,1.086,1.086,0,0,0,.158-.237,1.15,1.15,0,0,0,.088-.436V277.5h0V250.967H485.09v36a3.724,3.724,0,1,0,2.256,0v-36h26.537a1.128,1.128,0,0,0,1.129-1.129v-9.424A1.127,1.127,0,0,0,514.923,239.983ZM316.456,355.414c2.523-1.733,6.332-3.862,7.212-3.981.935.119,4.763,2.248,7.292,3.981Zm169.763-63.449a1.467,1.467,0,1,1,1.467-1.467A1.468,1.468,0,0,1,486.219,291.964ZM455.831,304.04H432.018V280.227Zm0,27.664H432.018V307.893Zm0,27.666H432.018V335.558Zm0,27.666H432.018V363.222Zm0,27.663H432.018V390.887Zm-23.813,3.853,23.811,23.813H432.018Zm1.6-1.6h23.813v23.812Zm0-27.664h23.815V413.1Zm0-27.664h23.813v23.811Zm0-27.666h23.813v23.813Zm0-27.664h23.813v23.812Zm23.813-3.851-23.815-23.813h23.815Zm-25.41,143.772,23.811,23.812H432.018Zm1.6-1.6h23.813v23.813Zm-1.6-168.243V252.563l23.813,23.811ZM402.1,239.286h-23.81l23.81-23.813Zm59.184,0,23.81-23.813v23.813Zm-1.6-1.6V213.877h23.81Zm-2.256-24.94v26.537H432.716l24.711-49.421Zm-27.666,26.537H405.95l23.812-23.813Zm-25.41-1.6V213.877h23.813Zm-27.663,0V213.877H400.5Zm-2.256,1.6H350.622l23.812-23.813Zm-25.41-1.6V213.877h23.813Zm-2.256,1.6H322.956l23.812-23.813Zm-25.409-1.6V213.877h23.812Zm165.986,1.6V215.473l23.813,23.813ZM459.683,211.62V187.809l23.812,23.812Zm-27.666,24.012V212.75a1.133,1.133,0,0,0-.087-.433,1.151,1.151,0,0,0-.195-.3c-.02-.022-.026-.049-.048-.071s-.029-.015-.042-.028a1.071,1.071,0,0,0-.758-.3H331.628l124.884-24.976ZM319.1,239.286H295.291L319.1,215.471ZM457.428,274.78l-23.815-23.813h23.815Z" transform="translate(14.602 -70.424)" fill="#d1e3ff"></path><rect width="18.765" height="19.592" transform="translate(488.873 420.324) rotate(180)" fill="#f3f8ff"></rect></g></g></g><g transform="translate(86.748 192.375)"><ellipse cx="278.252" cy="17.506" rx="278.252" ry="17.506" transform="translate(0 403.619)" fill="#f0f5ff"></ellipse><g transform="translate(303.761)"><path d="M347.484,195.659c-.241,4.2-.741,8.053-1.3,12.046-.575,3.956-1.354,7.882-2.2,11.8a118.132,118.132,0,0,1-7.555,23.125l-.631,1.411a15.694,15.694,0,0,1-1.088,1.943,19.659,19.659,0,0,1-2.537,3.083,32.609,32.609,0,0,1-5.467,4.23,67.57,67.57,0,0,1-11.212,5.485,130.774,130.774,0,0,1-23.032,6.394l-1.534-5.862c3.5-1.326,7.092-2.743,10.561-4.239,3.492-1.467,6.921-3.044,10.205-4.768a67,67,0,0,0,9.2-5.553,22.106,22.106,0,0,0,3.486-3.14,8.659,8.659,0,0,0,1.07-1.456,4.728,4.728,0,0,0,.288-.612l.487-1.268a128.684,128.684,0,0,0,5.92-21.271c.722-3.664,1.3-7.367,1.838-11.074.544-3.673.965-7.514,1.292-11.04Z" transform="translate(-274.662 -115.966)" fill="#ff8b7b"></path><path d="M325.083,186.247C320.153,187.5,316.7,207.8,316.7,207.8l13.589,9.242s13.028-20.472,9.236-25.894C335.577,185.5,332.28,184.415,325.083,186.247Z" transform="translate(-260.589 -121.135)" fill="#004ad7"></path><path d="M323.749,188.89l-3.788,20.454,7.638,5.179Z" transform="translate(-258.81 -119.245)" fill="#004daa"></path><path d="M295.989,239.447l-8.486-8.6-1.116,12.116s6.363,4.306,10.765,1.991Z" transform="translate(-277.141 -96.338)" fill="#ff8b7b"></path><path d="M280.791,230.014l-.385,10.194,9.246,3.207,1.115-12.116Z" transform="translate(-280.407 -96.791)" fill="#ff8b7b"></path><path d="M343.888,416.67H331.923l-.8-27.707h11.965Z" transform="translate(-252.715 -10.005)" fill="#ff8b7b"></path><path d="M408.822,386.681l-10.485,5.763-16.718-22.428,10.485-5.764Z" transform="translate(-225.145 -23.497)" fill="#ff8b7b"></path><path d="M393.83,384.525l10.691-8.147a.947.947,0,0,1,1.255.071l7.663,7.531a1.92,1.92,0,0,1-.235,2.854c-3.777,2.777-5.74,3.927-10.442,7.51-2.893,2.2-6.889,5.725-10.884,8.769-3.907,2.976-7.217-.744-5.825-2.37,6.235-7.286,5.726-10.4,6.631-14.421A3.128,3.128,0,0,1,393.83,384.525Z" transform="translate(-222.9 -16.988)" fill="#14365b"></path><path d="M338.237,405.989H351.68a.945.945,0,0,1,.954.816l1.532,10.635a1.921,1.921,0,0,1-1.919,2.127c-4.686-.08-6.945-.356-12.857-.356-3.636,0-11.158.379-16.18.379-4.912,0-5.289-4.966-3.2-5.416,9.375-2.018,13.065-4.8,16.225-7.452A3.122,3.122,0,0,1,338.237,405.989Z" transform="translate(-259.438 -0.709)" fill="#14365b"></path><g transform="translate(78.413 340.761)"><path d="M331.126,388.968l.41,14.282h11.97l-.41-14.282Z" transform="translate(-331.126 -350.763)" fill="#ea7063"></path><path d="M392.11,364.256l-10.489,5.766,8.623,11.558,10.489-5.766Z" transform="translate(-303.556 -364.256)" fill="#ea7063"></path></g><path d="M347.825,163.659c5.927-.688,11.338-1.8,12.8,1.374s-1.685,8.073-4.408,8.073h-9.506Z" transform="translate(-244.205 -133.439)" fill="#0f264c"></path><path d="M353.477,168.45l-.6,2.268c2.276-.437,5.841,2.285,5.841,2.285S356.611,168.107,353.477,168.45Z" transform="translate(-240.838 -130.415)" fill="#0f264c"></path><path d="M351.573,164.254l1.65,1.668c.776-2.183,4.932-3.874,4.932-3.874S352.867,161.378,351.573,164.254Z" transform="translate(-241.55 -133.938)" fill="#0f264c"></path><path d="M347.566,166.24c5.907.835,11.425,1.124,12.033,4.568s-3.673,7.384-6.306,6.7l-9.2-2.406Z" transform="translate(-245.633 -131.612)" fill="#0f264c"></path><path d="M322.625,187.181s-5.7,2.008,5.719,72.212h48.592c-.816-19.776-.839-31.971,8.613-72.558a143.228,143.228,0,0,0-20.635-2.718c-8.177-.394-14.876-.655-22.064,0C333.373,184.983,322.625,187.181,322.625,187.181Z" transform="translate(-258.132 -122.069)" fill="#6c63ff"></path><path d="M355.781,167.9c-1.391,7.1-2.78,20.107,2.186,24.846,0,0-1.94,7.2-15.132,7.2-14.506,0-6.932-7.2-6.932-7.2,7.917-1.891,7.713-7.764,6.334-13.28Z" transform="translate(-251.185 -130.703)" fill="#ff8b7b"></path><path d="M358.225,184.123c-8.178-.4-14.873-.665-22.061,0l-1.438.139c-1.762,3.339-2.211,8.472,2.008,16,0,0,19.358-7.792,24.4-15.955C360.173,184.232,359.2,184.17,358.225,184.123Z" transform="translate(-251.446 -122.069)" fill="#ff8b7b"></path><rect width="14.054" height="1.202" transform="translate(94.776 83.764) rotate(1.117)" fill="#9fc6ff"></rect><path d="M347.322,170.957l-8.016,6.841a22.8,22.8,0,0,1,.68,3.916c3.024-.438,7.18-3.757,7.5-6.923A10.607,10.607,0,0,0,347.322,170.957Z" transform="translate(-248.247 -129.036)" fill="#ea7063"></path><path d="M334.5,148.447c-3.179-1.976-17.638-.385-5.241,33.367,1.719,4.681-2.7,4.183-2.662,7.116s3.478,5.419,8.16,5.379c0,0-7-2.144-5.219-4.893s5.048-3.993,3.717-7.387S334.5,148.447,334.5,148.447Z" transform="translate(-256.431 -141.632)" fill="#0f264c"></path><path d="M359.314,161.237c1.569,11.771,2.484,16.72-2.217,23.842-7.073,10.712-21.873,10.066-26.927-1-4.55-9.959-6.351-27.534,4.125-34.4A16.194,16.194,0,0,1,359.314,161.237Z" transform="translate(-255.205 -142.141)" fill="#ff8b7b"></path><path d="M329.1,151.73c5.028,8.59,22.669,21.094,36.347,24.648,0,0,7.022-22.629-11.1-30.574C339.047,139.1,329.1,151.73,329.1,151.73Z" transform="translate(-253.819 -143.841)" fill="#0f264c"></path><path d="M328.894,232.667s-9.438,92.165-8.653,128.652c.815,37.951,14.721,124.506,14.721,124.506h16.179s-2.56-84.337-1.13-121.61c1.56-40.632,14.466-131.548,14.466-131.548Z" transform="translate(-258.682 -95.343)" fill="#272833"></path><path d="M348.315,399.192H329.332l-1.392-6.055L349.2,392.4Z" transform="translate(-254.453 -8.131)" fill="#004ad7"></path><path d="M341.424,249.513c-11.934,24.009-2.4,67.808,1.824,84.1,2.166-24.473,5.813-54.388,8.659-76.357C350.1,244.829,346.929,238.444,341.424,249.513Z" transform="translate(-250.253 -89.257)" fill="#0c203d"></path><path d="M334.122,232.667s11.008,95.818,19.32,126.579c9.87,36.521,58.87,93.15,58.87,93.15l14.3-7.86s-33.993-63.572-41.538-82.811c-16.1-41.065-2.319-102.26-15.19-129.057Z" transform="translate(-251.078 -95.343)" fill="#272833"></path><path d="M403.292,372.15l-17.737,9.75-4.954-4.538,20.348-12.411Z" transform="translate(-225.701 -23.115)" fill="#004ad7"></path><path d="M337.56,161.069c.186.948-.165,1.813-.784,1.934s-1.272-.547-1.458-1.493.165-1.813.784-1.936S337.375,160.121,337.56,161.069Z" transform="translate(-250.452 -135.259)" fill="#0f264c"></path><path d="M330.636,162.428c.187.948-.165,1.813-.784,1.934s-1.271-.547-1.458-1.493.165-1.813.785-1.936S330.451,161.482,330.636,162.428Z" transform="translate(-254.232 -134.517)" fill="#0f264c"></path><path d="M329.916,161l-2.4-.209S329.029,162.34,329.916,161Z" transform="translate(-254.686 -134.587)" fill="#0f264c"></path><path d="M332.637,162.588a25.8,25.8,0,0,1-2.189,6.707c1.478.921,3.5-.028,3.5-.028Z" transform="translate(-253.084 -133.606)" fill="#ff5652"></path><path d="M335.406,170.621a.283.283,0,0,1-.054-.561,7.638,7.638,0,0,0,5.541-4.134.284.284,0,0,1,.526.213,8.088,8.088,0,0,1-5.958,4.476A.216.216,0,0,1,335.406,170.621Z" transform="translate(-250.532 -131.88)" fill="#0f264c"></path><path d="M353.685,165.631a8.679,8.679,0,0,1-3.5,5.626c-2.488,1.753-4.745-.227-4.9-3.106-.142-2.591.982-6.626,3.887-7.234C352.026,160.318,354.121,162.851,353.685,165.631Z" transform="translate(-244.994 -134.567)" fill="#ff8b7b"></path><path d="M340.218,158.307a.569.569,0,0,1-.39-.156c-1.869-1.781-5.637-1.606-5.671-1.6a.573.573,0,0,1-.6-.536.565.565,0,0,1,.535-.6c.164-.012,4.285-.209,6.513,1.911a.567.567,0,0,1-.391.979Z" transform="translate(-251.385 -137.526)" fill="#0f264c"></path><path d="M325.815,158.749a.558.558,0,0,1-.292-.082.565.565,0,0,1-.192-.778,5.617,5.617,0,0,1,4.347-2.8l.019,0a.567.567,0,0,1,.022,1.133,4.493,4.493,0,0,0-3.418,2.259A.563.563,0,0,1,325.815,158.749Z" transform="translate(-255.923 -137.704)" fill="#0f264c"></path><path d="M372.536,194.006a187.007,187.007,0,0,1,7.223,21.117,120.421,120.421,0,0,1,4.3,22.306l.156,2.971a14.333,14.333,0,0,1,.016,1.871,13.768,13.768,0,0,1-.32,2.268,24.424,24.424,0,0,1-2.645,6.315,68.422,68.422,0,0,1-6.711,9.5,147.181,147.181,0,0,1-15.492,15.936l-4.409-4.157c4.247-5.7,8.552-11.478,12.315-17.345a73.241,73.241,0,0,0,4.986-8.746,17.162,17.162,0,0,0,1.291-3.76c-.012-.153.056-.417.009-.419.014.1-.034-.444-.08-.836l-.255-2.437a138.69,138.69,0,0,0-4.794-20.067c-2.069-6.669-4.449-13.447-6.911-19.892Z" transform="translate(-239.869 -116.452)" fill="#ff8b7b"></path><path d="M367.554,185.829c4.868,1.481,10.717,18.244,10.717,18.244l-18.888,13.5s-6.889-13.994-4.844-20.287C356.67,190.737,362,184.139,367.554,185.829Z" transform="translate(-240.137 -121.063)" fill="#004ad7"></path><path d="M388.915,386.11c-.049,0-.1,0-.144-.006a1.609,1.609,0,0,1-1.286-.912.974.974,0,0,1-.036-.977c.727-1.343,5.038-1.681,5.528-1.715a.254.254,0,0,1,.271.153.28.28,0,0,1-.032.309C392.237,384.154,390.405,386.11,388.915,386.11Zm3.418-2.984c-1.722.184-4,.651-4.383,1.359a.4.4,0,0,0,.029.43,1.065,1.065,0,0,0,.841.625C389.638,385.615,390.926,384.718,392.333,383.126Z" transform="translate(-222.024 -13.537)" fill="#9fc6ff"></path><path d="M392.453,384.1c-1.487,0-4.214-.707-4.759-1.82a.988.988,0,0,1,.28-1.206,1.458,1.458,0,0,1,1.186-.427c1.733.127,3.833,2.857,3.921,2.973a.284.284,0,0,1-.187.453A3.155,3.155,0,0,1,392.453,384.1Zm-3.423-2.889a.9.9,0,0,0-.66.269c-.261.255-.226.43-.165.552.368.753,2.622,1.473,4.077,1.507-.747-.873-2.132-2.251-3.165-2.325A.828.828,0,0,0,389.03,381.21Z" transform="translate(-221.882 -14.548)" fill="#9fc6ff"></path><path d="M329.68,408.413a4.476,4.476,0,0,1-2.9-.739,1.565,1.565,0,0,1-.512-1.379.914.914,0,0,1,.479-.754c1.475-.8,6.237,1.634,6.775,1.915a.282.282,0,0,1,.15.291.285.285,0,0,1-.224.238A20.488,20.488,0,0,1,329.68,408.413Zm-2.133-2.477a1.116,1.116,0,0,0-.529.1.349.349,0,0,0-.187.306,1.021,1.021,0,0,0,.326.908c.727.654,2.7.765,5.346.328A15.4,15.4,0,0,0,327.546,405.936Z" transform="translate(-255.372 -1.041)" fill="#9fc6ff"></path><path d="M332.337,408.981a.28.28,0,0,1-.116-.025c-1.427-.645-4.247-3.225-4.026-4.581.053-.32.278-.72,1.064-.8a2.053,2.053,0,0,1,1.571.49c1.5,1.252,1.78,4.474,1.79,4.61a.281.281,0,0,1-.119.254A.276.276,0,0,1,332.337,408.981Zm-2.849-4.85c-.057,0-.114,0-.172.008-.518.053-.55.26-.561.328-.133.815,1.781,2.843,3.236,3.726-.139-.94-.538-2.871-1.526-3.692A1.483,1.483,0,0,0,329.488,404.131Z" transform="translate(-254.321 -2.033)" fill="#9fc6ff"></path><path d="M360.218,243.641,347.4,245.323l8.985,8.2s7.274-2.474,8.086-7.379Z" transform="translate(-243.827 -89.351)" fill="#ff8b7b"></path><path d="M342.843,251.906l7.894,6.461,8.139-5.435-8.985-8.2Z" transform="translate(-246.316 -88.757)" fill="#ff8b7b"></path><path d="M336.841,159.642l-2.4-.209S335.954,160.981,336.841,159.642Z" transform="translate(-250.906 -135.328)" fill="#0f264c"></path><path d="M375.674,230.952l1.243,4.349c.17.337-.229.682-.792.682H326.114c-.437,0-.8-.215-.829-.49l-.438-4.349c-.031-.3.349-.557.829-.557h49.208A.876.876,0,0,1,375.674,230.952Z" transform="translate(-256.143 -96.478)" fill="#9fc6ff"></path><path d="M353.848,236.591h1.317c.263,0,.462-.136.445-.3l-.618-5.651c-.019-.165-.247-.3-.51-.3h-1.319c-.261,0-.462.136-.444.3l.618,5.651C353.355,236.455,353.585,236.591,353.848,236.591Z" transform="translate(-240.924 -96.615)" fill="#0f264c"></path><path d="M328.461,236.591h1.319c.261,0,.462-.136.444-.3l-.618-5.651c-.019-.165-.247-.3-.51-.3h-1.317c-.263,0-.462.136-.445.3l.618,5.651C327.969,236.455,328.2,236.591,328.461,236.591Z" transform="translate(-254.786 -96.615)" fill="#0f264c"></path><path d="M341.154,236.591h1.319c.263,0,.462-.136.444-.3l-.618-5.651c-.017-.165-.247-.3-.509-.3H340.47c-.263,0-.462.136-.444.3l.617,5.651C340.662,236.455,340.892,236.591,341.154,236.591Z" transform="translate(-247.855 -96.615)" fill="#0f264c"></path></g><g transform="translate(218.278 93.053)"><path d="M254.338,224.057l-1.514-.322A32.738,32.738,0,0,1,263.292,205.9l1.023,1.16A31.2,31.2,0,0,0,254.338,224.057Z" transform="translate(-190.302 -203.013)" fill="#004daa"></path><rect width="1.547" height="8.849" transform="translate(41.685 32.153) rotate(-77.976)" fill="#004daa"></rect><path d="M322.346,254.68a27.592,27.592,0,1,0-38.4-8.178l-37.794-8.052a7.853,7.853,0,0,0-9.316,6.045L212.556,358.48A7.854,7.854,0,0,0,218.6,367.8l37.794,8.05a27.592,27.592,0,1,1,38.4,8.18l37.794,8.052a7.854,7.854,0,0,0,9.316-6.045l24.281-113.985a7.852,7.852,0,0,0-6.045-9.316Z" transform="translate(-212.383 -204.031)" fill="#2699fb"></path><path d="M298.137,344.835a27.592,27.592,0,1,0-39.261,0H220.235a7.852,7.852,0,0,0-7.852,7.852V469.23a7.852,7.852,0,0,0,7.852,7.852H336.777a7.852,7.852,0,0,0,7.852-7.852V352.687a7.852,7.852,0,0,0-7.852-7.852Z" transform="translate(-212.382 -152.803)" fill="#2d1e4e"></path></g><g transform="translate(65.965 29.601)"><path d="M157.438,416.418H168.7l3-26.086H160.435Z" transform="translate(-66.751 -38.858)" fill="#ff8b7b"></path><path d="M106.165,416.418h11.264l8.776-26.086H114.941Z" transform="translate(-94.746 -38.858)" fill="#ff8b7b"></path><path d="M120.411,406.362H106.678a.981.981,0,0,0-.959.77l-2.225,10.012a1.655,1.655,0,0,0,1.648,2c4.418-.076,7.643-.335,13.207-.335,3.424,0,10.479.356,15.206.356,4.624,0,5.345-4.675,3.409-5.1-8.678-1.9-11.947-4.516-14.726-7.014A2.735,2.735,0,0,0,120.411,406.362Z" transform="translate(-96.226 -30.106)" fill="#14365b"></path><path d="M170.156,406.362h-12.3a.984.984,0,0,0-.959.77l-2.225,10.012a1.638,1.638,0,0,0,1.62,2c4.437-.076,10.85-.335,16.426-.335,6.523,0,12.155.356,19.8.356,4.624,0,5.909-4.675,3.973-5.1-8.812-1.928-16.007-2.133-23.623-6.829A5.214,5.214,0,0,0,170.156,406.362Z" transform="translate(-68.284 -30.106)" fill="#14365b"></path><path d="M162.933,217.63c1.382,8.821,2.535,17.621,3.5,26.483q.744,6.642,1.326,13.316c.195,2.228.4,4.453.555,6.691l.433,6.28a8.435,8.435,0,0,0,1.03,3.274,14.37,14.37,0,0,0,2.794,3.445,37.938,37.938,0,0,0,9.386,6.042,89.689,89.689,0,0,0,11.556,4.491c3.986,1.322,8.243,2.4,12.258,3.322l-.764,8.424c-2.455,0-4.689-.116-7.017-.315-2.307-.2-4.616-.436-6.923-.785a83.668,83.668,0,0,1-13.848-3.256,47.867,47.867,0,0,1-13.7-6.929,29.224,29.224,0,0,1-6.159-6.315,22.84,22.84,0,0,1-3.778-9.01l-3.9-26.519c-1.3-8.715-2.528-17.479-3.647-26.2Z" transform="translate(-72.978 -133.154)" fill="#ff8b7b"></path><path d="M143.96,218.473c-3.8,10.078,5.3,43.857,5.3,43.857l25.024-12.513s-1.18-16.842-6.9-29.787C161.6,206.945,148.127,207.413,143.96,218.473Z" transform="translate(-74.616 -137.215)" fill="#272833"></path><path d="M182.064,264.376l12.292.816-5.742,13.194s-7.888,0-10.12-7.9Z" transform="translate(-55.255 -107.63)" fill="#ff8b7b"></path><path d="M197.422,269.07l-6.813,9.236-5.57-.209,5.742-13.193Z" transform="translate(-51.681 -107.342)" fill="#ff8b7b"></path><g transform="translate(15.66 351.482)"><path d="M171.186,390.337l-1.543,13.446H158.374l1.543-13.446Z" transform="translate(-81.9 -390.337)" fill="#ea7063"></path><path d="M113.438,390.337h11.269l-4.529,13.446H108.909Z" transform="translate(-108.909 -390.337)" fill="#ea7063"></path></g><path d="M174.572,211.8s13.294,34.015.666,97.361H114.991c-.416-9.248,5.4-54.365-3.525-97.942a157.266,157.266,0,0,1,20.169-2.546c7.7-.371,18.843-.617,25.611,0A112.953,112.953,0,0,1,174.572,211.8Z" transform="translate(-91.852 -138.25)" fill="#272833"></path><path d="M122.739,226.215c-1.963-9.941-5.8-8.225-9.431-3.324a313.256,313.256,0,0,1,2.149,39.732C117.931,258.4,126.032,242.881,122.739,226.215Z" transform="translate(-90.846 -132.421)" fill="#0c203d"></path><path d="M127.049,189.887c1.616,8.24,3.228,23.338-2.537,28.838,0,0,2.253,8.359,17.564,8.359,16.838,0,8.047-8.358,8.047-8.358-9.189-2.2-8.953-9.013-7.351-15.415Z" transform="translate(-84.729 -148.301)" fill="#ff8b7b"></path><path d="M130.4,193.43l9.305,7.939a26.429,26.429,0,0,0-.79,4.545c-3.509-.507-8.333-4.36-8.706-8.036A12.353,12.353,0,0,1,130.4,193.43Z" transform="translate(-81.672 -146.367)" fill="#ea7063"></path><path d="M145.238,173.652c5.542,2.347,8.554,17.89,1.464,21.46S134.739,169.208,145.238,173.652Z" transform="translate(-76.727 -157.416)" fill="#0f264c"></path><path d="M125.53,187.653c.685,11.159.519,17.723,6.155,23.451,8.477,8.614,22.25,3.5,24.912-7.633,2.4-10.026.874-26.59-10.049-31.03A15.247,15.247,0,0,0,125.53,187.653Z" transform="translate(-84.19 -158.469)" fill="#ff8b7b"></path><path d="M129.907,197.141c5.892,2.426,17.009-15.743-.1-22.018C110.9,168.184,120.384,193.22,129.907,197.141Z" transform="translate(-87.789 -157.022)" fill="#0f264c"></path><path d="M132.273,185.488c9.984,3.027,24.056-.036,25.863-5.057,1.611-4.477,3.033-2.509,5.765.419,7.515,8.052,22.5,4.831,9.834-7.365,2.865,3.488-3.019,12.875-7.322-.495-3.305-10.269-16.334-13.2-20.563-6.119-5.026,8.416-38.335-10.479-22.188,15.2C126.538,189.451,132.273,185.488,132.273,185.488Z" transform="translate(-87.585 -162.988)" fill="#0f264c"></path><path d="M125.348,175.709a22.166,22.166,0,0,1-7.6-4.445S118.069,177.9,125.348,175.709Z" transform="translate(-88.423 -158.47)" fill="#0f264c"></path><path d="M122.557,192.485a10.633,10.633,0,0,0,6.623,4.692c3.639.8,5.25-2.506,4.064-5.832-1.067-2.993-4.247-7.016-7.815-6.326C121.914,185.7,120.747,189.552,122.557,192.485Z" transform="translate(-86.257 -151.002)" fill="#ff8b7b"></path><path d="M166.7,273.539s43.926,60.872,42.7,95.223c-1.275,35.73-18.459,96.189-18.459,96.189H171.863s7.813-58.372,6.965-93.462c-.926-38.254-51.729-68.44-51.729-97.95Z" transform="translate(-83.316 -102.627)" fill="#9fc6ff"></path><path d="M156.7,273.539s22.383,62.735,15.366,94.985c-7.685,35.317-45.152,96.427-45.152,96.427H106.28s27.605-58.26,31.991-93.225c4.759-37.95-20.449-69.964-20.449-98.186Z" transform="translate(-94.683 -102.627)" fill="#9fc6ff"></path><path d="M131.51,400.369H104.541v-7.258l30.147-.472Z" transform="translate(-95.633 -37.599)" fill="#77b3fc"></path><path d="M180.677,400.369H153.708v-7.344l30.147-.386Z" transform="translate(-68.788 -37.599)" fill="#77b3fc"></path><path d="M136.466,184.463c0,.909.482,1.646,1.076,1.646s1.076-.737,1.076-1.646-.482-1.645-1.076-1.645S136.466,183.555,136.466,184.463Z" transform="translate(-78.202 -152.161)" fill="#0f264c"></path><path d="M143.109,184.463c0,.909.482,1.646,1.076,1.646s1.074-.737,1.074-1.646-.481-1.645-1.074-1.645S143.109,183.555,143.109,184.463Z" transform="translate(-74.575 -152.161)" fill="#0f264c"></path><path d="M141,184.175s2.067,5.241,4.341,7.77c-1.608,1.5-4.341.815-4.341.815Z" transform="translate(-75.728 -151.42)" fill="#ff5652"></path><path d="M141.531,192.576a7.616,7.616,0,0,1-6.315-3.056.268.268,0,0,1,.448-.292,7.2,7.2,0,0,0,5.867,2.815.267.267,0,0,1,0,.533Z" transform="translate(-78.908 -148.727)" fill="#0f264c"></path><path d="M134.652,182.821a.535.535,0,0,1-.425-.856,5.324,5.324,0,0,1,4.344-2.2.533.533,0,0,1,.5.569.527.527,0,0,1-.567.5h0a4.243,4.243,0,0,0-3.421,1.781A.532.532,0,0,1,134.652,182.821Z" transform="translate(-79.483 -153.83)" fill="#0f264c"></path><path d="M188.659,388.526,281.3,317.82a7.853,7.853,0,0,0,1.479-11.006L259.338,276.1a27.593,27.593,0,1,1-23.819-31.209L212.075,214.17a7.852,7.852,0,0,0-11.006-1.478l-92.644,70.7a7.854,7.854,0,0,0-1.478,11.008l70.7,92.644A7.854,7.854,0,0,0,188.659,388.526Z" transform="translate(-95.199 -136.729)" fill="#ffc300"></path><path d="M147.413,182.934a.535.535,0,0,1-.481-.3,4.227,4.227,0,0,0-3.009-2.412.533.533,0,0,1,.135-1.057,5.287,5.287,0,0,1,3.834,3,.534.534,0,0,1-.246.713A.548.548,0,0,1,147.413,182.934Z" transform="translate(-74.383 -154.159)" fill="#0f264c"></path><path d="M128.79,222.932c-1.379,3.358-2.916,7.082-4.221,10.692-1.36,3.635-2.622,7.3-3.817,10.955s-2.217,7.337-3.128,11l-.634,2.744-.543,2.724c-.2.914-.32,1.807-.461,2.706l-.207,1.35-.053.339c-.023.155-.006.034-.017.065-.017-.026-.015.014-.029.042a9.222,9.222,0,0,0,.745,3.219,36.865,36.865,0,0,0,2.152,4.627,108.6,108.6,0,0,0,5.981,9.645c4.409,6.391,9.264,12.826,14.144,19.045l-5.947,6.014a160,160,0,0,1-18.213-17.134,98.3,98.3,0,0,1-8.086-10.131,51.5,51.5,0,0,1-3.577-6.065,23.117,23.117,0,0,1-2.511-8.41,14.688,14.688,0,0,1-.039-1.473l.025-.693.029-.417.114-1.668c.079-1.112.142-2.237.288-3.316l.394-3.273.533-3.214c.765-4.258,1.69-8.449,2.848-12.53,1.124-4.1,2.424-8.115,3.851-12.079.731-1.976,1.483-3.942,2.273-5.9.784-1.99,1.591-3.845,2.565-5.932Z" transform="translate(-97.935 -134.122)" fill="#ff8b7b"></path><path d="M116.042,211.093c-10.051,3.868-17.263,40.627-17.263,40.627l23.935,9.431s8.024-18.476,10.715-32.132C136.262,214.64,127.443,206.706,116.042,211.093Z" transform="translate(-98.779 -137.382)" fill="#272833"></path><path d="M117.945,408.644a13.264,13.264,0,0,1-2.947-.4.267.267,0,0,1-.079-.485c.41-.258,4.046-2.486,5.29-1.851a.856.856,0,0,1,.458.756,1.619,1.619,0,0,1-.552,1.41A3.423,3.423,0,0,1,117.945,408.644Zm-2.172-.781c1.912.385,3.383.315,4-.2a1.083,1.083,0,0,0,.363-.968c-.012-.207-.1-.277-.169-.312C119.322,406.044,117.251,407.009,115.773,407.863Z" transform="translate(-90.035 -30.419)" fill="#407bff"></path><path d="M115.061,409.181a.271.271,0,0,1-.145-.043.268.268,0,0,1-.121-.246c.011-.138.28-3.387,1.588-4.456a1.425,1.425,0,0,1,1.136-.343.873.873,0,0,1,.85.7c.238,1.257-2.016,3.724-3.182,4.357A.252.252,0,0,1,115.061,409.181Zm2.273-4.567a.947.947,0,0,0-.612.233c-.839.686-1.2,2.58-1.331,3.53,1.16-.88,2.6-2.744,2.454-3.486-.012-.068-.042-.226-.39-.269A1.059,1.059,0,0,0,117.334,404.614Z" transform="translate(-90.035 -31.353)" fill="#407bff"></path><path d="M169.027,408.644a19.113,19.113,0,0,1-3.539-.4.266.266,0,0,1-.07-.5c.51-.264,5.038-2.56,6.407-1.8a.845.845,0,0,1,.441.711,1.5,1.5,0,0,1-.5,1.3A4.282,4.282,0,0,1,169.027,408.644Zm-2.648-.782c2.484.413,4.341.306,5.034-.309a.976.976,0,0,0,.322-.858.318.318,0,0,0-.169-.284C170.826,405.992,168.241,406.974,166.379,407.862Z" transform="translate(-62.473 -30.418)" fill="#407bff"></path><path d="M165.541,409.181a.266.266,0,0,1-.266-.292c.012-.13.315-3.163,1.749-4.34a1.936,1.936,0,0,1,1.48-.458c.733.074.945.447.994.745.206,1.274-2.488,3.71-3.846,4.32A.253.253,0,0,1,165.541,409.181Zm2.747-4.567a1.427,1.427,0,0,0-.926.346c-.941.773-1.342,2.588-1.486,3.475,1.387-.836,3.217-2.75,3.094-3.514-.011-.062-.042-.25-.521-.3A1.427,1.427,0,0,0,168.289,404.614Z" transform="translate(-62.473 -31.352)" fill="#407bff"></path><path d="M125.369,270.655l11.051,2.939-9.162,11.1s-8.852-4.592-6.943-9.554Z" transform="translate(-87.167 -104.202)" fill="#ff8b7b"></path><path d="M141.873,281.786l-8,8.687-9.161-6.822,9.161-11.1Z" transform="translate(-84.62 -103.164)" fill="#ff8b7b"></path></g></g></g></svg> 