<?xml version="1.0" encoding="UTF-8" ?>
<!DOCTYPE svg PUBLIC "-//W3C//DTD SVG 1.1//EN" "http://www.w3.org/Graphics/SVG/1.1/DTD/svg11.dtd">
<svg width="1032pt" height="360pt" viewBox="0 0 1032 360" version="1.1" xmlns="http://www.w3.org/2000/svg">
<g id="#37474fff">
<path fill="#37474f" opacity="1.00" d=" M 583.57 59.58 C 587.27 56.88 591.32 54.13 596.06 53.94 C 600.02 53.59 603.09 56.90 606.97 56.97 C 611.44 57.25 616.32 56.16 620.35 58.68 C 624.42 60.68 626.60 64.86 628.23 68.87 C 630.06 73.41 633.93 76.77 635.52 81.43 C 636.68 84.71 638.80 88.08 637.73 91.69 C 636.55 96.46 635.13 101.20 634.47 106.08 C 634.86 115.17 638.18 123.78 640.56 132.46 C 649.99 144.04 658.47 156.86 662.68 171.34 C 669.30 190.13 669.82 210.28 671.92 229.91 C 671.91 239.18 673.80 248.46 672.52 257.71 C 671.28 264.27 673.45 271.77 668.82 277.38 C 669.94 278.53 671.00 279.77 672.27 280.79 C 677.42 281.29 683.38 280.76 687.49 284.51 C 689.23 285.65 690.61 287.52 689.98 289.71 C 685.71 296.81 679.19 303.10 670.85 304.87 C 666.89 305.20 662.91 304.94 658.95 305.04 C 651.70 305.66 644.66 300.98 641.43 294.62 C 637.74 287.81 633.71 280.69 633.19 272.82 C 632.78 267.31 633.27 261.77 632.81 256.26 C 631.76 247.81 630.79 239.33 629.00 231.00 C 625.41 214.11 618.67 197.18 621.65 179.63 C 621.88 176.84 623.67 174.68 625.40 172.64 C 626.74 174.14 629.34 175.44 628.76 177.80 C 627.41 187.05 627.28 196.57 629.23 205.75 C 630.24 212.00 632.66 217.89 633.96 224.07 C 636.46 235.57 639.28 247.16 639.07 259.00 C 639.57 263.86 640.54 268.79 638.90 273.56 C 647.36 271.05 656.29 272.59 664.90 270.86 C 665.49 262.44 666.79 253.98 665.61 245.54 C 664.43 237.64 665.72 229.59 664.30 221.73 C 663.78 217.86 664.17 213.95 663.88 210.07 C 661.66 192.89 658.82 175.45 651.33 159.67 C 647.19 150.82 640.87 143.29 635.93 134.92 C 628.20 137.96 620.59 141.29 613.36 145.39 C 608.10 148.09 605.66 153.79 602.47 158.44 C 594.51 172.77 587.57 188.34 587.02 204.97 C 587.19 211.68 585.51 218.27 585.98 224.99 C 585.67 234.99 586.65 244.98 586.00 254.96 C 585.85 262.24 585.90 269.93 582.50 276.57 C 581.70 276.73 580.11 277.06 579.31 277.22 C 578.62 260.99 579.20 244.73 579.00 228.49 C 573.23 226.80 568.97 222.27 564.31 218.72 C 557.50 211.87 550.13 205.47 544.51 197.55 C 540.48 192.76 537.41 187.28 533.80 182.19 C 534.65 180.72 535.49 179.25 536.32 177.78 C 533.36 176.37 530.49 174.78 527.63 173.18 C 524.19 174.94 519.71 176.19 516.30 173.68 C 513.53 171.37 511.87 168.07 509.71 165.25 C 507.27 162.51 507.83 158.59 508.20 155.25 C 509.61 152.16 511.92 149.60 513.50 146.61 C 508.35 146.75 507.84 152.74 504.00 154.92 C 502.14 156.35 499.66 155.92 497.48 156.09 C 496.64 155.21 495.79 154.36 494.92 153.53 C 494.43 147.63 497.27 142.17 500.53 137.48 C 503.79 133.82 509.00 133.26 513.56 132.45 C 518.74 131.53 524.50 129.56 529.40 132.55 C 534.61 135.61 539.80 138.77 544.73 142.27 C 548.99 147.13 552.03 152.95 555.90 158.12 C 557.54 159.52 559.66 160.25 561.24 161.74 C 564.33 164.36 566.28 168.02 569.29 170.72 C 574.14 174.83 578.46 179.52 583.41 183.51 C 587.32 173.96 590.80 164.15 596.38 155.39 C 598.72 151.15 602.23 147.71 604.76 143.60 C 605.79 140.67 603.69 137.83 602.83 135.11 C 599.40 135.02 595.90 134.72 592.77 133.22 C 588.45 131.16 585.07 127.68 581.24 124.90 C 578.64 125.69 575.95 126.08 573.24 126.17 C 571.39 123.87 569.26 121.27 570.06 118.10 C 571.18 112.05 572.05 105.46 568.73 99.91 C 569.74 99.13 570.80 98.39 571.68 97.44 C 572.41 93.12 572.76 88.74 573.12 84.37 C 570.97 82.77 568.02 81.56 567.16 78.81 C 566.72 74.58 566.34 69.80 569.43 66.40 C 572.46 61.34 579.29 62.81 583.57 59.58 M 578.08 83.24 C 578.20 87.20 577.32 91.07 576.81 94.98 C 581.59 92.90 586.40 90.87 591.11 88.61 C 589.10 83.76 588.52 78.48 589.35 73.29 C 585.59 76.61 581.91 80.00 578.08 83.24 M 606.96 87.09 C 606.76 91.33 607.16 95.54 608.30 99.63 C 609.64 104.47 603.88 107.11 600.09 107.99 C 595.78 106.66 596.09 101.36 595.82 97.73 C 591.17 100.04 586.30 101.87 581.66 104.19 C 582.88 106.70 584.08 109.21 585.17 111.77 C 584.31 113.28 583.48 114.79 582.62 116.29 C 580.14 116.08 577.86 115.09 575.73 113.86 C 574.24 116.14 573.72 118.77 574.20 121.46 C 576.95 121.08 579.44 119.84 581.95 118.72 C 584.37 120.26 586.62 122.02 588.81 123.86 C 590.65 121.40 592.46 118.88 594.84 116.88 C 595.49 117.31 596.78 118.16 597.43 118.58 C 596.69 121.73 594.39 124.05 592.51 126.56 C 596.39 128.23 600.55 129.33 604.81 129.08 C 607.87 131.99 609.42 135.94 611.41 139.57 C 615.86 137.27 620.15 134.62 624.84 132.81 C 628.01 131.59 631.15 130.20 633.93 128.22 C 631.08 121.89 630.24 114.97 628.87 108.24 C 626.55 107.46 624.26 106.61 622.00 105.70 C 620.05 106.84 618.03 107.89 615.82 108.42 C 615.86 106.00 616.30 103.62 617.56 101.53 C 620.15 96.89 619.19 90.96 616.25 86.73 C 613.72 83.94 609.47 84.71 606.96 87.09 M 589.99 93.98 C 584.68 96.87 579.02 99.00 573.57 101.60 C 575.52 105.12 577.37 108.79 580.22 111.70 C 579.37 108.31 577.71 105.23 576.16 102.14 C 581.73 98.75 587.90 96.56 593.77 93.77 C 597.48 91.91 601.82 90.92 604.71 87.74 C 599.42 88.78 594.82 91.75 589.99 93.98 M 624.35 92.30 C 624.22 93.29 623.96 95.28 623.83 96.27 C 625.35 96.23 626.89 96.17 628.42 96.10 C 627.13 94.76 625.78 93.47 624.35 92.30 M 510.98 138.98 C 508.41 139.16 505.37 139.46 503.75 141.73 C 501.86 144.52 500.86 147.80 499.92 151.00 C 502.72 149.39 503.66 146.05 506.04 144.07 C 509.47 142.43 513.24 141.36 517.01 140.87 C 520.64 140.16 523.14 143.38 525.99 145.01 C 527.56 146.36 530.27 147.50 530.05 149.93 C 527.43 155.78 521.82 159.38 516.99 163.26 C 516.94 165.08 516.84 166.91 516.84 168.74 C 517.88 169.21 518.92 169.70 519.96 170.19 C 522.29 169.05 524.50 167.49 527.10 166.98 C 529.29 166.56 531.02 168.24 532.80 169.23 C 535.35 171.10 538.59 171.23 541.54 172.06 C 544.99 168.82 547.62 164.88 550.87 161.46 C 546.74 157.09 543.14 152.26 539.32 147.62 C 536.30 143.82 531.78 141.72 527.71 139.27 C 525.62 138.33 523.55 136.63 521.13 137.05 C 517.74 137.64 514.44 138.82 510.98 138.98 M 512.84 157.12 C 513.13 158.58 514.13 159.74 514.90 160.98 C 516.13 159.05 516.99 156.93 517.58 154.72 C 520.13 154.30 522.00 152.68 523.28 150.49 C 522.68 150.03 521.48 149.09 520.88 148.63 C 518.19 151.44 515.11 153.93 512.84 157.12 M 550.44 171.43 C 547.57 175.40 543.78 178.55 540.44 182.10 C 547.01 189.71 552.36 198.37 559.74 205.26 C 565.54 211.26 572.09 216.48 578.98 221.18 C 578.86 216.78 579.63 212.45 579.97 208.09 C 579.85 201.85 580.58 195.62 582.12 189.58 C 579.44 188.14 576.86 186.48 574.75 184.27 C 570.63 180.04 565.81 176.55 561.82 172.18 C 559.94 169.90 558.18 167.52 556.23 165.30 C 554.22 167.27 552.13 169.17 550.44 171.43 M 641.63 280.06 C 642.27 285.25 645.33 289.66 648.06 293.97 C 650.21 297.82 654.86 299.43 659.05 299.60 C 665.71 299.57 672.80 298.49 678.18 294.26 C 680.47 292.19 683.38 290.07 683.28 286.64 C 680.54 288.47 678.06 290.64 675.46 292.65 C 673.79 293.79 671.80 292.56 670.42 291.54 C 667.08 288.59 666.34 283.84 663.54 280.51 C 661.49 278.08 657.99 279.03 655.25 279.20 C 650.78 280.33 646.17 279.95 641.63 280.06 M 674.19 286.22 C 674.80 286.83 674.80 286.83 674.19 286.22 Z" />
<path fill="#37474f" opacity="1.00" d=" M 609.55 95.39 C 606.83 91.57 614.42 85.98 616.34 91.07 C 615.35 92.02 614.13 92.68 613.06 93.52 C 613.72 95.51 613.97 97.60 614.21 99.67 C 612.92 100.64 611.63 101.61 610.29 102.51 C 610.46 100.08 611.06 97.54 609.55 95.39 Z" />
<path fill="#37474f" opacity="1.00" d=" M 384.42 101.32 C 386.81 100.82 390.07 100.29 391.88 102.36 C 392.62 105.96 387.98 107.61 386.21 110.19 C 387.93 113.29 390.10 116.10 392.16 118.98 C 398.34 115.98 404.39 112.45 411.25 111.25 C 417.36 109.45 423.78 110.01 430.03 109.04 C 438.40 109.03 447.03 109.92 454.81 113.24 C 463.47 117.82 472.11 122.92 478.66 130.35 C 483.01 135.44 487.06 140.85 490.21 146.77 C 493.25 153.71 494.86 161.18 496.44 168.57 C 497.42 172.75 497.12 177.11 496.31 181.29 C 494.86 202.99 483.86 224.74 464.91 236.18 C 466.72 238.76 468.69 241.21 470.42 243.85 C 472.87 243.13 475.42 242.94 477.97 243.13 C 477.97 244.29 477.91 245.46 477.79 246.62 C 471.03 253.51 461.94 257.59 452.62 259.64 C 445.99 261.99 438.97 262.65 432.00 263.10 C 432.01 265.00 432.00 266.90 431.97 268.81 C 438.20 270.63 444.76 269.33 451.01 270.99 C 456.13 271.94 461.29 272.84 466.11 274.90 C 475.66 278.60 486.59 281.26 493.22 289.69 C 488.44 291.77 483.16 290.49 478.14 290.67 C 469.45 289.35 460.61 290.43 451.92 289.13 C 442.26 289.07 432.65 287.72 422.98 287.98 C 407.32 287.16 391.70 289.65 376.04 288.94 C 373.78 288.81 371.93 287.35 370.07 286.22 C 380.17 278.65 392.25 274.36 404.41 271.39 C 410.99 269.08 417.99 270.46 424.77 269.82 C 427.37 268.40 425.36 265.10 425.06 262.91 C 411.55 262.13 398.76 257.10 386.67 251.34 C 378.90 247.52 371.78 242.41 365.26 236.74 C 361.43 232.25 357.40 227.89 353.96 223.08 C 349.65 216.54 346.83 209.17 344.11 201.87 C 342.11 196.06 342.10 189.84 341.16 183.82 C 340.69 180.19 341.84 176.63 341.93 173.01 C 342.54 161.30 346.52 150.17 350.29 139.19 C 353.36 132.38 357.70 126.20 362.29 120.35 C 368.91 113.27 375.42 105.43 384.42 101.32 M 366.26 126.27 C 361.09 132.92 356.54 140.28 354.48 148.52 C 349.84 161.77 348.37 175.96 349.08 189.93 C 350.65 202.72 357.08 214.21 364.33 224.62 C 366.95 228.03 370.52 230.49 373.83 233.17 C 381.83 239.30 390.63 244.49 400.13 247.91 C 410.31 251.70 421.05 254.64 432.01 254.14 C 443.52 254.62 455.40 252.58 465.43 246.71 C 464.09 243.88 462.39 241.25 460.62 238.67 C 456.57 239.78 452.74 241.52 448.72 242.71 C 439.59 245.84 429.83 246.56 420.27 245.65 C 411.75 244.06 403.80 240.55 395.91 237.11 C 386.24 231.94 377.65 224.73 371.10 215.93 C 367.72 210.61 365.60 204.63 363.16 198.85 C 361.45 194.79 359.73 190.56 359.98 186.07 C 360.12 179.72 359.48 173.25 361.05 167.02 C 362.59 160.49 363.80 153.80 366.67 147.69 C 369.78 141.40 373.37 135.31 377.78 129.83 C 380.05 126.93 383.33 125.12 385.94 122.58 C 386.13 118.72 382.38 115.83 380.67 112.56 C 374.44 115.36 370.53 121.23 366.26 126.27 M 371.77 151.81 C 369.32 159.31 367.54 167.09 366.79 174.96 C 367.35 180.65 365.92 186.52 367.83 192.05 C 370.59 202.90 376.57 212.72 384.29 220.75 C 391.36 227.16 399.82 231.81 408.64 235.35 C 417.16 238.53 426.44 240.22 435.49 238.52 C 443.15 236.95 451.15 236.04 458.08 232.14 C 475.19 223.56 486.56 205.66 488.88 186.89 C 488.84 181.22 490.46 175.70 490.05 170.02 C 488.18 168.61 485.94 168.00 483.82 167.13 C 479.75 164.92 478.21 160.10 474.52 157.46 C 471.09 154.69 467.86 150.81 463.10 150.72 C 463.01 152.70 462.99 154.68 462.95 156.66 C 460.36 159.13 457.80 161.63 455.11 164.00 C 450.56 162.19 446.43 158.71 441.30 158.88 C 443.85 161.01 446.82 162.54 449.48 164.51 C 452.98 166.53 453.33 170.97 454.72 174.39 C 456.07 177.97 454.25 181.85 455.62 185.40 C 457.19 189.53 457.43 194.20 460.11 197.86 C 462.42 201.18 464.73 205.01 464.20 209.23 C 463.91 215.42 463.32 222.91 457.63 226.66 C 455.20 228.95 451.70 227.93 448.94 226.96 C 440.91 224.12 434.97 217.78 428.82 212.21 C 426.63 208.92 426.17 204.43 422.62 202.07 C 417.85 201.13 416.49 207.61 412.15 208.11 C 408.29 209.43 404.27 208.30 400.39 207.69 C 396.22 205.38 394.72 200.54 394.18 196.11 C 394.81 193.42 396.12 190.85 395.98 188.02 C 395.92 182.99 396.71 177.74 399.41 173.41 C 401.76 171.33 405.17 172.24 407.77 170.76 C 411.34 168.84 415.09 166.90 417.71 163.71 C 420.44 159.71 424.39 156.64 426.18 152.00 C 424.78 151.96 423.39 151.93 422.00 151.90 C 420.98 153.08 419.94 154.24 418.87 155.36 C 417.26 154.29 415.68 153.17 414.13 152.01 C 411.32 152.87 408.35 153.45 405.98 155.30 C 409.17 155.20 413.04 154.07 414.90 157.54 C 413.92 157.69 411.95 158.00 410.96 158.16 C 411.42 159.89 411.78 161.65 411.96 163.44 C 408.60 162.57 405.93 159.20 402.23 160.00 C 400.75 160.49 399.40 161.30 398.02 162.02 C 398.00 164.20 398.21 166.41 397.81 168.57 C 396.20 170.74 394.22 172.58 392.35 174.51 C 390.83 172.55 389.56 170.40 388.55 168.14 C 389.99 166.59 391.46 165.07 392.97 163.59 C 391.88 160.47 390.54 157.46 388.88 154.61 C 390.63 154.10 392.38 153.58 394.11 153.00 C 394.77 150.65 395.08 148.22 395.29 145.79 C 396.75 145.86 398.23 146.00 399.71 145.91 C 401.40 144.72 400.82 142.50 401.13 140.74 C 399.92 141.60 398.73 142.49 397.55 143.39 C 395.29 140.85 394.36 137.55 393.26 134.42 C 391.87 137.89 391.10 141.59 389.58 145.02 C 387.81 145.46 387.36 143.49 386.72 142.31 C 385.27 138.90 384.93 135.17 384.78 131.51 C 379.40 137.53 375.11 144.47 371.77 151.81 M 415.28 277.48 C 409.84 278.24 404.39 279.16 399.17 280.85 C 417.09 281.53 435.12 280.06 452.98 282.02 C 457.94 281.69 462.75 283.35 467.71 282.98 C 463.40 279.95 458.11 279.13 453.09 277.96 C 448.15 276.59 442.96 277.30 437.97 276.19 C 430.50 277.81 422.80 276.31 415.28 277.48 Z" />
<path fill="#37474f" opacity="1.00" d=" M 382.44 143.46 C 385.85 144.16 387.35 147.36 388.42 150.32 C 385.68 151.25 383.84 153.60 381.37 154.86 C 380.12 152.97 379.21 150.88 378.55 148.72 C 380.43 149.11 382.29 149.62 384.14 150.15 C 383.45 147.95 382.85 145.72 382.44 143.46 Z" />
<path fill="#37474f" opacity="1.00" d=" M 459.93 174.76 C 462.05 174.98 464.18 175.23 466.23 175.88 C 465.90 179.09 464.50 182.32 465.44 185.56 C 466.30 187.87 465.15 190.20 463.79 192.05 C 461.02 192.39 460.63 188.88 460.31 186.88 C 459.98 182.85 458.00 178.68 459.93 174.76 Z" />
</g>
<g id="#ffffffff">
<path fill="#ffffff" opacity="1.00" d=" M 578.08 83.24 C 581.91 80.00 585.59 76.61 589.35 73.29 C 588.52 78.48 589.10 83.76 591.11 88.61 C 586.40 90.87 581.59 92.90 576.81 94.98 C 577.32 91.07 578.20 87.20 578.08 83.24 Z" />
<path fill="#ffffff" opacity="1.00" d=" M 606.96 87.09 C 609.47 84.71 613.72 83.94 616.25 86.73 C 619.19 90.96 620.15 96.89 617.56 101.53 C 616.30 103.62 615.86 106.00 615.82 108.42 C 618.03 107.89 620.05 106.84 622.00 105.70 C 624.26 106.61 626.55 107.46 628.87 108.24 C 630.24 114.97 631.08 121.89 633.93 128.22 C 631.15 130.20 628.01 131.59 624.84 132.81 C 620.15 134.62 615.86 137.27 611.41 139.57 C 609.42 135.94 607.87 131.99 604.81 129.08 C 600.55 129.33 596.39 128.23 592.51 126.56 C 594.39 124.05 596.69 121.73 597.43 118.58 C 596.78 118.16 595.49 117.31 594.84 116.88 C 592.46 118.88 590.65 121.40 588.81 123.86 C 586.62 122.02 584.37 120.26 581.95 118.72 C 579.44 119.84 576.95 121.08 574.20 121.46 C 573.72 118.77 574.24 116.14 575.73 113.86 C 577.86 115.09 580.14 116.08 582.62 116.29 C 583.48 114.79 584.31 113.28 585.17 111.77 C 584.08 109.21 582.88 106.70 581.66 104.19 C 586.30 101.87 591.17 100.04 595.82 97.73 C 596.09 101.36 595.78 106.66 600.09 107.99 C 603.88 107.11 609.64 104.47 608.30 99.63 C 607.16 95.54 606.76 91.33 606.96 87.09 M 609.55 95.39 C 611.06 97.54 610.46 100.08 610.29 102.51 C 611.63 101.61 612.92 100.64 614.21 99.67 C 613.97 97.60 613.72 95.51 613.06 93.52 C 614.13 92.68 615.35 92.02 616.34 91.07 C 614.42 85.98 606.83 91.57 609.55 95.39 Z" />
<path fill="#ffffff" opacity="1.00" d=" M 589.99 93.98 C 594.82 91.75 599.42 88.78 604.71 87.74 C 601.82 90.92 597.48 91.91 593.77 93.77 C 587.90 96.56 581.73 98.75 576.16 102.14 C 577.71 105.23 579.37 108.31 580.22 111.70 C 577.37 108.79 575.52 105.12 573.57 101.60 C 579.02 99.00 584.68 96.87 589.99 93.98 Z" />
<path fill="#ffffff" opacity="1.00" d=" M 371.77 151.81 C 375.11 144.47 379.40 137.53 384.78 131.51 C 384.93 135.17 385.27 138.90 386.72 142.31 C 387.36 143.49 387.81 145.46 389.58 145.02 C 391.10 141.59 391.87 137.89 393.26 134.42 C 394.36 137.55 395.29 140.85 397.55 143.39 C 398.73 142.49 399.92 141.60 401.13 140.74 C 400.82 142.50 401.40 144.72 399.71 145.91 C 398.23 146.00 396.75 145.86 395.29 145.79 C 395.08 148.22 394.77 150.65 394.11 153.00 C 392.38 153.58 390.63 154.10 388.88 154.61 C 390.54 157.46 391.88 160.47 392.97 163.59 C 391.46 165.07 389.99 166.59 388.55 168.14 C 389.56 170.40 390.83 172.55 392.35 174.51 C 394.22 172.58 396.20 170.74 397.81 168.57 C 398.21 166.41 398.00 164.20 398.02 162.02 C 399.40 161.30 400.75 160.49 402.23 160.00 C 405.93 159.20 408.60 162.57 411.96 163.44 C 411.78 161.65 411.42 159.89 410.96 158.16 C 411.95 158.00 413.92 157.69 414.90 157.54 C 413.04 154.07 409.17 155.20 405.98 155.30 C 408.35 153.45 411.32 152.87 414.13 152.01 C 415.68 153.17 417.26 154.29 418.87 155.36 C 419.94 154.24 420.98 153.08 422.00 151.90 C 423.39 151.93 424.78 151.96 426.18 152.00 C 424.39 156.64 420.44 159.71 417.71 163.71 C 415.09 166.90 411.34 168.84 407.77 170.76 C 405.17 172.24 401.76 171.33 399.41 173.41 C 396.71 177.74 395.92 182.99 395.98 188.02 C 396.12 190.85 394.81 193.42 394.18 196.11 C 394.72 200.54 396.22 205.38 400.39 207.69 C 404.27 208.30 408.29 209.43 412.15 208.11 C 416.49 207.61 417.85 201.13 422.62 202.07 C 426.17 204.43 426.63 208.92 428.82 212.21 C 434.97 217.78 440.91 224.12 448.94 226.96 C 451.70 227.93 455.20 228.95 457.63 226.66 C 463.32 222.91 463.91 215.42 464.20 209.23 C 464.73 205.01 462.42 201.18 460.11 197.86 C 457.43 194.20 457.19 189.53 455.62 185.40 C 454.25 181.85 456.07 177.97 454.72 174.39 C 453.33 170.97 452.98 166.53 449.48 164.51 C 446.82 162.54 443.85 161.01 441.30 158.88 C 446.43 158.71 450.56 162.19 455.11 164.00 C 457.80 161.63 460.36 159.13 462.95 156.66 C 462.99 154.68 463.01 152.70 463.10 150.72 C 467.86 150.81 471.09 154.69 474.52 157.46 C 478.21 160.10 479.75 164.92 483.82 167.13 C 485.94 168.00 488.18 168.61 490.05 170.02 C 490.46 175.70 488.84 181.22 488.88 186.89 C 486.56 205.66 475.19 223.56 458.08 232.14 C 451.15 236.04 443.15 236.95 435.49 238.52 C 426.44 240.22 417.16 238.53 408.64 235.35 C 399.82 231.81 391.36 227.16 384.29 220.75 C 376.57 212.72 370.59 202.90 367.83 192.05 C 365.92 186.52 367.35 180.65 366.79 174.96 C 367.54 167.09 369.32 159.31 371.77 151.81 M 382.44 143.46 C 382.85 145.72 383.45 147.95 384.14 150.15 C 382.29 149.62 380.43 149.11 378.55 148.72 C 379.21 150.88 380.12 152.97 381.37 154.86 C 383.84 153.60 385.68 151.25 388.42 150.32 C 387.35 147.36 385.85 144.16 382.44 143.46 M 459.93 174.76 C 458.00 178.68 459.98 182.85 460.31 186.88 C 460.63 188.88 461.02 192.39 463.79 192.05 C 465.15 190.20 466.30 187.87 465.44 185.56 C 464.50 182.32 465.90 179.09 466.23 175.88 C 464.18 175.23 462.05 174.98 459.93 174.76 Z" />
<path fill="#ffffff" opacity="1.00" d=" M 613.36 145.39 C 620.59 141.29 628.20 137.96 635.93 134.92 C 640.87 143.29 647.19 150.82 651.33 159.67 C 658.82 175.45 661.66 192.89 663.88 210.07 C 664.17 213.95 663.78 217.86 664.30 221.73 C 665.72 229.59 664.43 237.64 665.61 245.54 C 666.79 253.98 665.49 262.44 664.90 270.86 C 656.29 272.59 647.36 271.05 638.90 273.56 C 640.54 268.79 639.57 263.86 639.07 259.00 C 639.28 247.16 636.46 235.57 633.96 224.07 C 632.66 217.89 630.24 212.00 629.23 205.75 C 627.28 196.57 627.41 187.05 628.76 177.80 C 629.34 175.44 626.74 174.14 625.40 172.64 C 623.67 174.68 621.88 176.84 621.65 179.63 C 618.67 197.18 625.41 214.11 629.00 231.00 C 630.79 239.33 631.76 247.81 632.81 256.26 C 633.27 261.77 632.78 267.31 633.19 272.82 C 622.91 274.29 612.55 275.68 602.15 275.30 C 595.67 276.59 589.07 276.65 582.50 276.57 C 585.90 269.93 585.85 262.24 586.00 254.96 C 586.65 244.98 585.67 234.99 585.98 224.99 C 585.51 218.27 587.19 211.68 587.02 204.97 C 587.57 188.34 594.51 172.77 602.47 158.44 C 605.66 153.79 608.10 148.09 613.36 145.39 Z" />
<path fill="#ffffff" opacity="1.00" d=" M 510.98 138.98 C 514.44 138.82 517.74 137.64 521.13 137.05 C 523.55 136.63 525.62 138.33 527.71 139.27 C 531.78 141.72 536.30 143.82 539.32 147.62 C 543.14 152.26 546.74 157.09 550.87 161.46 C 547.62 164.88 544.99 168.82 541.54 172.06 C 538.59 171.23 535.35 171.10 532.80 169.23 C 531.02 168.24 529.29 166.56 527.10 166.98 C 524.50 167.49 522.29 169.05 519.96 170.19 C 518.92 169.70 517.88 169.21 516.84 168.74 C 516.84 166.91 516.94 165.08 516.99 163.26 C 521.82 159.38 527.43 155.78 530.05 149.93 C 530.27 147.50 527.56 146.36 525.99 145.01 C 523.14 143.38 520.64 140.16 517.01 140.87 C 513.24 141.36 509.47 142.43 506.04 144.07 C 503.66 146.05 502.72 149.39 499.92 151.00 C 500.86 147.80 501.86 144.52 503.75 141.73 C 505.37 139.46 508.41 139.16 510.98 138.98 Z" />
<path fill="#ffffff" opacity="1.00" d=" M 512.84 157.12 C 515.11 153.93 518.19 151.44 520.88 148.63 C 521.48 149.09 522.68 150.03 523.28 150.49 C 522.00 152.68 520.13 154.30 517.58 154.72 C 516.99 156.93 516.13 159.05 514.90 160.98 C 514.13 159.74 513.13 158.58 512.84 157.12 Z" />
<path fill="#ffffff" opacity="1.00" d=" M 550.44 171.43 C 552.13 169.17 554.22 167.27 556.23 165.30 C 558.18 167.52 559.94 169.90 561.82 172.18 C 565.81 176.55 570.63 180.04 574.75 184.27 C 576.86 186.48 579.44 188.14 582.12 189.58 C 580.58 195.62 579.85 201.85 579.97 208.09 C 579.63 212.45 578.86 216.78 578.98 221.18 C 572.09 216.48 565.54 211.26 559.74 205.26 C 552.36 198.37 547.01 189.71 540.44 182.10 C 543.78 178.55 547.57 175.40 550.44 171.43 Z" />
<path fill="#ffffff" opacity="1.00" d=" M 415.28 277.48 C 422.80 276.31 430.50 277.81 437.97 276.19 C 442.96 277.30 448.15 276.59 453.09 277.96 C 458.11 279.13 463.40 279.95 467.71 282.98 C 462.75 283.35 457.94 281.69 452.98 282.02 C 435.12 280.06 417.09 281.53 399.17 280.85 C 404.39 279.16 409.84 278.24 415.28 277.48 Z" />
<path fill="#ffffff" opacity="1.00" d=" M 641.63 280.06 C 646.17 279.95 650.78 280.33 655.25 279.20 C 657.99 279.03 661.49 278.08 663.54 280.51 C 666.34 283.84 667.08 288.59 670.42 291.54 C 671.80 292.56 673.79 293.79 675.46 292.65 C 678.06 290.64 680.54 288.47 683.28 286.64 C 683.38 290.07 680.47 292.19 678.18 294.26 C 672.80 298.49 665.71 299.57 659.05 299.60 C 654.86 299.43 650.21 297.82 648.06 293.97 C 645.33 289.66 642.27 285.25 641.63 280.06 Z" />
<path fill="#ffffff" opacity="1.00" d=" M 674.19 286.22 C 674.80 286.83 674.80 286.83 674.19 286.22 Z" />
</g>
<g id="#f7f8f8ff">
<path fill="#f7f8f8" opacity="1.00" d=" M 624.35 92.30 C 625.78 93.47 627.13 94.76 628.42 96.10 C 626.89 96.17 625.35 96.23 623.83 96.27 C 623.96 95.28 624.22 93.29 624.35 92.30 Z" />
</g>
</svg>
