<?xml version="1.0" encoding="UTF-8"?>
<svg width="642px" height="494px" viewBox="0 0 642 494" version="1.1" xmlns="http://www.w3.org/2000/svg" xmlns:xlink="http://www.w3.org/1999/xlink">
    <!-- Generator: Sketch 52.5 (67469) - http://www.bohemiancoding.com/sketch -->
    <title>undraw_co-working_825n</title>
    <desc>Created with Sketch.</desc>
    <defs>
        <linearGradient x1="45.7338053%" y1="101.415585%" x2="63.4336911%" y2="-1.02500887%" id="linearGradient-1">
            <stop stop-color="#808080" stop-opacity="0.25" offset="0%"></stop>
            <stop stop-color="#808080" stop-opacity="0.12" offset="54%"></stop>
            <stop stop-color="#808080" stop-opacity="0.1" offset="100%"></stop>
        </linearGradient>
        <linearGradient x1="50.0062933%" y1="99.9934644%" x2="50.0062933%" y2="0.0225885412%" id="linearGradient-2">
            <stop stop-color="#808080" stop-opacity="0.25" offset="0%"></stop>
            <stop stop-color="#808080" stop-opacity="0.12" offset="54%"></stop>
            <stop stop-color="#808080" stop-opacity="0.1" offset="100%"></stop>
        </linearGradient>
    </defs>
    <g id="Welcome" stroke="none" stroke-width="1" fill="none" fill-rule="evenodd">
        <g id="3" transform="translate(-648.000000, -244.000000)">
            <g id="HEADER" transform="translate(-5.000000, 0.000000)">
                <g id="HERO" transform="translate(0.000000, 244.000000)">
                    <g id="undraw_co-working_825n" transform="translate(653.000000, 0.000000)">
                        <path d="M601.548489,279.648813 C577.893459,315.222024 583.880261,364.667127 595.790847,403.831452 C599.801145,416.941592 604.332782,430.796301 601.640153,445.286758 C598.345979,463.007498 584.91721,476.656019 571.150429,484.296441 C546.06315,498.231335 516.942656,497.085844 495.338608,481.323893 C476.667805,467.698282 463.978076,444.45055 444.923431,431.495051 C413.075935,409.891097 370.549588,421.449098 333.826715,440.017501 C307.845712,453.139096 279.321035,469.874714 254.697804,459.376293 C237.373316,451.987878 226.144482,432.090706 220.564438,410.607029 C217.871809,400.234611 216.107278,388.934346 210.366823,380.933094 C206.929425,376.179308 202.346227,372.91466 197.596888,370.262849 C154.222649,345.783714 96.995695,363.876739 55.0307896,336.350599 C26.7123559,317.793651 9.86337477,280.485021 3.57293571,240.879682 C-2.71750335,201.274344 0.381884204,159.148926 4.58696824,117.69362 C7.57177584,88.2373284 11.8513368,56.7248812 28.2878301,33.1105919 C45.675337,8.13316869 73.8791908,-2.50271181 98.7544972,0.492746187 C123.629804,3.48820418 145.503115,18.3223078 164.540573,36.2320538 C188.333099,58.5691211 210.011625,86.8971044 240.220628,94.652076 C260.793457,99.9499701 282.964677,94.9785408 304.585913,92.3610947 C340.735886,88.0368676 376.559306,90.4423979 412.142109,93.300397 C446.212456,96.0381196 480.500505,99.2512208 512.496955,110.92377 C535.137952,119.182758 552.794722,135.632003 574.020657,146.571439 C587.856185,153.702118 603.267188,154.950703 616.231909,164.326544 C632.204354,175.867362 646.320603,196.795475 640.769205,222.654926 C635.492798,247.277247 614.100722,260.748217 601.548489,279.648813 Z" id="Shape" fill="#DADADA" fill-rule="nonzero" opacity="0.1"></path>
                        <polygon id="Rectangle-path" fill="#6C63FF" fill-rule="nonzero" opacity="0.1" points="504 147 527 147 527 183 504 183"></polygon>
                        <polygon id="Rectangle-path" fill="#6C63FF" fill-rule="nonzero" opacity="0.1" points="506 150 525 150 525 179 506 179"></polygon>
                        <polygon id="Rectangle-path" fill="#6C63FF" fill-rule="nonzero" opacity="0.1" points="457 122 493 122 493 158 457 158"></polygon>
                        <polygon id="Rectangle-path" fill="#6C63FF" fill-rule="nonzero" opacity="0.1" points="460 125 489 125 489 154 460 154"></polygon>
                        <polygon id="Rectangle-path" fill="#6C63FF" fill-rule="nonzero" opacity="0.1" points="37 70 147 70 147 73 37 73"></polygon>
                        <polygon id="Rectangle-path" fill="#6C63FF" fill-rule="nonzero" opacity="0.1" points="37 83 147 83 147 86 37 86"></polygon>
                        <polygon id="Rectangle-path" fill="#D6D6E3" fill-rule="nonzero" points="222 259 233 259 233 384 222 384"></polygon>
                        <path d="M561.613118,271.587922 L561.613118,156.131648 C561.616289,149.4306 567.079693,143.999999 573.818046,144 C580.547427,144.012596 585.996845,149.439511 586,156.131648 L586,295.862641 C586,302.565919 580.535668,308 573.795072,308 L498.204928,308 C491.464332,308 486,302.565919 486,295.862641 C486,289.159362 491.464332,283.725281 498.204928,283.725281 L549.40819,283.725281 C556.148786,283.725281 561.613118,278.2912 561.613118,271.587922 Z" id="Shape" fill="#AEBEE1" fill-rule="nonzero"></path>
                        <path d="M561.613118,271.587922 L561.613118,156.131648 C561.616289,149.4306 567.079693,143.999999 573.818046,144 C580.547427,144.012596 585.996845,149.439511 586,156.131648 L586,295.862641 C586,302.565919 580.535668,308 573.795072,308 L498.204928,308 C491.464332,308 486,302.565919 486,295.862641 C486,289.159362 491.464332,283.725281 498.204928,283.725281 L549.40819,283.725281 C556.148786,283.725281 561.613118,278.2912 561.613118,271.587922 Z" id="Shape" fill="#535461" fill-rule="nonzero"></path>
                        <path d="M486,296 C486.347113,289.525305 491.687338,284.453696 498.157656,284.453879 L549.234705,284.453879 C555.958686,284.453879 561.409549,278.991462 561.409549,272.25323 L561.409549,156.194908 C561.405115,149.681127 566.507488,144.31266 573,144 L573,296 L486,296 Z" id="Shape" fill="#D6D6E3" fill-rule="nonzero"></path>
                        <path d="M110.382564,276.566977 L110.382564,161.134824 C110.382583,154.44408 104.935421,149.015743 98.2056587,149 C91.4646782,149 86.0000338,154.432946 86.0000338,161.134824 L86.0000338,300.836624 C85.9924053,304.059923 87.2749829,307.153804 89.5648089,309.435704 C91.854635,311.717604 94.9635436,313.000009 98.2056587,313 L173.794375,313 C180.535356,313 186,307.567054 186,300.865176 C186,294.163298 180.535356,288.730353 173.794375,288.730353 L122.593933,288.730353 C119.350823,288.731879 116.240437,287.450143 113.949368,285.168078 C111.658298,282.886013 110.374933,279.791266 110.382564,276.566977 Z" id="Shape" fill="#AEBEE1" fill-rule="nonzero"></path>
                        <path d="M110.382564,276.566977 L110.382564,161.134824 C110.382583,154.44408 104.935421,149.015743 98.2056587,149 C91.4646782,149 86.0000338,154.432946 86.0000338,161.134824 L86.0000338,300.836624 C85.9924053,304.059923 87.2749829,307.153804 89.5648089,309.435704 C91.854635,311.717604 94.9635436,313.000009 98.2056587,313 L173.794375,313 C180.535356,313 186,307.567054 186,300.865176 C186,294.163298 180.535356,288.730353 173.794375,288.730353 L122.593933,288.730353 C119.350823,288.731879 116.240437,287.450143 113.949368,285.168078 C111.658298,282.886013 110.374933,279.791266 110.382564,276.566977 Z" id="Shape" fill="#535461" fill-rule="nonzero"></path>
                        <path d="M185,301 C184.652818,294.524816 179.311538,289.452824 172.839942,289.453007 L121.75853,289.453007 C118.52793,289.45453 115.429126,288.169684 113.14421,285.88128 C110.859293,283.592876 109.57555,280.488489 109.57555,277.251435 L109.57555,161.184346 C109.574315,154.680857 104.482597,149.321349 98,149 L98,301 L185,301 Z" id="Shape" fill="#D6D6E3" fill-rule="nonzero"></path>
                        <polygon id="Rectangle-path" fill="#D6D6E3" fill-rule="nonzero" points="444 259 455 259 455 388 444 388"></polygon>
                        <polygon id="Rectangle-path" fill="#000000" fill-rule="nonzero" opacity="0.1" points="222 259 233 259 233 268 222 268"></polygon>
                        <polygon id="Rectangle-path" fill="#000000" fill-rule="nonzero" opacity="0.1" points="444 259 455 259 455 268 444 268"></polygon>
                        <path d="M262,183 C261.841751,184.973333 261.641414,186.973333 261.39899,189 L260,189 L260,183 L262,183 Z" id="Shape" fill="#000000" fill-rule="nonzero" opacity="0.1"></path>
                        <path d="M308.999399,246.253614 C309.03427,248.312386 307.546446,250 305.704101,250 L270.920397,250 L270.920397,246.3812 L299.863229,246.3812 C301.112768,246.3812 301.891551,244.873366 301.263876,243.667099 L275.017726,190.399983 C274.639205,189.617413 273.854125,189.111563 272.983591,189.089327 L260,189.089327 L260,183 L276.395126,183 C277.00424,183.015345 277.55373,183.368951 277.81902,183.916299 L307.906778,241.909894 C308.600092,243.254992 308.973944,244.741241 308.999399,246.253614 Z" id="Shape" fill="#535461" fill-rule="nonzero"></path>
                        <path d="M244.869522,236.205501 L244.399203,237 L240,234.052295 L253.610572,129 L257.115022,129 C257.115022,129 257.258412,129.483608 257.493572,130.404766 C259.839431,139.483928 271.362246,190.901807 244.869522,236.205501 Z" id="Shape" fill="#535461" fill-rule="nonzero"></path>
                        <path d="M258,130.404766 L245.012135,236.205501 L244.528042,237 L240,234.052295 L254.009183,129 L257.616268,129 C257.616268,129 257.757953,129.50088 258,130.404766 Z" id="Shape" fill="#000000" fill-rule="nonzero" opacity="0.1"></path>
                        <polygon id="Rectangle-path" fill="#D6D6E3" fill-rule="nonzero" transform="translate(247.500000, 182.000000) rotate(-83.170000) translate(-247.500000, -182.000000) " points="193 178 302 178 302 186 193 186"></polygon>
                        <path d="M207,244.997067 C206.997263,245.549639 206.615173,245.996797 206.143007,246 L204.860023,246 C204.386719,246 204.00303,245.550972 204.00303,244.997067 C203.99899,244.95811 203.99899,244.918723 204.00303,244.879765 C204.055988,244.378884 204.418743,244.002083 204.85,244 L206.132984,244 C206.524629,244.004785 206.864289,244.317968 206.959907,244.762463 C206.981877,244.838309 206.995354,244.917167 207,244.997067 Z" id="Shape" fill="#E3EDF9" fill-rule="nonzero"></path>
                        <path d="M212,244.997074 C211.99726,245.549642 211.614784,245.996797 211.14214,246 L209.85786,246 C209.384077,246 209,245.550975 209,244.997074 C209.000475,244.903706 209.012299,244.810892 209.035117,244.721415 C209.073038,244.558743 209.147524,244.410907 209.250836,244.293266 C209.409389,244.104466 209.626531,243.998691 209.852843,244.000012 L211.137124,244.000012 C211.475288,243.998187 211.783194,244.22747 211.924749,244.586519 C211.973626,244.715898 211.999239,244.85564 212,244.997074 Z" id="Shape" fill="#E3EDF9" fill-rule="nonzero"></path>
                        <path d="M216,245.000009 C215.99726,245.55096 215.6148,245.996806 215.142177,246 L213.85795,246 C213.384188,246 213.000127,245.552289 213.000127,245.000009 C212.997954,244.856756 213.023682,244.714794 213.075375,244.584808 C213.217311,244.232588 213.519145,244.005583 213.852934,244.000017 L215.13716,244.000017 C215.365079,243.99845 215.584052,244.103302 215.745217,244.291178 C215.906383,244.479054 215.996328,244.734317 215.994983,245.000009 L216,245.000009 Z" id="Shape" fill="#E3EDF9" fill-rule="nonzero"></path>
                        <path d="M221,244.997074 C220.997259,245.549642 220.614699,245.996797 220.141952,246 L218.857388,246 C218.53763,245.999711 218.244536,245.791624 218.096915,245.460089 C217.949294,245.128554 217.971639,244.728578 218.154893,244.422297 L218.255249,244.293266 C218.413837,244.104466 218.631027,243.998691 218.857388,244.000012 L220.141952,244.000012 C220.378405,244.003366 220.603325,244.119973 220.764162,244.322591 C220.914951,244.502919 220.999568,244.744919 221,244.997074 Z" id="Shape" fill="#E3EDF9" fill-rule="nonzero"></path>
                        <path d="M206.974905,245 C206.992212,245.063156 207.000637,245.128177 206.999963,245.193396 C206.997225,245.6378 206.61514,245.997424 206.14298,246 L204.860012,246 C204.386714,246 204.00303,245.638871 204.00303,245.193396 C203.99899,245.162065 203.99899,245.130388 204.00303,245.099057 L206.974905,245 Z" id="Shape" fill="#000000" fill-rule="nonzero" opacity="0.1"></path>
                        <path d="M211.929766,245 C211.974948,245.089084 211.998811,245.18473 212,245.281513 C211.99726,245.677368 211.614784,245.997705 211.14214,246 L209.85786,246 C209.384077,246 209,245.678322 209,245.281513 C209.000475,245.214625 209.012299,245.148134 209.035117,245.084034 L211.929766,245 Z" id="Shape" fill="#000000" fill-rule="nonzero" opacity="0.1"></path>
                        <path d="M215.869571,244 C215.953983,244.103512 215.999134,244.222882 216,244.344828 C215.99726,244.705799 215.6148,244.997907 215.142177,245 L213.85795,245 C213.384188,245 213.000127,244.706669 213.000127,244.344828 C212.997954,244.250971 213.023682,244.157961 213.075375,244.072797 L215.869571,244 Z" id="Shape" fill="#000000" fill-rule="nonzero" opacity="0.1"></path>
                        <path d="M220.999993,244.404181 C220.997253,244.732451 220.614693,244.998097 220.141947,245 L218.857386,245 C218.537629,244.999829 218.244535,244.876208 218.096915,244.67925 C217.949294,244.482291 217.971639,244.244673 218.154892,244.062718 L220.764156,244 C220.916161,244.107992 221.000874,244.253175 220.999993,244.404181 Z" id="Shape" fill="#000000" fill-rule="nonzero" opacity="0.1"></path>
                        <path d="M229.994137,249 L201,249 L201,247.79573 C200.999306,246.684298 201.964305,245.772619 203.181157,245.73509 L226.435099,245.001823 C227.368596,244.972822 228.275036,245.290811 228.947003,245.883026 C229.61897,246.475242 229.998952,247.290998 230,248.14363 L229.994137,249 Z" id="Shape" fill="#D6D6E3" fill-rule="nonzero"></path>
                        <path d="M370.000589,246.253614 C369.966421,248.312386 371.424228,250 373.229402,250 L407.328402,250 L407.328402,246.3812 L378.935347,246.3812 C377.711017,246.3812 376.947947,244.873366 377.562959,243.667099 L403.279573,190.399983 C403.650457,189.617413 404.419697,189.111563 405.272668,189.089327 L418,189.089327 L418,183 L401.947047,183 C401.359778,183.022735 400.8324,183.372619 400.574659,183.910499 L371.093943,241.904094 C370.405863,243.248999 370.03171,244.737432 370.000589,246.253614 Z" id="Shape" fill="#535461" fill-rule="nonzero"></path>
                        <path d="M432.133295,236.205501 L432.603342,237 L437,234.052295 L423.397302,129 L419.89488,129 C419.89488,129 419.751573,129.483608 419.516549,130.404766 C417.166315,139.483928 405.627237,190.901807 432.133295,236.205501 Z" id="Shape" fill="#535461" fill-rule="nonzero"></path>
                        <path d="M420,130.404766 L432.987865,236.205501 L433.471958,237 L438,234.052295 L423.99672,129 L420.389636,129 C420.389636,129 420.242047,129.50088 420,130.404766 Z" id="Shape" fill="#000000" fill-rule="nonzero" opacity="0.1"></path>
                        <polygon id="Rectangle-path" fill="#D6D6E3" fill-rule="nonzero" transform="translate(431.000000, 182.500000) rotate(-6.830000) translate(-431.000000, -182.500000) " points="427 128 435 128 435 237 427 237"></polygon>
                        <path d="M470,244.997067 C470.002737,245.549639 470.384827,245.996797 470.856993,246 L472.139977,246 C472.613281,246 472.99697,245.550972 472.99697,244.997067 C473.00101,244.95811 473.00101,244.918723 472.99697,244.879765 C472.944012,244.378884 472.581257,244.002083 472.15,244 L470.867016,244 C470.475371,244.004785 470.135711,244.317968 470.040093,244.762463 C470.018123,244.838309 470.004646,244.917167 470,244.997067 Z" id="Shape" fill="#E3EDF9" fill-rule="nonzero"></path>
                        <path d="M465.001607,244.997074 C465.004346,245.549642 465.386617,245.996797 465.859007,246 L467.1426,246 C467.369997,246 467.58808,245.894335 467.748873,245.70625 C467.909667,245.518164 468,245.263066 468,244.997074 C467.999525,244.903706 467.987707,244.810892 467.964902,244.721415 C467.927001,244.558743 467.852555,244.410907 467.749298,244.293266 C467.59083,244.104466 467.373804,243.998691 467.147614,244.000012 L465.838951,244.000012 C465.500968,243.998187 465.193227,244.22747 465.051748,244.586519 C465.011462,244.717994 464.994404,244.857663 465.001607,244.997074 Z" id="Shape" fill="#E3EDF9" fill-rule="nonzero"></path>
                        <path d="M461,245.000009 C461.00274,245.55096 461.3852,245.996806 461.857823,246 L463.14205,246 C463.615812,246 463.999873,245.552289 463.999873,245.000009 C464.002046,244.856756 463.976318,244.714794 463.924625,244.584808 C463.782689,244.232588 463.480855,244.005583 463.147066,244.000017 L461.86284,244.000017 C461.634921,243.99845 461.415948,244.103302 461.254783,244.291178 C461.093617,244.479054 461.003672,244.734317 461.005017,245.000009 L461,245.000009 Z" id="Shape" fill="#E3EDF9" fill-rule="nonzero"></path>
                        <path d="M457,244.997074 C457.002741,245.549642 457.385301,245.996797 457.858048,246 L459.142612,246 C459.46237,245.999711 459.755464,245.791624 459.903085,245.460089 C460.050706,245.128554 460.028361,244.728578 459.845107,244.422297 L459.744751,244.293266 C459.586163,244.104466 459.368973,243.998691 459.142612,244.000012 L457.858048,244.000012 C457.621595,244.003366 457.396675,244.119973 457.235838,244.322591 C457.085049,244.502919 457.000432,244.744919 457,244.997074 Z" id="Shape" fill="#E3EDF9" fill-rule="nonzero"></path>
                        <path d="M470.025095,245 C470.007788,245.063156 469.999363,245.128177 470.000037,245.193396 C470.002775,245.6378 470.38486,245.997424 470.85702,246 L472.139988,246 C472.613286,246 472.99697,245.638871 472.99697,245.193396 C473.00101,245.162065 473.00101,245.130388 472.99697,245.099057 L470.025095,245 Z" id="Shape" fill="#000000" fill-rule="nonzero" opacity="0.1"></path>
                        <path d="M465.070234,245 C465.025052,245.089084 465.001189,245.18473 465,245.281513 C465.00274,245.677368 465.385216,245.997705 465.85786,246 L467.14214,246 C467.615923,246 468,245.678322 468,245.281513 C467.999525,245.214625 467.987701,245.148134 467.964883,245.084034 L465.070234,245 Z" id="Shape" fill="#000000" fill-rule="nonzero" opacity="0.1"></path>
                        <path d="M461.130429,244 C461.046017,244.103512 461.000866,244.222882 461,244.344828 C461.00274,244.705799 461.3852,244.997907 461.857823,245 L463.14205,245 C463.615812,245 463.999873,244.706669 463.999873,244.344828 C464.002046,244.250971 463.976318,244.157961 463.924625,244.072797 L461.130429,244 Z" id="Shape" fill="#000000" fill-rule="nonzero" opacity="0.1"></path>
                        <path d="M457.000007,244.404181 C457.002747,244.732451 457.385307,244.998097 457.858053,245 L459.142614,245 C459.462371,244.999829 459.755465,244.876208 459.903085,244.67925 C460.050706,244.482291 460.028361,244.244673 459.845108,244.062718 L457.235844,244 C457.083839,244.107992 456.999126,244.253175 457.000007,244.404181 Z" id="Shape" fill="#000000" fill-rule="nonzero" opacity="0.1"></path>
                        <path d="M448.005863,249 L477,249 L477,247.79573 C477.000694,246.684298 476.035695,245.772619 474.818843,245.73509 L451.564901,245.001823 C450.631404,244.972822 449.724964,245.290811 449.052997,245.883026 C448.38103,246.475242 448.001048,247.290998 448,248.14363 L448.005863,249 Z" id="Shape" fill="#D6D6E3" fill-rule="nonzero"></path>
                        <path d="M567.615519,264.278916 C580.835165,241.854175 576.044691,196.620726 576.577602,195.75537 C577.053212,194.99317 575.230998,173.691671 563.082905,168.488077 C560.888226,164.138376 558.727928,159.238516 558.727928,159.238516 C558.515366,159.438229 558.280838,159.613183 558.02884,159.760021 C557.933336,159.500223 557.839742,159.236605 557.748059,158.969166 C557.593342,158.516431 557.450086,158.052234 557.306831,157.588036 C557.646954,157.696638 557.993304,157.78467 558.344003,157.851654 C559.270341,158.077841 560.245477,157.991198 561.117435,157.605229 C561.414635,157.445697 561.683698,157.238555 561.913938,156.99203 C562.870886,156.355908 563.398068,155.209741 563.845026,154.126614 L567.380579,145.656446 C568.973584,141.833982 570.578049,137.988594 571.426123,133.936897 C572.688093,127.839638 572.199393,121.509711 570.016486,115.678469 C569.179872,113.454907 568.022365,111.231345 566.056896,109.901792 C562.120226,107.231225 556.642124,109.076552 552.143891,107.512035 C550.665491,106.99626 549.330347,106.125174 547.851947,105.597938 C544.660208,104.451772 541.055891,105.06497 537.984487,106.491947 C534.913082,107.918924 532.426161,110.188333 529.738682,112.222778 C528.414999,113.237135 526.300543,114.285877 524.74192,115.661277 C523.229138,116.841828 522.065901,118.268805 522.28938,120.148518 C522.54151,122.297579 524.804952,123.587016 526.913678,124.091329 C527.263222,124.171561 527.624227,124.2346 527.979501,124.297639 C522.888472,129.455693 520.877148,136.907161 522.681154,143.926733 C524.48516,150.946305 529.839879,156.50433 536.786868,158.568008 C537.862196,160.587407 538.792833,162.680601 539.571761,164.831807 C539.674905,165.125989 539.77614,165.422082 539.875464,165.720085 C536.402943,166.705788 533.686813,167.525297 533.14244,167.978033 C531.497864,169.341971 534.941733,181.285022 534.941733,181.285022 C534.065008,182.396803 533.171092,183.663317 532.265715,185.021524 C525.399815,195.451243 521.052637,207.334642 519.56752,219.733167 C518.994497,224.266255 518.249566,228.902497 517.304078,233.309506 L476.235502,225.074302 L476.149549,226.088659 L475.169679,225.847964 L472.086814,225.085763 L471.966479,225.779194 L471.4966,225.555691 C463.8582,221.973922 450.988098,217.400719 442.272414,222.117193 C433.075391,227.068631 452.924916,233.647625 465.663223,237.149163 C461.440042,237.355472 457.400228,238.36983 454.202758,240.742394 C444.965624,247.665237 471.089753,251.26993 483.426944,252.547905 L483.925474,252.599483 L483.925474,252.863101 L488.200227,253.258528 L489.203018,253.350222 L489.300432,254.874623 C489.300432,254.874623 495.42032,255.877518 503.597362,257.092454 C494.262813,259.424902 482.727855,261.040997 474.71699,261.986584 C466.224786,262.983749 458.993233,268.897966 456.7126,277.144632 C455.975406,279.509388 455.904031,282.031579 456.506312,284.434249 C458.890088,292.761146 455.97913,354.017998 455.320154,367.210371 L440.220991,375.904042 C440.220991,375.904042 416.727038,378.769457 432.376303,384.276786 C433.786326,384.758278 435.228083,385.141255 436.691168,385.422952 C434.628284,386.752505 434.805921,388.488947 440.885698,390.620816 C456.546423,396.110952 492.95059,390.380121 492.95059,390.380121 C492.95059,390.380121 492.154088,383.927205 490.859055,378.563147 L491.260171,378.597532 C491.260171,378.597532 487.501139,364.608574 493.20272,357.553921 C498.904302,350.499268 492.245771,296.807113 492.245771,296.807113 C492.245771,296.807113 502.227836,292.675184 532.065157,292.405835 C556.132133,298.58367 567.861919,276.468394 567.695742,265.035386 C567.64417,264.777499 567.63271,264.51388 567.615519,264.278916 Z" id="Shape" fill="url(#linearGradient-1)" fill-rule="nonzero"></path>
                        <path d="M478,229.640267 L475.444263,240 C475.444263,240 473.146971,239.482013 469.701033,238.595681 C458.03079,235.568336 433.415308,228.299257 443.282177,222.963995 C451.7879,218.359669 464.313884,222.837376 471.751366,226.330908 C474.473657,227.614364 476.518247,228.765445 477.43142,229.306453 C477.816217,229.525159 478,229.640267 478,229.640267 Z" id="Shape" fill="#F8B9BF" fill-rule="nonzero"></path>
                        <path d="M477.822222,231.884211 L475.925926,239 C475.925926,239 473.555556,238.507368 470,237.664421 L472.139259,226 C474.948148,227.220632 477.057778,228.315368 478,228.829895 L477.822222,231.884211 Z" id="Shape" fill="#000000" fill-rule="nonzero" opacity="0.1"></path>
                        <polygon id="Shape" fill="#D9DFE8" fill-rule="nonzero" points="477.205221 240 470 238.336043 472.239304 226 478 227.327913"></polygon>
                        <polygon id="Shape" fill="#000000" fill-rule="nonzero" opacity="0.1" points="476.389302 240 474 239.246944 474.900446 226 477 226.661777"></polygon>
                        <path d="M546.121625,186.329069 C546.121625,186.329069 532.415655,178.453088 526.324114,201.046522 C520.232572,223.639956 519.657898,234.047911 519.657898,234.047911 L476.37347,225.440344 L475,241.163728 C475,241.163728 521.278478,256.024069 527.099923,254.943836 C532.921368,253.863604 551.810895,222.365396 551.810895,222.365396 C551.810895,222.365396 568.982147,197.954428 546.121625,186.329069 Z" id="Shape" fill="#F79120" fill-rule="nonzero"></path>
                        <g id="Group" opacity="0.1" transform="translate(441.000000, 186.000000)" fill-rule="nonzero">
                            <path d="M37.0213235,43.604878 L34.4691176,53.8487805 C34.4691176,53.8487805 32.175,53.3365854 28.7338235,52.4601626 C17.0797059,49.4666667 -7.50176471,42.2788618 2.35147059,37.003252 C10.8454412,32.4504065 23.3541176,36.8780488 30.7813235,40.3325203 C33.4998529,41.601626 35.5416176,42.7398374 36.4535294,43.2747967 C36.8377941,43.4910569 37.0213235,43.604878 37.0213235,43.604878 Z" id="Shape" fill="#000000"></path>
                            <path d="M36.3044118,46.495935 L34.4691176,53.8943089 C34.4691176,53.8943089 32.175,53.3821138 28.7338235,52.5056911 L30.8042647,40.3780488 C33.5227941,41.6471545 35.5645588,42.7853659 36.4764706,43.3203252 L36.3044118,46.495935 Z" id="Shape" fill="#000000"></path>
                            <polygon id="Shape" fill="#000000" points="36.3101471 54.5943089 29.1869118 52.8471545 31.4007353 39.8943089 37.0958824 41.2886179"></polygon>
                            <polygon id="Shape" fill="#000000" points="36.3101471 54.5943089 33.2360294 53.8430894 34.3945588 40.6284553 37.0958824 41.2886179"></polygon>
                            <path d="M105.041912,1.51382114 C105.041912,1.51382114 91.3632353,-6.32845528 85.2838235,16.1682927 C79.2044118,38.6650407 78.6308824,49.0284553 78.6308824,49.0284553 L35.4326471,40.4577236 L34.0619118,56.1138211 C34.0619118,56.1138211 80.2482353,70.9105691 86.0580882,69.8349593 C91.8679412,68.7593496 110.719853,37.395935 110.719853,37.395935 C110.719853,37.395935 127.856912,13.0894309 105.041912,1.51382114 Z" id="Shape" fill="#F79120"></path>
                        </g>
                        <path d="M459.582173,362.003157 L441.894954,371.862498 C441.894954,371.862498 418.979221,374.579245 434.244873,379.756652 C449.510524,384.934058 485,379.5284 485,379.5284 C485,379.5284 483.027084,364.096388 480.277656,361.941919 C477.528229,359.78745 459.582173,362.003157 459.582173,362.003157 Z" id="Shape" fill="#BCBCBC" fill-rule="nonzero"></path>
                        <path d="M526.76496,249.262743 C526.76496,249.262743 517.997062,253.857225 502.421149,257.82571 C493.292219,260.122951 481.865299,261.753992 473.968459,262.684375 C465.700951,263.586046 458.793844,269.399079 456.478508,277.403948 C455.757373,279.713764 455.687955,282.178493 456.277935,284.525396 C458.873921,293.616728 455,367.518979 455,367.518979 L481.762147,370 C481.762147,370 478.111721,356.383102 483.653262,349.520094 C489.194803,342.657086 482.724896,290.41782 482.724896,290.41782 C482.724896,290.41782 492.42116,286.397648 521.395339,286.133465 C548.237715,293.025189 559.297874,263.580299 555.154612,255.32746 C551.011351,247.074621 526.76496,249.262743 526.76496,249.262743 Z" id="Shape" fill="#333333" fill-rule="nonzero"></path>
                        <g id="Group" opacity="0.1" transform="translate(429.000000, 248.000000)" fill-rule="nonzero">
                            <path d="M30.6446667,114.383898 L13.0146667,124.514619 C13.0146667,124.514619 -9.82693333,127.306144 5.38933333,132.626059 C20.6056,137.945975 55.9802667,132.391525 55.9802667,132.391525 C55.9802667,132.391525 54.0137333,116.534746 51.2732,114.320975 C48.5326667,112.107203 30.6446667,114.383898 30.6446667,114.383898 Z" id="Shape" fill="#BCBCBC"></path>
                            <path d="M99.3586667,0.720762712 C99.3586667,0.720762712 90.5866667,5.2970339 75.0034667,9.24978814 C65.8702667,11.5379237 54.438,13.1625 46.5374667,14.0891949 C38.2660909,14.9872917 31.3557525,20.7772837 29.0393333,28.7504237 C28.3178611,31.0510835 28.2484104,33.5060437 28.8386667,35.8436441 C31.4358667,44.8989407 27.5601333,118.508263 27.5601333,118.508263 L54.3348,120.979449 C54.3348,120.979449 50.6826667,107.416525 56.2268,100.58072 C61.7709333,93.7449153 55.298,41.7127119 55.298,41.7127119 C55.298,41.7127119 64.9988,37.7084746 93.9865333,37.445339 C120.841467,44.3097458 131.9068,14.9815678 127.7616,6.76144068 C123.6164,-1.45868644 99.3586667,0.720762712 99.3586667,0.720762712 Z" id="Shape" fill="#333333"></path>
                        </g>
                        <path d="M467.57997,368.002685 L449.891219,377.857384 C449.891219,377.857384 426.985005,380.550594 442.240475,385.747821 C457.495944,390.945048 493,385.519678 493,385.519678 C493,385.519678 491.026913,370.094931 488.277247,367.941476 C485.527581,365.788021 467.57997,368.002685 467.57997,368.002685 Z" id="Shape" fill="#BCBCBC" fill-rule="nonzero"></path>
                        <path d="M530.406795,291.140325 C501.427617,291.404486 491.72968,295.424329 491.72968,295.424329 C491.72968,295.424329 498.200703,347.682293 492.658206,354.521769 C487.115709,361.361246 490.766765,375 490.766765,375 L464,372.519182 C464,372.519182 464.045853,371.646302 464.120364,370.084306 C464.762308,357.243778 467.588007,297.635243 465.266693,289.532387 C464.680923,287.192946 464.750336,284.736973 465.4673,282.434492 C467.771902,274.419436 474.679227,268.592182 482.954538,267.681667 C490.847008,266.757103 502.2759,265.149166 511.406405,262.823399 L511.853473,262.708547 C527.156955,258.7691 535.754417,254.261133 535.754417,254.261133 C535.754417,254.261133 560.004991,252.078932 564.148968,260.331096 C564.733409,261.639661 565.02303,263.061133 564.99725,264.494506 C565.20359,275.629472 553.797623,297.152862 530.406795,291.140325 Z" id="Shape" fill="#333333" fill-rule="nonzero"></path>
                        <path d="M490,243.073557 L489.022137,254 C489.022137,254 486.671835,253.828721 483.177833,253.450725 C471.24333,252.169083 445.927544,248.56631 454.876992,241.638354 C462.574089,235.68492 475.566514,238.283641 483.406573,240.693365 C486.265822,241.579293 488.461724,242.435689 489.439587,242.843216 C489.799853,242.984965 490,243.073557 490,243.073557 Z" id="Shape" fill="#F8B9BF" fill-rule="nonzero"></path>
                        <path d="M562,174.308924 C562,174.308924 558.368638,177.19222 553.930951,180.35796 C549.063997,181.475973 543.413922,182.399804 539.341692,183 C540.797717,178.292579 539.921781,172.996731 538.280127,168.354037 C536.494274,163.502698 534.043477,158.930792 531,154.773128 L555.549401,147 C553.623503,151.948676 554.493638,157.591697 556.129491,162.499183 C557.573764,166.677087 559.547122,170.646905 562,174.308924 Z" id="Shape" fill="#F8B9BF" fill-rule="nonzero"></path>
                        <path d="M490,246.33496 L489.248035,254 C489.248035,254 486.735371,253.832742 483,253.46362 L483.244541,241 C486.30131,241.865129 488.648908,242.70142 489.694323,243.099379 L490,246.33496 Z" id="Shape" fill="#000000" fill-rule="nonzero" opacity="0.1"></path>
                        <polygon id="Shape" fill="#D9DFE8" fill-rule="nonzero" points="491 254 483 253.319044 483.263736 240 489.66248 240.542457"></polygon>
                        <path d="M561,173.533391 C561,173.533391 557.478846,176.342218 553.175838,179.426197 C548.456591,180.515334 542.97799,181.415305 539.029347,182 C540.441184,177.414159 539.591832,172.255087 538,167.732302 C543.816092,166.012611 552.135241,163.788478 555.31328,162 C556.709723,166.079659 558.621359,169.9567 561,173.533391 Z" id="Shape" fill="#000000" fill-rule="nonzero" opacity="0.1"></path>
                        <path d="M556.247007,162 C556.247007,162 560.301642,171.040182 562.855833,175.124297 C565.410024,179.208411 533.179114,183 533.179114,183 C533.179114,183 529.834613,171.619609 531.432414,170.314492 C533.030215,169.009376 553.549644,164.643986 556.247007,162 Z" id="Shape" fill="#D9DFE8" fill-rule="nonzero"></path>
                        <path d="M564.999109,264.193773 C563.646355,266.522005 561.961117,268.650678 559.994019,270.515846 C545.790075,283.684044 522.507262,269.958344 512,262.454366 C527.255242,258.629902 535.825602,254.253511 535.825602,254.253511 C535.825602,254.253511 559.999732,252.135003 564.130646,260.146308 C564.721927,261.416642 565.018473,262.79869 564.999109,264.193773 Z" id="Shape" fill="#000000" fill-rule="nonzero" opacity="0.1"></path>
                        <path d="M559.89829,269.42682 C543.600776,284.654106 515.492466,264.491001 507.914641,258.550998 C506.686272,257.586527 506,256.990825 506,256.990825 C508.993068,254.233574 511.622815,248.390018 513.704699,241.241591 C515.645028,234.402335 517.046712,227.426147 517.897301,220.37499 C519.348158,208.453515 523.596883,197.027204 530.307864,186.99864 C531.190213,185.693768 532.037961,184.473997 532.92031,183.407406 C539.073689,175.708663 549.413902,170.81823 549.413902,170.81823 C571.236193,164.543499 574.171591,196.388043 573.589125,197.307127 C573.006659,198.22621 578.842853,251.720278 559.89829,269.42682 Z" id="Shape" fill="#F79120" fill-rule="nonzero"></path>
                        <path d="M561.396691,226.60996 C561.396691,226.60996 547.518999,260.744887 541.969062,262.692991 C538.791966,263.802089 521.822737,261.698826 507.893709,259.693255 C506.678769,258.71633 506,258.112935 506,258.112935 C508.960346,255.320077 511.561344,249.401058 513.620467,242.160316 L531.559367,243.022309 C531.559367,243.022309 530.561177,232.597939 533.196399,209.220686 C535.83162,185.843434 550.439417,191.636027 550.439417,191.636027 C574.607022,199.790482 561.396691,226.60996 561.396691,226.60996 Z" id="Shape" fill="#000000" fill-rule="nonzero" opacity="0.1"></path>
                        <polygon id="Shape" fill="#000000" fill-rule="nonzero" opacity="0.1" points="490 253 486.83908 252.72096 486 240 488.775862 240.240741"></polygon>
                        <path d="M551.299356,190.634815 C551.299356,190.634815 536.539304,184.847487 533.876616,208.220936 C531.213928,231.594384 532.222522,242.025368 532.222522,242.025368 L488,239.916183 L488.997067,255.755185 C488.997067,255.755185 537.12717,263.634457 542.734952,261.691938 C548.342735,259.749419 562.365072,225.605908 562.365072,225.605908 C562.365072,225.605908 575.695802,198.7842 551.299356,190.634815 Z" id="Shape" fill="#F79120" fill-rule="nonzero"></path>
                        <path d="M551.741021,155.933687 C551.10586,152.336689 554.706994,152.384018 556,149 L532,156.815188 C533.665899,159.148382 535.152563,161.615183 536.446125,164.192584 C537.691246,164.578196 538.969548,164.835788 540.26276,164.961679 C545.984877,165.529626 547.771267,159.654924 551.741021,155.933687 Z" id="Shape" fill="#000000" fill-rule="nonzero" opacity="0.1"></path>
                        <circle id="Oval" fill="#F8B9BF" fill-rule="nonzero" transform="translate(541.000000, 142.000000) rotate(-84.720000) translate(-541.000000, -142.000000) " cx="541" cy="142" r="20"></circle>
                        <path d="M521.027032,124.29385 C521.274167,126.380937 523.481133,127.653831 525.532922,128.123999 C527.584712,128.594167 529.80892,128.617102 531.607828,129.712249 C534.481482,131.478246 535.257369,135.400134 534.895289,138.771583 C534.694133,140.675189 534.406767,143.008828 535.970035,144.115442 C536.460986,144.415426 537.008922,144.610656 537.579282,144.688818 C539.209885,145.018177 540.883853,145.076299 542.533462,144.860831 C543.49901,144.734688 544.493295,144.516805 545.407117,144.786292 C546.912912,145.222057 547.803745,146.804574 548.096857,148.335486 C548.38997,149.866399 548.229045,151.460383 548.464685,153.002763 C549.136842,156.956067 552.18022,160.088004 556.120101,160.880943 C557.022505,161.099908 557.972145,161.015246 558.821336,160.640125 C559.913324,160.06675 560.470813,158.84546 560.942093,157.704442 L564.390478,149.47077 C565.942251,145.76103 567.505519,142.016888 568.333132,138.083532 C569.562038,132.159257 569.08583,126.009001 566.959525,120.343293 C566.143407,118.187401 565.016935,116.025775 563.103081,114.729947 C559.269626,112.132556 553.907387,113.927221 549.550926,112.436445 C548.108352,111.937608 546.80946,111.089012 545.372633,110.578708 C542.263339,109.472093 538.751733,110.056936 535.757385,111.450239 C532.763037,112.843541 530.34342,115.03957 527.711153,117.04065 C525.429471,118.81238 520.595984,120.687318 521.027032,124.29385 Z" id="Shape" fill="#000000" fill-rule="nonzero" opacity="0.1"></path>
                        <path d="M522.026339,124.29385 C522.273477,126.380937 524.480475,127.653831 526.532294,128.123999 C528.584113,128.594167 530.808354,128.617102 532.607288,129.712249 C535.480984,131.478246 536.256881,135.400134 535.894796,138.771583 C535.693637,140.675189 535.406267,143.008828 536.969558,144.115442 C537.460516,144.415426 538.00846,144.610656 538.578828,144.688818 C540.209454,145.018177 541.883447,145.076299 543.53308,144.860831 C544.498642,144.734688 545.49294,144.516805 546.406776,144.786292 C547.912592,145.222057 548.803438,146.804574 549.096555,148.335486 C549.389672,149.866399 549.228745,151.460383 549.464388,153.002763 C550.136555,156.956067 553.179977,160.088004 557.119914,160.880943 C558.022332,161.099908 558.971986,161.015246 559.821189,160.640125 C560.913193,160.06675 561.47069,158.84546 561.941976,157.704442 L565.390411,149.47077 C566.942207,145.76103 568.505498,142.016888 569.333122,138.083532 C570.562046,132.159257 570.085831,126.009001 567.959496,120.343293 C567.143366,118.187401 566.016877,116.025775 564.102996,114.729947 C560.269485,112.132556 554.907168,113.927221 550.550645,112.436445 C549.10805,111.937608 547.809139,111.089012 546.372291,110.578708 C543.262952,109.472093 539.751296,110.056936 536.756905,111.450239 C533.762513,112.843541 531.342861,115.03957 528.710556,117.04065 C526.434589,118.81238 521.601032,120.687318 522.026339,124.29385 Z" id="Shape" fill="#B96B6B" fill-rule="nonzero"></path>
                        <path d="M538,203 C538,203 530.447253,232.719198 522.928451,235.469914 C515.409649,238.22063 518.730594,239 518.730594,239" id="Shape" fill="#000000" fill-rule="nonzero" opacity="0.1"></path>
                        <polygon id="Rectangle-path" fill="#D6D6E3" fill-rule="nonzero" points="530 312 538 312 538 366 530 366"></polygon>
                        <polygon id="Rectangle-path" fill="#000000" fill-rule="nonzero" opacity="0.1" points="530 312 538 312 538 316 530 316"></polygon>
                        <path d="M513,311.884886 L513,313.115114 C513,313.880234 513.279204,314.614015 513.776191,315.155037 C514.273178,315.696058 514.947237,316 515.650083,316 L551.349917,316 C552.052763,316 552.726822,315.696058 553.223809,315.155037 C553.720796,314.614015 554,313.880234 554,313.115114 L554,311.884886 C554,310.291607 552.813518,309 551.349917,309 L515.650083,309 C514.947237,309 514.273178,309.303942 513.776191,309.844963 C513.279204,310.385985 513,311.119766 513,311.884886 Z" id="Shape" fill="#D6D6E3" fill-rule="nonzero"></path>
                        <path d="M514,310 L554,310 C553.495097,309.365758 552.740062,308.998619 551.943474,309.000004 L516.050845,309.000004 C515.256246,309.000373 514.503643,309.367343 514,310 Z" id="Shape" fill="#000000" fill-rule="nonzero" opacity="0.1"></path>
                        <path d="M503.5,363 L565.5,363 C567.432997,363 569,364.567003 569,366.5 L569,366.5 C569,368.432997 567.432997,370 565.5,370 L503.5,370 C501.567003,370 500,368.432997 500,366.5 L500,366.5 C500,364.567003 501.567003,363 503.5,363 Z" id="Rectangle-path" fill="#D6D6E3" fill-rule="nonzero"></path>
                        <circle id="Oval" fill="#535461" fill-rule="nonzero" cx="565" cy="374" r="4"></circle>
                        <circle id="Oval" fill="#535461" fill-rule="nonzero" cx="504" cy="374" r="4"></circle>
                        <circle id="Oval" fill="#535461" fill-rule="nonzero" cx="534" cy="374" r="4"></circle>
                        <path d="M530,244 L586,244 C588.761424,244 591,246.238576 591,249 L591,249 C591,251.761424 588.761424,254 586,254 L530,254 C527.238576,254 525,251.761424 525,249 L525,249 C525,246.238576 527.238576,244 530,244 Z" id="Rectangle-path" fill="#D6D6E3" fill-rule="nonzero"></path>
                        <path d="M538,363 C538,363 534.85734,365.25 530,363" id="Shape" fill="#000000" fill-rule="nonzero" opacity="0.1"></path>
                        <path d="M591,250 L591,250.643519 C591,252.497252 589.121269,254 586.803736,254 L529.196264,254 C526.878731,254 525,252.497252 525,250.643519 L525,250 L591,250 Z" id="Shape" fill="#000000" fill-rule="nonzero" opacity="0.1"></path>
                        <polygon id="Rectangle-path" fill="#D6D6E3" fill-rule="nonzero" points="471 259 482 259 482 402 471 402"></polygon>
                        <polygon id="Rectangle-path" fill="#000000" fill-rule="nonzero" opacity="0.1" points="471 259 482 259 482 268 471 268"></polygon>
                        <polygon id="Rectangle-path" fill="#D6D6E3" fill-rule="nonzero" points="133 315 141 315 141 369 133 369"></polygon>
                        <polygon id="Rectangle-path" fill="#000000" fill-rule="nonzero" opacity="0.1" points="133 315 141 315 141 319 133 319"></polygon>
                        <path d="M158,315.87037 L158,317.104938 C158,318.703837 156.813518,320 155.349917,320 L119.650083,320 C118.947237,320 118.273178,319.694985 117.776191,319.152056 C117.279204,318.609127 117,317.872756 117,317.104938 L117,315.87037 C117.012408,314.281123 118.195264,312.999942 119.650083,313 L155.349917,313 C156.052763,313 156.726822,313.305015 157.223809,313.847944 C157.720796,314.390873 158,315.127244 158,315.895062 L158,315.87037 Z" id="Shape" fill="#D6D6E3" fill-rule="nonzero"></path>
                        <path d="M157,314 L117,314 C117.510324,313.357995 118.264444,312.991304 119.056234,313.000157 L154.943766,313.000157 C155.735556,312.991304 156.489676,313.357995 157,314 Z" id="Shape" fill="#000000" fill-rule="nonzero" opacity="0.1"></path>
                        <path d="M106.5,367 L168.5,367 C170.432997,367 172,368.567003 172,370.5 L172,370.5 C172,372.432997 170.432997,374 168.5,374 L106.5,374 C104.567003,374 103,372.432997 103,370.5 L103,370.5 C103,368.567003 104.567003,367 106.5,367 Z" id="Rectangle-path" fill="#D6D6E3" fill-rule="nonzero"></path>
                        <circle id="Oval" fill="#535461" fill-rule="nonzero" cx="106" cy="378" r="4"></circle>
                        <circle id="Oval" fill="#535461" fill-rule="nonzero" cx="167" cy="378" r="4"></circle>
                        <circle id="Oval" fill="#535461" fill-rule="nonzero" cx="137" cy="378" r="4"></circle>
                        <path d="M133,367 C133,367 136.14266,369.25 141,367" id="Shape" fill="#000000" fill-rule="nonzero" opacity="0.1"></path>
                        <path d="M345,203 C345,203 335.612206,186.056373 339.043248,171.328759 C340.521335,165.160588 339.944663,158.682738 337.399808,152.867707 C336.177934,150.117369 334.705192,147.483821 333,145" id="Shape" stroke="#333333" stroke-width="2"></path>
                        <path d="M334.94148,135.519315 C335.411553,137.725977 332.895281,145 332.895281,145 C332.895281,145 327.647057,139.483345 327.171454,137.276683 C326.737575,135.806334 327.141837,134.209959 328.217996,133.144028 C329.294155,132.078098 330.860537,131.72256 332.273006,132.223621 C333.685474,132.724681 334.705579,133.997753 334.913828,135.519315 L334.94148,135.519315 Z" id="Shape" fill="#6C63FF" fill-rule="nonzero"></path>
                        <path d="M344.685616,146.44409 C343.914985,148.476422 337.943985,153 337.943985,153 C337.943985,153 336.447076,145.733866 337.223251,143.712461 C337.676016,142.34166 338.854386,141.325384 340.293202,141.064807 C341.732018,140.804229 343.200081,141.34122 344.117876,142.463805 C345.035671,143.586389 345.25572,145.114182 344.69116,146.44409 L344.685616,146.44409 Z" id="Shape" fill="#6C63FF" fill-rule="nonzero"></path>
                        <path d="M349.45792,167.530052 C347.697775,169.00614 340,170 340,170 C340,170 342.508777,162.449016 344.268922,160.972928 C345.405662,160.003358 346.960515,159.735938 348.341859,160.272421 C349.723202,160.808904 350.718642,162.066801 350.949413,163.567481 C351.180184,165.068162 350.610803,166.580882 349.45792,167.530052 Z" id="Shape" fill="#6C63FF" fill-rule="nonzero"></path>
                        <path d="M348.909414,184.986476 C347.418801,186.721429 340,189 340,189 C340,189 341.2279,181.250544 342.718514,179.521374 C343.66781,178.349295 345.171776,177.793189 346.643571,178.070045 C348.115366,178.346901 349.321763,179.412847 349.792031,180.851957 C350.262299,182.291067 349.921918,183.875292 348.903703,184.986476 L348.909414,184.986476 Z" id="Shape" fill="#6C63FF" fill-rule="nonzero"></path>
                        <path d="M330.087831,155.834088 C332.064417,157.052121 340,156.99967 340,156.99967 C340,156.99967 336.491268,149.907104 334.514682,148.689071 C333.236885,147.851748 331.60366,147.771861 330.249728,148.480457 C328.895796,149.189052 328.034674,150.574383 328.001022,152.098066 C327.967371,153.62175 328.766495,155.043499 330.087831,155.810777 L330.087831,155.834088 Z" id="Shape" fill="#6C63FF" fill-rule="nonzero"></path>
                        <path d="M329.808513,175.912059 C331.917406,176.474051 339,174.158643 339,174.158643 C339,174.158643 333.867447,168.63988 331.758554,168.089128 C329.692163,167.638231 327.647078,168.940376 327.123632,171.040272 C326.600186,173.140168 327.784846,175.289766 329.808513,175.912059 Z" id="Shape" fill="#6C63FF" fill-rule="nonzero"></path>
                        <path d="M331.39572,193.632136 C333.43248,194.531472 341,193.498901 341,193.498901 C341,193.498901 336.735182,187.247963 334.698422,186.348627 C332.658428,185.448761 330.26535,186.350987 329.353334,188.363805 C328.441318,190.376624 329.355726,192.737822 331.39572,193.637688 L331.39572,193.632136 Z" id="Shape" fill="#6C63FF" fill-rule="nonzero"></path>
                        <path d="M334.94148,135.519315 C335.411553,137.725977 332.895281,145 332.895281,145 C332.895281,145 327.647057,139.483345 327.171454,137.276683 C326.737575,135.806334 327.141837,134.209959 328.217996,133.144028 C329.294155,132.078098 330.860537,131.72256 332.273006,132.223621 C333.685474,132.724681 334.705579,133.997753 334.913828,135.519315 L334.94148,135.519315 Z" id="Shape" fill="#F4AEFF" fill-rule="nonzero"></path>
                        <path d="M344.685616,146.44409 C343.914985,148.476422 337.943985,153 337.943985,153 C337.943985,153 336.447076,145.733866 337.223251,143.712461 C337.676016,142.34166 338.854386,141.325384 340.293202,141.064807 C341.732018,140.804229 343.200081,141.34122 344.117876,142.463805 C345.035671,143.586389 345.25572,145.114182 344.69116,146.44409 L344.685616,146.44409 Z" id="Shape" fill="#F4AEFF" fill-rule="nonzero"></path>
                        <path d="M349.45792,167.530052 C347.697775,169.00614 340,170 340,170 C340,170 342.508777,162.449016 344.268922,160.972928 C345.405662,160.003358 346.960515,159.735938 348.341859,160.272421 C349.723202,160.808904 350.718642,162.066801 350.949413,163.567481 C351.180184,165.068162 350.610803,166.580882 349.45792,167.530052 Z" id="Shape" fill="#F4AEFF" fill-rule="nonzero"></path>
                        <path d="M348.909414,184.986476 C347.418801,186.721429 340,189 340,189 C340,189 341.2279,181.250544 342.718514,179.521374 C343.66781,178.349295 345.171776,177.793189 346.643571,178.070045 C348.115366,178.346901 349.321763,179.412847 349.792031,180.851957 C350.262299,182.291067 349.921918,183.875292 348.903703,184.986476 L348.909414,184.986476 Z" id="Shape" fill="#F4AEFF" fill-rule="nonzero"></path>
                        <path d="M330.087831,155.834088 C332.064417,157.052121 340,156.99967 340,156.99967 C340,156.99967 336.491268,149.907104 334.514682,148.689071 C333.236885,147.851748 331.60366,147.771861 330.249728,148.480457 C328.895796,149.189052 328.034674,150.574383 328.001022,152.098066 C327.967371,153.62175 328.766495,155.043499 330.087831,155.810777 L330.087831,155.834088 Z" id="Shape" fill="#F4AEFF" fill-rule="nonzero"></path>
                        <path d="M329.808513,175.912059 C331.917406,176.474051 339,174.158643 339,174.158643 C339,174.158643 333.867447,168.63988 331.758554,168.089128 C329.692163,167.638231 327.647078,168.940376 327.123632,171.040272 C326.600186,173.140168 327.784846,175.289766 329.808513,175.912059 Z" id="Shape" fill="#F4AEFF" fill-rule="nonzero"></path>
                        <path d="M331.39572,193.632136 C333.43248,194.531472 341,193.498901 341,193.498901 C341,193.498901 336.735182,187.247963 334.698422,186.348627 C332.658428,185.448761 330.26535,186.350987 329.353334,188.363805 C328.441318,190.376624 329.355726,192.737822 331.39572,193.637688 L331.39572,193.632136 Z" id="Shape" fill="#F4AEFF" fill-rule="nonzero"></path>
                        <path d="M341,250 C338.238664,250.000643 335.600024,248.877885 333.709743,246.897949 C331.819462,244.918013 330.845894,242.257238 331.019887,239.546536 L333.813852,196 L348.186148,196 L350.980113,239.546536 C351.154106,242.257238 350.180538,244.918013 348.290257,246.897949 C346.399976,248.877885 343.761336,250.000643 341,250 Z" id="Shape" fill="#F37291" fill-rule="nonzero"></path>
                        <polygon id="Rectangle-path" fill="#6C63FF" fill-rule="nonzero" opacity="0.1" points="48 37 56 37 56 70 48 70"></polygon>
                        <polygon id="Rectangle-path" fill="#6C63FF" fill-rule="nonzero" opacity="0.1" points="58 37 66 37 66 70 58 70"></polygon>
                        <polygon id="Rectangle-path" fill="#6C63FF" fill-rule="nonzero" opacity="0.1" points="68 37 76 37 76 70 68 70"></polygon>
                        <polygon id="Rectangle-path" fill="#6C63FF" fill-rule="nonzero" opacity="0.1" points="79 37 87 37 87 70 79 70"></polygon>
                        <polygon id="Rectangle-path" fill="#6C63FF" fill-rule="nonzero" opacity="0.1" points="99 37 107 37 107 70 99 70"></polygon>
                        <polygon id="Rectangle-path" fill="#6C63FF" fill-rule="nonzero" opacity="0.1" points="109 37 117 37 117 70 109 70"></polygon>
                        <polygon id="Rectangle-path" fill="#6C63FF" fill-rule="nonzero" opacity="0.1" points="48 42 56 42 56 44 48 44"></polygon>
                        <polygon id="Rectangle-path" fill="#6C63FF" fill-rule="nonzero" opacity="0.1" points="48 63 56 63 56 65 48 65"></polygon>
                        <polygon id="Rectangle-path" fill="#6C63FF" fill-rule="nonzero" opacity="0.1" points="58 42 66 42 66 44 58 44"></polygon>
                        <polygon id="Rectangle-path" fill="#6C63FF" fill-rule="nonzero" opacity="0.1" points="58 63 66 63 66 65 58 65"></polygon>
                        <polygon id="Rectangle-path" fill="#6C63FF" fill-rule="nonzero" opacity="0.1" points="68 42 76 42 76 44 68 44"></polygon>
                        <polygon id="Rectangle-path" fill="#6C63FF" fill-rule="nonzero" opacity="0.1" points="68 63 76 63 76 65 68 65"></polygon>
                        <polygon id="Rectangle-path" fill="#6C63FF" fill-rule="nonzero" opacity="0.1" points="79 42 87 42 87 44 79 44"></polygon>
                        <polygon id="Rectangle-path" fill="#6C63FF" fill-rule="nonzero" opacity="0.1" points="79 63 87 63 87 65 79 65"></polygon>
                        <polygon id="Rectangle-path" fill="#6C63FF" fill-rule="nonzero" opacity="0.1" points="89 42 97 42 97 44 89 44"></polygon>
                        <polygon id="Rectangle-path" fill="#6C63FF" fill-rule="nonzero" opacity="0.1" points="89 63 97 63 97 65 89 65"></polygon>
                        <polygon id="Rectangle-path" fill="#6C63FF" fill-rule="nonzero" opacity="0.1" points="99 42 107 42 107 44 99 44"></polygon>
                        <polygon id="Rectangle-path" fill="#6C63FF" fill-rule="nonzero" opacity="0.1" points="99 63 107 63 107 65 99 65"></polygon>
                        <polygon id="Rectangle-path" fill="#6C63FF" fill-rule="nonzero" opacity="0.1" points="109 42 117 42 117 44 109 44"></polygon>
                        <polygon id="Rectangle-path" fill="#6C63FF" fill-rule="nonzero" opacity="0.1" points="109 63 117 63 117 65 109 65"></polygon>
                        <polygon id="Rectangle-path" fill="#6C63FF" fill-rule="nonzero" opacity="0.1" points="89 37 97 37 97 70 89 70"></polygon>
                        <polygon id="Rectangle-path" fill="#6C63FF" fill-rule="nonzero" opacity="0.1" transform="translate(128.000000, 53.500000) rotate(-24.840000) translate(-128.000000, -53.500000) " points="124 37 132 37 132 70 124 70"></polygon>
                        <polygon id="Rectangle-path" fill="#6C63FF" fill-rule="nonzero" opacity="0.1" transform="translate(124.000000, 44.000000) rotate(-24.840000) translate(-124.000000, -44.000000) " points="120 43 128 43 128 45 120 45"></polygon>
                        <polygon id="Rectangle-path" fill="#6C63FF" fill-rule="nonzero" opacity="0.1" transform="translate(133.000000, 63.000000) rotate(-24.840000) translate(-133.000000, -63.000000) " points="129 62 137 62 137 64 129 64"></polygon>
                        <path d="M223.084521,378.845284 L208.485227,369.560316 C208.410536,356.483462 208.203698,295.773177 210.932807,287.650978 C211.636694,285.299695 211.676455,282.800419 211.047716,280.428064 C209.151704,272.174123 202.234133,266.010875 193.851461,264.653356 C185.945665,263.370301 174.569593,261.268152 165.41128,258.553116 C173.575623,257.71111 179.694571,256.983664 179.694571,256.983664 L179.855444,255.477219 L185.112569,255.225191 L185.112569,255.001802 L185.612427,254.973162 C197.890541,254.245715 223.963581,251.822803 215.104033,244.571249 C212.064668,242.085329 208.100279,240.911104 203.917562,240.515877 C216.707025,237.606091 236.695589,231.969812 227.784332,226.671481 C219.315478,221.642362 206.347905,225.594631 198.608728,228.807997 L198.131852,229.008475 L198.04567,228.315396 L194.954595,228.934012 L193.972116,229.128761 L193.926153,228.120646 L150.553439,234.799408 C150.213434,229.844939 149.622812,224.910737 148.783828,220.015631 C149.754816,213.565987 154.270772,204.160733 152.679271,199.11443 C150.829223,193.254762 143.233683,191.335907 140.03919,186.043304 C139.200349,184.662874 138.367252,183.368362 137.551393,182.234233 C135.765868,179.815075 133.713343,177.603588 131.432444,175.641391 C131.570559,172.238206 132.333946,168.889183 133.684677,165.760719 C134.550595,163.667881 135.564346,161.638921 136.718296,159.689117 C147.212028,157.093949 153.867417,146.805116 151.909375,136.204622 C154.65572,137.378847 157.99385,137.499133 159.711752,135.207963 L158.895892,134.892927 C158.976329,134.807008 159.056766,134.721089 159.125712,134.623714 C157.453774,133.987915 155.678417,133.266196 154.368445,132.109155 C154.036709,131.737678 153.756507,131.323476 153.535349,130.877651 C152.742471,129.273832 152.834399,127.349249 152.075994,125.722518 C151.719075,124.981845 151.21245,124.322711 150.587912,123.786479 C149.257399,122.43025 147.574279,121.470275 145.727227,121.014163 C143.653104,120.412731 141.469818,120.10915 139.481878,119.295785 C133.942885,112.883665 125.090918,110.40159 117.011261,112.995067 L116.293075,113.241368 C117.330662,108.253814 114.169416,103.356891 109.186159,102.232409 C104.202902,101.107928 99.2345712,104.170396 98.0166674,109.117261 C98.1987979,107.029715 99.0813013,105.064279 100.521702,103.538261 C100.372319,103.664276 100.217191,103.784562 100.073553,103.916304 C98.2616625,105.61465 97.200761,107.961037 97.1242583,110.439235 C97.0477557,112.917433 97.9619193,115.324419 99.6656234,117.130629 L99.8322427,117.291011 C100.495604,118.10017 101.289825,118.793231 102.182149,119.341608 C98.8327584,118.162337 96.4393412,115.197452 96,111.683372 C96,111.878121 96,112.072871 96,112.256164 C96.1447525,114.742327 97.2785885,117.068137 99.1500022,118.717689 C101.021416,120.367241 103.475692,121.20416 105.968427,121.042802 L106.226974,121.014163 L106.089083,121.203184 C100.588134,129.269103 101.373123,140.047485 107.985095,147.236607 C108.366441,148.107443 108.87359,148.917943 109.490413,149.642336 C109.707153,149.889637 109.93935,150.123038 110.185618,150.341143 C111.759194,151.9963 113.910954,152.984807 116.195402,153.102003 C116.578434,153.556418 116.986364,153.99365 117.419191,154.413698 C117.040347,156.020671 116.544932,157.598091 115.936855,159.133509 C114.712429,162.191195 113.188229,165.120915 111.386426,167.880051 C98.9761645,171.396998 97.8845211,192.407029 98.3326694,193.203211 C98.8670001,194.154047 96.4826213,227.146899 105.675407,267.001806 C105.296205,278.39465 111.960975,297.233798 135.620908,292.267686 C165.210187,293.842866 174.914322,298.362199 174.914322,298.362199 C174.914322,298.362199 172.104777,349.66723 176.11513,357.136445 C178.625909,361.816161 176.844807,368.689672 174.966031,373.541225 C174.26958,374.741344 173.714342,376.017563 173.31133,377.344567 C172.736781,378.55316 172.31736,379.286334 172.31736,379.286334 L172.719544,379.286334 C171.202735,384.538842 170.128328,390.879656 170.128328,390.879656 C170.128328,390.879656 205.99743,398.136938 221.774549,393.388487 C227.899242,391.544095 228.152044,389.837173 226.164104,388.428104 C227.628347,388.213457 229.075865,387.897661 230.496204,387.482996 C246.284814,382.734546 223.084521,378.845284 223.084521,378.845284 Z" id="Shape" fill="url(#linearGradient-2)" fill-rule="nonzero"></path>
                        <path d="M144,134.5 C144,145.821837 134.821837,155 123.5,155 C112.178163,155 103,145.821837 103,134.5 C103,123.178163 112.178163,114 123.5,114 C128.936938,114 134.151193,116.159815 137.995689,120.004311 C141.840185,123.848807 144,129.063062 144,134.5 Z" id="Shape" fill="#FA595F" fill-rule="nonzero"></path>
                        <path d="M191,231.492933 L193.090103,242 C193.090103,242 195.414986,241.579025 198.856498,240.846645 C210.612615,238.338097 235.453351,232.144579 225.833149,226.366269 C217.55863,221.401074 204.886304,225.305182 197.327573,228.476909 C194.556039,229.630264 192.471662,230.702885 191.538273,231.204594 C191.188968,231.383364 191,231.492933 191,231.492933 Z" id="Shape" fill="#F8B9BF" fill-rule="nonzero"></path>
                        <path d="M192.056338,234.748827 L193.696401,242 C193.696401,242 196.237872,241.595309 200,240.891258 L198.328638,229 C195.298905,230.108742 193.020344,231.139872 192,231.622175 L192.056338,234.748827 Z" id="Shape" fill="#000000" fill-rule="nonzero" opacity="0.1"></path>
                        <polygon id="Shape" fill="#D9DFE8" fill-rule="nonzero" points="191.21118 243 199 241.617624 197.236025 229 191 230.107002"></polygon>
                        <polygon id="Shape" fill="#000000" fill-rule="nonzero" opacity="0.1" points="191.177391 243 194 242.373563 193.483478 229 191 229.545977"></polygon>
                        <path d="M124.63923,186.106309 C124.63923,186.106309 138.617169,178.792723 143.696412,201.77417 C148.775655,224.755617 148.850097,235.231524 148.850097,235.231524 L192.324295,228.487156 L193,244.350507 C193,244.350507 146.273255,257.247025 140.529759,255.901602 C134.786263,254.556178 117.349629,222.06477 117.349629,222.06477 C117.349629,222.06477 101.373205,196.794953 124.63923,186.106309 Z" id="Shape" fill="#F79120" fill-rule="nonzero"></path>
                        <g id="Group" opacity="0.1" transform="translate(113.000000, 186.000000)" fill="#000000" fill-rule="nonzero">
                            <path d="M78.1355224,46.0297581 L80.24199,56.4621774 C80.24199,56.4621774 82.5850746,56.0441935 86.0535323,55.3170161 C97.9016915,52.8262903 122.936915,46.6767742 113.241393,40.9395161 C104.90209,36.0095968 92.1305473,39.8859677 84.5126368,43.0351613 C81.719403,44.1803226 79.6187065,45.2453226 78.67801,45.7434677 C78.3259701,45.9209677 78.1355224,46.0297581 78.1355224,46.0297581 Z" id="Shape"></path>
                            <path d="M78.7299502,48.9728226 L80.24199,56.4621774 C80.24199,56.4621774 82.5850746,56.0441935 86.0535323,55.3170161 L84.5126368,43.0351613 C81.719403,44.1803226 79.6187065,45.2453226 78.67801,45.7434677 L78.7299502,48.9728226 Z" id="Shape"></path>
                            <polygon id="Shape" points="78.3663682 57.1091935 85.6033831 55.6720161 83.9643781 42.5541935 78.1701493 43.7050806"></polygon>
                            <polygon id="Shape" points="78.3663682 57.1091935 81.4885572 56.4850806 80.9172139 43.161129 78.1701493 43.7050806"></polygon>
                            <path d="M12.8177114,1.29403226 C12.8177114,1.29403226 26.9050746,-5.98919355 32.0240796,16.8968548 C37.1430846,39.7829032 37.2181095,50.2153226 37.2181095,50.2153226 L81.0326368,43.4989516 L81.7136318,59.2964516 C81.7136318,59.2964516 34.6210945,72.1394355 28.8326368,70.7995968 C23.0441791,69.4597581 5.47104478,37.1032258 5.47104478,37.1032258 C5.47104478,37.1032258 -10.6304478,11.9383065 12.8177114,1.29403226 Z" id="Shape"></path>
                        </g>
                        <path d="M204.146626,364.669956 L221.340345,375.247375 C221.340345,375.247375 244.075793,378.938337 228.610634,383.464359 C213.145476,387.990381 178,381.070522 178,381.070522 C178,381.070522 180.670367,365.738832 183.513016,363.706854 C186.355665,361.674876 204.146626,364.669956 204.146626,364.669956 Z" id="Shape" fill="#F37291" fill-rule="nonzero"></path>
                        <path d="M140.663098,248.646294 C140.663098,248.646294 149.210714,253.614943 164.582684,258.256934 C173.594036,260.979089 184.92979,263.082312 192.761765,264.360292 C200.97921,265.630039 207.616738,271.742218 209.565017,279.833595 C210.179883,282.159829 210.142245,284.610711 209.456239,286.916929 C206.467722,295.86852 207.074586,369.710558 207.074586,369.710558 L180.258085,371 C180.258085,371 184.500405,357.584074 179.273363,350.50074 C174.046321,343.417406 182.800042,291.627689 182.800042,291.627689 C182.800042,291.627689 173.302054,287.192009 144.390156,285.65041 C117.293124,291.381263 107.554681,261.494866 112.054632,253.448748 C116.554583,245.402631 140.663098,248.646294 140.663098,248.646294 Z" id="Shape" fill="#606168" fill-rule="nonzero"></path>
                        <g id="Group" opacity="0.1" transform="translate(111.000000, 248.000000)" fill-rule="nonzero">
                            <path d="M92.9902778,117.730702 L110.039444,128.643926 C110.039444,128.643926 132.58375,132.452066 117.248611,137.121777 C101.913472,141.791488 67.0634722,134.651942 67.0634722,134.651942 C67.0634722,134.651942 69.7113889,118.833512 72.5301389,116.737025 C75.3488889,114.640537 92.9902778,117.730702 92.9902778,117.730702 Z" id="Shape" fill="#000000"></path>
                            <path d="M29.7819444,0.666280992 C29.7819444,0.666280992 38.28375,5.64615702 53.5733333,10.2986364 C62.5363889,13.0269421 73.8113889,15.1349174 81.6013889,16.4157851 C89.774792,17.6884007 96.3767468,23.8143906 98.3145833,31.9240496 C98.9261542,34.2555407 98.8887182,36.7119597 98.2063889,39.0233884 C95.2338889,47.9952066 95.8375,122.004091 95.8375,122.004091 L69.1647222,123.296446 C69.1647222,123.296446 73.3843056,109.850207 68.1852778,102.750868 C62.98625,95.6515289 71.6930556,43.7447934 71.6930556,43.7447934 C71.6930556,43.7447934 62.2459722,39.2990909 33.4890278,37.7540083 C6.53722222,43.4978099 -3.14902778,13.5438843 1.32680556,5.47958678 C5.80263889,-2.58471074 29.7819444,0.666280992 29.7819444,0.666280992 Z" id="Shape" fill="#606168"></path>
                        </g>
                        <path d="M196.146626,371.669956 L213.340345,382.247375 C213.340345,382.247375 236.075793,385.938337 220.610634,390.464359 C205.145476,394.990381 170,388.070522 170,388.070522 C170,388.070522 172.670367,372.738832 175.513016,370.706854 C178.355665,368.674876 196.146626,371.669956 196.146626,371.669956 Z" id="Shape" fill="#F37291" fill-rule="nonzero"></path>
                        <path d="M135.994762,290.940802 C164.647733,292.477156 174.060659,296.897744 174.060659,296.897744 C174.060659,296.897744 171.342882,347.054857 175.19543,354.353968 C179.308976,362.098564 171.518772,376 171.518772,376 L198.095111,374.714945 C198.095111,374.714945 198.095111,373.846819 198.095111,372.293331 C198.015677,359.51132 197.822766,300.158928 200.461109,292.203011 C201.140971,289.90464 201.178272,287.462098 200.568912,285.143777 C198.636693,277.080754 192.059299,270.990009 183.916146,269.723121 C176.148638,268.4552 164.920078,266.359133 155.989429,263.64624 L155.552542,263.509168 C140.590585,258.940084 132.289735,254.068299 132.289735,254.068299 C132.289735,254.068299 114.592979,252.834647 110.161698,260.853388 C109.594312,261.892854 107.148881,263.937519 107.046751,265.588101 C106.38291,276.63386 112.629825,295.892546 135.994762,290.940802 Z" id="Shape" fill="#606168" fill-rule="nonzero"></path>
                        <path d="M179,244.803625 L179.510123,255 C179.510123,255 181.871593,254.939569 185.390871,254.736301 C197.398832,254.049584 222.905,251.775177 214.238634,244.957449 C206.787394,239.095632 193.661748,240.963503 185.711848,242.869829 C182.794401,243.573028 180.553297,244.276226 179.578904,244.611344 C179.20061,244.732206 179,244.803625 179,244.803625 Z" id="Shape" fill="#F8B9BF" fill-rule="nonzero"></path>
                        <path d="M110,171.481962 C110,171.481962 113.390448,174.466089 117.594604,177.767677 C122.284725,179.07215 127.76595,180.232323 131.681918,181 C130.467007,176.295815 131.5463,171.18759 133.337587,166.691198 C135.281464,162.014073 137.86097,157.64013 141,153.698413 L117.436384,145 C119.103354,149.935065 118.001458,155.44733 116.210171,160.163059 C114.628899,164.194899 112.54136,167.99973 110,171.481962 Z" id="Shape" fill="#F8B9BF" fill-rule="nonzero"></path>
                        <path d="M179,246.758714 L179.390925,254 C179.390925,254 181.907504,253.940244 185.657941,253.739249 L186,242 C182.890925,242.695337 180.502618,243.390675 179.464223,243.722046 L179,246.758714 Z" id="Shape" fill="#000000" fill-rule="nonzero" opacity="0.1"></path>
                        <polygon id="Shape" fill="#D9DFE8" fill-rule="nonzero" points="177 255 184.640987 254.66526 185 242 178.884817 242.26889"></polygon>
                        <path d="M106.845833,269.667009 C122.34798,285.832744 151.256613,266.620456 159.030653,260.930486 C160.293791,260.003274 161,259.433125 161,259.433125 C158.129232,256.501754 153.536003,253.789228 151.773352,246.446402 C150.091689,238.952036 148.951899,231.345618 148.362879,223.686521 C147.886332,217.610693 154.144606,206.040703 152.336022,200.270106 C150.527438,194.499508 143.080666,192.604771 139.951529,187.381286 C139.130489,186.022144 138.315191,184.743628 137.511376,183.626367 C131.735391,175.563656 121.670478,170.132844 121.670478,170.132844 C100.225842,162.790019 98.5435715,193.508947 99.0775343,194.464954 C99.6114972,195.420961 97.1598613,229.284346 106.845833,269.667009 Z" id="Shape" fill="#F79120" fill-rule="nonzero"></path>
                        <path d="M106.953759,224.76877 C106.953759,224.76877 119.345545,259.326719 124.813014,261.505894 C127.943811,262.752771 145.020366,261.408661 159.040395,260.030232 C160.297285,259.109373 161,258.543131 161,258.543131 C158.143433,255.631844 155.818188,249.631961 154.069969,242.345164 L136.079313,242.40808 C136.079313,242.40808 137.536162,232.112763 135.925058,208.725233 C134.313954,185.337704 119.442669,190.479643 119.442669,190.479643 C94.9161874,197.520496 106.953759,224.76877 106.953759,224.76877 Z" id="Shape" fill="#000000" fill-rule="nonzero" opacity="0.1"></path>
                        <polygon id="Shape" fill="#000000" fill-rule="nonzero" opacity="0.1" points="177 255 179.755 254.855741 181 242 178.575 242.127614"></polygon>
                        <path d="M119.648379,189.473059 C119.648379,189.473059 134.70115,184.36471 136.351166,207.721247 C138.001181,231.077784 136.524851,241.40889 136.524851,241.40889 L181,241.248718 L179.292089,256.957033 C179.292089,256.957033 130.66006,262.677468 125.102114,260.509423 C119.544168,258.341378 106.998262,223.772788 106.998262,223.772788 C106.998262,223.772788 94.7881491,196.514915 119.648379,189.473059 Z" id="Shape" fill="#F79120" fill-rule="nonzero"></path>
                        <path d="M121.026846,155.25256 C121.826462,151.62628 118.150527,151.511448 117,148 L141,157.0657 C139.212245,159.368276 137.600333,161.815562 136.179291,164.384742 C134.901065,164.719349 133.594748,164.921773 132.279003,164.989122 C126.445829,165.291312 124.886865,159.229381 121.026846,155.25256 Z" id="Shape" fill="#000000" fill-rule="nonzero" opacity="0.1"></path>
                        <circle id="Oval" fill="#F8B9BF" fill-rule="nonzero" transform="translate(132.000000, 142.000000) rotate(-2.750000) translate(-132.000000, -142.000000) " cx="132" cy="142" r="20"></circle>
                        <path d="M122,204 C122,204 128.446304,234.179511 136.058305,237.261404 C143.670306,240.343298 140.219843,241 140.219843,241" id="Shape" fill="#000000" fill-rule="nonzero" opacity="0.1"></path>
                        <path d="M148,220.842359 C148,220.842359 142.918,222.653204 137,214" id="Shape" fill="#000000" fill-rule="nonzero" opacity="0.1"></path>
                        <circle id="Oval" fill="#FA595F" fill-rule="nonzero" cx="108.5" cy="113.5" r="9.5"></circle>
                        <path d="M101.357363,120.143683 C98.0174504,116.447919 98.0174504,110.695764 101.357363,107 C101.206925,107.126093 101.056486,107.252186 100.91762,107.390288 C97.1915772,111.02479 97.0102404,117.105661 100.512593,120.972293 C104.014945,124.838926 109.874716,125.027105 113.600759,121.392603 C113.745411,121.254501 113.872706,121.104391 114,120.960285 C110.237776,124.190779 104.704519,123.83338 101.357363,120.143683 Z" id="Shape" fill="#FA595F" fill-rule="nonzero"></path>
                        <path d="M106.480981,121.88824 C101.735994,122.17021 97.5856004,118.765659 97,114.11103 C97,114.29435 97,114.47767 97,114.666545 C97.2011418,117.836053 99.1007114,120.658919 101.983159,122.071796 C104.865607,123.484673 108.293021,123.272912 110.974327,121.516281 C113.655633,119.75965 115.183477,116.725023 114.982335,113.555515 C114.982335,113.36664 114.942925,113.188875 114.920405,113 C114.9299,117.697822 111.232646,121.591699 106.480981,121.88824 Z" id="Shape" fill="#FA595F" fill-rule="nonzero"></path>
                        <path d="M140.017696,122.060631 C142.155178,123.114384 144.602108,123.406458 146.894314,124.070781 C149.186519,124.735104 151.524569,125.949211 152.53314,128.113988 C153.272376,129.706072 153.186418,131.59023 153.960038,133.165133 C155.071758,135.455902 157.639028,136.509656 160,137.408783 C157.971398,140.129071 153.616207,139.390298 150.773872,137.540502 C147.931537,135.690706 145.484607,132.958964 142.1781,132.243099 C138.835563,131.58429 135.43917,133.094635 133.691209,136.017141 C132.785787,137.603498 132.464878,139.453294 132.017898,141.217186 C130.871795,145.867448 128.57959,150.494801 124.56823,153.134912 C120.55687,155.775023 114.579943,155.757843 111.433891,152.144155 C109.600126,150.036647 108.986961,147.167459 108.442562,144.42999 C108.132555,143.153589 107.984309,141.843308 108.001313,140.529956 C108.184689,137.242702 110.373746,134.442237 112.585724,132.002568 C115.193108,129.139107 117.966677,126.390184 120.740246,123.658442 C123.135601,121.29895 125.897709,117.301558 129.507933,117.020939 C133.668286,116.688777 136.60804,120.394096 140.017696,122.060631 Z" id="Shape" fill="#000000" fill-rule="nonzero" opacity="0.1"></path>
                        <path d="M139.017696,122.060631 C141.155178,123.114384 143.602108,123.406458 145.894314,124.070781 C148.186519,124.735104 150.524569,125.949211 151.53314,128.113988 C152.272376,129.706072 152.186418,131.59023 152.960038,133.165133 C154.071758,135.455902 156.639028,136.509656 159,137.408783 C156.971398,140.129071 152.616207,139.390298 149.773872,137.540502 C146.931537,135.690706 144.484607,132.958964 141.1781,132.243099 C137.835563,131.58429 134.43917,133.094635 132.691209,136.017141 C131.785787,137.603498 131.464878,139.453294 131.017898,141.217186 C129.871795,145.867448 127.57959,150.494801 123.56823,153.134912 C119.55687,155.775023 113.579943,155.757843 110.433891,152.144155 C108.600126,150.036647 107.986961,147.167459 107.442562,144.42999 C107.132555,143.153589 106.984309,141.843308 107.001313,140.529956 C107.184689,137.242702 109.373746,134.442237 111.585724,132.002568 C114.193108,129.139107 116.966677,126.390184 119.740246,123.658442 C122.135601,121.29895 124.897709,117.301558 128.507933,117.020939 C132.668286,116.688777 135.60804,120.394096 139.017696,122.060631 Z" id="Shape" fill="#FA595F" fill-rule="nonzero"></path>
                        <path d="M86,249 L142,249 C144.761424,249 147,251.238576 147,254 L147,254 C147,256.761424 144.761424,259 142,259 L86,259 C83.2385763,259 81,256.761424 81,254 L81,254 C81,251.238576 83.2385763,249 86,249 Z" id="Rectangle-path" fill="#D6D6E3" fill-rule="nonzero"></path>
                        <path d="M81,254 L81,254.643519 C81,256.497252 82.8787314,258 85.1962641,258 L142.803736,258 C145.121269,258 147,256.497252 147,254.643519 L147,254 L81,254 Z" id="Shape" fill="#000000" fill-rule="nonzero" opacity="0.1"></path>
                        <polygon id="Rectangle-path" fill="#D6D6E3" fill-rule="nonzero" points="195 259 206 259 206 402 195 402"></polygon>
                        <polygon id="Rectangle-path" fill="#000000" fill-rule="nonzero" opacity="0.1" points="195 259 206 259 206 268 195 268"></polygon>
                        <polygon id="Rectangle-path" fill="#D6D6E3" fill-rule="nonzero" points="190 249 488 249 488 268 190 268"></polygon>
                    </g>
                </g>
            </g>
        </g>
    </g>
</svg>