<?xml version="1.0" encoding="utf-8"?>
<!-- Generator: Adobe Illustrator 16.0.3, SVG Export Plug-In . SVG Version: 6.00 Build 0)  -->
<!DOCTYPE svg PUBLIC "-//W3C//DTD SVG 1.1//EN" "http://www.w3.org/Graphics/SVG/1.1/DTD/svg11.dtd">
<svg version="1.1" id="f5754dbe-bb36-43e2-9e63-0bb9c441defe"
	 xmlns="http://www.w3.org/2000/svg" xmlns:xlink="http://www.w3.org/1999/xlink" x="0px" y="0px" width="1184.11px"
	 height="743.5px" viewBox="0 0 1184.11 743.5" enable-background="new 0 0 1184.11 743.5" xml:space="preserve">
<title>team page</title>
<path fill="#F2F2F2" d="M223.42,498.27l-6.29-3.91c-0.6-0.37-1.19-0.77-1.79-1.149c32.582-5.605,54.45-36.562,48.845-69.143
	c-3.915-22.755-20.567-41.229-42.794-47.478l0.31,24.66l-13.55-26.83h-0.17c-33.018-1.533-61.031,23.982-62.58,57
	c-0.06,1.149,0,2.27,0,3.399c-4.71-5.38-9-11.149-11.83-17.47c-5.73-12.79-5.84-27.28-5.39-44.9c0.9-34.899,2.41-70.08,4.37-105.14
	c29.229-3.254,51.764-27.263,53.16-56.64c0.08-1.83,0.05-3.63,0-5.431c0-0.449,0-0.89-0.07-1.34c-0.12-1.739-0.28-3.46-0.55-5.16
	c0-0.279-0.1-0.55-0.15-0.819c-0.24-1.44-0.54-2.86-0.88-4.26c-0.13-0.53-0.26-1.051-0.4-1.57c-0.42-1.53-0.88-3-1.42-4.521
	c-0.18-0.489-0.38-1-0.58-1.46c-0.42-1.09-0.88-2.17-1.37-3.229c-0.26-0.561-0.51-1.12-0.78-1.67c-0.08-0.141-0.13-0.29-0.21-0.431
	l0,0c-13.042-25.742-42.597-38.51-70.28-30.359l0.4,32.1L96.02,156c-22.595,12.95-34.158,39.077-28.55,64.51h-0.12
	c0.09,0.43,0.22,0.84,0.32,1.26c0.19,0.79,0.39,1.57,0.61,2.351c0.29,1,0.6,2,0.93,3c0.25,0.739,0.49,1.47,0.77,2.199
	c0.41,1.061,0.87,2.091,1.33,3.12c0.27,0.601,0.51,1.221,0.8,1.811c0.76,1.546,1.587,3.057,2.48,4.529c0.31,0.521,0.66,1,1,1.511
	c0.64,1,1.28,2,2,2.93c0.43,0.59,0.89,1.16,1.34,1.73c0.66,0.829,1.33,1.649,2,2.439c0.49,0.57,1,1.12,1.51,1.66
	c0.74,0.78,1.49,1.53,2.27,2.26c0.52,0.49,1,1,1.57,1.46c0.88,0.79,1.8,1.53,2.73,2.26c0.47,0.37,0.93,0.75,1.41,1.11
	c1.42,1,2.88,2,4.39,3c0.28,0.17,0.59,0.311,0.87,0.48c1.27,0.739,2.55,1.449,3.87,2.09c0.57,0.279,1.15,0.529,1.73,0.79
	c1.08,0.479,2.17,0.95,3.29,1.38l2,0.7c1.1,0.37,2.22,0.72,3.35,1c0.66,0.18,1.33,0.37,2,0.529c1.22,0.29,2.47,0.53,3.73,0.75
	l0.24,0.051c-0.82,14.793-1.553,29.59-2.2,44.39c-14.459-29.712-50.266-42.077-79.978-27.618c-1.046,0.51-2.077,1.049-3.092,1.618
	l10.58,29l-21.77-20.9C7.742,304.068,0.771,318.942,0.05,334.75c-0.278,5.54,0.234,11.093,1.52,16.489
	c7.544,32.177,39.744,52.145,71.92,44.601c16.073-3.769,29.875-14.01,38.14-28.301c0,1.5-0.1,3-0.14,4.511
	c-0.4,15.54-0.9,34.88,6.85,52.149c5.25,11.7,13.69,21.21,22,29.73c5.43,5.54,11.06,10.91,16.83,16.1
	c5.681,7.626,13.091,13.796,21.62,18c9.48,7.3,19.3,14.17,29.45,20.51l6.34,3.94c5.7,3.53,11.54,7.16,17.26,10.93
	c-1-0.1-2-0.21-3-0.26c-26.041-1.213-49.875,14.558-58.94,39l37.4,30.43l-41.14-9.54c0.062,33.077,26.925,59.84,60.001,59.778
	c8.965-0.017,17.812-2.046,25.888-5.938l-2.78,3.449c-1.84,2.287-3.657,4.561-5.45,6.82c-24.34,30.83-31.11,60.09-19.06,82.4
	l14.66-7.91c-11.73-21.72,5.91-49.521,17.47-64.16c1.76-2.22,3.546-4.453,5.36-6.7c15.55-19.319,33.17-41.22,32.74-68.08
	C294.31,542.21,255.05,517.85,223.42,498.27z"/>
<path fill="#F2F2F2" d="M905.36,437.01l7.84-4.88c0.75-0.471,1.48-1,2.23-1.44c-34.563-5.919-60.354-35.084-62-70.11
	c-0.568-11.684,1.643-23.335,6.449-34c9.078-20.225,26.66-35.381,48-41.379l-0.389,30.77l16.91-33.47h0.199
	c41.203-1.917,76.164,29.926,78.09,71.13c0.07,1.43,0,2.83,0,4.239c5.891-6.71,11.23-13.909,14.76-21.79
	c7.16-16,7.301-34,6.73-55.999c-1.121-43.551-3-87.431-5.449-131.17c-36.471-4.059-64.584-34.017-66.32-70.671
	c-0.1-2.279-0.07-4.529,0-6.77c0-0.56,0.029-1.12,0.09-1.68c0.139-2.17,0.35-4.32,0.67-6.431c0.049-0.35,0.141-0.689,0.189-1
	c0.307-1.8,0.678-3.573,1.109-5.319c0.16-0.65,0.32-1.311,0.49-2c0.531-1.9,1.1-3.79,1.771-5.63c0.219-0.62,0.479-1.21,0.719-1.82
	c0.541-1.37,1.109-2.71,1.721-4c0.32-0.69,0.629-1.39,1-2.08c0.08-0.17,0.16-0.36,0.25-0.53l0,0
	c16.256-32.13,53.145-48.062,87.68-37.87l-0.5,40l16.721-33.08c28.197,16.148,42.623,48.752,35.609,80.48h0.09
	c-0.119,0.53-0.291,1-0.41,1.57c-0.24,1-0.49,2-0.76,2.93c-0.35,1.25-0.75,2.47-1.16,3.69c-0.311,0.92-0.609,1.84-1,2.75
	c-0.51,1.319-1.08,2.609-1.66,3.89c-0.34,0.75-0.641,1.52-1,2.26c-0.949,1.93-2,3.82-3.09,5.65c-0.381,0.649-0.82,1.26-1.23,1.89
	c-0.799,1.24-1.609,2.46-2.48,3.65c-0.539,0.739-1.109,1.439-1.67,2.16c-0.818,1-1.648,2.06-2.529,3.05
	c-0.607,0.666-1.236,1.356-1.891,2.069c-0.91,1-1.859,1.9-2.818,2.811c-0.65,0.62-1.291,1.24-2,1.83c-1.111,1-2.25,1.899-3.422,2.81
	c-0.578,0.46-1.148,0.95-1.75,1.391c-1.77,1.3-3.59,2.54-5.479,3.689c-0.35,0.21-0.73,0.39-1.09,0.601
	c-1.574,0.933-3.18,1.803-4.82,2.609c-0.711,0.351-1.439,0.65-2.16,1c-1.35,0.61-2.711,1.19-4.1,1.72
	c-0.82,0.311-1.641,0.601-2.461,0.881c-1.379,0.47-2.77,0.89-4.18,1.279c-0.83,0.23-1.66,0.46-2.51,0.67
	c-1.529,0.36-3.08,0.66-4.65,0.931l-0.311,0.06c1.041,18.46,1.957,36.924,2.75,55.39c18.037-37.055,62.697-52.472,99.752-34.436
	c1.316,0.641,2.613,1.319,3.889,2.036l-13.189,36.16l27.15-26.07c14.617,13.269,23.361,31.802,24.309,51.521
	c0.35,6.911-0.287,13.837-1.889,20.569c-9.41,40.146-49.582,65.063-89.729,55.652c-20.057-4.701-37.279-17.479-47.592-35.313
	c0,1.87,0.129,3.761,0.18,5.631c0.5,19.39,1.119,43.52-8.539,65.06c-6.551,14.609-17.092,26.46-27.512,37.09
	c-6.779,6.92-13.779,13.616-21,20.09c-7.096,9.509-16.35,17.196-27,22.43c-11.83,9.11-24.08,17.681-36.738,25.601l-7.91,4.91
	c-7.111,4.399-14.391,8.93-21.541,13.63c1.26-0.12,2.5-0.261,3.781-0.32c32.463-1.499,62.172,18.156,73.488,48.62l-46.66,38
	l51.33-11.891c-0.057,41.272-33.563,74.684-74.834,74.625c-11.164-0.016-22.182-2.532-32.246-7.364
	c1.16,1.439,2.311,2.88,3.471,4.31c2.291,2.851,4.58,5.69,6.811,8.51c30.359,38.45,38.811,75,23.77,102.801l-18.279-9.87
	c14.629-27.101-7.381-61.78-21.811-80c-2.189-2.771-4.43-5.561-6.68-8.36c-19.4-24.1-41.391-51.42-40.85-84.93
	C816.911,491.82,865.95,461.43,905.36,437.01z"/>
<ellipse fill="#3F3D56" cx="584.3" cy="716" rx="514" ry="27.5"/>
<ellipse opacity="0.2" enable-background="new    " cx="583.3" cy="707.5" rx="460" ry="22"/>
<path fill="#3F3D56" d="M1021.29,173.21v528.54c0,3.981-3.229,7.21-7.209,7.21l0,0H154.49c-3.977,0-7.2-3.224-7.2-7.2
	c0-0.004,0-0.007,0-0.01V173.21c-0.005-3.977,3.213-7.205,7.19-7.21c0.003,0,0.007,0,0.01,0h859.559
	c3.982-0.017,7.225,3.197,7.24,7.18C1021.29,173.19,1021.29,173.2,1021.29,173.21z"/>
<path fill="#CBCEDA" d="M1021.29,170.81V187h-874v-16.19c0-2.656,2.153-4.81,4.81-4.81h864.379
	C1019.137,166,1021.29,168.154,1021.29,170.81L1021.29,170.81z"/>
<circle fill="#F5A954" cx="163.29" cy="176" r="5"/>
<circle fill="#97266E" cx="177.29" cy="176" r="5"/>
<circle fill="#3A3076" cx="191.29" cy="176" r="5"/>
<rect x="451.3" y="239.5" opacity="0.2" fill="#3A3076" enable-background="new    " width="266" height="14"/>
<rect x="230.3" y="381.5" opacity="0.2" fill="#F6F6F6" enable-background="new    " width="205" height="240"/>
<rect x="481.3" y="381.5" opacity="0.2" fill="#F6F6F6" enable-background="new    " width="205" height="240"/>
<rect x="732.299" y="381.5" opacity="0.2" fill="#F6F6F6" enable-background="new    " width="205" height="240"/>
<path fill="#A0616A" d="M323.63,503.48c-0.61,3.61-4.18,5.88-7.55,7.29s-7.14,2.58-9.3,5.53c-2.91,4-1.69,9.729,1,13.88
	c3.05,4.76,7.67,8.27,12.19,11.67c1.958,1.658,4.192,2.961,6.6,3.85c1.835,0.471,3.728,0.673,5.62,0.601
	c6.093-0.003,12.174-0.548,18.17-1.63c7.69-1.4,15.91-4.2,20-10.881c3.32-5.47,3.11-12.3,2.79-18.699
	c-3.62-0.311-6.86-2.28-9.94-4.19c-3.64-2.26-7.57-4.89-8.75-9c-1.24-4.31,0.74-9.63-2.21-13c-2-2.28-5.39-2.55-8.41-2.63
	c-4.1-0.106-8.196-0.163-12.29-0.17c-2.82,0-9.12-1.18-11.44,0.7C315.84,490.21,324.4,498.9,323.63,503.48z"/>
<path opacity="0.1" enable-background="new    " d="M323.63,503.48c-0.61,3.61-4.18,5.88-7.55,7.29s-7.14,2.58-9.3,5.53
	c-2.91,4-1.69,9.729,1,13.88c3.05,4.76,7.67,8.27,12.19,11.67c1.958,1.658,4.192,2.961,6.6,3.85c1.835,0.471,3.728,0.673,5.62,0.601
	c6.093-0.003,12.174-0.548,18.17-1.63c7.69-1.4,15.91-4.2,20-10.881c3.32-5.47,3.11-12.3,2.79-18.699
	c-3.62-0.311-6.86-2.28-9.94-4.19c-3.64-2.26-7.57-4.89-8.75-9c-1.24-4.31,0.74-9.63-2.21-13c-2-2.28-5.39-2.55-8.41-2.63
	c-4.1-0.106-8.196-0.163-12.29-0.17c-2.82,0-9.12-1.18-11.44,0.7C315.84,490.21,324.4,498.9,323.63,503.48z"/>
<circle fill="#A0616A" cx="337.6" cy="472.09" r="29.33"/>
<path fill="#F5A954" d="M398.89,543.27c-0.193,1.764-0.755,3.468-1.65,5c-0.267,0.412-0.567,0.8-0.9,1.16c-1.65,1.81-4,3-6.13,4.27
	c-6,3.65-12.73,8.4-13.85,15.351c-0.369,2.162-0.874,4.3-1.51,6.399c-1.4,4.761-3.23,9.44-4.3,14.2
	c-0.666,2.759-0.965,5.593-0.89,8.43c0.034,0.888,0.114,1.771,0.24,2.65c0.95,6.74,4.41,12.79,8.48,18.54
	c0.44,0.62,0.88,1.24,1.33,1.85l0.29,0.391h-95.74c0.16-0.61,0.32-1.21,0.47-1.82c0.019-0.095,0.042-0.188,0.07-0.28
	c0.95-3.81,1.78-7.64,2.36-11.5c0.542-3.428,0.839-6.89,0.89-10.359c0-3,0.66-6.32,3.17-8c0.17-0.61,0.33-1.23,0.49-1.841
	c2.214-9.082,2.166-18.569-0.14-27.63c-0.14-0.56-0.3-1.12-0.45-1.68c-0.07-0.25-0.15-0.5-0.22-0.75
	c-0.845-2.665-1.552-5.372-2.12-8.11c-0.59-3.27-0.72-6.75-2.46-9.569c-1.74-2.82-4.77-4.47-7.46-6.38
	c-1.321-0.9-2.509-1.98-3.53-3.21l0,0c-1.114-1.288-1.78-2.902-1.9-4.601c-0.019-0.502,0.018-1.006,0.11-1.5
	c0.495-2.063,1.55-3.949,3.05-5.45c6.08-6.689,15.37-9.5,24.5-9.62l0,0c1.41,0,2.81,0,4.2,0.12c1.626,0.026,3.229,0.387,4.71,1.061
	c0.914,0.47,1.715,1.132,2.35,1.939c0.895,1.126,1.572,2.407,2,3.78c0.359,1.103,0.627,2.233,0.8,3.38
	c0.56,3.57,0.68,7.37,2.56,10.45c3.41,5.58,11.18,6.6,17.6,5.39c11.602-2.278,21.584-9.61,27.23-20c0.598-1.246,1.266-2.458,2-3.63
	c0.389-0.588,0.846-1.128,1.36-1.609c8.895,1.638,17.258,5.412,24.37,11c2.229,1.684,4.18,3.709,5.78,6
	C399.05,531.829,399.73,537.75,398.89,543.27z"/>
<path fill="#A0616A" d="M401.89,603.659c-0.81,2.794-2.048,5.445-3.67,7.86c-1.07,2.051-2.507,3.888-4.24,5.42
	c-3.55,2.79-8.46,2.73-13,2.47h-0.36l-2.25-0.13l-12.91-0.77c-3.421-0.123-6.83-0.487-10.2-1.091c-0.9-0.18-1.79-0.399-2.68-0.64
	c-5-1.34-9.89-3.34-15.06-3.63c-1.5-0.09-3,0-4.53,0h-0.42c-1.003,0-2.005-0.066-3-0.2c-1.64-0.24-3.25-0.76-4.92-0.84
	c-4.28-0.22-8.06,2.35-11.71,4.689l-1,0.62c-2.611,1.654-5.386,3.035-8.28,4.12h-17.34c-0.293-0.223-0.564-0.475-0.81-0.75
	c-0.297-0.328-0.559-0.687-0.78-1.069c-0.05-0.091-0.1-0.181-0.14-0.271c-1.14-2.443-1.14-5.267,0-7.71
	c0.646-1.388,1.499-2.669,2.53-3.8c1.136-1.233,2.359-2.383,3.66-3.44c6.74-5.62,14.49-10.359,23.11-12
	c0.6-0.109,1.21-0.21,1.81-0.29c4.314-0.494,8.662-0.639,13-0.43l4.07,0.08l17.05,0.35h0.47c6.85,0.13,14.05,0.181,20.24-2.55
	c0.788-0.352,1.556-0.745,2.3-1.18c0.635-0.322,1.182-0.796,1.59-1.38c0.398-0.806,0.562-1.707,0.47-2.601l-0.06-9l-0.12-17.35l0,0
	c0-4.26-0.027-8.517-0.08-12.771c-0.343-2.671,0.561-5.351,2.45-7.27c2.49-3.13,8.56-14.18,12.86-14.36
	c0.763-0.043,1.52,0.168,2.15,0.601l0,0c3.66,2.439,3.68,11.689,3.77,14.81c0.1,3.446,0.25,6.89,0.45,10.33
	c0.82,14.088,2.49,28.113,5,42C402.05,595.48,402.85,599.659,401.89,603.659z"/>
<path opacity="0.1" enable-background="new    " d="M401.89,603.659c-0.81,2.794-2.048,5.445-3.67,7.86
	c-1.07,2.051-2.507,3.888-4.24,5.42c-3.55,2.79-8.46,2.73-13,2.47h-0.36l-2.25-0.13l-12.91-0.77c-3.421-0.123-6.83-0.487-10.2-1.091
	c-0.9-0.18-1.79-0.399-2.68-0.64c-5-1.34-9.89-3.34-15.06-3.63c-1.5-0.09-3,0-4.53,0h-0.42c-1.003,0-2.005-0.066-3-0.2
	c-1.64-0.24-3.25-0.76-4.92-0.84c-4.28-0.22-8.06,2.35-11.71,4.689l-1,0.62c-2.611,1.654-5.386,3.035-8.28,4.12h-17.34
	c-0.293-0.223-0.564-0.475-0.81-0.75c-0.297-0.328-0.559-0.687-0.78-1.069c-0.05-0.091-0.1-0.181-0.14-0.271
	c-1.14-2.443-1.14-5.267,0-7.71c0.646-1.388,1.499-2.669,2.53-3.8c1.136-1.233,2.359-2.383,3.66-3.44
	c6.74-5.62,14.49-10.359,23.11-12c0.6-0.109,1.21-0.21,1.81-0.29c4.314-0.494,8.662-0.639,13-0.43l4.07,0.08l17.05,0.35h0.47
	c6.85,0.13,14.05,0.181,20.24-2.55c0.788-0.352,1.556-0.745,2.3-1.18c0.635-0.322,1.182-0.796,1.59-1.38
	c0.398-0.806,0.562-1.707,0.47-2.601l-0.06-9l-0.12-17.35l0,0c0-4.26-0.027-8.517-0.08-12.771c-0.343-2.671,0.561-5.351,2.45-7.27
	c2.49-3.13,8.56-14.18,12.86-14.36c0.763-0.043,1.52,0.168,2.15,0.601l0,0c3.66,2.439,3.68,11.689,3.77,14.81
	c0.1,3.446,0.25,6.89,0.45,10.33c0.82,14.088,2.49,28.113,5,42C402.05,595.48,402.85,599.659,401.89,603.659z"/>
<path fill="#3C354C" d="M318.28,425.579c-2.54,0.381-5.35,1.061-6.73,3.221c-1.08,1.68-1,3.81-1.37,5.77
	c-0.598,3.146-2.354,5.955-4.92,7.87c-2.1,1.55-4.64,2.42-6.81,3.87c-2.17,1.45-4.09,3.82-3.8,6.42c0.25,2.271,2.06,4,2.91,6.14
	c1.57,3.9-0.28,8.25-2,12.091c-1.72,3.84-3.34,8.359-1.37,12.069c2.09,3.91,7.48,5.391,9,9.54c1.89,5-3,10.33-2.37,15.66
	c0.54,4.38,4.86,7.51,9.23,8.15c2.09,0.3,4.41,0.09,6-1.301c1.59-1.39,2.09-3.659,2.16-5.77c0.27-8.14-4.36-15.61-5.71-23.65
	c-0.44-2.649-0.5-5.489,0.73-7.88c0.78-1.51,2-2.75,2.68-4.32c1.35-3.27-0.18-7.22,1.27-10.449c0.822-1.416,1.769-2.754,2.83-4
	c0.93-1.351,1.55-3.141,0.82-4.61c2.584,1.644,4.648,3.988,5.95,6.76c1.89-0.38,1.84-4.439,3.69-3.859
	c0.52,0.17,0.82,0.72,1.16,1.149c1.39,1.55,3.568,2.124,5.54,1.46c1.924-0.688,3.615-1.905,4.88-3.51l3.16,3.92
	c0.586-1.384,1.968-2.261,3.47-2.2c1.467,0.101,2.881,0.587,4.1,1.41c6,3.59,10.5,10.94,8.2,17.54c-1,2.82-3,5.13-4.34,7.811
	c-1.34,2.68-1.68,6.279,0.46,8.359c0.44,0.44,1,0.78,1.38,1.26c1.57,1.851,0.58,4.671,1.05,7c0.83,4.29,5.89,6,10.15,7
	c3,0.681,6.57,1.19,8.67-1c2.3-2.399,1.27-6.329-0.12-9.35c-1.39-3.02-3-6.51-1.51-9.47c1.49-2.96,5.86-4,7.43-7.09
	c2-3.931-1.53-8.24-2.94-12.42c-1.93-5.721,0.22-12.141-1.36-18c-0.958-2.957-2.457-5.711-4.42-8.12
	c-4.67-6.28-10.27-12.05-17.21-15.69c-6.56-3.439-13.17-4-20.4-3.13C331.33,425.05,324.79,424.61,318.28,425.579z"/>
<path fill="#F5A954" d="M375.28,558.49c-0.59-0.344-1.008-0.921-1.15-1.59c-2.22-6.24-4.3-12.523-6.24-18.85
	c-0.441-1.114-0.603-2.319-0.47-3.511c0.452-1.486,1.397-2.773,2.68-3.649c3.285-2.709,6.981-4.877,10.95-6.42
	c2.88-1.13,7.13-3.141,10-1.311c3.56,2.271-0.24,8-1.54,11c-1.763,4.114-3.766,8.121-6,12
	C382.83,547.36,376.19,558.85,375.28,558.49z"/>
<path fill="#A0616A" d="M380.99,619.409c-0.251,0.488-0.567,0.938-0.94,1.341c-0.109,0.129-0.23,0.25-0.36,0.359
	c-0.141,0.141-0.291,0.271-0.45,0.391h-17.39c-2.894-1.086-5.669-2.467-8.28-4.12l-1-0.62c-3.65-2.34-7.43-4.91-11.71-4.69
	c-1.67,0.08-3.28,0.601-4.92,0.84c-0.995,0.134-1.997,0.2-3,0.2h-0.42c-1.51,0-3-0.07-4.53,0c-5.17,0.29-10.05,2.29-15.06,3.63
	c-0.89,0.24-1.78,0.46-2.68,0.641c-3.37,0.603-6.779,0.967-10.2,1.09l-15.16,0.899h-0.36c-4.53,0.261-9.44,0.32-13-2.47
	c-1.732-1.532-3.169-3.369-4.24-5.42c-1.622-2.415-2.86-5.066-3.67-7.859c-1-4-0.16-8.181,0.57-12.23
	c3.112-17.287,4.928-34.782,5.43-52.34c0.09-3.13,0.11-12.41,3.79-14.82c0.414-0.287,0.89-0.472,1.39-0.54l0,0
	c0.246-0.025,0.494-0.025,0.74,0c4.3,0.181,10.37,11.23,12.86,14.36c1.89,1.919,2.793,4.599,2.45,7.27
	c0,4.107-0.027,8.221-0.08,12.341c0,0.189,0,0.38,0,0.56c-0.047,8.76-0.104,17.517-0.17,26.271c-0.091,0.894,0.072,1.794,0.47,2.6
	c0.143,0.233,0.317,0.446,0.52,0.63c0.331,0.284,0.689,0.536,1.07,0.75c6.65,3.92,14.82,3.88,22.54,3.729h0.47l17.05-0.35l4.07-0.08
	c4.338-0.208,8.686-0.064,13,0.43c0.6,0.08,1.21,0.181,1.81,0.29c6.623,1.406,12.865,4.224,18.3,8.261
	c1.667,1.18,3.287,2.426,4.86,3.739c2.46,2,4.88,4.32,6.19,7.24C382.093,614.159,382.108,616.969,380.99,619.409z"/>
<path fill="#F5A954" d="M291.33,558.49c0.588-0.347,1.005-0.923,1.15-1.59c2.22-6.24,4.3-12.523,6.24-18.85
	c0.433-1.116,0.591-2.32,0.46-3.511c-0.452-1.486-1.397-2.773-2.68-3.649c-3.279-2.712-6.973-4.88-10.94-6.42
	c-2.88-1.13-7.12-3.141-10-1.311c-3.56,2.271,0.23,8,1.54,11c1.758,4.116,3.762,8.124,6,12
	C283.78,547.36,290.42,558.85,291.33,558.49z"/>
<path fill="#3C354C" d="M832.379,444.98c5.951-1.45,10.57,8.4,16.561,7.229c3.291-0.64,5.83-4.539,9.16-4.25
	c3.789,0.33,5.41,5.511,7.35,9.301c3.371,6.56,10.18,10.529,16.74,9.739c2.061-2.72,1.67-6.899,0.619-10.3
	c-1.049-3.399-2.648-6.7-2.689-10.319c-0.049-4.79,2.58-10.091,0.201-14c-1.83-3-5.57-3.24-8.32-5.091
	c-2.15-1.439-3.66-3.85-5.461-5.819c-2.889-3.222-6.838-5.297-11.129-5.851c-3.541-0.399-7.102,0.36-10.602,1.12l-16.359,3.54
	c-0.951,0.111-1.844,0.521-2.549,1.17c-0.666,1.014-1.115,2.154-1.32,3.351c-1.551,5.08-6.41,7.46-10.381,10.279
	c-3.971,2.82-7.74,8.4-5.549,13.15c1.238,2.69,4.158,4.35,4.469,7.37c0.27,2.7-1.68,4.91-3.27,6.91c-6.75,8.46,8.379,12.859,12,7.12
	C825.879,463.31,823.87,447.06,832.379,444.98z"/>
<path fill="#A0616A" d="M823.731,498.19c-1.422,1.85-3.271,3.39-4.41,5.43c-1.432,2.919-1.668,6.28-0.66,9.37
	c1.025,3.048,2.463,5.94,4.27,8.601c2.072,3.634,4.592,6.993,7.5,10c2.926,3.036,6.813,4.965,11,5.46
	c4.449,0.33,8.75-1.511,12.779-3.44c1.721-0.686,3.287-1.705,4.611-3c0.963-1.226,1.719-2.6,2.24-4.07l3.469-8.31
	c0.977-2.018,1.65-4.167,2-6.38c0.359-3.45-0.84-6.86-2-10.13l-6.35-17.47c-0.266-1.002-0.789-1.916-1.52-2.65
	c-0.695-0.505-1.496-0.847-2.34-1c-4.021-1.04-8.129-1.71-12.271-2c-3.08-0.21-10.068-1.3-12.76,0.439
	c-2.469,1.61-1.439,5.711-1.73,8.36C827.299,491.28,825.973,495.013,823.731,498.19z"/>
<path opacity="0.1" enable-background="new    " d="M823.731,498.19c-1.422,1.85-3.271,3.39-4.41,5.43
	c-1.432,2.919-1.668,6.28-0.66,9.37c1.025,3.048,2.463,5.94,4.27,8.601c2.072,3.634,4.592,6.993,7.5,10
	c2.926,3.036,6.813,4.965,11,5.46c4.449,0.33,8.75-1.511,12.779-3.44c1.721-0.686,3.287-1.705,4.611-3
	c0.963-1.226,1.719-2.6,2.24-4.07l3.469-8.31c0.977-2.018,1.65-4.167,2-6.38c0.359-3.45-0.84-6.86-2-10.13l-6.35-17.47
	c-0.266-1.002-0.789-1.916-1.52-2.65c-0.695-0.505-1.496-0.847-2.34-1c-4.021-1.04-8.129-1.71-12.271-2
	c-3.08-0.21-10.068-1.3-12.76,0.439c-2.469,1.61-1.439,5.711-1.73,8.36C827.299,491.28,825.973,495.013,823.731,498.19z"/>
<circle fill="#A0616A" cx="844.51" cy="466.38" r="27.7"/>
<path fill="#97266E" d="M905.889,535.55c0.061,7.64-2.869,15-5.898,22c-3.031,7-6.881,13.909-9.84,21.1
	c-0.24,0.58-0.471,1.17-0.701,1.76c-5.094,13.16-9.6,26.523-13.52,40.091l-0.291,1h-85.898c3.92-15,7.279-30-2.121-40.351
	c-0.289-0.32-0.58-0.649-0.859-1c-6.15-7.41-8.91-17.52-16.221-23.82c-1.68-1.449-3.629-2.729-4.67-4.699
	c-0.598-1.212-0.898-2.549-0.879-3.9c-0.008-1.19,0.066-2.38,0.219-3.56c0.721-6.5,1.65-13.32,5.57-18.561
	c1.791-2.291,3.934-4.282,6.35-5.9c5.34-3.752,11.354-6.438,17.711-7.909c7.16-1.641,15.061-1.88,20.9-6.351
	c1.229-1.133,2.568-2.138,4-3l0.398-0.17c1.41-0.666,3.074-0.488,4.311,0.46c0.756,0.843,1.256,1.884,1.439,3
	c1.061,3.88,2.125,7.761,3.191,11.641c0.361,1.918,1.188,3.718,2.41,5.239c2.83,2.94,8.24,2.591,10.439,6
	c1.32,2.07,4.789-0.34,6.301-2.26c3.66-4.637,6.828-9.645,9.449-14.939c0.885-2.1,2.063-4.063,3.5-5.83
	c1.033-1.139,2.373-1.951,3.859-2.34c0.727-0.18,1.484-0.2,2.221-0.061c2.16,0.44,3.74,2.22,5.209,3.86
	c8.797,9.823,19.189,18.09,30.74,24.45c0.916,0.387,1.697,1.033,2.25,1.859c0.242,0.503,0.371,1.053,0.381,1.61
	C905.879,535.18,905.889,535.369,905.889,535.55z"/>
<path fill="#3C354C" d="M835.37,443.57c4.631-1,8.221,5.65,12.881,4.86c2.559-0.42,4.539-3,7.119-2.851
	c2.951,0.221,4.211,3.7,5.721,6.24c2.74,4.472,7.775,7.009,13,6.55c1.6-1.83,1.299-4.63,0.48-6.92c-0.82-2.29-2.07-4.51-2.102-6.93
	c0-3.23,2-6.79,0.16-9.42c-1.42-2-4.33-2.18-6.469-3.42c-1.67-1-2.84-2.59-4.25-3.91c-2.373-2.226-5.414-3.607-8.65-3.93
	c-2.768-0.14-5.543,0.113-8.24,0.75l-12.721,2.38c-0.729,0.06-1.422,0.331-2,0.78c-0.498,0.664-0.84,1.434-1,2.25
	c-1.209,3.42-5,5-8.068,6.909c-3.07,1.91-6,5.65-4.32,8.841c1,1.81,3.229,2.92,3.469,5c0.221,1.81-1.299,3.3-2.539,4.64
	c-5.24,5.68,6.52,8.64,9.35,4.78C830.321,455.89,828.75,444.97,835.37,443.57z"/>
<path fill="#3C354C" d="M918.889,621.5H895.5c0.379-9.58-3.52-19.311-4-29.08c-0.18-3.67,0.129-7.4-0.611-11
	c-0.193-0.938-0.443-1.863-0.75-2.771c-0.59-1.85-1.309-3.67-1.869-5.53c-1.859-6.21-1.789-12.81-1.699-19.29
	c0.105-7.153,0.219-14.3,0.34-21.439c0-1.86-0.551-4.601,1.139-5.38c3.811-1.761,7.771,1.729,11.271,4c2.1,1.399,4.5,2.5,6.539,4
	c1.215,0.837,2.27,1.887,3.109,3.1c0.986,1.669,1.686,3.49,2.07,5.39c2.834,10.82,5.301,21.73,7.4,32.73c1,4.781,1.668,9.626,2,14.5
	C921.049,600.97,918.92,611.3,918.889,621.5z"/>
<path fill="#3C354C" d="M773.61,610.36c-1,2.44-2.08,5-1.93,7.66c0.09,1.193,0.359,2.367,0.801,3.479H751.29
	c-1.063-3.604-1.865-7.28-2.4-11c-1-7.239-0.449-14.609,0.49-21.869c0.631-5.639,1.861-11.193,3.67-16.57
	c2.461-6.89,6.352-13.13,9.66-19.61c0.781-1.51,1.49-3.21,2.32-4.71c1.779-3.29,4.08-5.71,8.66-3.5
	c11.391,5.49,16.279,24.72,13.109,35.92c0.006,0.03,0.006,0.061,0,0.091c-0.902,2.843-2.031,5.608-3.379,8.27
	C779.981,595.733,776.709,603.013,773.61,610.36z"/>
<path fill="#3F3D56" d="M587.99,430.98c2.268,0.827,4.165,2.438,5.35,4.54c0.91,1.89,0.879,4.1,1.5,6.11
	c1.311,4.229,5.25,7,7.699,10.699c3.32,5,3.711,11.37,3.48,17.37s-1,12.12,0.5,17.95c0.711,2.84,1.92,5.54,2.41,8.43
	c0.59,3.5,0.1,7.16,1,10.601c0.789,3.13,2.641,5.87,4.459,8.53l7.781,11.369c-3.482-0.824-6.912-1.856-10.27-3.09
	c1.035,3.258,2.957,6.163,5.549,8.391l-5.619-6.801c-1.145-1.575-2.564-2.931-4.191-4c-2.059-1.17-4.5-1.35-6.818-1.829
	c-4.451-0.9-8.911-3.181-11.091-7.19c-2.909-5.34-1-12.05-2.67-17.91c-1.189-4.28-4.13-7.81-6.149-11.75
	c-4.59-8.93-4.311-19.46-5.75-29.399c-0.62-4.221-1.561-8.41-1.58-12.681c0-3.149,0.31-9.13,3.609-10.74
	C580.05,428.23,585.33,429.85,587.99,430.98z"/>
<path fill="#FFC1C7" d="M591.42,502.51c0.47,5.22,1.561,11.38,6.321,13.569c2.689,1.24,5.818,0.78,8.74,1.261
	c5.51,0.89,10,5.13,12.6,10.1s3.43,10.61,4,16.17c0.75,6.95,1,14.5-2.83,20.36c-3.09,4.75-8.43,7.64-13.9,9.109
	c-11.146,2.905-23.006,0.707-32.371-6c-4.529-3.29-8.27-7.529-11.909-11.77c-7.931-9.23-15.91-19.351-17.54-31.41
	c-0.19-1.37-0.17-3,1-3.84c0.774-0.437,1.667-0.615,2.55-0.51l7.6,0.14c1.931,0,4.11,0,5.42-1.45c1.311-1.45,1.23-3.27,1.181-5
	c-0.193-7.333-0.387-14.684-0.58-22.05c-0.116-0.779,0.062-1.574,0.5-2.23c0.483-0.437,1.1-0.7,1.75-0.75
	c4.189-0.71,8.569,0,12.67-1.14c3.899-1.07,10-5.55,12.89-0.95C591.93,489.97,591.05,498.07,591.42,502.51z"/>
<path opacity="0.1" enable-background="new    " d="M591.42,502.51c0.47,5.22,1.561,11.38,6.321,13.569
	c2.689,1.24,5.818,0.78,8.74,1.261c5.51,0.89,10,5.13,12.6,10.1s3.43,10.61,4,16.17c0.75,6.95,1,14.5-2.83,20.36
	c-3.09,4.75-8.43,7.64-13.9,9.109c-11.146,2.905-23.006,0.707-32.371-6c-4.529-3.29-8.27-7.529-11.909-11.77
	c-7.931-9.23-15.91-19.351-17.54-31.41c-0.19-1.37-0.17-3,1-3.84c0.774-0.437,1.667-0.615,2.55-0.51l7.6,0.14
	c1.931,0,4.11,0,5.42-1.45c1.311-1.45,1.23-3.27,1.181-5c-0.193-7.333-0.387-14.684-0.58-22.05c-0.116-0.779,0.062-1.574,0.5-2.23
	c0.483-0.437,1.1-0.7,1.75-0.75c4.189-0.71,8.569,0,12.67-1.14c3.899-1.07,10-5.55,12.89-0.95
	C591.93,489.97,591.05,498.07,591.42,502.51z"/>
<circle fill="#FFC1C7" cx="572.28" cy="472.03" r="29.05"/>
<path fill="#3A3076" d="M636.94,596.43c-0.199,1.187-0.475,2.359-0.83,3.51c-0.93,2.684-1.998,5.317-3.199,7.89
	c-0.461,1.07-0.891,2.141-1.26,3.24c-0.291,0.86-0.541,1.74-0.762,2.62c-0.219,0.88-0.479,2.07-0.658,3.12
	c-0.271,1.55-0.471,3.12-0.631,4.69h-75.81c0.325-3.837,0.182-7.699-0.43-11.5c-1.019-5.234-2.587-10.347-4.681-15.25
	c-4.83-12.381-10.229-25-13.199-37.91c0,0,0,0,0-0.051c-2.078-8.378-2.7-17.051-1.841-25.64c0.061-0.5,0.13-1,0.2-1.52
	c0.179-1.299,0.422-2.587,0.73-3.86c0.732-3.624,2.396-6.995,4.83-9.78c3.399-3.66,9.149-5.47,13.56-3.13
	c2.66,1.41,4.31,3.91,5.63,6.68c0.84,1.761,1.55,3.62,2.29,5.391c2.71,6.39,6.605,12.209,11.48,17.149
	c0.93,1,1.909,1.891,2.92,2.771c1.01,0.88,1.89,1.62,2.88,2.38c3.21,2.47,7.08,5.6,11.27,5.71c2.431,0.07,4.911,0,7.42,0
	c2.199,0,4.42-0.09,6.609,0c4.691,0.09,10-1.24,12.27-5.35c1.551-2.811,1.291-6.24,1-9.44c-0.229-2.5-0.459-5-0.699-7.51
	c0-0.13,0-0.26,0-0.39c-0.16-1.811-0.33-3.601-0.5-5.41l0,0c-0.08-0.87-0.16-1.75-0.25-2.62l0,0l-0.18-1.94
	c0.834-0.093,1.674-0.173,2.52-0.239c3.791-0.301,7.66-0.23,10.92,1.619c3.1,1.75,5,4.761,6.221,8.171
	c0.811,2.43,1.334,4.947,1.561,7.5c1.119,11.35-0.691,22.8-0.07,34.18C636.651,579.75,638.389,588.3,636.94,596.43z"/>
<path fill="#FFC1C7" d="M654.25,621.5h-22.93c-0.191-2.601-0.34-5.2-0.432-7.811c-0.08-1.8-0.139-3.61-0.17-5.41
	c-0.1-4.854-0.059-9.693,0.121-14.52c4.514,2.551,9.568,3.994,14.75,4.21c2.096,2.347,3.787,5.026,5,7.93
	c0.68,1.597,1.252,3.236,1.709,4.91c0.006,0.022,0.006,0.047,0,0.07C653.241,614.361,653.893,617.912,654.25,621.5z"/>
<path fill="#3A3076" d="M652.241,605.869c-8.674,0.085-17.305,1.227-25.701,3.4c-1.109-5.48-0.57-11.14,0-16.7l3.711-38.21
	c0.27-2.83-0.25-28.81,5.23-24.22c2,1.689,4.559,16.88,5.189,19.32c0.949,3.689,1.699,7.42,2.369,11.159
	c1.371,7.681,2.301,15.42,3.631,23.11C647.049,585.949,650.26,605.89,652.241,605.869z"/>
<path fill="#3F3D56" d="M583.35,435.09c0.041-0.908-0.166-1.811-0.6-2.61c-0.759-0.961-1.889-1.557-3.11-1.64
	c-4.189-0.65-8.79,1-12.58-0.88c-2-1-3.51-3-5.51-4.11c-4.72-2.67-10.68,0-14.859,3.46c-6.655,5.526-11.507,12.916-13.931,21.22
	c-1.859,6.42-2.609,13.931-7.93,18c-2.2,1.681-5,2.61-6.65,4.851c-1.239,1.72-1.529,3.93-1.76,6c-0.55,4.88-1,9.88,0.271,14.62
	c1,3.529,2.85,6.729,4,10.199c3.231,10.029,0.353,21.022-7.381,28.181c1.938,1.207,4.27,1.612,6.5,1.13
	c-0.043,1.024-0.368,2.018-0.939,2.87c6.8-0.221,12.71-6.841,19.36-5.391c5.079,1.101,7.909,6.34,11.699,9.9
	c4.88,4.59,12.46,6.51,18.59,3.79c6.131-2.721,9.851-10.46,7.25-16.641c-3-7-12.09-9.81-15.26-16.76
	c-2.45-5.39-0.63-11.67-1.16-17.56c-0.449-5.061-2.63-9.771-4-14.66c-1.369-4.89-1.8-10.48,1-14.74c2.94-4.52,8.57-6.28,13.69-8
	C581.57,452.6,583.79,446.75,583.35,435.09z"/>
<path fill="#FFC1C7" d="M576.21,539.53c0.83-4,1.65-8.37,0.19-12.24c-2.721-7.22-11.61-9.47-17.761-14.119
	c-3.563-2.705-6.3-6.353-7.899-10.53c-1.12-2.93-1.271-7,1.479-8.48c1.07-0.5,2.254-0.707,3.431-0.6
	c9.579,0.22,18.359,5.43,25.71,11.59c4.27,3.59,8.329,7.7,10.46,12.851c1.51,3.649,2,7.63,2.43,11.55l1.5,13
	c0.99,7.452,1.568,14.953,1.729,22.47c0.012,4.31-0.26,8.615-0.809,12.89c-0.381,3-1,6.16-2.73,8.65c-3.32,4.63-9.7,5.67-15.4,5.83
	c-2.152,0.124-4.312-0.014-6.43-0.41c-9.471-2.06-16.65-15.32-9.49-23.51c3-3.48,7.62-3.57,9.35-8.34
	C574.29,553.81,574.85,546.159,576.21,539.53z"/>
<path fill="#3A3076" d="M568.52,541.81l7.471,12.21c0.446,0.633,0.756,1.352,0.91,2.11c0.21,1.59-1,3-1.921,4.29
	c-6.439,8.8-4.8,20.899-2.859,31.63c-20.971-6.65-36.297-24.699-39.46-46.471c-0.94-6.39-2.46-16.909,3.21-21.069
	C549.53,514.49,562.11,531.35,568.52,541.81z"/>
<path fill="#3F3D56" d="M606.481,517.34c-2.922-0.48-6,0-8.74-1.261c-4.76-2.189-5.851-8.35-6.321-13.569c0-0.48-0.07-1-0.09-1.57
	c1.704-1.756,3.555-3.365,5.53-4.81c1.783-1.042,3.678-1.878,5.65-2.49l5.279-1.86c0.486,1.403,0.867,2.841,1.141,4.3
	c0.59,3.5,0.1,7.16,1,10.601c0.789,3.13,2.641,5.87,4.459,8.53l7.781,11.369c-1.41-0.329-2.811-0.71-4.201-1.109
	C615.28,521.39,611.25,518.11,606.481,517.34z"/>
<path fill="none" stroke="#3F3D56" stroke-width="4" stroke-miterlimit="10" d="M106.89,716.67c3-5.511-0.4-12.271-4.29-17.181
	s-8.61-10-8.51-16.29c0.15-9,9.7-14.31,17.33-19.09c5.666-3.536,10.889-7.736,15.56-12.51c1.958-1.836,3.576-4.002,4.78-6.4
	c1.58-3.52,1.54-7.52,1.44-11.37c-0.34-12.84-0.977-25.67-1.91-38.489"/>
<path fill="#3A3076" d="M145.8,594.64c-0.216-4.777-2.855-9.114-7-11.5l-3.14,6.22l0.1-7.53c-1.502-0.439-3.066-0.629-4.63-0.56
	c-7.722,0.383-13.672,6.954-13.289,14.676c0.383,7.723,6.954,13.673,14.676,13.29c7.691-0.382,13.63-6.902,13.293-14.596H145.8z"/>
<path fill="#3A3076" d="M120.77,689.63c-3.545,6.871-11.989,9.567-18.861,6.022c-6.871-3.546-9.568-11.99-6.022-18.861
	s11.989-9.567,18.861-6.022c3.097,1.599,5.487,4.294,6.703,7.561l-8.77,7.131l9.65-2.23
	C122.327,685.457,121.792,687.651,120.77,689.63z"/>
<path fill="#3A3076" d="M113.84,662.38c-7.712,0.545-14.407-5.267-14.952-12.979c-0.477-6.751,3.944-12.877,10.502-14.551
	l-0.08,5.78l3.18-6.29l0,0c7.722-0.398,14.304,5.538,14.703,13.26c0.003,0.05,0.005,0.1,0.007,0.15
	c0.082,1.619-0.121,3.24-0.6,4.789C124.85,658.184,119.744,662.121,113.84,662.38z"/>
<path fill="#3A3076" d="M147.91,639.75c-7.727,0.283-14.221-5.75-14.505-13.477s5.75-14.221,13.477-14.505
	c2.523-0.093,5.024,0.498,7.238,1.711l-2.48,6.8l5.1-4.899c2.733,2.503,4.362,5.987,4.53,9.689c0.066,1.3-0.051,2.604-0.35,3.87
	C159.497,635.052,154.179,639.47,147.91,639.75z"/>
<path opacity="0.1" enable-background="new    " d="M143.91,598.38c-3.24,0.35-6.39,1.359-9.64,1.56s-6.82-0.57-8.88-3.1
	c-1.1-1.36-1.66-3.08-2.59-4.57c-0.888-1.384-2.104-2.528-3.54-3.33c-3.336,6.975-0.387,15.334,6.588,18.671
	c6.975,3.337,15.334,0.388,18.671-6.587c0.423-0.885,0.752-1.811,0.981-2.764C144.967,598.28,144.437,598.32,143.91,598.38z"/>
<path opacity="0.1" enable-background="new    " d="M147.91,639.75c-7.722,0.392-14.3-5.551-14.691-13.273
	c-0.118-2.318,0.343-4.631,1.341-6.727c1.114,0.748,2.071,1.706,2.82,2.819c1,1.51,1.61,3.26,2.78,4.641
	c2.19,2.569,5.92,3.409,9.31,3.26c3.39-0.15,6.66-1.12,10-1.431c0.47,0,0.94-0.069,1.42-0.079
	C159.462,635.054,154.162,639.459,147.91,639.75z"/>
<path opacity="0.1" enable-background="new    " d="M113.84,662.38c-7.722,0.391-14.299-5.553-14.69-13.274
	c-0.113-2.229,0.309-4.453,1.23-6.486c1.165,0.761,2.181,1.727,3,2.851c1.09,1.54,1.77,3.319,3,4.739
	c2.37,2.631,6.35,3.561,9.93,3.48s6.83-0.93,10.28-1.2C124.858,658.151,119.753,662.111,113.84,662.38z"/>
<path opacity="0.1" enable-background="new    " d="M120.77,689.63c-3.162,7.066-11.454,10.231-18.52,7.069
	c-7.066-3.161-10.232-11.453-7.07-18.52c1.158,0.758,2.196,1.685,3.08,2.75c1.34,1.62,2.22,3.47,3.76,5c2.87,2.82,7.5,4,11.63,4.09
	C116.029,690.031,118.407,689.901,120.77,689.63z"/>
<path fill="#656380" d="M85.72,710.32c0,0,11.08-0.34,14.42-2.72c3.34-2.38,17-5.21,17.86-1.4c0.86,3.811,16.65,19,4.15,19.061
	c-12.5,0.06-29.06-1.94-32.4-4C86.41,719.199,85.72,710.32,85.72,710.32z"/>
<path opacity="0.2" enable-background="new    " d="M122.37,723.94c-12.51,0.1-29.06-2-32.39-4c-2.54-1.55-3.55-7.09-3.89-9.65
	h-0.37c0,0,0.7,8.94,4,11c3.3,2.061,19.89,4.07,32.4,4c3.61,0,4.85-1.31,4.78-3.21C126.43,723.199,125.05,723.909,122.37,723.94z"/>
<path fill="none" stroke="#3F3D56" stroke-width="4" stroke-miterlimit="10" d="M1032.639,703.05
	c5.291-9.8-0.709-21.811-7.619-30.561s-15.32-17.84-15.141-29c0.26-16,17.25-25.47,30.82-33.95
	c10.076-6.296,19.369-13.769,27.68-22.26c3.34-3.399,6.561-7,8.51-11.38c2.811-6.26,2.73-13.38,2.551-20.24
	c-0.594-22.84-1.723-45.66-3.391-68.46"/>
<path fill="#3A3076" d="M1101.86,485.98c-0.389-8.499-5.088-16.213-12.459-20.46l-5.59,11.06l0.17-13.39
	c-13.24-3.917-27.148,3.641-31.066,16.881c-3.916,13.24,3.643,27.148,16.881,31.065c13.24,3.916,27.148-3.642,31.066-16.882
	C1101.655,491.572,1101.993,488.775,1101.86,485.98L1101.86,485.98z"/>
<path fill="#3A3076" d="M1057.34,654.96c-6.305,12.284-21.373,17.132-33.656,10.828c-12.285-6.304-17.133-21.372-10.828-33.656
	c6.303-12.284,21.371-17.132,33.654-10.828c5.564,2.854,9.857,7.691,12.029,13.556l-15.59,12.69l17.15-4
	C1060.108,647.52,1059.161,651.433,1057.34,654.96z"/>
<path fill="#3A3076" d="M1045.049,606.48c-13.795,0.545-25.422-10.197-25.967-23.993c-0.455-11.495,6.994-21.816,18.047-25.007
	L1037,567.77l5.65-11.19h0.068c13.742-1.35,25.975,8.696,27.324,22.437c1.35,13.741-8.695,25.975-22.436,27.324
	c-0.85,0.084-1.703,0.123-2.559,0.119V606.48z"/>
<path fill="#3A3076" d="M1105.62,566.15c-13.787,0.728-25.555-9.859-26.283-23.647s9.859-25.555,23.648-26.283
	c4.758-0.251,9.488,0.863,13.635,3.211l-4.41,12.09l9.08-8.71c4.871,4.444,7.773,10.644,8.07,17.229
	c0.113,2.313-0.104,4.629-0.641,6.881C1126.163,557.76,1116.745,565.601,1105.62,566.15z"/>
<path opacity="0.1" enable-background="new    " d="M1098.5,492.63c-5.76,0.63-11.361,2.42-17.15,2.779
	c-5.791,0.36-12.131-1-15.791-5.52c-2-2.42-3-5.48-4.619-8.13c-1.574-2.458-3.732-4.488-6.279-5.91
	c-6.367,12.252-1.596,27.345,10.656,33.711s27.344,1.595,33.711-10.657c1.063-2.045,1.838-4.227,2.303-6.483
	C1100.379,492.46,1099.44,492.53,1098.5,492.63z"/>
<path opacity="0.1" enable-background="new    " d="M1105.62,566.15c-13.793,0.621-25.479-10.057-26.1-23.85
	c-0.182-4.053,0.625-8.089,2.35-11.761c1.975,1.329,3.672,3.027,5,5c1.781,2.69,2.85,5.79,5,8.25
	c3.881,4.58,10.531,6.07,16.551,5.801c6.02-0.271,11.84-2,17.85-2.54c0.83-0.07,1.67-0.13,2.51-0.15
	C1126.225,557.768,1116.772,565.624,1105.62,566.15z"/>
<path opacity="0.1" enable-background="new    " d="M1045.049,606.48c-13.791,0.644-25.494-10.016-26.137-23.808
	c-0.182-3.896,0.549-7.78,2.137-11.343c2.051,1.359,3.838,3.081,5.271,5.08c1.939,2.74,3.148,5.891,5.42,8.41
	c4.219,4.69,11.299,6.351,17.68,6.2c6.18-0.14,12.129-1.66,18.279-2.13C1064.598,598.931,1055.547,605.96,1045.049,606.48z"/>
<path opacity="0.1" enable-background="new    " d="M1057.34,654.96c-6.533,12.163-21.691,16.727-33.854,10.193
	c-10.941-5.876-15.908-18.893-11.666-30.563c2.057,1.348,3.902,2.992,5.479,4.88c2.371,2.899,3.941,6.18,6.682,8.88
	c5.109,5,13.35,7.07,20.68,7.26C1048.895,655.641,1053.129,655.423,1057.34,654.96z"/>
<path fill="#656380" d="M994.991,691.75c0,0,19.699-0.61,25.639-4.841c5.941-4.229,30.311-9.279,31.791-2.5
	c1.48,6.78,29.609,33.74,7.359,33.91s-51.689-3.46-57.619-7.07C996.231,707.64,994.991,691.75,994.991,691.75z"/>
<path opacity="0.2" enable-background="new    " d="M1060.18,715.98c-22.25,0.18-51.689-3.46-57.621-7.07
	c-4.51-2.75-6.309-12.62-6.92-17.17h-0.648c0,0,1.24,15.891,7.17,19.5c5.93,3.61,35.379,7.25,57.619,7.07
	c6.43-0.05,8.641-2.33,8.52-5.72C1067.411,714.67,1064.959,715.949,1060.18,715.98z"/>
</svg>
