<?xml version="1.0" encoding="UTF-8"?> <svg xmlns="http://www.w3.org/2000/svg" width="675.691" height="437.247" viewBox="0 0 675.691 437.247"><g id="seo_services_for_small_business" data-name="seo services for small business" transform="translate(-246.128 -1807.999)"><g id="Group_4779" data-name="Group 4779" transform="translate(4 34)"><path id="Path_25549" data-name="Path 25549" d="M670.131,235.742H549.711q1.694,0,3.345-.162c-16.287-1.57-28.99-14.472-28.99-30.157h0c0-15.685,12.7-28.589,28.99-30.158q-1.65-.158-3.345-.16c17.858,0,32.335-13.575,32.335-30.32h0c0-16.744-14.477-30.319-32.335-30.319H134.93c-17.858,0-32.335,13.575-32.335,30.319h0c0,16.745,14.477,30.32,32.335,30.32h-8.251c17.858,0,32.335,13.574,32.335,30.319h0c0,16.745-14.477,30.319-32.335,30.319H91.817c-26.89,0-48.689,20.439-48.689,45.653h0c0,25.214,21.8,45.654,48.689,45.654h34.865c17.857,0,32.332,13.575,32.332,30.319h0c0,16.745-14.477,30.319-32.335,30.319h8.251c-17.858,0-32.335,13.574-32.335,30.319h0c0,16.745,14.477,30.319,32.335,30.319H549.711c17.858,0,32.335-13.574,32.335-30.319h0c0-16.745-14.477-30.319-32.335-30.319q1.694,0,3.345-.162c-16.287-1.57-28.99-14.472-28.99-30.157h0c0-15.687,12.7-28.589,28.99-30.158q-1.649-.158-3.342-.16H670.131c26.89,0,48.688-20.439,48.688-45.654h0C718.819,256.181,697.021,235.742,670.131,235.742Z" transform="translate(199 1749)" fill="#ecf3ff"></path><path id="Path_25550" data-name="Path 25550" d="M53.086,144.471s11.078-26.116,19.022-26.112,11.466,7.176,15.516,5.942,12.194-35.977,24.527-34.7,10.5,30.453,22.769,32.714,19.482-17.642,33.174-14.3,16.588,28.353,20.171,34.537,9.269,10.514,1.819,10.542S36.174,152.841,53.086,144.471Z" transform="translate(199 1749)" fill="#4c9bf1"></path><path id="Path_25551" data-name="Path 25551" d="M491.591,120.4s12.016-8.643,23.366-32.213,24.3-22.111,28.689-20.752S554.621,84.422,560.173,98.5s12.559,8.509,16.594-3.924,12.9-4.5,14.123.406,3.325,13.956,11.673,11.066,11.215-.871,12.083,3.644,5.941,7.028,24.1,8.4,25.939,8.875,13.158,11.148S450.466,130.42,491.591,120.4Z" transform="translate(199 1749)" fill="#4c9bf1"></path></g><g id="Group_4574" data-name="Group 4574" transform="translate(228.525 1765.321)"><g id="Group_4543" data-name="Group 4543" transform="translate(274.798 42.677)"><g id="Group_4541" data-name="Group 4541" transform="translate(0 20.347)"><path id="Path_25278" data-name="Path 25278" d="M204.992,113.778c-2.122-.4-4.228-.875-6.265-1.408l.8-3.057c1.967.515,4,.973,6.053,1.364Zm-12.419-3.243c-2.046-.688-4.07-1.453-6.012-2.277l1.225-2.905c1.872.789,3.821,1.525,5.794,2.191Zm-11.844-5c-1.907-.982-3.792-2.049-5.6-3.17l1.661-2.684c1.74,1.077,3.549,2.1,5.384,3.047Zm-10.935-6.792c-1.734-1.288-3.417-2.659-5-4.07l2.1-2.362c1.519,1.355,3.129,2.665,4.79,3.9Zm-9.628-8.586a64.624,64.624,0,0,1-4.174-4.948l2.517-1.907c1.216,1.6,2.551,3.183,3.966,4.7Zm-7.806-10.325a52.086,52.086,0,0,1-2.974-5.791l2.9-1.257a48.687,48.687,0,0,0,2.794,5.434Zm-5.134-11.971a35.4,35.4,0,0,1-1.111-6.5l3.148-.23a32.5,32.5,0,0,0,1.014,5.927ZM149.5,55.213l-3.117-.515a22.857,22.857,0,0,1,2.049-6.438l2.826,1.4A19.821,19.821,0,0,0,149.5,55.213Zm5.134-10.221-2.22-2.245a22.458,22.458,0,0,1,5.485-3.953l1.452,2.8A19.366,19.366,0,0,0,154.637,44.992Zm10.275-5.45-.761-3.066a38.125,38.125,0,0,1,6.5-1l.221,3.151A34.719,34.719,0,0,0,164.912,39.542Zm18.194-.272c-2.112-.328-4.171-.553-6.126-.663l.183-3.151c2.052.117,4.215.35,6.426.692Z" transform="translate(-146.115 -35.456)" fill="#fff"></path></g><g id="Group_4542" data-name="Group 4542" transform="translate(25.725)"><path id="Path_25279" data-name="Path 25279" d="M155.363,35.408l8.79,22.23,50.739-17.493-49.046-8.883Z" transform="translate(-151.887 -24.156)" fill="#bad4f5"></path><path id="Path_25280" data-name="Path 25280" d="M163.036,29.012,214.892,45l-59.53-4.737Z" transform="translate(-151.887 -29.012)" fill="#fff"></path><path id="Path_25281" data-name="Path 25281" d="M217.268,34.076,154.262,48.708,156.316,34.4Z" transform="translate(-154.262 -18.086)" fill="#fff"></path></g></g><g id="Group_4544" data-name="Group 4544" transform="translate(88.486 85.08)"><path id="Path_25282" data-name="Path 25282" d="M172.5,50a6.492,6.492,0,1,1-6.492-6.492A6.494,6.494,0,0,1,172.5,50Z" transform="translate(69.12 -40.15)" fill="#ff9a00"></path><path id="Path_25283" data-name="Path 25283" d="M265.1,85.529a6.492,6.492,0,1,1-6.492-6.492A6.492,6.492,0,0,1,265.1,85.529Z" transform="translate(268.913 36.519)" fill="#ff9a00"></path><path id="Path_25284" data-name="Path 25284" d="M248.984,87.008a3.892,3.892,0,1,1-3.893-3.893A3.891,3.891,0,0,1,248.984,87.008Z" transform="translate(245.354 45.318)" fill="#ff9a00"></path><path id="Path_25285" data-name="Path 25285" d="M188.506,65.292a3.284,3.284,0,1,1-3.284-3.287A3.285,3.285,0,0,1,188.506,65.292Z" transform="translate(117.489 -0.229)" fill="#ff9a00"></path><circle id="Ellipse_1302" data-name="Ellipse 1302" cx="3.285" cy="3.285" r="3.285" transform="translate(0 88.278)" fill="#ff9a00"></circle><circle id="Ellipse_1303" data-name="Ellipse 1303" cx="3.285" cy="3.285" r="3.285" transform="translate(152.751 0.002)" fill="#ff9a00"></circle><path id="Path_25286" data-name="Path 25286" d="M240.39,45.728a3.284,3.284,0,1,1-3.284-3.287A3.285,3.285,0,0,1,240.39,45.728Z" transform="translate(229.435 -42.441)" fill="#ff9a00"></path></g><path id="Path_25287" data-name="Path 25287" d="M645.537,170.708c0,4.856-125.152,8.794-279.531,8.794s-279.531-3.937-279.531-8.794,125.152-8.791,279.531-8.791S645.537,165.855,645.537,170.708Z" transform="translate(0 300.423)" fill="#dceffe"></path><g id="Group_4573" data-name="Group 4573" transform="translate(112.103 97.976)"><g id="Group_4551" data-name="Group 4551" transform="translate(65.655 38.649)"><rect id="Rectangle_5305" data-name="Rectangle 5305" width="60.041" height="73.487" transform="translate(149.598 245.329)" fill="#fff"></rect><path id="Path_25288" data-name="Path 25288" d="M295.538,182.736H149.075a25.019,25.019,0,0,1,25.018-25.021H270.52a25.019,25.019,0,0,1,25.018,25.021Z" transform="translate(-42.689 154.731)" fill="#fff"></path><path id="Path_25289" data-name="Path 25289" d="M474.616,73.135V301.4H115.383V73.135a14.367,14.367,0,0,1,14.367-14.37h330.5A14.367,14.367,0,0,1,474.616,73.135Z" transform="translate(-115.383 -58.765)" fill="#60acff"></path><path id="Path_25290" data-name="Path 25290" d="M474.616,135.6v15.652a14.4,14.4,0,0,1-14.4,14.4H129.75a14.367,14.367,0,0,1-14.367-14.37V135.6Z" transform="translate(-115.383 107.02)" fill="#fff"></path><rect id="Rectangle_5306" data-name="Rectangle 5306" width="320.22" height="207.771" rx="2.466" transform="translate(19.509 19.32)" fill="#bad4f5"></rect><g id="Group_4545" data-name="Group 4545" transform="translate(50.73 156.988)"><rect id="Rectangle_5307" data-name="Rectangle 5307" width="50.24" height="6.09" rx="0.623" fill="#fff"></rect><rect id="Rectangle_5308" data-name="Rectangle 5308" width="65.887" height="6.09" rx="0.623" transform="translate(78.489)" fill="#fff"></rect><rect id="Rectangle_5309" data-name="Rectangle 5309" width="13.533" height="6.09" rx="0.623" transform="translate(58.021)" fill="#e655be"></rect><path id="Path_25599" data-name="Path 25599" d="M.623,0H49.617a.623.623,0,0,1,.623.623V5.467a.623.623,0,0,1-.623.623H.623A.623.623,0,0,1,0,5.467V.623A.623.623,0,0,1,.623,0Z" transform="translate(0 28.757)" fill="#3588e2"></path><rect id="Rectangle_5311" data-name="Rectangle 5311" width="52.608" height="6.089" rx="0.623" transform="translate(58.021 28.757)" fill="#5193f4"></rect><rect id="Rectangle_5312" data-name="Rectangle 5312" width="52.608" height="6.089" rx="0.623" transform="translate(115.873 28.757)" fill="#fff"></rect><rect id="Rectangle_5313" data-name="Rectangle 5313" width="82.38" height="6.09" rx="0.623" transform="translate(0 14.209)" fill="#fff"></rect><rect id="Rectangle_5314" data-name="Rectangle 5314" width="80.012" height="6.09" rx="0.623" transform="translate(90.838 14.209)" fill="#3588e2"></rect></g><rect id="Rectangle_5315" data-name="Rectangle 5315" width="328.082" height="37.891" transform="translate(19.521 18.447)" fill="#0056ec"></rect><path id="Path_25291" data-name="Path 25291" d="M184.378,144.792a7.195,7.195,0,1,1-7.2-7.2A7.2,7.2,0,0,1,184.378,144.792Z" transform="translate(2.436 111.322)" fill="#0c5eb8"></path><rect id="Rectangle_5316" data-name="Rectangle 5316" width="60.041" height="11.387" transform="translate(149.598 272.66)" fill="#bad4f5"></rect><rect id="Rectangle_5317" data-name="Rectangle 5317" width="60.041" height="5.694" transform="translate(149.598 306.754)" fill="#bad4f5"></rect><g id="Group_4546" data-name="Group 4546" transform="translate(50.73 68.687)"><rect id="Rectangle_5318" data-name="Rectangle 5318" width="50.24" height="6.09" rx="0.623" fill="#fff"></rect><rect id="Rectangle_5319" data-name="Rectangle 5319" width="81.661" height="6.09" rx="0.623" transform="translate(58.021)" fill="#3588e2"></rect><rect id="Rectangle_5320" data-name="Rectangle 5320" width="82.38" height="6.09" rx="0.623" transform="translate(0 14.209)" fill="#fff"></rect><rect id="Rectangle_5321" data-name="Rectangle 5321" width="34.847" height="6.09" rx="0.623" transform="translate(92.022 14.209)" fill="#5193f4"></rect><rect id="Rectangle_5322" data-name="Rectangle 5322" width="65.507" height="6.09" rx="0.623" transform="translate(135.834 14.209)" fill="#fff"></rect></g><g id="Group_4549" data-name="Group 4549" transform="translate(40.773 100.15)"><rect id="Rectangle_5323" data-name="Rectangle 5323" width="277.687" height="43.189" rx="4.23" transform="translate(0 0.001)" fill="#4c9bf1"></rect><path id="Path_25292" data-name="Path 25292" d="M233.286,90.482H202.531V133.76h30.755a12.521,12.521,0,0,0,12.523-12.523V103.008A12.523,12.523,0,0,0,233.286,90.482Z" transform="translate(31.876 -90.482)" fill="#0056ec"></path><g id="Group_4548" data-name="Group 4548" transform="translate(244.298 10.777)"><g id="Group_4547" data-name="Group 4547"><path id="Path_25293" data-name="Path 25293" d="M221.69,96.348a8.354,8.354,0,1,0,.009,11.813A8.351,8.351,0,0,0,221.69,96.348Zm-10.565,10.562a6.586,6.586,0,1,1,9.315-.009A6.592,6.592,0,0,1,211.125,106.911Z" transform="translate(-201.856 -93.895)" fill="#bad4f5"></path><path id="Path_25294" data-name="Path 25294" d="M206.581,107.7l-.733-.733a.633.633,0,0,1,0-.894l8.125-8.125,1.626,1.626-8.125,8.125A.633.633,0,0,1,206.581,107.7Z" transform="translate(-205.663 -85.157)" fill="#bad4f5"></path></g></g></g><g id="Group_4550" data-name="Group 4550" transform="translate(259.133 32.149)"><circle id="Ellipse_1304" data-name="Ellipse 1304" cx="5.921" cy="5.921" r="5.921" fill="#bad4f5"></circle><circle id="Ellipse_1305" data-name="Ellipse 1305" cx="5.921" cy="5.921" r="5.921" transform="translate(20.806)" fill="#bad4f5"></circle><circle id="Ellipse_1306" data-name="Ellipse 1306" cx="5.921" cy="5.921" r="5.921" transform="translate(39.921)" fill="#bad4f5"></circle></g></g><g id="Group_4557" data-name="Group 4557" transform="translate(419.836 277.875)"><g id="Group_4556" data-name="Group 4556"><path id="Path_25295" data-name="Path 25295" d="M270.847,138.747a33.842,33.842,0,1,0,27.635,27.639A33.866,33.866,0,0,0,270.847,138.747ZM269.4,190.292a18.707,18.707,0,0,1-22.46-22.46,18.52,18.52,0,0,1,13.919-13.919,18.71,18.71,0,0,1,22.46,22.463A18.52,18.52,0,0,1,269.4,190.292Z" transform="translate(-219.454 -126.431)" fill="#52d2bc"></path><path id="Path_25296" data-name="Path 25296" d="M259.146,154.01a10.3,10.3,0,1,1-8.083-8.087A10.308,10.308,0,0,1,259.146,154.01Z" transform="translate(-203.374 -110.35)" fill="#52d2bc"></path><g id="Group_4552" data-name="Group 4552" transform="translate(40.343)"><rect id="Rectangle_5324" data-name="Rectangle 5324" width="10.659" height="14.72" rx="0.904" fill="#52d2bc"></rect><rect id="Rectangle_5325" data-name="Rectangle 5325" width="10.659" height="14.72" rx="0.904" transform="translate(0 76.626)" fill="#52d2bc"></rect></g><g id="Group_4553" data-name="Group 4553" transform="translate(9.609 9.609)"><rect id="Rectangle_5326" data-name="Rectangle 5326" width="14.719" height="10.659" rx="0.904" transform="translate(54.183 10.408) rotate(-45)" fill="#52d2bc"></rect><rect id="Rectangle_5327" data-name="Rectangle 5327" width="14.72" height="10.659" rx="0.904" transform="translate(0 64.591) rotate(-45)" fill="#52d2bc"></rect></g><g id="Group_4554" data-name="Group 4554" transform="translate(0 40.343)"><rect id="Rectangle_5328" data-name="Rectangle 5328" width="14.72" height="10.659" rx="0.904" transform="translate(76.626)" fill="#52d2bc"></rect><rect id="Rectangle_5329" data-name="Rectangle 5329" width="14.72" height="10.659" rx="0.904" fill="#52d2bc"></rect></g><g id="Group_4555" data-name="Group 4555" transform="translate(9.609 9.609)"><rect id="Rectangle_5330" data-name="Rectangle 5330" width="10.659" height="14.719" rx="0.904" transform="translate(54.183 61.72) rotate(-45.003)" fill="#52d2bc"></rect><rect id="Rectangle_5331" data-name="Rectangle 5331" width="10.659" height="14.719" rx="0.904" transform="translate(0 7.537) rotate(-45)" fill="#52d2bc"></rect></g></g></g><g id="Group_4559" data-name="Group 4559" transform="translate(372.272 15.065)"><g id="Group_4558" data-name="Group 4558"><circle id="Ellipse_1307" data-name="Ellipse 1307" cx="27.942" cy="27.942" r="27.942" transform="translate(0 19.503)" fill="#52d2bc"></circle><path id="Path_25297" data-name="Path 25297" d="M240.2,83.286c0-5.769-10.224-16-15.993-16,5.769,0,15.993-10.224,15.993-15.993,0,5.769,10.227,15.993,16,15.993C250.427,67.289,240.2,77.517,240.2,83.286Z" transform="translate(-187.202 -51.296)" fill="#52d2bc"></path></g></g><g id="Group_4562" data-name="Group 4562" transform="translate(0 295.948)"><circle id="Ellipse_1308" data-name="Ellipse 1308" cx="38.443" cy="38.443" r="38.443" fill="#fde772"></circle><path id="Path_25298" data-name="Path 25298" d="M155.926,154.644a29.2,29.2,0,0,1-58.41,0c0-.562.013-1.124.051-1.686a29.2,29.2,0,0,0,58.309,0C155.913,153.52,155.926,154.082,155.926,154.644Z" transform="translate(-88.278 -112.831)" fill="#ffefab"></path><ellipse id="Ellipse_1309" data-name="Ellipse 1309" cx="29.154" cy="27.516" rx="29.154" ry="27.516" transform="translate(9.289 12.609)" fill="#dc9849"></ellipse><path id="Path_25299" data-name="Path 25299" d="M155.926,172.379c0,.714-.025,1.415-.088,2.1a29.19,29.19,0,0,0-58.233,0c-.063-.685-.088-1.386-.088-2.1a29.2,29.2,0,1,1,58.41,0Z" transform="translate(-88.278 -133.941)" fill="#c2721d"></path><g id="Group_4561" data-name="Group 4561" transform="translate(31.862 23.994)"><g id="Group_4560" data-name="Group 4560"><path id="Path_25300" data-name="Path 25300" d="M110.065,176.744v-3.552a10.253,10.253,0,0,1-5.384-1.55l.843-2.359a9.368,9.368,0,0,0,5.068,1.516c2.5,0,4.19-1.446,4.19-3.451,0-1.936-1.374-3.132-3.979-4.187-3.59-1.408-5.807-3.028-5.807-6.091,0-2.921,2.078-5.137,5.314-5.665v-3.555h2.182v3.413a9.39,9.39,0,0,1,4.575,1.232l-.881,2.324a8.476,8.476,0,0,0-4.433-1.2c-2.709,0-3.732,1.62-3.732,3.028,0,1.828,1.3,2.744,4.367,4.01,3.625,1.481,5.456,3.309,5.456,6.442,0,2.782-1.939,5.384-5.564,5.984v3.66Z" transform="translate(-104.681 -147.849)" fill="#fde772"></path></g></g></g><g id="Group_4565" data-name="Group 4565" transform="translate(39.34)"><path id="Path_25555" data-name="Path 25555" d="M45.191,0A45.191,45.191,0,1,1,0,45.191,45.191,45.191,0,0,1,45.191,0Z" transform="translate(0 7.476)" fill="#5193f4"></path><circle id="Ellipse_1311" data-name="Ellipse 1311" cx="33.103" cy="33.103" r="33.103" transform="translate(12.088 19.564)" fill="#fff"></circle><path id="Path_25556" data-name="Path 25556" d="M25.426,0A25.426,25.426,0,1,1,0,25.426,25.426,25.426,0,0,1,25.426,0Z" transform="translate(14.603 33.763) rotate(-13.283)" fill="#5193f4"></path><path id="Path_25301" data-name="Path 25301" d="M116.792,73.062a14.427,14.427,0,1,0,14.427-14.427A14.425,14.425,0,0,0,116.792,73.062Z" transform="translate(-86.028 -20.396)" fill="#fff"></path><path id="Path_25302" data-name="Path 25302" d="M118.492,69.394a9.059,9.059,0,1,0,9.059-9.059A9.057,9.057,0,0,0,118.492,69.394Z" transform="translate(-82.36 -16.728)" fill="#5193f4"></path><path id="Path_25303" data-name="Path 25303" d="M120.579,65.2a2.742,2.742,0,1,0,2.744-2.741A2.744,2.744,0,0,0,120.579,65.2Z" transform="translate(-77.857 -12.143)" fill="#fff"></path><g id="Group_4564" data-name="Group 4564" transform="translate(45.465)"><path id="Path_25304" data-name="Path 25304" d="M134.961,61.045l1.409-7.478,9.131-7.043-1.391,6.6Z" transform="translate(-92.29 -46.525)" fill="#fcb15d"></path><path id="Path_25305" data-name="Path 25305" d="M135.36,56.492h7.609l8.612-7.668h-7.4Z" transform="translate(-91.431 -41.564)" fill="#fcb15d"></path><g id="Group_4563" data-name="Group 4563" transform="translate(6.701 5.285)"><path id="Path_25306" data-name="Path 25306" d="M123.681,89.5c.3.344,1.105.139,1.79-.458l44.876-38.968c.685-.6,1-1.364.7-1.708s-1.1-.136-1.787.461L124.389,87.793C123.7,88.386,123.384,89.154,123.681,89.5Z" transform="translate(-123.57 -48.199)" fill="#5083a5"></path></g><path id="Path_25307" data-name="Path 25307" d="M121.448,69.334l5.537-8.97,4.428,4.745Z" transform="translate(-121.448 -16.667)" fill="#fcb15d"></path></g></g><g id="Group_4567" data-name="Group 4567" transform="translate(377.332 87.314)"><path id="Path_25308" data-name="Path 25308" d="M255.464,81v59a29.529,29.529,0,0,1-38.51-28.109c0-.47.047-.928.079-1.383-.016-.189-.032-.36-.032-.549a1.168,1.168,0,0,1-.032.249c0-.36-.016-.736-.016-1.1A29.529,29.529,0,0,1,255.464,81Z" transform="translate(-207.909 -62.477)" fill="#414042" opacity="0.54"></path><g id="Group_4566" data-name="Group 4566"><circle id="Ellipse_1313" data-name="Ellipse 1313" cx="29.506" cy="29.506" r="29.506" transform="translate(9.045 11.828)" fill="#0a4fb4" opacity="0.51"></circle><circle id="Ellipse_1314" data-name="Ellipse 1314" cx="29.506" cy="29.506" r="29.506" transform="translate(0 22.583) rotate(-22.5)" fill="#5193f4"></circle><path id="Path_25309" data-name="Path 25309" d="M275.969,106.547c0,.363-.013.739-.025,1.1a29.5,29.5,0,0,0-58.965,0c-.013-.363-.025-.739-.025-1.1a29.508,29.508,0,0,1,59.016,0Z" transform="translate(-207.911 -67.994)" fill="#124fad" opacity="0.28"></path><path id="Path_25310" data-name="Path 25310" d="M255.85,87.3l-3.71-3.941a1.636,1.636,0,0,0-2.311-.069L235.465,96.8a1.635,1.635,0,0,1-2.28-.035l-5.908-5.908a1.639,1.639,0,0,0-2.315,0l-3.827,3.827a1.633,1.633,0,0,0,0,2.315L233,108.872a1.638,1.638,0,0,0,2.28.035l20.5-19.293A1.64,1.64,0,0,0,255.85,87.3Z" transform="translate(-199.924 -55.475)" fill="#fff"></path></g></g><g id="Group_4572" data-name="Group 4572" transform="translate(124.304 145.563)"><path id="Path_25311" data-name="Path 25311" d="M153.748,162.549l-.051,12.87s16.934-.186,22.144-.556-1.307-7.844-9.11-7.853C161.746,167,160,161.28,160,161.28Z" transform="translate(-91.366 55.509)" fill="#414042"></path><path id="Path_25312" data-name="Path 25312" d="M138.409,159.888l-4.452,12.078s15.974,5.621,21,7.051,1.456-7.815-5.87-10.493c-4.686-1.711-4.37-7.689-4.37-7.689Z" transform="translate(-133.957 52.506)" fill="#414042"></path><path id="Path_25313" data-name="Path 25313" d="M191.038,131.5l11.418,43.22-.234,53.036-8.567.456L185.2,179.121l-6.09-17.254-6.428,18.269-30.167,43.619-7.894-2.988,21.314-46.212,7.951-39.076Z" transform="translate(-132.518 -8.738)" fill="#bad4f5"></path><g id="Group_4568" data-name="Group 4568" transform="translate(71.592 3.296)"><path id="Path_25314" data-name="Path 25314" d="M172.178,98.228a2.345,2.345,0,0,1-.42.805,1.355,1.355,0,0,1-.726.41,2.046,2.046,0,0,1-.976-.047c-.369-.1-.789-.212-1.25-.335a9.257,9.257,0,0,0-1.553-.259,5.951,5.951,0,0,0-1.869.164,4.052,4.052,0,0,0-2.431,1.377,2.631,2.631,0,0,0-.363,2.226,1.893,1.893,0,0,0,.84,1.216,4.49,4.49,0,0,0,1.573.6,15.272,15.272,0,0,0,2.084.249c.77.041,1.56.1,2.375.189a19.455,19.455,0,0,1,2.428.4,7.46,7.46,0,0,1,2.239.9,6.512,6.512,0,0,1,1.844,1.689,7.492,7.492,0,0,1,1.2,2.741,9.5,9.5,0,0,1,.193,3.638,8.342,8.342,0,0,1-1.184,3.274,9.048,9.048,0,0,1-2.567,2.627,11.7,11.7,0,0,1-3.915,1.67,13.182,13.182,0,0,1-2.608.36,15.671,15.671,0,0,1-2.7-.126,15.363,15.363,0,0,1-2.545-.559,10.031,10.031,0,0,1-2.21-.991l1.143-3.35a1.452,1.452,0,0,1,.442-.673,1.616,1.616,0,0,1,.742-.395,2.154,2.154,0,0,1,1.2.079c.429.142.913.3,1.456.47a11.608,11.608,0,0,0,1.812.382,6.335,6.335,0,0,0,2.258-.174,4.278,4.278,0,0,0,2.46-1.38,2.942,2.942,0,0,0,.363-2.6,2.32,2.32,0,0,0-.881-1.405,4.121,4.121,0,0,0-1.585-.647,12.588,12.588,0,0,0-2.071-.221c-.761-.025-1.544-.069-2.349-.126a16.4,16.4,0,0,1-2.406-.36,6.975,6.975,0,0,1-2.239-.919,6.663,6.663,0,0,1-1.869-1.809,8.558,8.558,0,0,1-1.276-3.038,7.761,7.761,0,0,1-.1-3.091,7.912,7.912,0,0,1,1.168-2.993,9.128,9.128,0,0,1,2.463-2.491,10.937,10.937,0,0,1,3.761-1.614,14.747,14.747,0,0,1,2.45-.388,13.565,13.565,0,0,1,2.356.035,12.96,12.96,0,0,1,2.182.433,9.027,9.027,0,0,1,1.914.8Z" transform="translate(-156.63 -93.668)" fill="#fff"></path></g><g id="Group_4569" data-name="Group 4569" transform="translate(29.586 22.17)"><path id="Path_25315" data-name="Path 25315" d="M162.933,102.061c6.483,5.242,5.529,9.782,4.032,12.245,0,0-9.35,2.573-11.93,2.813,0,0,1.955,6.723,1.525,8.443l-7.054-1.519s-3.4-3.878-2.911-8.128,3.057-7.982,6.543-9.3,8.879.4,9.482-4.4Z" transform="translate(-136.377 -94.432)" fill="#404b69"></path><path id="Path_25316" data-name="Path 25316" d="M164.67,105.939s.521,4.234,2.914,5.491,3.148.944,3.148.944a13.546,13.546,0,0,0-1.326,5.516c.148,2.476-1.38,5.1-4.939,6.154s-4.288.455-4.288.455l.041,7.468s-6.836-2.179-8.816-4.421l-1.055-7.686s-4.373-3.091-2.065-5.178,5.981,2.513,5.981,2.513l-1.853-8.513Z" transform="translate(-134.081 -86.065)" fill="#fae3d9"></path><path id="Path_25317" data-name="Path 25317" d="M158.309,114.987s-7.379-1.961-9.83-4.639l.458,3.338s6.533,3.088,9.29,2.226Z" transform="translate(-132.21 -76.552)" fill="#7f7fc6" opacity="0.47"></path><path id="Path_25318" data-name="Path 25318" d="M171.075,106.791l-1.554-4.329a4.251,4.251,0,0,0-4.588-2.776s-2.842.739-3.417,1.639.455,3.082.455,3.082-1.374.736-1.415,1.2c-.082.919,2.346,2.854,2.346,2.854a4.249,4.249,0,0,0,4.08,1.478l2.57-.489A2.013,2.013,0,0,0,171.075,106.791Z" transform="translate(-106.154 -99.645)" fill="#fae3d9"></path><path id="Path_25319" data-name="Path 25319" d="M151.45,136.193l33.742-7.948a2.6,2.6,0,0,0,1.986-2.8l-.821-23.12,8.557.215,2.236,33.8a2.6,2.6,0,0,1-1.9,2.795L156.12,152.465c-2.539.691-2.75-3.458-4.519-5.4h0a7,7,0,0,1-1.462-6.89Z" transform="translate(-129.387 -93.856)" fill="#0056ec"></path><path id="Path_25320" data-name="Path 25320" d="M171.241,114.61l-9.523-1.92c-5.7-1.73-8.488,3.344-8.488,3.344-3.369,5.172-7.752,19.476-8.459,25.289a227.754,227.754,0,0,0-1.175,36.666l32.132,3.423Z" transform="translate(-143.327 -72.276)" fill="#0056ec"></path></g><path id="Path_25321" data-name="Path 25321" d="M162.045,117.828l-13.379,3.093,12.455,2.535.924-5.628" transform="translate(-102.221 -38.244)" fill="#2d27a0"></path><g id="Group_4570" data-name="Group 4570" transform="translate(102.799)"><path id="Path_25322" data-name="Path 25322" d="M189.494,96.214l-1,4.825-11.1-2.286-1.3,6.309,8.5,1.752-.957,4.639-8.5-1.752-1.326,6.438,11.1,2.289-.995,4.822-17.4-3.59,5.576-27.036Z" transform="translate(-166.513 -92.624)" fill="#fff"></path></g><g id="Group_4571" data-name="Group 4571" transform="translate(142.225 2.725)"><path id="Path_25323" data-name="Path 25323" d="M207.683,107.583a14.835,14.835,0,0,1-1.033,5.57,13.164,13.164,0,0,1-7.427,7.465,16.485,16.485,0,0,1-11.737,0,13.151,13.151,0,0,1-7.455-7.465,15.531,15.531,0,0,1,0-11.137,13.211,13.211,0,0,1,2.914-4.471,13.542,13.542,0,0,1,4.541-2.978,15.494,15.494,0,0,1,5.87-1.08,15.313,15.313,0,0,1,5.867,1.089,13.565,13.565,0,0,1,4.519,2.987,13.29,13.29,0,0,1,2.908,4.471A14.756,14.756,0,0,1,207.683,107.583Zm-6.555,0a11.851,11.851,0,0,0-.534-3.685,7.8,7.8,0,0,0-1.522-2.776,6.569,6.569,0,0,0-2.435-1.74,8.383,8.383,0,0,0-3.281-.609,8.524,8.524,0,0,0-3.306.609,6.568,6.568,0,0,0-2.441,1.74,7.86,7.86,0,0,0-1.525,2.776,13.129,13.129,0,0,0,0,7.389,7.751,7.751,0,0,0,1.525,2.776,6.482,6.482,0,0,0,2.441,1.734,8.644,8.644,0,0,0,3.306.6,8.5,8.5,0,0,0,3.281-.6,6.484,6.484,0,0,0,2.435-1.734,7.7,7.7,0,0,0,1.522-2.776A11.889,11.889,0,0,0,201.128,107.583Z" transform="translate(-178.999 -93.487)" fill="#fff"></path></g><path id="Path_25324" data-name="Path 25324" d="M195.059,104.34l-1.55-4.329a4.255,4.255,0,0,0-4.591-2.776s-2.839.739-3.413,1.639.455,3.082.455,3.082-1.374.736-1.415,1.2c-.085.919,2.346,2.854,2.346,2.854a4.247,4.247,0,0,0,4.076,1.478L193.54,107A2.014,2.014,0,0,0,195.059,104.34Z" transform="translate(-24.813 -82.764)" fill="#fae3d9"></path><path id="Path_25325" data-name="Path 25325" d="M205.968,153.931l7.619-25.649a6.048,6.048,0,0,0-1.156-5.6L191.421,99.039l-5.583,5.327,13.935,19.713a6.038,6.038,0,0,1,.878,5.147l-3.9,13.71Z" transform="translate(-22.018 -78.783)" fill="#5193f4"></path><path id="Path_25326" data-name="Path 25326" d="M198.006,103.028c-7.449.875-9.375,4.3-9.422,6.89,0,0,5.876,6.448,7.72,7.869,0,0-4.714,4.171-5.213,5.687l6.094,2.236s4.449-1.317,6.116-4.784,1.509-7.54-.512-10.212-6.944-3.96-5.1-7.9" transform="translate(-16.093 -70.647)" fill="#404b69"></path><path id="Path_25327" data-name="Path 25327" d="M195.6,105.061s-2.428,2.968-4.853,2.776-2.845-.793-2.845-.793a12.185,12.185,0,0,1-1.645,4.831c-1.3,1.809-1.4,4.541.8,7.051a9.315,9.315,0,0,0,5.03,2.962l1.263,4.288s3.7,1.913,6.28,1.159l.171-4.809s4.812-.253,4.058-2.949-5.753-.96-5.753-.96l5.5-5.583Z" transform="translate(-23.109 -65.79)" fill="#fae3d9"></path><path id="Path_25328" data-name="Path 25328" d="M187.794,111.515c2.946.932,4.288.114,4.288.114a7.264,7.264,0,0,1-3.865,1.721Z" transform="translate(-17.797 -51.864)" fill="#b7b7b7"></path><path id="Path_25329" data-name="Path 25329" d="M202.034,136.3c5.561,8.181-3.982,43.8-3.982,43.8a41.606,41.606,0,0,1,2.337,14.478c-.275,7.626-1.573,23.928-2.337,34.787h-8.226l-2.482-53V131.136S199.843,133.084,202.034,136.3Z" transform="translate(-18.766 -9.53)" fill="#aac5e2"></path><path id="Path_25330" data-name="Path 25330" d="M203.7,162.549l.05,12.87s-16.934-.186-22.144-.556,1.307-7.844,9.107-7.853c4.989-.006,6.738-5.731,6.738-5.731Z" transform="translate(-35.192 55.509)" fill="#414042"></path><path id="Path_25331" data-name="Path 25331" d="M206.43,162.549l.051,12.87s-16.934-.186-22.144-.556,1.307-7.844,9.11-7.853c4.986-.006,6.735-5.731,6.735-5.731Z" transform="translate(-29.297 55.509)" fill="#414042"></path><path id="Path_25332" data-name="Path 25332" d="M205.792,136.337c5.561,8.178-7.676,39.5-7.676,39.5s2.232,11.964,1.961,19.59-3.657,23.076-4.421,33.935H185.5l-.556-53V131.136S203.6,133.116,205.792,136.337Z" transform="translate(-23.944 -9.53)" fill="#bad4f5"></path><path id="Path_25333" data-name="Path 25333" d="M211.246,184.3c9-24.159-2.88-64.39-2.88-64.39l.455-3.59-15.491-5.46a8.146,8.146,0,0,0-1.743,2.479,42.958,42.958,0,0,0-2.678,6.571,45.964,45.964,0,0,0-2.251,10.941c-1.061,13.016,4.02,22.138-2.172,46.07C182.818,183.393,208.9,190.621,211.246,184.3Z" transform="translate(-22.101 -51.271)" fill="#5193f4"></path><path id="Path_25334" data-name="Path 25334" d="M185.121,127.065v.1c12.814,7.43,16.413-.079,14.443-5.16a17.352,17.352,0,0,0-10.657-9.388,10.33,10.33,0,0,0-1.535,3.5A45.964,45.964,0,0,0,185.121,127.065Z" transform="translate(-23.565 -49.482)" fill="#5193f4"></path><path id="Path_25335" data-name="Path 25335" d="M180.6,106.108l-1.554-4.329A4.249,4.249,0,0,0,174.456,99s-2.842.739-3.413,1.639.452,3.082.452,3.082-1.37.736-1.415,1.2c-.082.919,2.349,2.854,2.349,2.854a4.248,4.248,0,0,0,4.076,1.478l2.573-.489A2.011,2.011,0,0,0,180.6,106.108Z" transform="translate(-56.023 -78.949)" fill="#fae3d9"></path><path id="Path_25336" data-name="Path 25336" d="M226.1,140.152l-24.528-15.826-24.273-23.6-5.921,4.822L193.957,132.7l24.317,18.134a6.616,6.616,0,0,0,9.482-1.664h0A6.617,6.617,0,0,0,226.1,140.152Z" transform="translate(-53.225 -75.143)" fill="#5193f4"></path></g></g></g></g></svg> 